<?xml version="1.0" encoding="UTF-8"?>
<svg id="Layer_12" xmlns="http://www.w3.org/2000/svg" viewBox="0 0 1024 1024">
  <path d="M167.1,122.36c140.95-.93,281.89-1.86,422.84-2.8,3.32,60.4,14.97,256.41-66.2,393.32-19.95,33.65-56.23,80.71-110.88,96-39.04,10.93-72.97-.67-86.88-6.52-10.53-4.43-55.39-24.85-97.64-107.18-69.83-136.08-64.96-309.59-61.23-372.82Z" style="fill: #ea550f;"/>
  <path d="M418.99,714.98c-8-41.25-12.93-75.69-17.19-115.23-19.91-.02-37.55-.18-56.95,0-3.83,39.16-7.95,77.81-13.29,114.61l-16.83,38.58h121.89l-17.65-37.96Z" style="fill: #ea550f;"/>
  <path d="M183.82,235.63c-32.65.35-65.29.71-97.94,1.06-7.68.08-13.14,7.5-10.93,14.86,21.92,73.08,43.85,146.16,65.77,219.25,7.26,9.48,18.75,21.86,35.71,32.01,39.06,23.39,79.2,18.27,92.34,16.01-28.32-94.4-56.64-188.79-84.96-283.19Z" style="fill: none; stroke: #ea550f; stroke-miterlimit: 10; stroke-width: 20px;"/>
  <path d="M569.32,235.63c32.65.35,65.29.71,97.94,1.06,7.68.08,13.14,7.5,10.93,14.86-21.92,73.08-43.85,146.16-65.77,219.25-7.26,9.48-18.75,21.86-35.71,32.01-39.06,23.39-79.2,18.27-92.34,16.01,28.32-94.4,56.64-188.79,84.96-283.19Z" style="fill: none; stroke: #ea550f; stroke-miterlimit: 10; stroke-width: 20px;"/>
  <path d="M268.15,751.94h218.76c3.06,0,5.54,2.48,5.54,5.54v21.14h-229.84v-21.14c0-3.06,2.48-5.54,5.54-5.54Z" style="fill: #ea550f;"/>
  <rect x="222.81" y="778.62" width="311.1" height="81.67" style="fill: #212124;"/>
  <rect x="271.03" y="798.66" width="207.23" height="54.4" style="fill: #ff7332;"/>
  <rect x="182.18" y="860.29" width="394" height="45.15" style="fill: #212124;"/>
  <path d="M441.1,298.66c106.61-.63,213.21-1.25,319.82-1.88,2.51,40.56,11.32,172.18-50.07,264.12-15.09,22.59-42.53,54.19-83.87,64.46-29.53,7.34-55.19-.45-65.72-4.38-7.97-2.98-41.9-16.69-73.85-71.98-52.82-91.38-49.13-207.89-46.31-250.35Z" style="fill: #a6c626;"/>
  <path d="M572.8,614.09c-.96,35.45-.06,72.32-.74,107.98-.11,5.74-2.43,11.2-6.44,15.31-9.56,9.82-19.81,19.93-29.26,29.7-1.5,1.55-.4,4.14,1.76,4.15,44.58.38,89.17.77,133.75,1.15,2.26.02,3.36-2.75,1.69-4.27-10.67-9.68-23.38-20.3-34.35-30.12-4.65-4.16-7.39-10.04-7.54-16.27-.92-37.07-.79-74.08-.99-107.63-20.24-.02-38.17-.18-57.89,0Z" style="fill: #a6c626;"/>
  <rect x="527.53" y="765.14" width="154.38" height="11.27" style="fill: #5a3f32;"/>
  <path d="M453.46,776.4h298.13c1.67,0,3.02,1.35,3.02,3.02v100.25h-304.17v-100.25c0-1.67,1.35-3.02,3.02-3.02Z" style="fill: #453228;"/>
  <rect x="422.28" y="877.22" width="358" height="27.54" rx="2" ry="2" style="fill: #372318;"/>
  <rect x="479.44" y="793.2" width="243.67" height="70.93" rx="5.11" ry="5.11" style="fill: #caea42;"/>
  <circle cx="496.02" cy="808.48" r="7.98" style="fill: #38241c;"/>
  <circle cx="496.02" cy="850.15" r="7.98" style="fill: #38241c;"/>
  <circle cx="703.35" cy="808.48" r="7.98" style="fill: #38241c;"/>
  <circle cx="703.35" cy="850.15" r="7.98" style="fill: #38241c;"/>
  <path d="M442.5,311.85c-2.73-.37-58.8-8.44-88.72,29.37-22.03,27.84-24.26,69.09-7.51,95.13,26.91,41.86,64.53,43.39,112.24,73.85,9.1,5.81,8.63,25.74,2.2,32.31-7.55,7.72-22.07,1.03-29.32,2.74-5.73,1.35-5.11,16.27-.31,20.65,9.45,8.64,36.71-.57,47.88-15.65,9.43-12.73,7.33-27.38,6.88-30.04-1.64-9.85-9.07-17.6-19.82-24.62-35.47-23.16-61.65-26.87-80.95-41.72-19.97-15.37-37.98-47.77-28.79-76.98,9.05-28.78,47.83-47.4,87.47-45.01-.42-6.68-.83-13.35-1.25-20.03Z" style="fill: #a6c626;"/>
  <path d="M759.01,313.18c2.71-.48,58.43-10.72,89.79,25.9,23.1,26.97,26.92,68.09,11.2,94.77-25.27,42.87-62.8,45.87-109.29,78.16-8.86,6.16-7.62,26.06-.94,32.37,7.85,7.42,22.1.17,29.4,1.6,5.78,1.13,5.73,16.06,1.12,20.63-9.1,9-36.7.85-48.45-13.77-9.92-12.35-8.39-27.08-8.05-29.75,1.25-9.91,8.38-17.94,18.85-25.37,34.54-24.52,60.56-29.24,79.26-44.84,19.36-16.14,36.09-49.21,25.78-78.04-10.16-28.4-49.63-45.51-89.15-41.58.16-6.69.32-13.37.47-20.06Z" style="fill: #a6c626;"/>
  <path d="M684.55,530.85c77.05,1.59,156.72-1.59,233.77,0,4.73,14.39,22.76,87.11-14,151.9-4.5,7.93-49.45,84.79-111.35,77.92-46.49-5.16-78.14-48.84-91.68-73.83-33.68-62.14-22.81-133.78-16.74-156Z" style="fill: #ea550f;"/>
  <path d="M753.31,721.82c1.72,8.19,15.03,46.64-.3,77.07-15.15,30.07-31.8,42.97-39.44,46.53h174.68c-6.12-3.5-34.34-20.52-45.08-56.71-9.7-32.69,1.2-59.71,4.36-66.89-29.57,1.33-63.65.04-94.22,0Z" style="fill: #ea550f;"/>
  <path d="M711.75,853.96h178.62v9c0,4.66-3.78,8.45-8.45,8.45h-161.72c-4.66,0-8.45-3.78-8.45-8.45v-9h0Z" style="fill: #ea550f;"/>
  <path d="M720.2,839.73h161.72c4.66,0,8.45,3.78,8.45,8.45v9h-178.62v-9c0-4.66,3.78-8.45,8.45-8.45Z" style="fill: #ea550f;"/>
  <path d="M895.98,565.26c24.82-.05,49.64-.09,74.46-.14,6.46-.01,11.92,4.75,12.83,11.15,2.97,20.78,4.54,65.35-26.75,104.53-34.59,43.29-106.73,48.36-115.38,49.11,24.72-57.41,39.26-108.65,54.85-164.64Z" style="fill: none; stroke: #ea550f; stroke-miterlimit: 10; stroke-width: 15px;"/>
  <path d="M699.25,565.26c-24.82-.05-49.64-.09-74.46-.14-6.46-.01-11.92,4.75-12.83,11.15-2.97,20.78-4.54,65.35,26.75,104.53,34.59,43.29,106.73,48.36,115.38,49.11-24.72-57.41-39.26-108.65-54.85-164.64Z" style="fill: none; stroke: #ea550f; stroke-miterlimit: 10; stroke-width: 15px;"/>
  <path d="M696.58,871.41h212.07c3.05,0,5.53,2.48,5.53,5.53v23.07c0,2.51-2.04,4.54-4.54,4.54h-214.03c-2.51,0-4.54-2.04-4.54-4.54v-23.07c0-3.05,2.48-5.53,5.53-5.53Z" style="fill: #513e36;"/>
</svg>