<?xml version="1.0" encoding="UTF-8"?>
<svg id="Layer_2" xmlns="http://www.w3.org/2000/svg" xmlns:xlink="http://www.w3.org/1999/xlink" viewBox="0 0 1024 1024">
  <defs>
    <style>
      .cls-1 {
        fill: #f8fff7;
      }

      .cls-2 {
        fill: #2b468b;
      }

      .cls-3, .cls-4, .cls-5, .cls-6, .cls-7, .cls-8, .cls-9 {
        fill: none;
      }

      .cls-3, .cls-5, .cls-6, .cls-7, .cls-9 {
        stroke: #4b2f38;
        stroke-linecap: round;
      }

      .cls-3, .cls-7, .cls-9 {
        stroke-linejoin: round;
      }

      .cls-4 {
        stroke: #a84705;
      }

      .cls-4, .cls-5, .cls-6, .cls-8 {
        stroke-miterlimit: 10;
      }

      .cls-4, .cls-8 {
        stroke-width: 9px;
      }

      .cls-10 {
        fill: #fff;
      }

      .cls-11 {
        fill: #ee7f7f;
      }

      .cls-12 {
        fill: #a6c626;
      }

      .cls-5 {
        stroke-width: 4px;
      }

      .cls-13 {
        fill: #234177;
      }

      .cls-14 {
        fill: #ea550f;
      }

      .cls-15 {
        fill: #ff1a1a;
      }

      .cls-16 {
        fill: #243766;
      }

      .cls-17 {
        fill: #f28686;
      }

      .cls-18 {
        fill: #f69e9b;
      }

      .cls-6 {
        stroke-width: 5px;
      }

      .cls-19 {
        fill: #4b2f38;
      }

      .cls-20 {
        fill: #d33c00;
      }

      .cls-21 {
        fill: #a04304;
      }

      .cls-22 {
        fill: #d88080;
      }

      .cls-7 {
        stroke-width: 2px;
      }

      .cls-23 {
        fill: #f6a2a0;
      }

      .cls-24 {
        fill: #8caa0e;
      }

      .cls-25 {
        fill: #eaeaea;
      }

      .cls-8 {
        stroke: #000;
      }

      .cls-9 {
        stroke-width: 3.49px;
      }

      .cls-26 {
        fill: #f7f7f7;
      }
    </style>
    <image id="image" width="512" height="512" xlink:href="../../../../../../Downloads/dollar (1).png"/>
  </defs>
  <rect class="cls-10" x="101.84" y="156.39" width="801.14" height="664.15" rx="12" ry="12"/>
  <rect class="cls-25" x="173.43" y="286.38" width="651.68" height="238.95" rx="12" ry="12"/>
  <use transform="translate(725.41 552.05) scale(.53)" xlink:href="#image"/>
  <path d="M425.75,790.74c1.34-.06,2.6.6,3.34,1.73,3.57,5.45,8.72,11.4,16.18,15.67,13.33,7.64,26.91,5.89,26.95,6.81.46,9.59-13.1,2.98-62.3,5.6-2.21.12-4.06-1.7-3.99-3.94.24-7.16.47-14.31.71-21.47.07-1.99,1.64-3.6,3.61-3.69,5.17-.24,10.33-.47,15.5-.71Z"/>
  <path class="cls-8" d="M686.79,630.13v-20.34c0-5.6,4.05-10.35,9.53-11.18l24.56-3.72c7.15-1.08,13.85,3.82,15.05,11.03l3.85,23.07-52.99,1.13Z"/>
  <path class="cls-18" d="M404.23,584.66c7.34,1.98,13.18,15.85,13.7,28.92.27,6.74-3.31,16.4-12.42,18.21-12.14,2.42-17.23-17.13-14.96-31.37,1.43-8.97,7.91-17.32,13.68-15.76Z"/>
  <path class="cls-4" d="M385.06,646.62v-20.71c0-5.7,4.13-10.54,9.71-11.38l25.01-3.78c7.28-1.1,14.1,3.89,15.32,11.23l3.92,23.49-53.95,1.15Z"/>
  <rect class="cls-21" x="349.73" y="637.66" width="130.44" height="71.91" rx="25.47" ry="25.47"/>
  <path class="cls-18" d="M705.96,579.21c7.63-1.95,14.98,4.24,16.88,12.24.98,4.13-1.62,11.76-10.63,16.87-12.01,6.81-19.2-3.29-18.41-13.24.5-6.27,6.17-14.35,12.16-15.88Z"/>
  <rect class="cls-18" x="608.31" y="386.9" width="44.95" height="32.15" transform="translate(226.14 1032.7) rotate(-89.85)"/>
  <path class="cls-22" d="M646.6,387.25v1.16c-.04,13.56-9.7,24.63-21.46,24.6l-10.45-.03.02-8.95,11.56.03c9.4.03,17.47-7.05,20.33-16.82Z"/>
  <path class="cls-11" d="M610.74,365.66c-.01,4.21-3.38,7.59-7.54,7.58-1.07,0-2.09-.23-3.01-.63-.37-.17-.72-.37-1.07-.6-2.07-1.34-3.44-3.71-3.43-6.39,0-3.14,1.89-5.82,4.58-6.96.46-.2.95-.35,1.45-.46.49-.1.99-.15,1.52-.15,4.15.01,7.51,3.42,7.5,7.61Z"/>
  <path class="cls-18" d="M649.86,359.94l-.06,23.84c0,1.95-.28,3.84-.79,5.63-.09.32-.18.64-.29.94-2.75,8.24-10.52,14.2-19.57,14.18l-11.57-.03c-9.61-.03-17.44-7.98-17.42-17.69l.07-27c0-.39.01-.78.05-1.15.02-.42.07-.84.13-1.25.51-3.71,2.17-7.05,4.62-9.65,3.19-3.42,7.72-5.56,12.72-5.55l14.7.04c8.61.02,15.8,6.43,17.18,14.74.17.96.25,1.95.25,2.95Z"/>
  <path class="cls-19" d="M637.22,348.64c2.04,3.04-5.93,10.69-3.66,16.95,2.03,5.61,11.67,8.38,18.06,4.29,8.84-5.66,9.08-22.92,3.69-29.67-2.3-2.88-4.5-2.45-10.83-4.27-17.04-4.89-18.85-13.1-28.88-12.8-7.82.24-17.35,5.55-18.1,12.67-.73,6.91,7.41,13.8,15.16,14.66,14.01,1.56,22.14-5.44,24.55-1.83Z"/>
  <path class="cls-23" d="M661.88,366.56c0,1.71-.44,3.32-1.2,4.72,0,0-.01.01,0,.02-1.68,3.06-4.9,5.12-8.61,5.11-.78,0-1.53-.09-2.25-.28-4.31-1.04-7.51-4.96-7.5-9.63,0-.51.03-1,.12-1.49,0,0-.01-.01,0-.02.6-3.89,3.46-7.03,7.17-8.01.8-.21,1.64-.33,2.51-.33,5.4.01,9.77,4.45,9.75,9.9Z"/>
  <line class="cls-6" x1="598.75" y1="357.44" x2="607.45" y2="357.23"/>
  <line class="cls-6" x1="616.8" y1="357.49" x2="625.5" y2="357.28"/>
  <ellipse class="cls-19" cx="604.72" cy="366.72" rx="3.01" ry="3.04"/>
  <ellipse class="cls-19" cx="619.76" cy="366.77" rx="3.01" ry="3.04"/>
  <path class="cls-9" d="M609.44,374l-.02,6.51c0,1.03.82,1.86,1.83,1.86h3.03"/>
  <path class="cls-9" d="M605.93,389.47c.57.54,2.57,2.28,5.68,2.51,3.46.25,5.87-1.54,6.43-1.98"/>
  <ellipse class="cls-18" cx="613" cy="418.18" rx="6.24" ry="5.16"/>
  <path class="cls-20" d="M575.36,570.47c-.06,5.07-.06,13.8.52,24.62,1.11,20.77,3.64,36.04,4.19,39.51,2.53,16.18,5.84,57.77,9.42,167.78,6.28.38,23.36.76,29.64,1.15,3.61-14.11-3.85-28.81-.85-44.09,13.05-66.62,16.25-128.13,14.65-181.52-19.19-2.48-38.38-4.96-57.57-7.44Z"/>
  <path class="cls-9" d="M647.58,369.56c-.64-2.15-.06-4.49,1.52-6.07,1.58-1.58,3.9-2.16,6.02-1.5"/>
  <path class="cls-14" d="M586.83,565.71c5.85,19.66,15.59,48.39,31.54,81.66,6.25,13.04,11.29,22.1,17.77,34.17,18.16,33.78,36.5,68.59,54.66,102.37,4.3,2.57,7.56-.91,11.29-3.49,3.33-2.31,6.03-3.38,6.3-4.48-2.09-17.42-4.17-34.84-6.26-52.26-1.16-9.65-2.69-18.81-8.51-26.54-2.27-3.02-4.55-12.03-6.82-14.83-4.64-5.71-7.62-12.59-8.47-19.93-4.07-34.99-10.94-62.44-14.57-98.6,0,0,0,0,0,0-25.64.64-51.28,1.29-76.92,1.93Z"/>
  <path class="cls-1" d="M614.65,412.13c.34,3.22-4.01,4.58-2.12,6.18,2.82,2.38,17.99-2.15,36.41-8.94.63-.23,1.33-.23,1.95,0l.41.15c11.41,4.21,19.07,14.17,19.54,25.44,1.85,43.54,3.69,87.09,5.54,130.63.14,3.41-3.99,6.24-9.18,6.28-31.53.3-63.05.6-94.58.9-5.49.05-9.86-3-9.43-6.59,4.4-37.05,8.79-74.09,13.19-111.14,1.08-9.12,6.19-17.84,14.69-25.1,16.46-14.05,23.49-18.81,23.59-17.82Z"/>
  <path class="cls-12" d="M650.94,408.67c-4.79.08-17.88,2.4-33.12,34.55-3.98,11.19-7.58,23.64-10.32,37.3-9.81,48.88-4.2,91.49,2.72,120.66,9.42,2.35,24.08,4.78,41.81,2.74,14.51-1.67,26.16-5.76,34.21-9.32-4.34-31.45-8.69-62.89-13.03-94.34,3.67,6.36,5.85,13.79,9.3,22.05,4.84,11.59,10.93,47.45,13.34,62.1.39,2.38,2.4,4.14,4.79,4.2,4.9.13,11.46-1.03,16.66-.88,3.02.09,5.43-2.54,5.09-5.57-2.13-19.54-11.64-63.36-17.69-85.74-2-7.38-23.86-88.28-53.76-87.76Z"/>
  <path class="cls-12" d="M614.64,412.03c-1-.87-18.71,7.07-25.51,14.92-14.49,16.72-11.56,27.47-21.98,49.91-5.01,10.78-10.1,27.2-33.13,40.74-10.68,6.28-33.56,8.06-42.27,8.57-1.73.1-3.09,1.54-3.09,3.29,0,4,.29,9.82.3,13.86,0,1.78,1.4,3.23,3.15,3.29,9.81.34,29.55-.22,43.74-3.43,11.16-2.53,20.54-6.07,27.94-9.47-1.61,20.64-3.23,41.29-4.84,61.93,6.58.36,13.16.73,19.74,1.09v-24.05h-4.47c.64-15.75,1.58-35.91,2.98-59.38,2.95-49.65,4.97-64.21,14.9-80.15,6.18-9.92,23.6-20.18,22.53-21.11Z"/>
  <path class="cls-24" d="M654.4,409.28c-9.16-2.63-20.69,6.69-29.98,21.86-9.77,11.81-21.06,65.28-20.45,75.54,6.31-14.77,12.63-29.55,18.94-44.32.57-5.22,1.14-10.45,1.71-15.67,4.96-1.22,9.91-2.45,14.87-3.67,5.13-11.6,9.78-22.13,14.91-33.73Z"/>
  <path class="cls-24" d="M613,413.7c-15.01,5.7-22.62,14.68-33.46,34.94-6.07,11.34-11,26.5-12.93,34.94,2.38-.53,2.85-1.19,5.23-1.73.09,11.92-2.68,16.62,4.04,35.75,3.18-43.04,3.08-45.64,4.42-52.74,5.07-26.87,12.6-35.99,32.7-51.17Z"/>
  <polyline class="cls-18" points="369.84 420.05 369.76 386.56 341.66 386.64 341.75 420.13"/>
  <path class="cls-22" d="M369.63,405.81c-14.28-2.5-25.28-11.76-27.91-22.33l-.2,1.17c-2.34,13.61,10.38,27.3,28.25,30.43"/>
  <path class="cls-11" d="M376.04,372.23c.01,4.28,3.44,7.73,7.67,7.72,1.09,0,2.13-.24,3.06-.65.38-.18.74-.38,1.09-.61,2.11-1.37,3.5-3.78,3.49-6.51,0-3.19-1.93-5.92-4.66-7.09-.47-.21-.97-.36-1.48-.47-.5-.1-1.01-.15-1.54-.15-4.23.01-7.64,3.48-7.63,7.75Z"/>
  <path class="cls-18" d="M343.03,347.03h18.7c13.43,0,24.34,10.91,24.34,24.34v16.86c0,9.73-7.9,17.64-17.64,17.64h-3.67c-16.88,0-30.58-13.7-30.58-30.58v-19.4c0-4.88,3.97-8.85,8.85-8.85Z"/>
  <path class="cls-19" d="M346.9,354.17c-2.08,3.1,6.04,10.89,3.73,17.26-2.07,5.71-11.88,8.53-18.39,4.37-9-5.76-9.24-23.33-3.76-30.21,2.34-2.93,4.44-3.14,11.03-4.35,18.38-3.37,21.78-3.11,31.99-2.79,7.96.24,15.08-4.58,15.85,2.67.75,7.04-7.55,14.05-15.44,14.93-14.26,1.59-22.54-5.54-25-1.87Z"/>
  <path class="cls-23" d="M324.82,375.34c0,1.75.38,3.38,1.04,4.81,0,0,0,.01,0,.02,1.46,3.11,4.24,5.21,7.43,5.21.67,0,1.32-.09,1.94-.28,3.72-1.05,6.48-5.05,6.47-9.8,0-.52-.03-1.02-.11-1.51,0,0,0-.01,0-.02-.52-3.96-2.99-7.16-6.2-8.16-.69-.22-1.42-.34-2.17-.33-4.66.01-8.43,4.52-8.42,10.08Z"/>
  <line class="cls-5" x1="386.07" y1="363.13" x2="377.21" y2="362.91"/>
  <line class="cls-5" x1="367.69" y1="363.18" x2="358.83" y2="362.96"/>
  <ellipse class="cls-19" cx="382.17" cy="371.48" rx="3.06" ry="3.09"/>
  <ellipse class="cls-19" cx="364.67" cy="371.52" rx="3.06" ry="3.09"/>
  <path class="cls-7" d="M376.63,375.96l.02,6.63c0,1.04-.83,1.89-1.87,1.9h-3.08"/>
  <path class="cls-7" d="M379.84,392.09c-.59.55-2.62,2.32-5.79,2.56-3.52.26-5.97-1.57-6.55-2.02"/>
  <path class="cls-3" d="M337.8,376.2c.65-2.19.06-4.57-1.55-6.18s-3.97-2.2-6.13-1.53"/>
  <ellipse class="cls-19" cx="367.69" cy="341.27" rx="13.41" ry="5.09" transform="translate(-133.72 325.48) rotate(-41.06)"/>
  <path class="cls-13" d="M380.64,419.09c2-1,3.95-1.65,7.33-.98,7.74,1.54,13.56,8.02,14.72,15.9,4.34,29.53,10.49,59.49,13.44,90.73,2.5,26.42,4.58,52.33,6.3,77.7l-30.34.56c-4.01-30.37-15.46-55.82-19.46-86.19-1.16-4.04-15.3-86,8.01-97.71Z"/>
  <ellipse class="cls-19" cx="358.83" cy="339.14" rx="13.46" ry="5.06" transform="translate(-93.56 536.91) rotate(-67)"/>
  <path class="cls-16" d="M406.94,571.76c1.29,30.66,3.53,62.76,6.99,96.14,4.83,46.66,11.47,90.54,19.21,131.4-10.19,2.14-20.37,4.27-30.56,6.41-4.49-13.04-13.24-38.44-24.45-70.51-36.82-105.32-48.48-134.9-32.31-152.23,6.36-6.81,21.2-16.22,61.12-11.22Z"/>
  <ellipse class="cls-19" cx="330.71" cy="343.87" rx="1.93" ry="5.91" transform="translate(-133.05 455.85) rotate(-59.69)"/>
  <path class="cls-2" d="M384.23,562.05c-8.33,50.16-16.16,101.45-23.41,153.84-4.18,30.25-8.08,60.19-11.7,89.81-9.6-1.48-19.21-2.96-28.81-4.45-4.2-82.4-8.4-164.81-12.6-247.21,25.51,2.67,51.01,5.34,76.52,8Z"/>
  <path class="cls-10" d="M332.8,415.63h18.13c27.77,0,50.32,22.55,50.32,50.32v99.56c0,4.66-3.78,8.44-8.44,8.44h-42.32c-26.17,0-47.42-21.25-47.42-47.42v-81.18c0-16.41,13.32-29.73,29.73-29.73Z"/>
  <ellipse class="cls-19" cx="332.17" cy="342.56" rx="1.92" ry="5.95" transform="translate(-59.45 69.94) rotate(-11.04)"/>
  <path d="M590.33,796.36c-4.79,8.44-9.82,11.41-13.73,12.48-6.27,1.71-11.46-.97-15.79,2.77-2.26,1.95-4.1,5.48-3.43,7.63,1.3,4.22,13.43,6.7,59.05,0-1.14-7.17-2.29-14.33-3.43-21.5-7.55-.46-15.11-.92-22.66-1.39Z"/>
  <polygon class="cls-18" points="362.61 428.37 369.93 413.61 352.52 415.38 362.61 428.37"/>
  <path class="cls-15" d="M365.33,434.38l4.91-9.9c.64-1.29-.43-2.76-1.85-2.54l-12.47,1.88c-1.42.21-2.01,1.93-1.03,2.97l7.56,8.02c.85.9,2.33.68,2.88-.43Z"/>
  <path class="cls-26" d="M341.34,405.59s-.18,4.01.2,4.34c7.51,6.71,14.22,5.51,17.34,4.46.78-.26,1.6.74,1.62,1.99.09,5.14-.33,13.02-3.64,15.67-5.09,4.08-9.91,2.75-19.56-17.92.54-2.93,1.33-6.12,4.04-8.54Z"/>
  <path class="cls-13" d="M374.59,411.75c1.95-1.56,7.98-3.06,20.52,15.28,4.26,12.6,8.36,26.82,11.84,42.63,9.22,41.81,10.81,79.62,9.98,108.58-.06,1.97-1.44,3.61-3.31,4.01-2.17.47-4.76,1.35-7.52,3-3.86,2.31-6.74,5.33-8.77,7.94-.68.88-2.06.32-2-.8,1.28-24.08,1.37-58.74-5.02-98.92-.32-44.34-21.23-77.31-15.73-81.72Z"/>
  <path class="cls-26" d="M369.71,405.63c-.16,1.54.09,3.24-.08,5.58-.29,4.12-2.77,5.1-4.43,6.67,5.86,13.52,5.44,12.39,6.15,12.26,2.41-.44,4.54-5.93,3.87-11.48-.69-5.67-3.97-10.15-5.51-13.02Z"/>
  <path class="cls-17" d="M467.98,530.59c2.96-6.09,15.85-8.82,27.14-7.04,5.83.92,13.49,5.7,13.49,13.98,0,11.04-17.64,12.14-29.46,7.72-7.45-2.78-13.5-9.88-11.18-14.66Z"/>
  <path class="cls-18" d="M446.16,534.66c3.01-6.2,16.14-8.98,27.64-7.17,5.93.94,13.74,5.81,13.74,14.23,0,11.24-17.96,12.36-30,7.87-7.58-2.83-13.75-10.06-11.38-14.93Z"/>
  <polygon class="cls-15" points="361.44 435.3 361.44 532.38 373.55 542.17 382.42 531.75 365.93 431.76 361.44 431.76 361.44 435.3"/>
  <path class="cls-13" d="M334.65,408.82c-2.74-.5-4.56.71-4.56.71-2.35,1.56-2.73,4.88-2.81,6.38-9.86.9-23.86,3.65-28.78,13.47-4.12,8.22-.1,17.87,1.05,20.92,5.55,14.68,1.23,47.79-9.41,123.07-.38,2.67,1.35,5.19,3.97,5.74,14,2.95,37.33,5.11,51.19,8.06,2.35.5,4.62-1.17,4.86-3.58,2.57-25.95-1.27-47.34-.52-64.34,3.35-76.51-9.45-109.43-14.98-110.44Z"/>
  <path d="M321.8,799.92c-5.11.03-6.47,10.45-4.84,14.91,2.2,6.03,13.56,5.89,36.27,5.62,5.97-.07,7.21-.27,7.29-1.14,1.17-13.66-2.78-19.56-38.72-19.38Z"/>
  <path class="cls-16" d="M297.23,435.36c-3.63,10.81.9,17.91,13.99,44.93,15.21,31.38,20.86,43.91,32.88,51.75,5.38,3.51,15.39,5.37,28.76,8.93,16.62,4.43,38.5,10.37,77.51,8.3,3.48-.18,6.29-2.97,6.51-6.48.2-3.2.36-6.39.6-9.6.15-1.99-1.13-3.8-3.04-4.3-25.31-6.51-50.61-10.08-75.92-16.86-5.67-1.52-10.46-5.34-13.25-10.55-12.31-23.03-19.27-43.46-30.05-69.44-.96-.56-10.59-17.88-23.99-12.72-9.88,3.8-12.83,12.59-13.99,16.05Z"/>
  <rect x="652.1" y="621.33" width="128.1" height="70.62" rx="25.47" ry="25.47"/>
  <image width="1024" height="1024" transform="translate(691.64 634.2) scale(.05)" xlink:href="../../../../../../Downloads/Techysquad-Logo-01.png"/>
  <path d="M689.6,781.36c.46.55,3.65,7.75-.16,19.2-1.61,4.84-3.97,7.87-6.06,9.75-2.79,2.51-3.48,6.7-1.42,9.85.05.08.11.16.15.22,4.25,5.75,19.86,4.03,24.03-3.17,3.23-5.57-2.31-11.16,1.72-16.75,2.62-3.64,5.83-2.48,8.51-6.63,3.47-5.37,1.17-12.06,1.04-12.42-2.79-7.73-10.85-9.55-11.36-9.66-5.49,3.2-10.97,6.41-16.46,9.61Z"/>
  <path class="cls-25" d="M113.84,155.52h777.14c6.62,0,12,5.38,12,12v55.04H101.84v-55.04c0-6.62,5.38-12,12-12Z"/>
  <circle class="cls-10" cx="133.71" cy="189.91" r="14.29"/>
  <circle class="cls-10" cx="176.75" cy="189.91" r="14.29"/>
  <use transform="translate(39.61 592.85) scale(.45)" xlink:href="#image"/>
  <use transform="translate(151.7 668.64) scale(.3)" xlink:href="#image"/>
</svg>