<?xml version="1.0" encoding="UTF-8"?>
<svg id="Layer_6" xmlns="http://www.w3.org/2000/svg" viewBox="0 0 1024 1024">
  <defs>
    <style>
      .cls-1, .cls-2, .cls-3 {
        fill: #fff;
      }

      .cls-4 {
        fill: #a6c626;
      }

      .cls-5 {
        fill: #ea550f;
      }

      .cls-6 {
        stroke: #bababa;
      }

      .cls-6, .cls-7 {
        stroke-width: 6px;
      }

      .cls-6, .cls-7, .cls-8 {
        fill: none;
        stroke-linecap: round;
      }

      .cls-6, .cls-7, .cls-3 {
        stroke-miterlimit: 10;
      }

      .cls-2 {
        font-family: MicrosoftTaiLe-Bold, 'Microsoft Tai Le';
        font-size: 18px;
        font-weight: 700;
      }

      .cls-7 {
        stroke: #ea550f;
      }

      .cls-9 {
        fill: #212121;
      }

      .cls-10 {
        fill: #333;
      }

      .cls-8 {
        stroke-linejoin: round;
        stroke-width: 4px;
      }

      .cls-8, .cls-3 {
        stroke: #d3d3d3;
      }

      .cls-11 {
        fill: #7f7f7f;
      }
    </style>
  </defs>
  <path class="cls-3" d="M993.54,278.61v505.07c0,25.09-20.34,45.42-45.43,45.42H70.79c-25.09,0-45.43-20.33-45.43-45.42v-505.07c0-25.08,20.34-45.42,45.43-45.42h877.32c25.09,0,45.43,20.34,45.43,45.42Z"/>
  <line class="cls-8" x1="614.69" y1="415.79" x2="614.69" y2="484.91"/>
  <line class="cls-8" x1="444.69" y1="554.79" x2="444.69" y2="623.91"/>
  <line class="cls-8" x1="787.69" y1="554.79" x2="787.69" y2="623.91"/>
  <line class="cls-8" x1="617.69" y1="554.79" x2="617.69" y2="623.91"/>
  <polyline class="cls-8" points="543 381.73 440.67 381.73 440.67 484.91"/>
  <polyline class="cls-8" points="383 521.73 280.67 521.73 280.67 624.91"/>
  <polyline class="cls-8" points="681.67 381.73 784 381.73 784 484.91"/>
  <polyline class="cls-8" points="851.67 520.73 954 520.73 954 623.91"/>
  <g>
    <rect class="cls-4" x="210" y="615.83" width="149.07" height="78.89" rx="12" ry="12"/>
    <circle class="cls-1" cx="285.49" cy="646.04" r="13.55"/>
    <path class="cls-1" d="M267.47,661.31h37.28c6.62,0,12,5.38,12,12v11.49h-61.28v-11.49c0-6.62,5.38-12,12-12Z"/>
  </g>
  <path class="cls-10" d="M73.62,233.18h874.23c25.21,0,45.68,20.47,45.68,45.68v17.6H73.62v-63.28h0Z"/>
  <path class="cls-9" d="M67.99,233.18h182.06v595.91H67.99c-23.52,0-42.62-19.1-42.62-42.62v-510.68c0-23.52,19.1-42.62,42.62-42.62Z"/>
  <circle class="cls-11" cx="785.45" cy="264.82" r="18.18"/>
  <line class="cls-6" x1="815.83" y1="257" x2="912.85" y2="257"/>
  <line class="cls-7" x1="815.83" y1="273.9" x2="945.53" y2="273.9"/>
  <rect class="cls-5" x="67.07" y="409.91" width="126.38" height="38.11" rx="12" ry="12"/>
  <rect class="cls-10" x="71.07" y="311.33" width="133.28" height="50.62" rx="12" ry="12"/>
  <text class="cls-2" transform="translate(91.09 437.01)"><tspan x="0" y="0">IB Levels</tspan></text>
  <rect class="cls-10" x="71.07" y="540.91" width="126.38" height="26.04" rx="12" ry="12"/>
  <rect class="cls-10" x="71.07" y="484.91" width="126.38" height="26.04" rx="12" ry="12"/>
  <rect class="cls-10" x="71.07" y="599.91" width="126.38" height="26.04" rx="12" ry="12"/>
  <rect class="cls-10" x="71.07" y="659.91" width="126.38" height="26.04" rx="12" ry="12"/>
  <rect class="cls-10" x="71.07" y="720.91" width="126.38" height="26.04" rx="12" ry="12"/>
  <g>
    <rect class="cls-5" x="540.16" y="342.29" width="149.07" height="78.89" rx="12" ry="12"/>
    <circle class="cls-1" cx="615.64" cy="372.5" r="13.55"/>
    <path class="cls-1" d="M597.62,387.77h37.28c6.62,0,12,5.38,12,12v11.49h-61.28v-11.49c0-6.62,5.38-12,12-12Z"/>
  </g>
  <g>
    <rect class="cls-4" x="370" y="478.83" width="149.07" height="78.89" rx="12" ry="12"/>
    <circle class="cls-1" cx="445.49" cy="509.04" r="13.55"/>
    <path class="cls-1" d="M427.47,524.31h37.28c6.62,0,12,5.38,12,12v11.49h-61.28v-11.49c0-6.62,5.38-12,12-12Z"/>
  </g>
  <g>
    <rect class="cls-5" x="543" y="478.83" width="149.07" height="78.89" rx="12" ry="12"/>
    <circle class="cls-1" cx="618.49" cy="509.04" r="13.55"/>
    <path class="cls-1" d="M600.47,524.31h37.28c6.62,0,12,5.38,12,12v11.49h-61.28v-11.49c0-6.62,5.38-12,12-12Z"/>
  </g>
  <g>
    <rect class="cls-4" x="715" y="478.83" width="149.07" height="78.89" rx="12" ry="12"/>
    <circle class="cls-1" cx="790.49" cy="509.04" r="13.55"/>
    <path class="cls-1" d="M772.47,524.31h37.28c6.62,0,12,5.38,12,12v11.49h-61.28v-11.49c0-6.62,5.38-12,12-12Z"/>
  </g>
  <g>
    <rect class="cls-5" x="370" y="615.83" width="149.07" height="78.89" rx="12" ry="12"/>
    <circle class="cls-1" cx="445.49" cy="646.04" r="13.55"/>
    <path class="cls-1" d="M427.47,661.31h37.28c6.62,0,12,5.38,12,12v11.49h-61.28v-11.49c0-6.62,5.38-12,12-12Z"/>
  </g>
  <g>
    <rect class="cls-4" x="543" y="615.83" width="149.07" height="78.89" rx="12" ry="12"/>
    <circle class="cls-1" cx="618.49" cy="646.04" r="13.55"/>
    <path class="cls-1" d="M600.47,661.31h37.28c6.62,0,12,5.38,12,12v11.49h-61.28v-11.49c0-6.62,5.38-12,12-12Z"/>
  </g>
  <g>
    <rect class="cls-5" x="715" y="615.83" width="149.07" height="78.89" rx="12" ry="12"/>
    <circle class="cls-1" cx="790.49" cy="646.04" r="13.55"/>
    <path class="cls-1" d="M772.47,661.31h37.28c6.62,0,12,5.38,12,12v11.49h-61.28v-11.49c0-6.62,5.38-12,12-12Z"/>
  </g>
  <g>
    <path class="cls-4" d="M993.54,615.83v78.9h-99.54c-6.6,0-12-5.4-12-12v-54.9c0-6.6,5.4-12,12-12h99.54Z"/>
    <circle class="cls-1" cx="957.49" cy="646.04" r="13.55"/>
    <path class="cls-1" d="M939.47,661.31h37.28c6.62,0,12,5.38,12,12v11.49h-61.28v-11.49c0-6.62,5.38-12,12-12Z"/>
  </g>
</svg>