<?xml version="1.0" encoding="UTF-8"?>
<svg id="Layer_47" xmlns="http://www.w3.org/2000/svg" viewBox="0 0 1024 1024">
  <path d="M993.37,162.95v673.23c0,33.44-20.34,60.54-45.43,60.54H70.62c-25.09,0-45.43-27.1-45.43-60.54V162.95c0-33.43,20.34-60.54,45.43-60.54h877.32c25.09,0,45.43,27.11,45.43,60.54Z" style="fill: #f4f4f4;"/>
  <line x1="368.91" y1="374.13" x2="472.08" y2="374.13" style="fill: none; stroke: #d3d3d3; stroke-linecap: round; stroke-linejoin: round; stroke-width: 4px;"/>
  <line x1="401.4" y1="460.62" x2="575.02" y2="460.62" style="fill: none; stroke: #d3d3d3; stroke-linecap: round; stroke-linejoin: round; stroke-width: 4px;"/>
  <line x1="368.91" y1="647.13" x2="472.08" y2="647.13" style="fill: none; stroke: #d3d3d3; stroke-linecap: round; stroke-linejoin: round; stroke-width: 4px;"/>
  <line x1="368.91" y1="261.8" x2="368.91" y2="896.71" style="fill: none; stroke: #d3d3d3; stroke-linecap: round; stroke-linejoin: round; stroke-width: 4px;"/>
  <line x1="401.4" y1="374.13" x2="401.4" y2="460.62" style="fill: none; stroke: #d3d3d3; stroke-linecap: round; stroke-linejoin: round; stroke-width: 4px;"/>
  <line x1="457.69" y1="546.57" x2="727.16" y2="546.57" style="fill: none; stroke: #d3d3d3; stroke-linecap: round; stroke-linejoin: round; stroke-width: 4px;"/>
  <line x1="457.69" y1="460.62" x2="457.69" y2="546.57" style="fill: none; stroke: #d3d3d3; stroke-linecap: round; stroke-linejoin: round; stroke-width: 4px;"/>
  <path d="M70.94,102.4h876.75c25.21,0,45.68,20.47,45.68,45.68v17.6H70.94v-63.28h0Z" style="fill: #192f35;"/>
  <path d="M67.81,103.94h182.06v792.78H67.81c-23.52,0-42.62-19.1-42.62-42.62V146.55c0-23.52,19.1-42.62,42.62-42.62Z" style="fill: #192f35;"/>
  <circle cx="793.22" cy="134.04" r="18.18" style="fill: #7f7f7f;"/>
  <line x1="823.59" y1="126.22" x2="920.61" y2="126.22" style="fill: none; stroke: #bababa; stroke-linecap: round; stroke-miterlimit: 10; stroke-width: 6px;"/>
  <line x1="823.59" y1="143.12" x2="953.29" y2="143.12" style="fill: none; stroke: #ea550f; stroke-linecap: round; stroke-miterlimit: 10; stroke-width: 6px;"/>
  <rect x="66.9" y="247.53" width="126.38" height="38.11" rx="12" ry="12" style="fill: #ea550f;"/>
  <rect x="70.9" y="148.95" width="133.28" height="50.62" rx="12" ry="12" style="fill: #263d42;"/>
  <text transform="translate(90.92 274.63)" style="fill: #fff; font-family: MicrosoftTaiLe-Bold, &apos;Microsoft Tai Le&apos;; font-size: 18px; font-weight: 700;"><tspan x="0" y="0">IB Levels</tspan></text>
  <rect x="70.9" y="378.53" width="126.38" height="26.04" rx="12" ry="12" style="fill: #263d42;"/>
  <rect x="70.9" y="322.53" width="126.38" height="26.04" rx="12" ry="12" style="fill: #263d42;"/>
  <rect x="70.9" y="437.53" width="126.38" height="26.04" rx="12" ry="12" style="fill: #263d42;"/>
  <rect x="70.9" y="497.53" width="126.38" height="26.04" rx="12" ry="12" style="fill: #263d42;"/>
  <rect x="70.9" y="558.53" width="126.38" height="26.04" rx="12" ry="12" style="fill: #263d42;"/>
  <g>
    <rect x="295.29" y="214.84" width="149.07" height="78.89" rx="12" ry="12" style="fill: #ea550f;"/>
    <circle cx="370.78" cy="245.05" r="13.55" style="fill: #fff;"/>
    <path d="M352.76,260.32h37.28c6.62,0,12,5.38,12,12v11.49h-61.28v-11.49c0-6.62,5.38-12,12-12Z" style="fill: #fff;"/>
  </g>
  <g>
    <rect x="428.04" y="332.53" width="149.07" height="78.89" rx="12" ry="12" style="fill: #a6c626;"/>
    <circle cx="503.52" cy="362.74" r="13.55" style="fill: #fff;"/>
    <path d="M485.51,378.01h37.28c6.62,0,12,5.38,12,12v11.49h-61.28v-11.49c0-6.62,5.38-12,12-12Z" style="fill: #fff;"/>
  </g>
  <g>
    <rect x="428.04" y="607.69" width="149.07" height="78.89" rx="12" ry="12" style="fill: #ea550f;"/>
    <circle cx="503.52" cy="637.9" r="13.55" style="fill: #fff;"/>
    <path d="M485.51,653.17h37.28c6.62,0,12,5.38,12,12v11.49h-61.28v-11.49c0-6.62,5.38-12,12-12Z" style="fill: #fff;"/>
  </g>
  <g>
    <rect x="575.02" y="416.99" width="149.07" height="78.89" rx="12" ry="12" style="fill: #ea550f;"/>
    <circle cx="650.5" cy="447.2" r="13.55" style="fill: #fff;"/>
    <path d="M632.49,462.47h37.28c6.62,0,12,5.38,12,12v11.49h-61.28v-11.49c0-6.62,5.38-12,12-12Z" style="fill: #fff;"/>
  </g>
  <line x1="405.48" y1="742.3" x2="592.42" y2="742.3" style="fill: none; stroke: #d3d3d3; stroke-linecap: round; stroke-linejoin: round; stroke-width: 4px;"/>
  <line x1="405.48" y1="647.13" x2="405.48" y2="742.3" style="fill: none; stroke: #d3d3d3; stroke-linecap: round; stroke-linejoin: round; stroke-width: 4px;"/>
  <line x1="452.99" y1="831.6" x2="753.02" y2="831.6" style="fill: none; stroke: #d3d3d3; stroke-linecap: round; stroke-linejoin: round; stroke-width: 4px;"/>
  <line x1="452.99" y1="744.33" x2="452.99" y2="831.6" style="fill: none; stroke: #d3d3d3; stroke-linecap: round; stroke-linejoin: round; stroke-width: 4px;"/>
  <g>
    <rect x="592.42" y="698.85" width="149.07" height="78.89" rx="12" ry="12" style="fill: #a6c626;"/>
    <circle cx="667.91" cy="729.06" r="13.55" style="fill: #fff;"/>
    <path d="M649.89,744.33h37.28c6.62,0,12,5.38,12,12v11.49h-61.28v-11.49c0-6.62,5.38-12,12-12Z" style="fill: #fff;"/>
  </g>
  <g>
    <rect x="728.1" y="507.13" width="149.07" height="78.89" rx="12" ry="12" style="fill: #a6c626;"/>
    <circle cx="803.59" cy="537.34" r="13.55" style="fill: #fff;"/>
    <path d="M785.57,552.61h37.28c6.62,0,12,5.38,12,12v11.49h-61.28v-11.49c0-6.62,5.38-12,12-12Z" style="fill: #fff;"/>
  </g>
  <g>
    <rect x="753.02" y="789.93" width="149.07" height="78.89" rx="12" ry="12" style="fill: #ea550f;"/>
    <circle cx="828.5" cy="820.14" r="13.55" style="fill: #fff;"/>
    <path d="M810.48,835.41h37.28c6.62,0,12,5.38,12,12v11.49h-61.28v-11.49c0-6.62,5.38-12,12-12Z" style="fill: #fff;"/>
  </g>
</svg>