<?xml version="1.0" encoding="UTF-8"?>
<svg id="Layer_29" xmlns="http://www.w3.org/2000/svg" viewBox="0 0 1024 1024">
  <rect x="417.57" y="275" width="543.06" height="490.6" rx="15.67" ry="15.67" style="fill: #f2f2f2;"/>
  <rect x="450.79" y="454.06" width="320.49" height="132.56" rx="12" ry="12" style="fill: #e5e5e5;"/>
  <rect x="450.79" y="335.94" width="481.79" height="97.28" rx="12" ry="12" style="fill: #ea550f;"/>
  <rect x="715.65" y="536.07" width="296.58" height="132.56" rx="12" ry="12" transform="translate(1466.29 -261.59) rotate(90)" style="fill: #e5e5e5;"/>
  <rect x="450.79" y="614.06" width="320.49" height="132.56" rx="12" ry="12" style="fill: #e5e5e5;"/>
  <path d="M433.24,275h511.72c8.65,0,15.67,7.02,15.67,15.67v27.27H417.57v-27.27c0-8.65,7.02-15.67,15.67-15.67Z" style="fill: #757575;"/>
  <rect x="271.74" y="577.75" width="54.03" height="90.66" style="fill: #ffaca9;"/>
  <path d="M325.77,577.75v47.12c-2.24.55-4.53.94-6.87,1.17-16.68,1.62-33.87-9.75-47.16-26.73v-21.55h54.03Z" style="fill: #fc9292;"/>
  <path d="M271.54,473.9c-5.59,2.93-37.68,17.33-38.53,44.42-1.4,44.7,54.41,108.77,98.32,91.71,63.84-24.79,39.75-100.18,10.55-138.67-15.15-19.96-51.95-7.12-70.34,2.53Z" style="fill: #ffaca9;"/>
  <path d="M300.9,506.2l-1.97-6.81c-.31-1.08-1.48-1.7-2.62-1.37l-7.54,2.18c-1.13.33-1.8,1.47-1.48,2.55l1.97,6.81c.39,1.36-.44,2.79-1.86,3.2l-58.8,16.98c-3.46,1-6.99-1.22-7.68-4.76-7.27-37.39,15.1-74.8,52.43-85.58,38.31-11.06,78.26,10.01,91.03,47.29.65,1.9-.47,3.98-2.48,4.56l-57.73,16.67c-1.42.41-2.88-.36-3.27-1.72Z" style="fill: #8e3951;"/>
  <path d="M249.4,490.46l10,50.79c.95,4.85-3.47,9.28-8.79,8.86-14.26-1.13-26.25-10.36-28.85-23.55-3.21-16.31,9.17-32.47,27.64-36.1Z" style="fill: #8e3951;"/>
  <ellipse cx="241.1" cy="554.98" rx="16.21" ry="25.01" transform="translate(-226.27 170.67) rotate(-27.09)" style="fill: #ffaca9;"/>
  <path d="M251.12,553.72c-.53-1.79-2.5-8.53-8.7-12.23-3.26-1.94-8.44-3.01-11.79.68-1.89,2.08-1.59,5.25-1.42,6.31" style="fill: none; stroke: #8e3951; stroke-linecap: round; stroke-miterlimit: 10; stroke-width: 2px;"/>
  <line x1="288.72" y1="529.88" x2="313.67" y2="522.67" style="fill: none; stroke: #0a0a0a; stroke-linecap: round; stroke-miterlimit: 10; stroke-width: 4px;"/>
  <line x1="338.62" y1="515.47" x2="361.27" y2="508.93" style="fill: none; stroke: #0a0a0a; stroke-linecap: round; stroke-miterlimit: 10; stroke-width: 4px;"/>
  <circle cx="310.54" cy="539.12" r="6.98" style="fill: #0f0f0f;"/>
  <circle cx="357.32" cy="525.61" r="6.98" style="fill: #0f0f0f;"/>
  <path d="M333.22,543.18c7.52,1.65,10.95,6.45,9.1,10.59-1.29,2.87-4.81,4.73-6.21,5.4" style="fill: #ffaca9; stroke: #8e3951; stroke-linecap: round; stroke-miterlimit: 10; stroke-width: 2px;"/>
  <path d="M164.55,679.7c-3.94-5.37-11.61-6.24-16.66-1.9-19.47,16.78-38.95,33.56-58.42,50.34-21.96,19.61-32.99,51.09-25.84,69.42,7.69,19.72,34.42,19.11,57.32-3.74,26.21-22.12,52.42-44.24,78.62-66.36-11.67-15.92-23.35-31.85-35.02-47.77Z" style="fill: #ffaca9;"/>
  <path d="M397.65,655.22c.73-5.78,6.75-9.1,13.06-7.19,24.37,7.36,48.75,14.73,73.12,22.09,27.81,8.87,52.15,31.28,54.94,48.91,3,18.96-19.71,27.46-49.86,16.22-32.58-9.53-65.16-19.05-97.74-28.58,2.16-17.15,4.32-34.3,6.48-51.45Z" style="fill: #ffaca9;"/>
  <path d="M312.47,576.3l36.62-10.58c1.64-.47,3.27.63,3.5,2.31,1.43,10.56-5.12,20.88-15.75,23.95-10.63,3.07-21.68-2.17-26.1-11.87-.7-1.54.09-3.34,1.73-3.82Z" style="fill: #fff;"/>
  <path d="M245.13,633.43c18.28-.28,18.71,7.01,34.89,8.44,13.08,1.16,26.36-.99,45.76-6.03,20.19-5.24,27.91-3.83,37.7-3.83,13.08,0,23.94,2.92,31.66,8.01,45.57,30.02,2.27,113.28,3.7,169.61h-205.2c2.26-56.72,3.81-105.01,6.07-161.73.22-5.59-2.36-7.22,4.5-8.48,8.42-1.55,28.6-5.81,40.92-6Z" style="fill: #a6c626;"/>
  <line x1="48.66" y1="809.63" x2="983.13" y2="812.74" style="fill: none; stroke: #000; stroke-miterlimit: 10; stroke-width: 5px;"/>
  <path d="M243.4,774.09l21.07,4.7,26.01-20.14c1.6-1.24,3.74-1.79,5.99-1.53l28.93,3.33c4.57.53,8.79,3.53,10.76,7.66l12.12,25.39-4.75,6.88c-1.44,2.08-4.59,2.39-7.04.7l-.05-.04-3.61,5.72c-1.24,1.96-4.13,2.3-6.38.75h0s-2.26,2.89-2.26,2.89c-1.33,1.71-4.15,1.69-6.02-.03l-.54-.5-1.89,3.15c-1.02,1.7-3.14,2.49-5.36,1.98l-8.69-2c-1.85-.43-3.56-1.52-4.73-3.04l-.65-.84c-1.36-1.76-3.48-2.87-5.63-2.95l-2.06-.08c-1.96-.07-3.7.73-4.7,2.18l-.75,1.09c-1.99,2.88-5.42,4.51-9.32,4.43l-7.24-.15c-.86-.02-1.74-.16-2.59-.41l-36.79-10.9,16.18-28.23Z" style="fill: #ffaca9;"/>
  <path d="M235.16,646.08c-11.91-10.25-31.09-7.08-34.13-5.82-18.14,5.81-33.28,12.77-54,26.9-27.17,18.52-49.39,37.48-61.71,53.59,3.09,7.15,12.89,21.09,23.62,31.16,4.14,3.88,7.09,13.87,29.3,14.55,38.97,1.18,87.01-39.88,96.94-77.08,3.09-11.58,13.4-31.74-.03-43.29Z" style="fill: #a6c626;"/>
  <path d="M63.54,789.91l.98-17.4c.68-12.03,9.75-21.3,20.26-20.7l162.74,22.79c2.6.36,4.54,2.57,4.57,5.19l.35,28.87-169.83,4.07c-1.07.03-2.15,0-3.21-.19-9.54-1.66-16.5-11.35-15.87-22.63Z" style="fill: #ffaca9;"/>
  <path d="M514.42,737.69l-16.67-5.09c-11.52-3.52-18.37-14.54-15.29-24.61l60.86-152.65c.97-2.44,3.58-3.8,6.13-3.2l28.13,6.53-36.46,165.92c-.23,1.05-.52,2.09-.95,3.08-3.88,8.87-14.95,13.33-25.76,10.03Z" style="fill: #ffaca9;"/>
  <circle cx="213.15" cy="456.78" r="38.84" style="fill: #8e3951;"/>
  <path d="M252.17,637.64c-1.45,6.39,18.66,19.61,38.8,21.92,28.7,3.3,43.84-16.26,42.26-23.55-1.27-5.85-9.04,3.41-34.47,3.49-23.09.07-45.16-8.16-46.59-1.86Z" style="fill: #ffaca9;"/>
  <path d="M565,574.68c-6.67.35-15.54-4.11-20.01-11.37-1.09-1.76-1.8-3.39-2.16-4.48-1.58-4.8-.88-9.53-2.26-19.76-3.14-23.22-14.13-38.83-10.53-42.22,1.83-1.73,6.74.01,9.76,1.58,1.43.74,2.52,1.61,3.25,2.27,0,0,.35.31.68.65,2.07,2.1,4.35,7.49,4.57,8.03,2.49-14.41,4.6-18.35,6.24-18.38,5.13.56,2.83,5.15,6.38,5.54,2.4.26,3.17-1.98,5.42-1.5,2.67.56,2.51,3.9,5.82,5.41,2.55,1.16,3.83-1.27,5.88-.12,3.3,1.85,1.94,7.56,5,8.82,1.76.73,2.74-.63,4.24-.23,3.64.97,4.78,10.78,4.68,17.32-.27,18.46-10.9,47.61-26.98,48.45Z" style="fill: #ffaca9;"/>
  <path d="M559.52,500.19c-3.12,6.87-3.67,11.51-3.71,14.85-.04,3.85-.07,6.39,1.34,7.23,3.06,1.81,10.58-5.86,14.8-12.54,3.08-4.88,7.14-11.32,3.87-16.36-1.59-2.45-4.85-4.44-7.65-4.35-3.63.12-5.3,3.8-8.65,11.17Z" style="fill: #f7a192;"/>
  <path d="M569.48,507.02c-3.17,6.43-4.15,10.94-4.24,15.12.2.99-.09,5.62,2.14,6.44,1.23.45,3.14.14,6.77-3.94,3.12-3.5,7.53-9.79,10.39-20.68-1.85-7.71-4.5-8.78-5.25-9-4.88-1.42-8.93,10.3-9.8,12.06Z" style="fill: #f7a192;"/>
  <path d="M581.15,511.06c-3.79,7.36-4.06,14.17-3.84,15.28.63,1.35.74,3.12,2.35,3.31,6,.72,16.33-22.46,11.98-24.91-5.74-3.24-7.45.43-10.49,6.32Z" style="fill: #f7a192;"/>
  <path d="M579.87,510.35c-3.79,7.36-4.06,14.17-3.84,15.28.63,1.35.74,3.12,2.35,3.31,6,.72,16.33-22.46,11.98-24.91-5.74-3.24-7.45.43-10.49,6.32Z" style="fill: #ffaca9;"/>
  <path d="M357.68,641.56h102.38c7.19,0,13.04,5.84,13.04,13.04v59.78c0,7.19-5.84,13.04-13.04,13.04h-102.38c-7.07,0-12.82-5.74-12.82-12.82v-60.21c0-7.07,5.74-12.82,12.82-12.82Z" transform="translate(142.73 -67.11) rotate(11.35)" style="fill: #a6c626;"/>
  <circle cx="519.29" cy="437.97" r="42.49" style="fill: none; stroke: #000; stroke-linecap: round; stroke-linejoin: round; stroke-width: 7px;"/>
  <path d="M564.49,527.38l-25.19-49.16" style="fill: none; stroke: #000; stroke-linecap: round; stroke-linejoin: round; stroke-width: 10px;"/>
  <path d="M550.13,498.07c-1.77,8.04-1.03,14.89-.26,19.08.35.54,1.41,2.07,2.74,2,1.23-.07,2.05-1.47,2.44-2.16,2.61-4.6,7.22-22.03,7.96-24.83-2.59-7.8-4.85-8.25-5.6-8.26-4.06-.04-6.96,12.7-7.28,14.17Z" style="fill: #ffaca9;"/>
  <path d="M558.64,500.93c-2.42,7.1-2.68,11.59-2.55,14.76.15,3.65.25,6.07,1.53,6.59,2.8,1.14,9.07-7.55,12.47-14.68,2.48-5.2,5.76-12.07,2.62-16.22-1.53-2.02-4.5-3.29-6.97-2.67-3.2.81-4.5,4.61-7.1,12.21Z" style="fill: #ffaca9;"/>
  <path d="M568.35,507.07c-2.92,6.54-3.65,12.54-3.8,16.55.16.92.83,4.28,2.79,4.8,1.08.29,2.77-.24,6.05-4.58,2.82-3.72,6.83-10.27,9.56-21.04-1.49-7.16-3.82-7.87-4.48-7.99-4.29-.78-9.32,10.47-10.11,12.26Z" style="fill: #ffaca9;"/>
  <circle cx="878.53" cy="296.37" r="10.58" style="fill: #fff;"/>
  <circle cx="914.4" cy="296.37" r="10.58" style="fill: #fff;"/>
  <rect x="444.89" y="291.77" width="208.83" height="10.69" rx="4.47" ry="4.47" style="fill: #fff;"/>
  <rect x="55.07" y="227.43" width="524.89" height="130.72" rx="12" ry="12" style="fill: #e5e5e5;"/>
  <rect x="97.68" y="261.13" width="367.42" height="56.82" rx="26.04" ry="26.04" style="fill: #fff; stroke: #c9c9c9; stroke-miterlimit: 10; stroke-width: 3px;"/>
  <path d="M417.57,259.51h72.03c14.37,0,26.04,11.67,26.04,26.04v7.83c0,14.37-11.67,26.04-26.04,26.04h-72.03v-59.91h0Z" style="fill: #c9c9c9;"/>
  <g>
    <circle cx="461.73" cy="287.05" r="10.41" style="fill: none; stroke: #000; stroke-linecap: round; stroke-linejoin: round; stroke-width: 4px;"/>
    <path d="M479.4,304.1l-9.79-9.35" style="fill: none; stroke: #000; stroke-linecap: round; stroke-linejoin: round; stroke-width: 4px;"/>
  </g>
</svg>