<?xml version="1.0" encoding="UTF-8"?>
<svg id="Layer_28" xmlns="http://www.w3.org/2000/svg" viewBox="0 0 1024 1024">
  <path d="M909.26,591.56c0,26.74-2.74,52.83-7.96,78.02H151.98c-5.22-25.19-7.96-51.28-7.96-78.02,0-211.32,171.31-382.62,382.62-382.62s382.62,171.3,382.62,382.62Z" style="fill: #f4f4f4;"/>
  <path d="M336,627.67v41.27h-182.74c-5.22-25.19-7.96-51.28-7.96-78.02,0-13.25.67-26.34,1.99-39.24h112.72c41.97,0,75.99,34.02,75.99,75.99Z" style="fill: #eaeaea;"/>
  <path d="M878.51,439.21h-124.71c-41.79,0-75.98,34.19-75.98,75.98s-34.02,75.99-75.99,75.99-75.98-34.19-75.98-75.99-34.02-75.98-75.98-75.98c-62.95,0-113.98-51.03-113.98-113.97v-63.89c56.41-32.77,121.98-51.54,191.92-51.54,156.84,0,291.63,94.35,350.7,229.4Z" style="fill: #eaeaea;"/>
  <circle cx="365.75" cy="281.15" r="24.67" style="fill: #ea550f;"/>
  <g>
    <circle cx="366.66" cy="280.24" r="9.62" style="fill: none; stroke: #fff; stroke-linecap: round; stroke-linejoin: round; stroke-width: 4px;"/>
    <path d="M354.64,292.26l5.17-5.17" style="fill: none; stroke: #fff; stroke-linecap: round; stroke-linejoin: round; stroke-width: 4px;"/>
  </g>
  <rect x="197.51" y="254.02" width="139.01" height="55.89" rx="9.19" ry="9.19" transform="translate(534.04 563.93) rotate(180)" style="fill: #3a3a3a;"/>
  <circle cx="206.22" cy="577.85" r="24.67" style="fill: #ea550f;"/>
  <g>
    <circle cx="207.13" cy="576.93" r="9.62" style="fill: none; stroke: #fff; stroke-linecap: round; stroke-linejoin: round; stroke-width: 4px;"/>
    <path d="M195.11,588.96l5.17-5.17" style="fill: none; stroke: #fff; stroke-linecap: round; stroke-linejoin: round; stroke-width: 4px;"/>
  </g>
  <rect x="37.98" y="550.72" width="139.01" height="55.89" rx="9.19" ry="9.19" transform="translate(214.98 1157.32) rotate(180)" style="fill: #3a3a3a;"/>
  <rect x="101.6" y="674.65" width="716.94" height="145.03" rx="55.66" ry="55.66" style="fill: none; stroke: #a6c626; stroke-miterlimit: 10; stroke-width: 10px;"/>
  <path d="M715.89,669.68h186.97c30.72,0,55.66,24.94,55.66,55.66v43.56c0,30.72-24.94,55.66-55.66,55.66h-186.97v-154.89h0Z" style="fill: #a6c626;"/>
  <rect x="504.05" y="476.73" width="45.18" height="75.82" style="fill: #ffaca9;"/>
  <path d="M549.24,476.73v39.4c-1.87.46-3.79.79-5.74.98-13.95,1.36-28.33-8.16-39.44-22.35v-18.02h45.18Z" style="fill: #fc9292;"/>
  <path d="M538.48,384.93c-5.27.27-34.69-.02-44.81,20.26-16.71,33.46,3.27,101.66,42.6,104.07,57.16,3.5,65.25-62.19,56.53-101.64-4.52-20.46-36.97-23.59-54.31-22.69Z" style="fill: #ffaca9;"/>
  <path d="M549.48,419.74l.89-5.86c.14-.93-.53-1.81-1.51-1.96l-6.49-.98c-.97-.15-1.88.49-2.02,1.42l-.89,5.86c-.18,1.17-1.31,1.96-2.53,1.78l-50.6-7.67c-2.98-.45-4.89-3.37-4.17-6.3,7.56-30.94,37.64-51.54,69.77-46.66,32.97,5,55.94,34.98,52.6,67.77-.17,1.67-1.75,2.86-3.48,2.6l-49.68-7.54c-1.22-.18-2.06-1.28-1.89-2.45Z" style="fill: #8e3951;"/>
  <path d="M515.87,389.77l-10.18,42.07c-.97,4.02-5.88,5.84-9.77,3.66-10.44-5.85-16.31-17.06-13.67-27.98,3.27-13.51,18.32-21.46,33.62-17.76Z" style="fill: #8e3951;"/>
  <ellipse cx="486.99" cy="435.87" rx="13.55" ry="20.92" transform="translate(-17.51 20.39) rotate(-2.36)" style="fill: #ffaca9;"/>
  <path d="M495.05,438.42c.23-1.55,1.08-7.36-2.33-12.33-1.79-2.62-5.35-5.24-9.2-3.61-2.16.92-3.04,3.43-3.29,4.3" style="fill: none; stroke: #8e3951; stroke-linecap: round; stroke-miterlimit: 10; stroke-width: 2px;"/>
  <line x1="532.59" y1="439.26" x2="554.06" y2="442.52" style="fill: none; stroke: #0a0a0a; stroke-linecap: round; stroke-miterlimit: 10; stroke-width: 4px;"/>
  <line x1="575.53" y1="445.77" x2="595.02" y2="448.73" style="fill: none; stroke: #0a0a0a; stroke-linecap: round; stroke-miterlimit: 10; stroke-width: 4px;"/>
  <circle cx="539.64" cy="453.22" r="5.83" style="fill: #0f0f0f;"/>
  <circle cx="579.9" cy="459.33" r="5.83" style="fill: #0f0f0f;"/>
  <path d="M561.1,459.14c5.14,3.89,6.06,8.73,3.2,11.23-1.98,1.73-5.31,1.91-6.6,1.93" style="fill: #ffaca9; stroke: #8e3951; stroke-linecap: round; stroke-miterlimit: 10; stroke-width: 2px;"/>
  <path d="M414.41,561.99c-3.29-4.49-9.71-5.22-13.93-1.59-16.29,14.03-32.57,28.07-48.86,42.1-18.36,16.4-27.59,42.72-21.61,58.05,6.43,16.49,28.79,15.98,47.94-3.12,21.92-18.5,43.83-36.99,65.75-55.49-9.76-13.32-19.53-26.63-29.29-39.95Z" style="fill: #ffaca9;"/>
  <path d="M533.75,477.04l31.52,4.78c1.41.21,2.26,1.63,1.85,2.98-2.61,8.53-11.19,14.07-20.35,12.68s-15.71-9.23-15.67-18.14c0-1.41,1.24-2.51,2.65-2.29Z" style="fill: #fff;"/>
  <path d="M481.79,523.29c15.29-.24,15.65,5.86,29.17,7.06,10.94.97,22.05-.83,38.27-5.04,16.89-4.38,23.34-3.2,31.53-3.2,10.94,0,20.02,2.44,26.48,6.7,38.11,25.1,1.9,94.73,3.1,141.84h-171.6c1.89-47.44,3.18-87.81,5.08-135.25.19-4.67-1.98-6.04,3.76-7.09,7.04-1.29,23.92-4.86,34.22-5.02Z" style="fill: #ea550f;"/>
  <path d="M480.34,640.93l17.62,3.93,21.75-16.84c1.34-1.04,3.13-1.49,5.01-1.28l24.19,2.78c3.82.44,7.35,2.95,9,6.4l10.14,21.23-3.97,5.75c-1.2,1.74-3.84,2-5.88.59l-.05-.03-3.02,4.78c-1.04,1.64-3.46,1.93-5.34.63h0s-1.89,2.41-1.89,2.41c-1.12,1.43-3.47,1.42-5.03-.02l-.45-.42-1.58,2.64c-.85,1.43-2.63,2.08-4.49,1.65l-7.27-1.67c-1.55-.36-2.98-1.27-3.96-2.54l-.55-.71c-1.14-1.47-2.91-2.4-4.71-2.47l-1.72-.06c-1.64-.06-3.09.61-3.93,1.82l-.63.91c-1.66,2.4-4.54,3.77-7.79,3.7l-6.06-.13c-.72-.02-1.45-.13-2.17-.34l-30.77-9.12,13.53-23.61Z" style="fill: #ffaca9;"/>
  <path d="M473.45,533.87c-9.96-8.57-26-5.92-28.54-4.87-15.17,4.86-27.83,10.68-45.16,22.49-22.72,15.49-41.31,31.35-51.61,44.81,2.59,5.98,10.78,17.64,19.75,26.06,3.46,3.25,5.93,11.6,24.5,12.17,32.59.99,72.77-33.35,81.07-64.46,2.58-9.68,11.2-26.54-.02-36.21Z" style="fill: #ea550f;"/>
  <path d="M329.94,654.16l.82-14.55c.57-10.06,8.15-17.81,16.95-17.31l136.1,19.06c2.17.3,3.8,2.15,3.82,4.34l.29,24.15-142.02,3.4c-.9.02-1.8,0-2.69-.16-7.97-1.39-13.8-9.49-13.27-18.93Z" style="fill: #ffaca9;"/>
  <path d="M598.78,581.6c5.7,26.3,11.39,52.6,17.09,78.9,6.02,25.91,24.28,49.9,39.72,54,16.62,4.41,25.67-15.34,17.7-43.57-6.28-30.27-12.56-60.55-18.84-90.82-18.56.5-37.12.99-55.67,1.49Z" style="fill: #ffaca9;"/>
  <path d="M675.41,682.79l2.16,13.31c1.49,9.2-3.46,17.66-11.06,18.89l-120.1,8.78c-1.79.13-3.4-1.06-3.8-2.81l-3.91-17.07c-.65-2.85,1.34-5.74,4.5-6.53l114.85-28.77c.8-.2,1.61-.35,2.43-.37,7.04-.2,13.54,6,14.93,14.58Z" style="fill: #ffaca9;"/>
  <circle cx="500.12" cy="351.5" r="32.48" style="fill: #8e3951;"/>
  <path d="M487.68,526.81c-1.21,5.35,15.6,16.4,32.44,18.33,24,2.76,48.04-15.56,46.72-21.66-1.06-4.89-18.93,4.81-40.2,4.88-19.31.06-37.77-6.82-38.96-1.55Z" style="fill: #ffaca9;"/>
  <path d="M599.97,527.55c7.05-1.19,14.89,5.2,23.73,12.57,34.31,28.61,43.51,62.8,45.79,85.69-26.36,1.81-52.72,3.62-79.09,5.43-6.04-47.27-9.04-100.53,9.57-103.68Z" style="fill: #ea550f;"/>
  <g>
    <path d="M435.56,767.93c1.42,1.63,5.4,3.39,8.68,3.91,10.56-1.59,19.6-8.32,26.32-14.19.08-.07.17-.14.22-.2,1.3-1.14,2.5-2.23,3.6-3.25.09-.1.18-.18.27-.25,4.06-3.74,6.8-6.34,7.93-5.51,4.12,2.98.71,14.42,7.83,20.4,6.13,5.12,16.3,1.94,18.45,1.26,3.24-1,7.25-2.8,10.57-5.22,3.58-2.61,6.37-5.93,6.55-9.76.26-5.6-5.25-6.93-4.35-11.73.12-.65.33-1.21.61-1.73,1.58-2.88,5.53-4.04,9.41-6.79.77-.9,1.5-1.91,2.16-3.1.91-1.61,1.77-3.67,4.05-4.82.2-.1.42-.19.62-.28.7-1.17,1.59-2.33,3.1-3.08,2.91-1.46,5.18.04,7.27-.14,3.06-6.74,2.05-21.53-4.74-24.69-1.61-.74-4-.39-8.8.31-3.78.55-9.41,1.37-15.1,4.2-2.26,1.13-3.82,2.22-5.38,3.53-.02.02-.05.05-.07.07-.74.69-1.57,1.43-2.5,2.25-.08.07-.15.14-.24.21-.05.05-.1.09-.17.15-10.43,9.05-13.61,8.29-23.64,16.73-1.59,1.34-2.59,2.27-3.39,3.09-2.28,2.34-2.9,3.85-10.75,11.49-5.19,5.06-9.43,9.18-13.2,12.48-.07.06-.14.12-.19.16-8.06,7.49-13.73,11.66-20.57,13.46-1.54.41-3.16.73-4.57,1.05Z" style="fill: #efa0a0;"/>
    <path d="M431.29,770.07c-.19,1.86,5.08,4.49,9.22,5.13,12.69-1.9,23.17-11.23,30.04-17.55.08-.07.17-.14.22-.2,1.34-1.23,2.55-2.35,3.6-3.25.09-.1.18-.18.27-.25,2.04-1.76,3.47-2.69,4.21-2.15,4.12,2.98.71,14.42,7.83,20.4,6.13,5.12,16.3,1.94,18.45,1.27,4.6-1.45,10.77-4.47,14.3-8.6,1.64-1.9,2.71-4.05,2.82-6.4.26-5.58-5.25-6.93-4.35-11.73.45-2.4,2.13-3.76,4.33-5.09,1.58-2.88,5.53-4.04,9.41-6.79.77-.9,1.5-1.91,2.16-3.1.91-1.61,1.77-3.67,4.05-4.82.2-.1.42-.19.62-.28.7-1.17,1.59-2.33,3.1-3.08,2.91-1.46,5.18.04,7.27-.14,3.06-6.74,2.05-21.53-4.74-24.69-1.61-.74-4-.39-8.8.31-3.78.55-9.41,1.37-15.1,4.2-2.26,1.13-3.82,2.22-5.38,3.53-.02.02-.05.05-.07.07-.81.68-1.6,1.41-2.5,2.25-.08.07-.15.14-.24.21-.05.05-.1.09-.17.15-.95.88-2.03,1.87-3.31,3-10.64,9.33-13.82,8.55-23.72,16.81-.12.09-.22.19-.34.28-6.11,5.13-3.53,4.24-14.14,14.59-3.56,3.47-6.66,6.48-9.47,9.1-.07.06-.14.12-.19.16-8.06,7.49-13.73,11.66-20.57,13.46-1.54.41-3.16.73-4.57,1.05-2.35.54-4.17,1.1-4.26,2.14Z" style="fill: #ffaca9;"/>
  </g>
  <g>
    <circle cx="824.22" cy="739.51" r="38.96" style="fill: none; stroke: #fff; stroke-linecap: round; stroke-linejoin: round; stroke-width: 10px;"/>
    <path d="M872.92,788.21l-20.94-20.94" style="fill: none; stroke: #fff; stroke-linecap: round; stroke-linejoin: round; stroke-width: 10px;"/>
  </g>
  <circle cx="674.07" cy="242.14" r="24.67" style="fill: #ea550f;"/>
  <g>
    <circle cx="673.16" cy="241.22" r="9.62" style="fill: none; stroke: #fff; stroke-linecap: round; stroke-linejoin: round; stroke-width: 4px;"/>
    <path d="M685.18,253.25l-5.17-5.17" style="fill: none; stroke: #fff; stroke-linecap: round; stroke-linejoin: round; stroke-width: 4px;"/>
  </g>
  <rect x="711.26" y="218.09" width="170.16" height="65.6" rx="9.19" ry="9.19" style="fill: #3a3a3a;"/>
  <circle cx="671.17" cy="417.5" r="24.67" style="fill: #ea550f;"/>
  <g>
    <circle cx="670.25" cy="416.59" r="9.62" style="fill: none; stroke: #fff; stroke-linecap: round; stroke-linejoin: round; stroke-width: 4px;"/>
    <path d="M682.28,428.61l-5.17-5.17" style="fill: none; stroke: #fff; stroke-linecap: round; stroke-linejoin: round; stroke-width: 4px;"/>
  </g>
  <rect x="708.35" y="393.45" width="126.18" height="52.32" rx="9.19" ry="9.19" style="fill: #3a3a3a;"/>
  <line x1="736.68" y1="241.22" x2="854.98" y2="241.22" style="fill: #3a3a3a; stroke: #fff; stroke-linecap: round; stroke-miterlimit: 10; stroke-width: 7px;"/>
  <line x1="726.87" y1="409.97" x2="814.7" y2="409.97" style="fill: #3a3a3a; stroke: #fff; stroke-linecap: round; stroke-miterlimit: 10; stroke-width: 7px;"/>
  <line x1="213.87" y1="274.97" x2="318.53" y2="274.97" style="fill: #3a3a3a; stroke: #fff; stroke-linecap: round; stroke-miterlimit: 10; stroke-width: 7px;"/>
  <line x1="56.87" y1="568.97" x2="161.53" y2="568.97" style="fill: #3a3a3a; stroke: #fff; stroke-linecap: round; stroke-miterlimit: 10; stroke-width: 7px;"/>
</svg>