<?xml version="1.0" encoding="UTF-8"?>
<svg id="Layer_30" xmlns="http://www.w3.org/2000/svg" xmlns:xlink="http://www.w3.org/1999/xlink" viewBox="0 0 1024 1024">
  <rect x="154.22" y="116.53" width="757.97" height="684.74" rx="15.67" ry="15.67" style="fill: #f4f4f4;"/>
  <rect x="200.59" y="366.44" width="447.32" height="185.02" rx="12" ry="12" style="fill: #d8d8d8;"/>
  <rect x="200.59" y="201.57" width="672.44" height="135.77" rx="12" ry="12" style="fill: #ea550f;"/>
  <rect x="570.26" y="480.9" width="413.94" height="185.02" rx="12" ry="12" transform="translate(1350.65 -203.82) rotate(90)" style="fill: #d8d8d8;"/>
  <rect x="200.59" y="589.76" width="447.32" height="185.02" rx="12" ry="12" style="fill: #d8d8d8;"/>
  <path d="M169.89,116.53h726.62c8.65,0,15.67,7.02,15.67,15.67v44.26H154.22v-44.26c0-8.65,7.02-15.67,15.67-15.67Z" style="fill: #757575;"/>
  <circle cx="817.02" cy="146.35" r="14.77" style="fill: #fff;"/>
  <circle cx="867.08" cy="146.35" r="14.77" style="fill: #fff;"/>
  <rect x="192.36" y="139.92" width="291.46" height="14.92" rx="4.47" ry="4.47" style="fill: #fff;"/>
  <rect x="77.53" y="281.3" width="464.58" height="661.67" rx="59.83" ry="59.83" style="fill: #fff;"/>
  <rect x="123.28" y="332.33" width="54.55" height="54.55" rx="8.8" ry="8.8" style="fill: #f7f7f7;"/>
  <rect x="123.28" y="429.12" width="54.55" height="59.83" rx="8.8" ry="8.8" style="fill: #f7f7f7;"/>
  <rect x="197.19" y="332.33" width="304.44" height="54.55" rx="8.8" ry="8.8" style="fill: #f7f7f7;"/>
  <rect x="197.19" y="429.12" width="304.44" height="130.22" rx="8.8" ry="8.8" style="fill: #a6c626;"/>
  <rect x="123.28" y="598.06" width="54.55" height="56.31" rx="8.8" ry="8.8" style="fill: #f7f7f7;"/>
  <rect x="197.19" y="598.06" width="304.44" height="130.22" rx="8.8" ry="8.8" style="fill: #f7f7f7;"/>
  <rect x="123.28" y="763.48" width="54.55" height="58.07" rx="8.8" ry="8.8" style="fill: #f7f7f7;"/>
  <rect x="197.19" y="763.48" width="304.44" height="130.22" rx="8.8" ry="8.8" style="fill: #f7f7f7;"/>
  <path d="M221.13,367.53v-5.81l.35,1.06-5.1-7.74h1.94l4.05,5.98h-.35l4.05-5.98h1.76l-5.1,7.74.35-1.06v5.81h-1.94ZM230.98,367.7c-.88,0-1.58-.18-2.29-.53s-1.06-.88-1.41-1.58c-.35-.7-.53-1.58-.53-2.46s0-1.76.53-2.46c.35-.7.88-1.23,1.41-1.58.7-.35,1.41-.53,2.29-.53s1.58.18,2.29.53,1.06.88,1.41,1.58c.35.7.53,1.41.53,2.46s0,1.76-.53,2.46c-.35.7-.88,1.23-1.41,1.58-.7.35-1.41.53-2.29.53ZM230.98,366.47c.88,0,1.41-.35,1.94-.88.53-.53.7-1.41.7-2.46s-.18-1.94-.7-2.46c-.53-.53-1.06-.88-1.94-.88s-1.41.35-1.94.88c-.53.53-.7,1.41-.7,2.46s.18,1.94.7,2.46c.53.53,1.06.88,1.94.88ZM240.48,367.7c-1.06,0-1.94-.35-2.46-.88s-.7-1.41-.7-2.64v-5.46h1.58v5.46c0,.7,0,1.41.53,1.76s.88.53,1.41.53,1.23-.18,1.76-.7c.53-.53.7-1.06.7-1.94v-5.1h1.58v8.8h-1.58v-1.94h.18c-.18.7-.7,1.23-1.23,1.58-.53.35-1.23.53-1.94.53h.18ZM247.7,367.53v-8.8h1.58v2.29c.18,0,0,0,0,0,0-.53.35-1.06.53-1.41.35-.35.7-.7,1.06-.88.35,0,.88-.18,1.23-.18h.88v1.41h-1.06c-.53,0-.88,0-1.41.35-.35.18-.7.53-.88.88s-.35.88-.35,1.23v5.1s-1.58,0-1.58,0ZM262.3,367.53l-4.4-12.32h1.76l3.7,10.91h-.7l3.87-10.91h1.23l3.7,10.91h-.53l3.87-10.91h1.58l-4.4,12.32h-1.41l-3.52-10.56h.35l-3.7,10.56h-1.41,0ZM281.31,367.7c-1.41,0-2.46-.35-3.34-1.23s-1.23-1.94-1.23-3.34,0-1.76.53-2.46c.35-.7.88-1.23,1.41-1.58.7-.35,1.41-.53,2.29-.53s1.58,0,2.11.53c.53.35,1.06.88,1.23,1.41.35.7.35,1.41.35,2.29v.53h-6.69v-.88h5.63-.35c0-.7-.18-1.41-.53-1.94-.35-.53-1.06-.7-1.76-.7s-1.58.35-1.94.88c-.53.53-.7,1.41-.7,2.46h0c0,1.23.35,2.11.88,2.64s1.23.88,2.29.88,1.06,0,1.41-.18c.53,0,.88-.35,1.41-.7l.53,1.06c-.35.35-.88.7-1.41.88s-1.23.35-1.94.35l-.18-.35ZM291.52,367.7c-.7,0-1.41-.18-2.11-.53-.53-.35-.88-.88-1.23-1.58h.18v2.11h-1.58v-13.02h1.58v6.16h-.18c.18-.7.53-1.23,1.23-1.58.53-.35,1.23-.53,2.11-.53s1.41.18,2.11.53c.53.35,1.06.88,1.41,1.58.35.7.53,1.58.53,2.46s0,1.76-.53,2.46c-.35.7-.7,1.23-1.41,1.58-.53.35-1.23.53-2.11.53v-.18ZM291.16,366.47c.88,0,1.41-.35,1.94-.88.53-.53.7-1.41.7-2.46s-.18-1.94-.7-2.46c-.53-.53-1.06-.88-1.94-.88s-1.41.35-1.94.88c-.53.53-.7,1.41-.7,2.46s.18,1.94.7,2.46c.53.53,1.06.88,1.94.88ZM300.67,367.7c-.7,0-1.41,0-1.94-.35-.53-.18-1.06-.53-1.58-.88l.53-1.06c.35.35.88.53,1.41.7.53,0,1.06.18,1.58.18s1.23,0,1.58-.35c.35-.18.53-.53.53-1.06s0-.53-.35-.88c-.18-.18-.53-.35-1.06-.35l-1.58-.35c-.7,0-1.41-.53-1.76-.88s-.53-.88-.53-1.58,0-1.06.35-1.41.7-.7,1.23-.88c.53-.18,1.23-.35,1.94-.35s1.23,0,1.76.35c.53.18,1.06.53,1.41.88l-.53,1.06c-.35-.35-.7-.53-1.23-.7-.53,0-.88-.18-1.41-.18-.7,0-1.23,0-1.58.35-.35.18-.53.53-.53,1.06s0,.53.35.88c.18.18.53.35,1.06.53l1.58.35c.7,0,1.41.35,1.76.88.35.35.53.88.53,1.58s0,1.06-.53,1.41c-.35.35-.7.7-1.23.88s-1.23.35-1.94.35l.18-.18ZM306.3,367.53v-8.8h1.58v8.8h-1.58ZM306.12,356.79v-1.76h1.94v1.76h-1.94ZM313.87,367.7c-.88,0-1.58-.18-2.11-.7-.53-.53-.7-1.23-.7-2.29v-4.75h-1.76v-1.23h1.76v-2.46l1.58-.35v2.82h2.46v1.23h-2.46v4.58c0,.7,0,1.23.35,1.41.18.35.53.35,1.06.35h1.06v1.41h-1.23ZM320.9,367.7c-1.41,0-2.46-.35-3.34-1.23s-1.23-1.94-1.23-3.34,0-1.76.53-2.46c.35-.7.88-1.23,1.58-1.58s1.41-.53,2.29-.53,1.58,0,2.11.53c.53.35,1.06.88,1.23,1.41.35.7.35,1.41.35,2.29v.53h-6.86v-.88h5.63-.35c0-.7-.18-1.41-.53-1.94s-1.06-.7-1.76-.7-1.58.35-1.94.88c-.53.53-.7,1.41-.7,2.46h0c0,1.23.35,2.11.88,2.64s1.23.88,2.29.88,1.06,0,1.41-.18c.53,0,.88-.35,1.41-.7l.53,1.06c-.35.35-.88.7-1.41.88s-1.23.35-1.94.35l-.18-.35Z"/>
  <path d="M218.84,467.84l-3.87-9.85h2.99l2.64,7.04h-.53l2.64-7.04h1.94l2.64,7.04h-.35l2.64-7.04h2.82l-3.87,9.85h-2.46l-2.82-7.22h1.23l-2.64,7.22h-2.99ZM236.61,467.84l-3.87-9.85h2.99l2.64,7.04h-.53l2.64-7.04h1.94l2.64,7.04h-.35l2.64-7.04h2.82l-3.87,9.85h-2.46l-2.82-7.22h1.23l-2.64,7.22h-2.99ZM254.56,467.84l-3.87-9.85h2.99l2.64,7.04h-.53l2.64-7.04h1.94l2.64,7.04h-.35l2.64-7.04h2.82l-3.87,9.85h-2.46l-2.82-7.22h1.23l-2.64,7.22h-2.99ZM267.76,467.84v-3.17h3.17v3.17h-3.17ZM272.16,472.23l-.7-2.29c.53,0,1.06-.18,1.58-.35.35,0,.7-.35,1.06-.7.35-.18.53-.53.7-.88l.53-1.06v1.06l-4.4-9.85h2.99l2.82,7.04h-.53l2.82-7.04h2.99l-4.4,10.21c-.35.7-.7,1.41-1.06,1.76-.35.53-.7.88-1.23,1.23-.35.35-.88.53-1.41.7-.53,0-1.06.35-1.58.35l-.18-.18ZM287.29,468.01c-1.06,0-1.94-.18-2.82-.7-.7-.35-1.41-1.06-1.76-1.76s-.7-1.76-.7-2.82.18-1.94.7-2.64c.35-.7,1.06-1.41,1.76-1.76s1.76-.7,2.82-.7,1.94.18,2.82.7c.7.35,1.41,1.06,1.76,1.76s.7,1.58.7,2.64-.18,1.94-.7,2.82c-.35.7-1.06,1.41-1.76,1.76s-1.76.7-2.82.7ZM287.29,465.9c.7,0,1.23-.18,1.58-.7.35-.53.53-1.23.53-2.29s-.18-1.76-.53-2.11c-.35-.53-.88-.7-1.58-.7s-1.23.18-1.58.7c-.35.53-.53,1.23-.53,2.11s.18,1.76.53,2.29c.35.53.88.7,1.58.7ZM297.85,468.01c-1.23,0-2.11-.35-2.82-1.06-.53-.7-.88-1.76-.88-3.17v-5.98h2.99v5.98c0,.7,0,1.06.35,1.41.18.35.7.53,1.23.53s1.06-.18,1.41-.53.53-.88.53-1.58v-5.46h2.99v9.85h-2.82v-1.94h.35c-.35.7-.7,1.23-1.23,1.58-.53.35-1.23.53-1.94.53l-.18-.18ZM306.12,467.84v-9.68h2.82l.35,2.82h-.53c0-.7.35-1.23.7-1.76s.7-.7,1.06-1.06c.35-.18.88-.35,1.41-.35h.88v2.64c-.35,0-.53-.18-.7-.18h-.7c-.53,0-1.06,0-1.41.35-.35.18-.53.53-.88.88,0,.35-.18.88-.18,1.41v4.93h-2.99.18ZM317.39,467.84l-3.87-9.85h2.99l2.64,7.04h-.53l2.64-7.04h1.94l2.64,7.04h-.35l2.64-7.04h2.82l-3.87,9.85h-2.46l-2.82-7.22h1.23l-2.64,7.22h-2.99ZM336.57,468.01c-1.76,0-2.99-.53-4.05-1.41-.88-.88-1.41-2.11-1.41-3.7s.18-1.94.53-2.64,1.06-1.41,1.76-1.76,1.58-.7,2.64-.7,1.76.18,2.46.7c.7.35,1.23,1.06,1.41,1.76.35.7.53,1.58.53,2.64v.7h-6.86v-1.41h4.75l-.35.35c0-.88,0-1.41-.53-1.76-.35-.35-.88-.7-1.41-.7s-1.23.18-1.58.7-.53,1.23-.53,2.11v.35c0,.88.18,1.58.7,2.11.53.53,1.23.7,2.11.7s1.06,0,1.41-.18c.53,0,.88-.35,1.41-.7l.88,1.94c-.53.35-1.06.7-1.76.88s-1.23.35-2.11.35v-.35ZM348.36,468.01c-.7,0-1.41-.18-2.11-.53-.53-.35-1.06-.88-1.23-1.58h.18v1.94h-2.82v-14.25h2.99v6.34h-.18c.18-.7.7-1.06,1.23-1.41.7-.35,1.23-.53,2.11-.53s1.58.18,2.29.7c.7.35,1.23,1.06,1.58,1.76s.53,1.76.53,2.82-.18,1.94-.53,2.82c-.35.7-.88,1.41-1.58,1.76s-1.41.53-2.29.53l-.18-.35ZM347.48,465.9c.7,0,1.23-.18,1.58-.7s.7-1.23.7-2.11-.18-1.76-.7-2.29c-.35-.53-1.06-.7-1.58-.7s-1.23.18-1.58.7-.7,1.23-.7,2.11.18,1.76.7,2.29c.35.53,1.06.7,1.58.7ZM358.04,468.01c-.88,0-1.76,0-2.46-.35-.7-.18-1.41-.53-1.76-.88l.7-1.94c.53.35,1.06.53,1.58.7.7.18,1.23.35,1.76.35s1.06,0,1.23-.35c.35-.18.35-.35.35-.7s0-.53-.35-.53c0,0-.35-.18-.88-.35l-1.94-.35c-.88,0-1.41-.53-1.94-.88-.35-.53-.7-1.06-.7-1.76s0-1.23.53-1.58c.35-.53.88-.88,1.41-1.06s1.41-.35,2.29-.35,1.41,0,2.11.35c.7.18,1.23.53,1.76.88l-.88,1.94c-.35-.35-.88-.53-1.41-.7s-1.06-.35-1.41-.35-1.06,0-1.41.35c-.35.18-.35.53-.35.7s0,.35.18.53c0,0,.35.35.7.35l1.94.35c.88,0,1.58.53,1.94.88.53.35.7,1.06.7,1.76s-.18,1.23-.53,1.76-.88.88-1.58,1.06-1.41.35-2.29.35l.7-.18ZM364.19,467.84v-9.85h2.99v9.85h-2.99ZM364.19,456.4v-2.82h3.17v2.82h-3.17ZM374.23,468.01c-1.23,0-2.29-.35-2.82-.88-.7-.7-1.06-1.58-1.06-2.82v-4.05h-1.94v-2.11h1.94v-2.46l2.99-.7v3.17h2.46v2.11h-2.46v3.87c0,.7,0,1.06.35,1.23.18.18.53.35,1.06.35h1.06v2.29c-.18,0-.53,0-.7.18h-.88v-.18ZM382.14,468.01c-1.76,0-2.99-.53-4.05-1.41-.88-.88-1.41-2.11-1.41-3.7s.18-1.94.53-2.64,1.06-1.41,1.76-1.76,1.58-.7,2.64-.7,1.76.18,2.46.7c.7.35,1.23,1.06,1.41,1.76.35.7.53,1.58.53,2.64v.7h-6.86v-1.41h4.75l-.35.35c0-.88,0-1.41-.53-1.76-.35-.35-.88-.7-1.41-.7s-1.23.18-1.58.7-.53,1.23-.53,2.11v.35c0,.88.18,1.58.7,2.11.53.53,1.23.7,2.11.7s1.06,0,1.41-.18c.53,0,.88-.35,1.41-.7l.88,1.94c-.53.35-1.06.7-1.76.88s-1.23.35-2.11.35v-.35ZM387.6,467.84v-3.17h3.17v3.17h-3.17ZM397.28,468.01c-1.06,0-1.94-.18-2.82-.7-.7-.35-1.41-1.06-1.76-1.76s-.7-1.76-.7-2.82.18-1.94.7-2.82c.35-.7,1.06-1.41,1.76-1.76s1.76-.53,2.82-.53,1.23,0,1.94.35c.7.18,1.23.53,1.58.88l-.88,1.94c-.35-.35-.7-.53-1.06-.7-.35,0-.88-.18-1.23-.18-.7,0-1.41.18-1.76.7s-.7,1.23-.7,2.11.18,1.58.7,2.11c.35.53,1.06.7,1.76.7s.7,0,1.23-.18c.35,0,.88-.35,1.06-.7l.88,1.94c-.35.35-.88.7-1.58.88s-1.23.35-1.94.35v.18ZM406.78,468.01c-1.06,0-1.94-.18-2.82-.7-.7-.35-1.41-1.06-1.76-1.76s-.7-1.76-.7-2.82.18-1.94.7-2.64c.35-.7,1.06-1.41,1.76-1.76s1.76-.7,2.82-.7,1.94.18,2.82.7,1.41,1.06,1.76,1.76.7,1.58.7,2.64-.18,1.94-.7,2.82c-.35.7-1.06,1.41-1.76,1.76s-1.76.7-2.82.7ZM406.78,465.9c.7,0,1.23-.18,1.58-.7s.53-1.23.53-2.29-.18-1.76-.53-2.11c-.35-.53-.88-.7-1.58-.7s-1.23.18-1.58.7-.53,1.23-.53,2.11.18,1.76.53,2.29.88.7,1.58.7ZM413.82,467.84v-9.68h2.82v1.76c.18,0,0,0,0,0,.35-.7.7-1.06,1.23-1.41.53-.35,1.23-.53,1.94-.53s1.41.18,1.94.53c.53.35.88.88,1.06,1.58h-.35c.35-.7.7-1.23,1.41-1.58s1.41-.53,2.11-.53,1.94.35,2.46,1.06c.53.7.88,1.76.88,3.17v5.98h-2.99v-5.81c0-.7,0-1.23-.35-1.41-.18-.35-.53-.53-1.06-.53s-1.06.18-1.41.7c-.35.35-.53,1.06-.53,1.76v5.46h-2.99v-5.81c0-.7,0-1.23-.35-1.41-.18-.35-.53-.53-1.06-.53s-1.06.18-1.41.7c-.35.35-.53,1.06-.53,1.76v5.46h-2.99l.18-.7Z" style="fill: #fff;"/>
  <path d="M149.68,474.87c0,1.06.7,1.76,1.76,1.76s1.76-.7,1.76-1.76h-3.52ZM152.67,445.49c-.7-.7-1.76-.7-2.46,0l-11.26,11.26c-.7.7-.7,1.76,0,2.46s1.76.7,2.46,0l10.03-10.03,10.03,10.03c.7.7,1.76.7,2.46,0s.7-1.76,0-2.46l-11.26-11.26ZM153.2,474.87v-28.16h-3.52v28.16h3.52Z" style="fill: #a6c626;"/>
  <path d="M153.2,613.9c0-1.06-.7-1.76-1.76-1.76s-1.76.7-1.76,1.76h3.52ZM150.21,643.28c.7.7,1.76.7,2.46,0l11.26-11.26c.7-.7.7-1.76,0-2.46s-1.76-.7-2.46,0l-10.03,10.03-10.03-10.03c-.7-.7-1.76-.7-2.46,0s-.7,1.76,0,2.46l11.26,11.26ZM149.68,613.9v28.16h3.52v-28.16h-3.52Z" style="fill: red;"/>
  <path d="M153.2,777.55c0-1.06-.7-1.76-1.76-1.76s-1.76.7-1.76,1.76h3.52ZM150.21,808.7c.7.7,1.76.7,2.46,0l11.26-11.26c.7-.7.7-1.76,0-2.46s-1.76-.7-2.46,0l-10.03,10.03-10.03-10.03c-.7-.7-1.76-.7-2.46,0s-.7,1.76,0,2.46l11.26,11.26ZM149.68,777.55v29.92h3.52v-29.92h-3.52Z" style="fill: red;"/>
  <path d="M214.79,492.47h265.73" style="fill: none; stroke: rgba(255, 255, 255, .5); stroke-linecap: round; stroke-width: 3px;"/>
  <path d="M214.79,513.59h265.73" style="fill: none; stroke: rgba(255, 255, 255, .5); stroke-linecap: round; stroke-width: 3px;"/>
  <path d="M214.79,538.23h265.73" style="fill: none; stroke: rgba(255, 255, 255, .5); stroke-linecap: round; stroke-width: 3px;"/>
  <path d="M220.6,629.73l-3.7-9.68h2.11l2.82,8.09h-.53l2.99-8.09h1.58l2.99,8.09h-.53l2.82-8.09h1.94l-3.7,9.68h-1.76l-2.99-8.27h.88l-2.99,8.27h-1.94ZM237.84,629.73l-3.7-9.68h2.11l2.82,8.09h-.53l2.99-8.09h1.58l2.99,8.09h-.53l2.82-8.09h1.94l-3.7,9.68h-1.76l-2.99-8.27h.88l-2.99,8.27h-1.94ZM255.27,629.73l-3.7-9.68h2.11l2.82,8.09h-.53l2.99-8.09h1.58l2.99,8.09h-.53l2.82-8.09h1.94l-3.7,9.68h-1.76l-2.99-8.27h.88l-2.99,8.27h-1.94ZM268.29,629.73v-2.29h2.29v2.29h-2.29ZM276.91,629.91c-1.06,0-1.76-.18-2.46-.53s-1.23-1.06-1.58-1.76c-.35-.7-.53-1.58-.53-2.64s.18-1.94.53-2.64c.35-.7.88-1.41,1.58-1.76s1.58-.7,2.46-.7,1.76.18,2.46.7c.7.35,1.23,1.06,1.58,1.76.35.7.53,1.58.53,2.64s-.18,1.94-.53,2.64c-.35.7-.88,1.41-1.58,1.76s-1.58.53-2.46.53ZM276.91,628.33c.88,0,1.58-.35,2.11-.88.53-.53.7-1.41.7-2.64s-.18-2.11-.7-2.64-1.23-.88-2.11-.88-1.58.35-1.94.88c-.53.53-.7,1.41-.7,2.64s.18,2.11.7,2.64,1.23.88,2.11.88h-.18ZM287.65,629.91c-1.06,0-1.94-.35-2.46-.88s-.88-1.41-.88-2.64v-4.93h-1.94v-1.58h1.94v-2.64l1.94-.53v3.17h2.64v1.58h-2.64v4.75c0,.7,0,1.23.35,1.58.18.35.7.53,1.06.53h1.23v1.58h-1.41.18ZM290.99,629.73v-14.25h1.94v6.51h-.35c.35-.7.7-1.23,1.41-1.58s1.41-.53,2.11-.53,2.11.35,2.64,1.06c.53.7.88,1.58.88,2.82v6.16h-1.94v-5.98c0-.88,0-1.41-.53-1.76-.35-.35-.88-.53-1.58-.53s-1.41.18-1.94.7c-.53.53-.7,1.23-.7,1.94v5.63h-1.94v-.18ZM306.83,629.91c-1.58,0-2.82-.53-3.7-1.41s-1.41-2.11-1.41-3.7.18-1.94.53-2.64c.35-.7.88-1.41,1.58-1.76s1.58-.7,2.46-.7,1.76.18,2.29.53c.7.35,1.06.88,1.41,1.58s.53,1.58.53,2.46v.7h-7.39v-1.06h5.98-.35c0-.7-.18-1.41-.7-1.94-.35-.53-1.06-.88-1.94-.88s-1.58.35-2.11.88c-.53.7-.7,1.41-.7,2.64h0c0,1.41.35,2.29.88,2.82s1.41.88,2.46.88,1.06,0,1.58-.18c.53,0,1.06-.35,1.41-.88l.7,1.41c-.53.35-1.06.7-1.58.88-.7.18-1.41.35-2.11.35h.18ZM312.99,629.73v-9.85h1.94v2.46c.18,0,0,0,0,0,0-.53.35-1.06.7-1.58.35-.35.7-.7,1.06-.88.53-.18.88-.35,1.41-.35h.88v1.76h-1.06c-.53,0-1.06,0-1.41.35-.35.18-.7.53-.88,1.06-.18.35-.35.88-.35,1.41v5.46h-1.94l-.35.18ZM323.54,629.73l-3.7-9.68h2.11l2.82,8.09h-.53l2.99-8.09h1.58l2.99,8.09h-.53l2.82-8.09h1.94l-3.7,9.68h-1.76l-2.99-8.27h.88l-2.99,8.27h-1.94ZM342.2,629.91c-1.58,0-2.82-.53-3.7-1.41s-1.41-2.11-1.41-3.7.18-1.94.53-2.64.88-1.41,1.58-1.76,1.58-.7,2.46-.7,1.76.18,2.29.53c.7.35,1.06.88,1.41,1.58s.53,1.58.53,2.46v.7h-7.39v-1.06h5.98-.35c0-.7-.18-1.41-.7-1.94-.35-.53-1.06-.88-1.94-.88s-1.58.35-2.11.88c-.53.7-.7,1.41-.7,2.64h0c0,1.41.35,2.29.88,2.82s1.41.88,2.46.88,1.06,0,1.58-.18c.53,0,1.06-.35,1.41-.88l.7,1.41c-.53.35-1.06.7-1.58.88-.7.18-1.41.35-2.11.35h.18ZM353.46,629.91c-.88,0-1.58-.18-2.29-.7-.7-.35-1.06-1.06-1.23-1.76h.18v2.29h-1.94v-14.25h1.94v6.69h-.18c.18-.7.7-1.23,1.23-1.76.7-.35,1.41-.7,2.29-.7s1.58.18,2.29.7c.7.35,1.06,1.06,1.41,1.76s.53,1.58.53,2.64-.18,1.94-.53,2.64-.88,1.41-1.58,1.76-1.41.53-2.29.53l.18.18ZM352.93,628.33c.88,0,1.58-.35,2.11-.88s.7-1.41.7-2.64-.18-2.11-.7-2.64c-.53-.53-1.23-.88-2.11-.88s-1.58.35-2.11.88-.7,1.41-.7,2.64.18,2.11.7,2.64c.53.53,1.23.88,2.11.88ZM363.32,629.91c-.88,0-1.58,0-2.29-.35-.7-.18-1.23-.53-1.76-.88l.53-1.41c.53.35,1.06.7,1.58.88s1.23.35,1.76.35,1.23,0,1.58-.35c.35-.18.53-.53.53-1.06s0-.53-.35-.88c-.18-.18-.53-.35-1.06-.53l-1.94-.35c-.88-.18-1.41-.53-1.94-.88-.35-.35-.7-1.06-.7-1.76s0-1.06.53-1.58c.35-.53.7-.88,1.41-1.06.53-.18,1.23-.35,2.11-.35s1.41,0,1.94.35c.7.18,1.06.53,1.58.88l-.7,1.23c-.35-.35-.88-.53-1.41-.7-.53-.18-1.06-.35-1.58-.35s-1.23,0-1.58.35-.53.7-.53,1.06,0,.53.35.88c.18.18.53.35,1.06.53l1.94.35c.88.18,1.58.53,1.94.88.35.35.7,1.06.7,1.58s0,1.06-.53,1.58c-.35.53-.88.88-1.41,1.06s-1.23.35-2.11.35l.35.18ZM369.65,629.73v-9.68h1.94v9.68h-1.94ZM369.47,617.94v-2.11h2.29v2.11h-2.29ZM378.27,629.91c-1.06,0-1.94-.35-2.46-.88-.53-.53-.88-1.41-.88-2.64v-4.93h-1.94v-1.58h1.94v-2.64l1.94-.53v3.17h2.64v1.58h-2.64v4.75c0,.7,0,1.23.35,1.58.18.35.7.53,1.06.53h1.23v1.58h-1.41.18ZM385.84,629.91c-1.58,0-2.82-.53-3.7-1.41s-1.41-2.11-1.41-3.7.18-1.94.53-2.64.88-1.41,1.58-1.76,1.58-.7,2.46-.7,1.76.18,2.29.53c.7.35,1.06.88,1.41,1.58s.53,1.58.53,2.46v.7h-7.39v-1.06h5.98-.35c0-.7-.18-1.41-.7-1.94-.35-.53-1.06-.88-1.94-.88s-1.58.35-2.11.88c-.53.7-.7,1.41-.7,2.64h0c0,1.41.35,2.29.88,2.82s1.41.88,2.46.88,1.06,0,1.58-.18c.53,0,1.06-.35,1.41-.88l.7,1.41c-.53.35-1.06.7-1.58.88-.7.18-1.41.35-2.11.35h.18ZM391.65,629.73v-2.29h2.29v2.29h-2.29ZM400.45,629.91c-1.06,0-1.76-.18-2.64-.53-.7-.35-1.23-1.06-1.76-1.76-.35-.7-.53-1.76-.53-2.82s.18-1.94.53-2.64.88-1.23,1.76-1.76c.7-.35,1.58-.53,2.64-.53s1.23,0,1.76.35c.53.18,1.06.53,1.41.88l-.7,1.41c-.35-.35-.7-.53-1.23-.7-.53-.18-.88-.35-1.23-.35-.88,0-1.58.35-2.11.88s-.88,1.41-.88,2.64.35,1.94.88,2.64c.53.53,1.23.88,2.11.88s.88,0,1.23-.18c.53,0,.88-.35,1.23-.88l.7,1.41c-.35.35-.88.7-1.58.88-.53.18-1.23.35-1.76.35l.18-.18ZM409.77,629.91c-1.06,0-1.76-.18-2.46-.53s-1.23-1.06-1.58-1.76-.53-1.58-.53-2.64.18-1.94.53-2.64.88-1.41,1.58-1.76,1.58-.7,2.46-.7,1.76.18,2.46.7c.7.35,1.23,1.06,1.58,1.76s.53,1.58.53,2.64-.18,1.94-.53,2.64-.88,1.41-1.58,1.76-1.58.53-2.46.53ZM409.77,628.33c.88,0,1.58-.35,2.11-.88s.7-1.41.7-2.64-.18-2.11-.7-2.64c-.53-.53-1.23-.88-2.11-.88s-1.58.35-1.94.88c-.53.53-.7,1.41-.7,2.64s.18,2.11.7,2.64c.53.53,1.23.88,2.11.88h-.18ZM416.81,629.73v-9.68h1.94v2.11h0c.35-.7.7-1.23,1.23-1.58s1.23-.53,2.11-.53,1.41.18,1.94.53.88.88,1.06,1.76h-.35c.18-.7.7-1.23,1.23-1.76.7-.35,1.41-.7,2.11-.7s1.94.35,2.46.88c.53.7.88,1.58.88,2.99v5.98h-1.94v-5.98c0-.88,0-1.41-.53-1.76-.35-.35-.7-.53-1.41-.53s-1.41.18-1.76.7c-.35.53-.7,1.23-.7,2.11v5.46h-1.94v-5.98c0-.88,0-1.41-.53-1.76-.35-.35-.7-.53-1.41-.53s-1.41.18-1.76.7c-.35.53-.7,1.23-.7,2.11v5.46h-1.94,0Z"/>
  <path d="M216.55,654.37h265.73" style="fill: none; stroke: #c6c6c6; stroke-linecap: round; stroke-width: 3px;"/>
  <path d="M216.55,677.25h265.73" style="fill: none; stroke: #c6c6c6; stroke-linecap: round; stroke-width: 3px;"/>
  <path d="M216.55,701.88h265.73" style="fill: none; stroke: #c6c6c6; stroke-linecap: round; stroke-width: 3px;"/>
  <path d="M220.6,798.67l-3.7-9.68h2.11l2.82,8.09h-.53l2.99-8.09h1.58l2.99,8.09h-.53l2.82-8.09h1.94l-3.7,9.68h-1.76l-2.99-8.27h.88l-2.99,8.27h-1.94ZM237.84,798.67l-3.7-9.68h2.11l2.82,8.09h-.53l2.99-8.09h1.58l2.99,8.09h-.53l2.82-8.09h1.94l-3.7,9.68h-1.76l-2.99-8.27h.88l-2.99,8.27h-1.94ZM255.27,798.67l-3.7-9.68h2.11l2.82,8.09h-.53l2.99-8.09h1.58l2.99,8.09h-.53l2.82-8.09h1.94l-3.7,9.68h-1.76l-2.99-8.27h.88l-2.99,8.27h-1.94ZM268.29,798.67v-2.29h2.29v2.29h-2.29ZM276.91,798.85c-1.06,0-1.76-.18-2.46-.53-.7-.35-1.23-1.06-1.58-1.76-.35-.7-.53-1.58-.53-2.64s.18-1.94.53-2.64c.35-.7.88-1.41,1.58-1.76s1.58-.7,2.46-.7,1.76.18,2.46.7c.7.35,1.23,1.06,1.58,1.76.35.7.53,1.58.53,2.64s-.18,1.94-.53,2.64c-.35.7-.88,1.41-1.58,1.76s-1.58.53-2.46.53ZM276.91,797.26c.88,0,1.58-.35,2.11-.88.53-.53.7-1.41.7-2.64s-.18-2.11-.7-2.64-1.23-.88-2.11-.88-1.58.35-1.94.88c-.53.53-.7,1.41-.7,2.64s.18,2.11.7,2.64,1.23.88,2.11.88h-.18ZM287.65,798.85c-1.06,0-1.94-.35-2.46-.88s-.88-1.41-.88-2.64v-4.93h-1.94v-1.58h1.94v-2.64l1.94-.53v3.17h2.64v1.58h-2.64v4.75c0,.7,0,1.23.35,1.58.18.35.7.53,1.06.53h1.23v1.58h-1.41.18ZM290.99,798.67v-14.25h1.94v6.51h-.35c.35-.7.7-1.23,1.41-1.58.7-.35,1.41-.53,2.11-.53s2.11.35,2.64,1.06.88,1.58.88,2.82v6.16h-1.94v-5.98c0-.88,0-1.41-.53-1.76-.35-.35-.88-.53-1.58-.53s-1.41.18-1.94.7c-.53.53-.7,1.23-.7,1.94v5.63h-1.94v-.18ZM306.83,798.85c-1.58,0-2.82-.53-3.7-1.41s-1.41-2.11-1.41-3.7.18-1.94.53-2.64c.35-.7.88-1.41,1.58-1.76s1.58-.7,2.46-.7,1.76.18,2.29.53c.7.35,1.06.88,1.41,1.58s.53,1.58.53,2.46v.7h-7.39v-1.06h5.98-.35c0-.7-.18-1.41-.7-1.94-.35-.53-1.06-.88-1.94-.88s-1.58.35-2.11.88c-.53.7-.7,1.41-.7,2.64h0c0,1.41.35,2.29.88,2.82.53.53,1.41.88,2.46.88s1.06,0,1.58-.18c.53,0,1.06-.35,1.41-.88l.7,1.41c-.53.35-1.06.7-1.58.88-.7.18-1.41.35-2.11.35h.18ZM312.99,798.67v-9.85h1.94v2.46c.18,0,0,0,0,0,0-.53.35-1.06.7-1.58.35-.35.7-.7,1.06-.88.53-.18.88-.35,1.41-.35h.88v1.76h-1.06c-.53,0-1.06,0-1.41.35-.35.18-.7.53-.88,1.06-.18.35-.35.88-.35,1.41v5.46h-1.94l-.35.18ZM323.54,798.67l-3.7-9.68h2.11l2.82,8.09h-.53l2.99-8.09h1.58l2.99,8.09h-.53l2.82-8.09h1.94l-3.7,9.68h-1.76l-2.99-8.27h.88l-2.99,8.27h-1.94ZM342.2,798.85c-1.58,0-2.82-.53-3.7-1.41s-1.41-2.11-1.41-3.7.18-1.94.53-2.64.88-1.41,1.58-1.76,1.58-.7,2.46-.7,1.76.18,2.29.53c.7.35,1.06.88,1.41,1.58s.53,1.58.53,2.46v.7h-7.39v-1.06h5.98-.35c0-.7-.18-1.41-.7-1.94-.35-.53-1.06-.88-1.94-.88s-1.58.35-2.11.88c-.53.7-.7,1.41-.7,2.64h0c0,1.41.35,2.29.88,2.82.53.53,1.41.88,2.46.88s1.06,0,1.58-.18c.53,0,1.06-.35,1.41-.88l.7,1.41c-.53.35-1.06.7-1.58.88-.7.18-1.41.35-2.11.35h.18ZM353.46,798.85c-.88,0-1.58-.18-2.29-.7-.7-.35-1.06-1.06-1.23-1.76h.18v2.29h-1.94v-14.25h1.94v6.69h-.18c.18-.7.7-1.23,1.23-1.76.7-.35,1.41-.7,2.29-.7s1.58.18,2.29.7c.7.35,1.06,1.06,1.41,1.76s.53,1.58.53,2.64-.18,1.94-.53,2.64-.88,1.41-1.58,1.76-1.41.53-2.29.53l.18.18ZM352.93,797.26c.88,0,1.58-.35,2.11-.88s.7-1.41.7-2.64-.18-2.11-.7-2.64c-.53-.53-1.23-.88-2.11-.88s-1.58.35-2.11.88-.7,1.41-.7,2.64.18,2.11.7,2.64c.53.53,1.23.88,2.11.88ZM363.32,798.85c-.88,0-1.58,0-2.29-.35-.7-.18-1.23-.53-1.76-.88l.53-1.41c.53.35,1.06.7,1.58.88s1.23.35,1.76.35,1.23,0,1.58-.35c.35-.18.53-.53.53-1.06s0-.53-.35-.88c-.18-.18-.53-.35-1.06-.53l-1.94-.35c-.88-.18-1.41-.53-1.94-.88-.35-.35-.7-1.06-.7-1.76s0-1.06.53-1.58c.35-.53.7-.88,1.41-1.06.53-.18,1.23-.35,2.11-.35s1.41,0,1.94.35c.7.18,1.06.53,1.58.88l-.7,1.23c-.35-.35-.88-.53-1.41-.7s-1.06-.35-1.58-.35-1.23,0-1.58.35-.53.7-.53,1.06,0,.53.35.88c.18.18.53.35,1.06.53l1.94.35c.88.18,1.58.53,1.94.88.35.35.7.88.7,1.58s0,1.06-.53,1.58c-.35.53-.88.88-1.41,1.06s-1.23.35-2.11.35l.35.18ZM369.65,798.67v-9.68h1.94v9.68h-1.94ZM369.47,786.88v-2.11h2.29v2.11h-2.29ZM378.27,798.85c-1.06,0-1.94-.35-2.46-.88-.53-.53-.88-1.41-.88-2.64v-4.93h-1.94v-1.58h1.94v-2.64l1.94-.53v3.17h2.64v1.58h-2.64v4.75c0,.7,0,1.23.35,1.58.18.35.7.53,1.06.53h1.23v1.58h-1.41.18ZM385.84,798.85c-1.58,0-2.82-.53-3.7-1.41s-1.41-2.11-1.41-3.7.18-1.94.53-2.64.88-1.41,1.58-1.76,1.58-.7,2.46-.7,1.76.18,2.29.53c.7.35,1.06.88,1.41,1.58s.53,1.58.53,2.46v.7h-7.39v-1.06h5.98-.35c0-.7-.18-1.41-.7-1.94-.35-.53-1.06-.88-1.94-.88s-1.58.35-2.11.88c-.53.7-.7,1.41-.7,2.64h0c0,1.41.35,2.29.88,2.82.53.53,1.41.88,2.46.88s1.06,0,1.58-.18c.53,0,1.06-.35,1.41-.88l.7,1.41c-.53.35-1.06.7-1.58.88-.7.18-1.41.35-2.11.35h.18ZM391.65,798.67v-2.29h2.29v2.29h-2.29ZM400.45,798.85c-1.06,0-1.76-.18-2.64-.53-.7-.35-1.23-1.06-1.76-1.76-.35-.7-.53-1.76-.53-2.82s.18-1.94.53-2.64.88-1.23,1.76-1.76c.7-.35,1.58-.53,2.64-.53s1.23,0,1.76.35c.53.18,1.06.53,1.41.88l-.7,1.41c-.35-.35-.7-.53-1.23-.7s-.88-.35-1.23-.35c-.88,0-1.58.35-2.11.88s-.88,1.41-.88,2.64.35,1.94.88,2.64c.53.53,1.23.88,2.11.88s.88,0,1.23-.18c.53,0,.88-.35,1.23-.88l.7,1.41c-.35.35-.88.7-1.58.88-.53.18-1.23.35-1.76.35l.18-.18ZM409.77,798.85c-1.06,0-1.76-.18-2.46-.53-.7-.35-1.23-1.06-1.58-1.76s-.53-1.58-.53-2.64.18-1.94.53-2.64.88-1.41,1.58-1.76,1.58-.7,2.46-.7,1.76.18,2.46.7c.7.35,1.23,1.06,1.58,1.76s.53,1.58.53,2.64-.18,1.94-.53,2.64-.88,1.41-1.58,1.76-1.58.53-2.46.53ZM409.77,797.26c.88,0,1.58-.35,2.11-.88s.7-1.41.7-2.64-.18-2.11-.7-2.64c-.53-.53-1.23-.88-2.11-.88s-1.58.35-1.94.88c-.53.53-.7,1.41-.7,2.64s.18,2.11.7,2.64c.53.53,1.23.88,2.11.88h-.18ZM416.81,798.67v-9.68h1.94v2.11h0c.35-.7.7-1.23,1.23-1.58.53-.35,1.23-.53,2.11-.53s1.41.18,1.94.53c.53.35.88.88,1.06,1.76h-.35c.18-.7.7-1.23,1.23-1.76.7-.35,1.41-.7,2.11-.7s1.94.35,2.46.88.88,1.58.88,2.99v5.98h-1.94v-5.98c0-.88,0-1.41-.53-1.76-.35-.35-.7-.53-1.41-.53s-1.41.18-1.76.7-.7,1.23-.7,2.11v5.46h-1.94v-5.98c0-.88,0-1.41-.53-1.76-.35-.35-.7-.53-1.41-.53s-1.41.18-1.76.7-.7,1.23-.7,2.11v5.46h-1.94,0Z"/>
  <path d="M216.55,825.07h265.73" style="fill: none; stroke: rgba(0, 0, 0, .2); stroke-linecap: round; stroke-width: 3px;"/>
  <path d="M216.55,847.95h265.73" style="fill: none; stroke: rgba(0, 0, 0, .2); stroke-linecap: round; stroke-width: 3px;"/>
  <path d="M216.55,869.06h265.73" style="fill: none; stroke: rgba(0, 0, 0, .2); stroke-linecap: round; stroke-width: 3px;"/>
  <path d="M438.53,520.27c-6.88,24.04-18.85,44.54-45.91,64.47l-138.01-.54c-39.06-29.59-58.55-78.84-44.05-129.51,4.61-16.11,16.75-36.14,27.59-47.43h172.19c28.29,31.21,40.42,70.26,28.19,113.01Z" style="fill: #a6c626;"/>
  <text transform="translate(215.81 465.01)" style="fill: #fff; font-family: Arial-BoldMT, Arial; font-size: 28.69px; font-weight: 700;"><tspan x="0" y="0">yourwebsite.com</tspan></text>
  <g>
    <line x1="215.74" y1="512.57" x2="395.7" y2="512.77" style="fill: none; stroke: #dbef65; stroke-linecap: round; stroke-miterlimit: 10; stroke-width: 6px;"/>
    <path d="M393.13,512.76l51.5.21" style="fill: none; stroke: #dbef65; stroke-miterlimit: 10; stroke-width: 6px;"/>
  </g>
  <g>
    <line x1="215.56" y1="535.52" x2="395.67" y2="535.73" style="fill: none; stroke: #dbef65; stroke-linecap: round; stroke-miterlimit: 10; stroke-width: 6px;"/>
    <path d="M393.09,535.72l51.53.21" style="fill: none; stroke: #dbef65; stroke-miterlimit: 10; stroke-width: 6px;"/>
  </g>
  <g>
    <line x1="217.67" y1="490.76" x2="395.12" y2="490.97" style="fill: none; stroke: #dbef65; stroke-linecap: round; stroke-miterlimit: 10; stroke-width: 6px;"/>
    <line x1="392.58" y1="490.96" x2="443.35" y2="491.17" style="fill: none; stroke: #dbef65; stroke-miterlimit: 10; stroke-width: 6px;"/>
  </g>
  <g>
    <path d="M444.41,526.72c-7.68,24.04-21.89,44.18-40.05,59.09-1.99,1.64-4.02,3.2-6.09,4.71-31.38,22.7-72.75,30.72-112.47,18.03-15.73-5.03-29.79-12.84-41.81-22.73-38.71-31.86-56.2-85.21-40.02-135.88,5.14-16.11,13.22-30.47,23.45-42.67,31.94-38.1,84.88-55.22,135.17-39.16,23.64,7.55,43.52,21.43,58.35,39.16,26.81,32.04,37.14,76.71,23.48,119.46Z" style="fill: none; stroke: #303030; stroke-linecap: round; stroke-miterlimit: 10; stroke-width: 14px;"/>
    <line x1="520.06" y1="731.93" x2="406.99" y2="585.81" style="fill: none; stroke: #303030; stroke-linecap: round; stroke-miterlimit: 10; stroke-width: 17px;"/>
  </g>
  <rect x="675.84" y="66.8" width="296.74" height="219.33" rx="34.41" ry="34.41" style="fill: #fff;"/>
  <path d="M748.95,213.02c0-4.75,3.85-8.6,8.6-8.6h38.71c4.75,0,8.6,3.85,8.6,8.6v73.11h-55.91v-73.11Z" style="fill: #a6c626;"/>
  <path d="M813.46,174.31c0-4.75,3.85-8.6,8.6-8.6h38.71c4.75,0,8.6,3.85,8.6,8.6v111.82h-55.91v-111.82Z" style="fill: #a6c626;"/>
  <path d="M882.27,122.7c0-4.75,3.85-8.6,8.6-8.6h38.71c4.75,0,8.6,3.85,8.6,8.6v163.42h-55.91V122.7Z" style="fill: #a6c626;"/>
  <path d="M703.68,122.7v-18.19h2.92l6.68,15.04h-.8l6.68-15.04h2.89v18.19h-3.02v-13.5h.93l-6.12,13.5h-1.99l-6.12-13.5h.95v13.5h-3.02ZM731.73,122.96c-1.34,0-2.5-.28-3.48-.83-.98-.55-1.75-1.33-2.3-2.35-.53-1.01-.8-2.22-.8-3.61s.27-2.59.8-3.59c.55-1.01,1.32-1.8,2.3-2.35.98-.55,2.14-.83,3.48-.83s2.5.28,3.48.83c1,.55,1.76,1.33,2.3,2.35.55,1,.83,2.19.83,3.59s-.28,2.6-.83,3.61c-.53,1.01-1.3,1.8-2.3,2.35-.98.55-2.14.83-3.48.83ZM731.73,120.49c1.01,0,1.82-.35,2.43-1.06.6-.72.9-1.81.9-3.25s-.3-2.52-.9-3.23c-.6-.71-1.41-1.06-2.43-1.06s-1.82.35-2.43,1.06c-.6.71-.9,1.78-.9,3.23s.3,2.53.9,3.25c.6.71,1.41,1.06,2.43,1.06ZM741.09,122.7v-9.7c0-.55-.02-1.11-.05-1.68-.02-.57-.06-1.12-.13-1.65h3.12l.36,3.56h-.52c.17-.86.46-1.57.85-2.14.41-.57.91-.99,1.5-1.26s1.22-.41,1.91-.41c.31,0,.56.02.75.05.19.02.38.06.57.13l-.03,2.84c-.33-.14-.61-.22-.85-.26-.22-.03-.51-.05-.85-.05-.74,0-1.37.15-1.88.46-.5.31-.88.74-1.14,1.29-.24.55-.36,1.18-.36,1.88v6.94h-3.25ZM757.35,122.96c-2.18,0-3.9-.6-5.13-1.81-1.24-1.2-1.86-2.86-1.86-4.95,0-1.36.27-2.55.8-3.56.53-1.01,1.27-1.81,2.22-2.37.96-.57,2.08-.85,3.35-.85s2.31.27,3.15.8,1.48,1.28,1.91,2.24c.45.96.67,2.09.67,3.38v.85h-9.5v-1.7h7.2l-.44.36c0-1.2-.26-2.12-.77-2.76-.5-.64-1.23-.95-2.19-.95-1.07,0-1.89.38-2.48,1.14-.57.76-.85,1.81-.85,3.17v.34c0,1.41.34,2.47,1.03,3.17.71.69,1.69,1.03,2.97,1.03.74,0,1.43-.09,2.06-.28.65-.21,1.27-.53,1.86-.98l.95,2.17c-.62.5-1.36.89-2.22,1.16s-1.77.41-2.74.41ZM776.81,122.7v-15.46h-6.01v-2.74h15.35v2.74h-6.01v15.46h-3.33ZM786.2,122.7v-9.7c0-.55-.02-1.11-.05-1.68-.02-.57-.06-1.12-.13-1.65h3.12l.36,3.56h-.52c.17-.86.46-1.57.85-2.14.41-.57.91-.99,1.5-1.26s1.22-.41,1.91-.41c.31,0,.56.02.75.05.19.02.38.06.57.13l-.03,2.84c-.33-.14-.61-.22-.85-.26-.22-.03-.51-.05-.85-.05-.74,0-1.37.15-1.88.46-.5.31-.88.74-1.14,1.29-.24.55-.36,1.18-.36,1.88v6.94h-3.25ZM801.26,122.96c-1.14,0-2.13-.27-2.99-.8-.86-.55-1.53-1.33-2.01-2.35s-.72-2.23-.72-3.64.24-2.61.72-3.61c.48-1.01,1.15-1.79,2.01-2.32.86-.55,1.86-.83,2.99-.83s2.06.28,2.89.83c.84.53,1.4,1.26,1.68,2.17h-.28l.28-2.74h3.1c-.05.53-.1,1.08-.15,1.63-.03.55-.05,1.09-.05,1.63v9.78h-3.2l-.03-2.68h.31c-.28.89-.83,1.61-1.68,2.14s-1.8.8-2.86.8ZM802.17,120.49c1.01,0,1.83-.35,2.45-1.06.62-.72.93-1.81.93-3.25s-.31-2.52-.93-3.23c-.62-.71-1.44-1.06-2.45-1.06s-1.83.35-2.45,1.06c-.62.71-.93,1.78-.93,3.23s.3,2.53.9,3.25c.62.71,1.45,1.06,2.48,1.06ZM813.11,122.7v-10.61h-2.5v-2.43h3.41l-.9.83v-1.99c0-1.62.41-2.84,1.24-3.66.84-.83,2.07-1.24,3.69-1.24.38,0,.77.03,1.19.08.43.05.8.15,1.11.28v2.53c-.22-.09-.49-.15-.8-.21-.31-.05-.61-.08-.9-.08-.45,0-.85.09-1.21.26-.34.17-.62.44-.83.8-.19.34-.28.81-.28,1.39v1.57l-.46-.57h3.9v2.43h-3.41v10.61h-3.23ZM822.03,122.7v-10.61h-2.5v-2.43h3.41l-.9.83v-1.99c0-1.62.4-2.84,1.21-3.66.83-.83,2.02-1.24,3.59-1.24.38,0,.77.03,1.19.08.43.05.8.15,1.11.28v2.53c-.22-.09-.49-.15-.8-.21-.31-.05-.61-.08-.9-.08-.67,0-1.2.2-1.6.59-.4.38-.59,1-.59,1.86v1.57l-.46-.57h9.06v13.03h-3.23v-10.61h-5.34v10.61h-3.23ZM830.42,107.22v-3.15h3.59v3.15h-3.59ZM843.32,122.96c-1.34,0-2.52-.28-3.54-.83-1-.55-1.77-1.33-2.32-2.35-.55-1.03-.83-2.25-.83-3.66s.28-2.61.83-3.61c.57-1,1.35-1.76,2.35-2.3s2.17-.8,3.51-.8c.86,0,1.69.14,2.5.41.83.26,1.5.64,2.01,1.14l-.98,2.24c-.46-.43-.99-.75-1.57-.95-.57-.22-1.13-.34-1.68-.34-1.15,0-2.06.36-2.71,1.08-.64.72-.95,1.77-.95,3.15s.32,2.43.95,3.17c.65.74,1.56,1.11,2.71,1.11.53,0,1.08-.1,1.65-.31.58-.21,1.12-.52,1.6-.95l.98,2.22c-.53.5-1.21.89-2.04,1.16-.81.28-1.63.41-2.48.41Z"/>
  <image width="2000" height="2000" transform="translate(134.78 344.89) scale(.01)" xlink:href="../../images/homepage/google-logo.png"/>
</svg>