<?xml version="1.0" encoding="UTF-8"?>
<svg id="Layer_32" xmlns="http://www.w3.org/2000/svg" viewBox="0 0 1024 1024">
  <rect x="144.29" y="115.47" width="745.53" height="800.68" rx="12" ry="12" style="fill: #192f35;"/>
  <rect x="185.14" y="211.47" width="667.91" height="567.83" rx="13.28" ry="13.28" style="fill: #fff;"/>
  <rect x="666.28" y="465.28" width="28.28" height="63.6" rx="5.53" ry="5.53" transform="translate(-28.12 40.98) rotate(-3.38)" style="fill: #192f35;"/>
  <path d="M258.42,842.3c4.49-4.4,9.05-9.68,9.05-16.59,0-9.16-7.43-16.59-16.59-16.59-5.31,0-9.05,1.51-13.57,6.03-4.52-4.52-8.27-6.03-13.57-6.03-9.16,0-16.59,7.43-16.59,16.59,0,6.94,4.52,12.22,9.05,16.59l21.12,21.12,21.12-21.12Z" style="fill: #f42f2f;"/>
  <path d="M514.9,536.37c.32-.79,3.62-6.12,8.61-14.25,2.59-2.49,6.92-5.68,9.29-5.01.01,0,.04,0,.05.02,1.83.56,2.71,3.78,2.82,6.07.13,2.37-.5,4.33-1.47,6.07-.58,1.07-1.29,2.05-2.03,2.99-2.23,2.89-4.68,5.36-4.45,8.51l-12.83-4.41Z" style="fill: #ffaa9c;"/>
  <path d="M336.34,857.6c-12.42,6.37-27.65,1.47-34.03-10.95-6.37-12.42-1.47-27.65,10.95-34.03,12.42-6.37,27.65-1.47,34.03,10.95,3.72,7.24,3.72,15.83,0,23.07l5.62,16.57-16.57-5.62Z" style="fill: none; stroke: #fff; stroke-linecap: round; stroke-linejoin: round; stroke-width: 4px;"/>
  <path d="M828.33,859.62l-21.82-12.47-21.82,12.47v-49.87c0-3.44,2.79-6.23,6.23-6.23h31.17c3.44,0,6.23,2.79,6.23,6.23v49.87Z" style="fill: none; stroke: #fff; stroke-linecap: round; stroke-linejoin: round; stroke-width: 4px;"/>
  <rect x="302.38" y="600.75" width="234.21" height="178.55" style="fill: #a6c626;"/>
  <path d="M303.37,625.66h66.86v132.73h-56.99c-5.45,0-9.87-4.42-9.87-9.87v-122.86h0Z" transform="translate(-209.97 150.38) rotate(-19.32)" style="fill: #ffaa9c;"/>
  <path d="M302.48,541.83h23.65c13.24,0,23.99,10.75,23.99,23.99v101.74c0,4.43-3.59,8.02-8.02,8.02h-70.1c-2.74,0-4.96-2.22-4.96-4.96v-93.35c0-19.56,15.88-35.44,35.44-35.44Z" transform="translate(-183.99 136.35) rotate(-19.32)" style="fill: #a6c626;"/>
  <path d="M526.72,603.7h56.12v149.44h-65.99v-139.57c0-5.45,4.42-9.87,9.87-9.87Z" transform="translate(1213.32 1246.22) rotate(169.58)" style="fill: #ffaa9c;"/>
  <path d="M499.58,548.77h70.1c4.43,0,8.02,3.59,8.02,8.02v112.1c0,13.24-10.75,23.99-23.99,23.99h-22.29c-20.31,0-36.8-16.49-36.8-36.8v-102.35c0-2.74,2.22-4.96,4.96-4.96Z" transform="translate(1175.75 1134.44) rotate(169.58)" style="fill: #a6c626;"/>
  <polyline points="283.94 548.52 347.1 526.09 403.99 515.51 453.17 522.48 509.1 540.02 539.43 548.52 560.32 561.82 532.24 643.71 299.37 630.3 283.94 550.85" style="fill: #a6c626;"/>
  <rect x="375.6" y="460.67" width="72.18" height="99.37" style="fill: #f9a293;"/>
  <path d="M447.79,471.28v23.23c-7.76,5.52-18.02,9.44-32.11,11.4-5.29.74-10.67.68-15.94-.27-10.11-1.82-17.91-4.64-24.14-8.49v-25.87h72.19Z" style="fill: #ef8c7b;"/>
  <path d="M428.03,492.74c-5.21,1.17-10.59,1.55-15.91,1.05-34.18-3.29-43.83-19.94-53.82-46.6-1.85-4.93-3.09-10.06-3.76-15.25l-9.37-73.23,134.8-11.05.92,69.96c.12,9.07-.81,18.15-3,27.01-5.82,23.6-16.29,40.56-49.87,48.11v.02Z" style="fill: #ffab99;"/>
  <path d="M354.42,363.16c3.82-.13,6.35-3.44,7.47-4.54,8.46-8.24,38.71,17.75,64.07,19.93,33.44,2.87,70.75-15.7,76.69-41.93,3.36-14.86-5.55-31.7-17.05-40.46-22.87-17.39-65.87-10.23-101.35,24,3.06-15.03.81-19.82-1.76-21.43-7.99-5.05-32.91,11.73-39.08,33.93-.76,2.74-4.54,17.48,2.78,25.92.86.98,4.07,4.7,8.22,4.56v.02Z" style="fill: #131c38;"/>
  <path d="M344.14,351.23c-3.24,5.01-10.97,18.42-10.46,36.91.42,15.19,6.14,24.83,14.52,38.94,1.89,3.18,4.32,6.82,6.41,6.38,2.3-.49,2.97-5.84,3.26-8.23,1.71-14.51-2.21-47.36-4.46-64.39-3.09-3.2-6.18-6.4-9.27-9.59h0Z" style="fill: #131c38;"/>
  <path d="M483.93,357.12c3.19,3.54,10.98,13.13,12.29,27.29,1.07,11.62-2.84,19.47-8.56,30.94-1.29,2.58-3,5.57-4.8,5.4-1.98-.19-3.05-4.2-3.52-6.01-2.81-10.93-2.58-36.34-2.3-49.52,2.3-2.7,4.6-5.41,6.91-8.11h-.02Z" style="fill: #131c38;"/>
  <path d="M445.51,443.25c1.8-.15,3.26,1.39,3.06,3.19-1.22,10.17-11.44,18.68-24.5,19.75-13.06,1.07-24.54-5.68-27.39-15.5-.51-1.72.7-3.49,2.5-3.64l46.34-3.8h0Z" style="fill: #fff7f1;"/>
  <path d="M429.19,411.94l1.12,13.61c.15,1.87-1.23,3.51-3.11,3.66l-1.75.14" style="fill: none; stroke: #000; stroke-linecap: round; stroke-miterlimit: 10;"/>
  <ellipse cx="348.66" cy="431.39" rx="12.9" ry="24.53" transform="translate(-130.75 152.41) rotate(-20.86)" style="fill: #ffab99;"/>
  <ellipse cx="485.72" cy="417.86" rx="24.53" ry="12.9" transform="translate(-20.46 810.68) rotate(-78.52)" style="fill: #ffab99;"/>
  <path d="M355.59,431.22c-1.89-4.19-3.79-8.4-5.69-12.59-1.13-2.52-3.78-4.16-6.51-3.72h-.09c-2.82.5-5.15,2.71-6,5.68" style="fill: none; stroke: #f28472; stroke-linecap: round; stroke-miterlimit: 10;"/>
  <path d="M480.52,421.37c1.19-4.45,2.37-8.91,3.56-13.35.71-2.67,3.05-4.72,5.82-4.73h.09c2.86.02,5.52,1.82,6.84,4.62" style="fill: none; stroke: #f28472; stroke-linecap: round; stroke-miterlimit: 10;"/>
  <line x1="381.02" y1="392.85" x2="411.06" y2="390.39" style="fill: none; stroke: #111; stroke-linecap: round; stroke-miterlimit: 10; stroke-width: 5px;"/>
  <line x1="439.07" y1="388.09" x2="469.12" y2="385.63" style="fill: none; stroke: #111; stroke-linecap: round; stroke-miterlimit: 10; stroke-width: 5px;"/>
  <circle cx="396.88" cy="410.96" r="6.67"/>
  <circle cx="452.76" cy="406.37" r="6.67"/>
  <path d="M375.07,521.07c9.12,12.68,18.25,25.38,27.37,38.07-9.32,9.32-18.64,18.64-27.96,27.96-11.7-21.22-23.4-42.43-35.1-63.65l35.69-2.38Z" style="fill: #f8ffff;"/>
  <line x1="538.11" y1="498.36" x2="547.27" y2="613.72" style="fill: none; stroke: #192f35; stroke-linecap: round; stroke-miterlimit: 10; stroke-width: 25px;"/>
  <path d="M447.05,521.07c-9.12,12.68-18.25,25.38-27.37,38.07,9.32,9.32,18.64,18.64,27.96,27.96,11.7-21.22,23.4-42.43,35.1-63.65l-35.69-2.38Z" style="fill: #f8ffff;"/>
  <path d="M569.51,542.96c-8.22,2.5-16.32,5.01-24.71,7.49-2.53.75-5.29.52-7.63-.67-6.81-3.41-9.27-6.61-9.44-9.01l-12.83-4.41c-8.88,22.82-12.01,46-5.22,56.71,5.1,8.05,18.73,11.35,33.2,9.61.08,0,.18,0,.27-.02,10.16-1.25,20.71-5,28.99-11.31,3.08-2.35,5.6-4.87,7.65-7.32.86-1.79,1.04-3.88.52-5.85-1.54-5.75-3.06-11.51-4.58-17.27-.25-.93.01-1.89.64-2.56l5.99-9.7c1.91-3.08,2.05-6.94.38-10.16l-.9-1.73c-1.87-3.61-5.82-5.65-9.84-5.09l-16.77,2.31c-1.18.16-2.03,1.22-1.92,2.41l.96,11.23" style="fill: #ffaa9c;"/>
  <path d="M513.32,578.76c-9.64,7.38-40.85,31.28-50.48,38.66-43.47,33.3-86.92,66.63-130.36,99.98-10.55,12.5-13.9,27.49-8.36,37.96,6.13,11.58,21.05,14.58,25.7,14.36,16.2-.79,49.93-24.51,68.63-43.74,28.29-29.09,76.08-71.63,119.76-137.2-8.29-3.34-16.59-6.68-24.88-10.01Z" style="fill: #ffaa9c;"/>
  <path d="M339.47,770.69c11.75-2.83,49.81-11.97,61.56-14.79,53.01-12.73,106.04-25.43,159.07-38.1,16.09-.56,29.25,5.59,33.24,15.65,4.41,11.13-3.25,23.78-6.49,27.06-11.28,11.41-50.86,22.5-77.24,25.16-39.92,4.03-102.53,14.62-179.25,8.99,3.04-7.99,6.08-15.97,9.11-23.96Z" style="fill: #ffaa9c;"/>
  <path d="M351.29,773c-6.24-4.06-22.72-13.58-44.9-12.81-4.96.17-29.54,1.03-43.11,17.3-5.99,7.18-9.49,16.95-6.76,19.02,3.03,2.3,9.96-7.8,23.3-9.27,14.91-1.64,19.07,9.56,38.91,10.72,5.45.32,19.09,1.11,27.06-7.38,5.79-6.17,5.75-14.21,5.51-17.58Z" style="fill: #ffaa9c;"/>
  <line x1="527.73" y1="540.77" x2="514.9" y2="536.37" style="fill: #ffaa9c;"/>
  <rect x="496.12" y="482.99" width="28.28" height="41.52" rx="5.53" ry="5.53" transform="translate(-28.81 30.96) rotate(-3.38)" style="fill: #ea550f;"/>
  <rect x="510.11" y="476.93" width="55.09" height="52.69" rx="5.53" ry="5.53" transform="translate(-28.73 32.57) rotate(-3.38)" style="fill: #192f35;"/>
  <path d="M673.88,569.44l-109.28-39.99c-2.52-.92-4.2-3.02-4.35-5.42l-2.64-44.74c-.14-2.41,1.3-4.71,3.73-5.92l103.84-51.69c4.68-2.33,10.47.39,10.74,5.06l8.08,136.42c.28,4.69-5.19,8.08-10.12,6.27Z" style="fill: #ea550f;"/>
  <line x1="733.65" y1="441.81" x2="802.07" y2="393.45" style="fill: none; stroke: #192f35; stroke-linecap: round; stroke-linejoin: round; stroke-width: 3px;"/>
  <line x1="745.05" y1="540.77" x2="823.07" y2="571.31" style="fill: none; stroke: #192f35; stroke-linecap: round; stroke-linejoin: round; stroke-width: 3px;"/>
  <line x1="742.23" y1="491.11" x2="825.89" y2="486.59" style="fill: none; stroke: #192f35; stroke-linecap: round; stroke-linejoin: round; stroke-width: 3px;"/>
  <circle cx="220.1" cy="167.72" r="28.34" style="fill: #fff;"/>
  <line x1="270.29" y1="154.53" x2="476.87" y2="154.53" style="fill: none; stroke: #fff; stroke-linecap: round; stroke-linejoin: round; stroke-width: 8px;"/>
  <line x1="270.29" y1="174.53" x2="397.1" y2="174.53" style="fill: none; stroke: #fff; stroke-linecap: round; stroke-linejoin: round; stroke-width: 4px;"/>
  <rect x="542.47" y="115.1" width="265.45" height="91.7" rx="6.65" ry="6.65" transform="translate(84.52 -203.6) rotate(18.27)" style="fill: #ea550f;"/>
  <path d="M648.44,243.5l44.61-39.78c4.45-3.97,2.94-11.27-2.73-13.14l-56.76-18.74c-5.66-1.87-11.22,3.09-10.01,8.93l12.15,58.52c1.21,5.84,8.29,8.18,12.74,4.21Z" style="fill: #ea550f;"/>
  <path d="M722.7,209.68c.05.81.75,1.43,1.56,1.38.43-.03.82-.24,1.08-.58l35.73-47.14c.5-.63.39-1.55-.25-2.05-.27-.21-.6-.32-.94-.31l-59.15.63c-.81,0-1.47.68-1.46,1.49,0,.43.2.83.52,1.11l19.24,16.22c1.23,1.04,1.98,2.53,2.09,4.13l1.57,25.12Z" style="fill: #fff;"/>
  <path d="M636.59,129.23l-6.18,9.93,15.27,5.04c2.89.96,4.46,4.08,3.51,6.97-.16.5-.4.97-.69,1.4l-13.02,18.94c-1.39,2.02-3.95,2.88-6.28,2.11l-35.36-11.68c-2.89-.96-4.46-4.08-3.51-6.97l6.92-20.96c.96-2.89,4.08-4.46,6.97-3.51l7.23,2.39c1.99.66,4.18.13,5.65-1.36l15-15.06c4.51,1.55,6.91,6.46,5.36,10.97-.22.63-.5,1.22-.85,1.79Z" style="fill: #fff;"/>
</svg>