<?xml version="1.0" encoding="UTF-8"?>
<svg xmlns="http://www.w3.org/2000/svg" viewBox="0 0 1024 1024">
  <g id="Layer_32">
    <rect x="94.2" y="107.09" width="825.7" height="810.38" rx="14.55" ry="14.55" style="fill: #f4f4f4;"/>
  </g>
  <g id="Layer_33">
    <path d="M450.93,715.37l-209.3,33.27c-10.27,1.63-19.87-5.68-21.45-16.34l-60.11-407.25c-1.57-10.66,5.48-20.62,15.75-22.26l209.3-33.27c10.27-1.63,19.87,5.68,21.45,16.34l60.11,407.25c1.57,10.66-5.48,20.62-15.75,22.26Z" style="fill: #fff; stroke: #282828; stroke-miterlimit: 10; stroke-width: 10px;"/>
    <path d="M768.14,860.7l-208.64-34.23c-10.84-1.78-18.2-12.12-16.45-23.11l63.59-398.04c1.75-10.98,11.96-18.45,22.8-16.67l208.64,34.23c10.84,1.78,18.2,12.12,16.45,23.11l-63.59,398.04c-1.75,10.98-11.96,18.45-22.8,16.67Z" style="fill: #fff; stroke: #282828; stroke-miterlimit: 10; stroke-width: 10px;"/>
    <rect x="567.83" y="191.45" width="230.87" height="24" rx="12" ry="12" style="fill: none; stroke: #a6c626; stroke-miterlimit: 10;"/>
    <polygon points="441.23 556.56 204.84 594.14 170.35 360.43 406.73 322.85 441.23 556.56" style="fill: #f4f4f4;"/>
    <polygon points="455.52 650.07 218.59 687.73 207.66 613.69 444.59 576.03 455.52 650.07" style="fill: #f4f4f4;"/>
    <polygon points="805.49 724.25 567.83 685.27 606.31 444.43 843.97 483.42 805.49 724.25" style="fill: #f4f4f4;"/>
    <polygon points="788.15 820.38 552.36 781.7 564.55 705.4 800.34 744.08 788.15 820.38" style="fill: #f4f4f4;"/>
    <path d="M410.84,641.15l-150.8,23.97c-2.57.41-4.98-1.42-5.37-4.09l-4.95-33.56c-.39-2.67,1.37-5.16,3.94-5.57l150.8-23.97c2.57-.41,4.98,1.42,5.37,4.09l4.95,33.56c.39,2.67-1.37,5.16-3.94,5.57Z" style="fill: #ea550f;"/>
    <path d="M751.29,798.21l-159.15-26.11c-2.71-.45-4.56-3.04-4.12-5.79l5.52-34.58c.44-2.75,3-4.62,5.71-4.17l159.15,26.11c2.71.45,4.56,3.04,4.12,5.79l-5.52,34.58c-.44,2.75-3,4.62-5.71,4.17Z" style="fill: #a6c626;"/>
    <ellipse cx="299.39" cy="434.63" rx="65.58" ry="68.06" style="fill: #a6c626;"/>
    <path d="M293.16,394.97c20.59-3.27,39.84,11.4,43,32.77,3.15,21.37-10.98,41.35-31.58,44.62s-39.84-11.4-43-32.77c-3.15-21.37,10.98-41.35,31.58-44.62Z" style="fill: #fff924;"/>
    <path d="M284.34,440.9s6.74,6.85,16.06,5.37,13.77-10.11,13.77-10.11" style="fill: none; stroke: #282828; stroke-linecap: round; stroke-linejoin: round; stroke-width: 6px;"/>
    <path d="M278.49,426.24s1.02-2.64,3.32-3,4.04,1.83,4.04,1.83" style="fill: none; stroke: #282828; stroke-linecap: round; stroke-linejoin: round; stroke-width: 4px;"/>
    <path d="M307.67,420.63s1.03-2.66,3.35-3.02,4.06,1.85,4.06,1.85" style="fill: none; stroke: #282828; stroke-linecap: round; stroke-linejoin: round; stroke-width: 4px;"/>
    <line x1="216.03" y1="542.93" x2="360.68" y2="520.87" style="fill: none; stroke: #fff; stroke-linecap: round; stroke-linejoin: round; stroke-width: 3px;"/>
    <line x1="821.84" y1="513.81" x2="620.93" y2="478.9" style="fill: none; stroke: #fff; stroke-linecap: round; stroke-linejoin: round; stroke-width: 3px;"/>
    <line x1="685.52" y1="757.82" x2="634.97" y2="750.07" style="fill: none; stroke: #fff; stroke-linecap: round; stroke-linejoin: round; stroke-width: 3px;"/>
    <line x1="740.8" y1="777.52" x2="633.01" y2="759.94" style="fill: none; stroke: #fff; stroke-linecap: round; stroke-linejoin: round; stroke-width: 3px;"/>
    <line x1="795.3" y1="697.57" x2="594.39" y2="662.66" style="fill: none; stroke: #fff; stroke-linecap: round; stroke-linejoin: round; stroke-width: 3px;"/>
    <line x1="644.57" y1="662.66" x2="596.62" y2="653.58" style="fill: none; stroke: #fff; stroke-linecap: round; stroke-linejoin: round; stroke-width: 3px;"/>
    <line x1="218.18" y1="554.4" x2="362.83" y2="532.35" style="fill: none; stroke: #fff; stroke-linecap: round; stroke-linejoin: round; stroke-width: 3px;"/>
    <path d="M787.35,670.84l-185.48-30.43c-3.65-.6-6.13-4.09-5.54-7.79l19.63-122.88c.59-3.7,4.03-6.22,7.68-5.62l185.48,30.43c3.65.6,6.13,4.09,5.54,7.79l-19.63,122.88c-.59,3.7-4.03,6.22-7.68,5.62Z" style="fill: #ea550f;"/>
    <path d="M810.3,259.24l-106.69-17.49c-2.1-.34-3.54-2.25-3.22-4.26l10.63-66.62c.32-2.01,2.28-3.35,4.38-3.01l106.69,17.49c2.1.34,3.54,2.25,3.22,4.26l-10.63,66.62c-.32,2.01-2.28,3.35-4.38,3.01Z" style="fill: #ea550f;"/>
    <path d="M663.83,345.16l-79.09-13.66c-1.56-.27-2.64-1.57-2.41-2.9l7.46-44.3c.22-1.33,1.67-2.2,3.23-1.93l79.09,13.66c1.56.27,2.64,1.57,2.41,2.9l-7.46,44.3c-.22,1.33-1.67,2.2-3.23,1.93Z" style="fill: #fff;"/>
    <path d="M729.64,550.4l-56.88,60.59c-1.98,2.11-.81,5.58,2.05,6.05l91.99,15.09c2.87.47,5.1-2.46,3.87-5.1l-35.11-75.68c-1.08-2.33-4.17-2.83-5.93-.95Z" style="fill: #a6c626;"/>
    <path d="M676.97,573.23l-38.28,31.46c-2.41,1.98-1.36,5.87,1.71,6.37l64.81,10.63c3.08.51,5.32-2.86,3.65-5.51l-26.53-42.09c-1.16-1.84-3.68-2.25-5.36-.87Z" style="fill: #c6e548;"/>
    <ellipse cx="678.71" cy="546.39" rx="12.07" ry="12.23" style="fill: #fff924;"/>
    <ellipse cx="612.57" cy="752.6" rx="13.47" ry="13.65" style="fill: #fff;"/>
    <path d="M756.27,268.38l29.79-30.54c2.06-2.11.9-5.67-2-6.17l-47.75-8.16c-2.91-.5-5.18,2.47-3.94,5.15l17.96,38.7c1.08,2.33,4.15,2.85,5.94,1.02Z" style="fill: #ea550f;"/>
    <path d="M299.4,216.21l-76.58,12.27c-1.51.24-2.92-.73-3.16-2.17l-7.85-47.75c-.24-1.44.79-2.8,2.3-3.04l76.58-12.27c1.51-.24,2.92.73,3.16,2.17l7.85,47.75c.24,1.44-.79,2.8-2.3,3.04Z" style="fill: #a6c626;"/>
    <path d="M264.76,234.55l13.22-27.26c.96-1.97-.69-4.21-2.86-3.87l-34,5.21c-2.17.33-3.07,2.96-1.57,4.55l20.78,22.05c1.31,1.39,3.59,1.04,4.43-.68Z" style="fill: #a6c626;"/>
    <path d="M644.07,356.16l11.65-14.51c1.75-2.18.51-5.43-2.24-5.9l-17.82-3.05c-2.75-.47-5,2.19-4.07,4.83l6.17,17.55c.95,2.71,4.51,3.32,6.31,1.08Z" style="fill: #fff;"/>
    <path d="M757.91,216.3c3.14-2.18,6.41-4.87,7.11-9.01.94-5.49-2.75-10.69-8.23-11.63-3.18-.54-5.57-.02-8.74,2.22-2.25-3.17-4.33-4.46-7.51-5-5.49-.94-10.69,2.75-11.63,8.23-.71,4.15,1.46,7.78,3.72,10.86l10.48,14.8,14.8-10.48Z" style="fill: #fff;"/>
    <text transform="translate(775.7 228.83) rotate(9.7)" style="fill: #fff; font-family: SourceSansRoman-Bold, &apos;Source Sans Variable&apos;; font-size: 40.63px; font-variation-settings: &apos;wght&apos; 700; font-weight: 700;"><tspan x="0" y="0">1</tspan></text>
    <rect x="689.47" y="381.58" width="196.74" height="59.47" rx="7.59" ry="7.59" transform="translate(80.56 -126.86) rotate(9.7)" style="fill: #a6c626;"/>
    <circle cx="718.93" cy="398.89" r="16.34" style="fill: #fff;"/>
    <line x1="748.12" y1="394.12" x2="823.43" y2="406.37" style="fill: none; stroke: #f4f4f4; stroke-linecap: round; stroke-linejoin: round; stroke-width: 3px;"/>
    <line x1="747.12" y1="405.12" x2="861.56" y2="423.4" style="fill: none; stroke: #f4f4f4; stroke-linecap: round; stroke-linejoin: round; stroke-width: 3px;"/>
    <circle cx="603.61" cy="308.92" r="4.48" style="fill: #ea550f;"/>
    <circle cx="627.79" cy="313.39" r="4.48" style="fill: #ea550f;"/>
    <circle cx="651.73" cy="317.87" r="4.48" style="fill: #ea550f;"/>
    <path d="M259.62,185.64l-.52,6.08,8.29-1.27c1.57-.24,3.04.84,3.28,2.41.04.27.04.54,0,.81l-1.57,11.88c-.17,1.27-1.15,2.27-2.42,2.47l-19.2,2.94c-1.57.24-3.04-.84-3.28-2.41l-1.74-11.37c-.24-1.57.84-3.04,2.41-3.28l3.92-.6c1.08-.17,1.97-.93,2.3-1.97l3.4-10.55c2.46-.35,4.74,1.37,5.09,3.83.05.34.06.69.03,1.03Z" style="fill: #fff;"/>
    <circle cx="466.9" cy="226.78" r="35.94" style="fill: #ea550f;"/>
    <path d="M475.7,228.84c1.59-2.12,3.14-4.6,2.7-7.47-.58-3.81-4.14-6.42-7.95-5.84-2.21.34-3.66,1.2-5.25,3.37-2.17-1.59-3.82-1.98-6.02-1.64-3.81.58-6.42,4.14-5.84,7.95.44,2.88,2.66,4.79,4.81,6.32l10.11,7.43,7.43-10.11Z" style="fill: #fff;"/>
    <rect x="159.85" y="812.87" width="306.02" height="24" rx="12" ry="12" style="fill: none; stroke: #ea550f; stroke-miterlimit: 10;"/>
  </g>
</svg>