<svg width="82" height="1297" viewBox="0 0 82 1297" fill="none" xmlns="http://www.w3.org/2000/svg">
<line x1="43" y1="43" x2="42.9999" y2="1235" stroke="black" stroke-width="6"/>
<circle cx="41" cy="41" r="41" fill="black"/>
<circle cx="41" cy="284" r="41" fill="black"/>
<circle cx="41" cy="616" r="41" fill="black"/>
<circle cx="41" cy="930" r="41" fill="black"/>
<circle cx="41" cy="1256" r="41" fill="black"/>
<path d="M33.44 56V51.72H39.92V32.12H42.4L34.08 37.08V32.2L41.4 27.8H45.08V51.72H51.16V56H33.44Z" fill="white"/>
<path d="M32.12 298V294.2L41.48 284.44C42.6533 283.213 43.52 282.08 44.08 281.04C44.64 280 44.92 278.933 44.92 277.84C44.92 276.48 44.4933 275.453 43.64 274.76C42.7867 274.067 41.5467 273.72 39.92 273.72C38.6133 273.72 37.36 273.96 36.16 274.44C34.96 274.893 33.7867 275.613 32.64 276.6L30.96 272.76C32.1067 271.747 33.52 270.933 35.2 270.32C36.9067 269.707 38.6933 269.4 40.56 269.4C43.6 269.4 45.9333 270.08 47.56 271.44C49.1867 272.8 50 274.747 50 277.28C50 279.04 49.5867 280.72 48.76 282.32C47.9333 283.893 46.6533 285.547 44.92 287.28L37.12 295.08V293.72H51.12V298H32.12Z" fill="white"/>
<path d="M40.56 631.4C38.6133 631.4 36.7467 631.12 34.96 630.56C33.1733 629.973 31.7067 629.173 30.56 628.16L32.24 624.28C33.4933 625.24 34.7867 625.947 36.12 626.4C37.48 626.853 38.9067 627.08 40.4 627.08C42.2133 627.08 43.5867 626.72 44.52 626C45.4533 625.28 45.92 624.227 45.92 622.84C45.92 621.507 45.4533 620.507 44.52 619.84C43.6133 619.147 42.28 618.8 40.52 618.8H35.96V614.68H40.08C41.6 614.68 42.8133 614.307 43.72 613.56C44.6267 612.813 45.08 611.787 45.08 610.48C45.08 609.253 44.6533 608.32 43.8 607.68C42.9733 607.04 41.7733 606.72 40.2 606.72C37.3733 606.72 34.88 607.68 32.72 609.6L31.04 605.76C32.1867 604.693 33.6 603.867 35.28 603.28C36.9867 602.693 38.7733 602.4 40.64 602.4C43.5733 602.4 45.8667 603.067 47.52 604.4C49.2 605.707 50.04 607.533 50.04 609.88C50.04 611.56 49.56 613.013 48.6 614.24C47.6667 615.44 46.3733 616.24 44.72 616.64V616.16C46.6667 616.48 48.1733 617.28 49.24 618.56C50.3333 619.813 50.88 621.387 50.88 623.28C50.88 625.787 49.96 627.773 48.12 629.24C46.28 630.68 43.76 631.4 40.56 631.4Z" fill="white"/>
<path d="M43.24 945V939.48H30.64V935.88L44.04 916.8H48.2V935.56H52.24V939.48H48.2V945H43.24ZM43.24 935.56V922.88H44.2L34.48 936.76V935.56H43.24Z" fill="white"/>
<path d="M41.2 1271.4C39.9733 1271.4 38.7467 1271.27 37.52 1271C36.32 1270.73 35.1867 1270.36 34.12 1269.88C33.08 1269.4 32.1867 1268.83 31.44 1268.16L33.12 1264.28C34.3733 1265.21 35.6533 1265.92 36.96 1266.4C38.2933 1266.85 39.68 1267.08 41.12 1267.08C42.8533 1267.08 44.2 1266.65 45.16 1265.8C46.1467 1264.92 46.64 1263.75 46.64 1262.28C46.64 1260.79 46.1733 1259.59 45.24 1258.68C44.3067 1257.75 43.0267 1257.28 41.4 1257.28C40.2533 1257.28 39.2 1257.51 38.24 1257.96C37.3067 1258.39 36.4667 1259.05 35.72 1259.96H32.32V1242.8H49.84V1247.04H37.2V1256H35.96C36.6533 1255.07 37.5733 1254.35 38.72 1253.84C39.8933 1253.33 41.2 1253.08 42.64 1253.08C44.4533 1253.08 46.0267 1253.45 47.36 1254.2C48.6933 1254.95 49.7333 1256 50.48 1257.36C51.2267 1258.69 51.6 1260.27 51.6 1262.08C51.6 1263.92 51.1733 1265.55 50.32 1266.96C49.4933 1268.35 48.2933 1269.44 46.72 1270.24C45.1733 1271.01 43.3333 1271.4 41.2 1271.4Z" fill="white"/>
</svg>
