<?xml version="1.0" encoding="UTF-8"?>
<svg id="Layer_25" xmlns="http://www.w3.org/2000/svg" viewBox="0 0 1024 1024">
  <rect x="66.36" y="332.47" width="897.7" height="530.49" rx="14.12" ry="14.12" style="fill: #e2e2e2;"/>
  <rect x="242.8" y="427.89" width="553.84" height="330.52" rx="14.12" ry="14.12" style="fill: #3f3f3f; stroke: #fff; stroke-miterlimit: 10; stroke-width: 10px;"/>
  <path d="M631.66,527.63c-18.67,29.73-59.41,2.57-95.79,37.37-44.69,42.78-20.4,119.46-53.38,136.44-38.72,19.94-89.36-76.93-140.25-56.12-29.68,12.15-25.97,50.63-55.18,61.24-12.27,4.45-26.67,2.64-41.27-3.83v-250.89c0-11.56,8.02-20.95,17.92-20.95h360.74c15.46,37.35,20.44,75.66,7.2,96.74Z" style="fill: #ea550f;"/>
  <path d="M549.78,496.1c-14.71,20.04-46.8,1.73-75.46,25.19-35.21,28.84-16.07,80.53-42.05,91.97-30.5,13.44-70.4-51.86-110.49-37.83-23.38,8.19-20.46,34.13-43.47,41.28-9.67,3-21.01,1.78-32.51-2.58v-169.12c0-7.79,6.32-14.12,14.12-14.12h284.19c12.18,25.18,16.1,51,5.67,65.21Z" style="fill: #c9e555;"/>
  <path d="M472.43,480.82c-10.97,15.35-34.89,1.32-56.26,19.29-26.25,22.08-11.98,61.67-31.35,70.43-22.74,10.29-52.49-39.71-82.37-28.97-17.43,6.27-15.25,26.14-32.41,31.61-7.21,2.3-15.66,1.36-24.24-1.98v-129.5c0-5.97,4.71-10.81,10.53-10.81h211.87c9.08,19.28,12,39.05,4.23,49.93Z" style="fill: #a6c626;"/>
  <path d="M151.1,460.48h150.53c3.69,0,6.69,3,6.69,6.69v197.38c0,7.64-6.2,13.84-13.84,13.84h-136.23c-7.64,0-13.84-6.2-13.84-13.84v-197.38c0-3.69,3-6.69,6.69-6.69Z" style="fill: #fff;"/>
  <path d="M201.97,228.51h212.71c3.69,0,6.69,3,6.69,6.69v161.45c0,7.64-6.2,13.84-13.84,13.84h-198.41c-7.64,0-13.84-6.2-13.84-13.84v-161.45c0-3.69,3-6.69,6.69-6.69Z" style="fill: #f9f9f9;"/>
  <path d="M918.74,362.72h-222.89c-4.95,0-8.97-4.01-8.97-8.97v-225.17c0-3.7,3-6.69,6.69-6.69h227.44c3.7,0,6.69,3,6.69,6.69v225.17c0,4.95-4.01,8.97-8.97,8.97Z" style="fill: none; stroke: #efefef; stroke-dasharray: 11.87 11.87; stroke-linecap: round; stroke-linejoin: round; stroke-width: 3px;"/>
  <path d="M152.12,460.48h148.49c4.26,0,7.71,3.46,7.71,7.71v18.36h-163.91v-18.36c0-4.26,3.46-7.71,7.71-7.71Z" style="fill: #ea550f;"/>
  <path d="M202.99,228.5h210.66c4.26,0,7.71,3.46,7.71,7.71v18.36h-226.09v-18.36c0-4.26,3.46-7.71,7.71-7.71Z" style="fill: #ea550f;"/>
  <path d="M187.29,299.5h78.94c2.95,0,5.35,2.4,5.35,5.35v16.1c0,2.56-2.07,4.63-4.63,4.63h-80.38c-2.56,0-4.63-2.07-4.63-4.63v-16.1c0-2.95,2.4-5.35,5.35-5.35Z" transform="translate(-85.77 539.3) rotate(-90)" style="fill: #ea550f;"/>
  <path d="M219.07,374.73h178.38c2.95,0,5.35,2.4,5.35,5.35v7.54c0,2.56-2.07,4.63-4.63,4.63h-179.82c-2.56,0-4.63-2.07-4.63-4.63v-7.54c0-2.95,2.4-5.35,5.35-5.35Z" style="fill: #ea550f;"/>
  <path d="M242.29,299.5h78.94c2.95,0,5.35,2.4,5.35,5.35v16.1c0,2.56-2.07,4.63-4.63,4.63h-80.38c-2.56,0-4.63-2.07-4.63-4.63v-16.1c0-2.95,2.4-5.35,5.35-5.35Z" transform="translate(-30.77 594.3) rotate(-90)" style="fill: #a6c626;"/>
  <path d="M350.29,299.5h78.94c2.95,0,5.35,2.4,5.35,5.35v16.1c0,2.56-2.07,4.63-4.63,4.63h-80.38c-2.56,0-4.63-2.07-4.63-4.63v-16.1c0-2.95,2.4-5.35,5.35-5.35Z" transform="translate(77.23 702.3) rotate(-90)" style="fill: #c9e555;"/>
  <path d="M296.29,299.5h78.94c2.95,0,5.35,2.4,5.35,5.35v16.1c0,2.56-2.07,4.63-4.63,4.63h-80.38c-2.56,0-4.63-2.07-4.63-4.63v-16.1c0-2.95,2.4-5.35,5.35-5.35Z" transform="translate(23.23 648.3) rotate(-90)" style="fill: #d3d3d3;"/>
  <path d="M220.01,742.77h301.04c3.69,0,6.69,3,6.69,6.69v72.16c0,4.4-3.58,7.98-7.98,7.98H221.3c-4.4,0-7.98-3.58-7.98-7.98v-72.16c0-3.69,3-6.69,6.69-6.69Z" style="fill: #fff;"/>
  <path d="M221.03,742.77h299c4.26,0,7.71,3.46,7.71,7.71v18.36H213.32v-18.36c0-4.26,3.46-7.71,7.71-7.71Z" style="fill: #ea550f;"/>
  <rect x="673.68" y="109.31" width="26.78" height="26.78" style="fill: #efefef;"/>
  <rect x="913.68" y="109.31" width="26.78" height="26.78" style="fill: #efefef;"/>
  <rect x="673.68" y="348.31" width="26.78" height="26.78" style="fill: #efefef;"/>
  <rect x="913.68" y="348.31" width="26.78" height="26.78" style="fill: #efefef;"/>
  <path d="M461.29,183.24h-41.1c-4.95,0-8.96-4.01-8.96-8.97v-43.37c0-3.7,3-6.69,6.69-6.69h45.64c3.7,0,6.69,3,6.69,6.69v43.37c0,4.95-4.01,8.97-8.96,8.97Z" style="fill: none; stroke: #bcbcbc; stroke-dasharray: 12.37 12.37; stroke-linecap: round; stroke-linejoin: round; stroke-width: 3px;"/>
  <rect x="405.14" y="119.41" width="11.96" height="11.96" style="fill: #ccc;"/>
  <rect x="464.08" y="119.41" width="11.96" height="11.96" style="fill: #ccc;"/>
  <rect x="464.08" y="176.55" width="11.96" height="11.96" style="fill: #ccc;"/>
  <rect x="405.74" y="175.35" width="11.96" height="11.96" style="fill: #ccc;"/>
  <path d="M722.93,642.32l-142.5,56.18c-4.61,1.82-9.81-.45-11.63-5.05l-22.06-55.96c-1.36-3.44.33-7.32,3.77-8.68l146.73-57.84c3.44-1.36,7.32.33,8.68,3.77l22.06,55.96c1.82,4.61-.45,9.81-5.05,11.63Z" style="fill: none; stroke: #bcbcbc; stroke-dasharray: 12.01 12.01; stroke-linecap: round; stroke-linejoin: round; stroke-width: 3px;"/>
  <rect x="692.71" y="557.7" width="21.81" height="20.08" transform="translate(-159.19 297.6) rotate(-21.51)" style="fill: #ccc;"/>
  <rect x="534.53" y="621.08" width="21.81" height="20.08" transform="translate(-193.45 244.01) rotate(-21.51)" style="fill: #ccc;"/>
  <rect x="720.71" y="628.7" width="21.81" height="20.08" transform="translate(-183.28 312.82) rotate(-21.51)" style="fill: #ccc;"/>
  <rect x="562.53" y="692.08" width="21.81" height="20.08" transform="translate(-217.54 259.22) rotate(-21.51)" style="fill: #ccc;"/>
  <rect x="227.49" y="775.15" width="28.28" height="28.28" style="fill: #a6c626;"/>
  <rect x="243.3" y="792.2" width="28.28" height="28.28" style="fill: #a6c626;"/>
  <rect x="301.49" y="775.15" width="28.28" height="28.28" style="fill: #a6c626;"/>
  <rect x="317.3" y="792.2" width="28.28" height="28.28" style="fill: #ededed;"/>
  <rect x="374.49" y="775.15" width="28.28" height="28.28" style="fill: #a6c626;"/>
  <rect x="390.3" y="792.2" width="28.28" height="28.28" style="fill: #a6c626;"/>
  <rect x="390.3" y="792.2" width="12.48" height="11.36" style="fill: #ededed;"/>
  <rect x="453.49" y="775.15" width="28.28" height="28.28" style="fill: #ededed;"/>
  <rect x="469.3" y="792.2" width="28.28" height="28.28" style="fill: #ededed;"/>
  <rect x="469.3" y="792.2" width="12.48" height="11.36" style="fill: #a6c626;"/>
  <path d="M175.25,510.31l3.25,33.39c.1,1.07,1.48,1.45,2.12.59,5.39-7.3,12.62-11.14,21.69-11.52,1.08-.04,1.53-1.39.7-2.08l-25.84-21.4c-.81-.67-2.03-.03-1.92,1.02Z" style="fill: #a0a0a0;"/>
  <path d="M246.07,508.82l3.04,31.26c.1,1,1.38,1.36,1.98.55,5.05-6.83,11.82-10.43,20.31-10.78,1.01-.04,1.43-1.3.66-1.95l-24.19-20.04c-.76-.63-1.9-.02-1.8.96Z" style="fill: none; stroke: #939393; stroke-miterlimit: 10; stroke-width: 2px;"/>
  <line x1="169.46" y1="593.96" x2="201.86" y2="569.05" style="fill: none; stroke: #939393; stroke-linecap: round; stroke-miterlimit: 10; stroke-width: 2px;"/>
  <rect x="246.01" y="568.05" width="36.67" height="29.6" style="fill: none; stroke: #939393; stroke-linecap: round; stroke-miterlimit: 10; stroke-width: 2px;"/>
  <path d="M166.04,623.4h37.98c1.04,0,1.87.84,1.87,1.87v24.12c0,1.04-.84,1.87-1.87,1.87h-30.77c-1.04,0-1.87-.84-1.87-1.87v-30.8" style="fill: none; stroke: #939393; stroke-linecap: round; stroke-miterlimit: 10; stroke-width: 2px;"/>
  <path d="M242.46,650.7l2.26-8.66,19.46-22.76c.7-.82,1.94-.92,2.77-.22l4.62,3.95c.82.7.92,1.94.22,2.77l-19.46,22.76-9.86,2.16" style="fill: none; stroke: #939393; stroke-linecap: round; stroke-miterlimit: 10; stroke-width: 2px;"/>
  <rect x="491.73" y="216.97" width="361.48" height="267.01" rx="14.12" ry="14.12" style="fill: #f4f4f4;"/>
  <rect x="721.24" y="692.05" width="150.79" height="111.38" rx="14.12" ry="14.12" style="fill: #f4f4f4;"/>
  <path d="M600.66,438.74h301.04c3.69,0,6.69,3,6.69,6.69v69.93c0,7.64-6.2,13.84-13.84,13.84h-286.75c-7.64,0-13.84-6.2-13.84-13.84v-69.93c0-3.69,3-6.69,6.69-6.69Z" style="fill: #fff;"/>
  <path d="M601.68,438.74h299c4.26,0,7.71,3.46,7.71,7.71v18.36h-314.43v-18.36c0-4.26,3.46-7.71,7.71-7.71Z" style="fill: #ea550f;"/>
  <rect x="617.35" y="482.16" width="26.08" height="26.08" style="fill: #ededed;"/>
  <rect x="652.35" y="482.16" width="26.08" height="26.08" style="fill: #a6c626;"/>
  <rect x="687.35" y="482.16" width="26.08" height="26.08" style="fill: #bfdd3e;"/>
  <rect x="721.35" y="482.16" width="26.08" height="26.08" style="fill: #cfe867;"/>
  <rect x="755.35" y="482.16" width="26.08" height="26.08" style="fill: #92af1b;"/>
  <rect x="789.35" y="482.16" width="26.08" height="26.08" style="fill: #303030;"/>
  <rect x="823.35" y="482.16" width="26.08" height="26.08" style="fill: #ea550f;"/>
  <rect x="857.35" y="482.16" width="26.08" height="26.08" style="fill: #f77948;"/>
  <path d="M907.46,736.32h-66.05c-4.95,0-8.97-4.01-8.97-8.97v-51.96c0-3.7,3-6.69,6.69-6.69h70.6c3.7,0,6.69,3,6.69,6.69v51.96c0,4.95-4.01,8.97-8.97,8.97Z" style="fill: none; stroke: #bcbcbc; stroke-dasharray: 12.07 12.07; stroke-linecap: round; stroke-linejoin: round; stroke-width: 3px;"/>
  <rect x="823.78" y="663.19" width="17.02" height="13.7" style="fill: #ccc;"/>
  <rect x="907.64" y="663.19" width="17.02" height="13.7" style="fill: #ccc;"/>
  <rect x="907.64" y="728.65" width="17.02" height="13.7" style="fill: #ccc;"/>
  <rect x="824.64" y="727.27" width="17.02" height="13.7" style="fill: #ccc;"/>
</svg>