<?xml version="1.0" encoding="UTF-8"?>
<svg id="Layer_22" xmlns="http://www.w3.org/2000/svg" viewBox="0 0 1024 1024">
  <rect x="44.74" y="31.44" width="940.6" height="958.98" rx="12" ry="12" style="fill: #ededed;"/>
  <path d="M56.74,31.44h916.6c6.62,0,12,5.38,12,12v71.43H44.74V43.44c0-6.62,5.38-12,12-12Z" style="fill: #dfdfdf;"/>
  <circle cx="863.08" cy="71.16" r="18.7" style="fill: #fff;"/>
  <circle cx="922.32" cy="71.16" r="18.7" style="fill: #fff;"/>
  <rect x="77.25" y="62.1" width="436.09" height="22.98" rx="11.49" ry="11.49" style="fill: #fff;"/>
  <rect x="109.5" y="186.84" width="338.55" height="684.51" rx="29.94" ry="29.94" style="fill: #fff;"/>
  <rect x="156.25" y="232.94" width="100" height="100" rx="12" ry="12" style="fill: #ea550f;"/>
  <g>
    <rect x="300.08" y="234.06" width="100" height="100" rx="12" ry="12" style="fill: #a6c626;"/>
    <path d="M350.42,284.46v-13.64M354.97,289h13.64M332.23,289h13.64M350.42,307.2v-13.64M350.42,302.65c7.54,0,13.64-6.11,13.64-13.64s-6.11-13.64-13.64-13.64-13.64,6.11-13.64,13.64,6.11,13.64,13.64,13.64ZM337.53,283.7l-3.79-1.52M363.3,294.31l3.79,1.52M336.78,275.36l3.79,3.79M336.78,275.36l3.79,3.79M359.51,298.1l3.79,3.79M363.3,275.36l-3.79,3.79M340.57,298.1l-3.79,3.79M350.42,293.55c2.51,0,4.55-2.04,4.55-4.55s-2.04-4.55-4.55-4.55-4.55,2.04-4.55,4.55,2.04,4.55,4.55,4.55ZM363.3,283.7l3.79-1.52M355.72,276.12l1.52-3.79M355.72,301.89l1.52,3.79M345.11,301.89l-1.52,3.79M337.53,294.31l-3.79,1.52M345.11,276.12l-1.52-3.79" style="fill: none; stroke: #fff; stroke-miterlimit: 2; stroke-width: 3px;"/>
    <rect x="316.59" y="260.77" width="67.06" height="51.4" rx="5.36" ry="5.36" style="fill: none; stroke: #fff; stroke-miterlimit: 10; stroke-width: 2px;"/>
    <path d="M321.97,258.9h56.21c3.25,0,5.89,2.64,5.89,5.89v1.34h-68v-1.34c0-3.25,2.64-5.89,5.89-5.89Z" style="fill: #fff;"/>
  </g>
  <path d="M786.41,296.93h27.82v27.82h-27.82v-27.82Z" style="fill: none;"/>
  <circle cx="206.46" cy="285.29" r="28.05" style="fill: none; stroke: #fff; stroke-miterlimit: 10; stroke-width: 3px;"/>
  <path d="M213.23,284.61l2.55-2.55-6.08-6.08-2.55,2.55-6.72-6.7c-1.27-1.27-3.33-1.27-4.59,0l-3.08,3.08c-1.27,1.27-1.27,3.33,0,4.59l6.7,6.7-7.71,7.72v6.08h6.08l7.72-7.72,6.7,6.7c1.54,1.54,3.62.97,4.59,0l3.08-3.08c1.27-1.27,1.27-3.33,0-4.59,0,0-6.7-6.7-6.7-6.7ZM201.78,283.89l-6.72-6.7,3.07-3.08,2.06,2.06-1.91,1.93,2.29,2.29,1.93-1.93,2.35,2.35s-3.07,3.08-3.07,3.08ZM214.56,296.69l-6.7-6.7,3.08-3.08,2.35,2.35-1.93,1.93,2.29,2.29,1.93-1.93,2.06,2.06-3.08,3.08ZM220.48,277.35c.63-.63.63-1.65,0-2.29,0,0,0,0,0,0l-3.8-3.8c-.76-.76-1.82-.47-2.29,0l-2.97,2.97,6.08,6.08s2.97-2.97,2.97-2.97Z" style="fill: #fff;"/>
  <rect x="156.86" y="513.75" width="100" height="100" rx="12" ry="12" style="fill: #ea550f;"/>
  <g>
    <rect x="299.87" y="372.94" width="100" height="100" rx="12" ry="12" style="fill: #ea550f;"/>
    <path d="M334.72,414.67c3.81,0,6.89-3.09,6.89-6.89s-3.09-6.89-6.89-6.89-6.89,3.09-6.89,6.89,3.09,6.89,6.89,6.89ZM366.41,414.67c3.81,0,6.89-3.09,6.89-6.89s-3.09-6.89-6.89-6.89-6.89,3.09-6.89,6.89,3.09,6.89,6.89,6.89ZM322.31,426.62c0,1.01.83,1.83,1.83,1.83h18.44c-2.29-2.02-3.73-4.98-3.73-8.27,0-.65.06-1.29.16-1.92-1.17-.54-2.47-.84-3.84-.84h-3.68c-5.07,0-9.19,4.12-9.19,9.19ZM349.88,428.45c2.07,0,3.95-.76,5.4-2.01.22-.32.45-.63.69-.92.23-.28.49-.53.78-.71.89-1.33,1.4-2.91,1.4-4.63,0-4.57-3.7-8.27-8.27-8.27s-8.27,3.7-8.27,8.27,3.7,8.27,8.27,8.27ZM355.51,433.64c-.89-.51-1.56-1.4-1.79-2.43h-8.9c-6.34,0-11.48,5.14-11.48,11.48,0,1.27,1.02,2.3,2.3,2.3h25.88c-.18-.45-.28-.94-.28-1.41v-.26c-.11-.06-.23-.13-.34-.2l-.22.13c-1.45.84-3.49.69-4.71-.84-.39-.48-.74-.99-1.07-1.52v-.02s-.02-.02-.02-.02l-.21-.35v-.02s-.02-.02-.02-.02c-.29-.53-.55-1.09-.78-1.66-.71-1.83.19-3.67,1.64-4.5l.23-.13v-.4l-.23-.13v-.02ZM368.25,417.43h-3.67c-1.37,0-2.67.3-3.84.84.11.62.16,1.27.16,1.92,0,1.5-.3,2.92-.84,4.22.22.08.42.17.61.28l.22.13c.11-.07.22-.14.34-.2v-.26c0-1.67,1.15-3.37,3.08-3.67.68-.1,1.38-.16,2.08-.16s1.4.05,2.08.16c1.94.3,3.08,2,3.08,3.67v.26c.11.06.23.13.34.2l.22-.13c1.45-.84,3.49-.69,4.71.84.2.24.39.5.57.75-.18-4.92-4.22-8.85-9.18-8.85ZM376.11,431.55c.54-.31.82-.96.59-1.55-.18-.47-.4-.93-.64-1.37l-.2-.34c-.27-.44-.56-.85-.88-1.25-.4-.49-1.09-.58-1.64-.26l-.25.15c-.79.46-1.76.34-2.55-.11s-1.39-1.25-1.39-2.16v-.29c0-.63-.42-1.19-1.04-1.28-.56-.09-1.13-.13-1.71-.13s-1.15.04-1.71.13c-.62.09-1.04.65-1.04,1.28v.29c0,.91-.59,1.71-1.39,2.16s-1.76.57-2.55.11l-.25-.15c-.54-.31-1.24-.22-1.64.26-.32.4-.61.82-.88,1.26l-.2.34c-.24.44-.46.9-.64,1.37-.22.59.04,1.23.59,1.54l.25.15c.79.46,1.18,1.36,1.18,2.27s-.39,1.82-1.18,2.27l-.26.15c-.54.31-.82.96-.59,1.54.18.47.4.92.64,1.36l.21.35c.26.44.55.85.87,1.25.4.49,1.09.58,1.64.26l.25-.15c.79-.46,1.76-.34,2.55.11s1.39,1.25,1.39,2.16v.29c0,.63.42,1.19,1.04,1.28.56.09,1.13.13,1.71.13s1.15-.04,1.71-.13c.62-.09,1.04-.65,1.04-1.28v-.29c0-.91.59-1.71,1.39-2.16s1.76-.57,2.55-.11l.25.15c.54.31,1.24.22,1.64-.26.32-.4.61-.81.87-1.25l.21-.36c.24-.44.46-.89.64-1.36.22-.59-.04-1.23-.59-1.54l-.26-.15c-.79-.46-1.18-1.36-1.18-2.27s.39-1.82,1.18-2.27l.26-.15v.02ZM362.97,433.97c0-1.9,1.54-3.45,3.45-3.45s3.45,1.54,3.45,3.45-1.54,3.45-3.45,3.45-3.45-1.54-3.45-3.45Z" style="fill: #fff;"/>
  </g>
  <path d="M870.23,516.85h40.21v40.21h-40.21v-40.21Z" style="fill: none;"/>
  <rect x="155.94" y="368.71" width="100" height="100" rx="12" ry="12" style="fill: #a6c626;"/>
  <path d="M240.81,399.36h-30.44c-2.09,0-3.8,1.71-3.8,3.8v20.92c0,2.09,1.71,3.8,3.8,3.8h11.41l-3.8,3.8v1.9h15.22v-1.9l-3.8-3.8h11.41c2.09,0,3.8-1.71,3.8-3.8v-20.92c0-2.09-1.71-3.8-3.8-3.8" style="fill: #fff;"/>
  <rect x="189.49" y="424.31" width="12.26" height="17.99" rx="2.21" ry="2.21" style="fill: #fff;"/>
  <rect x="171.71" y="399.36" width="30.05" height="20.58" rx="2.45" ry="2.45" style="fill: #fff;"/>
  <circle cx="199.04" cy="409.94" r="1.34" style="fill: #ea550f;"/>
  <circle cx="225.09" cy="424.31" r="1.34" style="fill: #ea550f;"/>
  <circle cx="195.62" cy="439.82" r="1.34" style="fill: #ea550f;"/>
  <path d="M214.47,744.29h51.35v51.35h-51.35v-51.35Z" style="fill: none;"/>
  <rect x="156.86" y="651.91" width="100" height="100" rx="12" ry="12" transform="translate(413.72 1403.82) rotate(-180)" style="fill: #a6c626;"/>
  <g>
    <rect x="300.59" y="513.75" width="100" height="100" rx="12" ry="12" transform="translate(701.18 1127.51) rotate(180)" style="fill: #a6c626;"/>
    <path d="M359.54,581.14c0,4.94-4.01,8.95-8.95,8.95s-8.95-4.01-8.95-8.95,4.01-8.95,8.95-8.95c2.56,0,4.87,1.07,6.5,2.8,1.52,1.6,2.45,3.77,2.45,6.16Z" style="fill: none; stroke: #fff; stroke-miterlimit: 10; stroke-width: 2px;"/>
    <path d="M350.59,580.43c1.57,0,2.84-1.27,2.84-2.84s-1.27-2.84-2.84-2.84-2.84,1.27-2.84,2.84,1.27,2.84,2.84,2.84ZM352.57,581.14h-.37c-.49.23-1.04.35-1.61.35s-1.12-.13-1.61-.35h-.37c-1.64,0-2.98,1.33-2.98,2.98v.92c0,.59.48,1.06,1.06,1.06h7.8c.59,0,1.06-.48,1.06-1.06v-.92c0-1.64-1.33-2.98-2.98-2.98Z" style="fill: #fff;"/>
    <path d="M333.04,548.2c0,4.94-4.01,8.95-8.95,8.95s-8.95-4.01-8.95-8.95,4.01-8.95,8.95-8.95c2.56,0,4.87,1.07,6.5,2.8,1.52,1.6,2.45,3.77,2.45,6.16Z" style="fill: none; stroke: #fff; stroke-miterlimit: 10; stroke-width: 2px;"/>
    <path d="M324.08,547.49c1.57,0,2.84-1.27,2.84-2.84s-1.27-2.84-2.84-2.84-2.84,1.27-2.84,2.84,1.27,2.84,2.84,2.84ZM326.07,548.2h-.37c-.49.23-1.04.35-1.61.35s-1.12-.13-1.61-.35h-.37c-1.64,0-2.98,1.33-2.98,2.98v.92c0,.59.48,1.06,1.06,1.06h7.8c.59,0,1.06-.48,1.06-1.06v-.92c0-1.64-1.33-2.98-2.98-2.98Z" style="fill: #fff;"/>
    <path d="M386.91,548.2c0,4.94-4.01,8.95-8.95,8.95s-8.95-4.01-8.95-8.95,4.01-8.95,8.95-8.95c2.56,0,4.87,1.07,6.5,2.8,1.52,1.6,2.45,3.77,2.45,6.16Z" style="fill: none; stroke: #fff; stroke-miterlimit: 10; stroke-width: 2px;"/>
    <path d="M377.95,547.49c1.57,0,2.84-1.27,2.84-2.84s-1.27-2.84-2.84-2.84-2.84,1.27-2.84,2.84,1.27,2.84,2.84,2.84ZM379.94,548.2h-.37c-.49.23-1.04.35-1.61.35s-1.12-.13-1.61-.35h-.37c-1.64,0-2.98,1.33-2.98,2.98v.92c0,.59.48,1.06,1.06,1.06h7.8c.59,0,1.06-.48,1.06-1.06v-.92c0-1.64-1.33-2.98-2.98-2.98Z" style="fill: #fff;"/>
    <line x1="328.23" y1="556.13" x2="344.31" y2="574.76" style="fill: none; stroke: #fff; stroke-miterlimit: 10; stroke-width: 2px;"/>
    <line x1="369" y1="548.54" x2="332.65" y2="548.4" style="fill: none; stroke: #fff; stroke-miterlimit: 10; stroke-width: 2px;"/>
    <line x1="357.09" y1="574.98" x2="374.69" y2="556.54" style="fill: none; stroke: #fff; stroke-miterlimit: 10; stroke-width: 2px;"/>
  </g>
  <g id="SVGRepo_iconCarrier">
    <circle cx="205.94" cy="543.4" r="8.12" style="fill: #fff;"/>
    <circle cx="227.64" cy="578.65" r="8.12" style="fill: #fff;"/>
    <circle cx="184.24" cy="578.65" r="8.12" style="fill: #fff;"/>
    <path d="M188.89,585.29c9.48,9.25,24.61,9.25,34.09,0" style="fill: #fff;"/>
    <path d="M213.95,544.76c9.82,3.39,16.4,12.65,16.39,23.04.01,1.05-.07,2.09-.23,3.12" style="fill: #fff;"/>
    <path d="M181.77,570.84c-.16-1.03-.24-2.08-.23-3.12.02-10.36,6.6-19.57,16.39-22.95" style="fill: #fff;"/>
  </g>
  <path d="M209.41,677.48v1.12c.68.13,1.34.29,1.93.45,1.36.36,2.17,1.76,1.81,3.12s-1.76,2.17-3.12,1.81c-1.16-.31-2.24-.52-3.21-.53-.78-.01-1.56.18-2.06.47-.22.14-.33.25-.37.32-.03.05-.07.13-.07.3v.06s.1.13.35.28c.62.37,1.53.66,2.91,1.07l.1.03c1.18.35,2.75.83,4.02,1.62,1.45.91,2.77,2.43,2.8,4.77.03,2.39-1.21,4.13-2.84,5.15-.71.44-1.48.74-2.26.93v1.13c0,1.41-1.14,2.55-2.55,2.55s-2.55-1.14-2.55-2.55v-1.21c-1.01-.24-1.93-.56-2.72-.83-.22-.07-.44-.15-.64-.21-1.34-.45-2.06-1.89-1.61-3.23s1.89-2.06,3.23-1.61c.28.1.53.18.78.27,1.44.49,2.48.84,3.6.88.85.03,1.6-.17,2.04-.44.2-.13.3-.23.34-.31.04-.06.1-.19.08-.44v-.02c0-.11,0-.22-.42-.49-.61-.38-1.52-.68-2.88-1.09l-.2-.06c-1.15-.34-2.65-.8-3.87-1.53-1.43-.86-2.81-2.34-2.82-4.68-.01-2.43,1.37-4.1,2.94-5.03.68-.4,1.41-.68,2.15-.87v-1.18c0-1.41,1.14-2.55,2.55-2.55s2.55,1.14,2.55,2.55h.02ZM236.62,710.64c1.39,1.89.99,4.54-.9,5.94l-13.44,9.91c-2.48,1.83-5.48,2.81-8.57,2.81h-34.02c-1.88,0-3.4-1.52-3.4-3.4v-6.8c0-1.88,1.52-3.4,3.4-3.4h3.91l4.77-3.82c2.41-1.93,5.41-2.97,8.5-2.97h16.81c1.88,0,3.4,1.52,3.4,3.4s-1.52,3.4-3.4,3.4h-8.5c-.93,0-1.7.76-1.7,1.7s.76,1.7,1.7,1.7h12.81l12.71-9.37c1.89-1.39,4.54-.99,5.94.9ZM196.84,715.71h-.1.1Z" style="fill: #fff;"/>
</svg>