<svg width="180" height="150" viewBox="0 0 73 33" fill="none" xmlns="http://www.w3.org/2000/svg">
<g clip-path="url(#clip0_2795_2943)">
<path d="M52.8173 7.68008C52.2516 8.00758 51.8016 8.46993 51.4737 9.06712C51.1459 9.66432 50.9851 10.3322 50.9723 11.0835C50.9723 11.8348 51.1394 12.5026 51.4673 13.0934C51.7951 13.6842 52.2387 14.1401 52.8109 14.474C53.3766 14.8079 54.013 14.9749 54.7137 14.9749C55.5623 14.9749 56.2952 14.7694 56.9059 14.3713C57.523 13.9667 57.9666 13.408 58.243 12.676H57.343C57.1244 13.1833 56.7902 13.5814 56.3402 13.8704C55.8902 14.1594 55.3502 14.3006 54.7137 14.3006C54.148 14.3006 53.6466 14.1722 53.1966 13.9089C52.7466 13.6456 52.3994 13.2732 52.1423 12.7852C51.8852 12.2971 51.7566 11.7256 51.7566 11.077C51.7566 10.4285 51.8852 9.86339 52.1423 9.36893C52.393 8.8809 52.7466 8.50203 53.1966 8.23875C53.6466 7.97547 54.1544 7.84704 54.7137 7.84704C55.3502 7.84704 55.8902 7.99474 56.3402 8.2837C56.7902 8.57267 57.1244 8.97722 57.343 9.49736H58.243C57.9666 8.76532 57.523 8.1938 56.9123 7.78925C56.308 7.3847 55.5752 7.17921 54.7202 7.17921C54.0194 7.17921 53.3894 7.34617 52.8173 7.68008Z" fill="black"></path>
<path d="M10.6393 7.90483V7.2691H6.50577V14.9107H7.27077V11.3917H10.1186V10.756H7.27077V7.90483H10.6393Z" fill="black"></path>
<path d="M15.6215 14.9107V7.2691H14.8565V14.9107H15.6215Z" fill="black"></path>
<path d="M26.0808 14.9107H25.3158L21.0794 8.48276V14.9107H20.3144V7.2691H21.0794L25.3158 13.6842V7.2691H26.0808V14.9107Z" fill="black"></path>
<path fill-rule="evenodd" clip-rule="evenodd" d="M31.7315 13.0934H35.2094L35.878 14.9107H36.688L33.9108 7.36545H33.043L30.253 14.9107H31.063L31.7315 13.0934ZM33.4737 8.32867L34.978 12.4641H31.963L33.4737 8.32867Z" fill="black"></path>
<path d="M46.6394 14.9107H45.8744L41.638 8.48276V14.9107H40.8666V7.2691H41.638L45.8744 13.6842V7.2691H46.6394V14.9107Z" fill="black"></path>
<path d="M63.4952 7.892V10.7431H66.3944V11.3789H63.4952V14.275H66.7223V14.9107H62.7237V7.25627H66.7159V7.892H63.4952Z" fill="black"></path>
<path d="M14.9144 25.7373V17.993H13.1658L10.6972 23.7531L8.22863 17.993H6.46077V25.7373H8.01648V20.7029L10.1058 25.7373H11.2822L13.3586 20.7029V25.7373H14.9144Z" fill="black"></path>
<path fill-rule="evenodd" clip-rule="evenodd" d="M21.2015 24.2604H18.1158L17.6079 25.7373H15.9751L18.7651 17.9802H20.5779L23.3551 25.7373H21.7094L21.2015 24.2604ZM19.6522 19.7782L20.775 23.0146H18.5272L19.6522 19.7782Z" fill="black"></path>
<path d="M29.0637 19.5791C29.3722 19.7525 29.6165 19.9965 29.7965 20.324V20.3176H31.5772C31.333 19.547 30.8894 18.9498 30.2465 18.526C29.6037 18.1022 28.8451 17.8903 27.9708 17.8903C27.2251 17.8903 26.5565 18.0637 25.9522 18.3976C25.3479 18.7315 24.8787 19.2003 24.5315 19.8039C24.1908 20.4075 24.0172 21.0882 24.0172 21.8523C24.0172 22.6165 24.1844 23.2972 24.5315 23.8944C24.8722 24.498 25.3479 24.9668 25.9522 25.3007C26.5565 25.641 27.2315 25.808 27.9772 25.808C28.6458 25.808 29.2501 25.6667 29.7837 25.3906C30.3237 25.1144 30.7608 24.742 31.1015 24.2861C31.4422 23.8301 31.6672 23.3293 31.7701 22.7899V21.4349H27.5722V22.6101H30.2401C30.118 23.1752 29.8737 23.6118 29.4944 23.9265C29.1215 24.2411 28.6329 24.3952 28.0415 24.3952C27.5594 24.3952 27.1351 24.2925 26.7751 24.087C26.4151 23.8815 26.1322 23.5861 25.9265 23.2008C25.7208 22.8156 25.6179 22.366 25.6179 21.8459C25.6179 21.345 25.7208 20.902 25.9201 20.5167C26.1258 20.1314 26.4022 19.836 26.7558 19.6305C27.1094 19.425 27.5208 19.3223 27.9772 19.3223C28.3887 19.3223 28.7551 19.4122 29.0637 19.5791Z" fill="black"></path>
<path d="M39.5551 25.7373H37.9994L34.4765 20.4203V25.7373H32.9208V17.9802H34.4765L37.9994 23.3036V17.9802H39.5551V25.7373Z" fill="black"></path>
<path fill-rule="evenodd" clip-rule="evenodd" d="M42.7566 24.2604H45.8423L46.3501 25.7373H47.9959L45.2187 17.9802H43.4058L40.6158 25.7373H42.2487L42.7566 24.2604ZM44.3058 19.7846L45.4244 23.021H43.1808L44.3058 19.7846Z" fill="black"></path>
<path d="M54.3216 17.993V19.2452H52.258V25.7373H50.7023V19.2452H48.6387V17.993H54.3216Z" fill="black"></path>
<path d="M57.0087 21.1845V19.2452H59.953V17.9802H55.453V25.7373H59.953V24.4723H57.0087V22.4174H59.6187V21.1845H57.0087Z" fill="black"></path>
<path d="M62.5759 25.5383C62.1452 25.352 61.798 25.0888 61.5473 24.742C61.2966 24.3952 61.168 23.9843 61.1616 23.5091H62.8266C62.8459 23.8301 62.9616 24.0806 63.1673 24.2604C63.373 24.4466 63.6494 24.5365 64.003 24.5365C64.363 24.5365 64.6523 24.4466 64.858 24.2732C65.0637 24.0999 65.1666 23.8751 65.1666 23.5926C65.1666 23.3614 65.0959 23.1752 64.9544 23.0275C64.813 22.8798 64.6395 22.7642 64.4273 22.6807C64.2152 22.5972 63.9259 22.5009 63.553 22.3982C63.0516 22.2505 62.6402 22.1028 62.3252 21.9615C62.0102 21.8202 61.7402 21.6019 61.5152 21.3065C61.2902 21.0175 61.1744 20.6258 61.1744 20.1378C61.1744 19.6819 61.2901 19.2773 61.5216 18.937C61.753 18.5966 62.0744 18.3334 62.4859 18.1536C62.8973 17.9738 63.373 17.8839 63.9066 17.8839C64.7037 17.8839 65.353 18.0765 65.8544 18.4682C66.3559 18.8535 66.6323 19.3993 66.6837 20.0928H64.9737C64.9609 19.8296 64.8452 19.6048 64.633 19.4314C64.4209 19.2581 64.1444 19.1682 63.7973 19.1682C63.4952 19.1682 63.2509 19.2452 63.0709 19.3993C62.8909 19.5534 62.8009 19.7782 62.8009 20.0736C62.8009 20.2791 62.8716 20.4524 63.0066 20.5873C63.1416 20.7222 63.3152 20.8377 63.5144 20.9212C63.7202 21.0047 64.003 21.101 64.3759 21.2166C64.8773 21.3643 65.2887 21.512 65.6102 21.6597C65.9316 21.8074 66.2016 22.0321 66.433 22.3275C66.6645 22.6229 66.7802 23.0146 66.7802 23.4898C66.7802 23.9072 66.6709 24.2861 66.4587 24.6457C66.2466 24.9989 65.9316 25.2814 65.5137 25.4933C65.1023 25.7052 64.6073 25.808 64.0352 25.808C63.4952 25.8144 63.0066 25.7245 62.5759 25.5383Z" fill="black"></path>
<path fill-rule="evenodd" clip-rule="evenodd" d="M0 33V0H73V33H0ZM71.4015 31.3882V1.60537H1.60715V31.3882H71.4015Z" fill="black"></path>
</g>
<defs>
<clipPath id="clip0_2795_2943">
<rect width="73" height="33" fill="black"></rect>
</clipPath>
</defs>
</svg>