<svg width="180" height="100" version="1.1" viewBox="0 0 98 24" xmlns="http://www.w3.org/2000/svg">
<style type="text/css">.st25{fill:#E38638;}
.st1{fill:#000;}</style>
<g transform="translate(.36832 -.36307)">
<g fill="#e38506">
<polygon class="st25" transform="matrix(.023976 0 0 .023976 -17.972 -11.425)" points="4653.8 1477.2 4501 1477.2 4501 629.3 4348.4 629.3 4348.4 508.3 4806.3 508.3 4806.3 629.3 4653.8 629.3"></polygon>
<polygon class="st25" transform="matrix(.023976 0 0 .023976 -17.972 -11.425)" points="3973.3 912 4164.1 912 4164.1 1033.3 3973.4 1033.3 3973.3 1356.7 4278.6 1356.6 4278.6 1477.2 3820.8 1477.2 3820.8 508.3 4278.6 508.3 4278.6 629.3 3973.3 629.3"></polygon>
<polygon class="st25" transform="matrix(.023976 0 0 .023976 -17.972 -11.425)" points="3440.1 912 3631 912 3631 1033.3 3440.2 1033.3 3440.1 1356.7 3745.5 1356.6 3745.5 1477.2 3287.6 1477.2 3287.6 508.3 3745.5 508.3 3745.5 629.3 3440.1 629.3"></polygon>
</g>
<g transform="matrix(.023976 0 0 .023976 -17.972 -11.425)">
<path class="st25" d="m2748.2 508.3h288.5c112.5 0 168.8 55.3 168.8 166v238.9c0 84.5-29.2 138.1-87.5 160.5l102.8 403.5h-139.7l-96.7-391.4h-83.6v391.2l-152.7 0.1zm152.7 466.9h91.3c44 0 61.7-22.5 61.7-69.2l-0.1-211.9c0-46.7-17-64.9-61-64.9h-92v346z" fill="#e38506"></path>
<polygon class="st25" points="2531.1 1477.2 2378.3 1477.2 2378.3 629.2 2225.8 629.2 2225.8 508.3 2683.6 508.3 2683.6 629.2 2531.1 629.2" fill="#e38506"></polygon>
<path class="st25" d="m2028.6 750.4 0.5-66.7c0.3-38.7-19.9-54.9-63.8-55.3l-23.5-0.2c-42.8-0.4-63.4 18.5-63.7 57.2l-1.2 154.4c-0.2 18 2.7 33.4 11 39.7 8.2 6.4 21.8 14.7 40.5 24.7l142 67.5c31.2 15.6 53.3 27.7 66.3 36.4s23.1 19.1 30.3 31.3 10.7 35.4 10.4 69.7l-1.6 206.6c-0.9 109-61.9 162.9-183 161.8l-92.5-0.8c-120.1-1.1-179.7-61-178.8-179.9l0.2-64.2 151.1 1.4 0.3 66.4c-0.3 37.9 21.1 55.3 66.1 55.7l26.2 0.2c39.7 0.4 58.4-14.9 58.7-52.7l1.3-165.2c0.2-18-2.5-29.7-10.9-36.1-8.3-6.4-21.8-14.6-40.6-24.7l-142-70.1c-31.3-14.7-53.9-27.1-67.9-37.1-14-10.1-24.1-23-30.2-38.8-6.1-15.7-9.1-36.3-8.9-61.5l1.6-198.5c0.9-110.8 61.4-165.6 181.5-164.5l94 0.9c120.2 1.1 179.8 57 178.9 167.8l-0.6 76.3z" fill="#e38506"></path>
<polygon class="st1" points="1447.6 1102.9 1351.3 1468.6 1219.5 1468.6 1354.3 982.3 1219.4 506.8 1358.5 506.8 1447.6 861.8 1450.6 861.8 1539.5 506.8 1671.3 506.8 1543.9 982.3 1668.4 1468.6 1530.6 1468.6 1450.6 1102.9" fill="#fff"></polygon>
<polygon class="st1" points="1174.7 626.8 899.9 626.8 899.9 907.5 1088.1 907.5 1088 1030 899.9 1030 899.9 1468.7 749.6 1468.7 749.6 506.8 1141.4 506.8" fill="#fff"></polygon>
</g>
</g>
</svg>