<svg xmlns:xlink="http://www.w3.org/1999/xlink" version="1.1" id="Réteg_1" xmlns="http://www.w3.org/2000/svg" x="0px" y="0px" width="275" height="50.7px" viewBox="0 0 436.5 50.7" style="enable-background:new 0 0 436.5 50.7;" xml:space="preserve">
<style type="text/css">
.st024{fill:#48A05A;}
.st1{fill:#272939;}
</style>
<path class="st024" d="M197.4,49.4h13.5V15.7c-3.6,4.1-8.1,7-13.3,8.5L197.4,49.4z"></path>
<path class="st024" d="M197.4,14.1c5.2-2.2,9.7-5.4,13.5-9.7V0h-13.5V14.1z"></path>
<path class="st1" d="M150.9,24.7c0.7,0,1.3,0.2,2,0.4c0.5,0.2,1.1,0.7,1.6,1.1c0.4,0.5,0.7,1.1,0.9,1.8c0.2,0.7,0.4,1.3,0.2,2h-9.7
c0-0.7,0-1.4,0.4-2c0.2-0.7,0.5-1.3,1.1-1.8c0.5-0.5,1.1-0.9,1.6-1.1C149.7,24.9,150.2,24.7,150.9,24.7z M161.6,39
c-2,1.3-4.5,2-6.8,2c-4,0-6.8-1.1-7.9-4h19.3c0.2-1.6,0.4-3.1,0.4-4.7c0-9.9-5.6-16.2-15.1-16.2c-2.2,0-4.5,0.4-6.5,1.3
c-2,0.9-4,2.2-5.4,3.8c-1.6,1.6-2.7,3.6-3.6,5.6c-0.9,2.2-1.3,4.3-1.1,6.7c0,10.4,7.2,17.3,18.2,17.3c4.1,0.2,8.1-0.9,11.5-3.1
L161.6,39z"></path>
<path class="st024" d="M299.6,24.7c0.7,0,1.3,0.2,2,0.4c0.5,0.2,1.1,0.7,1.6,1.1c0.5,0.4,0.7,1.1,0.9,1.8c0.2,0.7,0.4,1.3,0.2,2h-9.5
c0-0.7,0-1.4,0.4-2c0.4-0.5,0.5-1.3,1.1-1.8s1.1-0.9,1.6-1.1C298.1,24.9,298.8,24.7,299.6,24.7z M310,39c-2,1.3-4.5,2-6.8,2
c-4,0-6.8-1.1-7.9-4h19.3c0.2-1.6,0.4-3.1,0.4-4.7c0-9.9-5.6-16.2-15.1-16.2c-2.2,0-4.5,0.4-6.5,1.3c-2,0.9-4,2.2-5.4,3.8
c-1.6,1.6-2.7,3.6-3.6,5.6c-0.9,2.2-1.3,4.3-1.1,6.7c0,10.4,7.2,17.3,18.2,17.3c4.1,0.2,8.1-0.9,11.5-3.1L310,39z"></path>
<path class="st1" d="M82,33.2c0-4.1-2.2-6.3-5-6.3c-2.9,0-5,2-5,6.3s2.2,6.5,5,6.5C79.8,39.7,82,37.5,82,33.2z M93.8,17v32.4h-9.2
L83,45.6c-1.3,1.4-2.7,2.7-4.3,3.4c-1.8,0.7-3.6,1.3-5.4,1.1c-7.6,0-13.9-5.9-13.9-17.1c0-10.4,6.1-17.1,13.9-17.1
c2,0,4,0.4,5.6,1.3c1.8,0.9,3.2,2.2,4.3,3.8l1.6-4.1h9V17z"></path>
<rect x="99.6" y="0" class="st1" width="12.4" height="49.4"></rect>
<rect x="117.8" y="0" class="st1" width="12.4" height="49.4"></rect>
<path class="st024" d="M247,28.1v21.1h-12.4V30.1c0-2-0.9-3.1-2.9-3.1c-0.5,0-0.9,0-1.4,0.2s-0.9,0.5-1.3,0.9
c-0.4,0.4-0.5,0.9-0.7,1.3c-0.2,0.5-0.2,0.9-0.2,1.4v18.4h-12.4V16.8h7.7l2.2,5.2c1.1-2,2.5-3.6,4.5-4.7c1.8-1.1,4-1.6,6.1-1.6
C243.2,15.9,247,20.6,247,28.1z"></path>
<path class="st024" d="M317.2,46.5l4-8.5c2.3,1.4,5,2.3,7.7,2.5c1.4,0,2.3-0.4,2.3-1.3s-1.8-1.6-4.3-2.7c-4.3-1.6-8.1-4.5-8.1-10.1
c0-6.8,5.6-10.6,12.4-10.6c4.1,0,8.1,1.1,11.7,3.2l-4,8.1c-2.2-1.1-4.3-1.6-6.7-1.8c-1.6,0-2.2,0.4-2.2,1.1s2,1.8,4.9,2.9
c5.4,2,8.3,5,8.3,9.9c0,6.8-5.2,10.8-13.2,10.8C325.7,50.3,321.2,49,317.2,46.5z"></path>
<path class="st024" d="M395.6,33c0-3.8-2-6.3-5.2-6.3s-5.2,2.3-5.2,6.3c0,3.8,2,6.5,5.2,6.5S395.6,37,395.6,33z M372.5,33
c0-10.1,7.4-17.1,17.8-17.1s17.8,7.2,17.8,17.1s-7.4,17.3-17.8,17.3C379.7,50.3,372.5,43.1,372.5,33z"></path>
<polygon class="st024" points="247.7,17 261,17 266.1,33.2 271.1,17 284.3,17 272,49.4 260.1,49.4 "></polygon>
<path class="st024" d="M436.3,18.2l0.2-0.4c-1.6-1.1-3.6-1.6-5.8-1.6c-2,0-4,0.5-5.6,1.4c-1.6,0.9-3.1,2.7-3.8,4.5l-1.6-5.4h-8.3v32.4
h12.4V33.5c0-0.7,0-1.6,0.4-2.3c0.4-0.7,0.7-1.4,1.3-2c0.5-0.5,1.3-1.1,2-1.3c0.7-0.2,1.4-0.4,2.3-0.4c1.1,0,2.2,0.2,3.1,0.5
L436.3,18.2z"></path>
<path class="st1" d="M192.6,37.2c-1.6,0.9-3.4,1.6-5.2,1.8c-0.4,0-0.7,0-0.9-0.2c-0.4-0.2-0.5-0.4-0.7-0.5c-0.2-0.2-0.4-0.5-0.5-0.7
c-0.2-0.4-0.2-0.5-0.2-0.9v-9.9c2.7-0.2,5.2-0.7,7.7-1.6v-9.2c-2.5,0.9-5,1.6-7.7,1.8V7.2h-12.6v10.6h-4.7v9.2h4.7v12.1
c0,7.4,4.1,11.5,11,11.5c3.2,0,6.3-0.7,9.2-2.2C192.6,48.5,192.6,37.2,192.6,37.2z"></path>
<path class="st024" d="M370.2,37.2c-1.6,0.9-3.4,1.6-5.2,1.8c-0.4,0-0.7,0-0.9-0.2c-0.4-0.2-0.5-0.4-0.7-0.5c-0.2-0.2-0.4-0.5-0.5-0.7
c-0.2-0.2-0.2-0.5-0.2-0.9v-9.9c2.7-0.2,5.2-0.7,7.7-1.6v-9.2c-2.5,0.9-5,1.6-7.7,1.8V7.2H350v10.6h-4.7v9.2h4.7v12.1
c0,7.4,4.1,11.5,11,11.5c3.2,0,6.3-0.7,9.2-2.2L370.2,37.2z"></path>
<polygon class="st1" points="50.4,3.5 43.8,23.6 34.2,7.2 31,7.2 21.2,23.6 14.8,3.5 0.5,3.5 16.9,49.4 24.1,49.4 32.6,28.5
41.1,49.4 48.3,49.4 64.7,3.5 "></polygon>
</svg>