<?xml version="1.0" encoding="UTF-8"?>
<svg id="Layer_53" xmlns="http://www.w3.org/2000/svg" xmlns:xlink="http://www.w3.org/1999/xlink" viewBox="0 0 1024 1024">
  <rect x="136.16" y="731.28" width="254.52" height="159.98" style="fill: #a6c626;"/>
  <path d="M97.65,744.36h63.02v131.44h-53.15c-5.45,0-9.87-4.42-9.87-9.87v-121.56h0Z" transform="translate(76.66 -8.55) rotate(5.39)" style="fill: #ffaa9c;"/>
  <path d="M363.48,753.72h63.02v131.44h-53.15c-5.45,0-9.87-4.42-9.87-9.87v-121.56h0Z" transform="translate(-148.28 89.82) rotate(-10.94)" style="fill: #ffaa9c;"/>
  <path d="M135.23,679.21h22.84c13.24,0,23.99,10.75,23.99,23.99v100.44c0,4.43-3.59,8.02-8.02,8.02h-69.29c-2.74,0-4.96-2.22-4.96-4.96v-92.04c0-19.56,15.88-35.44,35.44-35.44Z" transform="translate(112.31 -12.66) rotate(8.54)" style="fill: #a6c626;"/>
  <path d="M347.38,685.98h69.29c4.43,0,8.02,3.59,8.02,8.02v110.69c0,13.24-10.75,23.99-23.99,23.99h-21.48c-20.31,0-36.8-16.49-36.8-36.8v-100.94c0-2.74,2.22-4.96,4.96-4.96Z" transform="translate(903.11 1428.69) rotate(169.12)" style="fill: #a6c626;"/>
  <polyline points="130.77 679.56 185.67 656.41 250.48 649.83 298.34 653.77 336.58 657.9 383.76 679.56 404.45 692.73 376.64 773.82 146.04 760.54 130.77 681.87" style="fill: #a6c626;"/>
  <rect x="221.53" y="592.57" width="71.47" height="98.4" style="fill: #f9a293;"/>
  <path d="M293.02,603.07v23c-7.68,5.46-17.84,9.35-31.8,11.28-5.24.74-10.56.68-15.79-.27-10.01-1.8-17.74-4.59-23.9-8.4v-25.62h71.49Z" style="fill: #ef8c7b;"/>
  <path d="M273.45,624.32c-5.16,1.16-10.49,1.54-15.75,1.04-33.84-3.26-43.4-19.75-53.29-46.14-1.83-4.88-3.06-9.96-3.72-15.1l-9.27-72.52,133.48-10.95.91,69.28c.12,8.98-.8,17.97-2.97,26.74-5.76,23.37-16.13,40.17-49.38,47.64h0Z" style="fill: #ffab99;"/>
  <path d="M198.51,497.14c3.84-.13,6.38-3.45,7.51-4.56,8.5-8.27,38.88,17.83,64.35,20.01,33.59,2.88,71.06-15.77,77.03-42.11,3.37-14.92-5.57-31.84-17.12-40.64-22.97-17.47-66.16-10.27-101.79,24.11,3.07-15.1.81-19.9-1.77-21.53-8.02-5.07-33.06,11.78-39.25,34.08-.77,2.75-4.56,17.55,2.79,26.04.86.98,4.08,4.72,8.26,4.58v.02Z" style="fill: #131c38;"/>
  <path d="M190.38,484.2c-3.21,4.96-10.87,18.24-10.36,36.55.42,15.04,6.08,24.59,14.38,38.55,1.87,3.14,4.27,6.76,6.34,6.32,2.28-.49,2.94-5.78,3.23-8.15,1.7-14.37-2.19-46.9-4.42-63.76-3.06-3.17-6.12-6.33-9.18-9.5h0Z" style="fill: #131c38;"/>
  <path d="M328.8,490.03c3.16,3.5,10.87,13.01,12.17,27.02,1.06,11.51-2.82,19.28-8.48,30.64-1.28,2.56-2.97,5.51-4.76,5.34-1.96-.19-3.02-4.16-3.48-5.95-2.78-10.82-2.56-35.99-2.27-49.03,2.28-2.67,4.56-5.36,6.84-8.03h-.01Z" style="fill: #131c38;"/>
  <path d="M290.76,575.32c1.78-.15,3.23,1.38,3.03,3.15-1.21,10.07-11.33,18.5-24.26,19.56-12.94,1.06-24.3-5.63-27.13-15.35-.5-1.71.69-3.46,2.47-3.61l45.88-3.76h0Z" style="fill: #fff7f1;"/>
  <path d="M274.6,544.32l1.11,13.48c.15,1.85-1.22,3.47-3.08,3.62l-1.73.14" style="fill: none; stroke: #000; stroke-linecap: round; stroke-miterlimit: 10;"/>
  <ellipse cx="194.86" cy="563.57" rx="12.77" ry="24.29" transform="translate(-187.89 106.31) rotate(-20.86)" style="fill: #ffab99;"/>
  <ellipse cx="330.58" cy="550.17" rx="24.29" ry="12.77" transform="translate(-274.39 764.62) rotate(-78.52)" style="fill: #ffab99;"/>
  <path d="M201.72,563.4c-1.88-4.15-3.75-8.32-5.63-12.47-1.12-2.5-3.74-4.12-6.45-3.69h-.09c-2.79.49-5.1,2.68-5.94,5.63" style="fill: none; stroke: #f28472; stroke-linecap: round; stroke-miterlimit: 10;"/>
  <path d="M325.42,553.65c1.17-4.4,2.35-8.82,3.52-13.22.7-2.65,3.02-4.67,5.76-4.69h.09c2.83.02,5.46,1.8,6.77,4.57" style="fill: none; stroke: #f28472; stroke-linecap: round; stroke-miterlimit: 10;"/>
  <line x1="226.9" y1="525.41" x2="256.64" y2="522.97" style="fill: none; stroke: #111; stroke-linecap: round; stroke-miterlimit: 10; stroke-width: 5px;"/>
  <line x1="284.39" y1="520.7" x2="314.13" y2="518.26" style="fill: none; stroke: #111; stroke-linecap: round; stroke-miterlimit: 10; stroke-width: 5px;"/>
  <circle cx="242.6" cy="543.34" r="6.61"/>
  <circle cx="297.94" cy="538.8" r="6.61"/>
  <path d="M221.01,652.38c9.03,12.56,22.74,26.03,31.78,38.59-9.23,9.23-20.23,17.95-32.36,26.79-11.58-21.01-23.17-42.02-34.75-63.03l35.34-2.36Z" style="fill: #f8ffff;"/>
  <path d="M291.99,653.37c-10.19,12.42-22.47,24.8-33.38,37.6,9.23,9.23,21.38,17.2,33.96,27.78,11.58-21.01,23.17-42.02,34.75-63.03l-35.34-2.36Z" style="fill: #f8ffff;"/>
  <path d="M320.79,874.77c-.24-6.76-6.58-12.81-14.55-13.88-26.33-3.53-56.13-7.68-64.77-8.55-47.78-4.78-79.74-9.16-127.01-11.71-1.52-.08-3.05.03-4.48.33-12.39,2.64-14.71,7.39-17.26,17.7-2.98,12.08,4.94,23.38,8.12,26.06,11.05,9.33,46.85,10.2,71.17,10.46,30.27.32,66.92-.13,138.37-8.57,6.54-.77,10.64-5.93,10.43-11.64,0-.07,0-.14,0-.21Z" style="fill: #ffaa9c;"/>
  <path d="M298.14,886.21c3.69,2.86,9.44,3.58,18.32,6.6,6.84,2.32,7.57,4.28,12.52,5.51,4.03,1,6.02,1.09,10.89-1.61l8.68-3.49c4.09-1.64,8.59-1.97,12.88-.95,5.56,1.32,10.39,2.78,14.9,4.51,1.78.68,3.79.05,4.86-1.52,3.02-4.46,4.79-7.49,7.69-11.81,1.27-1.89.74-4.46-1.18-5.7-6.45-4.16-14.37-9.14-20.16-13.06-.35-.24-.05-.88.32-.66,8.74,5.19,11.72,6.7,21.77,12.62,1.65.12,3.2-.6,3.91-1.85.99-1.75.25-4.41-2.03-5.67-16.37-10.03-23.89-13.13-41.51-18.56-2.2.24-5.82.86-9.73,2.79-15.04,7.44-16.18,7.37-27.45,8.78-4.69.58-7.95-2.15-11.31-.59-7.71,3.59-10.7,18.96-3.35,24.65Z" style="fill: #ffaa9c;"/>
  <path d="M354.15,785.62h-.79v-3.59c0-1.06-.86-1.92-1.92-1.92s-1.92.86-1.92,1.92v3.59h-.8c-.88,0-1.6.71-1.6,1.6v29.57c0,.97.78,1.75,1.75,1.75h.65v3.18c0,1.06.86,1.92,1.92,1.92s1.92-.86,1.92-1.92v-3.18h.63c.97,0,1.75-.78,1.75-1.75v-29.57c0-.88-.71-1.6-1.6-1.6Z" style="fill: #a6c626;"/>
  <path d="M384.72,743.2h-.79v-3.59c0-1.06-.86-1.92-1.92-1.92s-1.92.86-1.92,1.92v3.59h-.8c-.88,0-1.6.71-1.6,1.6v29.57c0,.97.78,1.75,1.75,1.75h.65v3.18c0,1.06.86,1.92,1.92,1.92s1.92-.86,1.92-1.92v-3.18h.63c.97,0,1.75-.78,1.75-1.75v-29.57c0-.88-.71-1.6-1.6-1.6Z" style="fill: #a6c626;"/>
  <path d="M489.64,899.36h-179.17c-7.13,0-12.18-6.91-9.94-13.62l41.19-123.81c1.41-4.25,5.42-7.12,9.94-7.12h179.17c7.13,0,12.18,6.91,9.94,13.62l-41.19,123.81c-1.41,4.25-5.42,7.12-9.94,7.12Z" style="fill: #192f35;"/>
  <line x1="246.6" y1="892.35" x2="314.86" y2="892.35" style="fill: none; stroke: #192f35; stroke-linecap: round; stroke-miterlimit: 10; stroke-width: 15px;"/>
  <image width="1024" height="1024" transform="translate(407.14 799.55) rotate(2.01) scale(.04)" xlink:href="../../../../../../Downloads/Techysquad-Logo-01.png"/>
  <rect x="119.23" y="127.93" width="324.44" height="222.13" rx="12" ry="12" style="fill: #192f35;"/>
  <rect x="497.35" y="238.99" width="324.44" height="222.13" rx="12" ry="12" style="fill: #efefef;"/>
  <rect x="620.33" y="513.78" width="324.44" height="222.13" rx="12" ry="12" style="fill: #ea550f;"/>
  <path d="M128.09,127.93h306.7c4.89,0,8.87,3.97,8.87,8.87v16.67H119.23v-16.67c0-4.89,3.97-8.87,8.87-8.87Z" style="fill: #253c3f;"/>
  <path d="M48,208.02h204.39c4.89,0,8.87,3.97,8.87,8.87v53.08H39.13v-53.08c0-4.89,3.97-8.87,8.87-8.87Z" transform="translate(-88.8 389.19) rotate(-90)" style="fill: #435b60;"/>
  <path d="M506.22,238.99h306.7c4.89,0,8.87,3.97,8.87,8.87v16.67h-324.44v-16.67c0-4.89,3.97-8.87,8.87-8.87Z"/>
  <path d="M426.13,319.09h204.39c4.89,0,8.87,3.97,8.87,8.87v53.08h-222.13v-53.08c0-4.89,3.97-8.87,8.87-8.87Z" transform="translate(178.27 878.38) rotate(-90)" style="fill: #333;"/>
  <path d="M629.2,513.78h306.7c4.89,0,8.87,3.97,8.87,8.87v16.67h-324.44v-16.67c0-4.89,3.97-8.87,8.87-8.87Z" style="fill: #c13d08;"/>
  <path d="M549.11,593.87h204.39c4.89,0,8.87,3.97,8.87,8.87v53.08h-222.13v-53.08c0-4.89,3.97-8.87,8.87-8.87Z" transform="translate(26.46 1276.15) rotate(-90)" style="fill: #ff7139;"/>
  <rect x="193" y="166.26" width="72" height="46.3" rx="2.89" ry="2.89" style="fill: #3b666b;"/>
  <rect x="127.62" y="163.94" width="45.16" height="12.19" rx="2.89" ry="2.89" style="fill: #253c3f;"/>
  <rect x="127.62" y="188.94" width="45.16" height="12.19" rx="2.89" ry="2.89" style="fill: #253c3f;"/>
  <rect x="127.62" y="211.94" width="45.16" height="12.19" rx="2.89" ry="2.89" style="fill: #253c3f;"/>
  <rect x="127.62" y="236.94" width="45.16" height="12.19" rx="2.89" ry="2.89" style="fill: #253c3f;"/>
  <rect x="127.62" y="261.94" width="45.16" height="12.19" rx="2.89" ry="2.89" style="fill: #253c3f;"/>
  <rect x="505.75" y="280.67" width="45.16" height="12.19" rx="2.89" ry="2.89"/>
  <rect x="505.75" y="305.67" width="45.16" height="12.19" rx="2.89" ry="2.89"/>
  <rect x="505.75" y="328.67" width="45.16" height="12.19" rx="2.89" ry="2.89"/>
  <rect x="505.75" y="353.67" width="45.16" height="12.19" rx="2.89" ry="2.89"/>
  <rect x="505.75" y="378.67" width="45.16" height="12.19" rx="2.89" ry="2.89"/>
  <rect x="628.73" y="555.31" width="45.16" height="12.19" rx="2.89" ry="2.89" style="fill: #c13d08;"/>
  <rect x="628.73" y="580.31" width="45.16" height="12.19" rx="2.89" ry="2.89" style="fill: #c13d08;"/>
  <rect x="628.73" y="603.31" width="45.16" height="12.19" rx="2.89" ry="2.89" style="fill: #c13d08;"/>
  <rect x="628.73" y="628.31" width="45.16" height="12.19" rx="2.89" ry="2.89" style="fill: #c13d08;"/>
  <rect x="628.73" y="653.31" width="45.16" height="12.19" rx="2.89" ry="2.89" style="fill: #c13d08;"/>
  <rect x="193" y="224.11" width="156.43" height="85.51" rx="2.89" ry="2.89" style="fill: #3b666b;"/>
  <path d="M195.89,321.47h233.19c1.6,0,2.89,1.3,2.89,2.89v25.7h-238.98v-25.7c0-1.6,1.3-2.89,2.89-2.89Z" style="fill: #3b666b;"/>
  <rect x="361.76" y="224.11" width="70.22" height="85.51" rx="2.89" ry="2.89" style="fill: #3b666b;"/>
  <rect x="277.38" y="166.26" width="72.04" height="46.3" rx="2.89" ry="2.89" style="fill: #3b666b;"/>
  <rect x="361.76" y="166.26" width="70.22" height="46.3" rx="2.89" ry="2.89" style="fill: #3b666b;"/>
  <rect x="570.62" y="277.32" width="72" height="46.3" rx="2.89" ry="2.89" style="fill: #c6c6c6;"/>
  <rect x="570.62" y="335.17" width="156.43" height="85.51" rx="2.89" ry="2.89" style="fill: #c6c6c6;"/>
  <path d="M573.51,432.53h233.19c1.6,0,2.89,1.3,2.89,2.89v25.7h-238.98v-25.7c0-1.6,1.3-2.89,2.89-2.89Z" style="fill: #c6c6c6;"/>
  <rect x="739.38" y="335.17" width="70.22" height="85.51" rx="2.89" ry="2.89" style="fill: #c6c6c6;"/>
  <rect x="655" y="277.32" width="72.04" height="46.3" rx="2.89" ry="2.89" style="fill: #c6c6c6;"/>
  <rect x="739.38" y="277.32" width="70.22" height="46.3" rx="2.89" ry="2.89" style="fill: #c6c6c6;"/>
  <rect x="694.23" y="552.1" width="72" height="46.3" rx="2.89" ry="2.89" style="fill: #ff6a36;"/>
  <rect x="694.23" y="609.96" width="156.43" height="85.51" rx="2.89" ry="2.89" style="fill: #ff6a36;"/>
  <path d="M697.13,707.32h233.19c1.6,0,2.89,1.3,2.89,2.89v25.7h-238.98v-25.7c0-1.6,1.3-2.89,2.89-2.89Z" style="fill: #ff6a36;"/>
  <rect x="863" y="609.96" width="70.22" height="85.51" rx="2.89" ry="2.89" style="fill: #ff6a36;"/>
  <rect x="778.61" y="552.1" width="72.04" height="46.3" rx="2.89" ry="2.89" style="fill: #ff6a36;"/>
  <rect x="863" y="552.1" width="70.22" height="46.3" rx="2.89" ry="2.89" style="fill: #ff6a36;"/>
  <line x1="60.83" y1="898.36" x2="962.62" y2="898.36" style="fill: none; stroke: #0a0a0a; stroke-linecap: round; stroke-miterlimit: 10; stroke-width: 6px;"/>
</svg>