<?xml version="1.0" encoding="UTF-8"?>
<svg id="Layer_52" xmlns="http://www.w3.org/2000/svg" viewBox="0 0 1024 1024">
  <rect x="162.21" y="189.19" width="701.54" height="631.15" rx="13.53" ry="13.53" style="fill: #fff;"/>
  <rect x="314.87" y="292.62" width="68.22" height="68.22" rx="3.51" ry="3.51" style="fill: none; stroke: #a6c626; stroke-miterlimit: 10; stroke-width: 2px;"/>
  <rect x="203.43" y="150.3" width="701.54" height="631.15" rx="10.98" ry="10.98" style="fill: none; stroke: #a6c626; stroke-miterlimit: 10; stroke-width: 4px;"/>
  <path d="M374.23,326.85h9.85c4.1,0,7.92,2.08,10.15,5.52l12.6,19.46c2.23,3.44,6.05,5.52,10.15,5.52h8.41" style="fill: none; stroke: #ccc; stroke-miterlimit: 10; stroke-width: 2px;"/>
  <path d="M464.23,350.85h9.85c4.1,0,7.92,2.08,10.15,5.52l12.6,19.46c2.23,3.44,6.05,5.52,10.15,5.52h8.41" style="fill: none; stroke: #ccc; stroke-miterlimit: 10; stroke-width: 2px;"/>
  <rect x="668.26" y="299.57" width="292.88" height="68.43" rx="14.73" ry="14.73" style="fill: #192f35;"/>
  <rect x="135.47" y="504.68" width="168.64" height="24.87" rx="8.17" ry="8.17" style="fill: #192f35;"/>
  <rect x="219.3" y="236.95" width="129.51" height="24.87" rx="2.51" ry="2.51" style="fill: #ff9064;"/>
  <rect x="369.3" y="236.95" width="129.51" height="24.87" rx="2.51" ry="2.51" style="fill: none; stroke: #ea550f; stroke-linecap: round; stroke-linejoin: round; stroke-width: 4px;"/>
  <rect x="496.85" y="294.84" width="59.75" height="30.77" rx="2.06" ry="2.06" style="fill: #e8e8e8;"/>
  <rect x="509.26" y="287.8" width="59.75" height="30.77" rx="2.07" ry="2.07" style="fill: none; stroke: #192f35; stroke-miterlimit: 10;"/>
  <rect x="582.85" y="294.84" width="59.75" height="30.77" rx="2.06" ry="2.06" style="fill: #e8e8e8;"/>
  <rect x="595.26" y="287.8" width="59.75" height="30.77" rx="2.07" ry="2.07" style="fill: none; stroke: #192f35; stroke-miterlimit: 10;"/>
  <rect x="519.3" y="236.95" width="129.51" height="24.87" rx="2.51" ry="2.51" style="fill: #ff9064;"/>
  <rect x="669.3" y="236.95" width="129.51" height="24.87" rx="2.51" ry="2.51" style="fill: #a6c626;"/>
  <rect x="297.53" y="434.19" width="227.62" height="54.78" rx="8.17" ry="8.17" style="fill: #f4f4f4;"/>
  <rect x="457.51" y="507.24" width="30.33" height="30.33" rx="3.51" ry="3.51" style="fill: #ea550f;"/>
  <rect x="320.8" y="298.79" width="56.11" height="56.11" rx="3.51" ry="3.51" style="fill: #ea550f;"/>
  <rect x="417.31" y="325.99" width="56.11" height="56.11" rx="3.51" ry="3.51" style="fill: #a6c626;"/>
  <rect x="511.07" y="354.63" width="56.11" height="56.11" rx="3.51" ry="3.51" style="fill: #ea550f;"/>
  <rect x="489.17" y="537.57" width="30.33" height="30.33" rx="3.51" ry="3.51" style="fill: #a6c626;"/>
  <rect x="66.2" y="544" width="237.29" height="325.79" rx="8.35" ry="8.35" style="fill: #192f35;"/>
  <rect x="167.84" y="763.15" width="115.3" height="158.3" rx="8.35" ry="8.35" style="fill: none; stroke: #a6c626; stroke-miterlimit: 10; stroke-width: 3px;"/>
  <rect x="620.28" y="465.87" width="217.79" height="277.79" rx="8.35" ry="8.35" style="fill: #192f35;"/>
  <path d="M646.61,439.37h165.12c14.53,0,26.33,11.8,26.33,26.33v15.09c0,1.66-1.34,3-3,3h-211.79c-1.66,0-3-1.34-3-3v-15.09c0-14.53,11.8-26.33,26.33-26.33Z" style="fill: #ea550f;"/>
  <rect x="324.11" y="580.68" width="277.36" height="176.85" rx="12" ry="12" style="fill: #f4f4f4;"/>
  <polyline points="346.9 674.08 390.15 634.36 411.33 661.72 443.99 634.36 474 674.08 519.9 645.84 532.44 612.29 575.15 602.58" style="fill: none; stroke: #ea550f; stroke-linecap: round; stroke-linejoin: round; stroke-width: 4px;"/>
  <circle cx="347.08" cy="674.08" r="7.83" style="fill: #b2d130; stroke: #ea550f; stroke-linecap: round; stroke-linejoin: round; stroke-width: 5px;"/>
  <circle cx="411.04" cy="661.12" r="7.83" style="fill: #b2d130; stroke: #ea550f; stroke-linecap: round; stroke-linejoin: round; stroke-width: 5px;"/>
  <circle cx="473.27" cy="671.49" r="7.83" style="fill: #b2d130; stroke: #ea550f; stroke-linecap: round; stroke-linejoin: round; stroke-width: 5px;"/>
  <circle cx="444.57" cy="635.35" r="7.83" style="fill: #b2d130; stroke: #ea550f; stroke-linecap: round; stroke-linejoin: round; stroke-width: 5px;"/>
  <circle cx="399.04" cy="341.62" r="7.83" style="fill: #b2d130; stroke: #ea550f; stroke-linecap: round; stroke-linejoin: round; stroke-width: 4px;"/>
  <circle cx="492.25" cy="368" r="7.83" style="fill: #b2d130; stroke: #ea550f; stroke-linecap: round; stroke-linejoin: round; stroke-width: 4px;"/>
  <circle cx="389.84" cy="635.35" r="7.83" style="fill: #b2d130; stroke: #ea550f; stroke-linecap: round; stroke-linejoin: round; stroke-width: 5px;"/>
  <circle cx="518.1" cy="645.45" r="7.83" style="fill: #b2d130; stroke: #ea550f; stroke-linecap: round; stroke-linejoin: round; stroke-width: 5px;"/>
  <circle cx="575.15" cy="602.58" r="7.83" style="fill: #b2d130; stroke: #ea550f; stroke-linecap: round; stroke-linejoin: round; stroke-width: 5px;"/>
  <circle cx="533.76" cy="614.45" r="7.83" style="fill: #b2d130; stroke: #ea550f; stroke-linecap: round; stroke-linejoin: round; stroke-width: 5px;"/>
  <line x1="503.43" y1="698.77" x2="582.98" y2="698.77" style="fill: none; stroke: #bcbcbc; stroke-linecap: round; stroke-linejoin: round; stroke-width: 3px;"/>
  <line x1="102.06" y1="594.75" x2="231.26" y2="594.75" style="fill: none; stroke: #bcbcbc; stroke-linecap: round; stroke-linejoin: round; stroke-width: 3px;"/>
  <line x1="102.06" y1="688.75" x2="231.26" y2="688.75" style="fill: none; stroke: #ea550f; stroke-linecap: round; stroke-linejoin: round; stroke-width: 4px;"/>
  <line x1="102.06" y1="615.17" x2="168.87" y2="615.17" style="fill: none; stroke: #bcbcbc; stroke-linecap: round; stroke-linejoin: round; stroke-width: 3px;"/>
  <line x1="148.69" y1="638.59" x2="215.49" y2="638.59" style="fill: none; stroke: #bcbcbc; stroke-linecap: round; stroke-linejoin: round; stroke-width: 3px;"/>
  <line x1="100.69" y1="713.59" x2="167.49" y2="713.59" style="fill: none; stroke: #bcbcbc; stroke-linecap: round; stroke-linejoin: round; stroke-width: 3px;"/>
  <line x1="102.06" y1="638.59" x2="139.04" y2="638.59" style="fill: none; stroke: #ea550f; stroke-linecap: round; stroke-linejoin: round; stroke-width: 4px;"/>
  <line x1="102.06" y1="663.59" x2="139.04" y2="663.59" style="fill: none; stroke: #a6c626; stroke-linecap: round; stroke-linejoin: round; stroke-width: 3px;"/>
  <line x1="152.06" y1="663.59" x2="189.04" y2="663.59" style="fill: none; stroke: #ea550f; stroke-linecap: round; stroke-linejoin: round; stroke-width: 4px;"/>
  <line x1="182" y1="787.79" x2="205" y2="787.79" style="fill: none; stroke: #ea550f; stroke-linecap: round; stroke-linejoin: round; stroke-width: 4px;"/>
  <line x1="215.89" y1="787.79" x2="268.98" y2="787.79" style="fill: none; stroke: #bcbcbc; stroke-linecap: round; stroke-linejoin: round; stroke-width: 3px;"/>
  <line x1="182" y1="810.79" x2="205" y2="810.79" style="fill: none; stroke: #ea550f; stroke-linecap: round; stroke-linejoin: round; stroke-width: 4px;"/>
  <line x1="215.89" y1="810.79" x2="268.98" y2="810.79" style="fill: none; stroke: #bcbcbc; stroke-linecap: round; stroke-linejoin: round; stroke-width: 3px;"/>
  <line x1="182" y1="833.79" x2="205" y2="833.79" style="fill: none; stroke: #ea550f; stroke-linecap: round; stroke-linejoin: round; stroke-width: 4px;"/>
  <line x1="215.89" y1="833.79" x2="268.98" y2="833.79" style="fill: none; stroke: #bcbcbc; stroke-linecap: round; stroke-linejoin: round; stroke-width: 3px;"/>
  <line x1="503.43" y1="708.77" x2="582.98" y2="708.77" style="fill: none; stroke: #bcbcbc; stroke-linecap: round; stroke-linejoin: round; stroke-width: 3px;"/>
  <line x1="503.43" y1="718.77" x2="582.98" y2="718.77" style="fill: none; stroke: #bcbcbc; stroke-linecap: round; stroke-linejoin: round; stroke-width: 3px;"/>
  <line x1="503.43" y1="728.77" x2="582.98" y2="728.77" style="fill: none; stroke: #bcbcbc; stroke-linecap: round; stroke-linejoin: round; stroke-width: 3px;"/>
  <line x1="503.43" y1="738.77" x2="582.98" y2="738.77" style="fill: none; stroke: #bcbcbc; stroke-linecap: round; stroke-linejoin: round; stroke-width: 3px;"/>
  <circle cx="754.72" cy="463.19" r="5.68" style="fill: #fff;"/>
  <circle cx="774.72" cy="463.19" r="5.68" style="fill: #fff;"/>
  <circle cx="792.69" cy="463.19" r="5.68" style="fill: #fff;"/>
  <circle cx="812.69" cy="463.19" r="5.68" style="fill: #fff;"/>
  <rect x="642.87" y="541.04" width="94.13" height="14.81" style="fill: #fff;"/>
  <rect x="642.87" y="514.04" width="94.13" height="14.81" style="fill: #fff;"/>
  <rect x="642.87" y="569.04" width="53.28" height="14.81" style="fill: #fff;"/>
  <rect x="642.87" y="652.04" width="73.45" height="14.81" style="fill: #a6c626;"/>
  <text transform="translate(307.96 467.82) scale(.71 1)" style="fill: #192f35; font-family: ArialMT, Arial; font-size: 16px;"><tspan x="0" y="0">001010100100</tspan><tspan x="106.78" y="0" style="letter-spacing: -.07em;">11</tspan><tspan x="122.2" y="0">1000</tspan><tspan x="157.8" y="0" style="letter-spacing: -.07em;">1</tspan><tspan x="165.51" y="0">1010100</tspan><tspan x="227.8" y="0" style="letter-spacing: -.07em;">1</tspan><tspan x="235.51" y="0">101001</tspan></text>
  <path d="M238.94,311.03c6.45,0,11.68,5.23,11.68,11.68s-5.23,11.68-11.68,11.68-11.68-5.23-11.68-11.68" style="fill: none; stroke: #f4f4f4; stroke-miterlimit: 10; stroke-width: 4px;"/>
  <path d="M227.26,322.71c0-6.45,5.23-11.68,11.68-11.68" style="fill: none; stroke: #ea550f; stroke-miterlimit: 10; stroke-width: 4px;"/>
  <path d="M271.94,334.39c-6.45,0-11.68-5.23-11.68-11.68s5.23-11.68,11.68-11.68,11.68,5.23,11.68,11.68" style="fill: none; stroke: #f4f4f4; stroke-miterlimit: 10; stroke-width: 4px;"/>
  <path d="M283.62,322.71c0,6.45-5.23,11.68-11.68,11.68" style="fill: none; stroke: #a6c626; stroke-miterlimit: 10; stroke-width: 4px;"/>
  <text transform="translate(331.19 331.62)" style="fill: #fff; font-family: Arial-BoldMT, Arial; font-size: 16px; font-weight: 700;"><tspan x="0" y="0">PH</tspan><tspan x="22.23" y="0" style="letter-spacing: -.02em;">P</tspan></text>
  <text transform="translate(522.17 387.47)" style="fill: #fff; font-family: Arial-BoldMT, Arial; font-size: 16px; font-weight: 700;"><tspan x="0" y="0">C++</tspan></text>
  <text transform="translate(433.63 360.17)" style="fill: #fff; font-family: Arial-BoldMT, Arial; font-size: 16px; font-weight: 700;"><tspan x="0" y="0">JS</tspan></text>
  <rect x="692.49" y="320.98" width="243.57" height="24" style="fill: #fff;"/>
  <rect x="692.49" y="320.98" width="100.2" height="24" style="fill: #ea550f;"/>
</svg>