<?xml version="1.0" encoding="UTF-8"?>
<svg id="Layer_51" xmlns="http://www.w3.org/2000/svg" xmlns:xlink="http://www.w3.org/1999/xlink" viewBox="0 0 1024 1024">
  <path d="M538.92,621.85c-4.43-7.02-4.99-19.36.16-28.61,1.25-2.25,2.58-4.01,3.55-5.07,4.24-4.63,9.8-6.75,20.06-14.47,23.27-17.53,33.52-38.94,39.39-37.1,2.99.94,4.09,7.32,4.22,11.55.06,2-.21,3.71-.48,4.9,0,0-.13.57-.29,1.13-1.02,3.53-5.48,9.27-5.93,9.84,17.14-6.06,22.7-6.18,23.73-4.41,2.52,5.91-3.86,6.2-2.13,10.29,1.18,2.77,4.07,2.23,4.93,4.97,1.01,3.24-2.71,5.09-2.33,9.6.29,3.47,3.7,3.38,3.7,6.31,0,4.71-7.02,6.7-6.53,10.79.29,2.36,2.35,2.59,2.83,4.46,1.17,4.54-8.79,11.74-15.93,15.61-20.18,10.93-58.27,17.14-68.95.21Z" style="fill: #ffab99;"/>
  <path d="M342.03,508.66h23.56c25.76,0,46.67,20.91,46.67,46.67v205.99c0,6.62-5.38,12-12,12h-58.23c-6.62,0-12-5.38-12-12v-240.66c0-6.62,5.38-12,12-12Z" transform="translate(-280.42 288.74) rotate(-31.53)" style="fill: #c13600;"/>
  <path d="M537.75,593.15l29.45,38.22c3.39,4.4,2.7,10.7-1.58,14.26l-139.74,116.15c-5.53,4.26-13.54,3.22-17.81-2.31l-12.3-15.96c-16.58-21.51-12.54-52.68,8.97-69.26l118.89-83.26c4.53-3.17,10.74-2.22,14.12,2.16Z" style="fill: #c13600;"/>
  <rect x="209.08" y="487.1" width="76.36" height="105.13" style="fill: #f9a293;"/>
  <path d="M285.47,498.33v24.58c-8.21,5.84-19.06,9.99-33.97,12.06-5.6.79-11.29.72-16.87-.29-10.69-1.92-18.95-4.91-25.54-8.98v-27.37h76.38Z" style="fill: #ef8c7b;"/>
  <path d="M264.55,521.03c-5.51,1.24-11.21,1.64-16.83,1.11-36.16-3.49-46.37-21.1-56.94-49.3-1.96-5.21-3.27-10.64-3.98-16.13l-9.91-77.48,142.61-11.7.97,74.02c.13,9.59-.85,19.2-3.17,28.57-6.16,24.97-17.23,42.92-52.76,50.9v.02Z" style="fill: #ffab99;"/>
  <path d="M186.68,383.94c4.04-.14,6.72-3.64,7.91-4.8,8.95-8.71,40.95,18.78,67.78,21.08,35.38,3.03,74.86-16.61,81.14-44.36,3.55-15.72-5.87-33.54-18.04-42.81-24.19-18.4-69.69-10.82-107.23,25.39,3.23-15.9.85-20.97-1.86-22.67-8.45-5.34-34.82,12.41-41.34,35.9-.81,2.9-4.81,18.49,2.94,27.43.91,1.04,4.3,4.97,8.7,4.82v.02Z" style="fill: #131c38;"/>
  <path d="M175.8,371.32c-3.43,5.3-11.61,19.48-11.07,39.05.45,16.07,6.5,26.27,15.36,41.19,2,3.36,4.57,7.22,6.78,6.75,2.43-.52,3.15-6.18,3.45-8.71,1.81-15.35-2.34-50.11-4.72-68.13-3.27-3.38-6.54-6.77-9.81-10.15h0Z" style="fill: #131c38;"/>
  <path d="M323.7,377.55c3.38,3.74,11.61,13.9,13,28.87,1.14,12.29-3.01,20.6-9.06,32.74-1.37,2.73-3.17,5.89-5.08,5.71-2.09-.2-3.23-4.45-3.72-6.35-2.98-11.56-2.73-38.45-2.43-52.39,2.44-2.85,4.87-5.72,7.31-8.58h-.02Z" style="fill: #131c38;"/>
  <path d="M283.05,468.67c1.9-.16,3.45,1.47,3.24,3.37-1.29,10.76-12.1,19.77-25.92,20.9-13.82,1.13-25.96-6.01-28.98-16.4-.54-1.82.74-3.7,2.64-3.85l49.02-4.02h0Z" style="fill: #fff7f1;"/>
  <path d="M265.78,435.55l1.18,14.4c.16,1.98-1.3,3.71-3.29,3.87l-1.85.15" style="fill: none; stroke: #000; stroke-linecap: round; stroke-miterlimit: 10;"/>
  <ellipse cx="180.59" cy="456.12" rx="13.64" ry="25.96" transform="translate(-150.57 94.19) rotate(-20.86)" style="fill: #ffab99;"/>
  <ellipse cx="325.6" cy="441.81" rx="25.96" ry="13.64" transform="translate(-172.18 672.94) rotate(-78.52)" style="fill: #ffab99;"/>
  <path d="M187.92,455.94c-2-4.44-4.01-8.89-6.02-13.33-1.2-2.67-4-4.4-6.89-3.94h-.1c-2.98.53-5.44,2.87-6.34,6.01" style="fill: none; stroke: #f28472; stroke-linecap: round; stroke-miterlimit: 10;"/>
  <path d="M320.09,445.52c1.26-4.7,2.51-9.42,3.76-14.13.75-2.83,3.23-4.99,6.15-5.01h.1c3.03.02,5.84,1.93,7.24,4.88" style="fill: none; stroke: #f28472; stroke-linecap: round; stroke-miterlimit: 10;"/>
  <line x1="214.82" y1="415.35" x2="246.6" y2="412.74" style="fill: none; stroke: #111; stroke-linecap: round; stroke-miterlimit: 10; stroke-width: 5px;"/>
  <line x1="276.24" y1="410.31" x2="308.03" y2="407.71" style="fill: none; stroke: #111; stroke-linecap: round; stroke-miterlimit: 10; stroke-width: 5px;"/>
  <circle cx="231.6" cy="434.5" r="7.06"/>
  <circle cx="290.72" cy="429.66" r="7.06"/>
  <path d="M209.16,525.98c7.93,4.99,1.35,14.59,34.16,30.77,18.13,8.94,39.7.73,42.13-17.01.57-4.14-.41-8.51.15-12.65,5.92-1.54,17.68-2.39,24.57.67,4.7,2.09,6.58,5.52,7.28,6.86,39.73,75.46,32.77,150.92,32.77,150.92-3.13,33.99-7.31,85.25-10.92,156.06-40.46-.29-80.92-.57-121.39-.86,6.65-39.16,10.53-94.74-4.86-159.49-19.81-83.38-19.39-156.8-3.91-155.27Z" style="fill: #fafafa;"/>
  <path d="M196.82,534.22c17.63.97,30.64,35.29,33.36,42.67,2.41,11.27,5.14,23.63,18.96,65.66,29.39,89.38,10.76,166.08-2.01,204.14-47.84-.94-83.04.94-130.88,0-3.8-88.16-6.05-140.06,6.37-229.07,1.35-7.39-12.05-35.19-3.5-50.2,7.18-12.59,56.37-34.37,77.69-33.2Z" style="fill: #ea550f;"/>
  <path d="M364.94,655.97c.72,7.59,1.36,15.24,1.94,22.95,4.31,58.25,3.89,113.96,0,166.78-14.41.34-28.82.67-43.24,1.01,5.87-56.06,5.67-105.26,3.25-145.4-5.09-84.29-7.63-126.44-22.58-152.78-2.59-4.57-24.07-17.1-18.01-22.2,5.45-4.58,32.69-1.69,36.07-.19,37.95,16.91,42.15,96.17,42.57,129.84Z" style="fill: #ea550f;"/>
  <path d="M315.57,779.35c9.1-4.2,12.23.54,37.85-.38,23.6-.85,34.15-5.34,43.85.76,4.19,2.64,5.95,5.82,8.31,10.22,3.39,6.34,8.95,19.85,4.62,39.76-1.7,10.76-6.28,14.42-9.69,15.9-14.87,6.45-32.13-17.97-73.4-23.1-13.76-1.71-20.56-.08-25.39-4.92-8.92-8.95-2.01-30.93,13.85-38.25Z" style="fill: #f69e9b;"/>
  <path d="M137.77,555.84c-13.88,3.95-21.3,14.22-24.02,18.66-.46.75-.77,1.57-.92,2.43-10.04,56.11-20.07,112.22-30.11,168.32-.06.32-.09.63-.11.96-.33,7.89.59,20.37,8.89,31.83,11.39,15.72,30.62,21.15,43.72,24.38,57.63,14.2,149.62,23.62,175.77,26.13,3.22.31,6.23-1.61,7.31-4.66,4.47-12.57,8.94-25.14,13.41-37.7,1.35-3.81-.75-7.98-4.62-9.14-48.35-14.53-96.7-29.06-145.05-43.6-3.53-1.06-5.65-4.67-4.86-8.28,7.77-35.47,15.54-70.94,23.31-106.41.59-2.92,5.61-30.38-15.84-49.32-2.55-2.25-23.09-20.38-46.89-13.6Z" style="fill: #c13600;"/>
  <path d="M567.09,848.78h-215.87c-8.59,0-14.67-8.32-11.98-16.4l49.63-149.16c1.7-5.12,6.54-8.58,11.98-8.58h215.87c8.59,0,14.67,8.32,11.98,16.4l-49.63,149.16c-1.7,5.12-6.54,8.58-11.98,8.58Z" style="fill: #192f35;"/>
  <line x1="274.27" y1="840.87" x2="356.51" y2="840.87" style="fill: none; stroke: #192f35; stroke-linecap: round; stroke-miterlimit: 10; stroke-width: 15px;"/>
  <image width="1024" height="1024" transform="translate(467.69 728.45) rotate(2.01) scale(.05)" xlink:href="../../../../../../Downloads/Techysquad-Logo-01.png"/>
  <line x1="616.74" y1="530.82" x2="596.42" y2="595.35" style="fill: none; stroke: #2b2b2b; stroke-linecap: round; stroke-linejoin: round; stroke-width: 12px;"/>
  <path d="M612.96,559.13c-9.8,2.97-16.78,7.94-20.85,11.32-.38.7-1.39,2.79-.51,4.19.82,1.29,2.84,1.32,3.82,1.33,6.58.03,28.28-5.56,31.78-6.47,6.89-7.55,6-10.28,5.55-11.09-2.43-4.43-18,.18-19.8.72Z" style="fill: #ffab99;"/>
  <path d="M616.38,570.6c-9.35.8-14.71,3.02-18.36,5.01-4.2,2.29-6.98,3.81-7.03,5.85-.1,4.43,12.79,7.91,22.6,8.42,7.16.37,16.62.86,20.09-5.75,1.69-3.22,1.87-7.96.06-10.94-2.34-3.86-7.35-3.44-17.37-2.58Z" style="fill: #f7a192;"/>
  <path d="M615.04,570.09c-9.17,1.69-14.2,4.14-17.56,6.21-3.87,2.38-6.43,3.96-6.21,5.67.47,3.72,13.71,5.24,23.5,4.59,7.15-.47,16.6-1.1,19.18-7.02,1.26-2.88.83-6.88-1.35-9.18-2.82-2.99-7.73-2.08-17.56-.27Z" style="fill: #ffab99;"/>
  <path d="M615.03,585.55c-8.9.47-14.4,2.15-18.98,4.59-.95.82-6.15,3.32-5.68,6.23.26,1.61,1.76,3.48,8.39,4.94,5.7,1.25,15.19,2.21,28.75-1.31,7.24-6.69,6.79-10.22,6.56-11.17-1.43-6.16-16.61-3.42-19.04-3.29Z" style="fill: #f7a192;"/>
  <path d="M614.29,584.36c-8.86.81-15.82,3.67-20.26,5.94-.9.74-4.14,3.51-3.51,5.94.35,1.35,1.95,2.86,8.64,3.78,5.76.79,15.29,1.16,28.63-2.43,6.86-5.98,6.22-8.93,5.94-9.72-1.77-5.13-17.03-3.73-19.45-3.51Z" style="fill: #ffab99;"/>
  <path d="M617.74,600.67c-10.29.37-17.84,4.21-18.91,5.13-1.08,1.51-2.93,2.7-2.16,4.56,2.87,6.95,34.29,4.05,34.31-2.16.03-8.2-5-7.82-13.24-7.53Z" style="fill: #f7a192;"/>
  <path d="M617.74,598.85c-10.29.37-17.84,4.21-18.91,5.13-1.08,1.51-2.93,2.7-2.16,4.56,2.87,6.95,34.29,4.05,34.31-2.16.03-8.2-5-7.82-13.24-7.53Z" style="fill: #ffab99;"/>
  <rect x="382.38" y="107.6" width="306.05" height="214.81" rx="12" ry="12" style="fill: #f4f4f4;"/>
  <rect x="730.07" y="409.26" width="215.22" height="153.6" rx="12" ry="12" style="fill: #f4f4f4;"/>
  <rect x="747.69" y="493.5" width="85.01" height="54.99" rx="8.44" ry="8.44" style="fill: #ea550f;"/>
  <rect x="844.69" y="493.5" width="85.01" height="54.99" rx="8.62" ry="8.62" style="fill: #ea550f;"/>
  <rect x="688.43" y="593.65" width="286.33" height="234.94" rx="12" ry="12" style="fill: #a6c626;"/>
  <rect x="476.91" y="356.31" width="215.22" height="61.39" rx="12" ry="12" style="fill: #a6c626;"/>
  <rect x="730.07" y="203.64" width="147.32" height="168.77" rx="12" ry="12" style="fill: #ea550f;"/>
  <line x1="44.88" y1="848.78" x2="974.76" y2="848.78" style="fill: none; stroke: #2b2b2b; stroke-linecap: round; stroke-linejoin: round; stroke-width: 4px;"/>
  <circle cx="627.5" cy="493.06" r="36.26" style="fill: #fff; stroke: #2b2b2b; stroke-linecap: round; stroke-linejoin: round; stroke-width: 12px;"/>
  <text transform="translate(412.54 140.79)" style="font-family: ArialMT, Arial; font-size: 13px;"><tspan x="0" y="0">XXXXX XXXXX</tspan></text>
  <text transform="translate(758.38 352.31)" style="font-family: ArialMT, Arial; font-size: 13px;"><tspan x="0" y="0">XXXXX XXXXX</tspan></text>
  <text transform="translate(800.68 430.9)" style="font-family: ArialMT, Arial; font-size: 10.53px;"><tspan x="0" y="0">XXXXX XXXXX</tspan></text>
  <text transform="translate(774.25 529.32)" style="font-family: ArialMT, Arial; font-size: 6.64px;"><tspan x="0" y="0">XXXXXXX</tspan></text>
  <text transform="translate(424.14 161.31)" style="font-family: ArialMT, Arial; font-size: 5.83px;"><tspan x="0" y="0">XXXXXXXXXX</tspan></text>
  <text transform="translate(419.56 292.32)" style="font-family: ArialMT, Arial; font-size: 6px;"><tspan x="0" y="0">X</tspan></text>
  <text transform="translate(396.12 191.16)" style="font-family: ArialMT, Arial; font-size: 6px;"><tspan x="0" y="0">XX</tspan></text>
  <text transform="translate(396.12 211.16)" style="font-family: ArialMT, Arial; font-size: 6px;"><tspan x="0" y="0">XX</tspan></text>
  <text transform="translate(396.12 231.16)" style="font-family: ArialMT, Arial; font-size: 6px;"><tspan x="0" y="0">XX</tspan></text>
  <text transform="translate(396.12 251.16)" style="font-family: ArialMT, Arial; font-size: 6px;"><tspan x="0" y="0">XX</tspan></text>
  <text transform="translate(396.12 271.16)" style="font-family: ArialMT, Arial; font-size: 6px;"><tspan x="0" y="0">XX</tspan></text>
  <text transform="translate(449.56 292.32)" style="font-family: ArialMT, Arial; font-size: 6px;"><tspan x="0" y="0">X</tspan></text>
  <text transform="translate(479.56 292.32)" style="font-family: ArialMT, Arial; font-size: 6px;"><tspan x="0" y="0">X</tspan></text>
  <text transform="translate(509.56 292.32)" style="font-family: ArialMT, Arial; font-size: 6px;"><tspan x="0" y="0">X</tspan></text>
  <text transform="translate(539.56 292.32)" style="font-family: ArialMT, Arial; font-size: 6px;"><tspan x="0" y="0">X</tspan></text>
  <text transform="translate(569.56 292.32)" style="font-family: ArialMT, Arial; font-size: 6px;"><tspan x="0" y="0">X</tspan></text>
  <text transform="translate(599.56 292.32)" style="font-family: ArialMT, Arial; font-size: 6px;"><tspan x="0" y="0">X</tspan></text>
  <text transform="translate(629.56 292.32)" style="font-family: ArialMT, Arial; font-size: 6px;"><tspan x="0" y="0">X</tspan></text>
  <text transform="translate(659.56 292.32)" style="font-family: ArialMT, Arial; font-size: 6px;"><tspan x="0" y="0">X</tspan></text>
  <text transform="translate(514.14 161.31)" style="font-family: ArialMT, Arial; font-size: 5.83px;"><tspan x="0" y="0">XXXXXXXXXX</tspan></text>
  <circle cx="416.53" cy="159.33" r="3.9" style="fill: #ea550f;"/>
  <circle cx="506.53" cy="159.33" r="3.9" style="fill: #a6c626;"/>
  <path d="M420.56,265.89c10.78-22.01,21.56-44.03,32.34-66.04.69-1.12,6.41-10.07,17.36-11.23,9-.96,17.95,3.71,22.81,11.91,4.2,8.51,8.4,17.02,12.6,25.53,8.25,12.4,13.98,14.43,17.7,13.96,5.27-.67,6.91-6.42,15.32-15.32,7.99-8.46,14.33-15.17,20.43-15.32,17.27-.42,21.19,52.1,44.6,55.83,10.83,1.73,20.72-7.8,30.64-17.36,19.21-18.51,25.58-40.53,27.91-51.4" style="fill: none; stroke: #ea550f; stroke-linecap: round; stroke-linejoin: round; stroke-width: 2px;"/>
  <path d="M415.65,237.21c1.77,2.59,9.92,13.91,24.77,16.6,18.49,3.34,19.29-33.21,25.02-38.81,16.01-15.64,32.25,51.86,39.32,51.84,12.86-.04,14.12-64.66,34.47-62.84,9.53.85,19.21,41.7,21.45,50.02,2.81,10.47,6.13,20.88,14.55,20.68,9.97-.23,14.14-39.11,31.74-42.39,13.76-2.56,18.58,20.37,36.17,19.96,12.44-.29,22.37-6.68,28.6-11.74" style="fill: none; stroke: #a6c626; stroke-linecap: round; stroke-linejoin: round; stroke-width: 2px;"/>
  <text transform="translate(597.46 140.79)" style="font-family: Arial-BoldMT, Arial; font-size: 13px; font-weight: 700;"><tspan x="0" y="0">$19,582.07</tspan></text>
  <text transform="translate(776.79 469.09)" style="font-family: Arial-BoldMT, Arial; font-size: 24.65px; font-weight: 700;"><tspan x="0" y="0">$19,582.07</tspan></text>
  <text transform="translate(777.63 510.9)" style="fill: #fff; font-family: Arial-BoldMT, Arial; font-size: 9.14px; font-weight: 700;"><tspan x="0" y="0">$4,681.07</tspan></text>
  <text transform="translate(872.25 529.32)" style="font-family: ArialMT, Arial; font-size: 6.64px;"><tspan x="0" y="0">XXXXXXX</tspan></text>
  <text transform="translate(875.63 510.9)" style="fill: #fff; font-family: Arial-BoldMT, Arial; font-size: 9.14px; font-weight: 700;"><tspan x="0" y="0">$9,185.07</tspan></text>
  <text transform="translate(810.46 317.22)" style="fill: #fff; font-family: Arial-BoldMT, Arial; font-size: 38.25px; font-weight: 700;"><tspan x="0" y="0">90</tspan></text>
  <polyline points="409.65 173.77 409.65 278.45 674.42 278.45" style="fill: none; stroke: #000; stroke-miterlimit: 10;"/>
  <circle cx="504.34" cy="387" r="16.51" style="fill: #f9f9f9;"/>
  <line x1="531.18" y1="376.15" x2="613.56" y2="376.15" style="fill: none; stroke: #e1ff61; stroke-linecap: round; stroke-linejoin: round; stroke-width: 8px;"/>
  <line x1="531.18" y1="389.6" x2="641.65" y2="389.6" style="fill: none; stroke: #859911; stroke-linecap: round; stroke-linejoin: round; stroke-width: 2px;"/>
  <line x1="531.18" y1="397.6" x2="668.88" y2="397.6" style="fill: none; stroke: #859911; stroke-linecap: round; stroke-linejoin: round; stroke-width: 2px;"/>
  <path d="M796.08,326.4c-29.33,0-53.11-23.78-53.11-53.11s23.78-53.11,53.11-53.11,53.11,23.78,53.11,53.11" style="fill: none; stroke: #ff8a5c; stroke-linecap: round; stroke-linejoin: round; stroke-width: 4px;"/>
  <path d="M796.31,317.34c-24.32,0-44.04-19.72-44.04-44.04s19.72-44.04,44.04-44.04,44.04,19.72,44.04,44.04" style="fill: none; stroke: #a6c626; stroke-linecap: round; stroke-linejoin: round; stroke-width: 4px;"/>
  <path d="M796.08,306.9c-18.33,0-33.19-14.86-33.19-33.19s14.86-33.19,33.19-33.19,33.19,14.86,33.19,33.19" style="fill: none; stroke: #e1ff61; stroke-linecap: round; stroke-linejoin: round; stroke-width: 4px;"/>
  <path d="M796.08,296.92c-12.3,0-22.27-9.97-22.27-22.27s9.97-22.27,22.27-22.27,22.27,9.97,22.27,22.27" style="fill: none; stroke: #fff; stroke-linecap: round; stroke-linejoin: round; stroke-width: 4px;"/>
  <circle cx="763.86" cy="509.72" r="7.91" style="fill: #ff9166;"/>
  <circle cx="859.86" cy="509.72" r="7.91" style="fill: #ff9166;"/>
  <line x1="717.44" y1="705.27" x2="717.44" y2="803.94" style="fill: #fff; stroke: #e1ff61; stroke-linecap: round; stroke-linejoin: round; stroke-width: 6px;"/>
  <line x1="730.07" y1="674.87" x2="730.07" y2="803.94" style="fill: #fff; stroke: #ea550f; stroke-linecap: round; stroke-linejoin: round; stroke-width: 6px;"/>
  <line x1="761.64" y1="736.74" x2="761.64" y2="803.94" style="fill: #fff; stroke: #e1ff61; stroke-linecap: round; stroke-linejoin: round; stroke-width: 6px;"/>
  <line x1="774.27" y1="764.4" x2="774.27" y2="803.94" style="fill: #fff; stroke: #ea550f; stroke-linecap: round; stroke-linejoin: round; stroke-width: 6px;"/>
  <line x1="933.64" y1="736.74" x2="933.64" y2="803.94" style="fill: #fff; stroke: #e1ff61; stroke-linecap: round; stroke-linejoin: round; stroke-width: 6px;"/>
  <line x1="946.27" y1="764.4" x2="946.27" y2="803.94" style="fill: #fff; stroke: #ea550f; stroke-linecap: round; stroke-linejoin: round; stroke-width: 6px;"/>
  <line x1="804.64" y1="764.4" x2="804.64" y2="803.94" style="fill: #fff; stroke: #e1ff61; stroke-linecap: round; stroke-linejoin: round; stroke-width: 6px;"/>
  <line x1="817.27" y1="701.51" x2="817.27" y2="803.94" style="fill: #fff; stroke: #ea550f; stroke-linecap: round; stroke-linejoin: round; stroke-width: 6px;"/>
  <line x1="892.64" y1="728.45" x2="892.64" y2="803.94" style="fill: #fff; stroke: #e1ff61; stroke-linecap: round; stroke-linejoin: round; stroke-width: 6px;"/>
  <line x1="905.27" y1="685.17" x2="905.27" y2="803.94" style="fill: #fff; stroke: #ea550f; stroke-linecap: round; stroke-linejoin: round; stroke-width: 6px;"/>
  <line x1="849.64" y1="659.13" x2="849.64" y2="803.94" style="fill: #fff; stroke: #e1ff61; stroke-linecap: round; stroke-linejoin: round; stroke-width: 6px;"/>
  <line x1="862.27" y1="715.81" x2="862.27" y2="803.94" style="fill: #fff; stroke: #ea550f; stroke-linecap: round; stroke-linejoin: round; stroke-width: 6px;"/>
  <rect x="867.25" y="606.54" width="97.29" height="24.5" rx="6.26" ry="6.26" style="fill: #fff;"/>
</svg>