<?xml version="1.0" encoding="UTF-8"?>
<svg id="Layer_14" xmlns="http://www.w3.org/2000/svg" viewBox="0 0 1024 1024">
  <path d="M304.94,215.77l-.73-46.95c-.07-4.64-4.81-7.75-9.1-5.96l-32.08,13.36c-4.29,1.79-5.42,7.34-2.18,10.66l32.81,33.6c4.15,4.25,11.36,1.25,11.27-4.69Z" style="fill: #a6c626;"/>
  <rect x="319.72" y="254.71" width="381.48" height="685.38" rx="44.94" ry="44.94" style="fill: #fff; stroke: #2d2d2d; stroke-linecap: round; stroke-miterlimit: 10; stroke-width: 41px;"/>
  <rect x="356.13" y="319.4" width="312.83" height="151.79" rx="10.72" ry="10.72" style="fill: #a6c626;"/>
  <rect x="368.8" y="334.38" width="148.58" height="125.23" rx="13.79" ry="13.79" style="fill: #ea550f;"/>
  <rect x="356.13" y="518.88" width="312.83" height="151.79" rx="10.72" ry="10.72" style="fill: #a6c626;"/>
  <rect x="368.8" y="533.86" width="148.58" height="125.23" rx="13.79" ry="13.79" style="fill: #ea550f;"/>
  <rect x="356.13" y="714.44" width="312.83" height="151.79" rx="10.72" ry="10.72" style="fill: #a6c626;"/>
  <rect x="368.8" y="729.42" width="148.58" height="125.23" rx="13.79" ry="13.79" style="fill: #ea550f;"/>
  <circle cx="516.79" cy="129.49" r="68.37" style="fill: #ea550f;"/>
  <rect x="129.52" y="89.97" width="184.2" height="115.37" rx="17.82" ry="17.82" transform="translate(-36.18 80.88) rotate(-19.15)" style="fill: #a6c626;"/>
  <path d="M717.71,209.31l3.1-42.71c.32-4.47,4.94-7.32,9.08-5.59l25.03,10.42c4.14,1.72,5.38,7,2.43,10.38l-28.13,32.29c-4.15,4.76-11.97,1.5-11.51-4.79Z" style="fill: #a6c626;"/>
  <rect x="710.28" y="87.7" width="184.2" height="115.37" rx="17.82" ry="17.82" transform="translate(1512.65 545.96) rotate(-160.85)" style="fill: #a6c626;"/>
  <g>
    <circle cx="517.13" cy="129.49" r="46.8" style="fill: none; stroke: #fff; stroke-miterlimit: 10; stroke-width: 5px;"/>
    <path d="M507.83,83.61c-2.7,2.14-17.38,18.36-18.34,44.55-1.02,27.73,14.16,45.01,16.55,47.02" style="fill: none; stroke: #fff; stroke-miterlimit: 10; stroke-width: 5px;"/>
    <path d="M526.94,83.72c2.7,2.14,18.77,18.99,19.73,45.18,1.02,27.73-15.91,44.48-18.3,46.49" style="fill: none; stroke: #fff; stroke-miterlimit: 10; stroke-width: 5px;"/>
    <path d="M561.71,143.77c-2.14,2.7-17.53,12.59-43.72,13.55-27.73,1.02-43.49-11.37-45.5-13.75" style="fill: none; stroke: #fff; stroke-miterlimit: 10; stroke-width: 5px;"/>
    <path d="M562.58,118.26c-2.14-2.7-19.25-15.09-45.45-16.05-27.73-1.02-43.01,12.07-45.03,14.46" style="fill: none; stroke: #fff; stroke-miterlimit: 10; stroke-width: 5px;"/>
    <line x1="516.67" y1="82.68" x2="516.67" y2="176.07" style="fill: none; stroke: #fff; stroke-miterlimit: 10; stroke-width: 5px;"/>
    <line x1="469.98" y1="129.38" x2="563.37" y2="129.38" style="fill: none; stroke: #fff; stroke-miterlimit: 10; stroke-width: 5px;"/>
  </g>
  <text transform="translate(758.38 168.34) rotate(19.15)" style="fill: #070707; font-family: CascadiaMonoRoman-Bold, &apos;Cascadia Mono&apos;; font-size: 110.3px; font-variation-settings: &apos;wght&apos; 700; font-weight: 700;"><tspan x="0" y="0">!</tspan></text>
  <path d="M209.76,127.1c.52-1.18,6.28-13.76,19.82-16.27,10.29-1.91,20.92,3.84,24.73,10.72,6.4,11.56,2.99,41.82-24.03,61.44-29.95,1.91-51.21-14.8-56.36-28.47-3.15-8.37-1.52-17.35,8.13-24.85,7.18-5.58,18.68-6.34,27.71-2.57Z" style="fill: #070707;"/>
  <line x1="533.45" y1="357.49" x2="630.72" y2="357.49" style="fill: none; stroke: #87a508; stroke-linecap: round; stroke-miterlimit: 10; stroke-width: 15px;"/>
  <line x1="533.45" y1="387.49" x2="630.72" y2="387.49" style="fill: none; stroke: #87a508; stroke-linecap: round; stroke-miterlimit: 10; stroke-width: 7px;"/>
  <line x1="533.45" y1="410.49" x2="630.72" y2="410.49" style="fill: none; stroke: #87a508; stroke-linecap: round; stroke-miterlimit: 10; stroke-width: 7px;"/>
  <line x1="533.45" y1="562.49" x2="630.72" y2="562.49" style="fill: none; stroke: #87a508; stroke-linecap: round; stroke-miterlimit: 10; stroke-width: 15px;"/>
  <line x1="533.45" y1="592.49" x2="630.72" y2="592.49" style="fill: none; stroke: #87a508; stroke-linecap: round; stroke-miterlimit: 10; stroke-width: 7px;"/>
  <line x1="533.45" y1="615.49" x2="630.72" y2="615.49" style="fill: none; stroke: #87a508; stroke-linecap: round; stroke-miterlimit: 10; stroke-width: 7px;"/>
  <line x1="533.45" y1="757.49" x2="630.72" y2="757.49" style="fill: none; stroke: #87a508; stroke-linecap: round; stroke-miterlimit: 10; stroke-width: 15px;"/>
  <line x1="533.45" y1="787.49" x2="630.72" y2="787.49" style="fill: none; stroke: #87a508; stroke-linecap: round; stroke-miterlimit: 10; stroke-width: 7px;"/>
  <line x1="533.45" y1="810.49" x2="630.72" y2="810.49" style="fill: none; stroke: #87a508; stroke-linecap: round; stroke-miterlimit: 10; stroke-width: 7px;"/>
</svg>