<svg id="Layer_3" xmlns="http://www.w3.org/2000/svg" xmlns:xlink="http://www.w3.org/1999/xlink" viewBox="0 0 1024 1024">
  <g>
    <rect x="24.61" y="632.26" width="226.93" height="109.44" rx="9.87" ry="9.87" style="fill: #bfe0ff; opacity: .15;"/>
    <rect x="24.61" y="632.26" width="226.93" height="109.44" rx="9.87" ry="9.87" style="fill: none; stroke: #fff; stroke-miterlimit: 10; stroke-width: 3px;"/>
  </g>
  <rect x="554.56" y="387.58" width="88.84" height="94.84" transform="translate(139.69 1015.57) rotate(-87.64)" style="fill: #f69e9b;"/>
  <path d="M646.6,398.38l-.12,2.97c-1.43,34.67-30.99,61.86-65.66,60.43l-30.81-1.27.94-22.87,34.08,1.4c27.71,1.14,52.18-16.01,61.57-40.67Z" style="fill: #d88080;"/>
  <path d="M652,322.15l-2.66,64.49c-.22,5.28-1.21,10.35-2.9,15.13-.28.86-.6,1.7-.94,2.5-8.88,21.99-32.12,37.25-58.49,36.16l-33.71-1.39c-27.98-1.15-49.98-23.56-48.9-49.82l3.01-73.04c.04-1.05.12-2.1.25-3.12.11-1.13.28-2.27.51-3.37,1.87-9.97,7.07-18.82,14.45-25.59,9.65-8.89,23.07-14.18,37.62-13.59l42.82,1.76c25.09,1.03,45.37,19.17,48.52,41.83.39,2.62.53,5.31.42,8.02Z" style="fill: #f69e9b;"/>
  <path d="M633.1,289.22c10.49,12.85-10.26,30.87-4.01,49.19,5.6,16.41,5.73,26.76,25.73,15.72,27.66-15.28,30.31-65.02,14.58-85.13-6.7-8.57-13.5-7.6-32.65-13.59-51.58-16.13-56.21-40.02-86.91-40.32-23.94-.24-53.68,13.96-56.77,34.4-3.01,19.85,21.14,40.67,44.75,44.07,42.68,6.15,85.75-16.01,95.28-4.33Z" style="fill: #4b2f38;"/>
  <path d="M670.18,348.69c-.94,4.86-2.43,9.29-4.29,13.05,0,0-.02.03-.01.06-4.1,8.21-9.87,13.18-15.23,12.15-1.13-.22-2.16-.67-3.11-1.39-5.68-4.1-8.19-16.09-5.65-29.32.28-1.44.59-2.83.98-4.18,0,0,0-.03.01-.06,2.97-10.87,8.82-19,14.73-20.77,1.28-.39,2.56-.49,3.81-.25,7.81,1.5,11.73,15.25,8.76,30.72Z" style="fill: #f6a2a0;"/>
  <line x1="519.58" y1="312.36" x2="544.94" y2="312.73" style="fill: none; stroke: #4b2f38; stroke-linecap: round; stroke-miterlimit: 10; stroke-width: 7.75px;"/>
  <line x1="580.95" y1="314.52" x2="606.31" y2="314.89" style="fill: none; stroke: #4b2f38; stroke-linecap: round; stroke-miterlimit: 10; stroke-width: 7.75px;"/>
  <circle cx="532.29" cy="336.69" r="8.77" style="fill: #4b2f38;"/>
  <circle cx="589.92" cy="338.5" r="8.77" style="fill: #4b2f38;"/>
  <path d="M554.27,351.99l-.77,18.78c-.12,2.96,2.18,5.45,5.13,5.57l8.82.36" style="fill: none; stroke: #4b2f38; stroke-linecap: round; stroke-linejoin: round; stroke-width: 3.49px;"/>
  <path d="M543.07,399.53c1.61,1.62,7.24,6.87,16.27,7.88,10.04,1.12,17.26-3.78,18.96-5" style="fill: none; stroke: #4b2f38; stroke-linecap: round; stroke-linejoin: round; stroke-width: 3.49px;"/>
  <path d="M647.84,353.32c.24-6.27,2.35-12.74,5.49-16.8,3.14-4.06,6.81-5.08,9.53-2.63" style="fill: none; stroke: #4b2f38; stroke-linecap: round; stroke-linejoin: round; stroke-width: 3.49px;"/>
  <path d="M506.62,478.35h172.39c25.03,0,45.35,20.32,45.35,45.35v311.1c0,8.65-7.03,15.68-15.68,15.68h-162.94c-62.47,0-113.19-50.72-113.19-113.19v-184.87c0-40.88,33.19-74.07,74.07-74.07Z" style="fill: #fff;"/>
  <ellipse cx="599.73" cy="481.27" rx="49.3" ry="19.44" style="fill: #f69e9b;"/>
  <path d="M697.14,689.77c5.35-4.09,16.32-11.39,40.2-11.95,24.79-.58,32.94,8.8,38.3,12.67-1.41,13.42-1.43,26.3-7.51,36.08-51.39,82.61-152.58,101.61-186.67,106.49-.21-12.19-.43-24.38-.64-36.56,13.03-2.46,58.83-12.77,89.17-54.53,12.9-17.75,24.22-39.58,27.16-52.2Z" style="fill: #f69e9b;"/>
  <path d="M550.01,460.51c2.35,3.43,9.64,25.94,37.78,29.55,34.17,4.38,56.7-21.13,58.37-23.09,15.75,4.54,33.02,10.39,51.32,17.96,31.58,13.07,43.72,14.76,53.88,26.3,9.41,10.68,12.59,22.32,14.75,31.43,12.67,53.34,8.41,131.92,9.52,152.06-5.56-4.89-5.94-9.15-19.14-12.22-33.59-7.81-58.92,11.19-62.24,14.14-2.57-26.09-7.04-47.71-9.61-73.8-2.36-4.95-5.78-13.16-7.7-23.73-5.24-28.85,6.47-43.46,2.57-62.22-2.32-11.15-10.74-26.61-40.41-41.7-6.44,4.22-24.97,15.15-50.68,14.11-29.81-1.2-49.25-17.67-54.53-22.45l-39.77,8.34c-4.24,1.78-10.61,5.03-16.68,10.91-9.37,9.06-12.91,19.41-14.75,25.02-5.87,17.83-17.17,56.11-30.15,107.13-16.04-16.89-32.07-33.78-48.11-50.68,21.17-31.65,42.34-63.29,63.51-94.94,8.98-6.2,17.96-12.4,26.94-18.6,22.45-4.06,52.67-9.45,75.12-13.51Z" style="fill: #12006c;"/>
  <path d="M355.87,499.77c9.12,8.98,9.36,23.2,9.4,33.46.13,33.78-15.52,88.83-19.24,113.48-10.37,68.61,51.41,143.72,75.7,138.26,11.47-2.58,22.62-24.83,23.38-106.91.06-6.56-1.25-13.07-3.85-19.09-9.44-21.84-15.87-40.79-20.22-55.16-19.55-64.53-14.38-93.4-12.15-103.49.66-3,1.39-5.79,2.12-8.34,2.21-7.65,1.52-15.85-2.07-22.96-11.19-22.15-22.15-46.15-32.41-71.99-4.94-12.44-9.46-24.65-13.6-36.57-1.93-.95-6.19-2.7-10.23-1.07-5.23,2.1-6.86,8.55-7.71,11.94-5.86,23.24,24.18,59.28,20.05,63.2-1.53,1.44-8.08-1.06-31.9-20.84-1.24-.59-3.36-1.36-5.86-1.05-2.5.32-4.27,1.59-5.22,2.31-3.75,2.89-17.61,14.99-36.11,31.8-.6,4.21.89,6.48,1.38,7.14,3.05,4.14,10.88,5.11,18.45.79-14.5,14.51-20.6,23.52-18.29,27.05,1.64,2.51,7.54,2.24,17.7-.81-.34,5.07-.68,10.14-1.01,15.21-.07,1.03.05,2.07.34,3.06.49,1.63.78,2.62.78,2.62.03,0,8.24-.52,10.93-4.29,2.71-3.79-.19-8.51,1.27-16.61.24-1.31.68-5.77,6.22-8.39,4.74-2.24,9.2-2.17,12.64.64,4.55,3.72,3.48,7.74,7.62,14.64,3.94,6.57,8.09,8.23,11.89,11.97Z" style="fill: #f69e9b;"/>
  <path d="M383.19,456.62c-2.56-.67-8.13-2.5-12.92-7.61-2.98-3.18-4.57-6.46-5.41-8.67-4.72-.39-7.11,1.11-8.17,1.98-5.88,4.83-3.77,17.44,1.63,25.05,3.26,4.6,7.48,7.03,10.08,8.24,1.63,1.98,3.67,4.95,4.96,8.91,2.05,6.27.51,9.7,2.16,11.24,1.85,1.73,7.31.66,21.64-9.07,3.48-2.36,4.22-7.18,1.61-10.47-5.19-6.53-10.38-13.07-15.58-19.6Z" style="fill: #f49090;"/>
  <ellipse cx="380.32" cy="485.76" rx="20.69" ry="16.04" transform="translate(-85.22 80.94) rotate(-10.93)" style="fill: #f49090;"/>
  <line x1="616.51" y1="841.09" x2="689.64" y2="841.09" style="fill: none; stroke: #c4c4c4; stroke-linecap: round; stroke-miterlimit: 10; stroke-width: 18px;"/>
  <path d="M624.22,850.48h-300.29c-13.37,0-24.85-9.5-27.35-22.64l-34.62-182.1c-3.26-17.15,9.89-33.04,27.35-33.04h300.29c13.37,0,24.85,9.5,27.35,22.64l34.62,182.1c3.26,17.15-9.89,33.04-27.35,33.04Z" style="fill: #ccc;"/>
  <image width="1024" height="1024" transform="translate(417.2 704.82) rotate(-5.55) scale(.05)" xlink:href="./public/logo/Techysquad-Logo-01.png"/>
  <g>
    <rect x="103.73" y="267.57" width="350.46" height="234.78" rx="26.55" ry="26.55" style="fill: #bfe0ff; opacity: .15;"/>
    <rect x="103.73" y="267.57" width="350.46" height="234.78" rx="26.55" ry="26.55" style="fill: none; stroke: #fff; stroke-miterlimit: 10; stroke-width: 3px;"/>
  </g>
  <path d="M313.99,359.81c3.42-12.99,13.86-23.35,27.29-27.3" style="fill: none; stroke: #ea550f; stroke-linecap: round; stroke-miterlimit: 10; stroke-width: 4px;"/>
  <path d="M341.43,405.66c-16.58-4.8-28.64-19.37-28.64-36.6,0-3.19.41-6.29,1.19-9.26" style="fill: none; stroke: #fff; stroke-linecap: round; stroke-miterlimit: 10; stroke-width: 4px;"/>
  <path d="M348.32,407.05c-2.36-.28-4.66-.74-6.88-1.39" style="fill: none; stroke: #ea550f; stroke-linecap: round; stroke-miterlimit: 10; stroke-width: 4px;"/>
  <path d="M381.43,396.66c-7.29,6.61-17.19,10.68-28.09,10.68-1.7,0-3.37-.1-5.02-.29" style="fill: none; stroke: #fff; stroke-linecap: round; stroke-miterlimit: 10; stroke-width: 4px;"/>
  <path d="M392.87,377.57c-1.78,7.41-5.84,14-11.44,19.09" style="fill: none; stroke: #ea550f; stroke-linecap: round; stroke-miterlimit: 10; stroke-width: 4px;"/>
  <path d="M362.37,331.74c18.04,3.88,31.51,19.11,31.51,37.32,0,2.92-.35,5.77-1,8.5" style="fill: none; stroke: #fff; stroke-linecap: round; stroke-miterlimit: 10; stroke-width: 4px;"/>
  <path d="M349.2,330.99c1.36-.13,2.74-.2,4.13-.2,3.1,0,6.13.33,9.03.95" style="fill: none; stroke: #ea550f; stroke-linecap: round; stroke-miterlimit: 10; stroke-width: 4px;"/>
  <path d="M341.28,332.51c2.54-.75,5.19-1.26,7.92-1.52" style="fill: none; stroke: #fff; stroke-linecap: round; stroke-miterlimit: 10; stroke-width: 4px;"/>
  <path d="M360.59,343.5c10.73,3.09,18.59,12.99,18.59,24.72,0,2.9-.48,5.69-1.37,8.29" style="fill: none; stroke: #a6c626; stroke-linecap: round; stroke-miterlimit: 10; stroke-width: 4px;"/>
  <path d="M328.65,361.36c3-10.88,12.97-18.86,24.8-18.86,2.48,0,4.87.35,7.14,1" style="fill: none; stroke: #fff; stroke-linecap: round; stroke-miterlimit: 10; stroke-width: 4px;"/>
  <path d="M348.32,393.43c-11.75-2.38-20.59-12.76-20.59-25.21,0-2.38.32-4.67.92-6.86" style="fill: none; stroke: #a6c626; stroke-linecap: round; stroke-miterlimit: 10; stroke-width: 4px;"/>
  <path d="M377.81,376.51c-3.45,10.14-13.05,17.43-24.36,17.43-1.76,0-3.48-.18-5.14-.51" style="fill: none; stroke: #fff; stroke-linecap: round; stroke-miterlimit: 10; stroke-width: 4px;"/>
  <path d="M415.64,480.28c1.83-.23,3.29-1.03,5.72-2.83,2.67-1.98,2.61-5.91,2.66-9.64.11-8.2-.6-64.56-.04-145.98" style="fill: none; stroke: #a6c626; stroke-linecap: round; stroke-miterlimit: 10; stroke-width: 4px;"/>
  <circle cx="353.38" cy="368.14" r="8.14" style="fill: #fff;"/>
  <circle cx="423.36" cy="319.62" r="5.13" transform="translate(63.58 709.43) rotate(-84.35)" style="fill: #ea550f;"/>
  <circle cx="413.9" cy="480.09" r="4.33" style="fill: #ea550f;"/>
  <path d="M306.37,324.72c.11-8.23.21-16.46.32-24.7.21-.89.82-2.85,2.57-4.6,2.25-2.25,4.92-2.68,5.77-2.78,9.44-.07,18.89-.14,28.33-.21" style="fill: none; stroke: #a6c626; stroke-linecap: round; stroke-miterlimit: 10; stroke-width: 4px;"/>
  <circle cx="344.38" cy="292.92" r="5.13" transform="translate(18.96 606.76) rotate(-84.35)" style="fill: #ea550f;"/>
  <circle cx="306.69" cy="328.09" r="5.13" transform="translate(-50.02 600.96) rotate(-84.35)" style="fill: #ea550f;"/>
  <polygon points="288.71 360.01 255.56 344.59 255.56 300.56 288.71 315.98 288.71 360.01" style="fill: #ea550f;"/>
  <path d="M255.8,364.71c-.07,25.52-.14,51.03-.21,76.55-.44.92-1.33,2.46-2.99,3.85-1.46,1.23-2.92,1.83-3.85,2.14-18.39-.07-36.78-.14-55.17-.21-.98-.43-2.73-1.36-4.28-3.21-1.22-1.45-1.83-2.9-2.14-3.85-.07-33.5-.14-67-.21-100.5.36-.96,1.33-3.15,3.64-4.92,1.95-1.5,3.92-1.97,4.92-2.14,10.98-.36,21.95-.71,32.93-1.07" style="fill: none; stroke: #ea550f; stroke-linecap: round; stroke-miterlimit: 10; stroke-width: 3px;"/>
  <polygon points="225.44 355.41 253.59 343.12 253.59 303.39 225.44 316.6 225.44 355.41" style="fill: #fff; stroke: #000; stroke-linecap: round; stroke-miterlimit: 10; stroke-width: 3px;"/>
  <polygon points="288.71 360.01 255.56 369.73 223.41 358.19 255.16 344.39 288.71 360.01" style="fill: #a6c626;"/>
  <polygon points="154.81 421.52 187.95 406.1 187.95 362.07 154.81 377.49 154.81 421.52" style="fill: #ea550f;"/>
  <polygon points="218.08 416.92 189.93 404.63 189.93 364.91 218.08 378.11 218.08 416.92" style="fill: #fff; stroke: #000; stroke-linecap: round; stroke-miterlimit: 10; stroke-width: 3px;"/>
  <polygon points="154.81 421.52 187.95 431.25 220.11 419.7 188.36 405.91 154.81 421.52" style="fill: #a6c626;"/>
  <line x1="97.88" y1="852.99" x2="892.35" y2="852.99" style="fill: none; stroke: #000; stroke-miterlimit: 10; stroke-width: 4px;"/>
  <g>
    <ellipse cx="903.71" cy="530.01" rx="102.29" ry="99.06" style="fill: none; stroke: #fff; stroke-miterlimit: 10; stroke-width: 3px;"/>
    <ellipse cx="903.71" cy="530.01" rx="102.29" ry="99.06" style="fill: #bfe0ff; opacity: .15;"/>
  </g>
  <g>
    <path d="M910.78,486.06l-7.78,5.2c-.72.48-1.64.55-2.42.18h0c-1.74-.82-1.92-3.22-.33-4.29l7.78-5.2c.72-.48,1.64-.55,2.42-.18h0c1.74.82,1.92,3.22.33,4.29Z" style="fill: #bad839; stroke: #bad839; stroke-linejoin: round; stroke-width: 3.29px;"/>
    <path d="M970.53,525.23l-7.78,5.2c-.72.48-1.64.55-2.42.18h0c-1.74-.82-1.92-3.22-.33-4.29l7.78-5.2c.72-.48,1.64-.55,2.42-.18h0c1.74.82,1.92,3.22.33,4.29Z" style="fill: #bad839; stroke: #bad839; stroke-linejoin: round; stroke-width: 3.29px;"/>
    <path d="M963.72,520.45l-7.78,5.2c-.72.48-1.64.55-2.42.18h0c-1.74-.82-1.92-3.22-.33-4.29l7.78-5.2c.72-.48,1.64-.55,2.42-.18h0c1.74.82,1.92,3.22.33,4.29Z" style="fill: #bad839; stroke: #bad839; stroke-linejoin: round; stroke-width: 3.29px;"/>
    <path d="M957,516.89l-7.78,5.2c-.72.48-1.64.55-2.42.19h0c-1.74-.81-1.92-3.22-.32-4.29l7.78-5.2c.72-.48,1.64-.55,2.42-.19h0c1.74.81,1.92,3.22.32,4.29Z" style="fill: #bad839; stroke: #bad839; stroke-linejoin: round; stroke-width: 3.29px;"/>
    <path d="M935.72,503.51l-7.78,5.2c-.72.48-1.64.55-2.42.18h0c-1.74-.82-1.92-3.22-.33-4.29l7.78-5.2c.72-.48,1.64-.55,2.42-.18h0c1.74.82,1.92,3.22.33,4.29Z" style="fill: #bad839; stroke: #bad839; stroke-linejoin: round; stroke-width: 3.29px;"/>
    <path d="M923.38,494.47l-7.78,5.2c-.72.48-1.64.55-2.42.18h0c-1.74-.82-1.92-3.22-.33-4.29l7.78-5.2c.72-.48,1.64-.55,2.42-.18h0c1.74.82,1.92,3.22.33,4.29Z" style="fill: #bad839; stroke: #bad839; stroke-linejoin: round; stroke-width: 3.29px;"/>
    <path d="M929.25,499.01l-7.78,5.2c-.72.48-1.64.55-2.42.18h0c-1.74-.82-1.92-3.22-.33-4.29l7.78-5.2c.72-.48,1.64-.55,2.42-.18h0c1.74.82,1.92,3.22.33,4.29Z" style="fill: #bad839; stroke: #bad839; stroke-linejoin: round; stroke-width: 3.29px;"/>
    <path d="M916.64,490.6l-7.78,5.2c-.72.48-1.64.55-2.42.18h0c-1.74-.82-1.92-3.22-.33-4.29l7.78-5.2c.72-.48,1.64-.55,2.42-.18h0c1.74.82,1.92,3.22.33,4.29Z" style="fill: #bad839; stroke: #bad839; stroke-linejoin: round; stroke-width: 3.29px;"/>
    <path d="M950.21,512.41l-7.78,5.2c-.72.48-1.64.55-2.42.18h0c-1.74-.82-1.92-3.22-.33-4.29l7.78-5.2c.72-.48,1.64-.55,2.42-.18h0c1.74.82,1.92,3.22.33,4.29Z" style="fill: #bad839; stroke: #bad839; stroke-linejoin: round; stroke-width: 3.29px;"/>
    <path d="M943.43,507.93l-7.78,5.2c-.72.48-1.64.55-2.42.18h0c-1.74-.82-1.92-3.22-.33-4.29l7.78-5.2c.72-.48,1.64-.55,2.42-.18h0c1.74.82,1.92,3.22.33,4.29Z" style="fill: #bad839; stroke: #bad839; stroke-linejoin: round; stroke-width: 3.29px;"/>
  </g>
  <g>
    <path d="M889.51,485.68l7.6,5.45c.7.5,1.62.6,2.41.26h0c1.77-.76,2.03-3.15.47-4.28l-7.6-5.45c-.7-.5-1.62-.6-2.41-.26h0c-1.77.76-2.03,3.15-.47,4.28Z" style="fill: #bad839; stroke: #bad839; stroke-linejoin: round; stroke-width: 3.29px;"/>
    <path d="M827.59,522.8l7.6,5.45c.7.5,1.62.6,2.41.26h0c1.77-.76,2.03-3.15.47-4.28l-7.6-5.45c-.7-.5-1.62-.6-2.41-.26h0c-1.77.76-2.03,3.15-.47,4.28Z" style="fill: #bad839; stroke: #bad839; stroke-linejoin: round; stroke-width: 3.29px;"/>
    <path d="M834.55,518.24l7.6,5.45c.7.5,1.62.6,2.41.26h0c1.77-.76,2.03-3.15.47-4.28l-7.6-5.45c-.7-.5-1.62-.6-2.41-.26h0c-1.77.76-2.03,3.15-.47,4.28Z" style="fill: #bad839; stroke: #bad839; stroke-linejoin: round; stroke-width: 3.29px;"/>
    <path d="M841.38,514.91l7.6,5.46c.7.5,1.62.6,2.41.26h0c1.77-.76,2.03-3.15.46-4.27l-7.6-5.46c-.7-.5-1.62-.6-2.41-.26h0c-1.77.76-2.03,3.15-.46,4.27Z" style="fill: #bad839; stroke: #bad839; stroke-linejoin: round; stroke-width: 3.29px;"/>
    <path d="M862.21,501.55l7.6,5.45c.7.5,1.62.6,2.41.26h0c1.77-.76,2.03-3.15.47-4.28l-7.6-5.45c-.7-.5-1.62-.6-2.41-.26h0c-1.77.76-2.03,3.15-.47,4.28Z" style="fill: #bad839; stroke: #bad839; stroke-linejoin: round; stroke-width: 3.29px;"/>
    <path d="M876.64,493.67l7.6,5.45c.7.5,1.62.6,2.41.26h0c1.77-.76,2.03-3.15.47-4.28l-7.6-5.45c-.7-.5-1.62-.6-2.41-.26h0c-1.77.76-2.03,3.15-.47,4.28Z" style="fill: #bad839; stroke: #bad839; stroke-linejoin: round; stroke-width: 3.29px;"/>
    <path d="M869.71,497.95l7.6,5.45c.7.5,1.62.6,2.41.26h0c1.77-.76,2.03-3.15.47-4.28l-7.6-5.45c-.7-.5-1.62-.6-2.41-.26h0c-1.77.76-2.03,3.15-.47,4.28Z" style="fill: #bad839; stroke: #bad839; stroke-linejoin: round; stroke-width: 3.29px;"/>
    <path d="M882.58,489.96l7.6,5.45c.7.5,1.62.6,2.41.26h0c1.77-.76,2.03-3.15.47-4.28l-7.6-5.45c-.7-.5-1.62-.6-2.41-.26h0c-1.77.76-2.03,3.15-.47,4.28Z" style="fill: #bad839; stroke: #bad839; stroke-linejoin: round; stroke-width: 3.29px;"/>
    <path d="M848.31,510.65l7.6,5.45c.7.5,1.62.6,2.41.26h0c1.77-.76,2.03-3.15.47-4.28l-7.6-5.45c-.7-.5-1.62-.6-2.41-.26h0c-1.77.76-2.03,3.15-.47,4.28Z" style="fill: #bad839; stroke: #bad839; stroke-linejoin: round; stroke-width: 3.29px;"/>
    <path d="M855.26,506.09l7.6,5.45c.7.5,1.62.6,2.41.26h0c1.77-.76,2.03-3.15.47-4.28l-7.6-5.45c-.7-.5-1.62-.6-2.41-.26h0c-1.77.76-2.03,3.15-.47,4.28Z" style="fill: #bad839; stroke: #bad839; stroke-linejoin: round; stroke-width: 3.29px;"/>
  </g>
  <polygon points="834.84 524.78 834.84 538.3 899.55 585.23 899.55 571.43 834.84 524.78" style="fill: #a6c626; stroke: #a6c626; stroke-linejoin: round; stroke-width: 10px;"/>
  <polygon points="900.15 571.12 965.75 526.68 965.75 540.69 900.15 585.27 900.15 571.12" style="fill: #a6c626; stroke: #a6c626; stroke-linejoin: round; stroke-width: 10px;"/>
  <g>
    <path d="M962.84,542.17l7.67,5.05c.71.47,1.61.53,2.38.16h0c1.7-.81,1.87-3.17.29-4.21l-7.67-5.05c-.71-.47-1.61-.53-2.38-.16h0c-1.7.81-1.87,3.17-.29,4.21Z" style="fill: #90af0e; stroke: #90af0e; stroke-linejoin: round;"/>
    <path d="M904.45,581.04l7.67,5.05c.71.47,1.61.53,2.38.16h0c1.7-.81,1.87-3.17.29-4.21l-7.67-5.05c-.71-.47-1.61-.53-2.38-.16h0c-1.7.81-1.87,3.17-.29,4.21Z" style="fill: #90af0e; stroke: #90af0e; stroke-linejoin: round;"/>
    <path d="M911.1,576.29l7.67,5.05c.71.47,1.61.53,2.38.16h0c1.7-.81,1.87-3.17.29-4.21l-7.67-5.05c-.71-.47-1.61-.53-2.38-.16h0c-1.7.81-1.87,3.17-.29,4.21Z" style="fill: #90af0e; stroke: #90af0e; stroke-linejoin: round;"/>
    <path d="M917.67,572.75l7.67,5.06c.71.47,1.61.53,2.38.17h0c1.7-.81,1.87-3.17.29-4.21l-7.67-5.06c-.71-.47-1.61-.53-2.38-.17h0c-1.7.81-1.87,3.17-.29,4.21Z" style="fill: #90af0e; stroke: #90af0e; stroke-linejoin: round;"/>
    <path d="M938.47,559.48l7.67,5.05c.71.47,1.61.53,2.38.16h0c1.7-.81,1.87-3.17.29-4.21l-7.67-5.05c-.71-.47-1.61-.53-2.38-.16h0c-1.7.81-1.87,3.17-.29,4.21Z" style="fill: #90af0e; stroke: #90af0e; stroke-linejoin: round;"/>
    <path d="M950.52,550.51l7.67,5.05c.71.47,1.61.53,2.38.16h0c1.7-.81,1.87-3.17.29-4.21l-7.67-5.05c-.71-.47-1.61-.53-2.38-.16h0c-1.7.81-1.87,3.17-.29,4.21Z" style="fill: #90af0e; stroke: #90af0e; stroke-linejoin: round;"/>
    <path d="M944.8,555.01l7.67,5.05c.71.47,1.61.53,2.38.16h0c1.7-.81,1.87-3.17.29-4.21l-7.67-5.05c-.71-.47-1.61-.53-2.38-.16h0c-1.7.81-1.87,3.17-.29,4.21Z" style="fill: #90af0e; stroke: #90af0e; stroke-linejoin: round;"/>
    <path d="M957.12,546.67l7.67,5.05c.71.47,1.61.53,2.38.16h0c1.7-.81,1.87-3.17.29-4.21l-7.67-5.05c-.71-.47-1.61-.53-2.38-.16h0c-1.7.81-1.87,3.17-.29,4.21Z" style="fill: #90af0e; stroke: #90af0e; stroke-linejoin: round;"/>
    <path d="M924.3,568.31l7.67,5.05c.71.47,1.61.53,2.38.16h0c1.7-.81,1.87-3.17.29-4.21l-7.67-5.05c-.71-.47-1.61-.53-2.38-.16h0c-1.7.81-1.87,3.17-.29,4.21Z" style="fill: #90af0e; stroke: #90af0e; stroke-linejoin: round;"/>
    <path d="M930.93,563.87l7.67,5.05c.71.47,1.61.53,2.38.16h0c1.7-.81,1.87-3.17.29-4.21l-7.67-5.05c-.71-.47-1.61-.53-2.38-.16h0c-1.7.81-1.87,3.17-.29,4.21Z" style="fill: #90af0e; stroke: #90af0e; stroke-linejoin: round;"/>
  </g>
  <g>
    <path d="M835.24,539.71l-7.99,4.87c-.74.45-1.66.48-2.43.08h0c-1.71-.89-1.79-3.3-.14-4.3l7.99-4.87c.74-.45,1.66-.48,2.43-.08h0c1.71.89,1.79,3.3.14,4.3Z" style="fill: #bad839; stroke: #bad839; stroke-miterlimit: 10; stroke-width: .25px;"/>
    <path d="M893.28,581.39l-7.99,4.87c-.74.45-1.66.48-2.43.08h0c-1.71-.89-1.79-3.3-.14-4.3l7.99-4.87c.74-.45,1.66-.48,2.43-.08h0c1.71.89,1.79,3.3.14,4.3Z" style="fill: #bad839; stroke: #bad839; stroke-miterlimit: 10; stroke-width: .25px;"/>
    <path d="M886.68,576.31l-7.99,4.87c-.74.45-1.66.48-2.43.08h0c-1.71-.89-1.79-3.3-.14-4.3l7.99-4.87c.74-.45,1.66-.48,2.43-.08h0c1.71.89,1.79,3.3.14,4.3Z" style="fill: #bad839; stroke: #bad839; stroke-miterlimit: 10; stroke-width: .25px;"/>
    <path d="M880.12,572.47l-7.99,4.87c-.74.45-1.66.48-2.42.08h0c-1.7-.89-1.78-3.29-.14-4.3l7.99-4.87c.74-.45,1.66-.48,2.42-.08h0c1.7.89,1.78,3.29.14,4.3Z" style="fill: #bad839; stroke: #bad839; stroke-miterlimit: 10; stroke-width: .25px;"/>
    <path d="M859.43,558.21l-7.99,4.87c-.74.45-1.66.48-2.43.08h0c-1.71-.89-1.79-3.3-.14-4.3l7.99-4.87c.74-.45,1.66-.48,2.43-.08h0c1.71.89,1.79,3.3.14,4.3Z" style="fill: #bad839; stroke: #bad839; stroke-miterlimit: 10; stroke-width: .25px;"/>
    <path d="M847.48,548.65l-7.99,4.87c-.74.45-1.66.48-2.43.08h0c-1.71-.89-1.79-3.3-.14-4.3l7.99-4.87c.74-.45,1.66-.48,2.43-.08h0c1.71.89,1.79,3.3.14,4.3Z" style="fill: #bad839; stroke: #bad839; stroke-miterlimit: 10; stroke-width: .25px;"/>
    <path d="M853.14,553.44l-7.99,4.87c-.74.45-1.66.48-2.43.08h0c-1.71-.89-1.79-3.3-.14-4.3l7.99-4.87c.74-.45,1.66-.48,2.43-.08h0c1.71.89,1.79,3.3.14,4.3Z" style="fill: #bad839; stroke: #bad839; stroke-miterlimit: 10; stroke-width: .25px;"/>
    <path d="M840.91,544.5l-7.99,4.87c-.74.45-1.66.48-2.43.08h0c-1.71-.89-1.79-3.3-.14-4.3l7.99-4.87c.74-.45,1.66-.48,2.43-.08h0c1.71.89,1.79,3.3.14,4.3Z" style="fill: #bad839; stroke: #bad839; stroke-miterlimit: 10; stroke-width: .25px;"/>
    <path d="M873.53,567.71l-7.99,4.87c-.74.45-1.66.48-2.43.08h0c-1.71-.89-1.79-3.3-.14-4.3l7.99-4.87c.74-.45,1.66-.48,2.43-.08h0c1.71.89,1.79,3.3.14,4.3Z" style="fill: #bad839; stroke: #bad839; stroke-miterlimit: 10; stroke-width: .25px;"/>
    <path d="M866.94,562.95l-7.99,4.87c-.74.45-1.66.48-2.43.08h0c-1.71-.89-1.79-3.3-.14-4.3l7.99-4.87c.74-.45,1.66-.48,2.43-.08h0c1.71.89,1.79,3.3.14,4.3Z" style="fill: #bad839; stroke: #bad839; stroke-miterlimit: 10; stroke-width: .25px;"/>
  </g>
  <polygon points="961.66 527.96 899.53 570.04 838.47 525.87 900.67 488.03 961.66 527.96" style="fill: #ea550f; stroke: #ea550f; stroke-linejoin: round; stroke-width: 15px;"/>
  <polygon points="949.12 524.84 897.56 557.66 851.41 524.63 900.77 493.73 949.12 524.84" style="fill: #bc3a06; stroke: #f46f3b; stroke-linejoin: round; stroke-width: 8.41px;"/>
  <line x1="853.19" y1="521.6" x2="904.97" y2="555.67" style="fill: #bde5f1; stroke: #a6c626; stroke-linecap: round; stroke-miterlimit: 10; stroke-width: 2px;"/>
  <line x1="856.89" y1="518.52" x2="909.4" y2="553" style="fill: #bde5f1; stroke: #a6c626; stroke-linecap: round; stroke-miterlimit: 10; stroke-width: 2px;"/>
  <line x1="862.12" y1="516.37" x2="913.68" y2="550.22" style="fill: #bde5f1; stroke: #a6c626; stroke-linecap: round; stroke-miterlimit: 10; stroke-width: 2px;"/>
  <line x1="865.82" y1="513.59" x2="917.84" y2="547.5" style="fill: #bde5f1; stroke: #a6c626; stroke-linecap: round; stroke-miterlimit: 10; stroke-width: 2px;"/>
  <line x1="869.97" y1="510.91" x2="922.06" y2="544.8" style="fill: #bde5f1; stroke: #a6c626; stroke-linecap: round; stroke-miterlimit: 10; stroke-width: 2px;"/>
  <line x1="873.55" y1="507.8" x2="926.41" y2="542.19" style="fill: #bde5f1; stroke: #a6c626; stroke-linecap: round; stroke-miterlimit: 10; stroke-width: 2px;"/>
  <line x1="877.92" y1="505.2" x2="930" y2="539.07" style="fill: #bde5f1; stroke: #a6c626; stroke-linecap: round; stroke-miterlimit: 10; stroke-width: 2px;"/>
  <line x1="882.12" y1="502.49" x2="933.58" y2="535.96" style="fill: #bde5f1; stroke: #a6c626; stroke-linecap: round; stroke-miterlimit: 10; stroke-width: 2px;"/>
  <line x1="886.04" y1="500.06" x2="938.4" y2="534.12" style="fill: #bde5f1; stroke: #a6c626; stroke-linecap: round; stroke-miterlimit: 10; stroke-width: 2px;"/>
  <line x1="890.28" y1="497.08" x2="942.84" y2="531.27" style="fill: #bde5f1; stroke: #a6c626; stroke-linecap: round; stroke-miterlimit: 10; stroke-width: 2px;"/>
  <line x1="894.75" y1="494.39" x2="947.12" y2="528.68" style="fill: #bde5f1; stroke: #a6c626; stroke-linecap: round; stroke-miterlimit: 10; stroke-width: 2px;"/>
  <line x1="948.04" y1="521.29" x2="892.23" y2="557.05" style="fill: #bde5f1; stroke: #a6c626; stroke-linecap: round; stroke-miterlimit: 10; stroke-width: 2px;"/>
  <line x1="943.12" y1="518.52" x2="887.82" y2="553.67" style="fill: #bde5f1; stroke: #a6c626; stroke-linecap: round; stroke-miterlimit: 10; stroke-width: 2px;"/>
  <line x1="938.19" y1="515.44" x2="883.38" y2="550.41" style="fill: #bde5f1; stroke: #a6c626; stroke-linecap: round; stroke-miterlimit: 10; stroke-width: 2px;"/>
  <line x1="933.7" y1="512.46" x2="878.76" y2="547.28" style="fill: #bde5f1; stroke: #a6c626; stroke-linecap: round; stroke-miterlimit: 10; stroke-width: 2px;"/>
  <line x1="929.39" y1="509.13" x2="874.18" y2="544.12" style="fill: #bde5f1; stroke: #a6c626; stroke-linecap: round; stroke-miterlimit: 10; stroke-width: 2px;"/>
  <line x1="924.48" y1="506.17" x2="869.97" y2="540.72" style="fill: #bde5f1; stroke: #a6c626; stroke-linecap: round; stroke-miterlimit: 10; stroke-width: 2px;"/>
  <line x1="919.7" y1="503.13" x2="865.23" y2="537.65" style="fill: #bde5f1; stroke: #a6c626; stroke-linecap: round; stroke-miterlimit: 10; stroke-width: 2px;"/>
  <line x1="915.17" y1="499.94" x2="861.1" y2="534.21" style="fill: #bde5f1; stroke: #a6c626; stroke-linecap: round; stroke-miterlimit: 10; stroke-width: 2px;"/>
  <line x1="910.41" y1="496.88" x2="857.53" y2="530.4" style="fill: #bde5f1; stroke: #a6c626; stroke-linecap: round; stroke-miterlimit: 10; stroke-width: 2px;"/>
  <line x1="905.52" y1="493.95" x2="852.58" y2="527.76" style="fill: #bde5f1; stroke: #a6c626; stroke-linecap: round; stroke-miterlimit: 10; stroke-width: 2px;"/>
  <path d="M42.28,676.56c-.14-7.19-.08-14.81,0-22.24.25-1.08.87-3,2.57-4.28,1.61-1.21,3.44-1.26,4.28-1.28,4.01-.12,12.39-.49,23.52-.86" style="fill: none; stroke: #000; stroke-linecap: round; stroke-miterlimit: 10; stroke-width: 2px;"/>
  <line x1="120.41" y1="673.96" x2="120.41" y2="703.24" style="fill: none; stroke: #a6c626; stroke-linecap: round; stroke-miterlimit: 10; stroke-width: 4px;"/>
  <line x1="135.7" y1="669.83" x2="135.7" y2="706.31" style="fill: none; stroke: #a6c626; stroke-linecap: round; stroke-miterlimit: 10; stroke-width: 4px;"/>
  <line x1="153.17" y1="673.96" x2="153.17" y2="702.54" style="fill: none; stroke: #a6c626; stroke-linecap: round; stroke-miterlimit: 10; stroke-width: 4px;"/>
  <line x1="185.93" y1="674.9" x2="185.93" y2="704.73" style="fill: none; stroke: #a6c626; stroke-linecap: round; stroke-miterlimit: 10; stroke-width: 4px;"/>
  <path d="M234.95,698.85c.14,7.1.09,14.17.01,21.03-.01,1.29-.32,2.57-.98,3.68-.38.64-.9,1.28-1.6,1.8-1.61,1.21-3.44,1.26-4.28,1.28-4.01.12-12.39.49-23.52.86" style="fill: none; stroke: #000; stroke-linecap: round; stroke-miterlimit: 10; stroke-width: 2px;"/>
  <path d="M102.79,688.46c6.62-11.98,19.24-19.46,32.9-19.52,13.55-.06,26.14,7.2,32.9,18.96-6.39,12.27-19.09,20.02-32.9,20.08-13.69.05-26.36-7.46-32.9-19.52Z" style="fill: none; stroke: #ea550f; stroke-linecap: round; stroke-miterlimit: 10; stroke-width: 4px;"/>
  <line x1="83.79" y1="674.52" x2="83.79" y2="703.8" style="fill: none; stroke: #a6c626; stroke-linecap: round; stroke-miterlimit: 10; stroke-width: 4px;"/>
  <path d="M201.69,708.86c-13.69.05-26.36-7.46-32.9-19.52,6.62-11.98,19.24-19.46,32.9-19.52" style="fill: none; stroke: #ea550f; stroke-linecap: round; stroke-miterlimit: 10; stroke-width: 4px;"/>
  <path d="M68.45,669.83c13.55-.06,26.14,7.2,32.9,18.96-6.39,12.27-19.09,20.02-32.9,20.08" style="fill: none; stroke: #ea550f; stroke-linecap: round; stroke-miterlimit: 10; stroke-width: 4px;"/>
</svg>