<svg id="Layer_3" xmlns="http://www.w3.org/2000/svg" xmlns:xlink="http://www.w3.org/1999/xlink" viewBox="0 0 1024 1024" width="400">
  <defs>
    <style>
      .cls-1 {
        fill: #bde5f1;
      }

      .cls-1, .cls-2, .cls-3, .cls-4, .cls-5, .cls-6, .cls-7, .cls-8, .cls-9, .cls-10, .cls-11, .cls-12 {
        stroke-miterlimit: 10;
      }

      .cls-1, .cls-2, .cls-3, .cls-4, .cls-5, .cls-6, .cls-7, .cls-10, .cls-13, .cls-12 {
        stroke-linecap: round;
      }

      .cls-1, .cls-2, .cls-14 {
        stroke: #a6c626;
      }

      .cls-1, .cls-4 {
        stroke-width: 2px;
      }

      .cls-2, .cls-3, .cls-4, .cls-5, .cls-6, .cls-7, .cls-8, .cls-9, .cls-10, .cls-13 {
        fill: none;
      }

      .cls-2, .cls-5, .cls-6, .cls-9 {
        stroke-width: 4px;
      }

      .cls-15 {
        fill: #12006c;
      }

      .cls-3 {
        stroke: #c4c4c4;
        stroke-width: 18px;
      }

      .cls-4, .cls-9, .cls-12 {
        stroke: #000;
      }

      .cls-16 {
        fill: #bc3a06;
        stroke: #f46f3b;
        stroke-width: 8.41px;
      }

      .cls-16, .cls-17, .cls-18, .cls-19, .cls-13, .cls-14 {
        stroke-linejoin: round;
      }

      .cls-17 {
        fill: #90af0e;
        stroke: #90af0e;
      }

      .cls-20, .cls-12 {
        fill: #fff;
      }

      .cls-18 {
        stroke-width: 15px;
      }

      .cls-18, .cls-21 {
        fill: #ea550f;
      }

      .cls-18, .cls-6, .cls-7 {
        stroke: #ea550f;
      }

      .cls-22, .cls-14 {
        fill: #a6c626;
      }

      .cls-5, .cls-8 {
        stroke: #fff;
      }

      .cls-19 {
        stroke-width: 3.29px;
      }

      .cls-19, .cls-11 {
        fill: #bad839;
        stroke: #bad839;
      }

      .cls-23 {
        fill: #f49090;
      }

      .cls-7, .cls-8, .cls-12 {
        stroke-width: 3px;
      }

      .cls-24 {
        fill: #f69e9b;
      }

      .cls-25 {
        fill: #4b2f38;
      }

      .cls-26 {
        fill: #bfe0ff;
        opacity: .15;
      }

      .cls-27 {
        fill: #ccc;
      }

      .cls-28 {
        fill: #d88080;
      }

      .cls-10 {
        stroke-width: 7.75px;
      }

      .cls-10, .cls-13 {
        stroke: #4b2f38;
      }

      .cls-29 {
        fill: #f6a2a0;
      }

      .cls-13 {
        stroke-width: 3.49px;
      }

      .cls-11 {
        stroke-width: .25px;
      }

      .cls-14 {
        stroke-width: 10px;
      }
    </style>
  </defs>
  <g>
    <rect class="cls-26" x="19.79" y="574.07" width="226.93" height="109.44" rx="9.87" ry="9.87"/>
    <rect class="cls-8" x="19.79" y="574.07" width="226.93" height="109.44" rx="9.87" ry="9.87"/>
  </g>
  <rect class="cls-24" x="549.74" y="329.39" width="88.84" height="94.84" transform="translate(193.21 954.95) rotate(-87.64)"/>
  <path class="cls-28" d="M641.78,340.19l-.12,2.97c-1.43,34.67-30.99,61.86-65.66,60.43l-30.81-1.27.94-22.87,34.08,1.4c27.71,1.14,52.18-16.01,61.57-40.67Z"/>
  <path class="cls-24" d="M647.17,263.96l-2.66,64.49c-.22,5.28-1.21,10.35-2.9,15.13-.28.86-.6,1.7-.94,2.5-8.88,21.99-32.12,37.25-58.49,36.16l-33.71-1.39c-27.98-1.15-49.98-23.56-48.9-49.82l3.01-73.04c.04-1.05.12-2.1.25-3.12.11-1.13.28-2.27.51-3.37,1.87-9.97,7.07-18.82,14.45-25.59,9.65-8.89,23.07-14.18,37.62-13.59l42.82,1.76c25.09,1.03,45.37,19.17,48.52,41.83.39,2.62.53,5.31.42,8.02Z"/>
  <path class="cls-25" d="M628.28,231.02c10.49,12.85-10.26,30.87-4.01,49.19,5.6,16.41,5.73,26.76,25.73,15.72,27.66-15.28,30.31-65.02,14.58-85.13-6.7-8.57-13.5-7.6-32.65-13.59-51.58-16.13-56.21-40.02-86.91-40.32-23.94-.24-53.68,13.96-56.77,34.4-3.01,19.85,21.14,40.67,44.75,44.07,42.68,6.15,85.75-16.01,95.28-4.33Z"/>
  <path class="cls-29" d="M665.35,290.5c-.94,4.86-2.43,9.29-4.29,13.05,0,0-.02.03-.01.06-4.1,8.21-9.87,13.18-15.23,12.15-1.13-.22-2.16-.67-3.11-1.39-5.68-4.1-8.19-16.09-5.65-29.32.28-1.44.59-2.83.98-4.18,0,0,0-.03.01-.06,2.97-10.87,8.82-19,14.73-20.77,1.28-.39,2.56-.49,3.81-.25,7.81,1.5,11.73,15.25,8.76,30.72Z"/>
  <line class="cls-10" x1="514.75" y1="254.16" x2="540.12" y2="254.53"/>
  <line class="cls-10" x1="576.12" y1="256.33" x2="601.49" y2="256.7"/>
  <circle class="cls-25" cx="527.46" cy="278.5" r="8.77"/>
  <circle class="cls-25" cx="585.1" cy="280.3" r="8.77"/>
  <path class="cls-13" d="M549.45,293.8l-.77,18.78c-.12,2.96,2.18,5.45,5.13,5.57l8.82.36"/>
  <path class="cls-13" d="M538.24,341.34c1.61,1.62,7.24,6.87,16.27,7.88,10.04,1.12,17.26-3.78,18.96-5"/>
  <path class="cls-13" d="M643.02,295.13c.24-6.27,2.35-12.74,5.49-16.8s6.81-5.08,9.53-2.63"/>
  <path class="cls-20" d="M501.8,420.16h172.39c25.03,0,45.35,20.32,45.35,45.35v311.1c0,8.65-7.03,15.68-15.68,15.68h-162.94c-62.47,0-113.19-50.72-113.19-113.19v-184.87c0-40.88,33.19-74.07,74.07-74.07Z"/>
  <ellipse class="cls-24" cx="594.9" cy="423.08" rx="49.3" ry="19.44"/>
  <path class="cls-24" d="M692.32,631.58c5.35-4.09,16.32-11.39,40.2-11.95,24.79-.58,32.94,8.8,38.3,12.67-1.41,13.42-1.43,26.3-7.51,36.08-51.39,82.61-152.58,101.61-186.67,106.49-.21-12.19-.43-24.38-.64-36.56,13.03-2.46,58.83-12.77,89.17-54.53,12.9-17.75,24.22-39.58,27.16-52.2Z"/>
  <path class="cls-15" d="M545.19,402.32c2.35,3.43,9.64,25.94,37.78,29.55,34.17,4.38,56.7-21.13,58.37-23.09,15.75,4.54,33.02,10.39,51.32,17.96,31.58,13.07,43.72,14.76,53.88,26.3,9.41,10.68,12.59,22.32,14.75,31.43,12.67,53.34,8.41,131.92,9.52,152.06-5.56-4.89-5.94-9.15-19.14-12.22-33.59-7.81-58.92,11.19-62.24,14.14-2.57-26.09-7.04-47.71-9.61-73.8-2.36-4.95-5.78-13.16-7.7-23.73-5.24-28.85,6.47-43.46,2.57-62.22-2.32-11.15-10.74-26.61-40.41-41.7-6.44,4.22-24.97,15.15-50.68,14.11-29.81-1.2-49.25-17.67-54.53-22.45l-39.77,8.34c-4.24,1.78-10.61,5.03-16.68,10.91-9.37,9.06-12.91,19.41-14.75,25.02-5.87,17.83-17.17,56.11-30.15,107.13-16.04-16.89-32.07-33.78-48.11-50.68,21.17-31.65,42.34-63.29,63.51-94.94,8.98-6.2,17.96-12.4,26.94-18.6,22.45-4.06,52.67-9.45,75.12-13.51Z"/>
  <path class="cls-24" d="M351.05,441.57c9.12,8.98,9.36,23.2,9.4,33.46.13,33.78-15.52,88.83-19.24,113.48-10.37,68.61,51.41,143.72,75.7,138.26,11.47-2.58,22.62-24.83,23.38-106.91.06-6.56-1.25-13.07-3.85-19.09-9.44-21.84-15.87-40.79-20.22-55.16-19.55-64.53-14.38-93.4-12.15-103.49.66-3,1.39-5.79,2.12-8.34,2.21-7.65,1.52-15.85-2.07-22.96-11.19-22.15-22.15-46.15-32.41-71.99-4.94-12.44-9.46-24.65-13.6-36.57-1.93-.95-6.19-2.7-10.23-1.07-5.23,2.1-6.86,8.55-7.71,11.94-5.86,23.24,24.18,59.28,20.05,63.2-1.53,1.44-8.08-1.06-31.9-20.84-1.24-.59-3.36-1.36-5.86-1.05-2.5.32-4.27,1.59-5.22,2.31-3.75,2.89-17.61,14.99-36.11,31.8-.6,4.21.89,6.48,1.38,7.14,3.05,4.14,10.88,5.11,18.45.79-14.5,14.51-20.6,23.52-18.29,27.05,1.64,2.51,7.54,2.24,17.7-.81-.34,5.07-.68,10.14-1.01,15.21-.07,1.03.05,2.07.34,3.06.49,1.63.78,2.62.78,2.62.03,0,8.24-.52,10.93-4.29,2.71-3.79-.19-8.51,1.27-16.61.24-1.31.68-5.77,6.22-8.39,4.74-2.24,9.2-2.17,12.64.64,4.55,3.72,3.48,7.74,7.62,14.64,3.94,6.57,8.09,8.23,11.89,11.97Z"/>
  <path class="cls-23" d="M378.36,398.42c-2.56-.67-8.13-2.5-12.92-7.61-2.98-3.18-4.57-6.46-5.41-8.67-4.72-.39-7.11,1.11-8.17,1.98-5.88,4.83-3.77,17.44,1.63,25.05,3.26,4.6,7.48,7.03,10.08,8.24,1.63,1.98,3.67,4.95,4.96,8.91,2.05,6.27.51,9.7,2.16,11.24,1.85,1.73,7.31.66,21.64-9.07,3.48-2.36,4.22-7.18,1.61-10.47-5.19-6.53-10.38-13.07-15.58-19.6Z"/>
  <ellipse class="cls-23" cx="375.49" cy="427.56" rx="20.69" ry="16.04" transform="translate(-74.27 78.97) rotate(-10.93)"/>
  <line class="cls-3" x1="611.69" y1="782.9" x2="684.82" y2="782.9"/>
  <path class="cls-27" d="M619.39,792.29h-300.29c-13.37,0-24.85-9.5-27.35-22.64l-34.62-182.1c-3.26-17.15,9.89-33.04,27.35-33.04h300.29c13.37,0,24.85,9.5,27.35,22.64l34.62,182.1c3.26,17.15-9.89,33.04-27.35,33.04Z"/>
  <image width="1024" height="1024" transform="translate(412.38 646.62) rotate(-5.55) scale(.05)" xlink:href="../../../../../../Downloads/Techysquad-Logo-01.png"/>
  <g>
    <rect class="cls-26" x="98.91" y="209.38" width="350.46" height="234.78" rx="26.55" ry="26.55"/>
    <rect class="cls-8" x="98.91" y="209.38" width="350.46" height="234.78" rx="26.55" ry="26.55"/>
  </g>
  <path class="cls-6" d="M309.16,301.62c3.42-12.99,13.86-23.35,27.29-27.3"/>
  <path class="cls-5" d="M336.61,347.47c-16.58-4.8-28.64-19.37-28.64-36.6,0-3.19.41-6.29,1.19-9.26"/>
  <path class="cls-6" d="M343.49,348.86c-2.36-.28-4.66-.74-6.88-1.39"/>
  <path class="cls-5" d="M376.6,338.47c-7.29,6.61-17.19,10.68-28.09,10.68-1.7,0-3.37-.1-5.02-.29"/>
  <path class="cls-6" d="M388.05,319.38c-1.78,7.41-5.84,14-11.44,19.09"/>
  <path class="cls-5" d="M357.54,273.55c18.04,3.88,31.51,19.11,31.51,37.32,0,2.92-.35,5.77-1,8.5"/>
  <path class="cls-6" d="M344.38,272.79c1.36-.13,2.74-.2,4.13-.2,3.1,0,6.13.33,9.03.95"/>
  <path class="cls-5" d="M336.46,274.32c2.54-.75,5.19-1.26,7.92-1.52"/>
  <path class="cls-2" d="M355.77,285.31c10.73,3.09,18.59,12.99,18.59,24.72,0,2.9-.48,5.69-1.37,8.29"/>
  <path class="cls-5" d="M323.83,303.17c3-10.88,12.97-18.86,24.8-18.86,2.48,0,4.87.35,7.14,1"/>
  <path class="cls-2" d="M343.49,335.24c-11.75-2.38-20.59-12.76-20.59-25.21,0-2.38.32-4.67.92-6.86"/>
  <path class="cls-5" d="M372.99,318.32c-3.45,10.14-13.05,17.43-24.36,17.43-1.76,0-3.48-.18-5.14-.51"/>
  <path class="cls-2" d="M410.81,422.09c1.83-.23,3.29-1.03,5.72-2.83,2.67-1.98,2.61-5.91,2.66-9.64.11-8.2-.6-64.56-.04-145.98"/>
  <circle class="cls-20" cx="348.55" cy="309.95" r="8.14"/>
  <circle class="cls-21" cx="418.54" cy="261.43" r="5.13" transform="translate(117.14 652.17) rotate(-84.35)"/>
  <circle class="cls-21" cx="409.08" cy="421.9" r="4.33"/>
  <path class="cls-2" d="M301.55,266.53c.11-8.23.21-16.46.32-24.7.21-.89.82-2.85,2.57-4.6,2.25-2.25,4.92-2.68,5.77-2.78,9.44-.07,18.89-.14,28.33-.21"/>
  <circle class="cls-21" cx="339.56" cy="234.72" r="5.13" transform="translate(72.52 549.5) rotate(-84.35)"/>
  <circle class="cls-21" cx="301.87" cy="269.9" r="5.13" transform="translate(3.54 543.7) rotate(-84.35)"/>
  <polygon class="cls-21" points="283.88 301.81 250.74 286.39 250.74 242.37 283.88 257.79 283.88 301.81"/>
  <path class="cls-7" d="M250.98,306.52c-.07,25.52-.14,51.03-.21,76.55-.44.92-1.33,2.46-2.99,3.85-1.46,1.23-2.92,1.83-3.85,2.14-18.39-.07-36.78-.14-55.17-.21-.98-.43-2.73-1.36-4.28-3.21-1.22-1.45-1.83-2.9-2.14-3.85-.07-33.5-.14-67-.21-100.5.36-.96,1.33-3.15,3.64-4.92,1.95-1.5,3.92-1.97,4.92-2.14,10.98-.36,21.95-.71,32.93-1.07"/>
  <polygon class="cls-12" points="220.62 297.21 248.76 284.93 248.76 245.2 220.62 258.4 220.62 297.21"/>
  <polygon class="cls-22" points="283.88 301.81 250.74 311.54 218.59 299.99 250.34 286.2 283.88 301.81"/>
  <polygon class="cls-21" points="149.99 363.33 183.13 347.91 183.13 303.88 149.99 319.3 149.99 363.33"/>
  <polygon class="cls-12" points="213.25 358.73 185.11 346.44 185.11 306.71 213.25 319.92 213.25 358.73"/>
  <polygon class="cls-22" points="149.99 363.33 183.13 373.05 215.28 361.51 183.53 347.71 149.99 363.33"/>
  <line class="cls-9" x1="93.05" y1="794.8" x2="887.52" y2="794.8"/>
  <g>
    <ellipse class="cls-8" cx="898.88" cy="471.82" rx="102.29" ry="99.06"/>
    <ellipse class="cls-26" cx="898.88" cy="471.82" rx="102.29" ry="99.06"/>
  </g>
  <g>
    <path class="cls-19" d="M905.95,427.86l-7.78,5.2c-.72.48-1.64.55-2.42.18h0c-1.74-.82-1.92-3.22-.33-4.29l7.78-5.2c.72-.48,1.64-.55,2.42-.18h0c1.74.82,1.92,3.22.33,4.29Z"/>
    <path class="cls-19" d="M965.7,467.04l-7.78,5.2c-.72.48-1.64.55-2.42.18h0c-1.74-.82-1.92-3.22-.33-4.29l7.78-5.2c.72-.48,1.64-.55,2.42-.18h0c1.74.82,1.92,3.22.33,4.29Z"/>
    <path class="cls-19" d="M958.9,462.25l-7.78,5.2c-.72.48-1.64.55-2.42.18h0c-1.74-.82-1.92-3.22-.33-4.29l7.78-5.2c.72-.48,1.64-.55,2.42-.18h0c1.74.82,1.92,3.22.33,4.29Z"/>
    <path class="cls-19" d="M952.17,458.7l-7.78,5.2c-.72.48-1.64.55-2.42.19h0c-1.74-.81-1.92-3.22-.32-4.29l7.78-5.2c.72-.48,1.64-.55,2.42-.19h0c1.74.81,1.92,3.22.32,4.29Z"/>
    <path class="cls-19" d="M930.9,445.32l-7.78,5.2c-.72.48-1.64.55-2.42.18h0c-1.74-.82-1.92-3.22-.33-4.29l7.78-5.2c.72-.48,1.64-.55,2.42-.18h0c1.74.82,1.92,3.22.33,4.29Z"/>
    <path class="cls-19" d="M918.56,436.27l-7.78,5.2c-.72.48-1.64.55-2.42.18h0c-1.74-.82-1.92-3.22-.33-4.29l7.78-5.2c.72-.48,1.64-.55,2.42-.18h0c1.74.82,1.92,3.22.33,4.29Z"/>
    <path class="cls-19" d="M924.42,440.82l-7.78,5.2c-.72.48-1.64.55-2.42.18h0c-1.74-.82-1.92-3.22-.33-4.29l7.78-5.2c.72-.48,1.64-.55,2.42-.18h0c1.74.82,1.92,3.22.33,4.29Z"/>
    <path class="cls-19" d="M911.82,432.41l-7.78,5.2c-.72.48-1.64.55-2.42.18h0c-1.74-.82-1.92-3.22-.33-4.29l7.78-5.2c.72-.48,1.64-.55,2.42-.18h0c1.74.82,1.92,3.22.33,4.29Z"/>
    <path class="cls-19" d="M945.39,454.22l-7.78,5.2c-.72.48-1.64.55-2.42.18h0c-1.74-.82-1.92-3.22-.33-4.29l7.78-5.2c.72-.48,1.64-.55,2.42-.18h0c1.74.82,1.92,3.22.33,4.29Z"/>
    <path class="cls-19" d="M938.61,449.73l-7.78,5.2c-.72.48-1.64.55-2.42.18h0c-1.74-.82-1.92-3.22-.33-4.29l7.78-5.2c.72-.48,1.64-.55,2.42-.18h0c1.74.82,1.92,3.22.33,4.29Z"/>
  </g>
  <g>
    <path class="cls-19" d="M884.69,427.49l7.6,5.45c.7.5,1.62.6,2.41.26h0c1.77-.76,2.03-3.15.47-4.28l-7.6-5.45c-.7-.5-1.62-.6-2.41-.26h0c-1.77.76-2.03,3.15-.47,4.28Z"/>
    <path class="cls-19" d="M822.77,464.61l7.6,5.45c.7.5,1.62.6,2.41.26h0c1.77-.76,2.03-3.15.47-4.28l-7.6-5.45c-.7-.5-1.62-.6-2.41-.26h0c-1.77.76-2.03,3.15-.47,4.28Z"/>
    <path class="cls-19" d="M829.72,460.05l7.6,5.45c.7.5,1.62.6,2.41.26h0c1.77-.76,2.03-3.15.47-4.28l-7.6-5.45c-.7-.5-1.62-.6-2.41-.26h0c-1.77.76-2.03,3.15-.47,4.28Z"/>
    <path class="cls-19" d="M836.56,456.71l7.6,5.46c.7.5,1.62.6,2.41.26h0c1.77-.76,2.03-3.15.46-4.27l-7.6-5.46c-.7-.5-1.62-.6-2.41-.26h0c-1.77.76-2.03,3.15-.46,4.27Z"/>
    <path class="cls-19" d="M857.39,443.36l7.6,5.45c.7.5,1.62.6,2.41.26h0c1.77-.76,2.03-3.15.47-4.28l-7.6-5.45c-.7-.5-1.62-.6-2.41-.26h0c-1.77.76-2.03,3.15-.47,4.28Z"/>
    <path class="cls-19" d="M871.81,435.48l7.6,5.45c.7.5,1.62.6,2.41.26h0c1.77-.76,2.03-3.15.47-4.28l-7.6-5.45c-.7-.5-1.62-.6-2.41-.26h0c-1.77.76-2.03,3.15-.47,4.28Z"/>
    <path class="cls-19" d="M864.88,439.76l7.6,5.45c.7.5,1.62.6,2.41.26h0c1.77-.76,2.03-3.15.47-4.28l-7.6-5.45c-.7-.5-1.62-.6-2.41-.26h0c-1.77.76-2.03,3.15-.47,4.28Z"/>
    <path class="cls-19" d="M877.76,431.77l7.6,5.45c.7.5,1.62.6,2.41.26h0c1.77-.76,2.03-3.15.47-4.28l-7.6-5.45c-.7-.5-1.62-.6-2.41-.26h0c-1.77.76-2.03,3.15-.47,4.28Z"/>
    <path class="cls-19" d="M843.49,452.46l7.6,5.45c.7.5,1.62.6,2.41.26h0c1.77-.76,2.03-3.15.47-4.28l-7.6-5.45c-.7-.5-1.62-.6-2.41-.26h0c-1.77.76-2.03,3.15-.47,4.28Z"/>
    <path class="cls-19" d="M850.44,447.9l7.6,5.45c.7.5,1.62.6,2.41.26h0c1.77-.76,2.03-3.15.47-4.28l-7.6-5.45c-.7-.5-1.62-.6-2.41-.26h0c-1.77.76-2.03,3.15-.47,4.28Z"/>
  </g>
  <polygon class="cls-14" points="830.02 466.59 830.02 480.1 894.72 527.04 894.72 513.23 830.02 466.59"/>
  <polygon class="cls-14" points="895.33 512.93 960.93 468.49 960.93 482.5 895.33 527.08 895.33 512.93"/>
  <g>
    <path class="cls-17" d="M958.02,483.98l7.67,5.05c.71.47,1.61.53,2.38.16h0c1.7-.81,1.87-3.17.29-4.21l-7.67-5.05c-.71-.47-1.61-.53-2.38-.16h0c-1.7.81-1.87,3.17-.29,4.21Z"/>
    <path class="cls-17" d="M899.62,522.85l7.67,5.05c.71.47,1.61.53,2.38.16h0c1.7-.81,1.87-3.17.29-4.21l-7.67-5.05c-.71-.47-1.61-.53-2.38-.16h0c-1.7.81-1.87,3.17-.29,4.21Z"/>
    <path class="cls-17" d="M906.27,518.1l7.67,5.05c.71.47,1.61.53,2.38.16h0c1.7-.81,1.87-3.17.29-4.21l-7.67-5.05c-.71-.47-1.61-.53-2.38-.16h0c-1.7.81-1.87,3.17-.29,4.21Z"/>
    <path class="cls-17" d="M912.85,514.56l7.67,5.06c.71.47,1.61.53,2.38.17h0c1.7-.81,1.87-3.17.29-4.21l-7.67-5.06c-.71-.47-1.61-.53-2.38-.17h0c-1.7.81-1.87,3.17-.29,4.21Z"/>
    <path class="cls-17" d="M933.64,501.28l7.67,5.05c.71.47,1.61.53,2.38.16h0c1.7-.81,1.87-3.17.29-4.21l-7.67-5.05c-.71-.47-1.61-.53-2.38-.16h0c-1.7.81-1.87,3.17-.29,4.21Z"/>
    <path class="cls-17" d="M945.7,492.32l7.67,5.05c.71.47,1.61.53,2.38.16h0c1.7-.81,1.87-3.17.29-4.21l-7.67-5.05c-.71-.47-1.61-.53-2.38-.16h0c-1.7.81-1.87,3.17-.29,4.21Z"/>
    <path class="cls-17" d="M939.97,496.82l7.67,5.05c.71.47,1.61.53,2.38.16h0c1.7-.81,1.87-3.17.29-4.21l-7.67-5.05c-.71-.47-1.61-.53-2.38-.16h0c-1.7.81-1.87,3.17-.29,4.21Z"/>
    <path class="cls-17" d="M952.29,488.48l7.67,5.05c.71.47,1.61.53,2.38.16h0c1.7-.81,1.87-3.17.29-4.21l-7.67-5.05c-.71-.47-1.61-.53-2.38-.16h0c-1.7.81-1.87,3.17-.29,4.21Z"/>
    <path class="cls-17" d="M919.48,510.12l7.67,5.05c.71.47,1.61.53,2.38.16h0c1.7-.81,1.87-3.17.29-4.21l-7.67-5.05c-.71-.47-1.61-.53-2.38-.16h0c-1.7.81-1.87,3.17-.29,4.21Z"/>
    <path class="cls-17" d="M926.11,505.67l7.67,5.05c.71.47,1.61.53,2.38.16h0c1.7-.81,1.87-3.17.29-4.21l-7.67-5.05c-.71-.47-1.61-.53-2.38-.16h0c-1.7.81-1.87,3.17-.29,4.21Z"/>
  </g>
  <g>
    <path class="cls-11" d="M830.42,481.52l-7.99,4.87c-.74.45-1.66.48-2.43.08h0c-1.71-.89-1.79-3.3-.14-4.3l7.99-4.87c.74-.45,1.66-.48,2.43-.08h0c1.71.89,1.79,3.3.14,4.3Z"/>
    <path class="cls-11" d="M888.45,523.19l-7.99,4.87c-.74.45-1.66.48-2.43.08h0c-1.71-.89-1.79-3.3-.14-4.3l7.99-4.87c.74-.45,1.66-.48,2.43-.08h0c1.71.89,1.79,3.3.14,4.3Z"/>
    <path class="cls-11" d="M881.86,518.12l-7.99,4.87c-.74.45-1.66.48-2.43.08h0c-1.71-.89-1.79-3.3-.14-4.3l7.99-4.87c.74-.45,1.66-.48,2.43-.08h0c1.71.89,1.79,3.3.14,4.3Z"/>
    <path class="cls-11" d="M875.29,514.28l-7.99,4.87c-.74.45-1.66.48-2.42.08h0c-1.7-.89-1.78-3.29-.14-4.3l7.99-4.87c.74-.45,1.66-.48,2.42-.08h0c1.7.89,1.78,3.29.14,4.3Z"/>
    <path class="cls-11" d="M854.6,500.01l-7.99,4.87c-.74.45-1.66.48-2.43.08h0c-1.71-.89-1.79-3.3-.14-4.3l7.99-4.87c.74-.45,1.66-.48,2.43-.08h0c1.71.89,1.79,3.3.14,4.3Z"/>
    <path class="cls-11" d="M842.66,490.46l-7.99,4.87c-.74.45-1.66.48-2.43.08h0c-1.71-.89-1.79-3.3-.14-4.3l7.99-4.87c.74-.45,1.66-.48,2.43-.08h0c1.71.89,1.79,3.3.14,4.3Z"/>
    <path class="cls-11" d="M848.32,495.24l-7.99,4.87c-.74.45-1.66.48-2.43.08h0c-1.71-.89-1.79-3.3-.14-4.3l7.99-4.87c.74-.45,1.66-.48,2.43-.08h0c1.71.89,1.79,3.3.14,4.3Z"/>
    <path class="cls-11" d="M836.08,486.31l-7.99,4.87c-.74.45-1.66.48-2.43.08h0c-1.71-.89-1.79-3.3-.14-4.3l7.99-4.87c.74-.45,1.66-.48,2.43-.08h0c1.71.89,1.79,3.3.14,4.3Z"/>
    <path class="cls-11" d="M868.7,509.52l-7.99,4.87c-.74.45-1.66.48-2.43.08h0c-1.71-.89-1.79-3.3-.14-4.3l7.99-4.87c.74-.45,1.66-.48,2.43-.08h0c1.71.89,1.79,3.3.14,4.3Z"/>
    <path class="cls-11" d="M862.11,504.75l-7.99,4.87c-.74.45-1.66.48-2.43.08h0c-1.71-.89-1.79-3.3-.14-4.3l7.99-4.87c.74-.45,1.66-.48,2.43-.08h0c1.71.89,1.79,3.3.14,4.3Z"/>
  </g>
  <polygon class="cls-18" points="956.84 469.76 894.71 511.85 833.65 467.68 895.84 429.84 956.84 469.76"/>
  <polygon class="cls-16" points="944.3 466.64 892.74 499.47 846.59 466.44 895.95 435.54 944.3 466.64"/>
  <line class="cls-1" x1="848.37" y1="463.41" x2="900.14" y2="497.48"/>
  <line class="cls-1" x1="852.07" y1="460.33" x2="904.57" y2="494.8"/>
  <line class="cls-1" x1="857.3" y1="458.17" x2="908.85" y2="492.03"/>
  <line class="cls-1" x1="861" y1="455.4" x2="913.02" y2="489.3"/>
  <line class="cls-1" x1="865.14" y1="452.72" x2="917.23" y2="486.6"/>
  <line class="cls-1" x1="868.73" y1="449.61" x2="921.59" y2="483.99"/>
  <line class="cls-1" x1="873.1" y1="447.01" x2="925.17" y2="480.88"/>
  <line class="cls-1" x1="877.29" y1="444.29" x2="928.76" y2="477.77"/>
  <line class="cls-1" x1="881.21" y1="441.87" x2="933.57" y2="475.93"/>
  <line class="cls-1" x1="885.45" y1="438.88" x2="938.01" y2="473.07"/>
  <line class="cls-1" x1="889.93" y1="436.2" x2="942.3" y2="470.49"/>
  <line class="cls-1" x1="943.22" y1="463.1" x2="887.41" y2="498.85"/>
  <line class="cls-1" x1="938.29" y1="460.33" x2="882.99" y2="495.48"/>
  <line class="cls-1" x1="933.37" y1="457.25" x2="878.56" y2="492.21"/>
  <line class="cls-1" x1="928.88" y1="454.27" x2="873.94" y2="489.09"/>
  <line class="cls-1" x1="924.57" y1="450.94" x2="869.36" y2="485.93"/>
  <line class="cls-1" x1="919.66" y1="447.98" x2="865.14" y2="482.53"/>
  <line class="cls-1" x1="914.88" y1="444.94" x2="860.41" y2="479.46"/>
  <line class="cls-1" x1="910.35" y1="441.74" x2="856.27" y2="476.01"/>
  <line class="cls-1" x1="905.59" y1="438.69" x2="852.71" y2="472.21"/>
  <line class="cls-1" x1="900.69" y1="435.76" x2="847.75" y2="469.57"/>
  <path class="cls-4" d="M37.46,618.37c-.14-7.19-.08-14.81,0-22.24.25-1.08.87-3,2.57-4.28,1.61-1.21,3.44-1.26,4.28-1.28,4.01-.12,12.39-.49,23.52-.86"/>
  <line class="cls-2" x1="115.58" y1="615.77" x2="115.58" y2="645.05"/>
  <line class="cls-2" x1="130.87" y1="611.63" x2="130.87" y2="648.11"/>
  <line class="cls-2" x1="148.35" y1="615.77" x2="148.35" y2="644.35"/>
  <line class="cls-2" x1="181.11" y1="616.71" x2="181.11" y2="646.53"/>
  <path class="cls-4" d="M230.12,640.65c.14,7.1.09,14.17.01,21.03-.01,1.29-.32,2.57-.98,3.68-.38.64-.9,1.28-1.6,1.8-1.61,1.21-3.44,1.26-4.28,1.28-4.01.12-12.39.49-23.52.86"/>
  <path class="cls-6" d="M97.97,630.27c6.62-11.98,19.24-19.46,32.9-19.52,13.55-.06,26.14,7.2,32.9,18.96-6.39,12.27-19.09,20.02-32.9,20.08-13.69.05-26.36-7.46-32.9-19.52Z"/>
  <line class="cls-2" x1="78.96" y1="616.33" x2="78.96" y2="645.6"/>
  <path class="cls-6" d="M196.87,650.67c-13.69.05-26.36-7.46-32.9-19.52,6.62-11.98,19.24-19.46,32.9-19.52"/>
  <path class="cls-6" d="M63.63,611.63c13.55-.06,26.14,7.2,32.9,18.96-6.39,12.27-19.09,20.02-32.9,20.08"/>
</svg>