<svg width="194" height="193" viewBox="0 0 194 193" fill="none" xmlns="http://www.w3.org/2000/svg">
<g filter="url(#filter0_d_314_31)">
<rect width="147" height="93" rx="12" fill="white"/>
<rect x="3" y="3" width="141" height="87" rx="9" stroke="black" stroke-width="6"/>
</g>
<g filter="url(#filter1_d_314_31)">
<rect y="103" width="108" height="71" rx="8" fill="white"/>
<rect x="2.5" y="105.5" width="103" height="66" rx="5.5" stroke="#252525" stroke-width="5"/>
</g>
<g filter="url(#filter2_d_314_31)">
<rect x="118.331" y="103.934" width="67" height="47" rx="6" transform="rotate(0.341951 118.331 103.934)" fill="white"/>
<rect x="120.319" y="105.946" width="63" height="43" rx="4" transform="rotate(0.341951 120.319 105.946)" stroke="black" stroke-width="4"/>
</g>
<rect x="159" y="47" width="23.6667" height="42" rx="5" fill="white" stroke="black" stroke-width="2"/>
<g filter="url(#filter3_d_314_31)">
<rect x="122" y="163" width="37" height="22" rx="4" fill="white"/>
</g>
<rect x="47" y="23" width="23" height="23" rx="2" fill="#A6C626"/>
<rect x="47" y="47" width="23" height="23" rx="2" fill="black"/>
<rect x="71" y="23" width="23" height="23" rx="2" fill="#EA550F"/>
<rect x="32" y="118" width="20.0638" height="20.0638" rx="2" fill="#A6C626"/>
<rect x="32" y="138.936" width="20.0638" height="20.0638" rx="2" fill="black"/>
<rect x="52.9362" y="118" width="20.0638" height="20.0638" rx="2" fill="#EA550F"/>
<rect x="138" y="113.66" width="13.9049" height="13.9049" rx="2" fill="#A6C626"/>
<rect x="138" y="128.755" width="13.9049" height="13.9049" rx="2" fill="black"/>
<rect x="153.095" y="113.66" width="13.9049" height="13.9049" rx="2" fill="#EA550F"/>
<rect x="163" y="60" width="8.31915" height="8.31915" rx="1" fill="#A6C626"/>
<rect x="163" y="69" width="8.31915" height="8.31915" rx="1" fill="black"/>
<rect x="172" y="60" width="8.31915" height="8.31915" rx="1" fill="#EA550F"/>
<rect x="143" y="168" width="6.3617" height="6.3617" rx="1" fill="#A6C626"/>
<rect x="143" y="175" width="6.3617" height="6.3617" rx="1" fill="black"/>
<rect x="150" y="168" width="6.3617" height="6.3617" rx="1" fill="#EA550F"/>
<defs>
<filter id="filter0_d_314_31" x="0" y="0" width="155" height="101" filterUnits="userSpaceOnUse" color-interpolation-filters="sRGB">
<feFlood flood-opacity="0" result="BackgroundImageFix"/>
<feColorMatrix in="SourceAlpha" type="matrix" values="0 0 0 0 0 0 0 0 0 0 0 0 0 0 0 0 0 0 127 0" result="hardAlpha"/>
<feOffset dx="4" dy="4"/>
<feGaussianBlur stdDeviation="2"/>
<feComposite in2="hardAlpha" operator="out"/>
<feColorMatrix type="matrix" values="0 0 0 0 0 0 0 0 0 0 0 0 0 0 0 0 0 0 0.25 0"/>
<feBlend mode="normal" in2="BackgroundImageFix" result="effect1_dropShadow_314_31"/>
<feBlend mode="normal" in="SourceGraphic" in2="effect1_dropShadow_314_31" result="shape"/>
</filter>
<filter id="filter1_d_314_31" x="0" y="103" width="116" height="79" filterUnits="userSpaceOnUse" color-interpolation-filters="sRGB">
<feFlood flood-opacity="0" result="BackgroundImageFix"/>
<feColorMatrix in="SourceAlpha" type="matrix" values="0 0 0 0 0 0 0 0 0 0 0 0 0 0 0 0 0 0 127 0" result="hardAlpha"/>
<feOffset dx="4" dy="4"/>
<feGaussianBlur stdDeviation="2"/>
<feComposite in2="hardAlpha" operator="out"/>
<feColorMatrix type="matrix" values="0 0 0 0 0 0 0 0 0 0 0 0 0 0 0 0 0 0 0.25 0"/>
<feBlend mode="normal" in2="BackgroundImageFix" result="effect1_dropShadow_314_31"/>
<feBlend mode="normal" in="SourceGraphic" in2="effect1_dropShadow_314_31" result="shape"/>
</filter>
<filter id="filter2_d_314_31" x="118.087" y="103.969" width="75.2079" height="55.3276" filterUnits="userSpaceOnUse" color-interpolation-filters="sRGB">
<feFlood flood-opacity="0" result="BackgroundImageFix"/>
<feColorMatrix in="SourceAlpha" type="matrix" values="0 0 0 0 0 0 0 0 0 0 0 0 0 0 0 0 0 0 127 0" result="hardAlpha"/>
<feOffset dx="4" dy="4"/>
<feGaussianBlur stdDeviation="2"/>
<feComposite in2="hardAlpha" operator="out"/>
<feColorMatrix type="matrix" values="0 0 0 0 0 0 0 0 0 0 0 0 0 0 0 0 0 0 0.25 0"/>
<feBlend mode="normal" in2="BackgroundImageFix" result="effect1_dropShadow_314_31"/>
<feBlend mode="normal" in="SourceGraphic" in2="effect1_dropShadow_314_31" result="shape"/>
</filter>
<filter id="filter3_d_314_31" x="122" y="163" width="45" height="30" filterUnits="userSpaceOnUse" color-interpolation-filters="sRGB">
<feFlood flood-opacity="0" result="BackgroundImageFix"/>
<feColorMatrix in="SourceAlpha" type="matrix" values="0 0 0 0 0 0 0 0 0 0 0 0 0 0 0 0 0 0 127 0" result="hardAlpha"/>
<feOffset dx="4" dy="4"/>
<feGaussianBlur stdDeviation="2"/>
<feComposite in2="hardAlpha" operator="out"/>
<feColorMatrix type="matrix" values="0 0 0 0 0 0 0 0 0 0 0 0 0 0 0 0 0 0 0.25 0"/>
<feBlend mode="normal" in2="BackgroundImageFix" result="effect1_dropShadow_314_31"/>
<feBlend mode="normal" in="SourceGraphic" in2="effect1_dropShadow_314_31" result="shape"/>
</filter>
</defs>
</svg>
