<?xml version="1.0" encoding="UTF-8"?>
<svg id="Layer_39" xmlns="http://www.w3.org/2000/svg" xmlns:xlink="http://www.w3.org/1999/xlink" viewBox="0 0 1024 1024">
  <rect x="596.58" y="241.89" width="174.67" height="122.48" rx="10.79" ry="10.79" style="fill: #fff;"/>
  <rect x="62.38" y="130.62" width="174.67" height="122.48" rx="10.79" ry="10.79" style="fill: #fff;"/>
  <rect x="350.91" y="131.86" width="159.12" height="111.58" rx="10.79" ry="10.79" style="fill: #192f35;"/>
  <rect x="747.18" y="432.66" width="174.52" height="127.81" rx="10.79" ry="10.79" style="fill: #192f35;"/>
  <rect x="149.71" y="688.1" width="282.63" height="205.09" style="fill: #a6c626;"/>
  <path d="M470.13,567.2h76.8v160.17h-66.93c-5.45,0-9.87-4.42-9.87-9.87v-150.3h0Z" transform="translate(-103.13 1198.15) rotate(-93.85)" style="fill: #ffaa9c;"/>
  <path d="M383.67,584.07h87.27c4.43,0,8.02,3.59,8.02,8.02v118.09c0,13.24-10.75,23.99-23.99,23.99h-40.83c-19.56,0-35.44-15.88-35.44-35.44v-109.69c0-2.74,2.22-4.96,4.96-4.96Z" transform="translate(1057.65 186.97) rotate(86.15)" style="fill: #a6c626;"/>
  <path d="M92.87,693.94h85.54v180.33h-75.67c-5.45,0-9.87-4.42-9.87-9.87v-170.46h0Z" transform="translate(144.05 -11.6) rotate(10.42)" style="fill: #ffaa9c;"/>
  <path d="M136.62,619.95h39.47c13.24,0,23.99,10.75,23.99,23.99v141.89c0,4.43-3.59,8.02-8.02,8.02h-87.27c-2.74,0-4.96-2.22-4.96-4.96v-132.14c0-20.31,16.49-36.8,36.8-36.8Z" transform="translate(130.32 -15.46) rotate(10.42)" style="fill: #a6c626;"/>
  <polyline points="134.2 625.07 207.46 598 273.45 585.24 330.5 593.65 395.38 614.81 430.56 625.07 454.8 641.12 422.22 739.94 152.09 723.76 134.2 627.89" style="fill: #a6c626;"/>
  <rect x="238.06" y="519.07" width="87.1" height="119.91" style="fill: #f9a293;"/>
  <path d="M325.18,531.87v28.03c-9.36,6.66-21.74,11.39-38.75,13.75-6.38.9-12.87.82-19.24-.33-12.2-2.19-21.62-5.6-29.13-10.24v-31.22h87.12Z" style="fill: #ef8c7b;"/>
  <path d="M301.33,557.76c-6.29,1.41-12.78,1.87-19.2,1.26-41.24-3.98-52.89-24.07-64.94-56.23-2.23-5.95-3.73-12.13-4.54-18.4l-11.3-88.37,162.66-13.34,1.11,84.42c.15,10.94-.98,21.9-3.62,32.59-7.02,28.48-19.66,48.95-60.17,58.05v.02Z" style="fill: #ffab99;"/>
  <path d="M200.1,387c-3.91,6.05-13.24,22.22-12.62,44.54.51,18.32,7.41,29.96,17.52,46.98,2.28,3.83,5.21,8.23,7.73,7.7,2.78-.59,3.59-7.05,3.94-9.94,2.07-17.51-2.67-57.16-5.38-77.7-3.73-3.86-7.46-7.72-11.19-11.58h0Z" style="fill: #131c38;"/>
  <path d="M368.79,394.1c3.85,4.27,13.24,15.85,14.83,32.93,1.3,14.02-3.43,23.49-10.33,37.34-1.56,3.12-3.61,6.72-5.8,6.51-2.39-.23-3.68-5.07-4.25-7.25-3.39-13.19-3.12-43.85-2.77-59.75,2.78-3.26,5.56-6.53,8.34-9.78h-.02Z" style="fill: #131c38;"/>
  <path d="M202.31,451.01c-.03-8.53-7.45-61.76,21.63-87.99,35.1-31.67,98.29-27.62,128.37,6.57,19.47,22.13,20.45,60.28,19.74,69.94" style="fill: none; stroke: #b2b2b2; stroke-miterlimit: 10; stroke-width: 11px;"/>
  <path d="M322.43,498.04c2.17-.18,3.94,1.68,3.69,3.84-1.47,12.27-13.8,22.54-29.57,23.84-15.77,1.29-29.61-6.86-33.06-18.7-.61-2.08.85-4.22,3.02-4.39l55.92-4.59h0Z" style="fill: #fff7f1;"/>
  <path d="M212.51,401.4c4.61-.16,7.66-4.15,9.02-5.47,10.21-9.94,46.71,21.42,77.31,24.04,40.36,3.46,85.38-18.95,92.55-50.6,4.05-17.93-6.7-38.26-20.57-48.83-27.59-20.98-79.49-12.34-122.3,28.96,3.69-18.14.97-23.91-2.12-25.86-9.64-6.09-39.72,14.16-47.15,40.95-.92,3.3-5.48,21.09,3.35,31.28,1.03,1.18,4.91,5.67,9.92,5.5v.02Z" style="fill: #131c38;"/>
  <path d="M302.73,460.26l1.35,16.42c.19,2.26-1.49,4.23-3.75,4.42l-2.11.17" style="fill: none; stroke: #000; stroke-linecap: round; stroke-miterlimit: 10;"/>
  <line x1="244.6" y1="437.22" x2="280.86" y2="434.25" style="fill: none; stroke: #111; stroke-linecap: round; stroke-miterlimit: 10; stroke-width: 5px;"/>
  <line x1="314.66" y1="431.48" x2="350.91" y2="428.51" style="fill: none; stroke: #111; stroke-linecap: round; stroke-miterlimit: 10; stroke-width: 5px;"/>
  <circle cx="263.74" cy="459.07" r="8.05"/>
  <circle cx="331.18" cy="453.54" r="8.05"/>
  <path d="M237.42,591.95c11.01,15.31,22.02,30.63,33.03,45.94-11.25,11.25-22.49,22.49-33.74,33.74-14.12-25.6-28.23-51.2-42.35-76.8l43.07-2.87Z" style="fill: #f8ffff;"/>
  <path d="M324.29,591.95c-11.01,15.31-22.02,30.63-33.03,45.94,11.25,11.25,22.49,22.49,33.74,33.74,14.12-25.6,28.23-51.2,42.35-76.8l-43.07-2.87Z" style="fill: #f8ffff;"/>
  <path d="M414.04,494.29c7.29,9.36,30.9,39.69,38.19,49.05,32.9,42.23,65.84,84.45,98.8,126.65,12.83,10.13,29.01,13.03,40.96,7.24,13.22-6.41,17.78-21.31,17.92-25.93.49-16.07-22.71-48.89-42.25-66.92-29.56-27.27-79.88-78.66-148.19-120.2-1.64,9.65-3.7,19.1-5.44,30.11Z" style="fill: #ffaa9c;"/>
  <path d="M386.64,854.41c-14.49-1.07-61.43-8.19-75.93-9.25-65.38-4.82-130.78-9.6-196.18-14.35-19.06,2.18-33.07,11.24-35.36,23-2.53,13.02,9.49,25.62,14.08,28.67,15.98,10.61,65.18,15.95,96.85,14.3,47.91-2.49,124.07,1.95,212.96-17.56-5.48-8.27-10.96-16.54-16.43-24.8Z" style="fill: #ffaa9c;"/>
  <path d="M382.58,855.12c7.68-3.12,27.69-10.04,51.77-4.51,5.38,1.24,36.89.54,56.68,18.5,7.7,6.99,16.89,19.05,13.48,20.74-3.8,1.87-32.57.36-46.83-4.07-15.95-4.95-22.74,5.25-44.85,4.81-6.16-.12-18.4,1.97-27.94-15.1-4.59-8.22-3.28-16.74-2.31-20.37Z" style="fill: #ffaa9c;"/>
  <rect x="196.38" y="444.65" width="21.24" height="62.76" rx="7.82" ry="7.82" transform="translate(-60.35 31.08) rotate(-7.5)" style="fill: #c9c9c9;"/>
  <rect x="187.28" y="453.83" width="9.59" height="53.45" rx="3.32" ry="3.32" transform="translate(-61.07 29.18) rotate(-7.5)" style="fill: #b2b2b2;"/>
  <rect x="382.84" y="438.45" width="9.59" height="53.45" rx="3.32" ry="3.32" style="fill: #b2b2b2;"/>
  <rect x="361.12" y="433.8" width="21.87" height="62.76" rx="8.17" ry="8.17" style="fill: #c9c9c9;"/>
  <path d="M360.95,383.02c1.48,3.06,5.1,11.33,6.14,23.18.85,9.73-.55,16.14-2.59,25.52-.46,2.11-1.08,4.54-1.86,4.34-.85-.22-1.44-3.61-1.7-5.13-1.56-9.21-2.33-30.4-2.65-41.38.89-2.17,1.77-4.36,2.66-6.53h0Z" style="fill: #131c38;"/>
  <path d="M205.76,389.07c-1.33,3.28-4.45,12.08-3.63,23.95.68,9.74,3.62,15.81,7.91,24.69.97,2,2.2,4.28,3.15,3.94,1.04-.37,1.18-3.82,1.23-5.36.33-9.36-2.53-30.38-4.11-41.27-1.52-1.98-3.05-3.98-4.57-5.96h0Z" style="fill: #131c38;"/>
  <path d="M369.45,493.58c1.01,10.36-3.01,18.82-8.13,24.38s-17.7,8.58-34.34,6.87" style="fill: none; stroke: #c9c9c9; stroke-miterlimit: 10; stroke-width: 2px;"/>
  <ellipse cx="331.06" cy="525.55" rx="11.81" ry="6.32" style="fill: #8c8c8c;"/>
  <path d="M416.86,501.26c-1.18,1.64-5.43,7.07-11.87,7.13-6.84.07-14.71-5.92-16.89-14.14-1.86-7.01,2.01-9.7,3.15-20.96,1.94-19-7.28-28.88-3.7-37.46,3.23-7.73,14.61-9.02,22.23-3.27,15.19,11.45,18.36,52.96,7.07,68.7Z" style="fill: #ffaa9c;"/>
  <line x1="17.56" y1="893.19" x2="1007.18" y2="893.19" style="fill: none; stroke: #000; stroke-linecap: round; stroke-linejoin: round; stroke-width: 6px;"/>
  <path d="M683.09,889.96h-246.22c-9.8,0-16.73-9.49-13.67-18.71l56.61-170.14c1.94-5.84,7.45-9.79,13.67-9.79h246.22c9.8,0,16.73,9.49,13.67,18.71l-56.61,170.14c-1.94,5.84-7.45,9.79-13.67,9.79Z" style="fill: #192f35;"/>
  <line x1="349.1" y1="880.94" x2="442.9" y2="880.94" style="fill: none; stroke: #192f35; stroke-linecap: round; stroke-miterlimit: 10; stroke-width: 15px;"/>
  <image width="1024" height="1024" transform="translate(569.72 757.54) rotate(2.01) scale(.05)" xlink:href="../../../../../Downloads/Techysquad-Logo-01.png"/>
  <rect x="383.57" y="157.42" width="94.75" height="60.44" rx="6.72" ry="6.72" transform="translate(-2.77 6.49) rotate(-.86)" style="fill: #fff;"/>
  <path d="M384.51,161.06l44.71,32.13c1.01.81,2.55.85,3.63.1l43.6-33.77" style="fill: none; stroke: #232323; stroke-linecap: round; stroke-miterlimit: 10;"/>
  <line x1="416.97" y1="184.39" x2="385.76" y2="215.97" style="fill: none; stroke: #232323; stroke-linecap: round; stroke-miterlimit: 10;"/>
  <line x1="445.09" y1="183.96" x2="476.65" y2="214.61" style="fill: none; stroke: #232323; stroke-linecap: round; stroke-miterlimit: 10;"/>
  <path d="M708.61,258.69h2.43c4.25,0,7.69,3.45,7.69,7.69v23.79c0,4.25-3.45,7.69-7.69,7.69h-2.43c-8.4,0-15.22-6.82-15.22-15.22v-8.74c0-8.4,6.82-15.22,15.22-15.22Z" transform="translate(1079.74 938.82) rotate(-141.01)" style="fill: #192f35;"/>
  <path d="M667.96,305.8h2.44c3.92,0,7.11,3.18,7.11,7.11v24.97c0,3.92-3.18,7.11-7.11,7.11h-2.44c-8.79,0-15.92-7.13-15.92-15.92v-7.33c0-8.79,7.13-15.92,15.92-15.92Z" transform="translate(976.73 996.57) rotate(-141.01)" style="fill: #192f35;"/>
  <path d="M711.31,279.73c.59,1.25,6.18,14.53-5.33,30.91-9.94,14.15-23.01,25.74-40.1,20.38" style="fill: none; stroke: #192f35; stroke-miterlimit: 10; stroke-width: 11px;"/>
  <ellipse cx="827.22" cy="485.25" rx="35.11" ry="28.51" style="fill: #2f474c;"/>
  <path d="M798.14,483.19c1.13,3.99,1.88,9.27-.85,13.05-4.55,6.31-15.64,4.13-15.89,6.24-.24,2.11,10.37,7.91,20.14,4.82,11.2-3.54,18.77-17.95,15.04-23.26-3.38-4.81-15.66-1.62-18.44-.85Z" style="fill: #2f474c;"/>
  <ellipse cx="846.25" cy="503.1" rx="35.11" ry="28.51" style="fill: #fff;"/>
  <path d="M875.33,501.04c-1.13,3.99-1.88,9.27.85,13.05,4.55,6.31,15.64,4.13,15.89,6.24.24,2.11-10.37,7.91-20.14,4.82-11.2-3.54-18.77-17.95-15.04-23.26,3.38-4.81,15.66-1.62,18.44-.85Z" style="fill: #fff;"/>
  <polygon points="154.67 196.57 140.35 169.42 204.85 151.66 203.81 154.7 154.67 196.57" style="fill: #fff;"/>
  <polygon points="210.3 150.04 114.86 160.44 146.24 181.01 210.3 150.04" style="fill: #192f35;"/>
  <polyline points="146.72 220.85 146.59 183.65 210.3 150.04" style="fill: #192f35;"/>
  <g>
    <path d="M142.35,184.57s-1.4.57-3.69,1.53" style="fill: none; stroke: #192f35; stroke-linecap: round; stroke-linejoin: round;"/>
    <path d="M131.57,189.07c-7.89,3.34-18.4,7.87-25.46,11.24-12.61,6.03-15.33,13.22-13.18,20.24,2.58,8.43,21.87,10.29,30.78,11.96,14.12,2.64,20.16,3.44,23.35,7.95,1.1,1.57,1.48,3.27,1.38,5" style="fill: none; stroke: #192f35; stroke-dasharray: 7.69 7.69; stroke-linecap: round; stroke-linejoin: round;"/>
    <path d="M147.55,249.19c-.49,1.23-1.14,2.42-1.86,3.54" style="fill: none; stroke: #192f35; stroke-linecap: round; stroke-linejoin: round;"/>
  </g>
</svg>