<svg id="Layer_4" xmlns="http://www.w3.org/2000/svg" xmlns:xlink="http://www.w3.org/1999/xlink" viewBox="0 0 1024 1024">
  <rect x="673.89" y="309.9" width="101.51" height="200.27" rx="13.15" ry="13.15" style="fill: #fcf9fd; stroke: #050505; stroke-miterlimit: 10;"/>
  <rect x="847.62" y="307.97" width="101.51" height="200.27" rx="13.15" ry="13.15" style="fill: #fcf9fd; stroke: #050505; stroke-miterlimit: 10;"/>
  <rect x="316.61" y="59.23" width="101.51" height="200.27" rx="13.15" ry="13.15" style="fill: #fcf9fd; stroke: #050505; stroke-miterlimit: 10;"/>
  <rect x="496.61" y="311.56" width="101.51" height="200.27" rx="13.15" ry="13.15" style="fill: #fcf9fd; stroke: #050505; stroke-miterlimit: 10;"/>
  <rect x="316.61" y="312.06" width="101.51" height="200.27" rx="13.15" ry="13.15" style="fill: #fcf9fd; stroke: #050505; stroke-miterlimit: 10;"/>
  <rect x="667.62" y="592.58" width="101.51" height="200.27" rx="13.15" ry="13.15" style="fill: #fcf9fd; stroke: #050505; stroke-miterlimit: 10;"/>
  <circle cx="687.33" cy="619.66" r="4.98" style="fill: #d3d3d3;"/>
  <circle cx="751.8" cy="619.66" r="4.98" style="fill: #d3d3d3;"/>
  <rect x="692.31" y="641.92" width="54.51" height="40.64" rx="3.91" ry="3.91" style="fill: #a6c626;"/>
  <line x1="700.24" y1="694.35" x2="739.66" y2="694.35" style="fill: #fcf9fd; stroke: #d3d3d3; stroke-linecap: round; stroke-miterlimit: 10; stroke-width: 2px;"/>
  <line x1="682.35" y1="707.48" x2="753.48" y2="707.48" style="fill: #fcf9fd; stroke: #d3d3d3; stroke-linecap: round; stroke-miterlimit: 10; stroke-width: 2px;"/>
  <line x1="682.35" y1="717.03" x2="753.48" y2="717.03" style="fill: #fcf9fd; stroke: #d3d3d3; stroke-linecap: round; stroke-miterlimit: 10; stroke-width: 2px;"/>
  <line x1="682.35" y1="726.58" x2="753.48" y2="726.58" style="fill: #fcf9fd; stroke: #d3d3d3; stroke-linecap: round; stroke-miterlimit: 10; stroke-width: 2px;"/>
  <line x1="682.35" y1="736.13" x2="753.48" y2="736.13" style="fill: #fcf9fd; stroke: #d3d3d3; stroke-linecap: round; stroke-miterlimit: 10; stroke-width: 2px;"/>
  <line x1="688.85" y1="744.49" x2="746.82" y2="744.49" style="fill: #fcf9fd; stroke: #d3d3d3; stroke-linecap: round; stroke-miterlimit: 10; stroke-width: 2px;"/>
  <line x1="696.58" y1="754.04" x2="738.64" y2="754.04" style="fill: #fcf9fd; stroke: #d3d3d3; stroke-linecap: round; stroke-miterlimit: 10; stroke-width: 2px;"/>
  <circle cx="867.34" cy="337.44" r="4.98" style="fill: #d3d3d3;"/>
  <circle cx="931.81" cy="337.44" r="4.98" style="fill: #d3d3d3;"/>
  <circle cx="693.02" cy="337.44" r="4.98" style="fill: #d3d3d3;"/>
  <circle cx="757.5" cy="337.44" r="4.98" style="fill: #d3d3d3;"/>
  <circle cx="517.52" cy="337.44" r="4.98" style="fill: #d3d3d3;"/>
  <circle cx="581.99" cy="337.44" r="4.98" style="fill: #d3d3d3;"/>
  <circle cx="336.04" cy="336.24" r="4.98" style="fill: #d3d3d3;"/>
  <circle cx="400.51" cy="336.24" r="4.98" style="fill: #d3d3d3;"/>
  <circle cx="334.85" cy="83.13" r="4.98" style="fill: #d3d3d3;"/>
  <circle cx="399.32" cy="83.13" r="4.98" style="fill: #d3d3d3;"/>
  <rect x="860.43" y="354.28" width="76.82" height="14.63" rx="6.13" ry="6.13" style="fill: none; stroke: #d3d3d3; stroke-miterlimit: 10; stroke-width: 2px;"/>
  <path d="M930.02,360.56c0,.71-.27,1.36-.7,1.86-.52.59-1.27.96-2.12.96-1.56,0-2.82-1.26-2.82-2.82s1.26-2.82,2.82-2.82,2.82,1.26,2.82,2.82Z" style="fill: none; stroke: #d3d3d3; stroke-miterlimit: 10; stroke-width: 2px;"/>
  <line x1="931.94" y1="364.07" x2="929.32" y2="362.42" style="fill: none; stroke: #d3d3d3; stroke-linecap: round; stroke-miterlimit: 10; stroke-width: 2px;"/>
  <rect x="859.21" y="379.27" width="22.15" height="18.7" rx="2.98" ry="2.98" style="fill: #a6c626;"/>
  <line x1="887.25" y1="381.71" x2="913.47" y2="381.71" style="fill: none; stroke: #d3d3d3; stroke-linecap: round; stroke-miterlimit: 10; stroke-width: 2px;"/>
  <line x1="887.15" y1="386.03" x2="931.99" y2="386.03" style="fill: #272a00; stroke: #d3d3d3; stroke-linecap: round; stroke-miterlimit: 10; stroke-width: 2px;"/>
  <line x1="887.15" y1="390.81" x2="931.99" y2="390.81" style="fill: none; stroke: #d3d3d3; stroke-linecap: round; stroke-miterlimit: 10; stroke-width: 2px;"/>
  <line x1="887.15" y1="395.58" x2="907.6" y2="395.58" style="fill: none; stroke: #d3d3d3; stroke-linecap: round; stroke-miterlimit: 10; stroke-width: 2px;"/>
  <rect x="859.21" y="404.35" width="22.15" height="18.7" rx="2.98" ry="2.98" style="fill: #a6c626;"/>
  <line x1="887.25" y1="406.78" x2="913.47" y2="406.78" style="fill: none; stroke: #d3d3d3; stroke-linecap: round; stroke-miterlimit: 10; stroke-width: 2px;"/>
  <line x1="887.15" y1="411.1" x2="931.99" y2="411.1" style="fill: #272a00; stroke: #d3d3d3; stroke-linecap: round; stroke-miterlimit: 10; stroke-width: 2px;"/>
  <line x1="887.15" y1="415.88" x2="931.99" y2="415.88" style="fill: none; stroke: #d3d3d3; stroke-linecap: round; stroke-miterlimit: 10; stroke-width: 2px;"/>
  <line x1="887.15" y1="420.65" x2="907.6" y2="420.65" style="fill: none; stroke: #d3d3d3; stroke-linecap: round; stroke-miterlimit: 10; stroke-width: 2px;"/>
  <rect x="859.21" y="429.42" width="22.15" height="18.7" rx="2.98" ry="2.98" style="fill: #a6c626;"/>
  <line x1="887.25" y1="431.86" x2="913.47" y2="431.86" style="fill: none; stroke: #d3d3d3; stroke-linecap: round; stroke-miterlimit: 10; stroke-width: 2px;"/>
  <line x1="887.15" y1="436.18" x2="931.99" y2="436.18" style="fill: #272a00; stroke: #d3d3d3; stroke-linecap: round; stroke-miterlimit: 10; stroke-width: 2px;"/>
  <line x1="887.15" y1="440.95" x2="931.99" y2="440.95" style="fill: none; stroke: #d3d3d3; stroke-linecap: round; stroke-miterlimit: 10; stroke-width: 2px;"/>
  <line x1="887.15" y1="445.73" x2="907.6" y2="445.73" style="fill: none; stroke: #d3d3d3; stroke-linecap: round; stroke-miterlimit: 10; stroke-width: 2px;"/>
  <rect x="859.21" y="454.49" width="22.15" height="18.7" rx="2.98" ry="2.98" style="fill: #a6c626;"/>
  <line x1="887.25" y1="456.93" x2="913.47" y2="456.93" style="fill: none; stroke: #d3d3d3; stroke-linecap: round; stroke-miterlimit: 10; stroke-width: 2px;"/>
  <line x1="887.15" y1="461.25" x2="931.99" y2="461.25" style="fill: #272a00; stroke: #d3d3d3; stroke-linecap: round; stroke-miterlimit: 10; stroke-width: 2px;"/>
  <line x1="887.15" y1="466.02" x2="931.99" y2="466.02" style="fill: none; stroke: #d3d3d3; stroke-linecap: round; stroke-miterlimit: 10; stroke-width: 2px;"/>
  <line x1="887.15" y1="470.8" x2="907.6" y2="470.8" style="fill: none; stroke: #d3d3d3; stroke-linecap: round; stroke-miterlimit: 10; stroke-width: 2px;"/>
  <rect x="859.21" y="479.56" width="22.15" height="18.7" rx="2.98" ry="2.98" style="fill: #a6c626;"/>
  <line x1="887.25" y1="482" x2="913.47" y2="482" style="fill: none; stroke: #d3d3d3; stroke-linecap: round; stroke-miterlimit: 10; stroke-width: 2px;"/>
  <line x1="887.15" y1="486.32" x2="931.99" y2="486.32" style="fill: #272a00; stroke: #d3d3d3; stroke-linecap: round; stroke-miterlimit: 10; stroke-width: 2px;"/>
  <line x1="887.15" y1="491.1" x2="931.99" y2="491.1" style="fill: none; stroke: #d3d3d3; stroke-linecap: round; stroke-miterlimit: 10; stroke-width: 2px;"/>
  <line x1="887.15" y1="495.87" x2="907.6" y2="495.87" style="fill: none; stroke: #d3d3d3; stroke-linecap: round; stroke-miterlimit: 10; stroke-width: 2px;"/>
  <circle cx="726.73" cy="359.29" r="8.13" style="fill: #a6c626;"/>
  <line x1="706.03" y1="376.75" x2="743.83" y2="376.75" style="fill: none; stroke: #1e1e1e; stroke-linecap: round; stroke-miterlimit: 10; stroke-width: 4px;"/>
  <rect x="686.52" y="396.66" width="32.08" height="25.61" rx="3.39" ry="3.39" style="fill: #ea550f;"/>
  <rect x="730.69" y="396.66" width="32.08" height="25.61" rx="3.39" ry="3.39" style="fill: #ea550f;"/>
  <rect x="687.53" y="430.09" width="75.24" height="60.05" rx="3.39" ry="3.39" style="fill: #ea550f;"/>
  <circle cx="548.84" cy="381.93" r="17.5" style="fill: #ea550f;"/>
  <circle cx="548.58" cy="380.43" r="3.89" style="fill: #fff;"/>
  <rect x="539.23" y="384.32" width="18.29" height="8.54" rx="3.57" ry="3.57" style="fill: #fff;"/>
  <line x1="527.04" y1="411.67" x2="566.34" y2="411.67" style="fill: none; stroke: #1e1e1e; stroke-linecap: round; stroke-miterlimit: 10; stroke-width: 4px;"/>
  <rect x="517.08" y="421.51" width="60.56" height="11.38" rx="4.77" ry="4.77" style="fill: #ddd;"/>
  <rect x="517.08" y="439.41" width="60.56" height="11.38" rx="4.77" ry="4.77" style="fill: #ddd;"/>
  <rect x="523.38" y="463.29" width="46.33" height="13.59" rx="4.77" ry="4.77" style="fill: #ea550f;"/>
  <line x1="346.76" y1="375.86" x2="386.06" y2="375.86" style="fill: none; stroke: #1e1e1e; stroke-linecap: round; stroke-miterlimit: 10; stroke-width: 4px;"/>
  <rect x="336.8" y="395.24" width="60.56" height="11.38" rx="4.77" ry="4.77" style="fill: #ddd;"/>
  <rect x="336.8" y="413.15" width="60.56" height="11.38" rx="4.77" ry="4.77" style="fill: #ddd;"/>
  <rect x="336.8" y="432.25" width="60.56" height="11.38" rx="4.77" ry="4.77" style="fill: #ddd;"/>
  <rect x="343.1" y="454.93" width="46.33" height="13.59" rx="4.77" ry="4.77" style="fill: #ea550f;"/>
  <line x1="346.76" y1="108.42" x2="386.06" y2="108.42" style="fill: none; stroke: #1e1e1e; stroke-linecap: round; stroke-miterlimit: 10; stroke-width: 4px;"/>
  <rect x="336.8" y="127.8" width="60.56" height="11.38" rx="4.77" ry="4.77" style="fill: #ddd;"/>
  <rect x="336.8" y="145.71" width="60.56" height="11.38" rx="4.77" ry="4.77" style="fill: #ddd;"/>
  <rect x="336.8" y="164.81" width="60.56" height="11.38" rx="4.77" ry="4.77" style="fill: #ddd;"/>
  <rect x="336.8" y="183.92" width="60.56" height="11.38" rx="4.77" ry="4.77" style="fill: #ddd;"/>
  <rect x="336.8" y="203.02" width="60.56" height="11.38" rx="4.77" ry="4.77" style="fill: #ddd;"/>
  <rect x="343.1" y="220.93" width="46.33" height="13.59" rx="4.77" ry="4.77" style="fill: #ea550f;"/>
  <line x1="705.62" y1="524.68" x2="705.24" y2="581.38" style="fill: #050505; stroke: #fff; stroke-linecap: round; stroke-miterlimit: 10; stroke-width: 2px;"/>
  <circle cx="705.24" cy="521.55" r="4.5" style="fill: #050505;"/>
  <path d="M733.08,524.68c-.13,7.78-.25,15.56-.38,23.34-.07,1.01.07,2.01.72,2.64,1,.98,2.77.65,3.05.61,2.97-.42,70.43-.25,167.25.2.32-.04,2.37-.34,3.66-2.24,1.16-1.71.88-3.5.81-3.86.07-7.18.14-14.36.2-21.54" style="fill: none; stroke: #fff; stroke-linecap: round; stroke-miterlimit: 10; stroke-width: 2px;"/>
  <circle cx="732.7" cy="521.55" r="4.5" style="fill: #050505;"/>
  <circle cx="908.21" cy="521.55" r="4.5" style="fill: #050505;"/>
  <path d="M559.5,287.16c-.12-7.78-.25-15.56-.37-23.34-.07-1.01.06-2.01.69-2.64.97-.98,2.68-.65,2.95-.61,2.88.42,68.16.25,161.86-.2.31.04,2.29.34,3.54,2.24,1.12,1.71.85,3.5.79,3.86.07,7.18.13,14.36.2,21.54" style="fill: none; stroke: #fff; stroke-linecap: round; stroke-miterlimit: 10; stroke-width: 2px;"/>
  <ellipse cx="559.14" cy="290.29" rx="4.35" ry="4.5" style="fill: #050505;"/>
  <ellipse cx="728.99" cy="290.29" rx="4.22" ry="4.5" style="fill: #050505;"/>
  <path d="M368.75,539c-.13,7.78-.26,15.56-.39,23.34-.07,1.01.07,2.01.73,2.64,1.03.98,2.84.65,3.12.61,3.04-.42,72.09-.25,171.19.2.33-.04,2.43-.34,3.74-2.24,1.19-1.71.9-3.5.83-3.86.07-7.18.14-14.36.21-21.54" style="fill: none; stroke: #fff; stroke-linecap: round; stroke-miterlimit: 10; stroke-width: 2px;"/>
  <ellipse cx="368.36" cy="535.88" rx="4.6" ry="4.5" style="fill: #050505;"/>
  <ellipse cx="548" cy="535.88" rx="4.47" ry="4.5" style="fill: #050505;"/>
  <circle cx="705.24" cy="578.86" r="4.5" style="fill: #050505;"/>
  <line x1="364.13" y1="270.33" x2="363.75" y2="305.56" style="fill: #050505; stroke: #fff; stroke-linecap: round; stroke-miterlimit: 10; stroke-width: 2px;"/>
  <circle cx="363.76" cy="270.09" r="4.5" style="fill: #050505;"/>
  <circle cx="363.76" cy="302.29" r="4.5" style="fill: #050505;"/>
  <path d="M429.19,146.46c48.15-.49,83.27-.59,89.42-.41,1.42.04,4.63.21,6.5,2.44,1.36,1.63,1.54,3.78,1.42,5.49-.13,46.16-.25,92.31-.38,138.47" style="fill: none; stroke: #fff; stroke-linecap: round; stroke-miterlimit: 10; stroke-width: 2px;"/>
  <circle cx="526.16" cy="289.93" r="4.5" style="fill: #050505;"/>
  <circle cx="430.64" cy="146.66" r="4.5" style="fill: #050505;"/>
  <line x1="789.56" y1="413.13" x2="834.08" y2="413.7" style="fill: #050505; stroke: #fff; stroke-linecap: round; stroke-miterlimit: 10; stroke-width: 2px;"/>
  <circle cx="786.44" cy="413.69" r="4.5" style="fill: #050505;"/>
  <circle cx="837.5" cy="413.41" r="4.5" style="fill: #050505;"/>
  <ellipse cx="272.15" cy="647.64" rx="35.67" ry="63.71" transform="translate(-428.87 693.08) rotate(-70.92)" style="fill: #f69e9b;"/>
  <rect x="218.47" y="547.82" width="89.07" height="83.45" transform="translate(-9.62 4.39) rotate(-.94)" style="fill: #f69e9b;"/>
  <path d="M219.15,554.05l.05,2.79c.53,32.59,27.66,58.81,60.24,58.27l28.96-.47-.35-21.5-32.03.52c-26.04.43-48.62-16.25-56.87-39.62Z" style="fill: #d88080;"/>
  <path d="M215.3,482.21l.99,60.62c.08,4.96.84,9.75,2.23,14.28.23.82.49,1.61.78,2.37,7.33,20.86,27.41,35.75,50.56,35.37l29.6-.48c24.58-.4,44.34-20.91,43.94-45.59l-1.12-68.65c-.02-.99-.06-1.97-.16-2.93-.07-1.07-.2-2.14-.38-3.17-1.44-9.41-5.81-17.84-12.14-24.37-8.28-8.59-19.95-13.88-32.73-13.67l-37.6.62c-22.04.36-40.2,16.89-43.43,38.09-.4,2.45-.57,4.97-.53,7.52Z" style="fill: #f69e9b;"/>
  <path d="M234.37,451.86c-10.15,11.82,8.92,29.23,2.62,46.28-5.64,15.28-6.01,24.99-24.53,14.16-25.62-14.99-26.94-61.76-11.71-80.27,6.5-7.89,12.85-6.82,30.98-12,48.81-13.95,53.71-36.26,82.54-35.84,22.48.33,50.08,14.36,52.51,33.62,2.36,18.71-20.8,37.7-43.05,40.34-40.22,4.78-80.15-17.03-89.36-6.29Z" style="fill: #4b2f38;"/>
  <path d="M198.18,506.85c.77,4.58,2.07,8.78,3.73,12.36,0,0,.02.03,0,.06,3.65,7.81,8.96,12.61,14.02,11.77,1.06-.18,2.05-.58,2.95-1.23,5.43-3.72,8.07-14.92,5.98-27.4-.23-1.35-.49-2.67-.82-3.95,0,0,0-.03,0-.06-2.54-10.27-7.83-18.04-13.35-19.85-1.19-.39-2.39-.52-3.57-.32-7.37,1.23-11.37,14.05-8.94,28.64Z" style="fill: #f6a2a0;"/>
  <line x1="340.43" y1="476.24" x2="316.61" y2="476" style="fill: none; stroke: #4b2f38; stroke-linecap: round; stroke-miterlimit: 10; stroke-width: 7.75px;"/>
  <line x1="282.76" y1="476.84" x2="258.93" y2="476.6" style="fill: none; stroke: #4b2f38; stroke-linecap: round; stroke-miterlimit: 10; stroke-width: 7.75px;"/>
  <circle cx="327.93" cy="498.79" r="8.24" style="fill: #4b2f38;"/>
  <circle cx="273.77" cy="499.14" r="8.24" style="fill: #4b2f38;"/>
  <path d="M306.93,512.64l.29,17.65c.05,2.78-2.17,5.07-4.95,5.11l-8.29.14" style="fill: none; stroke: #4b2f38; stroke-linecap: round; stroke-linejoin: round; stroke-width: 3.49px;"/>
  <path d="M316.34,557.54c-1.55,1.48-6.96,6.28-15.46,7.02-9.45.82-16.12-3.95-17.69-5.14" style="fill: none; stroke: #4b2f38; stroke-linecap: round; stroke-linejoin: round; stroke-width: 3.49px;"/>
  <path d="M219.04,511.71c-.08-5.89-1.91-12.02-4.77-15.91-2.85-3.89-6.28-4.92-8.89-2.69" style="fill: none; stroke: #4b2f38; stroke-linecap: round; stroke-linejoin: round; stroke-width: 3.49px;"/>
  <path d="M529.41,603.26c-3.64-5.85-.07-10.97,3.98-37.15.23-1.48,1.63-14.84,4.42-41.57,1.07-10.21,2.61-25.09,4.42-43.34,1.79-2.47,4.55-3.94,7.08-3.54,3.73.59,6.95,5.23,5.75,10.61.29,10.91.59,21.82.88,32.73,1.4-2.56,6.04-10.23,15.48-13.71,7.1-2.62,15.65-2.41,21.67,1.33,1.52.94,4.08,2.58,4.42,5.31.28,2.27-1.03,4.97-3.1,6.19-4.97,2.94-10.98-4.6-17.25-2.65-2.6.81-5.69,3.38-7.96,11.06,1.48-.77,9.31-4.69,17.25-1.33,2.3.97,4.04,2.32,5.31,3.54,0,0,1.96.8,3.39,1.58,4.46,2.44,4.77,6.4,3.2,14.48-1.16,5.98-6.43,10.21-10.57,9.59-2.65,17.54-5.31,35.09-7.96,52.63-34.23,6.11-46.26.93-50.42-5.75Z" style="fill: #f69e9b;"/>
  <path d="M344.36,603.87c9.41-2.47,34.09,18.51,26.22,12.8,15.81,10.58,65,44.45,131.08,91.45,3.42-21.21,7.63-43.41,12.8-66.45,2.84-12.65,5.84-24.94,8.94-36.85,1.16-4.46,5.3-7.49,9.9-7.25,13.82.71,27.64,1.42,41.45,2.14,5.4.28,9.53,4.91,9.19,10.31-3.69,58.71-7.39,117.42-11.08,176.13-.39,6.21-2.96,12.11-7.34,16.53-4.46,4.5-11.02,9.46-19.98,12.13-23.86,7.11-43.38-8.33-45.11-9.75-38.61-19.92-77.22-39.83-115.84-59.75-11.61-7.37-32.75-23.23-44.71-50.85-16.92-39.09-9.09-87.02,4.47-90.59Z" style="fill: #c13600;"/>
  <path d="M203.87,608.67c7.94-4.44,25.55-1.23,66.46,27.58,16.21,11.42,38.63,1.31,40.93-18.5.54-4.62,1.07-9.25,1.61-13.87,5.6-1.72,14.14-3.43,20.65,0,4.44,2.34,6.22,6.17,6.88,7.66,37.55,84.27,30.98,168.53,30.98,168.53-2.96,37.96-6.91,95.2-10.33,174.28-38.24-.32-76.49-.64-114.73-.96,6.29-43.74,9.96-105.79-4.59-178.11-18.73-93.11-58.02-155.34-37.86-166.61Z" style="fill: #fafafa;"/>
  <path d="M193.44,602.3c16.66,1.07,28.1,13.01,32.33,17.97,17.45,26.76,37.01,63.5,50.07,109.7,27.78,98.23,10.17,182.54-1.9,224.37-45.21-1.03-90.43-2.07-135.64-3.1-3.59-96.9-7.18-193.79-10.78-290.69,3.1-8.23,9.13-21.09,20.92-33.47,10.12-10.62,24.84-26.08,45-24.79Z" style="fill: #ea550f;"/>
  <path d="M385.29,744.72c.68,8.34,1.29,16.75,1.83,25.22,4.08,64.02,3.67,125.25,0,183.3-13.62.37-27.24.74-40.87,1.11,5.55-61.62,5.36-115.69,3.07-159.8-4.81-92.65-7.21-138.97-21.34-167.92-2.45-5.02-19.65-18.8-13.92-24.4,5.15-5.03,27.8-1.86,30.99-.21,35.87,18.59,39.84,105.7,40.24,142.7Z" style="fill: #ea550f;"/>
  <path d="M341.8,877.31c7.11-3.97,9.56.51,29.58-.36,18.45-.8,26.69-5.05,34.27.72,3.28,2.49,4.65,5.5,6.49,9.66,2.65,5.99,6.99,18.76,3.61,37.58-1.33,10.17-4.91,13.63-7.58,15.03-11.62,6.09-25.11-16.98-57.36-21.83-10.76-1.62-16.07-.08-19.84-4.65-6.97-8.46-1.57-29.23,10.82-36.15Z" style="fill: #f69e9b;"/>
  <path d="M196.49,844.39c8.24-40.76,16.48-81.51,24.72-122.27.59-3.17,5.61-32.93-15.85-53.46-2.55-2.44-23.1-22.09-46.9-14.75-15.32,4.73-22.77,17.79-24.72,21.51-10.14,61.44-20.28,122.89-30.42,184.33l93.18-15.36Z" style="fill: #db4509;"/>
  <path d="M143.32,629.5c-15.07,4.29-23.12,15.42-26.07,20.23-.5.81-.83,1.7-1,2.64-10.89,60.82-21.78,121.63-32.68,182.45-.06.35-.1.69-.12,1.04-.35,8.56.64,22.08,9.65,34.5,12.36,17.04,33.23,22.92,47.46,26.42,62.55,15.39,162.39,25.6,190.77,28.32,3.49.33,6.76-1.75,7.94-5.05,4.85-13.62,9.7-27.25,14.56-40.87,1.47-4.13-.82-8.64-5.01-9.9-52.48-15.75-104.95-31.5-157.43-47.26-3.84-1.15-6.14-5.06-5.28-8.98,8.43-38.45,16.87-76.89,25.3-115.34.64-3.17,6.09-32.93-17.19-53.46-2.77-2.44-25.06-22.09-50.9-14.75Z" style="fill: #c13600;"/>
  <path d="M595.3,953.55h-204.04c-8.12,0-13.87-7.87-11.32-15.51l46.91-140.99c1.61-4.84,6.18-8.11,11.32-8.11h204.04c8.12,0,13.87,7.87,11.32,15.51l-46.91,140.99c-1.61,4.84-6.18,8.11-11.32,8.11Z" style="fill: #192f35;"/>
  <line x1="318.53" y1="946.08" x2="396.26" y2="946.08" style="fill: none; stroke: #192f35; stroke-linecap: round; stroke-miterlimit: 10; stroke-width: 15px;"/>
  <image width="1024" height="1024" transform="translate(501.35 843.82) rotate(2.01) scale(.04)" xlink:href="./public/logo/Techysquad-Logo-01.png"/>
  <line x1="108.07" y1="952.77" x2="942.36" y2="955.97" style="fill: none; stroke: #0c0c0c; stroke-linecap: round; stroke-miterlimit: 10; stroke-width: 3px;"/>
</svg>