<?xml version="1.0" encoding="UTF-8"?>
<svg id="Layer_4" xmlns="http://www.w3.org/2000/svg" xmlns:xlink="http://www.w3.org/1999/xlink" viewBox="0 0 1024 1024" width="400">
  <defs>
    <style>
      .cls-1 {
        fill: #fff;
      }

      .cls-2 {
        fill: #db4509;
      }

      .cls-3, .cls-4, .cls-5, .cls-6, .cls-7, .cls-8, .cls-9, .cls-10, .cls-11, .cls-12, .cls-13 {
        stroke-miterlimit: 10;
      }

      .cls-3, .cls-4, .cls-6, .cls-7, .cls-11, .cls-12, .cls-14, .cls-13 {
        fill: none;
      }

      .cls-3, .cls-5, .cls-7, .cls-9, .cls-10, .cls-11 {
        stroke-width: 2px;
      }

      .cls-3, .cls-9, .cls-10, .cls-11 {
        stroke: #d3d3d3;
      }

      .cls-15 {
        fill: #a6c626;
      }

      .cls-4 {
        stroke: #1e1e1e;
        stroke-width: 4px;
      }

      .cls-4, .cls-5, .cls-6, .cls-7, .cls-9, .cls-10, .cls-11, .cls-12, .cls-14, .cls-13 {
        stroke-linecap: round;
      }

      .cls-5, .cls-16 {
        fill: #050505;
      }

      .cls-5, .cls-7 {
        stroke: #fff;
      }

      .cls-17 {
        fill: #ea550f;
      }

      .cls-6 {
        stroke: #192f35;
        stroke-width: 15px;
      }

      .cls-18 {
        fill: #c13600;
      }

      .cls-8 {
        stroke: #050505;
      }

      .cls-8, .cls-10 {
        fill: #fcf9fd;
      }

      .cls-19 {
        fill: #d3d3d3;
      }

      .cls-20 {
        fill: #f69e9b;
      }

      .cls-21 {
        fill: #192f35;
      }

      .cls-22 {
        fill: #ddd;
      }

      .cls-23 {
        fill: #4b2f38;
      }

      .cls-9 {
        fill: #272a00;
      }

      .cls-24 {
        fill: #d88080;
      }

      .cls-12 {
        stroke-width: 7.75px;
      }

      .cls-12, .cls-14 {
        stroke: #4b2f38;
      }

      .cls-25 {
        fill: #f6a2a0;
      }

      .cls-26 {
        fill: #fafafa;
      }

      .cls-14 {
        stroke-linejoin: round;
        stroke-width: 3.49px;
      }

      .cls-13 {
        stroke: #0c0c0c;
        stroke-width: 3px;
      }
    </style>
  </defs>
  <rect class="cls-8" x="670.66" y="317.53" width="97.93" height="193.22" rx="13.15" ry="13.15"/>
  <rect class="cls-8" x="838.27" y="315.67" width="97.93" height="193.22" rx="13.15" ry="13.15"/>
  <rect class="cls-8" x="325.96" y="75.68" width="97.93" height="193.22" rx="13.15" ry="13.15"/>
  <rect class="cls-8" x="499.62" y="319.12" width="97.93" height="193.22" rx="13.15" ry="13.15"/>
  <rect class="cls-8" x="325.96" y="319.61" width="97.93" height="193.22" rx="13.15" ry="13.15"/>
  <rect class="cls-8" x="664.61" y="590.26" width="97.93" height="193.22" rx="13.15" ry="13.15"/>
  <circle class="cls-19" cx="683.63" cy="616.38" r="4.8"/>
  <circle class="cls-19" cx="745.83" cy="616.38" r="4.8"/>
  <rect class="cls-15" x="688.43" y="637.85" width="52.59" height="39.21" rx="3.91" ry="3.91"/>
  <line class="cls-10" x1="696.08" y1="688.44" x2="734.12" y2="688.44"/>
  <line class="cls-10" x1="678.83" y1="701.11" x2="747.45" y2="701.11"/>
  <line class="cls-10" x1="678.83" y1="710.32" x2="747.45" y2="710.32"/>
  <line class="cls-10" x1="678.83" y1="719.54" x2="747.45" y2="719.54"/>
  <line class="cls-10" x1="678.83" y1="728.75" x2="747.45" y2="728.75"/>
  <line class="cls-10" x1="685.1" y1="736.81" x2="741.03" y2="736.81"/>
  <line class="cls-10" x1="692.55" y1="746.03" x2="733.13" y2="746.03"/>
  <circle class="cls-19" cx="857.3" cy="344.09" r="4.8"/>
  <circle class="cls-19" cx="919.5" cy="344.09" r="4.8"/>
  <circle class="cls-19" cx="689.12" cy="344.09" r="4.8"/>
  <circle class="cls-19" cx="751.32" cy="344.09" r="4.8"/>
  <circle class="cls-19" cx="519.8" cy="344.09" r="4.8"/>
  <circle class="cls-19" cx="582" cy="344.09" r="4.8"/>
  <circle class="cls-19" cx="344.71" cy="342.94" r="4.8"/>
  <circle class="cls-19" cx="406.91" cy="342.94" r="4.8"/>
  <circle class="cls-19" cx="343.56" cy="98.74" r="4.8"/>
  <circle class="cls-19" cx="405.76" cy="98.74" r="4.8"/>
  <rect class="cls-3" x="850.63" y="360.34" width="74.11" height="14.12" rx="6.13" ry="6.13"/>
  <path class="cls-3" d="M917.77,366.4c0,.69-.26,1.32-.68,1.8-.5.57-1.23.92-2.04.92-1.5,0-2.72-1.22-2.72-2.72s1.22-2.72,2.72-2.72,2.72,1.22,2.72,2.72Z"/>
  <line class="cls-11" x1="919.62" y1="369.78" x2="917.1" y2="368.2"/>
  <rect class="cls-15" x="849.45" y="384.46" width="21.37" height="18.04" rx="2.98" ry="2.98"/>
  <line class="cls-11" x1="876.51" y1="386.81" x2="901.8" y2="386.81"/>
  <line class="cls-9" x1="876.41" y1="390.98" x2="919.67" y2="390.98"/>
  <line class="cls-11" x1="876.41" y1="395.58" x2="919.67" y2="395.58"/>
  <line class="cls-11" x1="876.41" y1="400.19" x2="896.14" y2="400.19"/>
  <rect class="cls-15" x="849.45" y="408.65" width="21.37" height="18.04" rx="2.98" ry="2.98"/>
  <line class="cls-11" x1="876.51" y1="411" x2="901.8" y2="411"/>
  <line class="cls-9" x1="876.41" y1="415.17" x2="919.67" y2="415.17"/>
  <line class="cls-11" x1="876.41" y1="419.77" x2="919.67" y2="419.77"/>
  <line class="cls-11" x1="876.41" y1="424.38" x2="896.14" y2="424.38"/>
  <rect class="cls-15" x="849.45" y="432.84" width="21.37" height="18.04" rx="2.98" ry="2.98"/>
  <line class="cls-11" x1="876.51" y1="435.19" x2="901.8" y2="435.19"/>
  <line class="cls-9" x1="876.41" y1="439.36" x2="919.67" y2="439.36"/>
  <line class="cls-11" x1="876.41" y1="443.96" x2="919.67" y2="443.96"/>
  <line class="cls-11" x1="876.41" y1="448.57" x2="896.14" y2="448.57"/>
  <rect class="cls-15" x="849.45" y="457.03" width="21.37" height="18.04" rx="2.98" ry="2.98"/>
  <line class="cls-11" x1="876.51" y1="459.38" x2="901.8" y2="459.38"/>
  <line class="cls-9" x1="876.41" y1="463.54" x2="919.67" y2="463.54"/>
  <line class="cls-11" x1="876.41" y1="468.15" x2="919.67" y2="468.15"/>
  <line class="cls-11" x1="876.41" y1="472.76" x2="896.14" y2="472.76"/>
  <rect class="cls-15" x="849.45" y="481.22" width="21.37" height="18.04" rx="2.98" ry="2.98"/>
  <line class="cls-11" x1="876.51" y1="483.57" x2="901.8" y2="483.57"/>
  <line class="cls-9" x1="876.41" y1="487.73" x2="919.67" y2="487.73"/>
  <line class="cls-11" x1="876.41" y1="492.34" x2="919.67" y2="492.34"/>
  <line class="cls-11" x1="876.41" y1="496.95" x2="896.14" y2="496.95"/>
  <circle class="cls-15" cx="721.64" cy="365.18" r="7.84"/>
  <line class="cls-4" x1="701.67" y1="382.02" x2="738.13" y2="382.02"/>
  <rect class="cls-17" x="682.84" y="401.23" width="30.95" height="24.7" rx="3.39" ry="3.39"/>
  <rect class="cls-17" x="725.46" y="401.23" width="30.95" height="24.7" rx="3.39" ry="3.39"/>
  <rect class="cls-17" x="683.82" y="433.49" width="72.59" height="57.94" rx="3.39" ry="3.39"/>
  <circle class="cls-17" cx="550.01" cy="387.02" r="16.89"/>
  <circle class="cls-1" cx="549.77" cy="385.57" r="3.75"/>
  <rect class="cls-1" x="540.75" y="389.32" width="17.65" height="8.23" rx="3.57" ry="3.57"/>
  <line class="cls-4" x1="528.98" y1="415.72" x2="566.9" y2="415.72"/>
  <rect class="cls-22" x="519.38" y="425.2" width="58.43" height="10.98" rx="4.77" ry="4.77"/>
  <rect class="cls-22" x="519.38" y="442.48" width="58.43" height="10.98" rx="4.77" ry="4.77"/>
  <rect class="cls-17" x="525.45" y="465.52" width="44.7" height="13.11" rx="4.77" ry="4.77"/>
  <line class="cls-4" x1="355.05" y1="381.16" x2="392.96" y2="381.16"/>
  <rect class="cls-22" x="345.44" y="399.86" width="58.43" height="10.98" rx="4.77" ry="4.77"/>
  <rect class="cls-22" x="345.44" y="417.14" width="58.43" height="10.98" rx="4.77" ry="4.77"/>
  <rect class="cls-22" x="345.44" y="435.57" width="58.43" height="10.98" rx="4.77" ry="4.77"/>
  <rect class="cls-17" x="351.52" y="457.45" width="44.7" height="13.11" rx="4.77" ry="4.77"/>
  <line class="cls-4" x1="355.05" y1="123.14" x2="392.96" y2="123.14"/>
  <rect class="cls-22" x="345.44" y="141.84" width="58.43" height="10.98" rx="4.77" ry="4.77"/>
  <rect class="cls-22" x="345.44" y="159.12" width="58.43" height="10.98" rx="4.77" ry="4.77"/>
  <rect class="cls-22" x="345.44" y="177.55" width="58.43" height="10.98" rx="4.77" ry="4.77"/>
  <rect class="cls-22" x="345.44" y="195.98" width="58.43" height="10.98" rx="4.77" ry="4.77"/>
  <rect class="cls-22" x="345.44" y="214.41" width="58.43" height="10.98" rx="4.77" ry="4.77"/>
  <rect class="cls-17" x="351.52" y="231.69" width="44.7" height="13.11" rx="4.77" ry="4.77"/>
  <line class="cls-5" x1="701.27" y1="524.74" x2="700.91" y2="579.44"/>
  <circle class="cls-16" cx="700.91" cy="521.73" r="4.34"/>
  <path class="cls-7" d="M727.77,524.74c-.12,7.51-.25,15.02-.37,22.52-.07.97.06,1.94.69,2.55.97.95,2.68.63,2.94.59,2.87-.41,67.95-.24,161.36.2.31-.04,2.29-.33,3.53-2.16,1.12-1.65.85-3.37.78-3.73.07-6.93.13-13.86.2-20.78"/>
  <circle class="cls-16" cx="727.4" cy="521.73" r="4.34"/>
  <circle class="cls-16" cx="896.73" cy="521.73" r="4.34"/>
  <path class="cls-7" d="M560.3,295.59c-.12-7.51-.24-15.02-.36-22.52-.07-.97.06-1.94.67-2.55.94-.95,2.59-.63,2.85-.59,2.77.41,65.76.24,156.16-.2.3.04,2.21.33,3.42,2.16,1.08,1.65.82,3.37.76,3.73l.19,20.78"/>
  <ellipse class="cls-16" cx="559.95" cy="298.61" rx="4.2" ry="4.34"/>
  <ellipse class="cls-16" cx="723.82" cy="298.61" rx="4.08" ry="4.34"/>
  <path class="cls-7" d="M376.26,538.56c-.13,7.51-.25,15.02-.38,22.52-.07.97.06,1.94.71,2.55.99.95,2.74.63,3.01.59,2.93-.41,69.55-.24,165.16.2.32-.04,2.34-.33,3.61-2.16,1.15-1.65.87-3.37.8-3.73.07-6.93.13-13.86.2-20.78"/>
  <ellipse class="cls-16" cx="375.89" cy="535.55" rx="4.44" ry="4.34"/>
  <ellipse class="cls-16" cx="549.2" cy="535.55" rx="4.31" ry="4.34"/>
  <circle class="cls-16" cx="700.91" cy="577.02" r="4.34"/>
  <line class="cls-5" x1="371.81" y1="279.35" x2="371.44" y2="313.34"/>
  <circle class="cls-16" cx="371.45" cy="279.12" r="4.34"/>
  <circle class="cls-16" cx="371.45" cy="310.19" r="4.34"/>
  <path class="cls-7" d="M434.58,159.84c46.46-.48,80.34-.57,86.27-.39,1.37.04,4.47.2,6.27,2.35,1.32,1.57,1.48,3.65,1.37,5.29-.12,44.53-.25,89.06-.37,133.59"/>
  <circle class="cls-16" cx="528.13" cy="298.26" r="4.34"/>
  <circle class="cls-16" cx="435.98" cy="160.04" r="4.34"/>
  <line class="cls-5" x1="782.26" y1="417.12" x2="825.22" y2="417.67"/>
  <circle class="cls-16" cx="779.25" cy="417.67" r="4.34"/>
  <circle class="cls-16" cx="828.51" cy="417.4" r="4.34"/>
  <ellipse class="cls-20" cx="283.07" cy="643.37" rx="34.41" ry="61.46" transform="translate(-417.49 700.53) rotate(-70.92)"/>
  <rect class="cls-20" x="231.28" y="547.07" width="85.94" height="80.51" transform="translate(-9.58 4.57) rotate(-.94)"/>
  <path class="cls-24" d="M231.94,553.08l.04,2.7c.51,31.44,26.68,56.73,58.12,56.22l27.94-.46-.34-20.74-30.9.51c-25.13.41-46.91-15.68-54.86-38.22Z"/>
  <path class="cls-20" d="M228.22,483.77l.96,58.48c.08,4.79.81,9.41,2.15,13.78.22.79.47,1.55.75,2.29,7.08,20.13,26.44,34.49,48.78,34.13l28.56-.47c23.71-.39,42.78-20.17,42.39-43.98l-1.08-66.24c-.02-.95-.06-1.9-.15-2.83-.07-1.03-.19-2.06-.37-3.06-1.39-9.08-5.61-17.21-11.72-23.52-7.99-8.28-19.25-13.39-31.58-13.19l-36.28.59c-21.26.35-38.79,16.3-41.9,36.75-.38,2.36-.55,4.8-.51,7.26Z"/>
  <path class="cls-23" d="M246.62,454.49c-9.79,11.41,8.6,28.2,2.53,44.65-5.44,14.74-5.8,24.11-23.67,13.66-24.72-14.46-26-59.58-11.29-77.44,6.27-7.61,12.4-6.58,29.89-11.58,47.09-13.45,51.82-34.99,79.64-34.57,21.69.32,48.31,13.85,50.66,32.44,2.28,18.05-20.07,36.37-41.53,38.92-38.8,4.61-77.32-16.43-86.22-6.07Z"/>
  <path class="cls-25" d="M211.7,507.54c.74,4.42,1.99,8.47,3.59,11.92,0,0,.02.03,0,.06,3.53,7.53,8.65,12.17,13.53,11.35,1.03-.17,1.97-.56,2.85-1.19,5.24-3.59,7.78-14.39,5.77-26.44-.22-1.31-.47-2.58-.8-3.81,0,0,0-.03,0-.06-2.45-9.91-7.56-17.41-12.88-19.15-1.15-.38-2.31-.5-3.45-.31-7.11,1.19-10.97,13.55-8.62,27.63Z"/>
  <line class="cls-12" x1="348.95" y1="478.01" x2="325.96" y2="477.77"/>
  <line class="cls-12" x1="293.3" y1="478.59" x2="270.31" y2="478.36"/>
  <circle class="cls-23" cx="336.88" cy="499.77" r="7.95"/>
  <circle class="cls-23" cx="284.63" cy="500.11" r="7.95"/>
  <path class="cls-14" d="M316.62,513.13l.28,17.03c.04,2.68-2.09,4.89-4.78,4.93l-7.99.13"/>
  <path class="cls-14" d="M325.7,556.45c-1.5,1.43-6.72,6.06-14.92,6.77-9.12.79-15.55-3.81-17.07-4.96"/>
  <path class="cls-14" d="M231.83,512.23c-.07-5.68-1.84-11.6-4.6-15.35-2.75-3.75-6.06-4.75-8.58-2.6"/>
  <path class="cls-20" d="M531.27,600.56c-3.51-5.64-.07-10.58,3.84-35.84.22-1.43,1.57-14.32,4.27-40.11,1.03-9.85,2.51-24.2,4.27-41.82,1.73-2.38,4.39-3.8,6.83-3.41,3.6.57,6.7,5.05,5.55,10.24.28,10.52.57,21.05.85,31.57,1.35-2.47,5.83-9.87,14.93-13.23,6.85-2.53,15.1-2.32,20.91,1.28,1.46.91,3.94,2.49,4.27,5.12.27,2.19-.99,4.79-2.99,5.97-4.8,2.84-10.59-4.43-16.64-2.56-2.51.78-5.49,3.26-7.68,10.67,1.43-.75,8.98-4.53,16.64-1.28,2.21.94,3.9,2.23,5.12,3.41,0,0,1.89.77,3.27,1.53,4.3,2.35,4.6,6.18,3.09,13.97-1.12,5.77-6.2,9.85-10.2,9.25-2.56,16.93-5.12,33.85-7.68,50.78-33.03,5.89-44.63.9-48.64-5.55Z"/>
  <path class="cls-18" d="M352.74,601.14c9.07-2.38,32.89,17.86,25.29,12.35,15.26,10.2,62.71,42.88,126.46,88.23,3.3-20.46,7.36-41.88,12.35-64.11,2.74-12.21,5.63-24.06,8.63-35.55,1.12-4.3,5.11-7.23,9.55-7,13.33.69,26.66,1.37,39.99,2.06,5.21.27,9.2,4.74,8.87,9.95-3.56,56.64-7.13,113.29-10.69,169.93-.38,5.99-2.86,11.68-7.08,15.95s-10.63,9.13-19.28,11.71c-23.02,6.86-41.85-8.04-43.53-9.41-37.25-19.21-74.5-38.43-111.76-57.64-11.2-7.11-31.6-22.41-43.13-49.06-16.32-37.71-8.77-83.96,4.31-87.4Z"/>
  <path class="cls-26" d="M217.19,605.78c7.66-4.28,24.65-1.18,64.12,26.61,15.64,11.02,37.27,1.27,39.49-17.85.52-4.46,1.03-8.92,1.55-13.38,5.4-1.66,13.65-3.31,19.92,0,4.29,2.26,6,5.95,6.64,7.39,36.23,81.3,29.89,162.6,29.89,162.6-2.86,36.62-6.67,91.85-9.96,168.14-36.9-.31-73.8-.62-110.69-.92,6.07-42.2,9.61-102.07-4.43-171.83-18.07-89.83-55.97-149.87-36.53-160.75Z"/>
  <path class="cls-17" d="M207.13,599.63c16.08,1.03,27.11,12.55,31.19,17.34,16.83,25.82,35.71,61.27,48.31,105.84,26.8,94.77,9.81,176.11-1.83,216.47-43.62-1-87.24-1.99-130.87-2.99-3.47-93.48-6.93-186.97-10.4-280.45,2.99-7.94,8.81-20.35,20.18-32.29,9.76-10.25,23.97-25.16,43.42-23.92Z"/>
  <path class="cls-17" d="M392.22,737.04c.65,8.04,1.24,16.16,1.76,24.33,3.93,61.76,3.54,120.84,0,176.85-13.14.36-26.28.71-39.43,1.07,5.35-59.45,5.17-111.62,2.96-154.18-4.64-89.38-6.96-134.08-20.59-162.01-2.36-4.84-18.96-18.13-13.43-23.54,4.97-4.86,26.82-1.8,29.9-.2,34.6,17.94,38.44,101.98,38.82,137.68Z"/>
  <path class="cls-20" d="M350.26,864.96c6.86-3.83,9.22.49,28.54-.35,17.8-.77,25.75-4.87,33.06.69,3.16,2.4,4.49,5.31,6.26,9.32,2.56,5.78,6.75,18.1,3.48,36.26-1.28,9.81-4.73,13.15-7.31,14.5-11.21,5.88-24.23-16.38-55.34-21.06-10.38-1.56-15.5-.07-19.14-4.49-6.73-8.17-1.52-28.2,10.44-34.88Z"/>
  <path class="cls-2" d="M210.08,833.19c7.95-39.32,15.9-78.64,23.85-117.97.57-3.05,5.42-31.77-15.29-51.57-2.46-2.36-22.28-21.32-45.25-14.23-14.78,4.56-21.97,17.16-23.85,20.75-9.78,59.28-19.57,118.56-29.35,177.84l89.89-14.82Z"/>
  <path class="cls-18" d="M158.77,625.87c-14.54,4.13-22.3,14.87-25.15,19.52-.48.78-.8,1.64-.96,2.54-10.51,58.67-21.02,117.35-31.53,176.02-.06.33-.1.66-.11,1-.34,8.26.62,21.3,9.31,33.29,11.93,16.44,32.06,22.11,45.79,25.49,60.35,14.85,156.67,24.7,184.05,27.32,3.37.32,6.52-1.69,7.66-4.88,4.68-13.14,9.36-26.29,14.04-39.43,1.42-3.98-.79-8.34-4.84-9.56-50.63-15.2-101.26-30.39-151.88-45.59-3.7-1.11-5.92-4.89-5.09-8.66,8.14-37.09,16.27-74.18,24.41-111.28.62-3.05,5.88-31.77-16.59-51.57-2.67-2.36-24.18-21.32-49.1-14.23Z"/>
  <path class="cls-21" d="M594.84,938.52h-196.86c-7.84,0-13.38-7.59-10.93-14.96l45.26-136.03c1.55-4.67,5.96-7.83,10.93-7.83h196.86c7.84,0,13.38,7.59,10.93,14.96l-45.26,136.03c-1.55,4.67-5.96,7.83-10.93,7.83Z"/>
  <line class="cls-6" x1="327.81" y1="931.31" x2="402.81" y2="931.31"/>
  <image width="1024" height="1024" transform="translate(504.19 832.65) rotate(2.01) scale(.04)" xlink:href="../../../../../../Downloads/Techysquad-Logo-01.png"/>
  <line class="cls-13" x1="124.76" y1="937.76" x2="929.68" y2="940.85"/>
</svg>