<svg id="Layer_6" xmlns="http://www.w3.org/2000/svg" viewBox="0 0 1024 1024">
  <path d="M997.09,265.69v505.07c0,25.09-20.34,45.42-45.43,45.42H74.34c-25.09,0-45.43-20.33-45.43-45.42v-505.07c0-25.08,20.34-45.42,45.43-45.42h877.32c25.09,0,45.43,20.34,45.43,45.42Z" style="fill: #fff;"/>
  <line x1="618.24" y1="402.87" x2="618.24" y2="471.99" style="fill: none; stroke: #d3d3d3; stroke-linecap: round; stroke-linejoin: round; stroke-width: 4px;"/>
  <line x1="448.24" y1="541.87" x2="448.24" y2="610.99" style="fill: none; stroke: #d3d3d3; stroke-linecap: round; stroke-linejoin: round; stroke-width: 4px;"/>
  <line x1="791.24" y1="541.87" x2="791.24" y2="610.99" style="fill: none; stroke: #d3d3d3; stroke-linecap: round; stroke-linejoin: round; stroke-width: 4px;"/>
  <line x1="621.24" y1="541.87" x2="621.24" y2="610.99" style="fill: none; stroke: #d3d3d3; stroke-linecap: round; stroke-linejoin: round; stroke-width: 4px;"/>
  <polyline points="546.55 368.82 444.21 368.82 444.21 471.99" style="fill: none; stroke: #d3d3d3; stroke-linecap: round; stroke-linejoin: round; stroke-width: 4px;"/>
  <polyline points="386.55 508.82 284.21 508.82 284.21 611.99" style="fill: none; stroke: #d3d3d3; stroke-linecap: round; stroke-linejoin: round; stroke-width: 4px;"/>
  <polyline points="685.21 368.82 787.55 368.82 787.55 471.99" style="fill: none; stroke: #d3d3d3; stroke-linecap: round; stroke-linejoin: round; stroke-width: 4px;"/>
  <polyline points="855.21 507.82 957.55 507.82 957.55 610.99" style="fill: none; stroke: #d3d3d3; stroke-linecap: round; stroke-linejoin: round; stroke-width: 4px;"/>
  <g>
    <rect x="213.55" y="602.91" width="149.07" height="78.89" rx="12" ry="12" style="fill: #a6c626;"/>
    <circle cx="289.03" cy="633.13" r="13.55" style="fill: #fff;"/>
    <path d="M271.02,648.4h37.28c6.62,0,12,5.38,12,12v11.49h-61.28v-11.49c0-6.62,5.38-12,12-12Z" style="fill: #fff;"/>
  </g>
  <path d="M77.17,220.27h874.23c25.21,0,45.68,20.47,45.68,45.68v17.6H77.17v-63.28h0Z" style="fill: #333;"/>
  <path d="M71.53,220.27h182.06v595.91H71.53c-23.52,0-42.62-19.1-42.62-42.62v-510.68c0-23.52,19.1-42.62,42.62-42.62Z" style="fill: #212121;"/>
  <circle cx="789" cy="251.91" r="18.18" style="fill: #7f7f7f;"/>
  <line x1="819.37" y1="244.09" x2="916.39" y2="244.09" style="fill: none; stroke: #bababa; stroke-linecap: round; stroke-miterlimit: 10; stroke-width: 6px;"/>
  <line x1="819.37" y1="260.98" x2="949.07" y2="260.98" style="fill: none; stroke: #ea550f; stroke-linecap: round; stroke-miterlimit: 10; stroke-width: 6px;"/>
  <rect x="70.62" y="396.99" width="126.38" height="38.11" rx="12" ry="12" style="fill: #ea550f;"/>
  <rect x="74.62" y="298.42" width="133.28" height="50.62" rx="12" ry="12" style="fill: #333;"/>
  <text transform="translate(94.64 424.1)" style="fill: #fff; font-family: MicrosoftTaiLe-Bold, &apos;Microsoft Tai Le&apos;; font-size: 18px; font-weight: 700;"><tspan x="0" y="0">IB Levels</tspan></text>
  <rect x="74.62" y="527.99" width="126.38" height="26.04" rx="12" ry="12" style="fill: #333;"/>
  <rect x="74.62" y="471.99" width="126.38" height="26.04" rx="12" ry="12" style="fill: #333;"/>
  <rect x="74.62" y="586.99" width="126.38" height="26.04" rx="12" ry="12" style="fill: #333;"/>
  <rect x="74.62" y="646.99" width="126.38" height="26.04" rx="12" ry="12" style="fill: #333;"/>
  <rect x="74.62" y="707.99" width="126.38" height="26.04" rx="12" ry="12" style="fill: #333;"/>
  <g>
    <rect x="543.7" y="329.37" width="149.07" height="78.89" rx="12" ry="12" style="fill: #ea550f;"/>
    <circle cx="619.18" cy="359.58" r="13.55" style="fill: #fff;"/>
    <path d="M601.17,374.85h37.28c6.62,0,12,5.38,12,12v11.49h-61.28v-11.49c0-6.62,5.38-12,12-12Z" style="fill: #fff;"/>
  </g>
  <g>
    <rect x="373.55" y="465.91" width="149.07" height="78.89" rx="12" ry="12" style="fill: #a6c626;"/>
    <circle cx="449.03" cy="496.13" r="13.55" style="fill: #fff;"/>
    <path d="M431.02,511.4h37.28c6.62,0,12,5.38,12,12v11.49h-61.28v-11.49c0-6.62,5.38-12,12-12Z" style="fill: #fff;"/>
  </g>
  <g>
    <rect x="546.55" y="465.91" width="149.07" height="78.89" rx="12" ry="12" style="fill: #ea550f;"/>
    <circle cx="622.03" cy="496.13" r="13.55" style="fill: #fff;"/>
    <path d="M604.02,511.4h37.28c6.62,0,12,5.38,12,12v11.49h-61.28v-11.49c0-6.62,5.38-12,12-12Z" style="fill: #fff;"/>
  </g>
  <g>
    <rect x="718.55" y="465.91" width="149.07" height="78.89" rx="12" ry="12" style="fill: #a6c626;"/>
    <circle cx="794.03" cy="496.13" r="13.55" style="fill: #fff;"/>
    <path d="M776.02,511.4h37.28c6.62,0,12,5.38,12,12v11.49h-61.28v-11.49c0-6.62,5.38-12,12-12Z" style="fill: #fff;"/>
  </g>
  <g>
    <rect x="373.55" y="602.91" width="149.07" height="78.89" rx="12" ry="12" style="fill: #ea550f;"/>
    <circle cx="449.03" cy="633.13" r="13.55" style="fill: #fff;"/>
    <path d="M431.02,648.4h37.28c6.62,0,12,5.38,12,12v11.49h-61.28v-11.49c0-6.62,5.38-12,12-12Z" style="fill: #fff;"/>
  </g>
  <g>
    <rect x="546.55" y="602.91" width="149.07" height="78.89" rx="12" ry="12" style="fill: #a6c626;"/>
    <circle cx="622.03" cy="633.13" r="13.55" style="fill: #fff;"/>
    <path d="M604.02,648.4h37.28c6.62,0,12,5.38,12,12v11.49h-61.28v-11.49c0-6.62,5.38-12,12-12Z" style="fill: #fff;"/>
  </g>
  <g>
    <rect x="718.55" y="602.91" width="149.07" height="78.89" rx="12" ry="12" style="fill: #ea550f;"/>
    <circle cx="794.03" cy="633.13" r="13.55" style="fill: #fff;"/>
    <path d="M776.02,648.4h37.28c6.62,0,12,5.38,12,12v11.49h-61.28v-11.49c0-6.62,5.38-12,12-12Z" style="fill: #fff;"/>
  </g>
  <g>
    <path d="M997.09,602.91v78.9h-99.54c-6.6,0-12-5.4-12-12v-54.9c0-6.6,5.4-12,12-12h99.54Z" style="fill: #a6c626;"/>
    <circle cx="961.03" cy="633.13" r="13.55" style="fill: #fff;"/>
    <path d="M943.02,648.4h37.28c6.62,0,12,5.38,12,12v11.49h-61.28v-11.49c0-6.62,5.38-12,12-12Z" style="fill: #fff;"/>
  </g>
</svg>