
<svg id="Layer_8" xmlns="http://www.w3.org/2000/svg" viewBox="0 0 1024 1024">
  <g>
    <rect x="27.66" y="173.96" width="968.17" height="595.91" rx="45.43" ry="45.43" style="fill: #fff;"/>
    <path d="M995.83,237.94H27.66v-27.01c0-25.09,20.34-45.43,45.43-45.43h877.32c25.09,0,45.43,20.34,45.43,45.43v27.01Z" style="fill: #fff;"/>
    <rect x="115.08" y="310.75" width="202.21" height="407.49" rx="26.04" ry="26.04" style="fill: #fff;"/>
    <rect x="156.57" y="286.09" width="121.53" height="61.28" rx="12.77" ry="12.77" style="fill: #fff;"/>
    <rect x="705.08" y="310.75" width="202.21" height="407.49" rx="26.04" ry="26.04" style="fill: #fff;"/>
    <rect x="411.5" y="312.71" width="202.21" height="407.49" rx="26.04" ry="26.04" style="fill: #fff;"/>
    <circle cx="921.44" cy="203.56" r="16.79" style="fill: #fff;"/>
    <rect x="450.57" y="286.09" width="121.53" height="61.28" rx="12.77" ry="12.77" style="fill: #fff;"/>
    <rect x="744.57" y="286.09" width="121.53" height="61.28" rx="12.77" ry="12.77" style="fill: #fff;"/>
    <rect x="768.57" y="689.88" width="85.53" height="36.49" rx="7.85" ry="7.85" style="fill: #fff;"/>
    <rect x="471.57" y="689.88" width="85.53" height="36.49" rx="7.85" ry="7.85" style="fill: #fff;"/>
    <rect x="171.57" y="689.88" width="85.53" height="36.49" rx="7.85" ry="7.85" style="fill: #fff;"/>
    <circle cx="859.39" cy="203.61" r="16.59" style="fill: #fff;"/>
    <line x1="350.41" y1="480.3" x2="373.06" y2="496.81" style="fill: #fff;"/>
    <line x1="350.41" y1="513.7" x2="373.06" y2="497.18" style="fill: #fff;"/>
    <line x1="643.41" y1="480.3" x2="666.06" y2="496.81" style="fill: #fff;"/>
    <line x1="643.41" y1="513.7" x2="666.06" y2="497.18" style="fill: #fff;"/>
  </g>
  <g>
    <rect x="27.66" y="173.96" width="968.17" height="595.91" rx="45.43" ry="45.43" style="fill: #fff;"/>
    <path d="M995.83,237.94H27.66v-27.01c0-25.09,20.34-45.43,45.43-45.43h877.32c25.09,0,45.43,20.34,45.43,45.43v27.01Z" style="fill: #333;"/>
    <rect x="115.08" y="310.75" width="202.21" height="407.49" rx="26.04" ry="26.04" style="fill: #ededed;"/>
    <rect x="156.57" y="286.09" width="121.53" height="61.28" rx="12.77" ry="12.77" style="fill: #ea550f;"/>
    <rect x="705.08" y="310.75" width="202.21" height="407.49" rx="26.04" ry="26.04" style="fill: #ededed;"/>
    <rect x="411.5" y="312.71" width="202.21" height="407.49" rx="26.04" ry="26.04" style="fill: #ededed;"/>
    <circle cx="921.44" cy="203.56" r="16.79" style="fill: #fff;"/>
    <rect x="450.57" y="286.09" width="121.53" height="61.28" rx="12.77" ry="12.77" style="fill: #a6c626;"/>
    <rect x="744.57" y="286.09" width="121.53" height="61.28" rx="12.77" ry="12.77" style="fill: #ea550f;"/>
    <rect x="768.57" y="689.88" width="85.53" height="36.49" rx="7.85" ry="7.85" style="fill: #333;"/>
    <rect x="471.57" y="689.88" width="85.53" height="36.49" rx="7.85" ry="7.85" style="fill: #333;"/>
    <rect x="171.57" y="689.88" width="85.53" height="36.49" rx="7.85" ry="7.85" style="fill: #333;"/>
    <circle cx="859.39" cy="203.61" r="16.59" style="fill: #fff;"/>
    <line x1="156.57" y1="405.73" x2="274.01" y2="405.73" style="fill: none; stroke: #8e8e8e; stroke-linecap: round; stroke-miterlimit: 10; stroke-width: 6px;"/>
    <line x1="350.41" y1="480.3" x2="373.06" y2="496.81" style="fill: none; stroke: #212121; stroke-linecap: round; stroke-miterlimit: 10; stroke-width: 6px;"/>
    <line x1="350.41" y1="513.7" x2="373.06" y2="497.18" style="fill: none; stroke: #212121; stroke-linecap: round; stroke-miterlimit: 10; stroke-width: 6px;"/>
    <line x1="643.41" y1="480.3" x2="666.06" y2="496.81" style="fill: none; stroke: #212121; stroke-linecap: round; stroke-miterlimit: 10; stroke-width: 6px;"/>
    <line x1="643.41" y1="513.7" x2="666.06" y2="497.18" style="fill: none; stroke: #212121; stroke-linecap: round; stroke-miterlimit: 10; stroke-width: 6px;"/>
    <line x1="156.57" y1="435.73" x2="274.01" y2="435.73" style="fill: none; stroke: #8e8e8e; stroke-linecap: round; stroke-miterlimit: 10; stroke-width: 6px;"/>
    <line x1="156.57" y1="465.73" x2="274.01" y2="465.73" style="fill: none; stroke: #8e8e8e; stroke-linecap: round; stroke-miterlimit: 10; stroke-width: 6px;"/>
    <line x1="156.57" y1="495.73" x2="274.01" y2="495.73" style="fill: none; stroke: #8e8e8e; stroke-linecap: round; stroke-miterlimit: 10; stroke-width: 6px;"/>
    <line x1="156.57" y1="525.73" x2="274.01" y2="525.73" style="fill: none; stroke: #8e8e8e; stroke-linecap: round; stroke-miterlimit: 10; stroke-width: 6px;"/>
    <line x1="454.57" y1="405.73" x2="572.01" y2="405.73" style="fill: none; stroke: #8e8e8e; stroke-linecap: round; stroke-miterlimit: 10; stroke-width: 6px;"/>
    <line x1="454.57" y1="435.73" x2="572.01" y2="435.73" style="fill: none; stroke: #8e8e8e; stroke-linecap: round; stroke-miterlimit: 10; stroke-width: 6px;"/>
    <line x1="454.57" y1="465.73" x2="572.01" y2="465.73" style="fill: none; stroke: #8e8e8e; stroke-linecap: round; stroke-miterlimit: 10; stroke-width: 6px;"/>
    <line x1="454.57" y1="495.73" x2="572.01" y2="495.73" style="fill: none; stroke: #8e8e8e; stroke-linecap: round; stroke-miterlimit: 10; stroke-width: 6px;"/>
    <line x1="454.57" y1="525.73" x2="572.01" y2="525.73" style="fill: none; stroke: #8e8e8e; stroke-linecap: round; stroke-miterlimit: 10; stroke-width: 6px;"/>
    <line x1="749.57" y1="405.73" x2="867.01" y2="405.73" style="fill: none; stroke: #8e8e8e; stroke-linecap: round; stroke-miterlimit: 10; stroke-width: 6px;"/>
    <line x1="749.57" y1="435.73" x2="867.01" y2="435.73" style="fill: none; stroke: #8e8e8e; stroke-linecap: round; stroke-miterlimit: 10; stroke-width: 6px;"/>
    <line x1="749.57" y1="465.73" x2="867.01" y2="465.73" style="fill: none; stroke: #8e8e8e; stroke-linecap: round; stroke-miterlimit: 10; stroke-width: 6px;"/>
    <line x1="749.57" y1="495.73" x2="867.01" y2="495.73" style="fill: none; stroke: #8e8e8e; stroke-linecap: round; stroke-miterlimit: 10; stroke-width: 6px;"/>
    <line x1="749.57" y1="525.73" x2="867.01" y2="525.73" style="fill: none; stroke: #8e8e8e; stroke-linecap: round; stroke-miterlimit: 10; stroke-width: 6px;"/>
  </g>
</svg>