<svg id="Layer_9" xmlns="http://www.w3.org/2000/svg" viewBox="0 0 1024 1024">
  <rect x="30.91" y="171.47" width="968.17" height="595.91" rx="45.43" ry="45.43" style="fill: #fff;"/>
  <path d="M68.25,163.47h893.51c20.6,0,37.33,16.73,37.33,37.33v41.4H30.91v-41.4c0-20.6,16.73-37.33,37.33-37.33Z" style="fill: #333;"/>
  <circle cx="923.32" cy="202.63" r="14.55" style="fill: #fff;"/>
  <circle cx="873.32" cy="202.63" r="14.55" style="fill: #fff;"/>
  <rect x="87.09" y="328.94" width="246.89" height="325.83" rx="19.15" ry="19.15" style="fill: #ededed;"/>
  <circle cx="136.24" cy="373.99" r="28.18" style="fill: #ea550f;"/>
  <line x1="180.37" y1="361.96" x2="247.55" y2="361.96" style="fill: none; stroke: #bfbfbf; stroke-linecap: round; stroke-miterlimit: 10; stroke-width: 9px;"/>
  <line x1="180.37" y1="382.79" x2="228.24" y2="382.79" style="fill: none; stroke: #bfbfbf; stroke-linecap: round; stroke-miterlimit: 10; stroke-width: 4px;"/>
  <rect x="105.56" y="425.59" width="214.98" height="111.69" rx="10.72" ry="10.72" style="fill: #d8d8d8;"/>
  <g>
    <polyline points="123.28 519.09 160.22 483.96 183.93 496.98 209.72 460.63 270.02 516.2 303.48 439.64" style="fill: none; stroke: #ea550f; stroke-linecap: round; stroke-linejoin: round; stroke-width: 3px;"/>
    <circle cx="123.38" cy="519.09" r="3.78" style="fill: #ea550f;"/>
    <circle cx="160.59" cy="484.77" r="3.78" style="fill: #ea550f;"/>
    <circle cx="184.02" cy="496.44" r="3.78" style="fill: #ea550f;"/>
    <circle cx="210.07" cy="461.43" r="3.78" style="fill: #ea550f;"/>
    <circle cx="269.44" cy="514.56" r="3.78" style="fill: #ea550f;"/>
    <circle cx="304.03" cy="439.05" r="3.78" style="fill: #ea550f;"/>
  </g>
  <rect x="109.67" y="558.28" width="49.27" height="26.87" rx="5.87" ry="5.87" style="fill: #d8d8d8;"/>
  <rect x="111.6" y="606.14" width="116.63" height="26.87" rx="5.87" ry="5.87" style="fill: #a6c626;"/>
  <rect x="188.6" y="558.28" width="49.27" height="26.87" rx="5.87" ry="5.87" style="fill: #d8d8d8;"/>
  <rect x="268.64" y="558.28" width="49.27" height="26.87" rx="5.87" ry="5.87" style="fill: #d8d8d8;"/>
  <rect x="394.07" y="328.94" width="246.89" height="325.83" rx="19.15" ry="19.15" style="fill: #ededed;"/>
  <circle cx="443.22" cy="373.99" r="28.18" style="fill: #ea550f;"/>
  <line x1="487.35" y1="361.96" x2="554.53" y2="361.96" style="fill: none; stroke: #bfbfbf; stroke-linecap: round; stroke-miterlimit: 10; stroke-width: 9px;"/>
  <line x1="487.35" y1="382.79" x2="535.22" y2="382.79" style="fill: none; stroke: #bfbfbf; stroke-linecap: round; stroke-miterlimit: 10; stroke-width: 4px;"/>
  <rect x="412.54" y="425.59" width="214.98" height="111.69" rx="10.72" ry="10.72" style="fill: #d8d8d8;"/>
  <g>
    <polyline points="430.26 519.09 467.21 483.96 490.91 496.98 516.7 460.63 577 516.2 610.46 439.64" style="fill: none; stroke: #ea550f; stroke-linecap: round; stroke-linejoin: round; stroke-width: 3px;"/>
    <circle cx="430.36" cy="519.09" r="3.78" style="fill: #ea550f;"/>
    <circle cx="467.58" cy="484.77" r="3.78" style="fill: #ea550f;"/>
    <circle cx="491" cy="496.44" r="3.78" style="fill: #ea550f;"/>
    <circle cx="517.05" cy="461.43" r="3.78" style="fill: #ea550f;"/>
    <circle cx="576.42" cy="514.56" r="3.78" style="fill: #ea550f;"/>
    <circle cx="611.01" cy="439.05" r="3.78" style="fill: #ea550f;"/>
  </g>
  <rect x="416.65" y="558.28" width="49.27" height="26.87" rx="5.87" ry="5.87" style="fill: #d8d8d8;"/>
  <rect x="418.58" y="606.14" width="116.63" height="26.87" rx="5.87" ry="5.87" style="fill: #a6c626;"/>
  <rect x="495.59" y="558.28" width="49.27" height="26.87" rx="5.87" ry="5.87" style="fill: #d8d8d8;"/>
  <rect x="575.62" y="558.28" width="49.27" height="26.87" rx="5.87" ry="5.87" style="fill: #d8d8d8;"/>
  <rect x="701.05" y="328.94" width="246.89" height="325.83" rx="19.15" ry="19.15" style="fill: #ededed;"/>
  <circle cx="750.2" cy="373.99" r="28.18" style="fill: #ea550f;"/>
  <line x1="794.34" y1="361.96" x2="861.52" y2="361.96" style="fill: none; stroke: #bfbfbf; stroke-linecap: round; stroke-miterlimit: 10; stroke-width: 9px;"/>
  <line x1="794.34" y1="382.79" x2="842.2" y2="382.79" style="fill: none; stroke: #bfbfbf; stroke-linecap: round; stroke-miterlimit: 10; stroke-width: 4px;"/>
  <rect x="719.53" y="425.59" width="214.98" height="111.69" rx="10.72" ry="10.72" style="fill: #d8d8d8;"/>
  <g>
    <polyline points="737.24 519.09 774.19 483.96 797.89 496.98 823.68 460.63 883.98 516.2 917.45 439.64" style="fill: none; stroke: #ea550f; stroke-linecap: round; stroke-linejoin: round; stroke-width: 3px;"/>
    <circle cx="737.35" cy="519.09" r="3.78" style="fill: #ea550f;"/>
    <circle cx="774.56" cy="484.77" r="3.78" style="fill: #ea550f;"/>
    <circle cx="797.98" cy="496.44" r="3.78" style="fill: #ea550f;"/>
    <circle cx="824.03" cy="461.43" r="3.78" style="fill: #ea550f;"/>
    <circle cx="883.4" cy="514.56" r="3.78" style="fill: #ea550f;"/>
    <circle cx="917.99" cy="439.05" r="3.78" style="fill: #ea550f;"/>
  </g>
  <rect x="723.63" y="558.28" width="49.27" height="26.87" rx="5.87" ry="5.87" style="fill: #d8d8d8;"/>
  <rect x="725.57" y="606.14" width="116.63" height="26.87" rx="5.87" ry="5.87" style="fill: #a6c626;"/>
  <rect x="802.57" y="558.28" width="49.27" height="26.87" rx="5.87" ry="5.87" style="fill: #d8d8d8;"/>
  <rect x="882.6" y="558.28" width="49.27" height="26.87" rx="5.87" ry="5.87" style="fill: #d8d8d8;"/>
</svg>