<?xml version="1.0" encoding="UTF-8"?>
<svg id="Layer_5" xmlns="http://www.w3.org/2000/svg" viewBox="0 0 1024 1024">
  <defs>
    <style>
      .cls-1 {
        stroke: #a6c626;
        stroke-width: 3px;
      }

      .cls-1, .cls-2, .cls-3, .cls-4, .cls-5, .cls-6, .cls-7 {
        fill: none;
        stroke-linecap: round;
      }

      .cls-1, .cls-5, .cls-7 {
        stroke-linejoin: round;
      }

      .cls-8 {
        fill: #282828;
        font-size: 20px;
      }

      .cls-8, .cls-9, .cls-10 {
        font-family: MicrosoftTaiLe-Bold, 'Microsoft Tai Le';
        font-weight: 700;
      }

      .cls-9 {
        fill: #c1c1c1;
        font-size: 10px;
      }

      .cls-11, .cls-10 {
        fill: #fff;
      }

      .cls-12 {
        fill: #a6c626;
      }

      .cls-13 {
        fill: #ea550f;
      }

      .cls-2 {
        stroke: #bababa;
      }

      .cls-2, .cls-3 {
        stroke-width: 6px;
      }

      .cls-2, .cls-3, .cls-4, .cls-6 {
        stroke-miterlimit: 10;
      }

      .cls-10 {
        font-size: 18px;
      }

      .cls-14 {
        fill: #d8d8d8;
      }

      .cls-3, .cls-5 {
        stroke: #ea550f;
      }

      .cls-15 {
        fill: #212121;
      }

      .cls-16 {
        fill: #333;
      }

      .cls-4 {
        stroke-width: 12px;
      }

      .cls-4, .cls-7 {
        stroke: #cecece;
      }

      .cls-5, .cls-7 {
        stroke-width: 4px;
      }

      .cls-17 {
        fill: #7f7f7f;
      }

      .cls-6 {
        stroke: #ededed;
        stroke-width: 10px;
      }

      .cls-18 {
        fill: #ededed;
      }
    </style>
  </defs>
  <rect class="cls-11" x="27.91" y="218.37" width="968.17" height="595.91" rx="45.43" ry="45.43"/>
  <path class="cls-16" d="M76.17,218.37h874.23c25.21,0,45.68,20.47,45.68,45.68v17.6H76.17v-63.28h0Z"/>
  <path class="cls-15" d="M70.53,218.37h182.06v595.91H70.53c-23.52,0-42.62-19.1-42.62-42.62v-510.68c0-23.52,19.1-42.62,42.62-42.62Z"/>
  <circle class="cls-17" cx="787.65" cy="249.62" r="18.18"/>
  <line class="cls-2" x1="818.02" y1="241.8" x2="915.04" y2="241.8"/>
  <line class="cls-3" x1="818.02" y1="258.69" x2="947.72" y2="258.69"/>
  <rect class="cls-16" x="76.17" y="267.8" width="133.28" height="50.62" rx="12" ry="12"/>
  <rect class="cls-13" x="68.26" y="366.01" width="138.38" height="40.85" rx="12" ry="12"/>
  <text class="cls-10" transform="translate(89.19 393.48)"><tspan x="0" y="0">Dashboard</tspan></text>
  <text class="cls-8" transform="translate(290.19 317.48)"><tspan x="0" y="0">Dashboard</tspan></text>
  <rect class="cls-16" x="76.17" y="441.37" width="126.38" height="26.04" rx="12" ry="12"/>
  <rect class="cls-16" x="76.17" y="501.37" width="126.38" height="26.04" rx="12" ry="12"/>
  <rect class="cls-16" x="76.17" y="560.37" width="126.38" height="26.04" rx="12" ry="12"/>
  <rect class="cls-16" x="76.17" y="620.37" width="126.38" height="26.04" rx="12" ry="12"/>
  <rect class="cls-16" x="76.17" y="681.37" width="126.38" height="26.04" rx="12" ry="12"/>
  <rect class="cls-18" x="285.28" y="338.5" width="260.43" height="238.89" rx="16.09" ry="16.09"/>
  <path class="cls-18" d="M301.36,602.95h639.83c8.88,0,16.09,7.21,16.09,16.09v195.26H285.28v-195.26c0-8.88,7.21-16.09,16.09-16.09Z"/>
  <path class="cls-14" d="M301.36,602.95h639.83c8.88,0,16.09,7.21,16.09,16.09v62.34H285.28v-62.34c0-8.88,7.21-16.09,16.09-16.09Z"/>
  <rect class="cls-18" x="563.05" y="339.69" width="110.87" height="62.95" rx="11.33" ry="11.33"/>
  <rect class="cls-18" x="563.05" y="425.69" width="110.87" height="62.95" rx="11.33" ry="11.33"/>
  <rect class="cls-18" x="563.05" y="513.69" width="110.87" height="62.95" rx="11.33" ry="11.33"/>
  <rect class="cls-18" x="687.28" y="338.5" width="274.98" height="238.89" rx="16.09" ry="16.09"/>
  <rect class="cls-18" x="748.94" y="614.59" width="175.66" height="26.04" rx="4.6" ry="4.6"/>
  <text class="cls-9" transform="translate(758.43 630.95)"><tspan x="0" y="0">Search</tspan></text>
  <line class="cls-6" x1="312.98" y1="664.14" x2="412.04" y2="664.65"/>
  <line class="cls-6" x1="442.98" y1="664.14" x2="542.04" y2="664.65"/>
  <line class="cls-6" x1="572.98" y1="664.14" x2="672.04" y2="664.65"/>
  <line class="cls-6" x1="702.98" y1="664.14" x2="802.04" y2="664.65"/>
  <line class="cls-6" x1="829.98" y1="664.14" x2="929.04" y2="664.65"/>
  <rect class="cls-14" x="285.28" y="748.37" width="672" height="65.91"/>
  <polyline class="cls-7" points="311.32 384.67 311.32 547.56 520.17 547.56"/>
  <g>
    <polyline class="cls-1" points="324.38 538.02 365.45 519.69 390.47 530.46 441.28 436.76 468.6 471.22 518.13 499.31"/>
    <circle class="cls-12" cx="441.89" cy="439.02" r="5.5"/>
    <circle class="cls-12" cx="517.89" cy="497.02" r="5.5"/>
    <circle class="cls-12" cx="468.89" cy="471.02" r="5.5"/>
    <circle class="cls-12" cx="390.89" cy="528.02" r="5.5"/>
    <circle class="cls-12" cx="365.89" cy="521.02" r="5.5"/>
    <circle class="cls-12" cx="325.8" cy="537.67" r="5.5"/>
  </g>
  <g>
    <polyline class="cls-5" points="324.43 536.67 364.14 485.49 389.62 504.46 417.34 451.51 482.16 532.45 518.13 420.93"/>
    <circle class="cls-13" cx="324.8" cy="536.67" r="5.5"/>
    <circle class="cls-13" cx="364.8" cy="486.67" r="5.5"/>
    <circle class="cls-13" cx="388.8" cy="503.67" r="5.5"/>
    <circle class="cls-13" cx="416.8" cy="452.67" r="5.5"/>
    <circle class="cls-13" cx="481.8" cy="531.67" r="5.5"/>
    <circle class="cls-13" cx="517.8" cy="421.67" r="5.5"/>
  </g>
  <line class="cls-4" x1="311.32" y1="361.01" x2="487.3" y2="361.01"/>
  <line class="cls-4" x1="712.32" y1="363.01" x2="888.3" y2="363.01"/>
  <rect class="cls-14" x="709.62" y="391.44" width="231.83" height="39.83" rx="5.62" ry="5.62"/>
  <rect class="cls-14" x="709.62" y="441.44" width="231.83" height="39.83" rx="5.62" ry="5.62"/>
  <rect class="cls-14" x="709.62" y="491.44" width="231.83" height="39.83" rx="5.62" ry="5.62"/>
</svg>