<?xml version="1.0" encoding="UTF-8"?>
<svg id="Layer_6" xmlns="http://www.w3.org/2000/svg" viewBox="0 0 1024 1024">
  <defs>
    <style>
      .cls-1, .cls-2 {
        fill: #fff;
      }

      .cls-3 {
        fill: #a6c626;
      }

      .cls-4 {
        fill: #ea550f;
      }

      .cls-5 {
        stroke: #bababa;
      }

      .cls-5, .cls-6 {
        stroke-miterlimit: 10;
        stroke-width: 6px;
      }

      .cls-5, .cls-6, .cls-7 {
        fill: none;
        stroke-linecap: round;
      }

      .cls-2 {
        font-family: MicrosoftTaiLe-Bold, 'Microsoft Tai Le';
        font-size: 18px;
        font-weight: 700;
      }

      .cls-6 {
        stroke: #ea550f;
      }

      .cls-8 {
        fill: #212121;
      }

      .cls-9 {
        fill: #333;
      }

      .cls-7 {
        stroke: #d3d3d3;
        stroke-linejoin: round;
        stroke-width: 4px;
      }

      .cls-10 {
        fill: #7f7f7f;
      }
    </style>
  </defs>
  <path class="cls-1" d="M996.09,291.83v505.07c0,25.09-20.34,45.42-45.43,45.42H73.34c-25.09,0-45.43-20.33-45.43-45.42v-505.07c0-25.08,20.34-45.42,45.43-45.42h877.32c25.09,0,45.43,20.34,45.43,45.42Z"/>
  <line class="cls-7" x1="617.24" y1="429.01" x2="617.24" y2="498.13"/>
  <line class="cls-7" x1="447.24" y1="568.01" x2="447.24" y2="637.13"/>
  <line class="cls-7" x1="790.24" y1="568.01" x2="790.24" y2="637.13"/>
  <line class="cls-7" x1="620.24" y1="568.01" x2="620.24" y2="637.13"/>
  <polyline class="cls-7" points="545.55 394.96 443.21 394.96 443.21 498.13"/>
  <polyline class="cls-7" points="385.55 534.96 283.21 534.96 283.21 638.13"/>
  <polyline class="cls-7" points="684.21 394.96 786.55 394.96 786.55 498.13"/>
  <polyline class="cls-7" points="854.21 533.96 956.55 533.96 956.55 637.13"/>
  <g>
    <rect class="cls-3" x="212.55" y="629.06" width="149.07" height="78.89" rx="12" ry="12"/>
    <circle class="cls-1" cx="288.03" cy="659.27" r="13.55"/>
    <path class="cls-1" d="M270.02,674.54h37.28c6.62,0,12,5.38,12,12v11.49h-61.28v-11.49c0-6.62,5.38-12,12-12Z"/>
  </g>
  <path class="cls-9" d="M76.17,246.41h874.23c25.21,0,45.68,20.47,45.68,45.68v17.6H76.17v-63.28h0Z"/>
  <path class="cls-8" d="M70.53,246.41h182.06v595.91H70.53c-23.52,0-42.62-19.1-42.62-42.62v-510.68c0-23.52,19.1-42.62,42.62-42.62Z"/>
  <circle class="cls-10" cx="788" cy="278.05" r="18.18"/>
  <line class="cls-5" x1="818.37" y1="270.23" x2="915.39" y2="270.23"/>
  <line class="cls-6" x1="818.37" y1="287.12" x2="948.07" y2="287.12"/>
  <rect class="cls-4" x="69.62" y="423.13" width="126.38" height="38.11" rx="12" ry="12"/>
  <rect class="cls-9" x="73.62" y="324.56" width="133.28" height="50.62" rx="12" ry="12"/>
  <text class="cls-2" transform="translate(93.64 450.24)"><tspan x="0" y="0">IB Levels</tspan></text>
  <rect class="cls-9" x="73.62" y="554.13" width="126.38" height="26.04" rx="12" ry="12"/>
  <rect class="cls-9" x="73.62" y="498.13" width="126.38" height="26.04" rx="12" ry="12"/>
  <rect class="cls-9" x="73.62" y="613.13" width="126.38" height="26.04" rx="12" ry="12"/>
  <rect class="cls-9" x="73.62" y="673.13" width="126.38" height="26.04" rx="12" ry="12"/>
  <rect class="cls-9" x="73.62" y="734.13" width="126.38" height="26.04" rx="12" ry="12"/>
  <g>
    <rect class="cls-4" x="542.7" y="355.51" width="149.07" height="78.89" rx="12" ry="12"/>
    <circle class="cls-1" cx="618.18" cy="385.72" r="13.55"/>
    <path class="cls-1" d="M600.17,400.99h37.28c6.62,0,12,5.38,12,12v11.49h-61.28v-11.49c0-6.62,5.38-12,12-12Z"/>
  </g>
  <g>
    <rect class="cls-3" x="372.55" y="492.06" width="149.07" height="78.89" rx="12" ry="12"/>
    <circle class="cls-1" cx="448.03" cy="522.27" r="13.55"/>
    <path class="cls-1" d="M430.02,537.54h37.28c6.62,0,12,5.38,12,12v11.49h-61.28v-11.49c0-6.62,5.38-12,12-12Z"/>
  </g>
  <g>
    <rect class="cls-4" x="545.55" y="492.06" width="149.07" height="78.89" rx="12" ry="12"/>
    <circle class="cls-1" cx="621.03" cy="522.27" r="13.55"/>
    <path class="cls-1" d="M603.02,537.54h37.28c6.62,0,12,5.38,12,12v11.49h-61.28v-11.49c0-6.62,5.38-12,12-12Z"/>
  </g>
  <g>
    <rect class="cls-3" x="717.55" y="492.06" width="149.07" height="78.89" rx="12" ry="12"/>
    <circle class="cls-1" cx="793.03" cy="522.27" r="13.55"/>
    <path class="cls-1" d="M775.02,537.54h37.28c6.62,0,12,5.38,12,12v11.49h-61.28v-11.49c0-6.62,5.38-12,12-12Z"/>
  </g>
  <g>
    <rect class="cls-4" x="372.55" y="629.06" width="149.07" height="78.89" rx="12" ry="12"/>
    <circle class="cls-1" cx="448.03" cy="659.27" r="13.55"/>
    <path class="cls-1" d="M430.02,674.54h37.28c6.62,0,12,5.38,12,12v11.49h-61.28v-11.49c0-6.62,5.38-12,12-12Z"/>
  </g>
  <g>
    <rect class="cls-3" x="545.55" y="629.06" width="149.07" height="78.89" rx="12" ry="12"/>
    <circle class="cls-1" cx="621.03" cy="659.27" r="13.55"/>
    <path class="cls-1" d="M603.02,674.54h37.28c6.62,0,12,5.38,12,12v11.49h-61.28v-11.49c0-6.62,5.38-12,12-12Z"/>
  </g>
  <g>
    <rect class="cls-4" x="717.55" y="629.06" width="149.07" height="78.89" rx="12" ry="12"/>
    <circle class="cls-1" cx="793.03" cy="659.27" r="13.55"/>
    <path class="cls-1" d="M775.02,674.54h37.28c6.62,0,12,5.38,12,12v11.49h-61.28v-11.49c0-6.62,5.38-12,12-12Z"/>
  </g>
  <g>
    <path class="cls-3" d="M996.09,629.05v78.9h-99.54c-6.6,0-12-5.4-12-12v-54.9c0-6.6,5.4-12,12-12h99.54Z"/>
    <circle class="cls-1" cx="960.03" cy="659.27" r="13.55"/>
    <path class="cls-1" d="M942.02,674.54h37.28c6.62,0,12,5.38,12,12v11.49h-61.28v-11.49c0-6.62,5.38-12,12-12Z"/>
  </g>
</svg>