<svg id="Layer_7" xmlns="http://www.w3.org/2000/svg" viewBox="0 0 1024 1024">
  <rect x="26.4" y="204.96" width="968.17" height="595.91" rx="45.43" ry="45.43" style="fill: #fff;"/>
  <path d="M71.83,204.96h877.32c25.07,0,45.43,20.35,45.43,45.43v34.68H26.4v-34.68c0-25.07,20.35-45.43,45.43-45.43Z" style="fill: #333;"/>
  <rect x="72.95" y="232.83" width="327.83" height="27.02" rx="13.4" ry="13.4" style="fill: #fff;"/>
  <circle cx="897.4" cy="243.35" r="16.5" style="fill: #fff;"/>
  <circle cx="946.61" cy="243.7" r="16.5" style="fill: #fff;"/>
  <rect x="65.8" y="331.02" width="156.26" height="402.38" rx="12" ry="12" style="fill: #d8d8d8;"/>
  <rect x="270.44" y="324.53" width="643.47" height="423.17" rx="12" ry="12" style="fill: #ededed;"/>
  <rect x="305.44" y="353.92" width="577.32" height="361.02" rx="12" ry="12" style="fill: #acc931;"/>
  <path d="M317.44,353.92h553.32c6.62,0,12,5.38,12,12v25.36H305.44v-25.36c0-6.62,5.38-12,12-12Z" style="fill: #ea550f;"/>
  <rect x="348.97" y="468.52" width="200.17" height="33.78" rx="12" ry="12" style="fill: #fff;"/>
  <g>
    <rect x="621.14" y="549.66" width="21.45" height="72" rx="4.47" ry="4.47" style="fill: #ea550f;"/>
    <rect x="628.5" y="530.74" width="6.06" height="25.55" rx="2.72" ry="2.72" style="fill: #ea550f;"/>
    <rect x="628.79" y="618.86" width="6.06" height="25.55" rx="2.72" ry="2.72" style="fill: #ea550f;"/>
  </g>
  <g>
    <rect x="652.54" y="518.43" width="21.45" height="72" rx="4.47" ry="4.47" style="fill: #ea550f;"/>
    <rect x="659.5" y="498.74" width="6.06" height="25.55" rx="2.72" ry="2.72" style="fill: #ea550f;"/>
    <rect x="659.79" y="586.86" width="6.06" height="25.55" rx="2.72" ry="2.72" style="fill: #ea550f;"/>
  </g>
  <g>
    <rect x="685.22" y="596.04" width="21.45" height="72" rx="4.47" ry="4.47" style="fill: #ea550f;"/>
    <rect x="692.5" y="572.74" width="6.06" height="25.55" rx="2.72" ry="2.72" style="fill: #ea550f;"/>
    <rect x="692.79" y="660.86" width="6.06" height="25.55" rx="2.72" ry="2.72" style="fill: #ea550f;"/>
  </g>
  <g>
    <rect x="716.88" y="535.11" width="21.45" height="72" rx="4.47" ry="4.47" style="fill: #ea550f;"/>
    <rect x="724.5" y="515.74" width="6.06" height="25.55" rx="2.72" ry="2.72" style="fill: #ea550f;"/>
    <rect x="724.79" y="603.86" width="6.06" height="25.55" rx="2.72" ry="2.72" style="fill: #ea550f;"/>
  </g>
  <g>
    <rect x="744.56" y="475.53" width="21.45" height="72" rx="4.47" ry="4.47" style="fill: #ea550f;"/>
    <rect x="751.5" y="455.74" width="6.06" height="25.55" rx="2.72" ry="2.72" style="fill: #ea550f;"/>
    <rect x="751.79" y="543.86" width="6.06" height="25.55" rx="2.72" ry="2.72" style="fill: #ea550f;"/>
  </g>
  <g>
    <rect x="776.22" y="499.11" width="21.45" height="72" rx="4.47" ry="4.47" style="fill: #ea550f;"/>
    <rect x="783.5" y="476.74" width="6.06" height="25.55" rx="2.72" ry="2.72" style="fill: #ea550f;"/>
    <rect x="783.79" y="564.86" width="6.06" height="25.55" rx="2.72" ry="2.72" style="fill: #ea550f;"/>
  </g>
  <g>
    <rect x="805.03" y="457.38" width="21.45" height="72" rx="4.47" ry="4.47" style="fill: #ea550f;"/>
    <rect x="812.5" y="435.74" width="6.06" height="25.55" rx="2.72" ry="2.72" style="fill: #ea550f;"/>
    <rect x="812.79" y="523.86" width="6.06" height="25.55" rx="2.72" ry="2.72" style="fill: #ea550f;"/>
  </g>
  <line x1="358.01" y1="577.43" x2="549.14" y2="577.43" style="fill: none; stroke: #fff; stroke-linecap: round; stroke-linejoin: round; stroke-width: 6px;"/>
  <line x1="358.01" y1="598.43" x2="513.88" y2="598.43" style="fill: none; stroke: #fff; stroke-linecap: round; stroke-linejoin: round; stroke-width: 6px;"/>
  <line x1="358.01" y1="618.43" x2="489.37" y2="618.43" style="fill: none; stroke: #fff; stroke-linecap: round; stroke-linejoin: round; stroke-width: 6px;"/>
  <rect x="305.44" y="391.28" width="577.32" height="31.66" style="fill: #9fbc24;"/>
  <rect x="350.31" y="515.35" width="112.77" height="33.78" rx="12" ry="12" style="fill: #fff;"/>
  <rect x="766.86" y="398.45" width="45.59" height="17.66" rx="3.86" ry="3.86" style="fill: #fff;"/>
  <rect x="819.86" y="398.45" width="45.59" height="17.66" rx="3.86" ry="3.86" style="fill: #fff;"/>
  <line x1="362.76" y1="407.11" x2="395.33" y2="407.11" style="fill: none; stroke: #fff; stroke-linecap: round; stroke-linejoin: round; stroke-width: 6px;"/>
  <line x1="412.76" y1="407.11" x2="445.33" y2="407.11" style="fill: none; stroke: #fff; stroke-linecap: round; stroke-linejoin: round; stroke-width: 6px;"/>
  <line x1="462.76" y1="407.11" x2="495.33" y2="407.11" style="fill: none; stroke: #fff; stroke-linecap: round; stroke-linejoin: round; stroke-width: 6px;"/>
  <line x1="512.76" y1="407.11" x2="545.33" y2="407.11" style="fill: none; stroke: #fff; stroke-linecap: round; stroke-linejoin: round; stroke-width: 6px;"/>
  <line x1="562.76" y1="407.11" x2="595.33" y2="407.11" style="fill: none; stroke: #fff; stroke-linecap: round; stroke-linejoin: round; stroke-width: 6px;"/>
  <circle cx="332.88" cy="406.93" r="11.97" style="fill: #fff;"/>
</svg>