<?xml version="1.0" encoding="UTF-8"?>
<svg xmlns="http://www.w3.org/2000/svg" version="1.1" xmlns:xlink="http://www.w3.org/1999/xlink" viewBox="0 0 264 376">
  <defs>
    <style>
      .cls-1 {
        stroke: #c6c6c6;
      }

      .cls-1, .cls-2, .cls-3 {
        fill: none;
        stroke-linecap: round;
        stroke-width: 3px;
      }

      .cls-2 {
        stroke: #fff;
        stroke-opacity: .5;
      }

      .cls-4 {
        fill: #fff;
      }

      .cls-3 {
        stroke: #000;
        stroke-opacity: .2;
      }

      .cls-5 {
        fill-opacity: .7;
      }

      .cls-6 {
        fill: #a6c626;
      }

      .cls-7 {
        fill: red;
      }

      .cls-8 {
        fill: #f8f8f8;
      }
    </style>
  </defs>
  <!-- Generator: Adobe Illustrator 28.6.0, SVG Export Plug-In . SVG Version: 1.2.0 Build 709)  -->
  <g>
    <g id="Layer_1">
      <rect class="cls-4" width="264" height="376" rx="34" ry="34"/>
      <rect class="cls-8" x="26" y="29" width="31" height="31" rx="5" ry="5"/>
      <rect class="cls-8" x="26" y="84" width="31" height="34" rx="5" ry="5"/>
      <rect class="cls-8" x="68" y="29" width="173" height="31" rx="5" ry="5"/>
      <rect class="cls-6" x="68" y="84" width="173" height="74" rx="5" ry="5"/>
      <rect class="cls-8" x="26" y="180" width="31" height="32" rx="5" ry="5"/>
      <rect class="cls-8" x="68" y="180" width="173" height="74" rx="5" ry="5"/>
      <rect class="cls-8" x="26" y="274" width="31" height="33" rx="5" ry="5"/>
      <rect class="cls-8" x="68" y="274" width="173" height="74" rx="5" ry="5"/>
      <path d="M81.6,49v-3.3l.2.6-2.9-4.4h1.1l2.3,3.4h-.2l2.3-3.4h1l-2.9,4.4.2-.6v3.3h-.9ZM87.2,49.1c-.5,0-.9-.1-1.3-.3-.4-.2-.6-.5-.8-.9-.2-.4-.3-.9-.3-1.4s0-1,.3-1.4c.2-.4.5-.7.8-.9.4-.2.8-.3,1.3-.3s.9.1,1.3.3c.4.2.6.5.8.9.2.4.3.8.3,1.4s0,1-.3,1.4c-.2.4-.5.7-.8.9-.4.2-.8.3-1.3.3ZM87.2,48.4c.5,0,.8-.2,1.1-.5.3-.3.4-.8.4-1.4s-.1-1.1-.4-1.4c-.3-.3-.6-.5-1.1-.5s-.8.2-1.1.5c-.3.3-.4.8-.4,1.4s.1,1.1.4,1.4c.3.3.6.5,1.1.5ZM92.6,49.1c-.6,0-1.1-.2-1.4-.5-.3-.3-.4-.8-.4-1.5v-3.1h.9v3.1c0,.4,0,.8.3,1s.5.3.8.3.7-.1,1-.4c.3-.3.4-.6.4-1.1v-2.9h.9v5h-.9v-1.1h.1c-.1.4-.4.7-.7.9-.3.2-.7.3-1.1.3ZM96.7,49v-3.8c0-.2,0-.4,0-.6,0-.2,0-.4,0-.6h.9v1.3c.1,0,0,0,0,0,0-.3.2-.6.3-.8.2-.2.4-.4.6-.5.2,0,.5-.1.7-.1s.2,0,.3,0c0,0,.1,0,.2,0v.8c-.1,0-.2,0-.3,0,0,0-.2,0-.3,0-.3,0-.5,0-.8.2-.2.1-.4.3-.5.5-.1.2-.2.5-.2.7v2.9h-.9ZM105,49l-2.5-7h1l2.1,6.2h-.4l2.2-6.2h.7l2.1,6.2h-.3l2.2-6.2h.9l-2.5,7h-.8l-2-6h.2l-2.1,6h-.8ZM115.8,49.1c-.8,0-1.4-.2-1.9-.7-.5-.5-.7-1.1-.7-1.9s0-1,.3-1.4c.2-.4.5-.7.8-.9.4-.2.8-.3,1.3-.3s.9,0,1.2.3c.3.2.6.5.7.8.2.4.2.8.2,1.3v.3h-3.8v-.5h3.2-.2c0-.4-.1-.8-.3-1.1-.2-.3-.6-.4-1-.4s-.9.2-1.1.5c-.3.3-.4.8-.4,1.4h0c0,.7.2,1.2.5,1.5.3.3.7.5,1.3.5s.6,0,.8-.1c.3,0,.5-.2.8-.4l.3.6c-.2.2-.5.4-.8.5-.3.1-.7.2-1.1.2ZM121.6,49.1c-.4,0-.8-.1-1.2-.3-.3-.2-.5-.5-.7-.9h.1v1.2h-.9v-7.4h.9v3.5h-.1c.1-.4.3-.7.7-.9.3-.2.7-.3,1.2-.3s.8.1,1.2.3c.3.2.6.5.8.9.2.4.3.9.3,1.4s0,1-.3,1.4c-.2.4-.4.7-.8.9-.3.2-.7.3-1.2.3ZM121.4,48.4c.5,0,.8-.2,1.1-.5.3-.3.4-.8.4-1.4s-.1-1.1-.4-1.4c-.3-.3-.6-.5-1.1-.5s-.8.2-1.1.5c-.3.3-.4.8-.4,1.4s.1,1.1.4,1.4c.3.3.6.5,1.1.5ZM126.8,49.1c-.4,0-.8,0-1.1-.2-.3-.1-.6-.3-.9-.5l.3-.6c.2.2.5.3.8.4.3,0,.6.1.9.1s.7,0,.9-.2c.2-.1.3-.3.3-.6s0-.3-.2-.5c-.1-.1-.3-.2-.6-.2l-.9-.2c-.4,0-.8-.3-1-.5-.2-.2-.3-.5-.3-.9s0-.6.2-.8c.2-.2.4-.4.7-.5.3-.1.7-.2,1.1-.2s.7,0,1,.2c.3.1.6.3.8.5l-.3.6c-.2-.2-.4-.3-.7-.4-.3,0-.5-.1-.8-.1-.4,0-.7,0-.9.2-.2.1-.3.3-.3.6s0,.3.2.5c.1.1.3.2.6.3l.9.2c.4,0,.8.2,1,.5.2.2.3.5.3.9s0,.6-.3.8c-.2.2-.4.4-.7.5-.3.1-.7.2-1.1.2ZM130,49v-5h.9v5h-.9ZM129.9,42.9v-1h1.1v1h-1.1ZM134.3,49.1c-.5,0-.9-.1-1.2-.4-.3-.3-.4-.7-.4-1.3v-2.7h-1v-.7h1v-1.4l.9-.2v1.6h1.4v.7h-1.4v2.6c0,.4,0,.7.2.8.1.2.3.2.6.2s.2,0,.3,0c0,0,.2,0,.3,0v.8c0,0-.2,0-.3,0-.1,0-.2,0-.4,0ZM138.3,49.1c-.8,0-1.4-.2-1.9-.7-.5-.5-.7-1.1-.7-1.9s0-1,.3-1.4c.2-.4.5-.7.9-.9.4-.2.8-.3,1.3-.3s.9,0,1.2.3c.3.2.6.5.7.8.2.4.2.8.2,1.3v.3h-3.9v-.5h3.2-.2c0-.4-.1-.8-.3-1.1-.2-.3-.6-.4-1-.4s-.9.2-1.1.5c-.3.3-.4.8-.4,1.4h0c0,.7.2,1.2.5,1.5.3.3.7.5,1.3.5s.6,0,.8-.1c.3,0,.5-.2.8-.4l.3.6c-.2.2-.5.4-.8.5-.3.1-.7.2-1.1.2Z"/>
      <path class="cls-4" d="M80.3,106l-2.2-5.6h1.7l1.5,4h-.3l1.5-4h1.1l1.5,4h-.2l1.5-4h1.6l-2.2,5.6h-1.4l-1.6-4.1h.7l-1.5,4.1h-1.4ZM90.4,106l-2.2-5.6h1.7l1.5,4h-.3l1.5-4h1.1l1.5,4h-.2l1.5-4h1.6l-2.2,5.6h-1.4l-1.6-4.1h.7l-1.5,4.1h-1.4ZM100.6,106l-2.2-5.6h1.7l1.5,4h-.3l1.5-4h1.1l1.5,4h-.2l1.5-4h1.6l-2.2,5.6h-1.4l-1.6-4.1h.7l-1.5,4.1h-1.4ZM108.1,106v-1.8h1.8v1.8h-1.8ZM110.6,108.5l-.4-1.3c.3,0,.6-.1.9-.2.2,0,.4-.2.6-.4.2-.1.3-.3.4-.5l.3-.6v.6s-2.5-5.6-2.5-5.6h1.7l1.6,4h-.3l1.6-4h1.7l-2.5,5.8c-.2.4-.4.8-.6,1-.2.3-.4.5-.7.7-.2.2-.5.3-.8.4-.3,0-.6.2-.9.2ZM119.2,106.1c-.6,0-1.1-.1-1.6-.4-.4-.2-.8-.6-1-1-.2-.4-.4-1-.4-1.6s.1-1.1.4-1.5c.2-.4.6-.8,1-1,.4-.2,1-.4,1.6-.4s1.1.1,1.6.4c.4.2.8.6,1,1,.2.4.4.9.4,1.5s-.1,1.1-.4,1.6c-.2.4-.6.8-1,1-.4.2-1,.4-1.6.4ZM119.2,104.9c.4,0,.7-.1.9-.4.2-.3.3-.7.3-1.3s-.1-1-.3-1.2c-.2-.3-.5-.4-.9-.4s-.7.1-.9.4c-.2.3-.3.7-.3,1.2s.1,1,.3,1.3c.2.3.5.4.9.4ZM125.2,106.1c-.7,0-1.2-.2-1.6-.6-.3-.4-.5-1-.5-1.8v-3.4h1.7v3.4c0,.4,0,.6.2.8.1.2.4.3.7.3s.6-.1.8-.3c.2-.2.3-.5.3-.9v-3.1h1.7v5.6h-1.6v-1.1h.2c-.2.4-.4.7-.7.9-.3.2-.7.3-1.1.3ZM129.9,106v-4.1c0-.2,0-.5,0-.7,0-.2,0-.5,0-.7h1.6l.2,1.6h-.3c0-.4.2-.7.4-1,.2-.3.4-.4.6-.6.2-.1.5-.2.8-.2s.2,0,.3,0c0,0,.2,0,.2,0v1.5c-.2,0-.3-.1-.4-.1-.1,0-.2,0-.4,0-.3,0-.6,0-.8.2-.2.1-.3.3-.5.5,0,.2-.1.5-.1.8v2.8h-1.7ZM136.3,106l-2.2-5.6h1.7l1.5,4h-.3l1.5-4h1.1l1.5,4h-.2l1.5-4h1.6l-2.2,5.6h-1.4l-1.6-4.1h.7l-1.5,4.1h-1.4ZM147.2,106.1c-1,0-1.7-.3-2.3-.8-.5-.5-.8-1.2-.8-2.1s.1-1.1.3-1.5c.2-.4.6-.8,1-1,.4-.2.9-.4,1.5-.4s1,.1,1.4.4c.4.2.7.6.8,1,.2.4.3.9.3,1.5v.4h-3.9v-.8h2.7l-.2.2c0-.5,0-.8-.3-1-.2-.2-.5-.4-.8-.4s-.7.1-.9.4c-.2.3-.3.7-.3,1.2v.2c0,.5.1.9.4,1.2.3.3.7.4,1.2.4s.6,0,.8-.1c.3,0,.5-.2.8-.4l.5,1.1c-.3.2-.6.4-1,.5-.4.1-.7.2-1.2.2ZM153.9,106.1c-.4,0-.8-.1-1.2-.3-.3-.2-.6-.5-.7-.9h.1v1.1h-1.6v-8.1h1.7v3.6h-.1c.1-.4.4-.6.7-.8.4-.2.7-.3,1.2-.3s.9.1,1.3.4c.4.2.7.6.9,1,.2.4.3,1,.3,1.6s-.1,1.1-.3,1.6c-.2.4-.5.8-.9,1-.4.2-.8.3-1.3.3ZM153.4,104.9c.4,0,.7-.1.9-.4.2-.3.4-.7.4-1.2s-.1-1-.4-1.3c-.2-.3-.6-.4-.9-.4s-.7.1-.9.4c-.2.3-.4.7-.4,1.2s.1,1,.4,1.3c.2.3.6.4.9.4ZM159.4,106.1c-.5,0-1,0-1.4-.2-.4-.1-.8-.3-1-.5l.4-1.1c.3.2.6.3.9.4.4.1.7.2,1,.2s.6,0,.7-.2c.2-.1.2-.2.2-.4s0-.3-.2-.3c0,0-.2-.1-.5-.2l-1.1-.2c-.5,0-.8-.3-1.1-.5-.2-.3-.4-.6-.4-1s0-.7.3-.9c.2-.3.5-.5.8-.6s.8-.2,1.3-.2.8,0,1.2.2c.4.1.7.3,1,.5l-.5,1.1c-.2-.2-.5-.3-.8-.4-.3-.1-.6-.2-.8-.2s-.6,0-.8.2c-.2.1-.2.3-.2.4s0,.2.1.3c0,0,.2.2.4.2l1.1.2c.5,0,.9.3,1.1.5.3.2.4.6.4,1s-.1.7-.3,1c-.2.3-.5.5-.9.6-.4.1-.8.2-1.3.2ZM162.9,106v-5.6h1.7v5.6h-1.7ZM162.9,99.5v-1.6h1.8v1.6h-1.8ZM168.6,106.1c-.7,0-1.3-.2-1.6-.5-.4-.4-.6-.9-.6-1.6v-2.3h-1.1v-1.2h1.1v-1.4l1.7-.4v1.8h1.4v1.2h-1.4v2.2c0,.4,0,.6.2.7.1.1.3.2.6.2s.3,0,.3,0c0,0,.2,0,.3,0v1.3c-.1,0-.3,0-.4.1-.2,0-.3,0-.5,0ZM173.1,106.1c-1,0-1.7-.3-2.3-.8-.5-.5-.8-1.2-.8-2.1s.1-1.1.3-1.5c.2-.4.6-.8,1-1,.4-.2.9-.4,1.5-.4s1,.1,1.4.4c.4.2.7.6.8,1,.2.4.3.9.3,1.5v.4h-3.9v-.8h2.7l-.2.2c0-.5,0-.8-.3-1-.2-.2-.5-.4-.8-.4s-.7.1-.9.4c-.2.3-.3.7-.3,1.2v.2c0,.5.1.9.4,1.2.3.3.7.4,1.2.4s.6,0,.8-.1c.3,0,.5-.2.8-.4l.5,1.1c-.3.2-.6.4-1,.5-.4.1-.7.2-1.2.2ZM176.2,106v-1.8h1.8v1.8h-1.8ZM181.7,106.1c-.6,0-1.1-.1-1.6-.4-.4-.2-.8-.6-1-1-.2-.4-.4-1-.4-1.6s.1-1.1.4-1.6c.2-.4.6-.8,1-1,.4-.2,1-.3,1.6-.3s.7,0,1.1.2c.4.1.7.3.9.5l-.5,1.1c-.2-.2-.4-.3-.6-.4-.2,0-.5-.1-.7-.1-.4,0-.8.1-1,.4-.2.3-.4.7-.4,1.2s.1.9.4,1.2c.2.3.6.4,1,.4s.4,0,.7-.1c.2,0,.5-.2.6-.4l.5,1.1c-.2.2-.5.4-.9.5-.4.1-.7.2-1.1.2ZM187.1,106.1c-.6,0-1.1-.1-1.6-.4-.4-.2-.8-.6-1-1-.2-.4-.4-1-.4-1.6s.1-1.1.4-1.5c.2-.4.6-.8,1-1,.4-.2,1-.4,1.6-.4s1.1.1,1.6.4.8.6,1,1c.2.4.4.9.4,1.5s-.1,1.1-.4,1.6c-.2.4-.6.8-1,1-.4.2-1,.4-1.6.4ZM187.1,104.9c.4,0,.7-.1.9-.4.2-.3.3-.7.3-1.3s-.1-1-.3-1.2c-.2-.3-.5-.4-.9-.4s-.7.1-.9.4c-.2.3-.3.7-.3,1.2s.1,1,.3,1.3c.2.3.5.4.9.4ZM191.1,106v-4.1c0-.2,0-.5,0-.7,0-.2,0-.5,0-.7h1.6v1c.1,0,0,0,0,0,.2-.4.4-.6.7-.8.3-.2.7-.3,1.1-.3s.8.1,1.1.3c.3.2.5.5.6.9h-.2c.2-.4.4-.7.8-.9.4-.2.8-.3,1.2-.3s1.1.2,1.4.6c.3.4.5,1,.5,1.8v3.4h-1.7v-3.3c0-.4,0-.7-.2-.8-.1-.2-.3-.3-.6-.3s-.6.1-.8.4c-.2.2-.3.6-.3,1v3.1h-1.7v-3.3c0-.4,0-.7-.2-.8-.1-.2-.3-.3-.6-.3s-.6.1-.8.4c-.2.2-.3.6-.3,1v3.1h-1.7Z"/>
      <path class="cls-6" d="M41,110c0,.6.4,1,1,1s1-.4,1-1h-2ZM42.7,93.3c-.4-.4-1-.4-1.4,0l-6.4,6.4c-.4.4-.4,1,0,1.4.4.4,1,.4,1.4,0l5.7-5.7,5.7,5.7c.4.4,1,.4,1.4,0,.4-.4.4-1,0-1.4l-6.4-6.4ZM43,110v-16h-2v16h2Z"/>
      <path class="cls-7" d="M43,189c0-.6-.4-1-1-1s-1,.4-1,1h2ZM41.3,205.7c.4.4,1,.4,1.4,0l6.4-6.4c.4-.4.4-1,0-1.4-.4-.4-1-.4-1.4,0l-5.7,5.7-5.7-5.7c-.4-.4-1-.4-1.4,0-.4.4-.4,1,0,1.4l6.4,6.4ZM41,189v16h2v-16h-2Z"/>
      <path class="cls-7" d="M43,282c0-.6-.4-1-1-1s-1,.4-1,1h2ZM41.3,299.7c.4.4,1,.4,1.4,0l6.4-6.4c.4-.4.4-1,0-1.4-.4-.4-1-.4-1.4,0l-5.7,5.7-5.7-5.7c-.4-.4-1-.4-1.4,0-.4.4-.4,1,0,1.4l6.4,6.4ZM41,282v17h2v-17h-2Z"/>
      <path class="cls-2" d="M78,120h151"/>
      <path class="cls-2" d="M78,132h151"/>
      <path class="cls-2" d="M78,146h151"/>
      <path class="cls-5" d="M81.3,198l-2.1-5.5h1.2l1.6,4.6h-.3l1.7-4.6h.9l1.7,4.6h-.3l1.6-4.6h1.1l-2.1,5.5h-1l-1.7-4.7h.5l-1.7,4.7h-1ZM91.1,198l-2.1-5.5h1.2l1.6,4.6h-.3l1.7-4.6h.9l1.7,4.6h-.3l1.6-4.6h1.1l-2.1,5.5h-1l-1.7-4.7h.5l-1.7,4.7h-1ZM101,198l-2.1-5.5h1.2l1.6,4.6h-.3l1.7-4.6h.9l1.7,4.6h-.3l1.6-4.6h1.1l-2.1,5.5h-1l-1.7-4.7h.5l-1.7,4.7h-1ZM108.4,198v-1.3h1.3v1.3h-1.3ZM113.3,198.1c-.6,0-1-.1-1.4-.3-.4-.2-.7-.6-.9-1-.2-.4-.3-.9-.3-1.5s.1-1.1.3-1.5c.2-.4.5-.8.9-1,.4-.2.9-.4,1.4-.4s1,.1,1.4.4c.4.2.7.6.9,1,.2.4.3.9.3,1.5s-.1,1.1-.3,1.5c-.2.4-.5.8-.9,1-.4.2-.9.3-1.4.3ZM113.3,197.2c.5,0,.9-.2,1.2-.5.3-.3.4-.8.4-1.5s-.1-1.2-.4-1.5c-.3-.3-.7-.5-1.2-.5s-.9.2-1.1.5c-.3.3-.4.8-.4,1.5s.1,1.2.4,1.5c.3.3.7.5,1.2.5ZM119.4,198.1c-.6,0-1.1-.2-1.4-.5-.3-.3-.5-.8-.5-1.5v-2.8h-1.1v-.9h1.1v-1.5l1.1-.3v1.8h1.5v.9h-1.5v2.7c0,.4,0,.7.2.9.1.2.4.3.6.3s.3,0,.4,0c.1,0,.2,0,.3,0v.9c-.1,0-.2,0-.4,0-.1,0-.3,0-.4,0ZM121.3,198v-8.1h1.1v3.7h-.2c.2-.4.4-.7.8-.9.4-.2.8-.3,1.2-.3s1.2.2,1.5.6c.3.4.5.9.5,1.6v3.5h-1.1v-3.4c0-.5,0-.8-.3-1-.2-.2-.5-.3-.9-.3s-.8.1-1.1.4c-.3.3-.4.7-.4,1.1v3.2h-1.1ZM130.3,198.1c-.9,0-1.6-.3-2.1-.8s-.8-1.2-.8-2.1.1-1.1.3-1.5c.2-.4.5-.8.9-1,.4-.2.9-.4,1.4-.4s1,.1,1.3.3c.4.2.6.5.8.9.2.4.3.9.3,1.4v.4h-4.2v-.6h3.4-.2c0-.4-.1-.8-.4-1.1-.2-.3-.6-.5-1.1-.5s-.9.2-1.2.5c-.3.4-.4.8-.4,1.5h0c0,.8.2,1.3.5,1.6.3.3.8.5,1.4.5s.6,0,.9-.1c.3,0,.6-.2.8-.5l.4.8c-.3.2-.6.4-.9.5-.4.1-.8.2-1.2.2ZM133.8,198v-4.2c0-.2,0-.5,0-.7,0-.2,0-.5,0-.7h1.1v1.4c.1,0,0,0,0,0,0-.3.2-.6.4-.9.2-.2.4-.4.6-.5.3-.1.5-.2.8-.2s.2,0,.3,0c0,0,.2,0,.2,0v1c-.1,0-.2,0-.3,0,0,0-.2,0-.3,0-.3,0-.6,0-.8.2-.2.1-.4.3-.5.6-.1.2-.2.5-.2.8v3.1h-1.1ZM139.8,198l-2.1-5.5h1.2l1.6,4.6h-.3l1.7-4.6h.9l1.7,4.6h-.3l1.6-4.6h1.1l-2.1,5.5h-1l-1.7-4.7h.5l-1.7,4.7h-1ZM150.4,198.1c-.9,0-1.6-.3-2.1-.8-.5-.5-.8-1.2-.8-2.1s.1-1.1.3-1.5c.2-.4.5-.8.9-1,.4-.2.9-.4,1.4-.4s1,.1,1.3.3c.4.2.6.5.8.9.2.4.3.9.3,1.4v.4h-4.2v-.6h3.4-.2c0-.4-.1-.8-.4-1.1-.2-.3-.6-.5-1.1-.5s-.9.2-1.2.5c-.3.4-.4.8-.4,1.5h0c0,.8.2,1.3.5,1.6.3.3.8.5,1.4.5s.6,0,.9-.1c.3,0,.6-.2.8-.5l.4.8c-.3.2-.6.4-.9.5-.4.1-.8.2-1.2.2ZM156.8,198.1c-.5,0-.9-.1-1.3-.4-.4-.2-.6-.6-.7-1h.1v1.3h-1.1v-8.1h1.1v3.8h-.1c.1-.4.4-.7.7-1,.4-.2.8-.4,1.3-.4s.9.1,1.3.4c.4.2.6.6.8,1,.2.4.3.9.3,1.5s-.1,1.1-.3,1.5c-.2.4-.5.8-.9,1-.4.2-.8.3-1.3.3ZM156.5,197.2c.5,0,.9-.2,1.2-.5.3-.3.4-.8.4-1.5s-.1-1.2-.4-1.5c-.3-.3-.7-.5-1.2-.5s-.9.2-1.2.5c-.3.3-.4.8-.4,1.5s.1,1.2.4,1.5c.3.3.7.5,1.2.5ZM162.4,198.1c-.5,0-.9,0-1.3-.2-.4-.1-.7-.3-1-.5l.3-.8c.3.2.6.4.9.5s.7.2,1,.2.7,0,.9-.2c.2-.1.3-.3.3-.6s0-.3-.2-.5c-.1-.1-.3-.2-.6-.3l-1.1-.2c-.5-.1-.8-.3-1.1-.5-.2-.2-.4-.6-.4-1s0-.6.3-.9c.2-.3.4-.5.8-.6.3-.1.7-.2,1.2-.2s.8,0,1.1.2c.4.1.6.3.9.5l-.4.7c-.2-.2-.5-.3-.8-.4-.3-.1-.6-.2-.9-.2s-.7,0-.9.2c-.2.2-.3.4-.3.6s0,.3.2.5c.1.1.3.2.6.3l1.1.2c.5.1.9.3,1.1.5.2.2.4.6.4.9s0,.6-.3.9c-.2.3-.5.5-.8.6-.3.1-.7.2-1.2.2ZM166,198v-5.5h1.1v5.5h-1.1ZM165.9,191.3v-1.2h1.3v1.2h-1.3ZM170.9,198.1c-.6,0-1.1-.2-1.4-.5-.3-.3-.5-.8-.5-1.5v-2.8h-1.1v-.9h1.1v-1.5l1.1-.3v1.8h1.5v.9h-1.5v2.7c0,.4,0,.7.2.9.1.2.4.3.6.3s.3,0,.4,0c.1,0,.2,0,.3,0v.9c-.1,0-.2,0-.4,0-.1,0-.3,0-.4,0ZM175.2,198.1c-.9,0-1.6-.3-2.1-.8-.5-.5-.8-1.2-.8-2.1s.1-1.1.3-1.5c.2-.4.5-.8.9-1,.4-.2.9-.4,1.4-.4s1,.1,1.3.3c.4.2.6.5.8.9.2.4.3.9.3,1.4v.4h-4.2v-.6h3.4-.2c0-.4-.1-.8-.4-1.1-.2-.3-.6-.5-1.1-.5s-.9.2-1.2.5c-.3.4-.4.8-.4,1.5h0c0,.8.2,1.3.5,1.6.3.3.8.5,1.4.5s.6,0,.9-.1c.3,0,.6-.2.8-.5l.4.8c-.3.2-.6.4-.9.5-.4.1-.8.2-1.2.2ZM178.5,198v-1.3h1.3v1.3h-1.3ZM183.5,198.1c-.6,0-1-.1-1.5-.3-.4-.2-.7-.6-1-1-.2-.4-.3-1-.3-1.6s.1-1.1.3-1.5c.2-.4.5-.7,1-1,.4-.2.9-.3,1.5-.3s.7,0,1,.2c.3.1.6.3.8.5l-.4.8c-.2-.2-.4-.3-.7-.4-.3-.1-.5-.2-.7-.2-.5,0-.9.2-1.2.5-.3.3-.5.8-.5,1.5s.2,1.1.5,1.5c.3.3.7.5,1.2.5s.5,0,.7-.1c.3,0,.5-.2.7-.5l.4.8c-.2.2-.5.4-.9.5-.3.1-.7.2-1,.2ZM188.8,198.1c-.6,0-1-.1-1.4-.3-.4-.2-.7-.6-.9-1-.2-.4-.3-.9-.3-1.5s.1-1.1.3-1.5c.2-.4.5-.8.9-1,.4-.2.9-.4,1.4-.4s1,.1,1.4.4c.4.2.7.6.9,1,.2.4.3.9.3,1.5s-.1,1.1-.3,1.5c-.2.4-.5.8-.9,1-.4.2-.9.3-1.4.3ZM188.8,197.2c.5,0,.9-.2,1.2-.5s.4-.8.4-1.5-.1-1.2-.4-1.5c-.3-.3-.7-.5-1.2-.5s-.9.2-1.1.5c-.3.3-.4.8-.4,1.5s.1,1.2.4,1.5c.3.3.7.5,1.2.5ZM192.8,198v-4.2c0-.2,0-.4,0-.6,0-.2,0-.5,0-.7h1.1v1.2c0,0,0,0,0,0,.2-.4.4-.7.7-.9.3-.2.7-.3,1.2-.3s.8.1,1.1.3c.3.2.5.5.6,1h-.2c.1-.4.4-.7.7-1,.4-.2.8-.4,1.2-.4s1.1.2,1.4.5c.3.4.5.9.5,1.7v3.4h-1.1v-3.4c0-.5,0-.8-.3-1-.2-.2-.4-.3-.8-.3s-.8.1-1,.4c-.2.3-.4.7-.4,1.2v3.1h-1.1v-3.4c0-.5,0-.8-.3-1-.2-.2-.4-.3-.8-.3s-.8.1-1,.4c-.2.3-.4.7-.4,1.2v3.1h-1.1Z"/>
      <path class="cls-1" d="M79,212h151"/>
      <path class="cls-1" d="M79,225h151"/>
      <path class="cls-1" d="M79,239h151"/>
      <path class="cls-5" d="M81.3,294l-2.1-5.5h1.2l1.6,4.6h-.3l1.7-4.6h.9l1.7,4.6h-.3l1.6-4.6h1.1l-2.1,5.5h-1l-1.7-4.7h.5l-1.7,4.7h-1ZM91.1,294l-2.1-5.5h1.2l1.6,4.6h-.3l1.7-4.6h.9l1.7,4.6h-.3l1.6-4.6h1.1l-2.1,5.5h-1l-1.7-4.7h.5l-1.7,4.7h-1ZM101,294l-2.1-5.5h1.2l1.6,4.6h-.3l1.7-4.6h.9l1.7,4.6h-.3l1.6-4.6h1.1l-2.1,5.5h-1l-1.7-4.7h.5l-1.7,4.7h-1ZM108.4,294v-1.3h1.3v1.3h-1.3ZM113.3,294.1c-.6,0-1-.1-1.4-.3-.4-.2-.7-.6-.9-1-.2-.4-.3-.9-.3-1.5s.1-1.1.3-1.5c.2-.4.5-.8.9-1,.4-.2.9-.4,1.4-.4s1,.1,1.4.4c.4.2.7.6.9,1,.2.4.3.9.3,1.5s-.1,1.1-.3,1.5c-.2.4-.5.8-.9,1-.4.2-.9.3-1.4.3ZM113.3,293.2c.5,0,.9-.2,1.2-.5.3-.3.4-.8.4-1.5s-.1-1.2-.4-1.5c-.3-.3-.7-.5-1.2-.5s-.9.2-1.1.5c-.3.3-.4.8-.4,1.5s.1,1.2.4,1.5c.3.3.7.5,1.2.5ZM119.4,294.1c-.6,0-1.1-.2-1.4-.5-.3-.3-.5-.8-.5-1.5v-2.8h-1.1v-.9h1.1v-1.5l1.1-.3v1.8h1.5v.9h-1.5v2.7c0,.4,0,.7.2.9.1.2.4.3.6.3s.3,0,.4,0c.1,0,.2,0,.3,0v.9c-.1,0-.2,0-.4,0-.1,0-.3,0-.4,0ZM121.3,294v-8.1h1.1v3.7h-.2c.2-.4.4-.7.8-.9.4-.2.8-.3,1.2-.3s1.2.2,1.5.6c.3.4.5.9.5,1.6v3.5h-1.1v-3.4c0-.5,0-.8-.3-1-.2-.2-.5-.3-.9-.3s-.8.1-1.1.4c-.3.3-.4.7-.4,1.1v3.2h-1.1ZM130.3,294.1c-.9,0-1.6-.3-2.1-.8-.5-.5-.8-1.2-.8-2.1s.1-1.1.3-1.5c.2-.4.5-.8.9-1,.4-.2.9-.4,1.4-.4s1,.1,1.3.3c.4.2.6.5.8.9.2.4.3.9.3,1.4v.4h-4.2v-.6h3.4-.2c0-.4-.1-.8-.4-1.1-.2-.3-.6-.5-1.1-.5s-.9.2-1.2.5c-.3.4-.4.8-.4,1.5h0c0,.8.2,1.3.5,1.6.3.3.8.5,1.4.5s.6,0,.9-.1c.3,0,.6-.2.8-.5l.4.8c-.3.2-.6.4-.9.5-.4.1-.8.2-1.2.2ZM133.8,294v-4.2c0-.2,0-.5,0-.7,0-.2,0-.5,0-.7h1.1v1.4c.1,0,0,0,0,0,0-.3.2-.6.4-.9.2-.2.4-.4.6-.5.3-.1.5-.2.8-.2s.2,0,.3,0c0,0,.2,0,.2,0v1c-.1,0-.2,0-.3,0,0,0-.2,0-.3,0-.3,0-.6,0-.8.2-.2.1-.4.3-.5.6-.1.2-.2.5-.2.8v3.1h-1.1ZM139.8,294l-2.1-5.5h1.2l1.6,4.6h-.3l1.7-4.6h.9l1.7,4.6h-.3l1.6-4.6h1.1l-2.1,5.5h-1l-1.7-4.7h.5l-1.7,4.7h-1ZM150.4,294.1c-.9,0-1.6-.3-2.1-.8-.5-.5-.8-1.2-.8-2.1s.1-1.1.3-1.5c.2-.4.5-.8.9-1,.4-.2.9-.4,1.4-.4s1,.1,1.3.3c.4.2.6.5.8.9.2.4.3.9.3,1.4v.4h-4.2v-.6h3.4-.2c0-.4-.1-.8-.4-1.1-.2-.3-.6-.5-1.1-.5s-.9.2-1.2.5c-.3.4-.4.8-.4,1.5h0c0,.8.2,1.3.5,1.6.3.3.8.5,1.4.5s.6,0,.9-.1c.3,0,.6-.2.8-.5l.4.8c-.3.2-.6.4-.9.5-.4.1-.8.2-1.2.2ZM156.8,294.1c-.5,0-.9-.1-1.3-.4-.4-.2-.6-.6-.7-1h.1v1.3h-1.1v-8.1h1.1v3.8h-.1c.1-.4.4-.7.7-1,.4-.2.8-.4,1.3-.4s.9.1,1.3.4c.4.2.6.6.8,1,.2.4.3.9.3,1.5s-.1,1.1-.3,1.5c-.2.4-.5.8-.9,1-.4.2-.8.3-1.3.3ZM156.5,293.2c.5,0,.9-.2,1.2-.5.3-.3.4-.8.4-1.5s-.1-1.2-.4-1.5c-.3-.3-.7-.5-1.2-.5s-.9.2-1.2.5c-.3.3-.4.8-.4,1.5s.1,1.2.4,1.5c.3.3.7.5,1.2.5ZM162.4,294.1c-.5,0-.9,0-1.3-.2-.4-.1-.7-.3-1-.5l.3-.8c.3.2.6.4.9.5s.7.2,1,.2.7,0,.9-.2c.2-.1.3-.3.3-.6s0-.3-.2-.5c-.1-.1-.3-.2-.6-.3l-1.1-.2c-.5-.1-.8-.3-1.1-.5-.2-.2-.4-.6-.4-1s0-.6.3-.9c.2-.3.4-.5.8-.6.3-.1.7-.2,1.2-.2s.8,0,1.1.2c.4.1.6.3.9.5l-.4.7c-.2-.2-.5-.3-.8-.4-.3-.1-.6-.2-.9-.2s-.7,0-.9.2c-.2.2-.3.4-.3.6s0,.3.2.5c.1.1.3.2.6.3l1.1.2c.5.1.9.3,1.1.5.2.2.4.5.4.9s0,.6-.3.9c-.2.3-.5.5-.8.6-.3.1-.7.2-1.2.2ZM166,294v-5.5h1.1v5.5h-1.1ZM165.9,287.3v-1.2h1.3v1.2h-1.3ZM170.9,294.1c-.6,0-1.1-.2-1.4-.5-.3-.3-.5-.8-.5-1.5v-2.8h-1.1v-.9h1.1v-1.5l1.1-.3v1.8h1.5v.9h-1.5v2.7c0,.4,0,.7.2.9.1.2.4.3.6.3s.3,0,.4,0c.1,0,.2,0,.3,0v.9c-.1,0-.2,0-.4,0-.1,0-.3,0-.4,0ZM175.2,294.1c-.9,0-1.6-.3-2.1-.8-.5-.5-.8-1.2-.8-2.1s.1-1.1.3-1.5c.2-.4.5-.8.9-1,.4-.2.9-.4,1.4-.4s1,.1,1.3.3c.4.2.6.5.8.9.2.4.3.9.3,1.4v.4h-4.2v-.6h3.4-.2c0-.4-.1-.8-.4-1.1-.2-.3-.6-.5-1.1-.5s-.9.2-1.2.5c-.3.4-.4.8-.4,1.5h0c0,.8.2,1.3.5,1.6.3.3.8.5,1.4.5s.6,0,.9-.1c.3,0,.6-.2.8-.5l.4.8c-.3.2-.6.4-.9.5-.4.1-.8.2-1.2.2ZM178.5,294v-1.3h1.3v1.3h-1.3ZM183.5,294.1c-.6,0-1-.1-1.5-.3-.4-.2-.7-.6-1-1-.2-.4-.3-1-.3-1.6s.1-1.1.3-1.5c.2-.4.5-.7,1-1,.4-.2.9-.3,1.5-.3s.7,0,1,.2c.3.1.6.3.8.5l-.4.8c-.2-.2-.4-.3-.7-.4-.3-.1-.5-.2-.7-.2-.5,0-.9.2-1.2.5-.3.3-.5.8-.5,1.5s.2,1.1.5,1.5c.3.3.7.5,1.2.5s.5,0,.7-.1c.3,0,.5-.2.7-.5l.4.8c-.2.2-.5.4-.9.5-.3.1-.7.2-1,.2ZM188.8,294.1c-.6,0-1-.1-1.4-.3-.4-.2-.7-.6-.9-1-.2-.4-.3-.9-.3-1.5s.1-1.1.3-1.5c.2-.4.5-.8.9-1,.4-.2.9-.4,1.4-.4s1,.1,1.4.4c.4.2.7.6.9,1,.2.4.3.9.3,1.5s-.1,1.1-.3,1.5c-.2.4-.5.8-.9,1-.4.2-.9.3-1.4.3ZM188.8,293.2c.5,0,.9-.2,1.2-.5s.4-.8.4-1.5-.1-1.2-.4-1.5c-.3-.3-.7-.5-1.2-.5s-.9.2-1.1.5c-.3.3-.4.8-.4,1.5s.1,1.2.4,1.5c.3.3.7.5,1.2.5ZM192.8,294v-4.2c0-.2,0-.4,0-.6,0-.2,0-.5,0-.7h1.1v1.2c0,0,0,0,0,0,.2-.4.4-.7.7-.9.3-.2.7-.3,1.2-.3s.8.1,1.1.3c.3.2.5.5.6,1h-.2c.1-.4.4-.7.7-1,.4-.2.8-.4,1.2-.4s1.1.2,1.4.5.5.9.5,1.7v3.4h-1.1v-3.4c0-.5,0-.8-.3-1-.2-.2-.4-.3-.8-.3s-.8.1-1,.4c-.2.3-.4.7-.4,1.2v3.1h-1.1v-3.4c0-.5,0-.8-.3-1-.2-.2-.4-.3-.8-.3s-.8.1-1,.4c-.2.3-.4.7-.4,1.2v3.1h-1.1Z"/>
      <path class="cls-3" d="M79,309h151"/>
      <path class="cls-3" d="M79,322h151"/>
      <path class="cls-3" d="M79,334h151"/>
      <image width="2000" height="2000" transform="translate(30.6 34.6) scale(0)" xlink:href="../logo/google-logo.png"/>
    </g>
  </g>
</svg>