<svg id="Layer_1" xmlns="http://www.w3.org/2000/svg" xmlns:xlink="http://www.w3.org/1999/xlink" viewBox="0 0 1024 1024">
  <defs>
    <filter id="drop-shadow-1" filterUnits="userSpaceOnUse">
      <feOffset dx="5" dy="5"/>
      <feGaussianBlur result="blur" stdDeviation="6"/>
      <feFlood flood-color="#000" flood-opacity=".4"/>
      <feComposite in2="blur" operator="in"/>
      <feComposite in="SourceGraphic"/>
    </filter>
    <filter id="drop-shadow-2" filterUnits="userSpaceOnUse">
      <feOffset dx="5" dy="5"/>
      <feGaussianBlur result="blur-2" stdDeviation="6"/>
      <feFlood flood-color="#000" flood-opacity=".4"/>
      <feComposite in2="blur-2" operator="in"/>
      <feComposite in="SourceGraphic"/>
    </filter>
    <filter id="drop-shadow-3" filterUnits="userSpaceOnUse">
      <feOffset dx="5" dy="5"/>
      <feGaussianBlur result="blur-3" stdDeviation="6"/>
      <feFlood flood-color="#000" flood-opacity=".4"/>
      <feComposite in2="blur-3" operator="in"/>
      <feComposite in="SourceGraphic"/>
    </filter>
    <filter id="drop-shadow-4" filterUnits="userSpaceOnUse">
      <feOffset dx="5" dy="5"/>
      <feGaussianBlur result="blur-4" stdDeviation="6"/>
      <feFlood flood-color="#000" flood-opacity=".4"/>
      <feComposite in2="blur-4" operator="in"/>
      <feComposite in="SourceGraphic"/>
    </filter>
    <filter id="drop-shadow-5" filterUnits="userSpaceOnUse">
      <feOffset dx="-5" dy="7"/>
      <feGaussianBlur result="blur-5" stdDeviation="5"/>
      <feFlood flood-color="#000" flood-opacity=".2"/>
      <feComposite in2="blur-5" operator="in"/>
      <feComposite in="SourceGraphic"/>
    </filter>
    <filter id="drop-shadow-7" filterUnits="userSpaceOnUse">
      <feOffset dx="-5" dy="7"/>
      <feGaussianBlur result="blur-6" stdDeviation="5"/>
      <feFlood flood-color="#000" flood-opacity=".2"/>
      <feComposite in2="blur-6" operator="in"/>
      <feComposite in="SourceGraphic"/>
    </filter>
    <filter id="drop-shadow-8" filterUnits="userSpaceOnUse">
      <feOffset dx="-5" dy="7"/>
      <feGaussianBlur result="blur-7" stdDeviation="5"/>
      <feFlood flood-color="#000" flood-opacity=".2"/>
      <feComposite in2="blur-7" operator="in"/>
      <feComposite in="SourceGraphic"/>
    </filter>
  </defs>
  <path d="M579.36,597.63c-9.95-.26-19.21,17.33-33.89,45.22-13.25,25.18-14.77,36.33-27.75,59.57-9.2,16.48-18.54,28.96-25.06,37-26.35,6.76-52.69,13.53-79.04,20.29-7.21-1.41-14.42-2.83-21.63-4.24-2.45,3.32-4.9,6.65-7.34,9.97-6.38,1.64-12.76,3.28-19.14,4.92,4,4.3,8.76,10.55,12.27,18.93,9.13,21.85,3.08,42.33.82,48.92,58.42-13.87,116.84-27.73,175.26-41.6,20.61-35.74,41.23-71.48,61.84-107.22-15.1-83.14-29.64-91.59-36.33-91.77Z" style="fill: #c13600;"/>
  <path d="M620.83,566.65h53.05c15.69,0,28.42,12.74,28.42,28.42v163.56c0,15.69-12.74,28.42-28.42,28.42h-50.3c-36.85,0-66.76-29.92-66.76-66.76v-89.63c0-35.33,28.69-64.02,64.02-64.02Z" transform="translate(-40.8 40.38) rotate(-3.56)" style="fill: #ea550f;"/>
  <path d="M682.75,556.15h79.64c29.2,0,52.91,23.71,52.91,52.91v224.82c0,15.4-12.51,27.91-27.91,27.91h-104.65c-15.4,0-27.91-12.51-27.91-27.91v-249.82c0-15.4,12.51-27.91,27.91-27.91Z" transform="translate(61.31 -58.5) rotate(4.76)" style="fill: #ea550f;"/>
  <rect x="616.29" y="504.61" width="87.9" height="133.53" transform="translate(-34.81 42.89) rotate(-3.63)" style="fill: #f69e9b;"/>
  <path d="M700.07,517.9l.17,2.75c2.03,32.1-22.59,60.02-54.69,62.05l-28.53,1.81-1.34-21.18,31.55-2c25.65-1.63,46.55-19.81,52.83-43.44Z" style="fill: #d88080;"/>
  <path d="M603.92,459.64c.52,11.24-8.13,20.74-19.34,21.26-2.88.13-5.68-.34-8.2-1.29-1.03-.41-2.01-.89-2.96-1.45-5.76-3.31-9.77-9.45-10.1-16.62-.39-8.38,4.35-15.8,11.43-19.22,1.21-.61,2.52-1.07,3.86-1.42,1.31-.32,2.66-.53,4.07-.59,11.21-.52,20.71,8.13,21.23,19.34Z" style="fill: #ee7f7f;"/>
  <path d="M698.55,439.63l2.97,63.71c.24,5.22-.19,10.29-1.24,15.13-.17.87-.37,1.72-.6,2.54-5.79,22.36-24.36,39.25-46.94,40.3l-28.85,1.34c-23.96,1.12-44.53-19.18-45.74-45.11l-3.36-72.15c-.05-1.04-.07-2.08-.04-3.09,0-1.13.05-2.26.16-3.36.79-9.97,4.5-19.1,10.24-26.35,7.5-9.53,18.52-15.82,30.98-16.4l36.65-1.71c21.48-1,40.24,15.22,44.76,37.27.55,2.54.88,5.19,1.01,7.87Z" style="fill: #f69e9b;"/>
  <path d="M673.16,410.65c5.9,7.86-14.59,29.36-7.64,45.77,6.23,14.71,32.59,20.84,49.3,9.06,23.11-16.3,21.49-62.44,6.06-79.76-6.58-7.38-12.47-5.95-29.79-9.97-46.63-10.81-52.6-32.5-79.62-30.35-21.07,1.68-46.09,17.14-47.19,36.26-1.07,18.57,21.82,35.88,42.85,37.15,38.01,2.3,59.02-17.49,66.03-8.17Z" style="fill: #4b2f38;"/>
  <path d="M723.85,468.29c.21,4.58-.58,8.92-2.18,12.75,0,0-.02.03,0,.06-3.53,8.37-10.79,14.25-19.44,14.65-1.82.08-3.58-.06-5.3-.48-10.21-2.27-18.2-12.38-18.78-24.85-.06-1.35-.05-2.68.09-3.99,0,0-.03-.03,0-.06.89-10.47,7.16-19.19,15.71-22.25,1.84-.66,3.8-1.07,5.82-1.17,12.62-.59,23.4,10.75,24.08,25.33Z" style="fill: #f6a2a0;"/>
  <line x1="571.95" y1="444.86" x2="595.46" y2="445.2" style="fill: none; stroke: #4b2f38; stroke-linecap: round; stroke-miterlimit: 10; stroke-width: 7.75px;"/>
  <line x1="620.69" y1="446.87" x2="644.2" y2="447.21" style="fill: none; stroke: #4b2f38; stroke-linecap: round; stroke-miterlimit: 10; stroke-width: 7.75px;"/>
  <circle cx="587.23" cy="473.77" r="8.13" style="fill: #4b2f38;"/>
  <circle cx="634.2" cy="475.45" r="8.13" style="fill: #4b2f38;"/>
  <path d="M605.81,481.6l-.72,17.4c-.11,2.74,2.02,5.05,4.76,5.17l8.17.34" style="fill: none; stroke: #4b2f38; stroke-linecap: round; stroke-linejoin: round; stroke-width: 3.49px;"/>
  <path d="M600.93,527.79c1.5,1.5,6.71,6.37,15.08,7.3,9.31,1.04,16-3.5,17.58-4.63" style="fill: none; stroke: #4b2f38; stroke-linecap: round; stroke-linejoin: round; stroke-width: 3.49px;"/>
  <path d="M689.57,474.7c-2.01-5.66-.74-11.99,3.3-16.43,4.04-4.44,10.23-6.3,16.05-4.82" style="fill: none; stroke: #4b2f38; stroke-linecap: round; stroke-linejoin: round; stroke-width: 3.49px;"/>
  <rect x="692.51" y="578.64" width="62.59" height="64.51" style="fill: #ea550f;"/>
  <path d="M731.05,671.45h-133.07v-64.51c16.57,2.41,33.13,4.82,49.7,7.24,27.79-2.41,55.58-4.82,83.37-7.24v64.51Z" style="fill: #ea550f;"/>
  <rect x="650.42" y="604.11" width="36.82" height="28.6" transform="translate(-219.6 417.26) rotate(-30)" style="fill: #ea550f;"/>
  <path d="M581.07,868.18c2.36-16.73,3.01-34.99.61-54.26-5.9-47.43-25.08-60.37-17.83-82.4,14.72-44.67,118.13-65.48,179.05-17.24,20.79,16.47,32.37,37.62,43.27,57.48,11.81,21.54,29.89,54.52,30.34,96.41h-235.45Z" style="fill: #ea550f;"/>
  <path d="M816.04,809.48c-3.52-35-2.45-63.05.02-84.82,1.05-9.29,4.72-38.27-4.87-73.03-5.26-19.05-15.52-56.23-39.76-61.67-26.28-5.9-57.53,28.08-68.16,58.42-6.81,19.43-4.97,36.82-2.43,60.86,2.43,23.02,4.77,45.23,14.61,61.67,1.58,2.64-3.41,15.15-12.99,26.16-4.76,5.47-7.52,1.04-8.11,4.87-2.5,1.02,6.51,9.49,4.21,10.35l117.49-2.82Z" style="fill: #db4509;"/>
  <rect x="606.7" y="604.72" width="36.82" height="28.6" transform="translate(348.96 -216.26) rotate(26.99)" style="fill: #ea550f;"/>
  <path d="M702.33,536.45c-1.25,8.84-4.1,21.05-10.98,34.06-13.45,25.45-34.08,38.44-43.68,43.66,8.35-4.83,18.44-9.07,24.35-5.03,5.83,3.99,3.17,13.55,7.33,14.31,9.07,1.65,27.99-35.34,30.65-40.54,9.35-18.29,10.87-25.34,7.33-32.43-3.47-6.94-10.29-11.47-15.01-14.03Z" style="fill: #c13600;"/>
  <path d="M615.71,562.35c.62,5.38,1.99,12.01,4.92,19.16,7.16,17.46,19.48,27.78,26.1,32.53-10.38-5.32-22.08-9.28-28.95-4.29-6.58,4.78-5.14,15.23-7.98,15.35-4.53.18-8.34-29.51-9.17-35.97-1.52-11.85-2.13-19.02,4.23-23.38,3.46-2.37,7.78-3.13,10.84-3.39Z" style="fill: #c13600;"/>
  <path d="M583.93,797.61c-8.5-1.75-14.11-.49-20.29,0-12.28.98-30.15-.79-53.55-13.79-11.63,6.49-23.26,12.98-34.89,19.47,4.6,10.01,9.2,20.01,13.79,30.02,1.48-1.92,6.75-8.24,16.23-10.55,9.08-2.22,16.39.63,18.66,1.62-10.55,6.76-21.1,13.52-31.64,20.29-3.63,2.04-4.31,6.56-2.43,8.93,1.79,2.26,6.06,2.71,8.93,0,8.93-3.25,17.85-6.49,26.78-9.74,3.34,2.42,12.59,8.47,25.97,8.93,13.56.46,23.31-5.1,26.78-7.3h21.91c1.16-.79,15.91-11.06,14.61-24.34-1.69-17.18-28.64-23.08-30.83-23.53Z" style="fill: #f69e9b;"/>
  <path d="M719.44,621.64c-7.15,19.43-5.22,36.82-2.56,60.86,2.55,23.02,5.01,45.23,15.34,61.67,1.66,2.64,6.67,10.15,8.52,21.1,1.21,7.16.62,13.21,0,17.04-32,12.45-47.76,12.5-56.23,9.74-2.02-.66-8.83-3.18-17.04-1.62-6.13,1.16-10.72,4.15-13.63,6.49-21.02.54-42.03,1.08-63.05,1.62,13.72,8.16,17.29,15.63,17.89,21.1.81,7.36-3.66,12.11-8.52,30.83-1.23,4.76-2.05,8.72-2.56,11.36,73.59-.23,147.19-.47,220.78-.7,17.16-.05,30.08-14.95,26.82-30.99-11.74-57.93-11.02-101.37-7.35-132.21,1.11-9.29,4.96-38.27-5.11-73.03-5.52-19.05-16.3-56.23-41.75-61.67-27.59-5.9-60.41,28.08-71.57,58.42Z" style="fill: #c13600;"/>
  <line y1="866.58" x2="1024" y2="868.95" style="fill: none; stroke: #5b5b5b; stroke-miterlimit: 10; stroke-width: 4px;"/>
  <polyline points="436.54 860.23 515.83 860.23 583.62 860.23" style="fill: none; stroke: #c4c4c4; stroke-linecap: round; stroke-miterlimit: 10; stroke-width: 11px;"/>
  <path d="M473.94,866.58H193.69c-8.55,0-16.14-5.39-18.82-13.38l-54.65-162.82c-4.23-12.6,5.32-25.58,18.82-25.58h280.25c8.55,0,16.14,5.39,18.82,13.38l54.65,162.82c4.23,12.6-5.32,25.58-18.82,25.58Z" style="fill: #ccc;"/>
  <path d="M417.99,664.81c8.61-.38,16.36,3.84,19.98,11.76.01,0,58.65,181.13,58.66,181.14.26.79-.18,1.63-.96,1.89-.79.26-1.65-.19-1.9-.98,0,0-56.16-182.02-56.1-181.87-3.46-7.88-11.18-12.21-19.68-11.94h0Z" style="fill: #c4c4c4;"/>
  <rect x="690.77" y="469.96" width="11.91" height="37.2" rx="3.75" ry="3.75" transform="translate(307.79 -268.3) rotate(27.76)" style="fill: #f2f2f2;"/>
  <circle cx="703.44" cy="475.8" r="9.41" style="fill: #e2e2e2;"/>
  <circle cx="703.44" cy="474.22" r="9.41" style="fill: #f2f2f2;"/>
  <circle cx="306.49" cy="440.28" r="95.89" style="fill: #a6c626; filter: url(#drop-shadow-1);"/>
  <circle cx="829.72" cy="217.21" r="111.16" style="fill: #a6c626; filter: url(#drop-shadow-2);"/>
  <circle cx="512" cy="234.82" r="88.45" style="fill: #a6c626; filter: url(#drop-shadow-3);"/>
  <circle cx="884.13" cy="468.43" r="83.1" style="fill: #a6c626; filter: url(#drop-shadow-4);"/>
  <image width="1145" height="1144" transform="translate(259.9 390.09) scale(.09)" xlink:href="./public/images/homepage/telephone-icon.png" style="filter: url(#drop-shadow-5);"/>
  <rect x="763.05" y="170.74" width="137.45" height="98.99" rx="8.5" ry="8.5" style="fill: #fff; filter: url(#drop-shadow-7);"/>
  <path d="M772.96,167.56h117.63c5.47,0,9.91,4.44,9.91,9.91v7.37h-137.45v-7.37c0-5.47,4.44-9.91,9.91-9.91Z" style="fill: #ccc;"/>
  <text transform="translate(796.97 244.75)" style="fill: #ea550f; font-family: MicrosoftTaiLe-Bold, &apos;Microsoft Tai Le&apos;; font-size: 60.38px; font-weight: 700;"><tspan x="0" y="0">24</tspan></text>
  <path d="M919.5,474.04c0-18.56-15.31-33.55-33.98-33.03-16.86.47-30.87,13.9-32.02,30.72-.8,11.71,4.53,22.19,13.07,28.65,2.01,1.52,3.22,3.85,3.22,6.37v13.64h33.38l-.09-14.1c0-4.04,2.61-5.56,4.48-7.1,7.19-5.9,11.94-15.11,11.94-25.15Z" style="fill: #fff;"/>
  <path d="M866.85,517.9h39.4c.41,0,.74.33.74.74v9c0,2.38-1.93,4.32-4.32,4.32h-32.26c-2.38,0-4.32-1.93-4.32-4.32v-9c0-.41.33-.74.74-.74Z" style="fill: #ccc;"/>
  <line x1="842.73" y1="463.73" x2="820.19" y2="458.83" style="fill: none; stroke: #fff; stroke-linecap: round; stroke-miterlimit: 10; stroke-width: 3px;"/>
  <line x1="856.21" y1="436.88" x2="840.64" y2="423.17" style="fill: none; stroke: #fff; stroke-linecap: round; stroke-miterlimit: 10; stroke-width: 3px;"/>
  <line x1="887.17" y1="429.5" x2="887.45" y2="409.25" style="fill: none; stroke: #fff; stroke-linecap: round; stroke-miterlimit: 10; stroke-width: 3px;"/>
  <line x1="915.71" y1="437.48" x2="930.91" y2="426.55" style="fill: none; stroke: #fff; stroke-linecap: round; stroke-miterlimit: 10; stroke-width: 3px;"/>
  <line x1="927.95" y1="462.33" x2="949.65" y2="458.84" style="fill: none; stroke: #fff; stroke-linecap: round; stroke-miterlimit: 10; stroke-width: 3px;"/>
  <g style="filter: url(#drop-shadow-8);">
    <rect x="460.6" y="193.88" width="97.56" height="64.78" rx="6.38" ry="6.38" style="fill: #fff;"/>
    <path d="M534.83,290.43l13.72-38.28c.71-1.99-.76-4.09-2.88-4.09h-27.45c-2.12,0-3.59,2.1-2.88,4.09l13.72,38.28c.97,2.7,4.79,2.7,5.75,0Z" style="fill: #fff;"/>
  </g>
  <circle cx="480.98" cy="225.89" r="7.04" style="fill: #ccc;"/>
  <circle cx="509.97" cy="225.89" r="7.04" style="fill: #ccc;"/>
  <circle cx="537.77" cy="225.74" r="7.04" style="fill: #ccc;"/>
  <image width="1024" height="1024" transform="translate(260.12 739.62) rotate(-7.83) scale(.05 .06)" xlink:href="./public/logo/Techysquad-Logo-01.png"/>
</svg>