<svg width="194" height="205" viewBox="0 0 194 205" fill="none" xmlns="http://www.w3.org/2000/svg" xmlns:xlink="http://www.w3.org/1999/xlink">
<g filter="url(#filter0_d_315_33)">
<rect x="49" y="94" width="137" height="103" rx="7" fill="white"/>
</g>
<path d="M157.25 182.001V134.999" stroke="#EA550F" stroke-width="10" stroke-linecap="round"/>
<path d="M136 148L136 182" stroke="#D9D9D9" stroke-width="10" stroke-linecap="round"/>
<path d="M115 146L115 182" stroke="#D9D9D9" stroke-width="10" stroke-linecap="round"/>
<path d="M94 153L94 182" stroke="#D9D9D9" stroke-width="10" stroke-linecap="round"/>
<path d="M73 164L73 182" stroke="#D9D9D9" stroke-width="10" stroke-linecap="round"/>
<path d="M60.944 109.06C60.604 109.06 60.29 109.018 60.002 108.934C59.718 108.846 59.474 108.726 59.27 108.574L59.51 107.968C59.646 108.064 59.788 108.146 59.936 108.214C60.084 108.278 60.242 108.328 60.41 108.364C60.578 108.396 60.756 108.412 60.944 108.412C61.26 108.412 61.488 108.36 61.628 108.256C61.768 108.152 61.838 108.016 61.838 107.848C61.838 107.7 61.79 107.588 61.694 107.512C61.598 107.432 61.426 107.366 61.178 107.314L60.5 107.176C60.112 107.096 59.822 106.962 59.63 106.774C59.438 106.586 59.342 106.334 59.342 106.018C59.342 105.754 59.412 105.524 59.552 105.328C59.692 105.132 59.888 104.98 60.14 104.872C60.392 104.764 60.686 104.71 61.022 104.71C61.322 104.71 61.6 104.754 61.856 104.842C62.112 104.926 62.326 105.048 62.498 105.208L62.258 105.784C62.086 105.64 61.898 105.534 61.694 105.466C61.49 105.394 61.262 105.358 61.01 105.358C60.726 105.358 60.504 105.414 60.344 105.526C60.188 105.634 60.11 105.784 60.11 105.976C60.11 106.124 60.158 106.242 60.254 106.33C60.354 106.418 60.522 106.486 60.758 106.534L61.43 106.666C61.83 106.746 62.126 106.878 62.318 107.062C62.51 107.242 62.606 107.486 62.606 107.794C62.606 108.046 62.538 108.268 62.402 108.46C62.266 108.648 62.074 108.796 61.826 108.904C61.578 109.008 61.284 109.06 60.944 109.06ZM63.2752 109V105.97H64.0252V109H63.2752ZM63.2332 105.4V104.668H64.0672V105.4H63.2332ZM66.1356 109.06C65.7756 109.06 65.5036 108.966 65.3196 108.778C65.1356 108.59 65.0436 108.308 65.0436 107.932V106.534H64.4616V105.97H65.0436V105.196L65.7936 105.004V105.97H66.6036V106.534H65.7936V107.884C65.7936 108.092 65.8336 108.238 65.9136 108.322C65.9936 108.406 66.1036 108.448 66.2436 108.448C66.3196 108.448 66.3836 108.442 66.4356 108.43C66.4916 108.418 66.5456 108.402 66.5976 108.382V108.976C66.5296 109.004 66.4536 109.024 66.3696 109.036C66.2896 109.052 66.2116 109.06 66.1356 109.06ZM68.5478 109.06C68.0398 109.06 67.6418 108.92 67.3538 108.64C67.0658 108.36 66.9218 107.976 66.9218 107.488C66.9218 107.172 66.9838 106.896 67.1078 106.66C67.2318 106.424 67.4038 106.24 67.6238 106.108C67.8478 105.976 68.1078 105.91 68.4038 105.91C68.6958 105.91 68.9398 105.972 69.1358 106.096C69.3318 106.22 69.4798 106.394 69.5798 106.618C69.6838 106.842 69.7358 107.104 69.7358 107.404V107.602H67.5278V107.206H69.2018L69.0998 107.29C69.0998 107.01 69.0398 106.796 68.9198 106.648C68.8038 106.5 68.6338 106.426 68.4098 106.426C68.1618 106.426 67.9698 106.514 67.8338 106.69C67.7018 106.866 67.6358 107.112 67.6358 107.428V107.506C67.6358 107.834 67.7158 108.08 67.8758 108.244C68.0398 108.404 68.2698 108.484 68.5658 108.484C68.7378 108.484 68.8978 108.462 69.0458 108.418C69.1978 108.37 69.3418 108.294 69.4778 108.19L69.6998 108.694C69.5558 108.81 69.3838 108.9 69.1838 108.964C68.9838 109.028 68.7718 109.06 68.5478 109.06ZM72.0774 109V104.77H73.9254C74.3894 104.77 74.7474 104.88 74.9994 105.1C75.2554 105.32 75.3834 105.626 75.3834 106.018C75.3834 106.278 75.3254 106.5 75.2094 106.684C75.0974 106.868 74.9354 107.01 74.7234 107.11C74.5114 107.206 74.2614 107.254 73.9734 107.254L74.0574 107.14H74.2614C74.4294 107.14 74.5794 107.184 74.7114 107.272C74.8434 107.36 74.9514 107.494 75.0354 107.674L75.6534 109H74.8014L74.1774 107.626C74.1214 107.486 74.0354 107.394 73.9194 107.35C73.8074 107.306 73.6714 107.284 73.5114 107.284H72.8514V109H72.0774ZM72.8514 106.714H73.7994C74.0714 106.714 74.2774 106.658 74.4174 106.546C74.5614 106.43 74.6334 106.262 74.6334 106.042C74.6334 105.822 74.5614 105.656 74.4174 105.544C74.2774 105.432 74.0714 105.376 73.7994 105.376H72.8514V106.714ZM77.6181 109.06C77.1101 109.06 76.7121 108.92 76.4241 108.64C76.1361 108.36 75.9921 107.976 75.9921 107.488C75.9921 107.172 76.0541 106.896 76.1781 106.66C76.3021 106.424 76.4741 106.24 76.6941 106.108C76.9181 105.976 77.1781 105.91 77.4741 105.91C77.7661 105.91 78.0101 105.972 78.2061 106.096C78.4021 106.22 78.5501 106.394 78.6501 106.618C78.7541 106.842 78.8061 107.104 78.8061 107.404V107.602H76.5981V107.206H78.2721L78.1701 107.29C78.1701 107.01 78.1101 106.796 77.9901 106.648C77.8741 106.5 77.7041 106.426 77.4801 106.426C77.2321 106.426 77.0401 106.514 76.9041 106.69C76.7721 106.866 76.7061 107.112 76.7061 107.428V107.506C76.7061 107.834 76.7861 108.08 76.9461 108.244C77.1101 108.404 77.3401 108.484 77.6361 108.484C77.8081 108.484 77.9681 108.462 78.1161 108.418C78.2681 108.37 78.4121 108.294 78.5481 108.19L78.7701 108.694C78.6261 108.81 78.4541 108.9 78.2541 108.964C78.0541 109.028 77.8421 109.06 77.6181 109.06ZM80.6112 109.06C80.3472 109.06 80.1152 108.998 79.9152 108.874C79.7152 108.746 79.5592 108.564 79.4472 108.328C79.3352 108.092 79.2792 107.81 79.2792 107.482C79.2792 107.154 79.3352 106.874 79.4472 106.642C79.5592 106.406 79.7152 106.226 79.9152 106.102C80.1152 105.974 80.3472 105.91 80.6112 105.91C80.8672 105.91 81.0912 105.974 81.2832 106.102C81.4792 106.226 81.6092 106.394 81.6732 106.606H81.6072L81.6732 105.97H82.3932C82.3812 106.094 82.3692 106.22 82.3572 106.348C82.3492 106.476 82.3452 106.602 82.3452 106.726V109H81.6012L81.5952 108.376H81.6672C81.6032 108.584 81.4732 108.75 81.2772 108.874C81.0812 108.998 80.8592 109.06 80.6112 109.06ZM80.8212 108.484C81.0572 108.484 81.2472 108.402 81.3912 108.238C81.5352 108.07 81.6072 107.818 81.6072 107.482C81.6072 107.146 81.5352 106.896 81.3912 106.732C81.2472 106.568 81.0572 106.486 80.8212 106.486C80.5852 106.486 80.3952 106.568 80.2512 106.732C80.1072 106.896 80.0352 107.146 80.0352 107.482C80.0352 107.818 80.1052 108.07 80.2452 108.238C80.3892 108.402 80.5812 108.484 80.8212 108.484ZM84.5539 109.06C84.2419 109.06 83.9679 108.996 83.7319 108.868C83.4999 108.74 83.3199 108.558 83.1919 108.322C83.0639 108.082 82.9999 107.798 82.9999 107.47C82.9999 107.142 83.0639 106.862 83.1919 106.63C83.3239 106.398 83.5059 106.22 83.7379 106.096C83.9699 105.972 84.2419 105.91 84.5539 105.91C84.7539 105.91 84.9479 105.942 85.1359 106.006C85.3279 106.066 85.4839 106.154 85.6039 106.27L85.3759 106.792C85.2679 106.692 85.1459 106.618 85.0099 106.57C84.8779 106.518 84.7479 106.492 84.6199 106.492C84.3519 106.492 84.1419 106.576 83.9899 106.744C83.8419 106.912 83.7679 107.156 83.7679 107.476C83.7679 107.796 83.8419 108.042 83.9899 108.214C84.1419 108.386 84.3519 108.472 84.6199 108.472C84.7439 108.472 84.8719 108.448 85.0039 108.4C85.1399 108.352 85.2639 108.278 85.3759 108.178L85.6039 108.694C85.4799 108.81 85.3219 108.9 85.1299 108.964C84.9419 109.028 84.7499 109.06 84.5539 109.06ZM86.1853 109V104.584H86.9353V106.576H86.8513C86.9433 106.36 87.0853 106.196 87.2773 106.084C87.4693 105.968 87.6893 105.91 87.9373 105.91C88.2973 105.91 88.5653 106.012 88.7413 106.216C88.9173 106.416 89.0053 106.722 89.0053 107.134V109H88.2553V107.17C88.2553 106.934 88.2093 106.764 88.1173 106.66C88.0293 106.552 87.8873 106.498 87.6913 106.498C87.4633 106.498 87.2793 106.57 87.1393 106.714C87.0033 106.854 86.9353 107.042 86.9353 107.278V109H86.1853Z" fill="#373737"/>
<path d="M61.56 132V130.1L66.24 125.22C66.8267 124.607 67.26 124.04 67.54 123.52C67.82 123 67.96 122.467 67.96 121.92C67.96 121.24 67.7467 120.727 67.32 120.38C66.8933 120.033 66.2733 119.86 65.46 119.86C64.8067 119.86 64.18 119.98 63.58 120.22C62.98 120.447 62.3933 120.807 61.82 121.3L60.98 119.38C61.5533 118.873 62.26 118.467 63.1 118.16C63.9533 117.853 64.8467 117.7 65.78 117.7C67.3 117.7 68.4667 118.04 69.28 118.72C70.0933 119.4 70.5 120.373 70.5 121.64C70.5 122.52 70.2933 123.36 69.88 124.16C69.4667 124.947 68.8267 125.773 67.96 126.64L64.06 130.54V129.86H71.06V132H61.56ZM79.1122 132V129.24H72.8122V127.44L79.5122 117.9H81.5922V127.28H83.6122V129.24H81.5922V132H79.1122ZM79.1122 127.28V120.94H79.5922L74.7322 127.88V127.28H79.1122ZM89.9844 132.2C88.331 132.2 87.0577 131.573 86.1644 130.32C85.271 129.053 84.8244 127.253 84.8244 124.92C84.8244 122.56 85.271 120.767 86.1644 119.54C87.0577 118.313 88.331 117.7 89.9844 117.7C91.651 117.7 92.9244 118.313 93.8044 119.54C94.6977 120.767 95.1444 122.553 95.1444 124.9C95.1444 127.247 94.6977 129.053 93.8044 130.32C92.9244 131.573 91.651 132.2 89.9844 132.2ZM89.9844 130.08C90.891 130.08 91.5644 129.667 92.0044 128.84C92.4444 128 92.6644 126.687 92.6644 124.9C92.6644 123.113 92.4444 121.82 92.0044 121.02C91.5644 120.207 90.891 119.8 89.9844 119.8C89.091 119.8 88.4177 120.207 87.9644 121.02C87.5244 121.82 87.3044 123.113 87.3044 124.9C87.3044 126.687 87.5244 128 87.9644 128.84C88.4177 129.667 89.091 130.08 89.9844 130.08Z" fill="black"/>
<rect x="151" y="104" width="23" height="10" rx="4" fill="#A6C626"/>
<path d="M155.275 110.805V109.785H154.27V109.345H155.275V108.35H155.73V109.345H156.73V109.785H155.73V110.805H155.275ZM158.76 111V110.525L159.93 109.305C160.077 109.152 160.185 109.01 160.255 108.88C160.325 108.75 160.36 108.617 160.36 108.48C160.36 108.31 160.307 108.182 160.2 108.095C160.093 108.008 159.938 107.965 159.735 107.965C159.572 107.965 159.415 107.995 159.265 108.055C159.115 108.112 158.968 108.202 158.825 108.325L158.615 107.845C158.758 107.718 158.935 107.617 159.145 107.54C159.358 107.463 159.582 107.425 159.815 107.425C160.195 107.425 160.487 107.51 160.69 107.68C160.893 107.85 160.995 108.093 160.995 108.41C160.995 108.63 160.943 108.84 160.84 109.04C160.737 109.237 160.577 109.443 160.36 109.66L159.385 110.635V110.465H161.135V111H158.76ZM162.893 111.05C162.74 111.05 162.586 111.033 162.433 111C162.283 110.967 162.141 110.92 162.008 110.86C161.878 110.8 161.766 110.728 161.673 110.645L161.883 110.16C162.04 110.277 162.2 110.365 162.363 110.425C162.53 110.482 162.703 110.51 162.883 110.51C163.1 110.51 163.268 110.457 163.388 110.35C163.511 110.24 163.573 110.093 163.573 109.91C163.573 109.723 163.515 109.573 163.398 109.46C163.281 109.343 163.121 109.285 162.918 109.285C162.775 109.285 162.643 109.313 162.523 109.37C162.406 109.423 162.301 109.507 162.208 109.62H161.783V107.475H163.973V108.005H162.393V109.125H162.238C162.325 109.008 162.44 108.918 162.583 108.855C162.73 108.792 162.893 108.76 163.073 108.76C163.3 108.76 163.496 108.807 163.663 108.9C163.83 108.993 163.96 109.125 164.053 109.295C164.146 109.462 164.193 109.658 164.193 109.885C164.193 110.115 164.14 110.318 164.033 110.495C163.93 110.668 163.78 110.805 163.583 110.905C163.39 111.002 163.16 111.05 162.893 111.05ZM165.971 111H165.436L167.516 107.475H168.051L165.971 111ZM165.476 109.58C165.193 109.58 164.971 109.483 164.811 109.29C164.651 109.097 164.571 108.833 164.571 108.5C164.571 108.163 164.651 107.9 164.811 107.71C164.975 107.52 165.196 107.425 165.476 107.425C165.76 107.425 165.981 107.522 166.141 107.715C166.301 107.908 166.381 108.17 166.381 108.5C166.381 108.833 166.301 109.097 166.141 109.29C165.981 109.483 165.76 109.58 165.476 109.58ZM165.476 109.18C165.6 109.18 165.695 109.125 165.761 109.015C165.831 108.905 165.866 108.733 165.866 108.5C165.866 108.263 165.831 108.093 165.761 107.99C165.695 107.883 165.6 107.83 165.476 107.83C165.353 107.83 165.256 107.882 165.186 107.985C165.12 108.088 165.086 108.26 165.086 108.5C165.086 108.74 165.12 108.913 165.186 109.02C165.256 109.127 165.353 109.18 165.476 109.18ZM168.011 111.05C167.728 111.05 167.506 110.953 167.346 110.76C167.186 110.563 167.106 110.298 167.106 109.965C167.106 109.628 167.186 109.367 167.346 109.18C167.51 108.99 167.731 108.895 168.011 108.895C168.295 108.895 168.516 108.992 168.676 109.185C168.836 109.375 168.916 109.635 168.916 109.965C168.916 110.298 168.836 110.563 168.676 110.76C168.516 110.953 168.295 111.05 168.011 111.05ZM168.011 110.645C168.135 110.645 168.23 110.592 168.296 110.485C168.366 110.375 168.401 110.202 168.401 109.965C168.401 109.728 168.366 109.558 168.296 109.455C168.23 109.348 168.135 109.295 168.011 109.295C167.888 109.295 167.791 109.348 167.721 109.455C167.655 109.558 167.621 109.728 167.621 109.965C167.621 110.205 167.655 110.378 167.721 110.485C167.791 110.592 167.888 110.645 168.011 110.645Z" fill="white"/>
<g filter="url(#filter1_d_315_33)">
<rect x="114" y="28" width="69" height="51" rx="8" fill="white"/>
</g>
<g filter="url(#filter2_d_315_33)">
<rect width="102" height="79" rx="8" fill="white"/>
</g>
<g filter="url(#filter3_d_315_33)">
<rect x="12" y="8" width="79" height="17" rx="6" fill="#F5F5F5"/>
</g>
<rect x="17" y="11" width="11" height="11" fill="url(#pattern0_315_33)"/>
<path d="M34.62 18.05C34.3367 18.05 34.075 18.015 33.835 17.945C33.5983 17.8717 33.395 17.7717 33.225 17.645L33.425 17.14C33.5383 17.22 33.6567 17.2883 33.78 17.345C33.9033 17.3983 34.035 17.44 34.175 17.47C34.315 17.4967 34.4633 17.51 34.62 17.51C34.8833 17.51 35.0733 17.4667 35.19 17.38C35.3067 17.2933 35.365 17.18 35.365 17.04C35.365 16.9167 35.325 16.8233 35.245 16.76C35.165 16.6933 35.0217 16.6383 34.815 16.595L34.25 16.48C33.9267 16.4133 33.685 16.3017 33.525 16.145C33.365 15.9883 33.285 15.7783 33.285 15.515C33.285 15.295 33.3433 15.1033 33.46 14.94C33.5767 14.7767 33.74 14.65 33.95 14.56C34.16 14.47 34.405 14.425 34.685 14.425C34.935 14.425 35.1667 14.4617 35.38 14.535C35.5933 14.605 35.7717 14.7067 35.915 14.84L35.715 15.32C35.5717 15.2 35.415 15.1117 35.245 15.055C35.075 14.995 34.885 14.965 34.675 14.965C34.4383 14.965 34.2533 15.0117 34.12 15.105C33.99 15.195 33.925 15.32 33.925 15.48C33.925 15.6033 33.965 15.7017 34.045 15.775C34.1283 15.8483 34.2683 15.905 34.465 15.945L35.025 16.055C35.3583 16.1217 35.605 16.2317 35.765 16.385C35.925 16.535 36.005 16.7383 36.005 16.995C36.005 17.205 35.9483 17.39 35.835 17.55C35.7217 17.7067 35.5617 17.83 35.355 17.92C35.1483 18.0067 34.9033 18.05 34.62 18.05ZM37.7827 18.05C37.3593 18.05 37.0277 17.9333 36.7877 17.7C36.5477 17.4667 36.4277 17.1467 36.4277 16.74C36.4277 16.4767 36.4793 16.2467 36.5827 16.05C36.686 15.8533 36.8293 15.7 37.0127 15.59C37.1993 15.48 37.416 15.425 37.6627 15.425C37.906 15.425 38.1093 15.4767 38.2727 15.58C38.436 15.6833 38.5593 15.8283 38.6427 16.015C38.7293 16.2017 38.7727 16.42 38.7727 16.67V16.835H36.9327V16.505H38.3277L38.2427 16.575C38.2427 16.3417 38.1927 16.1633 38.0927 16.04C37.996 15.9167 37.8543 15.855 37.6677 15.855C37.461 15.855 37.301 15.9283 37.1877 16.075C37.0777 16.2217 37.0227 16.4267 37.0227 16.69V16.755C37.0227 17.0283 37.0893 17.2333 37.2227 17.37C37.3593 17.5033 37.551 17.57 37.7977 17.57C37.941 17.57 38.0743 17.5517 38.1977 17.515C38.3243 17.475 38.4443 17.4117 38.5577 17.325L38.7427 17.745C38.6227 17.8417 38.4793 17.9167 38.3127 17.97C38.146 18.0233 37.9693 18.05 37.7827 18.05ZM40.2769 18.05C40.0569 18.05 39.8636 17.9983 39.6969 17.895C39.5302 17.7883 39.4002 17.6367 39.3069 17.44C39.2136 17.2433 39.1669 17.0083 39.1669 16.735C39.1669 16.4617 39.2136 16.2283 39.3069 16.035C39.4002 15.8383 39.5302 15.6883 39.6969 15.585C39.8636 15.4783 40.0569 15.425 40.2769 15.425C40.4902 15.425 40.6769 15.4783 40.8369 15.585C41.0002 15.6883 41.1086 15.8283 41.1619 16.005H41.1069L41.1619 15.475H41.7619C41.7519 15.5783 41.7419 15.6833 41.7319 15.79C41.7252 15.8967 41.7219 16.0017 41.7219 16.105V18H41.1019L41.0969 17.48H41.1569C41.1036 17.6533 40.9952 17.7917 40.8319 17.895C40.6686 17.9983 40.4836 18.05 40.2769 18.05ZM40.4519 17.57C40.6486 17.57 40.8069 17.5017 40.9269 17.365C41.0469 17.225 41.1069 17.015 41.1069 16.735C41.1069 16.455 41.0469 16.2467 40.9269 16.11C40.8069 15.9733 40.6486 15.905 40.4519 15.905C40.2552 15.905 40.0969 15.9733 39.9769 16.11C39.8569 16.2467 39.7969 16.455 39.7969 16.735C39.7969 17.015 39.8552 17.225 39.9719 17.365C40.0919 17.5017 40.2519 17.57 40.4519 17.57ZM42.3975 18V16.12C42.3975 16.0133 42.3942 15.905 42.3875 15.795C42.3842 15.685 42.3758 15.5783 42.3625 15.475H42.9675L43.0375 16.165H42.9375C42.9708 15.9983 43.0258 15.86 43.1025 15.75C43.1825 15.64 43.2792 15.5583 43.3925 15.505C43.5058 15.4517 43.6292 15.425 43.7625 15.425C43.8225 15.425 43.8708 15.4283 43.9075 15.435C43.9442 15.4383 43.9808 15.4467 44.0175 15.46L44.0125 16.01C43.9492 15.9833 43.8942 15.9667 43.8475 15.96C43.8042 15.9533 43.7492 15.95 43.6825 15.95C43.5392 15.95 43.4175 15.98 43.3175 16.04C43.2208 16.1 43.1475 16.1833 43.0975 16.29C43.0508 16.3967 43.0275 16.5183 43.0275 16.655V18H42.3975ZM45.4863 18.05C45.2263 18.05 44.998 17.9967 44.8013 17.89C44.608 17.7833 44.458 17.6317 44.3513 17.435C44.2447 17.235 44.1913 16.9983 44.1913 16.725C44.1913 16.4517 44.2447 16.2183 44.3513 16.025C44.4613 15.8317 44.613 15.6833 44.8063 15.58C44.9997 15.4767 45.2263 15.425 45.4863 15.425C45.653 15.425 45.8147 15.4517 45.9713 15.505C46.1313 15.555 46.2613 15.6283 46.3613 15.725L46.1713 16.16C46.0813 16.0767 45.9797 16.015 45.8663 15.975C45.7563 15.9317 45.648 15.91 45.5413 15.91C45.318 15.91 45.143 15.98 45.0163 16.12C44.893 16.26 44.8313 16.4633 44.8313 16.73C44.8313 16.9967 44.893 17.2017 45.0163 17.345C45.143 17.4883 45.318 17.56 45.5413 17.56C45.6447 17.56 45.7513 17.54 45.8613 17.5C45.9747 17.46 46.078 17.3983 46.1713 17.315L46.3613 17.745C46.258 17.8417 46.1263 17.9167 45.9663 17.97C45.8097 18.0233 45.6497 18.05 45.4863 18.05ZM46.8459 18V14.32H47.4709V15.98H47.4009C47.4775 15.8 47.5959 15.6633 47.7559 15.57C47.9159 15.4733 48.0992 15.425 48.3059 15.425C48.6059 15.425 48.8292 15.51 48.9759 15.68C49.1225 15.8467 49.1959 16.1017 49.1959 16.445V18H48.5709V16.475C48.5709 16.2783 48.5325 16.1367 48.4559 16.05C48.3825 15.96 48.2642 15.915 48.1009 15.915C47.9109 15.915 47.7575 15.975 47.6409 16.095C47.5275 16.2117 47.4709 16.3683 47.4709 16.565V18H46.8459Z" fill="#373737"/>
<rect x="12" y="34" width="79" height="37" rx="4" fill="#F5F5F5"/>
<circle cx="23" cy="45" r="6" fill="#D9D9D9"/>
<rect x="34" y="42" width="51" height="6" rx="3" fill="#D9D9D9"/>
<line x1="20" y1="54.5" x2="85" y2="54.5" stroke="#D9D9D9"/>
<line x1="20" y1="59.5" x2="85" y2="59.5" stroke="#D9D9D9"/>
<line x1="20" y1="65.5" x2="85" y2="65.5" stroke="#D9D9D9"/>
<path d="M131 62C131 60.8954 131.895 60 133 60H142C143.105 60 144 60.8954 144 62V79H131V62Z" fill="#EA550F"/>
<path d="M146 53C146 51.8954 146.895 51 148 51H157C158.105 51 159 51.8954 159 53V79H146V53Z" fill="#EA550F"/>
<path d="M162 41C162 39.8954 162.895 39 164 39H173C174.105 39 175 39.8954 175 41V79H162V41Z" fill="#EA550F"/>
<path d="M120.474 41V36.77H121.152L122.706 40.268H122.52L124.074 36.77H124.746V41H124.044V37.862H124.26L122.838 41H122.376L120.954 37.862H121.176V41H120.474ZM126.997 41.06C126.685 41.06 126.415 40.996 126.187 40.868C125.959 40.74 125.781 40.558 125.653 40.322C125.529 40.086 125.467 39.806 125.467 39.482C125.467 39.158 125.529 38.88 125.653 38.648C125.781 38.412 125.959 38.23 126.187 38.102C126.415 37.974 126.685 37.91 126.997 37.91C127.309 37.91 127.579 37.974 127.807 38.102C128.039 38.23 128.217 38.412 128.341 38.648C128.469 38.88 128.533 39.158 128.533 39.482C128.533 39.806 128.469 40.086 128.341 40.322C128.217 40.558 128.039 40.74 127.807 40.868C127.579 40.996 127.309 41.06 126.997 41.06ZM126.997 40.484C127.233 40.484 127.421 40.402 127.561 40.238C127.701 40.07 127.771 39.818 127.771 39.482C127.771 39.146 127.701 38.896 127.561 38.732C127.421 38.568 127.233 38.486 126.997 38.486C126.761 38.486 126.573 38.568 126.433 38.732C126.293 38.896 126.223 39.146 126.223 39.482C126.223 39.818 126.293 40.07 126.433 40.238C126.573 40.402 126.761 40.484 126.997 40.484ZM129.173 41V38.744C129.173 38.616 129.169 38.486 129.161 38.354C129.157 38.222 129.147 38.094 129.131 37.97H129.857L129.941 38.798H129.821C129.861 38.598 129.927 38.432 130.019 38.3C130.115 38.168 130.231 38.07 130.367 38.006C130.503 37.942 130.651 37.91 130.811 37.91C130.883 37.91 130.941 37.914 130.985 37.922C131.029 37.926 131.073 37.936 131.117 37.952L131.111 38.612C131.035 38.58 130.969 38.56 130.913 38.552C130.861 38.544 130.795 38.54 130.715 38.54C130.543 38.54 130.397 38.576 130.277 38.648C130.161 38.72 130.073 38.82 130.013 38.948C129.957 39.076 129.929 39.222 129.929 39.386V41H129.173ZM132.952 41.06C132.444 41.06 132.046 40.92 131.758 40.64C131.47 40.36 131.326 39.976 131.326 39.488C131.326 39.172 131.388 38.896 131.512 38.66C131.636 38.424 131.808 38.24 132.028 38.108C132.252 37.976 132.512 37.91 132.808 37.91C133.1 37.91 133.344 37.972 133.54 38.096C133.736 38.22 133.884 38.394 133.984 38.618C134.088 38.842 134.14 39.104 134.14 39.404V39.602H131.932V39.206H133.606L133.504 39.29C133.504 39.01 133.444 38.796 133.324 38.648C133.208 38.5 133.038 38.426 132.814 38.426C132.566 38.426 132.374 38.514 132.238 38.69C132.106 38.866 132.04 39.112 132.04 39.428V39.506C132.04 39.834 132.12 40.08 132.28 40.244C132.444 40.404 132.674 40.484 132.97 40.484C133.142 40.484 133.302 40.462 133.45 40.418C133.602 40.37 133.746 40.294 133.882 40.19L134.104 40.694C133.96 40.81 133.788 40.9 133.588 40.964C133.388 41.028 133.176 41.06 132.952 41.06ZM137.478 41V37.406H136.08V36.77H139.65V37.406H138.252V41H137.478ZM139.662 41V38.744C139.662 38.616 139.658 38.486 139.65 38.354C139.646 38.222 139.636 38.094 139.62 37.97H140.346L140.43 38.798H140.31C140.35 38.598 140.416 38.432 140.508 38.3C140.604 38.168 140.72 38.07 140.856 38.006C140.992 37.942 141.14 37.91 141.3 37.91C141.372 37.91 141.43 37.914 141.474 37.922C141.518 37.926 141.562 37.936 141.606 37.952L141.6 38.612C141.524 38.58 141.458 38.56 141.402 38.552C141.35 38.544 141.284 38.54 141.204 38.54C141.032 38.54 140.886 38.576 140.766 38.648C140.65 38.72 140.562 38.82 140.502 38.948C140.446 39.076 140.418 39.222 140.418 39.386V41H139.662ZM143.164 41.06C142.9 41.06 142.668 40.998 142.468 40.874C142.268 40.746 142.112 40.564 142 40.328C141.888 40.092 141.832 39.81 141.832 39.482C141.832 39.154 141.888 38.874 142 38.642C142.112 38.406 142.268 38.226 142.468 38.102C142.668 37.974 142.9 37.91 143.164 37.91C143.42 37.91 143.644 37.974 143.836 38.102C144.032 38.226 144.162 38.394 144.226 38.606H144.16L144.226 37.97H144.946C144.934 38.094 144.922 38.22 144.91 38.348C144.902 38.476 144.898 38.602 144.898 38.726V41H144.154L144.148 40.376H144.22C144.156 40.584 144.026 40.75 143.83 40.874C143.634 40.998 143.412 41.06 143.164 41.06ZM143.374 40.484C143.61 40.484 143.8 40.402 143.944 40.238C144.088 40.07 144.16 39.818 144.16 39.482C144.16 39.146 144.088 38.896 143.944 38.732C143.8 38.568 143.61 38.486 143.374 38.486C143.138 38.486 142.948 38.568 142.804 38.732C142.66 38.896 142.588 39.146 142.588 39.482C142.588 39.818 142.658 40.07 142.798 40.238C142.942 40.402 143.134 40.484 143.374 40.484ZM145.919 41V38.534H145.337V37.97H146.129L145.919 38.162V37.7C145.919 37.324 146.015 37.04 146.207 36.848C146.403 36.656 146.689 36.56 147.065 36.56C147.153 36.56 147.245 36.566 147.341 36.578C147.441 36.59 147.527 36.612 147.599 36.644V37.232C147.547 37.212 147.485 37.196 147.413 37.184C147.341 37.172 147.271 37.166 147.203 37.166C147.099 37.166 147.005 37.186 146.921 37.226C146.841 37.266 146.777 37.328 146.729 37.412C146.685 37.492 146.663 37.6 146.663 37.736V38.102L146.555 37.97H147.461V38.534H146.669V41H145.919ZM147.993 41V38.534H147.411V37.97H148.203L147.993 38.162V37.7C147.993 37.324 148.087 37.04 148.275 36.848C148.467 36.656 148.745 36.56 149.109 36.56C149.197 36.56 149.289 36.566 149.385 36.578C149.485 36.59 149.571 36.612 149.643 36.644V37.232C149.591 37.212 149.529 37.196 149.457 37.184C149.385 37.172 149.315 37.166 149.247 37.166C149.091 37.166 148.967 37.212 148.875 37.304C148.783 37.392 148.737 37.536 148.737 37.736V38.102L148.629 37.97H150.735V41H149.985V38.534H148.743V41H147.993ZM149.943 37.4V36.668H150.777V37.4H149.943ZM152.943 41.06C152.631 41.06 152.357 40.996 152.121 40.868C151.889 40.74 151.709 40.558 151.581 40.322C151.453 40.082 151.389 39.798 151.389 39.47C151.389 39.142 151.453 38.862 151.581 38.63C151.713 38.398 151.895 38.22 152.127 38.096C152.359 37.972 152.631 37.91 152.943 37.91C153.143 37.91 153.337 37.942 153.525 38.006C153.717 38.066 153.873 38.154 153.993 38.27L153.765 38.792C153.657 38.692 153.535 38.618 153.399 38.57C153.267 38.518 153.137 38.492 153.009 38.492C152.741 38.492 152.531 38.576 152.379 38.744C152.231 38.912 152.157 39.156 152.157 39.476C152.157 39.796 152.231 40.042 152.379 40.214C152.531 40.386 152.741 40.472 153.009 40.472C153.133 40.472 153.261 40.448 153.393 40.4C153.529 40.352 153.653 40.278 153.765 40.178L153.993 40.694C153.869 40.81 153.711 40.9 153.519 40.964C153.331 41.028 153.139 41.06 152.943 41.06Z" fill="black"/>
<defs>
<filter id="filter0_d_315_33" x="49" y="94" width="145" height="111" filterUnits="userSpaceOnUse" color-interpolation-filters="sRGB">
<feFlood flood-opacity="0" result="BackgroundImageFix"/>
<feColorMatrix in="SourceAlpha" type="matrix" values="0 0 0 0 0 0 0 0 0 0 0 0 0 0 0 0 0 0 127 0" result="hardAlpha"/>
<feOffset dx="4" dy="4"/>
<feGaussianBlur stdDeviation="2"/>
<feComposite in2="hardAlpha" operator="out"/>
<feColorMatrix type="matrix" values="0 0 0 0 0 0 0 0 0 0 0 0 0 0 0 0 0 0 0.25 0"/>
<feBlend mode="normal" in2="BackgroundImageFix" result="effect1_dropShadow_315_33"/>
<feBlend mode="normal" in="SourceGraphic" in2="effect1_dropShadow_315_33" result="shape"/>
</filter>
<filter id="filter1_d_315_33" x="114" y="28" width="77" height="59" filterUnits="userSpaceOnUse" color-interpolation-filters="sRGB">
<feFlood flood-opacity="0" result="BackgroundImageFix"/>
<feColorMatrix in="SourceAlpha" type="matrix" values="0 0 0 0 0 0 0 0 0 0 0 0 0 0 0 0 0 0 127 0" result="hardAlpha"/>
<feOffset dx="4" dy="4"/>
<feGaussianBlur stdDeviation="2"/>
<feComposite in2="hardAlpha" operator="out"/>
<feColorMatrix type="matrix" values="0 0 0 0 0 0 0 0 0 0 0 0 0 0 0 0 0 0 0.25 0"/>
<feBlend mode="normal" in2="BackgroundImageFix" result="effect1_dropShadow_315_33"/>
<feBlend mode="normal" in="SourceGraphic" in2="effect1_dropShadow_315_33" result="shape"/>
</filter>
<filter id="filter2_d_315_33" x="0" y="0" width="110" height="87" filterUnits="userSpaceOnUse" color-interpolation-filters="sRGB">
<feFlood flood-opacity="0" result="BackgroundImageFix"/>
<feColorMatrix in="SourceAlpha" type="matrix" values="0 0 0 0 0 0 0 0 0 0 0 0 0 0 0 0 0 0 127 0" result="hardAlpha"/>
<feOffset dx="4" dy="4"/>
<feGaussianBlur stdDeviation="2"/>
<feComposite in2="hardAlpha" operator="out"/>
<feColorMatrix type="matrix" values="0 0 0 0 0 0 0 0 0 0 0 0 0 0 0 0 0 0 0.25 0"/>
<feBlend mode="normal" in2="BackgroundImageFix" result="effect1_dropShadow_315_33"/>
<feBlend mode="normal" in="SourceGraphic" in2="effect1_dropShadow_315_33" result="shape"/>
</filter>
<filter id="filter3_d_315_33" x="12" y="8" width="87" height="25" filterUnits="userSpaceOnUse" color-interpolation-filters="sRGB">
<feFlood flood-opacity="0" result="BackgroundImageFix"/>
<feColorMatrix in="SourceAlpha" type="matrix" values="0 0 0 0 0 0 0 0 0 0 0 0 0 0 0 0 0 0 127 0" result="hardAlpha"/>
<feOffset dx="4" dy="4"/>
<feGaussianBlur stdDeviation="2"/>
<feComposite in2="hardAlpha" operator="out"/>
<feColorMatrix type="matrix" values="0 0 0 0 0 0 0 0 0 0 0 0 0 0 0 0 0 0 0.25 0"/>
<feBlend mode="normal" in2="BackgroundImageFix" result="effect1_dropShadow_315_33"/>
<feBlend mode="normal" in="SourceGraphic" in2="effect1_dropShadow_315_33" result="shape"/>
</filter>
<pattern id="pattern0_315_33" patternContentUnits="objectBoundingBox" width="1" height="1">
<use xlink:href="#image0_315_33" transform="scale(0.0005)"/>
</pattern>
<image id="image0_315_33" width="2000" height="2000" xlink:href="./public/images/google-logo.png"/>
</defs>
</svg>
