<svg width="203" height="212" viewBox="0 0 203 212" fill="none" xmlns="http://www.w3.org/2000/svg" xmlns:xlink="http://www.w3.org/1999/xlink">
<g filter="url(#filter0_d_318_35)">
<path d="M66.4999 86.5C56.4999 95.3 59.3333 116.667 63.4999 124.5L88.4999 169C93.1666 174.833 105.1 185.2 115.5 180C128.5 173.5 124.941 162.846 135.5 160.5C149 157.5 164.5 191 178.5 180C192.5 169 178.733 150.859 186 144.5C194 137.5 198.5 146.601 198.5 133V34C198.5 29.5 196.5 17.5 186 9C175.5 0.5 171.167 1.5 167.5 0.5H124C116.833 1.5 106.5 10.3 106.5 15.5C106.5 22 75.3888 18 74.4999 34C73.2499 56.5 92.4999 59.5 88.4999 68C84.4999 76.5 78.9999 75.5 66.4999 86.5Z" fill="#FF7332"/>
</g>
<g filter="url(#filter1_d_318_35)">
<path d="M34.3491 171.848C32.6871 171.989 31.5923 170.154 32.5064 168.759L60.4998 126.034C61.3095 124.799 63.1334 124.837 63.8903 126.106L86.7912 164.494C87.5481 165.763 86.7154 167.386 85.2434 167.512L34.3491 171.848Z" fill="white"/>
<rect x="12.8185" y="165.003" width="34" height="31" rx="2" transform="rotate(-29.681 12.8185 165.003)" fill="#262626"/>
<path d="M4.99034 177.521C4.44339 176.562 4.77795 175.34 5.73759 174.793L15.2943 169.346L26.1881 188.46L16.6313 193.907C15.6717 194.454 14.4504 194.119 13.9034 193.16L4.99034 177.521Z" fill="white"/>
<path d="M37.7255 186.488L46.4135 181.537L55.8217 198.044C56.3687 199.003 56.0341 200.225 55.0745 200.772L49.8617 203.743C48.9021 204.29 47.6807 203.955 47.1338 202.995L37.7255 186.488Z" fill="white"/>
<rect x="72.1432" y="140.383" width="6" height="13" transform="rotate(-30.1209 72.1432 140.383)" fill="#D9D9D9"/>
</g>
<rect x="82.7827" y="97.7598" width="6" height="24" transform="rotate(22.3232 82.7827 97.7598)" fill="#EA550F"/>
<rect x="106.142" y="120.688" width="6" height="24" transform="rotate(55.2015 106.142 120.688)" fill="#EA550F"/>
<rect x="120.244" y="144.845" width="6" height="24" transform="rotate(79.4081 120.244 144.845)" fill="#EA550F"/>
<rect x="52" y="52" width="12" height="28" rx="3" fill="#F8F8F8"/>
<rect x="69" y="39" width="12" height="41" rx="3" fill="#F8F8F8"/>
<rect x="86" y="33" width="12" height="47" rx="3" fill="#A6C626"/>
<path d="M49.5296 43.1176C49.0422 43.3774 48.8578 43.9831 49.1176 44.4704C49.3774 44.9578 49.9831 45.1422 50.4704 44.8824L49.5296 43.1176ZM98.7722 18L87.2319 17.6094L92.6638 27.799L98.7722 18ZM50.4704 44.8824L91.3007 23.1162L90.3598 21.3513L49.5296 43.1176L50.4704 44.8824Z" fill="white"/>
<g filter="url(#filter2_d_318_35)">
<rect x="153.537" y="121.504" width="18" height="18" transform="rotate(19.5814 153.537 121.504)" fill="url(#pattern0_318_35)" shape-rendering="crispEdges"/>
</g>
<g filter="url(#filter3_d_318_35)">
<rect x="121.435" y="24.2375" width="24" height="24" transform="rotate(-21.517 121.435 24.2375)" fill="url(#pattern1_318_35)" shape-rendering="crispEdges"/>
</g>
<g filter="url(#filter4_d_318_35)">
<rect x="105" y="80.1108" width="26" height="26" transform="rotate(-0.244224 105 80.1108)" fill="url(#pattern2_318_35)" shape-rendering="crispEdges"/>
</g>
<g filter="url(#filter5_d_318_35)">
<rect x="172.945" y="55" width="20" height="20" transform="rotate(17.2937 172.945 55)" fill="url(#pattern3_318_35)" shape-rendering="crispEdges"/>
</g>
<g filter="url(#filter6_d_318_35)">
<rect x="125" y="55.7888" width="18" height="18" transform="rotate(-25.6402 125 55.7888)" fill="url(#pattern4_318_35)" shape-rendering="crispEdges"/>
</g>
<g filter="url(#filter7_d_318_35)">
<rect x="145" y="91" width="32" height="20" fill="url(#pattern5_318_35)" shape-rendering="crispEdges"/>
</g>
<g filter="url(#filter8_d_318_35)">
<rect x="129" y="157" width="49" height="29" rx="3" fill="#A6C626"/>
<path d="M166.248 196.168C165.883 196.914 164.821 196.916 164.453 196.172L159.397 185.95C159.069 185.286 159.551 184.508 160.291 184.506L170.357 184.483C171.097 184.482 171.582 185.257 171.257 185.923L166.248 196.168Z" fill="#A6C626"/>
<circle cx="139" cy="171" r="4" fill="white"/>
<circle cx="153" cy="171" r="4" fill="white"/>
<circle cx="167" cy="171" r="4" fill="white"/>
</g>
<defs>
<filter id="filter0_d_318_35" x="55.6873" y="0.5" width="146.813" height="189.726" filterUnits="userSpaceOnUse" color-interpolation-filters="sRGB">
<feFlood flood-opacity="0" result="BackgroundImageFix"/>
<feColorMatrix in="SourceAlpha" type="matrix" values="0 0 0 0 0 0 0 0 0 0 0 0 0 0 0 0 0 0 127 0" result="hardAlpha"/>
<feOffset dy="4"/>
<feGaussianBlur stdDeviation="2"/>
<feComposite in2="hardAlpha" operator="out"/>
<feColorMatrix type="matrix" values="0 0 0 0 0 0 0 0 0 0 0 0 0 0 0 0 0 0 0.25 0"/>
<feBlend mode="normal" in2="BackgroundImageFix" result="effect1_dropShadow_318_35"/>
<feBlend mode="normal" in="SourceGraphic" in2="effect1_dropShadow_318_35" result="shape"/>
</filter>
<filter id="filter1_d_318_35" x="0.7276" y="125.13" width="90.3483" height="86.875" filterUnits="userSpaceOnUse" color-interpolation-filters="sRGB">
<feFlood flood-opacity="0" result="BackgroundImageFix"/>
<feColorMatrix in="SourceAlpha" type="matrix" values="0 0 0 0 0 0 0 0 0 0 0 0 0 0 0 0 0 0 127 0" result="hardAlpha"/>
<feOffset dy="4"/>
<feGaussianBlur stdDeviation="2"/>
<feComposite in2="hardAlpha" operator="out"/>
<feColorMatrix type="matrix" values="0 0 0 0 0 0 0 0 0 0 0 0 0 0 0 0 0 0 0.25 0"/>
<feBlend mode="normal" in2="BackgroundImageFix" result="effect1_dropShadow_318_35"/>
<feBlend mode="normal" in="SourceGraphic" in2="effect1_dropShadow_318_35" result="shape"/>
</filter>
<filter id="filter2_d_318_35" x="143.504" y="121.504" width="30.9916" height="30.9917" filterUnits="userSpaceOnUse" color-interpolation-filters="sRGB">
<feFlood flood-opacity="0" result="BackgroundImageFix"/>
<feColorMatrix in="SourceAlpha" type="matrix" values="0 0 0 0 0 0 0 0 0 0 0 0 0 0 0 0 0 0 127 0" result="hardAlpha"/>
<feOffset dy="4"/>
<feGaussianBlur stdDeviation="2"/>
<feComposite in2="hardAlpha" operator="out"/>
<feColorMatrix type="matrix" values="0 0 0 0 0 0 0 0 0 0 0 0 0 0 0 0 0 0 0.25 0"/>
<feBlend mode="normal" in2="BackgroundImageFix" result="effect1_dropShadow_318_35"/>
<feBlend mode="normal" in="SourceGraphic" in2="effect1_dropShadow_318_35" result="shape"/>
</filter>
<pattern id="pattern0_318_35" patternContentUnits="objectBoundingBox" width="1" height="1">
<use xlink:href="#image0_318_35" transform="scale(0.00195312)"/>
</pattern>
<filter id="filter3_d_318_35" x="117.435" y="15.4348" width="39.1301" height="39.1301" filterUnits="userSpaceOnUse" color-interpolation-filters="sRGB">
<feFlood flood-opacity="0" result="BackgroundImageFix"/>
<feColorMatrix in="SourceAlpha" type="matrix" values="0 0 0 0 0 0 0 0 0 0 0 0 0 0 0 0 0 0 127 0" result="hardAlpha"/>
<feOffset dy="4"/>
<feGaussianBlur stdDeviation="2"/>
<feComposite in2="hardAlpha" operator="out"/>
<feColorMatrix type="matrix" values="0 0 0 0 0 0 0 0 0 0 0 0 0 0 0 0 0 0 0.25 0"/>
<feBlend mode="normal" in2="BackgroundImageFix" result="effect1_dropShadow_318_35"/>
<feBlend mode="normal" in="SourceGraphic" in2="effect1_dropShadow_318_35" result="shape"/>
</filter>
<pattern id="pattern1_318_35" patternContentUnits="objectBoundingBox" width="1" height="1">
<use xlink:href="#image1_318_35" transform="scale(0.00195312)"/>
</pattern>
<filter id="filter4_d_318_35" x="101" y="80" width="34.1106" height="34.1106" filterUnits="userSpaceOnUse" color-interpolation-filters="sRGB">
<feFlood flood-opacity="0" result="BackgroundImageFix"/>
<feColorMatrix in="SourceAlpha" type="matrix" values="0 0 0 0 0 0 0 0 0 0 0 0 0 0 0 0 0 0 127 0" result="hardAlpha"/>
<feOffset dy="4"/>
<feGaussianBlur stdDeviation="2"/>
<feComposite in2="hardAlpha" operator="out"/>
<feColorMatrix type="matrix" values="0 0 0 0 0 0 0 0 0 0 0 0 0 0 0 0 0 0 0.25 0"/>
<feBlend mode="normal" in2="BackgroundImageFix" result="effect1_dropShadow_318_35"/>
<feBlend mode="normal" in="SourceGraphic" in2="effect1_dropShadow_318_35" result="shape"/>
</filter>
<pattern id="pattern2_318_35" patternContentUnits="objectBoundingBox" width="1" height="1">
<use xlink:href="#image2_318_35" transform="scale(0.00195312)"/>
</pattern>
<filter id="filter5_d_318_35" x="163" y="55" width="33.0413" height="33.0413" filterUnits="userSpaceOnUse" color-interpolation-filters="sRGB">
<feFlood flood-opacity="0" result="BackgroundImageFix"/>
<feColorMatrix in="SourceAlpha" type="matrix" values="0 0 0 0 0 0 0 0 0 0 0 0 0 0 0 0 0 0 127 0" result="hardAlpha"/>
<feOffset dy="4"/>
<feGaussianBlur stdDeviation="2"/>
<feComposite in2="hardAlpha" operator="out"/>
<feColorMatrix type="matrix" values="0 0 0 0 0 0 0 0 0 0 0 0 0 0 0 0 0 0 0.25 0"/>
<feBlend mode="normal" in2="BackgroundImageFix" result="effect1_dropShadow_318_35"/>
<feBlend mode="normal" in="SourceGraphic" in2="effect1_dropShadow_318_35" result="shape"/>
</filter>
<pattern id="pattern3_318_35" patternContentUnits="objectBoundingBox" width="1" height="1">
<use xlink:href="#image3_318_35" transform="translate(-0.166808) scale(0.00084674)"/>
</pattern>
<filter id="filter6_d_318_35" x="121" y="48" width="32.0165" height="32.0164" filterUnits="userSpaceOnUse" color-interpolation-filters="sRGB">
<feFlood flood-opacity="0" result="BackgroundImageFix"/>
<feColorMatrix in="SourceAlpha" type="matrix" values="0 0 0 0 0 0 0 0 0 0 0 0 0 0 0 0 0 0 127 0" result="hardAlpha"/>
<feOffset dy="4"/>
<feGaussianBlur stdDeviation="2"/>
<feComposite in2="hardAlpha" operator="out"/>
<feColorMatrix type="matrix" values="0 0 0 0 0 0 0 0 0 0 0 0 0 0 0 0 0 0 0.25 0"/>
<feBlend mode="normal" in2="BackgroundImageFix" result="effect1_dropShadow_318_35"/>
<feBlend mode="normal" in="SourceGraphic" in2="effect1_dropShadow_318_35" result="shape"/>
</filter>
<pattern id="pattern4_318_35" patternContentUnits="objectBoundingBox" width="1" height="1">
<use xlink:href="#image4_318_35" transform="translate(-0.00130095) scale(0.000433651)"/>
</pattern>
<filter id="filter7_d_318_35" x="141" y="91" width="40" height="28" filterUnits="userSpaceOnUse" color-interpolation-filters="sRGB">
<feFlood flood-opacity="0" result="BackgroundImageFix"/>
<feColorMatrix in="SourceAlpha" type="matrix" values="0 0 0 0 0 0 0 0 0 0 0 0 0 0 0 0 0 0 127 0" result="hardAlpha"/>
<feOffset dy="4"/>
<feGaussianBlur stdDeviation="2"/>
<feComposite in2="hardAlpha" operator="out"/>
<feColorMatrix type="matrix" values="0 0 0 0 0 0 0 0 0 0 0 0 0 0 0 0 0 0 0.25 0"/>
<feBlend mode="normal" in2="BackgroundImageFix" result="effect1_dropShadow_318_35"/>
<feBlend mode="normal" in="SourceGraphic" in2="effect1_dropShadow_318_35" result="shape"/>
</filter>
<pattern id="pattern5_318_35" patternContentUnits="objectBoundingBox" width="1" height="1">
<use xlink:href="#image5_318_35" transform="matrix(0.000714286 0 0 0.00114286 0 -0.3)"/>
</pattern>
<filter id="filter8_d_318_35" x="125" y="157" width="57" height="47.7288" filterUnits="userSpaceOnUse" color-interpolation-filters="sRGB">
<feFlood flood-opacity="0" result="BackgroundImageFix"/>
<feColorMatrix in="SourceAlpha" type="matrix" values="0 0 0 0 0 0 0 0 0 0 0 0 0 0 0 0 0 0 127 0" result="hardAlpha"/>
<feOffset dy="4"/>
<feGaussianBlur stdDeviation="2"/>
<feComposite in2="hardAlpha" operator="out"/>
<feColorMatrix type="matrix" values="0 0 0 0 0 0 0 0 0 0 0 0 0 0 0 0 0 0 0.25 0"/>
<feBlend mode="normal" in2="BackgroundImageFix" result="effect1_dropShadow_318_35"/>
<feBlend mode="normal" in="SourceGraphic" in2="effect1_dropShadow_318_35" result="shape"/>
</filter>
<image id="image0_318_35" width="512" height="512" xlink:href=""/>
<image id="image1_318_35" width="512" height="512" xlink:href=""/>
<image id="image2_318_35" width="512" height="512" xlink:href=""/>
<image id="image3_318_35" width="1575" height="1181" xlink:href=""/>
<image id="image4_318_35" width="2312" height="2306" xlink:href=""/>
<image id="image5_318_35" width="1400" height="1400" xlink:href=""/>
</defs>
</svg>
