<?xml version="1.0" encoding="UTF-8"?>
<svg xmlns="http://www.w3.org/2000/svg" version="1.1" xmlns:xlink="http://www.w3.org/1999/xlink" viewBox="0 0 278 248">
  <defs>
    <style>
      .cls-1 {
        stroke: #d9d9d9;
      }

      .cls-1, .cls-2, .cls-3 {
        stroke-width: 4px;
      }

      .cls-1, .cls-2, .cls-3, .cls-4 {
        fill: none;
        stroke-linecap: round;
      }

      .cls-5 {
        fill: #4d4d4d;
      }

      .cls-6 {
        fill: #fff;
      }

      .cls-7 {
        fill: #ea550f;
      }

      .cls-2 {
        stroke: #65dd28;
      }

      .cls-3 {
        stroke: #3c3b3b;
        stroke-opacity: .9;
      }

      .cls-8 {
        fill: #f5f5f5;
      }

      .cls-4 {
        stroke: #f5f5f5;
        stroke-width: 3px;
      }
    </style>
  </defs>
  <!-- Generator: Adobe Illustrator 28.6.0, SVG Export Plug-In . SVG Version: 1.2.0 Build 709)  -->
  <g>
    <g id="Layer_1">
      <rect width="167" height="163" rx="34" ry="34"/>
      <rect class="cls-6" x="111" y="85" width="167" height="163" rx="34" ry="34"/>
      <path class="cls-1" d="M167,128h84"/>
      <path class="cls-2" d="M167,128h49"/>
      <path class="cls-1" d="M167,168h84"/>
      <path class="cls-2" d="M167,168h67"/>
      <path class="cls-1" d="M167,208h84"/>
      <path class="cls-2" d="M167,208h54"/>
      <path class="cls-5" d="M227.8,121v-1h1.3v-3.6h.6l-1.7,1v-1.2l1.5-.9h.9v4.6h1.2v1h-3.7ZM232.6,121v-1h1.3v-3.6h.6l-1.7,1v-1.2l1.5-.9h.9v4.6h1.2v1h-3.7ZM239,121.1c-.7,0-1.2-.3-1.6-.8-.4-.5-.5-1.2-.5-2.2s.2-1.7.5-2.2c.4-.5.9-.7,1.6-.7s1.2.2,1.6.7c.4.5.5,1.2.5,2.1s-.2,1.7-.5,2.2c-.4.5-.9.8-1.6.8ZM239,120.1c.3,0,.5-.2.7-.5.2-.3.2-.8.2-1.5s0-1.1-.2-1.4c-.2-.3-.4-.4-.7-.4s-.5.1-.7.4c-.2.3-.2.8-.2,1.4s0,1.2.2,1.5c.2.3.4.5.7.5ZM246.3,121h-1l3.3-5.6h1l-3.3,5.6ZM245.4,118.7c-.5,0-.8-.2-1.1-.5-.3-.3-.4-.7-.4-1.3s.1-1,.4-1.3c.3-.3.6-.5,1.1-.5s.8.2,1.1.5c.3.3.4.7.4,1.2s-.1.9-.4,1.3c-.3.3-.6.5-1.1.5ZM245.4,118c.2,0,.3,0,.4-.2,0-.2.1-.4.1-.8s0-.6-.1-.7c0-.1-.2-.2-.4-.2s-.3,0-.4.2c0,.1-.1.4-.1.7s0,.6.1.8c0,.1.2.2.4.2ZM249.6,121.1c-.5,0-.8-.2-1.1-.5-.3-.3-.4-.7-.4-1.3s.1-1,.4-1.3c.3-.3.6-.5,1.1-.5s.8.2,1.1.5c.3.3.4.7.4,1.2s-.1.9-.4,1.3c-.3.3-.6.5-1.1.5ZM249.6,120.3c.2,0,.3,0,.4-.2,0-.2.1-.4.1-.8s0-.6-.1-.7c0-.1-.2-.2-.4-.2s-.3,0-.4.2c0,.1-.1.4-.1.8s0,.6.1.8c0,.1.2.2.4.2Z"/>
      <path class="cls-5" d="M227.8,161v-1h1.3v-3.6h.6l-1.7,1v-1.2l1.5-.9h.9v4.6h1.2v1h-3.7ZM234.1,161.1c-.4,0-.8,0-1.1-.2-.4-.1-.7-.3-.9-.5l.4-.9c.2.2.5.3.8.4.3,0,.5.1.8.1s.6,0,.7-.2c.2-.1.2-.3.2-.5s0-.4-.2-.5c-.2-.1-.4-.2-.7-.2h-.9v-1h.8c.3,0,.5,0,.6-.2.2-.1.2-.3.2-.5s0-.4-.2-.5-.4-.2-.6-.2c-.5,0-1,.2-1.4.5l-.4-.9c.2-.2.5-.4.9-.5.3-.1.7-.2,1.1-.2.6,0,1.1.1,1.4.4.3.3.5.6.5,1.1s0,.6-.3.9c-.2.2-.4.4-.8.5h0c.4,0,.7.1.9.4.2.3.3.6.3.9s-.2.9-.6,1.2c-.4.3-.9.4-1.6.4ZM239,161.1c-.7,0-1.2-.3-1.6-.8-.4-.5-.5-1.2-.5-2.2s.2-1.7.5-2.2c.4-.5.9-.7,1.6-.7s1.2.2,1.6.7c.4.5.5,1.2.5,2.1s-.2,1.7-.5,2.2c-.4.5-.9.8-1.6.8ZM239,160.1c.3,0,.5-.2.7-.5.2-.3.2-.8.2-1.5s0-1.1-.2-1.4c-.2-.3-.4-.4-.7-.4s-.5.1-.7.4c-.2.3-.2.8-.2,1.4s0,1.2.2,1.5c.2.3.4.5.7.5ZM246.3,161h-1l3.3-5.6h1l-3.3,5.6ZM245.4,158.7c-.5,0-.8-.2-1.1-.5-.3-.3-.4-.7-.4-1.3s.1-1,.4-1.3c.3-.3.6-.5,1.1-.5s.8.2,1.1.5c.3.3.4.7.4,1.2s-.1.9-.4,1.3c-.3.3-.6.5-1.1.5ZM245.4,158c.2,0,.3,0,.4-.2,0-.2.1-.4.1-.8s0-.6-.1-.7c0-.1-.2-.2-.4-.2s-.3,0-.4.2c0,.1-.1.4-.1.7s0,.6.1.8c0,.1.2.2.4.2ZM249.6,161.1c-.5,0-.8-.2-1.1-.5-.3-.3-.4-.7-.4-1.3s.1-1,.4-1.3c.3-.3.6-.5,1.1-.5s.8.2,1.1.5c.3.3.4.7.4,1.2s-.1.9-.4,1.3c-.3.3-.6.5-1.1.5ZM249.6,160.3c.2,0,.3,0,.4-.2,0-.2.1-.4.1-.8s0-.6-.1-.7c0-.1-.2-.2-.4-.2s-.3,0-.4.2c0,.1-.1.4-.1.8s0,.6.1.8c0,.1.2.2.4.2Z"/>
      <path class="cls-5" d="M227.8,202v-1h1.3v-3.6h.6l-1.7,1v-1.2l1.5-.9h.9v4.6h1.2v1h-3.7ZM232.6,202v-1h1.3v-3.6h.6l-1.7,1v-1.2l1.5-.9h.9v4.6h1.2v1h-3.7ZM239,202.1c-.3,0-.5,0-.7,0-.2,0-.5-.1-.7-.2-.2,0-.4-.2-.5-.3l.4-.9c.2.2.5.3.8.4.3,0,.5.1.8.1s.5,0,.7-.2c.2-.1.3-.4.3-.6s0-.5-.2-.6c-.2-.2-.4-.2-.7-.2s-.4,0-.6.1c-.2,0-.3.2-.5.3h-.8v-3.5h3.6v1h-2.4v1.5h-.3c.1-.2.3-.3.5-.4.2,0,.5-.1.7-.1s.7,0,.9.2c.3.1.5.4.6.6.1.3.2.6.2.9s0,.7-.3,1c-.2.3-.4.5-.7.7-.3.2-.7.2-1.1.2ZM246.3,202h-1l3.3-5.6h1l-3.3,5.6ZM245.4,199.7c-.5,0-.8-.2-1.1-.5-.3-.3-.4-.7-.4-1.3s.1-1,.4-1.3c.3-.3.6-.5,1.1-.5s.8.2,1.1.5c.3.3.4.7.4,1.2s-.1.9-.4,1.3c-.3.3-.6.5-1.1.5ZM245.4,199c.2,0,.3,0,.4-.2,0-.2.1-.4.1-.8s0-.6-.1-.7c0-.1-.2-.2-.4-.2s-.3,0-.4.2c0,.1-.1.4-.1.7s0,.6.1.8c0,.1.2.2.4.2ZM249.6,202.1c-.5,0-.8-.2-1.1-.5-.3-.3-.4-.7-.4-1.3s.1-1,.4-1.3c.3-.3.6-.5,1.1-.5s.8.2,1.1.5c.3.3.4.7.4,1.2s-.1.9-.4,1.3c-.3.3-.6.5-1.1.5ZM249.6,201.3c.2,0,.3,0,.4-.2,0-.2.1-.4.1-.8s0-.6-.1-.7c0-.1-.2-.2-.4-.2s-.3,0-.4.2c0,.1-.1.4-.1.8s0,.6.1.8c0,.1.2.2.4.2Z"/>
      <path class="cls-4" d="M25,110l28-28"/>
      <path class="cls-4" d="M53,82l16,13"/>
      <path class="cls-4" d="M97,62l17,13"/>
      <path class="cls-4" d="M69,95l28-33"/>
      <path class="cls-8" d="M112.9,74c-.6.6-.5,1.6,0,2.1.6.6,1.6.5,2.1,0l-2.2-2ZM143.5,44.9c0-.8-.7-1.5-1.6-1.4l-13.5.5c-.8,0-1.5.7-1.4,1.6,0,.8.7,1.5,1.6,1.4l12-.4.4,12c0,.8.7,1.5,1.6,1.4.8,0,1.5-.7,1.4-1.6l-.5-13.5ZM115.1,76l28-30-2.2-2-28,30,2.2,2Z"/>
      <path class="cls-7" d="M32,51.3c-1.4,0-2.7-.2-4-.6-1.3-.4-2.3-.9-3.1-1.6l1.4-3.2c.8.6,1.7,1.1,2.7,1.4.9.3,1.9.4,2.9.4s2-.2,2.6-.6c.6-.4.9-1.1.9-1.9s-.3-1.4-.8-1.8c-.5-.4-1.4-.6-2.4-.6h-3.3v-3.4h2.9c.9,0,1.7-.2,2.2-.6.6-.4.8-1.1.8-1.8s-.3-1.3-.8-1.7c-.5-.4-1.3-.6-2.3-.6-1.9,0-3.6.6-5,1.9l-1.4-3.2c.8-.7,1.9-1.3,3.1-1.7,1.2-.4,2.5-.6,3.8-.6,2.1,0,3.8.5,5,1.4,1.2.9,1.8,2.2,1.8,3.9s-.3,2.2-1,3c-.7.8-1.5,1.4-2.7,1.7v-.4c1.3.2,2.4.8,3.1,1.7s1.1,2,1.1,3.3-.7,3.2-2,4.2c-1.3,1-3.1,1.5-5.5,1.5ZM49.2,51.3c-2.4,0-4.2-.9-5.5-2.7-1.3-1.8-1.9-4.3-1.9-7.6s.6-5.8,1.9-7.5c1.3-1.7,3.1-2.6,5.5-2.6s4.2.9,5.5,2.6c1.3,1.7,1.9,4.2,1.9,7.5s-.6,5.8-1.9,7.6c-1.3,1.8-3.1,2.7-5.5,2.7ZM49.2,47.8c1.1,0,1.9-.5,2.4-1.6.5-1.1.8-2.8.8-5.1s-.3-4-.8-5c-.5-1-1.3-1.5-2.4-1.5s-1.9.5-2.4,1.5c-.5,1-.8,2.7-.8,5s.3,4.1.8,5.2c.5,1.1,1.3,1.6,2.4,1.6ZM66,51.3c-2.4,0-4.2-.9-5.5-2.7-1.3-1.8-1.9-4.3-1.9-7.6s.6-5.8,1.9-7.5c1.3-1.7,3.1-2.6,5.5-2.6s4.2.9,5.5,2.6c1.3,1.7,1.9,4.2,1.9,7.5s-.6,5.8-1.9,7.6c-1.3,1.8-3.1,2.7-5.5,2.7ZM66,47.8c1.1,0,1.9-.5,2.4-1.6.5-1.1.8-2.8.8-5.1s-.3-4-.8-5c-.5-1-1.3-1.5-2.4-1.5s-1.9.5-2.4,1.5c-.5,1-.8,2.7-.8,5s.3,4.1.8,5.2c.5,1.1,1.3,1.6,2.4,1.6ZM81.3,49.9v-5.5h-5.4v-2.9h5.4v-5.3h3v5.3h5.3v2.9h-5.3v5.5h-3Z"/>
      <path class="cls-3" d="M25,130h66"/>
      <path class="cls-3" d="M25,140h66"/>
      <image width="1400" height="1400" transform="translate(118 186.9) scale(0)" xlink:href="../../../../../Downloads/Youtube-logo.png"/>
      <image width="1575" height="1181" transform="translate(125 116.9) scale(0)" xlink:href="../../../../../Downloads/instagram-logo.png"/>
      <image width="2312" height="2306" transform="translate(130.3 156.6) scale(0)" xlink:href="../../../../../Downloads/linkedin-logo.png"/>
    </g>
  </g>
</svg>