<svg width="189" height="178" viewBox="0 0 189 178" fill="none" xmlns="http://www.w3.org/2000/svg">
<g filter="url(#filter0_d_311_2)">
<rect x="19" y="25" width="153" height="123" rx="11" fill="white"/>
</g>
<rect x="59" y="53" width="75" height="74" rx="6" fill="#262626"/>
<line x1="75.465" y1="65.7837" x2="118.123" y2="65.7837" stroke="white" stroke-width="1.5" stroke-linecap="round" stroke-dasharray="6 6"/>
<line x1="74.6928" y1="69.1488" x2="75.1715" y2="111.83" stroke="white" stroke-width="1.5" stroke-linecap="round" stroke-dasharray="6 6"/>
<line x1="117.992" y1="115.168" x2="75.3082" y2="115.255" stroke="white" stroke-width="1.5" stroke-linecap="round" stroke-dasharray="6 6"/>
<line x1="118.61" y1="111.847" x2="118.12" y2="69.1658" stroke="white" stroke-width="1.5" stroke-linecap="round" stroke-dasharray="6 6"/>
<rect x="71" y="62" width="8" height="8" rx="1" fill="white"/>
<rect x="114" y="62" width="8" height="8" rx="1" fill="white"/>
<rect x="71" y="88" width="8" height="8" rx="1" fill="white"/>
<rect x="114" y="88" width="8" height="8" rx="1" fill="white"/>
<rect x="114" y="112" width="8" height="7" rx="1" fill="white"/>
<rect x="72" y="112" width="7" height="7" rx="1" fill="white"/>
<rect x="85" y="78" width="23" height="25" rx="2" fill="#FF7332"/>
<path d="M85 81H108V101C108 102.105 107.105 103 106 103H87C85.8954 103 85 102.105 85 101V81Z" fill="#D9D9D9"/>
<circle cx="89.5" cy="79.5" r="0.5" fill="#D9D9D9"/>
<circle cx="87.5" cy="79.5" r="0.5" fill="#D9D9D9"/>
<rect x="87" y="83" width="19" height="2" fill="#C6C6C6"/>
<g filter="url(#filter1_d_311_2)">
<rect x="140.377" y="97.4875" width="15.804" height="15.804" rx="2" fill="#A6C626" fill-opacity="0.8" shape-rendering="crispEdges"/>
</g>
<g filter="url(#filter2_d_311_2)">
<path d="M149.18 105.941C149.079 105.537 149.486 105.193 149.867 105.362L164.984 112.043C165.322 112.193 165.386 112.645 165.104 112.883L154.008 122.232C153.725 122.47 153.291 122.33 153.201 121.971L149.18 105.941Z" fill="black" stroke="white"/>
<rect x="156.197" y="117.005" width="2.71859" height="10.1558" rx="0.5" transform="rotate(-42.5613 156.197 117.005)" fill="black" stroke="white"/>
<rect x="155.154" y="115.222" width="1.85146" height="11.302" rx="0.92573" transform="rotate(-42.5613 155.154 115.222)" fill="black"/>
<rect x="155.939" y="120.111" width="3.24161" height="9.28998" rx="1" transform="rotate(-130.534 155.939 120.111)" fill="black"/>
</g>
<path d="M19 29C19 22.3726 24.3726 17 31 17H160C166.627 17 172 22.3726 172 29V36H19V29Z" fill="#D9D9D9"/>
<circle cx="51" cy="27" r="4" fill="white"/>
<circle cx="40" cy="27" r="4" fill="white"/>
<circle cx="29" cy="27" r="4" fill="white"/>
<g filter="url(#filter3_d_311_2)">
<rect x="4" y="90" width="45" height="80" rx="6" fill="#F5F5F5"/>
</g>
<g filter="url(#filter4_d_311_2)">
<rect x="120" width="65" height="44" rx="6" fill="#3C3B3B"/>
</g>
<line x1="1" y1="44" x2="43" y2="44" stroke="black" stroke-opacity="0.5" stroke-width="2" stroke-linecap="round"/>
<line x1="1" y1="44" x2="26" y2="44" stroke="#65DD28" stroke-width="2" stroke-linecap="round"/>
<line x1="1" y1="54" x2="43" y2="54" stroke="black" stroke-opacity="0.5" stroke-width="2" stroke-linecap="round"/>
<line x1="1" y1="54" x2="36" y2="54" stroke="#65DD28" stroke-width="2" stroke-linecap="round"/>
<line x1="1" y1="63" x2="43" y2="63" stroke="black" stroke-opacity="0.5" stroke-width="2" stroke-linecap="round"/>
<line x1="1" y1="63" x2="14" y2="63" stroke="#65DD28" stroke-width="2" stroke-linecap="round"/>
<path d="M26.6348 43.3452C26.5535 43.4547 26.3888 43.4524 26.3105 43.3407L24.7196 41.0716C24.6259 40.9381 24.723 40.7546 24.8861 40.7568L28.1293 40.8011C28.2924 40.8033 28.3844 40.9894 28.2871 41.1203L26.6348 43.3452Z" fill="#3C3B3B" fill-opacity="0.9"/>
<path d="M36.861 52.6415C36.7796 52.7511 36.615 52.7488 36.5367 52.6371L34.9457 50.368C34.8521 50.2344 34.9491 50.051 35.1122 50.0532L38.3554 50.0975C38.5185 50.0997 38.6105 50.2857 38.5133 50.4167L36.861 52.6415Z" fill="#3C3B3B" fill-opacity="0.9"/>
<path d="M14.5494 61.9382C14.4681 62.0477 14.3034 62.0454 14.2251 61.9337L12.6341 59.6646C12.5405 59.5311 12.6375 59.3476 12.8006 59.3498L16.0439 59.3941C16.207 59.3963 16.2989 59.5824 16.2017 59.7133L14.5494 61.9382Z" fill="black"/>
<rect x="10.8848" y="125.123" width="11.2215" height="10.8844" rx="0.5" stroke="black" stroke-dasharray="2 2"/>
<path d="M15.9428 132.703V128.657H14.3748V127.768H18.6028V128.657H17.0348V132.703H15.9428Z" fill="black"/>
<rect x="10.3848" y="101.935" width="12.2215" height="11.8844" rx="1" fill="#3C3B3B"/>
<path d="M14.829 104.095L14.829 109.497" stroke="white" stroke-linecap="round"/>
<path d="M18.1621 106.256L18.1621 111.658" stroke="white" stroke-linecap="round"/>
<path d="M18.1621 106.256L12.6069 106.256" stroke="white" stroke-linecap="round"/>
<path d="M20.3842 109.498L14.829 109.498" stroke="white" stroke-linecap="round"/>
<path d="M11.8476 152.252L18.2592 157.308L17.0305 158.782C16.323 159.63 15.0464 159.763 14.1791 159.079L10.9083 156.5C10.041 155.816 9.91141 154.573 10.6189 153.725L11.8476 152.252Z" fill="#3C3B3B"/>
<path d="M11.8476 152.252L18.2592 157.308L17.0305 158.782C16.323 159.63 15.0464 159.763 14.1791 159.079L10.9083 156.5C10.041 155.816 9.91141 154.573 10.6189 153.725L11.8476 152.252Z" fill="#3C3B3B"/>
<path d="M11.8476 152.252L18.2592 157.308L17.0305 158.782C16.323 159.63 15.0464 159.763 14.1791 159.079L10.9083 156.5C10.041 155.816 9.91141 154.573 10.6189 153.725L11.8476 152.252Z" fill="#D9D9D9"/>
<path d="M15.7262 147.767C16.4336 146.919 17.7102 146.786 18.5775 147.47L21.8484 150.049C22.7157 150.733 22.8452 151.975 22.1378 152.824L17.7538 158.08L11.3422 153.024L15.7262 147.767Z" fill="#3C3B3B"/>
<path d="M15.7262 147.767C16.4336 146.919 17.7102 146.786 18.5775 147.47L21.8484 150.049C22.7157 150.733 22.8452 151.975 22.1378 152.824L17.7538 158.08L11.3422 153.024L15.7262 147.767Z" fill="#3C3B3B"/>
<path d="M15.7262 147.767C16.4336 146.919 17.7102 146.786 18.5775 147.47L21.8484 150.049C22.7157 150.733 22.8452 151.975 22.1378 152.824L17.7538 158.08L11.3422 153.024L15.7262 147.767Z" fill="#3C3B3B"/>
<path d="M30.8408 113.966L32.4266 108.157L36.5846 111.745L30.8408 113.966Z" fill="#D9D9D9"/>
<path d="M30.8408 113.966L31.3173 112.22L32.5667 113.299L30.8408 113.966Z" fill="black"/>
<path d="M37.6304 102.362C38.0019 101.953 38.6426 101.914 39.0614 102.274L41.7069 104.548C42.1257 104.908 42.1641 105.531 41.7926 105.94L36.5786 111.675L32.4163 108.098L37.6304 102.362Z" fill="#3C3B3B"/>
<rect x="30.3836" y="124.623" width="12.2215" height="11.8844" rx="1" fill="black" fill-opacity="0.7"/>
<rect x="32.6057" y="149.472" width="6.66626" height="9.72362" rx="1" fill="#D9D9D9"/>
<path d="M32.6057 152.713H39.272V158.196C39.272 158.748 38.8243 159.196 38.272 159.196H33.6057C33.0534 159.196 32.6057 158.748 32.6057 158.196V152.713Z" fill="#3C3B3B"/>
<path d="M36.8046 148.676C36.6026 148.635 36.5859 148.353 36.7818 148.29L42.1891 146.547C42.3137 146.507 42.443 146.596 42.4507 146.726L42.6203 149.598C42.6281 149.729 42.51 149.832 42.3815 149.806L36.8046 148.676Z" fill="#D9D9D9"/>
<rect x="34.8278" y="147.312" width="2.22209" height="2.1608" fill="#3C3B3B"/>
<path d="M34.8278 128.945L36.4944 126.138V131.752L34.8278 128.945Z" fill="#D9D9D9"/>
<path d="M38.1609 128.945L36.4943 126.138V131.752L38.1609 128.945Z" fill="#F5F5F5"/>
<path d="M34.8278 132.105C34.8278 131.553 35.2755 131.105 35.8278 131.105H37.1609C37.7132 131.105 38.1609 131.553 38.1609 132.105V136.507H34.8278V132.105Z" fill="#262626"/>
<ellipse cx="36.4944" cy="129.485" rx="0.555522" ry="0.540201" fill="black"/>
<rect x="130" y="7" width="12" height="12" rx="1" fill="#262626"/>
<rect x="130" y="24" width="12" height="12" rx="1" fill="#A6C626"/>
<rect x="146" y="7" width="12" height="12" rx="1" fill="#EA550F"/>
<rect x="146" y="24" width="12" height="12" rx="1" fill="#D9D9D9"/>
<rect x="163" y="7" width="12" height="12" rx="1" fill="#FF9F73"/>
<rect x="163" y="24" width="12" height="12" rx="1" fill="white"/>
<defs>
<filter id="filter0_d_311_2" x="15" y="25" width="161" height="131" filterUnits="userSpaceOnUse" color-interpolation-filters="sRGB">
<feFlood flood-opacity="0" result="BackgroundImageFix"/>
<feColorMatrix in="SourceAlpha" type="matrix" values="0 0 0 0 0 0 0 0 0 0 0 0 0 0 0 0 0 0 127 0" result="hardAlpha"/>
<feOffset dy="4"/>
<feGaussianBlur stdDeviation="2"/>
<feComposite in2="hardAlpha" operator="out"/>
<feColorMatrix type="matrix" values="0 0 0 0 0 0 0 0 0 0 0 0 0 0 0 0 0 0 0.25 0"/>
<feBlend mode="normal" in2="BackgroundImageFix" result="effect1_dropShadow_311_2"/>
<feBlend mode="normal" in="SourceGraphic" in2="effect1_dropShadow_311_2" result="shape"/>
</filter>
<filter id="filter1_d_311_2" x="136.377" y="97.4875" width="23.804" height="23.804" filterUnits="userSpaceOnUse" color-interpolation-filters="sRGB">
<feFlood flood-opacity="0" result="BackgroundImageFix"/>
<feColorMatrix in="SourceAlpha" type="matrix" values="0 0 0 0 0 0 0 0 0 0 0 0 0 0 0 0 0 0 127 0" result="hardAlpha"/>
<feOffset dy="4"/>
<feGaussianBlur stdDeviation="2"/>
<feComposite in2="hardAlpha" operator="out"/>
<feColorMatrix type="matrix" values="0 0 0 0 0 0 0 0 0 0 0 0 0 0 0 0 0 0 0.25 0"/>
<feBlend mode="normal" in2="BackgroundImageFix" result="effect1_dropShadow_311_2"/>
<feBlend mode="normal" in="SourceGraphic" in2="effect1_dropShadow_311_2" result="shape"/>
</filter>
<filter id="filter2_d_311_2" x="148.664" y="104.817" width="25.118" height="27.9624" filterUnits="userSpaceOnUse" color-interpolation-filters="sRGB">
<feFlood flood-opacity="0" result="BackgroundImageFix"/>
<feColorMatrix in="SourceAlpha" type="matrix" values="0 0 0 0 0 0 0 0 0 0 0 0 0 0 0 0 0 0 127 0" result="hardAlpha"/>
<feOffset dx="4" dy="4"/>
<feGaussianBlur stdDeviation="2"/>
<feComposite in2="hardAlpha" operator="out"/>
<feColorMatrix type="matrix" values="0 0 0 0 0 0 0 0 0 0 0 0 0 0 0 0 0 0 0.25 0"/>
<feBlend mode="normal" in2="BackgroundImageFix" result="effect1_dropShadow_311_2"/>
<feBlend mode="normal" in="SourceGraphic" in2="effect1_dropShadow_311_2" result="shape"/>
</filter>
<filter id="filter3_d_311_2" x="0" y="90" width="53" height="88" filterUnits="userSpaceOnUse" color-interpolation-filters="sRGB">
<feFlood flood-opacity="0" result="BackgroundImageFix"/>
<feColorMatrix in="SourceAlpha" type="matrix" values="0 0 0 0 0 0 0 0 0 0 0 0 0 0 0 0 0 0 127 0" result="hardAlpha"/>
<feOffset dy="4"/>
<feGaussianBlur stdDeviation="2"/>
<feComposite in2="hardAlpha" operator="out"/>
<feColorMatrix type="matrix" values="0 0 0 0 0 0 0 0 0 0 0 0 0 0 0 0 0 0 0.25 0"/>
<feBlend mode="normal" in2="BackgroundImageFix" result="effect1_dropShadow_311_2"/>
<feBlend mode="normal" in="SourceGraphic" in2="effect1_dropShadow_311_2" result="shape"/>
</filter>
<filter id="filter4_d_311_2" x="116" y="0" width="73" height="52" filterUnits="userSpaceOnUse" color-interpolation-filters="sRGB">
<feFlood flood-opacity="0" result="BackgroundImageFix"/>
<feColorMatrix in="SourceAlpha" type="matrix" values="0 0 0 0 0 0 0 0 0 0 0 0 0 0 0 0 0 0 127 0" result="hardAlpha"/>
<feOffset dy="4"/>
<feGaussianBlur stdDeviation="2"/>
<feComposite in2="hardAlpha" operator="out"/>
<feColorMatrix type="matrix" values="0 0 0 0 0 0 0 0 0 0 0 0 0 0 0 0 0 0 0.25 0"/>
<feBlend mode="normal" in2="BackgroundImageFix" result="effect1_dropShadow_311_2"/>
<feBlend mode="normal" in="SourceGraphic" in2="effect1_dropShadow_311_2" result="shape"/>
</filter>
</defs>
</svg>
