<svg width="198" height="188" viewBox="0 0 198 188" fill="none" xmlns="http://www.w3.org/2000/svg" xmlns:xlink="http://www.w3.org/1999/xlink">
<g filter="url(#filter0_d_314_32)">
<path d="M37 17C37 12.5817 40.5817 9 45 9H198V160H45C40.5817 160 37 156.418 37 152V17Z" fill="#F8F8F8"/>
</g>
<path d="M37 17C37 12.5817 40.5817 9 45 9H84V160H45C40.5817 160 37 156.418 37 152V17Z" fill="black"/>
<circle cx="58" cy="23" r="7" fill="white"/>
<rect x="47" y="12" width="22" height="22" fill="url(#pattern0_314_32)"/>
<rect x="84" y="9" width="114" height="13" fill="#262626"/>
<path d="M46.44 48V44.475H47.61C48 44.475 48.33 44.5433 48.6 44.68C48.87 44.8133 49.075 45.0117 49.215 45.275C49.355 45.535 49.425 45.855 49.425 46.235C49.425 46.6117 49.355 46.9317 49.215 47.195C49.075 47.4583 48.87 47.6583 48.6 47.795C48.33 47.9317 48 48 47.61 48H46.44ZM46.855 47.645H47.58C48.06 47.645 48.4167 47.5283 48.65 47.295C48.8833 47.0583 49 46.705 49 46.235C49 45.7617 48.8833 45.4083 48.65 45.175C48.4167 44.9417 48.06 44.825 47.58 44.825H46.855V47.645ZM51.0854 48.045C50.862 48.045 50.667 47.9933 50.5004 47.89C50.3337 47.7833 50.2037 47.6333 50.1104 47.44C50.0204 47.2467 49.9754 47.015 49.9754 46.745C49.9754 46.4717 50.0204 46.2383 50.1104 46.045C50.2037 45.8517 50.3337 45.7033 50.5004 45.6C50.667 45.4967 50.862 45.445 51.0854 45.445C51.312 45.445 51.507 45.5033 51.6704 45.62C51.837 45.7333 51.947 45.8883 52.0004 46.085H51.9404L51.9954 45.49H52.3854C52.3754 45.5867 52.3654 45.685 52.3554 45.785C52.3487 45.8817 52.3454 45.9767 52.3454 46.07V48H51.9404V47.41H51.9954C51.942 47.6067 51.832 47.7617 51.6654 47.875C51.4987 47.9883 51.3054 48.045 51.0854 48.045ZM51.1654 47.715C51.4054 47.715 51.5954 47.6333 51.7354 47.47C51.8754 47.3033 51.9454 47.0617 51.9454 46.745C51.9454 46.425 51.8754 46.1833 51.7354 46.02C51.5954 45.8533 51.4054 45.77 51.1654 45.77C50.9287 45.77 50.7387 45.8533 50.5954 46.02C50.4554 46.1833 50.3854 46.425 50.3854 46.745C50.3854 47.0617 50.4554 47.3033 50.5954 47.47C50.7387 47.6333 50.9287 47.715 51.1654 47.715ZM53.9634 48.045C53.7634 48.045 53.5767 48.0183 53.4034 47.965C53.2301 47.9083 53.0867 47.83 52.9734 47.73L53.1134 47.445C53.2367 47.5417 53.3701 47.6133 53.5134 47.66C53.6601 47.7067 53.8117 47.73 53.9684 47.73C54.1684 47.73 54.3184 47.695 54.4184 47.625C54.5217 47.5517 54.5734 47.4517 54.5734 47.325C54.5734 47.2283 54.5401 47.1517 54.4734 47.095C54.4101 47.035 54.3051 46.9883 54.1584 46.955L53.6934 46.86C53.4801 46.8133 53.3201 46.735 53.2134 46.625C53.1067 46.5117 53.0534 46.3683 53.0534 46.195C53.0534 46.0483 53.0917 45.92 53.1684 45.81C53.2451 45.6967 53.3567 45.6083 53.5034 45.545C53.6501 45.4783 53.8217 45.445 54.0184 45.445C54.2017 45.445 54.3701 45.4733 54.5234 45.53C54.6801 45.5833 54.8101 45.6617 54.9134 45.765L54.7684 46.045C54.6684 45.9483 54.5534 45.8767 54.4234 45.83C54.2967 45.78 54.1651 45.755 54.0284 45.755C53.8317 45.755 53.6834 45.795 53.5834 45.875C53.4867 45.9517 53.4384 46.0533 53.4384 46.18C53.4384 46.2767 53.4684 46.3567 53.5284 46.42C53.5917 46.48 53.6884 46.525 53.8184 46.555L54.2834 46.65C54.5101 46.7 54.6784 46.7783 54.7884 46.885C54.9017 46.9883 54.9584 47.1283 54.9584 47.305C54.9584 47.455 54.9167 47.5867 54.8334 47.7C54.7501 47.81 54.6334 47.895 54.4834 47.955C54.3367 48.015 54.1634 48.045 53.9634 48.045ZM55.6089 48V44.32H56.0139V46.045H55.9489C56.0189 45.8483 56.1355 45.7 56.2989 45.6C56.4655 45.4967 56.6572 45.445 56.8739 45.445C57.1739 45.445 57.3972 45.5267 57.5439 45.69C57.6905 45.85 57.7639 46.0933 57.7639 46.42V48H57.3589V46.445C57.3589 46.2117 57.3122 46.0417 57.2189 45.935C57.1289 45.8283 56.9822 45.775 56.7789 45.775C56.5455 45.775 56.3589 45.8467 56.2189 45.99C56.0822 46.1333 56.0139 46.3217 56.0139 46.555V48H55.6089ZM59.7986 48.045C59.5719 48.045 59.3769 47.9883 59.2136 47.875C59.0502 47.7583 58.9402 47.6 58.8836 47.4H58.9386V48H58.5386V44.32H58.9436V46.075H58.8836C58.9402 45.8817 59.0502 45.7283 59.2136 45.615C59.3769 45.5017 59.5719 45.445 59.7986 45.445C60.0252 45.445 60.2202 45.4983 60.3836 45.605C60.5502 45.7083 60.6786 45.8567 60.7686 46.05C60.8619 46.2433 60.9086 46.475 60.9086 46.745C60.9086 47.015 60.8619 47.2467 60.7686 47.44C60.6752 47.6333 60.5452 47.7833 60.3786 47.89C60.2152 47.9933 60.0219 48.045 59.7986 48.045ZM59.7136 47.715C59.9502 47.715 60.1402 47.6333 60.2836 47.47C60.4269 47.3067 60.4986 47.065 60.4986 46.745C60.4986 46.425 60.4269 46.1833 60.2836 46.02C60.1402 45.8533 59.9502 45.77 59.7136 45.77C59.4769 45.77 59.2869 45.8533 59.1436 46.02C59.0036 46.1833 58.9336 46.425 58.9336 46.745C58.9336 47.0617 59.0036 47.3033 59.1436 47.47C59.2869 47.6333 59.4769 47.715 59.7136 47.715ZM62.5666 48.045C62.3266 48.045 62.1166 47.9933 61.9366 47.89C61.7599 47.7833 61.6233 47.6333 61.5266 47.44C61.4299 47.2433 61.3816 47.0117 61.3816 46.745C61.3816 46.475 61.4299 46.2433 61.5266 46.05C61.6233 45.8567 61.7599 45.7083 61.9366 45.605C62.1166 45.4983 62.3266 45.445 62.5666 45.445C62.8099 45.445 63.0199 45.4983 63.1966 45.605C63.3766 45.7083 63.5149 45.8567 63.6116 46.05C63.7116 46.2433 63.7616 46.475 63.7616 46.745C63.7616 47.0117 63.7116 47.2433 63.6116 47.44C63.5149 47.6333 63.3766 47.7833 63.1966 47.89C63.0199 47.9933 62.8099 48.045 62.5666 48.045ZM62.5666 47.715C62.8066 47.715 62.9966 47.6333 63.1366 47.47C63.2766 47.3033 63.3466 47.0617 63.3466 46.745C63.3466 46.425 63.2749 46.1833 63.1316 46.02C62.9916 45.8533 62.8033 45.77 62.5666 45.77C62.3299 45.77 62.1416 45.8533 62.0016 46.02C61.8616 46.1833 61.7916 46.425 61.7916 46.745C61.7916 47.0617 61.8616 47.3033 62.0016 47.47C62.1416 47.6333 62.3299 47.715 62.5666 47.715ZM65.348 48.045C65.1247 48.045 64.9297 47.9933 64.763 47.89C64.5964 47.7833 64.4664 47.6333 64.373 47.44C64.283 47.2467 64.238 47.015 64.238 46.745C64.238 46.4717 64.283 46.2383 64.373 46.045C64.4664 45.8517 64.5964 45.7033 64.763 45.6C64.9297 45.4967 65.1247 45.445 65.348 45.445C65.5747 45.445 65.7697 45.5033 65.933 45.62C66.0997 45.7333 66.2097 45.8883 66.263 46.085H66.203L66.258 45.49H66.648C66.638 45.5867 66.628 45.685 66.618 45.785C66.6114 45.8817 66.608 45.9767 66.608 46.07V48H66.203V47.41H66.258C66.2047 47.6067 66.0947 47.7617 65.928 47.875C65.7614 47.9883 65.568 48.045 65.348 48.045ZM65.428 47.715C65.668 47.715 65.858 47.6333 65.998 47.47C66.138 47.3033 66.208 47.0617 66.208 46.745C66.208 46.425 66.138 46.1833 65.998 46.02C65.858 45.8533 65.668 45.77 65.428 45.77C65.1914 45.77 65.0014 45.8533 64.858 46.02C64.718 46.1833 64.648 46.425 64.648 46.745C64.648 47.0617 64.718 47.3033 64.858 47.47C65.0014 47.6333 65.1914 47.715 65.428 47.715ZM67.3811 48V46.095C67.3811 45.995 67.3778 45.8933 67.3711 45.79C67.3678 45.6867 67.3611 45.5867 67.3511 45.49H67.7411L67.7911 46.1L67.7211 46.105C67.7544 45.955 67.8128 45.8317 67.8961 45.735C67.9794 45.6383 68.0778 45.5667 68.1911 45.52C68.3044 45.47 68.4228 45.445 68.5461 45.445C68.5961 45.445 68.6394 45.4467 68.6761 45.45C68.7161 45.4533 68.7528 45.4617 68.7861 45.475L68.7811 45.835C68.7311 45.8183 68.6844 45.8083 68.6411 45.805C68.6011 45.7983 68.5544 45.795 68.5011 45.795C68.3544 45.795 68.2261 45.83 68.1161 45.9C68.0094 45.97 67.9278 46.06 67.8711 46.17C67.8178 46.28 67.7911 46.3967 67.7911 46.52V48H67.3811ZM70.1282 48.045C69.9082 48.045 69.7149 47.9933 69.5482 47.89C69.3815 47.7833 69.2515 47.6333 69.1582 47.44C69.0682 47.2467 69.0232 47.015 69.0232 46.745C69.0232 46.4717 69.0682 46.2383 69.1582 46.045C69.2515 45.8517 69.3815 45.7033 69.5482 45.6C69.7149 45.4967 69.9082 45.445 70.1282 45.445C70.3549 45.445 70.5499 45.5017 70.7132 45.615C70.8799 45.7283 70.9915 45.8817 71.0482 46.075H70.9882V44.32H71.3932V48H70.9932V47.4H71.0482C70.9949 47.6 70.8849 47.7583 70.7182 47.875C70.5515 47.9883 70.3549 48.045 70.1282 48.045ZM70.2132 47.715C70.4499 47.715 70.6399 47.6333 70.7832 47.47C70.9265 47.3033 70.9982 47.0617 70.9982 46.745C70.9982 46.425 70.9265 46.1833 70.7832 46.02C70.6399 45.8533 70.4499 45.77 70.2132 45.77C69.9765 45.77 69.7865 45.8533 69.6432 46.02C69.5032 46.1833 69.4332 46.425 69.4332 46.745C69.4332 47.0617 69.5032 47.3033 69.6432 47.47C69.7865 47.6333 69.9765 47.715 70.2132 47.715Z" fill="white"/>
<rect x="44" y="91" width="29" height="10" rx="2" fill="#0F8CC3"/>
<path d="M46.44 98V94.475H47.875C48.245 94.475 48.53 94.565 48.73 94.745C48.93 94.9217 49.03 95.1683 49.03 95.485C49.03 95.795 48.93 96.0417 48.73 96.225C48.53 96.405 48.245 96.495 47.875 96.495H46.855V98H46.44ZM46.855 96.15H47.835C48.0917 96.15 48.285 96.0917 48.415 95.975C48.5483 95.8583 48.615 95.695 48.615 95.485C48.615 95.2717 48.5483 95.1067 48.415 94.99C48.285 94.8733 48.0917 94.815 47.835 94.815H46.855V96.15ZM49.6518 98V94.32H50.0568V98H49.6518ZM51.7282 98.045C51.4316 98.045 51.2066 97.9633 51.0532 97.8C50.9032 97.6367 50.8282 97.3867 50.8282 97.05V95.49H51.2332V97.04C51.2332 97.27 51.2799 97.44 51.3732 97.55C51.4666 97.6567 51.6116 97.71 51.8082 97.71C52.0282 97.71 52.2049 97.6383 52.3382 97.495C52.4716 97.3517 52.5382 97.16 52.5382 96.92V95.49H52.9432V98H52.5482V97.435H52.6132C52.5432 97.6283 52.4299 97.7783 52.2732 97.885C52.1199 97.9917 51.9382 98.045 51.7282 98.045ZM54.834 99.115C54.6173 99.115 54.4173 99.0883 54.234 99.035C54.0507 98.9817 53.8857 98.9 53.739 98.79L53.859 98.485C53.9623 98.5583 54.064 98.6167 54.164 98.66C54.264 98.7033 54.3673 98.735 54.474 98.755C54.5807 98.7783 54.694 98.79 54.814 98.79C55.0607 98.79 55.2473 98.725 55.374 98.595C55.5007 98.465 55.564 98.28 55.564 98.04V97.305H55.614C55.5607 97.5017 55.4507 97.6583 55.284 97.775C55.1173 97.8883 54.9223 97.945 54.699 97.945C54.469 97.945 54.269 97.895 54.099 97.795C53.9323 97.6917 53.8023 97.5467 53.709 97.36C53.619 97.17 53.574 96.9467 53.574 96.69C53.574 96.4367 53.619 96.2167 53.709 96.03C53.8023 95.8433 53.9323 95.7 54.099 95.6C54.269 95.4967 54.469 95.445 54.699 95.445C54.9257 95.445 55.1207 95.5017 55.284 95.615C55.4507 95.7283 55.5607 95.885 55.614 96.085L55.564 96.035L55.609 95.49H56.004C55.9907 95.5867 55.9807 95.685 55.974 95.785C55.9673 95.8817 55.964 95.9767 55.964 96.07V97.985C55.964 98.3583 55.8673 98.64 55.674 98.83C55.484 99.02 55.204 99.115 54.834 99.115ZM54.774 97.615C55.0173 97.615 55.209 97.535 55.349 97.375C55.489 97.2117 55.559 96.9833 55.559 96.69C55.559 96.3967 55.489 96.17 55.349 96.01C55.209 95.85 55.0173 95.77 54.774 95.77C54.534 95.77 54.3423 95.85 54.199 96.01C54.0557 96.17 53.984 96.3967 53.984 96.69C53.984 96.9833 54.0557 97.2117 54.199 97.375C54.3423 97.535 54.534 97.615 54.774 97.615ZM56.7417 98V95.49H57.1467V98H56.7417ZM56.6917 94.92V94.465H57.1917V94.92H56.6917ZM57.9331 98V96.07C57.9331 95.9767 57.9281 95.8817 57.9181 95.785C57.9114 95.685 57.9031 95.5867 57.8931 95.49H58.2831L58.3331 96.04H58.2731C58.3464 95.8467 58.4631 95.7 58.6231 95.6C58.7864 95.4967 58.9748 95.445 59.1881 95.445C59.4848 95.445 59.7081 95.525 59.8581 95.685C60.0114 95.8417 60.0881 96.09 60.0881 96.43V98H59.6831V96.455C59.6831 96.2183 59.6348 96.0467 59.5381 95.94C59.4448 95.83 59.2981 95.775 59.0981 95.775C58.8648 95.775 58.6798 95.8467 58.5431 95.99C58.4064 96.1333 58.3381 96.325 58.3381 96.565V98H57.9331Z" fill="white"/>
<path d="M46.44 64V60.475H47.85C48.2233 60.475 48.5117 60.555 48.715 60.715C48.9183 60.875 49.02 61.1017 49.02 61.395C49.02 61.615 48.9533 61.7983 48.82 61.945C48.69 62.0917 48.5083 62.1883 48.275 62.235V62.165C48.535 62.195 48.7383 62.285 48.885 62.435C49.035 62.5817 49.11 62.78 49.11 63.03C49.11 63.3433 49.005 63.5833 48.795 63.75C48.5883 63.9167 48.295 64 47.915 64H46.44ZM46.845 63.665H47.875C48.1283 63.665 48.3283 63.6167 48.475 63.52C48.625 63.42 48.7 63.255 48.7 63.025C48.7 62.7917 48.625 62.6267 48.475 62.53C48.3283 62.43 48.1283 62.38 47.875 62.38H46.845V63.665ZM46.845 62.05H47.79C48.0633 62.05 48.2683 61.9967 48.405 61.89C48.5417 61.7833 48.61 61.63 48.61 61.43C48.61 61.2233 48.5417 61.0683 48.405 60.965C48.2683 60.8583 48.0633 60.805 47.79 60.805H46.845V62.05ZM49.7934 64V60.32H50.1984V64H49.7934ZM52.0148 64.045C51.7748 64.045 51.5648 63.9933 51.3848 63.89C51.2082 63.7833 51.0715 63.6333 50.9748 63.44C50.8782 63.2433 50.8298 63.0117 50.8298 62.745C50.8298 62.475 50.8782 62.2433 50.9748 62.05C51.0715 61.8567 51.2082 61.7083 51.3848 61.605C51.5648 61.4983 51.7748 61.445 52.0148 61.445C52.2582 61.445 52.4682 61.4983 52.6448 61.605C52.8248 61.7083 52.9632 61.8567 53.0598 62.05C53.1598 62.2433 53.2098 62.475 53.2098 62.745C53.2098 63.0117 53.1598 63.2433 53.0598 63.44C52.9632 63.6333 52.8248 63.7833 52.6448 63.89C52.4682 63.9933 52.2582 64.045 52.0148 64.045ZM52.0148 63.715C52.2548 63.715 52.4448 63.6333 52.5848 63.47C52.7248 63.3033 52.7948 63.0617 52.7948 62.745C52.7948 62.425 52.7232 62.1833 52.5798 62.02C52.4398 61.8533 52.2515 61.77 52.0148 61.77C51.7782 61.77 51.5898 61.8533 51.4498 62.02C51.3098 62.1833 51.2398 62.425 51.2398 62.745C51.2398 63.0617 51.3098 63.3033 51.4498 63.47C51.5898 63.6333 51.7782 63.715 52.0148 63.715ZM54.9463 65.115C54.7296 65.115 54.5296 65.0883 54.3463 65.035C54.163 64.9817 53.998 64.9 53.8513 64.79L53.9713 64.485C54.0746 64.5583 54.1763 64.6167 54.2763 64.66C54.3763 64.7033 54.4796 64.735 54.5863 64.755C54.693 64.7783 54.8063 64.79 54.9263 64.79C55.173 64.79 55.3596 64.725 55.4863 64.595C55.613 64.465 55.6763 64.28 55.6763 64.04V63.305H55.7263C55.673 63.5017 55.563 63.6583 55.3963 63.775C55.2296 63.8883 55.0346 63.945 54.8113 63.945C54.5813 63.945 54.3813 63.895 54.2113 63.795C54.0446 63.6917 53.9146 63.5467 53.8213 63.36C53.7313 63.17 53.6863 62.9467 53.6863 62.69C53.6863 62.4367 53.7313 62.2167 53.8213 62.03C53.9146 61.8433 54.0446 61.7 54.2113 61.6C54.3813 61.4967 54.5813 61.445 54.8113 61.445C55.038 61.445 55.233 61.5017 55.3963 61.615C55.563 61.7283 55.673 61.885 55.7263 62.085L55.6763 62.035L55.7213 61.49H56.1163C56.103 61.5867 56.093 61.685 56.0863 61.785C56.0796 61.8817 56.0763 61.9767 56.0763 62.07V63.985C56.0763 64.3583 55.9796 64.64 55.7863 64.83C55.5963 65.02 55.3163 65.115 54.9463 65.115ZM54.8863 63.615C55.1296 63.615 55.3213 63.535 55.4613 63.375C55.6013 63.2117 55.6713 62.9833 55.6713 62.69C55.6713 62.3967 55.6013 62.17 55.4613 62.01C55.3213 61.85 55.1296 61.77 54.8863 61.77C54.6463 61.77 54.4546 61.85 54.3113 62.01C54.168 62.17 54.0963 62.3967 54.0963 62.69C54.0963 62.9833 54.168 63.2117 54.3113 63.375C54.4546 63.535 54.6463 63.615 54.8863 63.615Z" fill="white"/>
<path d="M46.44 81V77.475H47.875C48.245 77.475 48.53 77.565 48.73 77.745C48.93 77.9217 49.03 78.1683 49.03 78.485C49.03 78.795 48.93 79.0417 48.73 79.225C48.53 79.405 48.245 79.495 47.875 79.495H46.855V81H46.44ZM46.855 79.15H47.835C48.0917 79.15 48.285 79.0917 48.415 78.975C48.5483 78.8583 48.615 78.695 48.615 78.485C48.615 78.2717 48.5483 78.1067 48.415 77.99C48.285 77.8733 48.0917 77.815 47.835 77.815H46.855V79.15ZM50.4848 81.045C50.2614 81.045 50.0664 80.9933 49.8998 80.89C49.7331 80.7833 49.6031 80.6333 49.5098 80.44C49.4198 80.2467 49.3748 80.015 49.3748 79.745C49.3748 79.4717 49.4198 79.2383 49.5098 79.045C49.6031 78.8517 49.7331 78.7033 49.8998 78.6C50.0664 78.4967 50.2614 78.445 50.4848 78.445C50.7114 78.445 50.9064 78.5033 51.0698 78.62C51.2364 78.7333 51.3464 78.8883 51.3998 79.085H51.3398L51.3948 78.49H51.7848C51.7748 78.5867 51.7648 78.685 51.7548 78.785C51.7481 78.8817 51.7448 78.9767 51.7448 79.07V81H51.3398V80.41H51.3948C51.3414 80.6067 51.2314 80.7617 51.0648 80.875C50.8981 80.9883 50.7048 81.045 50.4848 81.045ZM50.5648 80.715C50.8048 80.715 50.9948 80.6333 51.1348 80.47C51.2748 80.3033 51.3448 80.0617 51.3448 79.745C51.3448 79.425 51.2748 79.1833 51.1348 79.02C50.9948 78.8533 50.8048 78.77 50.5648 78.77C50.3281 78.77 50.1381 78.8533 49.9948 79.02C49.8548 79.1833 49.7848 79.425 49.7848 79.745C49.7848 80.0617 49.8548 80.3033 49.9948 80.47C50.1381 80.6333 50.3281 80.715 50.5648 80.715ZM53.6328 82.115C53.4161 82.115 53.2161 82.0883 53.0328 82.035C52.8495 81.9817 52.6845 81.9 52.5378 81.79L52.6578 81.485C52.7611 81.5583 52.8628 81.6167 52.9628 81.66C53.0628 81.7033 53.1661 81.735 53.2728 81.755C53.3795 81.7783 53.4928 81.79 53.6128 81.79C53.8595 81.79 54.0461 81.725 54.1728 81.595C54.2995 81.465 54.3628 81.28 54.3628 81.04V80.305H54.4128C54.3595 80.5017 54.2495 80.6583 54.0828 80.775C53.9161 80.8883 53.7211 80.945 53.4978 80.945C53.2678 80.945 53.0678 80.895 52.8978 80.795C52.7311 80.6917 52.6011 80.5467 52.5078 80.36C52.4178 80.17 52.3728 79.9467 52.3728 79.69C52.3728 79.4367 52.4178 79.2167 52.5078 79.03C52.6011 78.8433 52.7311 78.7 52.8978 78.6C53.0678 78.4967 53.2678 78.445 53.4978 78.445C53.7245 78.445 53.9195 78.5017 54.0828 78.615C54.2495 78.7283 54.3595 78.885 54.4128 79.085L54.3628 79.035L54.4078 78.49H54.8028C54.7895 78.5867 54.7795 78.685 54.7728 78.785C54.7661 78.8817 54.7628 78.9767 54.7628 79.07V80.985C54.7628 81.3583 54.6661 81.64 54.4728 81.83C54.2828 82.02 54.0028 82.115 53.6328 82.115ZM53.5728 80.615C53.8161 80.615 54.0078 80.535 54.1478 80.375C54.2878 80.2117 54.3578 79.9833 54.3578 79.69C54.3578 79.3967 54.2878 79.17 54.1478 79.01C54.0078 78.85 53.8161 78.77 53.5728 78.77C53.3328 78.77 53.1411 78.85 52.9978 79.01C52.8545 79.17 52.7828 79.3967 52.7828 79.69C52.7828 79.9833 52.8545 80.2117 52.9978 80.375C53.1411 80.535 53.3328 80.615 53.5728 80.615ZM56.6555 81.045C56.2622 81.045 55.9522 80.9317 55.7255 80.705C55.4988 80.475 55.3855 80.1567 55.3855 79.75C55.3855 79.4867 55.4355 79.2583 55.5355 79.065C55.6355 78.8683 55.7755 78.7167 55.9555 78.61C56.1355 78.5 56.3422 78.445 56.5755 78.445C56.8055 78.445 56.9988 78.4933 57.1555 78.59C57.3122 78.6867 57.4322 78.825 57.5155 79.005C57.5988 79.1817 57.6405 79.3917 57.6405 79.635V79.785H55.6955V79.53H57.3755L57.2905 79.595C57.2905 79.3283 57.2305 79.12 57.1105 78.97C56.9905 78.82 56.8122 78.745 56.5755 78.745C56.3255 78.745 56.1305 78.8333 55.9905 79.01C55.8505 79.1833 55.7805 79.4183 55.7805 79.715V79.76C55.7805 80.0733 55.8572 80.3117 56.0105 80.475C56.1672 80.635 56.3855 80.715 56.6655 80.715C56.8155 80.715 56.9555 80.6933 57.0855 80.65C57.2188 80.6033 57.3455 80.5283 57.4655 80.425L57.6055 80.71C57.4955 80.8167 57.3555 80.9 57.1855 80.96C57.0188 81.0167 56.8422 81.045 56.6555 81.045ZM59.0952 81.045C58.8952 81.045 58.7086 81.0183 58.5352 80.965C58.3619 80.9083 58.2186 80.83 58.1052 80.73L58.2452 80.445C58.3686 80.5417 58.5019 80.6133 58.6452 80.66C58.7919 80.7067 58.9436 80.73 59.1002 80.73C59.3002 80.73 59.4502 80.695 59.5502 80.625C59.6536 80.5517 59.7052 80.4517 59.7052 80.325C59.7052 80.2283 59.6719 80.1517 59.6052 80.095C59.5419 80.035 59.4369 79.9883 59.2902 79.955L58.8252 79.86C58.6119 79.8133 58.4519 79.735 58.3452 79.625C58.2386 79.5117 58.1852 79.3683 58.1852 79.195C58.1852 79.0483 58.2236 78.92 58.3002 78.81C58.3769 78.6967 58.4886 78.6083 58.6352 78.545C58.7819 78.4783 58.9536 78.445 59.1502 78.445C59.3336 78.445 59.5019 78.4733 59.6552 78.53C59.8119 78.5833 59.9419 78.6617 60.0452 78.765L59.9002 79.045C59.8002 78.9483 59.6852 78.8767 59.5552 78.83C59.4286 78.78 59.2969 78.755 59.1602 78.755C58.9636 78.755 58.8152 78.795 58.7152 78.875C58.6186 78.9517 58.5702 79.0533 58.5702 79.18C58.5702 79.2767 58.6002 79.3567 58.6602 79.42C58.7236 79.48 58.8202 79.525 58.9502 79.555L59.4152 79.65C59.6419 79.7 59.8102 79.7783 59.9202 79.885C60.0336 79.9883 60.0902 80.1283 60.0902 80.305C60.0902 80.455 60.0486 80.5867 59.9652 80.7C59.8819 80.81 59.7652 80.895 59.6152 80.955C59.4686 81.015 59.2952 81.045 59.0952 81.045Z" fill="white"/>
<path d="M47.59 117.045C47.3067 117.045 47.0533 117.008 46.83 116.935C46.6067 116.862 46.4117 116.757 46.245 116.62L46.395 116.29C46.5117 116.377 46.6283 116.45 46.745 116.51C46.865 116.567 46.9933 116.61 47.13 116.64C47.2667 116.667 47.42 116.68 47.59 116.68C47.8867 116.68 48.1067 116.625 48.25 116.515C48.3933 116.405 48.465 116.258 48.465 116.075C48.465 115.918 48.415 115.798 48.315 115.715C48.215 115.632 48.04 115.565 47.79 115.515L47.265 115.41C46.9417 115.343 46.7 115.235 46.54 115.085C46.3833 114.935 46.305 114.732 46.305 114.475C46.305 114.265 46.3583 114.082 46.465 113.925C46.575 113.768 46.7283 113.647 46.925 113.56C47.1217 113.473 47.35 113.43 47.61 113.43C47.86 113.43 48.0883 113.468 48.295 113.545C48.5017 113.618 48.6783 113.727 48.825 113.87L48.68 114.19C48.5233 114.05 48.3583 113.95 48.185 113.89C48.015 113.827 47.8217 113.795 47.605 113.795C47.3317 113.795 47.115 113.855 46.955 113.975C46.7983 114.092 46.72 114.252 46.72 114.455C46.72 114.618 46.77 114.747 46.87 114.84C46.97 114.93 47.135 114.998 47.365 115.045L47.895 115.15C48.235 115.22 48.485 115.325 48.645 115.465C48.805 115.605 48.885 115.802 48.885 116.055C48.885 116.248 48.8317 116.42 48.725 116.57C48.6217 116.72 48.4733 116.837 48.28 116.92C48.0867 117.003 47.8567 117.045 47.59 117.045ZM50.6252 117.045C50.2319 117.045 49.9219 116.932 49.6952 116.705C49.4686 116.475 49.3552 116.157 49.3552 115.75C49.3552 115.487 49.4052 115.258 49.5052 115.065C49.6052 114.868 49.7452 114.717 49.9252 114.61C50.1052 114.5 50.3119 114.445 50.5452 114.445C50.7752 114.445 50.9686 114.493 51.1252 114.59C51.2819 114.687 51.4019 114.825 51.4852 115.005C51.5686 115.182 51.6102 115.392 51.6102 115.635V115.785H49.6652V115.53H51.3452L51.2602 115.595C51.2602 115.328 51.2002 115.12 51.0802 114.97C50.9602 114.82 50.7819 114.745 50.5452 114.745C50.2952 114.745 50.1002 114.833 49.9602 115.01C49.8202 115.183 49.7502 115.418 49.7502 115.715V115.76C49.7502 116.073 49.8269 116.312 49.9802 116.475C50.1369 116.635 50.3552 116.715 50.6352 116.715C50.7852 116.715 50.9252 116.693 51.0552 116.65C51.1886 116.603 51.3152 116.528 51.4352 116.425L51.5752 116.71C51.4652 116.817 51.3252 116.9 51.1552 116.96C50.9886 117.017 50.8119 117.045 50.6252 117.045ZM53.12 117.045C52.8733 117.045 52.685 116.975 52.555 116.835C52.425 116.692 52.36 116.477 52.36 116.19V114.805H51.87V114.49H52.36V113.805L52.765 113.69V114.49H53.485V114.805H52.765V116.145C52.765 116.345 52.7983 116.488 52.865 116.575C52.935 116.658 53.0383 116.7 53.175 116.7C53.2383 116.7 53.295 116.695 53.345 116.685C53.395 116.672 53.44 116.657 53.48 116.64V116.98C53.4333 117 53.3766 117.015 53.31 117.025C53.2466 117.038 53.1833 117.045 53.12 117.045ZM54.8045 117.045C54.5579 117.045 54.3695 116.975 54.2395 116.835C54.1095 116.692 54.0445 116.477 54.0445 116.19V114.805H53.5545V114.49H54.0445V113.805L54.4495 113.69V114.49H55.1695V114.805H54.4495V116.145C54.4495 116.345 54.4829 116.488 54.5495 116.575C54.6195 116.658 54.7229 116.7 54.8595 116.7C54.9229 116.7 54.9795 116.695 55.0295 116.685C55.0795 116.672 55.1245 116.657 55.1645 116.64V116.98C55.1179 117 55.0612 117.015 54.9945 117.025C54.9312 117.038 54.8679 117.045 54.8045 117.045ZM55.6626 117V114.49H56.0676V117H55.6626ZM55.6126 113.92V113.465H56.1126V113.92H55.6126ZM56.854 117V115.07C56.854 114.977 56.849 114.882 56.839 114.785C56.8323 114.685 56.824 114.587 56.814 114.49H57.204L57.254 115.04H57.194C57.2673 114.847 57.384 114.7 57.544 114.6C57.7073 114.497 57.8957 114.445 58.109 114.445C58.4057 114.445 58.629 114.525 58.779 114.685C58.9323 114.842 59.009 115.09 59.009 115.43V117H58.604V115.455C58.604 115.218 58.5557 115.047 58.459 114.94C58.3657 114.83 58.219 114.775 58.019 114.775C57.7857 114.775 57.6007 114.847 57.464 114.99C57.3273 115.133 57.259 115.325 57.259 115.565V117H56.854ZM60.8887 118.115C60.672 118.115 60.472 118.088 60.2887 118.035C60.1053 117.982 59.9403 117.9 59.7937 117.79L59.9137 117.485C60.017 117.558 60.1187 117.617 60.2187 117.66C60.3187 117.703 60.422 117.735 60.5287 117.755C60.6353 117.778 60.7487 117.79 60.8687 117.79C61.1153 117.79 61.302 117.725 61.4287 117.595C61.5553 117.465 61.6187 117.28 61.6187 117.04V116.305H61.6687C61.6153 116.502 61.5053 116.658 61.3387 116.775C61.172 116.888 60.977 116.945 60.7537 116.945C60.5237 116.945 60.3237 116.895 60.1537 116.795C59.987 116.692 59.857 116.547 59.7637 116.36C59.6737 116.17 59.6287 115.947 59.6287 115.69C59.6287 115.437 59.6737 115.217 59.7637 115.03C59.857 114.843 59.987 114.7 60.1537 114.6C60.3237 114.497 60.5237 114.445 60.7537 114.445C60.9803 114.445 61.1753 114.502 61.3387 114.615C61.5053 114.728 61.6153 114.885 61.6687 115.085L61.6187 115.035L61.6637 114.49H62.0587C62.0453 114.587 62.0353 114.685 62.0287 114.785C62.022 114.882 62.0187 114.977 62.0187 115.07V116.985C62.0187 117.358 61.922 117.64 61.7287 117.83C61.5387 118.02 61.2587 118.115 60.8887 118.115ZM60.8287 116.615C61.072 116.615 61.2637 116.535 61.4037 116.375C61.5437 116.212 61.6137 115.983 61.6137 115.69C61.6137 115.397 61.5437 115.17 61.4037 115.01C61.2637 114.85 61.072 114.77 60.8287 114.77C60.5887 114.77 60.397 114.85 60.2537 115.01C60.1103 115.17 60.0387 115.397 60.0387 115.69C60.0387 115.983 60.1103 116.212 60.2537 116.375C60.397 116.535 60.5887 116.615 60.8287 116.615ZM63.6314 117.045C63.4314 117.045 63.2447 117.018 63.0714 116.965C62.898 116.908 62.7547 116.83 62.6414 116.73L62.7814 116.445C62.9047 116.542 63.038 116.613 63.1814 116.66C63.328 116.707 63.4797 116.73 63.6364 116.73C63.8364 116.73 63.9864 116.695 64.0864 116.625C64.1897 116.552 64.2414 116.452 64.2414 116.325C64.2414 116.228 64.208 116.152 64.1414 116.095C64.078 116.035 63.973 115.988 63.8264 115.955L63.3614 115.86C63.148 115.813 62.988 115.735 62.8814 115.625C62.7747 115.512 62.7214 115.368 62.7214 115.195C62.7214 115.048 62.7597 114.92 62.8364 114.81C62.913 114.697 63.0247 114.608 63.1714 114.545C63.318 114.478 63.4897 114.445 63.6864 114.445C63.8697 114.445 64.038 114.473 64.1914 114.53C64.348 114.583 64.478 114.662 64.5814 114.765L64.4364 115.045C64.3364 114.948 64.2214 114.877 64.0914 114.83C63.9647 114.78 63.833 114.755 63.6964 114.755C63.4997 114.755 63.3514 114.795 63.2514 114.875C63.1547 114.952 63.1064 115.053 63.1064 115.18C63.1064 115.277 63.1364 115.357 63.1964 115.42C63.2597 115.48 63.3564 115.525 63.4864 115.555L63.9514 115.65C64.178 115.7 64.3464 115.778 64.4564 115.885C64.5697 115.988 64.6264 116.128 64.6264 116.305C64.6264 116.455 64.5847 116.587 64.5014 116.7C64.418 116.81 64.3014 116.895 64.1514 116.955C64.0047 117.015 63.8314 117.045 63.6314 117.045Z" fill="white"/>
<path d="M94 34C94 31.7909 95.7909 30 98 30H198V64H98C95.7909 64 94 62.2091 94 60V34Z" fill="#D9D9D9"/>
<rect x="94" y="75" width="38" height="28" rx="4" fill="#D9D9D9"/>
<rect x="94" y="109" width="38" height="28" rx="4" fill="#D9D9D9"/>
<path d="M94 148C94 145.791 95.7909 144 98 144H128C130.209 144 132 145.791 132 148V160H94V148Z" fill="#D9D9D9"/>
<rect x="139" y="75" width="38" height="28" rx="4" fill="#D9D9D9"/>
<rect x="139" y="109" width="38" height="28" rx="4" fill="#D9D9D9"/>
<path d="M139 148C139 145.791 140.791 144 143 144H173C175.209 144 177 145.791 177 148V160H139V148Z" fill="#D9D9D9"/>
<path d="M184 79C184 76.7909 185.791 75 188 75H198V103H188C185.791 103 184 101.209 184 99V79Z" fill="#D9D9D9"/>
<path d="M184 113C184 110.791 185.791 109 188 109H198V137H188C185.791 137 184 135.209 184 133V113Z" fill="#D9D9D9"/>
<path d="M184 148C184 145.791 185.791 144 188 144H198V160H184V148Z" fill="#D9D9D9"/>
<rect x="18" y="127" width="86" height="61" rx="5" fill="#373737"/>
<path d="M27.546 139V134.065H30.871V134.772H28.414V136.137H30.71V136.851H28.414V138.286H30.871V139H27.546ZM32.9906 139.07C32.6826 139.07 32.4096 138.998 32.1716 138.853C31.9382 138.704 31.7562 138.491 31.6256 138.216C31.4949 137.941 31.4296 137.612 31.4296 137.229C31.4296 136.846 31.4949 136.52 31.6256 136.249C31.7562 135.974 31.9382 135.764 32.1716 135.619C32.4096 135.47 32.6826 135.395 32.9906 135.395C33.2846 135.395 33.5436 135.467 33.7676 135.612C33.9962 135.752 34.1479 135.943 34.2226 136.186H34.1316V133.848H35.0066V139H34.1456V138.251H34.2296C34.1549 138.503 34.0032 138.704 33.7746 138.853C33.5506 138.998 33.2892 139.07 32.9906 139.07ZM33.2356 138.398C33.5109 138.398 33.7326 138.302 33.9006 138.111C34.0686 137.915 34.1526 137.621 34.1526 137.229C34.1526 136.837 34.0686 136.545 33.9006 136.354C33.7326 136.163 33.5109 136.067 33.2356 136.067C32.9602 136.067 32.7362 136.163 32.5636 136.354C32.3956 136.545 32.3116 136.837 32.3116 137.229C32.3116 137.621 32.3956 137.915 32.5636 138.111C32.7362 138.302 32.9602 138.398 33.2356 138.398ZM35.9594 139V135.465H36.8344V139H35.9594ZM35.9104 134.8V133.946H36.8834V134.8H35.9104ZM39.2966 139.07C38.8766 139.07 38.5593 138.96 38.3446 138.741C38.1299 138.522 38.0226 138.193 38.0226 137.754V136.123H37.3436V135.465H38.0226V134.562L38.8976 134.338V135.465H39.8426V136.123H38.8976V137.698C38.8976 137.941 38.9443 138.111 39.0376 138.209C39.1309 138.307 39.2593 138.356 39.4226 138.356C39.5113 138.356 39.5859 138.349 39.6466 138.335C39.7119 138.321 39.7749 138.302 39.8356 138.279V138.972C39.7563 139.005 39.6676 139.028 39.5696 139.042C39.4763 139.061 39.3853 139.07 39.2966 139.07ZM41.9988 139.07C41.6348 139.07 41.3198 138.995 41.0538 138.846C40.7878 138.697 40.5801 138.484 40.4308 138.209C40.2861 137.934 40.2138 137.607 40.2138 137.229C40.2138 136.851 40.2861 136.527 40.4308 136.256C40.5801 135.981 40.7878 135.768 41.0538 135.619C41.3198 135.47 41.6348 135.395 41.9988 135.395C42.3628 135.395 42.6778 135.47 42.9438 135.619C43.2144 135.768 43.4221 135.981 43.5668 136.256C43.7161 136.527 43.7908 136.851 43.7908 137.229C43.7908 137.607 43.7161 137.934 43.5668 138.209C43.4221 138.484 43.2144 138.697 42.9438 138.846C42.6778 138.995 42.3628 139.07 41.9988 139.07ZM41.9988 138.398C42.2741 138.398 42.4934 138.302 42.6568 138.111C42.8201 137.915 42.9018 137.621 42.9018 137.229C42.9018 136.837 42.8201 136.545 42.6568 136.354C42.4934 136.163 42.2741 136.067 41.9988 136.067C41.7234 136.067 41.5041 136.163 41.3408 136.354C41.1774 136.545 41.0958 136.837 41.0958 137.229C41.0958 137.621 41.1774 137.915 41.3408 138.111C41.5041 138.302 41.7234 138.398 41.9988 138.398ZM44.5383 139V136.368C44.5383 136.219 44.5337 136.067 44.5243 135.913C44.5197 135.759 44.508 135.61 44.4893 135.465H45.3363L45.4343 136.431H45.2943C45.341 136.198 45.418 136.004 45.5253 135.85C45.6373 135.696 45.7727 135.582 45.9313 135.507C46.09 135.432 46.2627 135.395 46.4493 135.395C46.5333 135.395 46.601 135.4 46.6523 135.409C46.7037 135.414 46.755 135.425 46.8063 135.444L46.7993 136.214C46.7107 136.177 46.6337 136.153 46.5683 136.144C46.5077 136.135 46.4307 136.13 46.3373 136.13C46.1367 136.13 45.9663 136.172 45.8263 136.256C45.691 136.34 45.5883 136.457 45.5183 136.606C45.453 136.755 45.4203 136.926 45.4203 137.117V139H44.5383Z" fill="white"/>
<path d="M37.59 153.045C37.3067 153.045 37.0533 153.008 36.83 152.935C36.6067 152.862 36.4117 152.757 36.245 152.62L36.395 152.29C36.5117 152.377 36.6283 152.45 36.745 152.51C36.865 152.567 36.9933 152.61 37.13 152.64C37.2667 152.667 37.42 152.68 37.59 152.68C37.8867 152.68 38.1067 152.625 38.25 152.515C38.3933 152.405 38.465 152.258 38.465 152.075C38.465 151.918 38.415 151.798 38.315 151.715C38.215 151.632 38.04 151.565 37.79 151.515L37.265 151.41C36.9417 151.343 36.7 151.235 36.54 151.085C36.3833 150.935 36.305 150.732 36.305 150.475C36.305 150.265 36.3583 150.082 36.465 149.925C36.575 149.768 36.7283 149.647 36.925 149.56C37.1217 149.473 37.35 149.43 37.61 149.43C37.86 149.43 38.0883 149.468 38.295 149.545C38.5017 149.618 38.6783 149.727 38.825 149.87L38.68 150.19C38.5233 150.05 38.3583 149.95 38.185 149.89C38.015 149.827 37.8217 149.795 37.605 149.795C37.3317 149.795 37.115 149.855 36.955 149.975C36.7983 150.092 36.72 150.252 36.72 150.455C36.72 150.618 36.77 150.747 36.87 150.84C36.97 150.93 37.135 150.998 37.365 151.045L37.895 151.15C38.235 151.22 38.485 151.325 38.645 151.465C38.805 151.605 38.885 151.802 38.885 152.055C38.885 152.248 38.8317 152.42 38.725 152.57C38.6217 152.72 38.4733 152.837 38.28 152.92C38.0867 153.003 37.8567 153.045 37.59 153.045ZM39.5102 153V150.49H39.9152V153H39.5102ZM39.4602 149.92V149.465H39.9602V149.92H39.4602ZM41.5916 153.045C41.345 153.045 41.1566 152.975 41.0266 152.835C40.8966 152.692 40.8316 152.477 40.8316 152.19V150.805H40.3416V150.49H40.8316V149.805L41.2366 149.69V150.49H41.9566V150.805H41.2366V152.145C41.2366 152.345 41.27 152.488 41.3366 152.575C41.4066 152.658 41.51 152.7 41.6466 152.7C41.71 152.7 41.7666 152.695 41.8166 152.685C41.8666 152.672 41.9116 152.657 41.9516 152.64V152.98C41.905 153 41.8483 153.015 41.7816 153.025C41.7183 153.038 41.655 153.045 41.5916 153.045ZM43.5403 153.045C43.1469 153.045 42.8369 152.932 42.6103 152.705C42.3836 152.475 42.2703 152.157 42.2703 151.75C42.2703 151.487 42.3203 151.258 42.4203 151.065C42.5203 150.868 42.6603 150.717 42.8403 150.61C43.0203 150.5 43.2269 150.445 43.4603 150.445C43.6903 150.445 43.8836 150.493 44.0403 150.59C44.1969 150.687 44.3169 150.825 44.4003 151.005C44.4836 151.182 44.5253 151.392 44.5253 151.635V151.785H42.5803V151.53H44.2603L44.1753 151.595C44.1753 151.328 44.1153 151.12 43.9953 150.97C43.8753 150.82 43.6969 150.745 43.4603 150.745C43.2103 150.745 43.0153 150.833 42.8753 151.01C42.7353 151.183 42.6653 151.418 42.6653 151.715V151.76C42.6653 152.073 42.7419 152.312 42.8953 152.475C43.0519 152.635 43.2703 152.715 43.5503 152.715C43.7003 152.715 43.8403 152.693 43.9703 152.65C44.1036 152.603 44.2303 152.528 44.3503 152.425L44.4903 152.71C44.3803 152.817 44.2403 152.9 44.0703 152.96C43.9036 153.017 43.7269 153.045 43.5403 153.045Z" fill="white"/>
<rect x="27" y="151" width="5" height="3" fill="#D9D9D9"/>
<path d="M29.5 147L32.5311 150.75H26.4689L29.5 147Z" fill="#D9D9D9"/>
<rect x="29" y="152" width="1" height="2" fill="#373737"/>
<path d="M37.295 165V161.825H36.05V161.475H38.95V161.825H37.71V165H37.295ZM40.1467 165.045C39.7534 165.045 39.4434 164.932 39.2167 164.705C38.9901 164.475 38.8767 164.157 38.8767 163.75C38.8767 163.487 38.9267 163.258 39.0267 163.065C39.1267 162.868 39.2667 162.717 39.4467 162.61C39.6267 162.5 39.8334 162.445 40.0667 162.445C40.2967 162.445 40.4901 162.493 40.6467 162.59C40.8034 162.687 40.9234 162.825 41.0067 163.005C41.0901 163.182 41.1317 163.392 41.1317 163.635V163.785H39.1867V163.53H40.8667L40.7817 163.595C40.7817 163.328 40.7217 163.12 40.6017 162.97C40.4817 162.82 40.3034 162.745 40.0667 162.745C39.8167 162.745 39.6217 162.833 39.4817 163.01C39.3417 163.183 39.2717 163.418 39.2717 163.715V163.76C39.2717 164.073 39.3484 164.312 39.5017 164.475C39.6584 164.635 39.8767 164.715 40.1567 164.715C40.3067 164.715 40.4467 164.693 40.5767 164.65C40.7101 164.603 40.8367 164.528 40.9567 164.425L41.0967 164.71C40.9867 164.817 40.8467 164.9 40.6767 164.96C40.5101 165.017 40.3334 165.045 40.1467 165.045ZM41.7514 165V163.07C41.7514 162.977 41.7464 162.882 41.7364 162.785C41.7298 162.685 41.7214 162.587 41.7114 162.49H42.1014L42.1514 163.04H42.0914C42.1581 162.85 42.2631 162.703 42.4064 162.6C42.5531 162.497 42.7298 162.445 42.9364 162.445C43.1464 162.445 43.3164 162.495 43.4464 162.595C43.5798 162.695 43.6698 162.85 43.7164 163.06H43.6414C43.7048 162.87 43.8164 162.72 43.9764 162.61C44.1364 162.5 44.3231 162.445 44.5364 162.445C44.8131 162.445 45.0214 162.525 45.1614 162.685C45.3014 162.842 45.3714 163.09 45.3714 163.43V165H44.9664V163.455C44.9664 163.218 44.9248 163.047 44.8414 162.94C44.7581 162.83 44.6248 162.775 44.4414 162.775C44.2314 162.775 44.0648 162.848 43.9414 162.995C43.8214 163.138 43.7614 163.332 43.7614 163.575V165H43.3564V163.455C43.3564 163.218 43.3148 163.047 43.2314 162.94C43.1481 162.83 43.0148 162.775 42.8314 162.775C42.6214 162.775 42.4564 162.848 42.3364 162.995C42.2164 163.138 42.1564 163.332 42.1564 163.575V165H41.7514ZM46.1411 166.08V163.07C46.1411 162.977 46.1361 162.882 46.1261 162.785C46.1194 162.685 46.1111 162.587 46.1011 162.49H46.4911L46.5461 163.085H46.4861C46.5394 162.888 46.6478 162.733 46.8111 162.62C46.9744 162.503 47.1694 162.445 47.3961 162.445C47.6228 162.445 47.8178 162.497 47.9811 162.6C48.1478 162.703 48.2778 162.852 48.3711 163.045C48.4644 163.238 48.5111 163.472 48.5111 163.745C48.5111 164.015 48.4644 164.247 48.3711 164.44C48.2811 164.633 48.1528 164.783 47.9861 164.89C47.8194 164.993 47.6228 165.045 47.3961 165.045C47.1728 165.045 46.9794 164.988 46.8161 164.875C46.6528 164.762 46.5444 164.607 46.4911 164.41H46.5461V166.08H46.1411ZM47.3161 164.715C47.5561 164.715 47.7461 164.633 47.8861 164.47C48.0294 164.303 48.1011 164.062 48.1011 163.745C48.1011 163.425 48.0294 163.183 47.8861 163.02C47.7461 162.853 47.5561 162.77 47.3161 162.77C47.0794 162.77 46.8894 162.853 46.7461 163.02C46.6061 163.183 46.5361 163.425 46.5361 163.745C46.5361 164.062 46.6061 164.303 46.7461 164.47C46.8894 164.633 47.0794 164.715 47.3161 164.715ZM49.1391 165V161.32H49.5441V165H49.1391ZM51.2855 165.045C51.0622 165.045 50.8672 164.993 50.7005 164.89C50.5339 164.783 50.4039 164.633 50.3105 164.44C50.2205 164.247 50.1755 164.015 50.1755 163.745C50.1755 163.472 50.2205 163.238 50.3105 163.045C50.4039 162.852 50.5339 162.703 50.7005 162.6C50.8672 162.497 51.0622 162.445 51.2855 162.445C51.5122 162.445 51.7072 162.503 51.8705 162.62C52.0372 162.733 52.1472 162.888 52.2005 163.085H52.1405L52.1955 162.49H52.5855C52.5755 162.587 52.5655 162.685 52.5555 162.785C52.5489 162.882 52.5455 162.977 52.5455 163.07V165H52.1405V164.41H52.1955C52.1422 164.607 52.0322 164.762 51.8655 164.875C51.6989 164.988 51.5055 165.045 51.2855 165.045ZM51.3655 164.715C51.6055 164.715 51.7955 164.633 51.9355 164.47C52.0755 164.303 52.1455 164.062 52.1455 163.745C52.1455 163.425 52.0755 163.183 51.9355 163.02C51.7955 162.853 51.6055 162.77 51.3655 162.77C51.1289 162.77 50.9389 162.853 50.7955 163.02C50.6555 163.183 50.5855 163.425 50.5855 163.745C50.5855 164.062 50.6555 164.303 50.7955 164.47C50.9389 164.633 51.1289 164.715 51.3655 164.715ZM54.2186 165.045C53.9719 165.045 53.7836 164.975 53.6536 164.835C53.5236 164.692 53.4586 164.477 53.4586 164.19V162.805H52.9686V162.49H53.4586V161.805L53.8636 161.69V162.49H54.5836V162.805H53.8636V164.145C53.8636 164.345 53.8969 164.488 53.9636 164.575C54.0336 164.658 54.1369 164.7 54.2736 164.7C54.3369 164.7 54.3936 164.695 54.4436 164.685C54.4936 164.672 54.5386 164.657 54.5786 164.64V164.98C54.5319 165 54.4753 165.015 54.4086 165.025C54.3453 165.038 54.2819 165.045 54.2186 165.045ZM56.1672 165.045C55.7739 165.045 55.4639 164.932 55.2372 164.705C55.0106 164.475 54.8972 164.157 54.8972 163.75C54.8972 163.487 54.9472 163.258 55.0472 163.065C55.1472 162.868 55.2872 162.717 55.4672 162.61C55.6472 162.5 55.8539 162.445 56.0872 162.445C56.3172 162.445 56.5106 162.493 56.6672 162.59C56.8239 162.687 56.9439 162.825 57.0272 163.005C57.1106 163.182 57.1522 163.392 57.1522 163.635V163.785H55.2072V163.53H56.8872L56.8022 163.595C56.8022 163.328 56.7422 163.12 56.6222 162.97C56.5022 162.82 56.3239 162.745 56.0872 162.745C55.8372 162.745 55.6422 162.833 55.5022 163.01C55.3622 163.183 55.2922 163.418 55.2922 163.715V163.76C55.2922 164.073 55.3689 164.312 55.5222 164.475C55.6789 164.635 55.8972 164.715 56.1772 164.715C56.3272 164.715 56.4672 164.693 56.5972 164.65C56.7306 164.603 56.8572 164.528 56.9772 164.425L57.1172 164.71C57.0072 164.817 56.8672 164.9 56.6972 164.96C56.5306 165.017 56.3539 165.045 56.1672 165.045ZM58.607 165.045C58.407 165.045 58.2203 165.018 58.047 164.965C57.8736 164.908 57.7303 164.83 57.617 164.73L57.757 164.445C57.8803 164.542 58.0136 164.613 58.157 164.66C58.3036 164.707 58.4553 164.73 58.612 164.73C58.812 164.73 58.962 164.695 59.062 164.625C59.1653 164.552 59.217 164.452 59.217 164.325C59.217 164.228 59.1836 164.152 59.117 164.095C59.0536 164.035 58.9486 163.988 58.802 163.955L58.337 163.86C58.1236 163.813 57.9636 163.735 57.857 163.625C57.7503 163.512 57.697 163.368 57.697 163.195C57.697 163.048 57.7353 162.92 57.812 162.81C57.8886 162.697 58.0003 162.608 58.147 162.545C58.2936 162.478 58.4653 162.445 58.662 162.445C58.8453 162.445 59.0136 162.473 59.167 162.53C59.3236 162.583 59.4536 162.662 59.557 162.765L59.412 163.045C59.312 162.948 59.197 162.877 59.067 162.83C58.9403 162.78 58.8086 162.755 58.672 162.755C58.4753 162.755 58.327 162.795 58.227 162.875C58.1303 162.952 58.082 163.053 58.082 163.18C58.082 163.277 58.112 163.357 58.172 163.42C58.2353 163.48 58.332 163.525 58.462 163.555L58.927 163.65C59.1536 163.7 59.322 163.778 59.432 163.885C59.5453 163.988 59.602 164.128 59.602 164.305C59.602 164.455 59.5603 164.587 59.477 164.7C59.3936 164.81 59.277 164.895 59.127 164.955C58.9803 165.015 58.807 165.045 58.607 165.045Z" fill="white"/>
<rect x="27.1" y="160.1" width="5.8" height="5.8" rx="0.4" stroke="#D9D9D9" stroke-width="0.2"/>
<line x1="29.15" y1="160" x2="29.15" y2="166" stroke="white" stroke-width="0.3"/>
<line x1="29.15" y1="160" x2="29.15" y2="166" stroke="white" stroke-width="0.3"/>
<line x1="29.15" y1="160" x2="29.15" y2="166" stroke="white" stroke-width="0.3"/>
<line x1="33.0001" y1="161.148" x2="27.0001" y2="161.152" stroke="white" stroke-width="0.3"/>
<line x1="33.0001" y1="161.148" x2="27.0001" y2="161.152" stroke="white" stroke-width="0.3"/>
<line x1="33.0001" y1="161.148" x2="27.0001" y2="161.152" stroke="white" stroke-width="0.3"/>
<line x1="33.0001" y1="162.148" x2="27.0001" y2="162.152" stroke="white" stroke-width="0.3"/>
<line x1="33.0001" y1="162.148" x2="27.0001" y2="162.152" stroke="white" stroke-width="0.3"/>
<line x1="33.0001" y1="162.148" x2="27.0001" y2="162.152" stroke="white" stroke-width="0.3"/>
<path d="M37.295 177V173.825H36.05V173.475H38.95V173.825H37.71V177H37.295ZM40.1467 177.045C39.7534 177.045 39.4434 176.932 39.2167 176.705C38.9901 176.475 38.8767 176.157 38.8767 175.75C38.8767 175.487 38.9267 175.258 39.0267 175.065C39.1267 174.868 39.2667 174.717 39.4467 174.61C39.6267 174.5 39.8334 174.445 40.0667 174.445C40.2967 174.445 40.4901 174.493 40.6467 174.59C40.8034 174.687 40.9234 174.825 41.0067 175.005C41.0901 175.182 41.1317 175.392 41.1317 175.635V175.785H39.1867V175.53H40.8667L40.7817 175.595C40.7817 175.328 40.7217 175.12 40.6017 174.97C40.4817 174.82 40.3034 174.745 40.0667 174.745C39.8167 174.745 39.6217 174.833 39.4817 175.01C39.3417 175.183 39.2717 175.418 39.2717 175.715V175.76C39.2717 176.073 39.3484 176.312 39.5017 176.475C39.6584 176.635 39.8767 176.715 40.1567 176.715C40.3067 176.715 40.4467 176.693 40.5767 176.65C40.7101 176.603 40.8367 176.528 40.9567 176.425L41.0967 176.71C40.9867 176.817 40.8467 176.9 40.6767 176.96C40.5101 177.017 40.3334 177.045 40.1467 177.045ZM41.7514 177V175.07C41.7514 174.977 41.7464 174.882 41.7364 174.785C41.7298 174.685 41.7214 174.587 41.7114 174.49H42.1014L42.1514 175.04H42.0914C42.1581 174.85 42.2631 174.703 42.4064 174.6C42.5531 174.497 42.7298 174.445 42.9364 174.445C43.1464 174.445 43.3164 174.495 43.4464 174.595C43.5798 174.695 43.6698 174.85 43.7164 175.06H43.6414C43.7048 174.87 43.8164 174.72 43.9764 174.61C44.1364 174.5 44.3231 174.445 44.5364 174.445C44.8131 174.445 45.0214 174.525 45.1614 174.685C45.3014 174.842 45.3714 175.09 45.3714 175.43V177H44.9664V175.455C44.9664 175.218 44.9248 175.047 44.8414 174.94C44.7581 174.83 44.6248 174.775 44.4414 174.775C44.2314 174.775 44.0648 174.848 43.9414 174.995C43.8214 175.138 43.7614 175.332 43.7614 175.575V177H43.3564V175.455C43.3564 175.218 43.3148 175.047 43.2314 174.94C43.1481 174.83 43.0148 174.775 42.8314 174.775C42.6214 174.775 42.4564 174.848 42.3364 174.995C42.2164 175.138 42.1564 175.332 42.1564 175.575V177H41.7514ZM46.1411 178.08V175.07C46.1411 174.977 46.1361 174.882 46.1261 174.785C46.1194 174.685 46.1111 174.587 46.1011 174.49H46.4911L46.5461 175.085H46.4861C46.5394 174.888 46.6478 174.733 46.8111 174.62C46.9744 174.503 47.1694 174.445 47.3961 174.445C47.6228 174.445 47.8178 174.497 47.9811 174.6C48.1478 174.703 48.2778 174.852 48.3711 175.045C48.4644 175.238 48.5111 175.472 48.5111 175.745C48.5111 176.015 48.4644 176.247 48.3711 176.44C48.2811 176.633 48.1528 176.783 47.9861 176.89C47.8194 176.993 47.6228 177.045 47.3961 177.045C47.1728 177.045 46.9794 176.988 46.8161 176.875C46.6528 176.762 46.5444 176.607 46.4911 176.41H46.5461V178.08H46.1411ZM47.3161 176.715C47.5561 176.715 47.7461 176.633 47.8861 176.47C48.0294 176.303 48.1011 176.062 48.1011 175.745C48.1011 175.425 48.0294 175.183 47.8861 175.02C47.7461 174.853 47.5561 174.77 47.3161 174.77C47.0794 174.77 46.8894 174.853 46.7461 175.02C46.6061 175.183 46.5361 175.425 46.5361 175.745C46.5361 176.062 46.6061 176.303 46.7461 176.47C46.8894 176.633 47.0794 176.715 47.3161 176.715ZM49.1391 177V173.32H49.5441V177H49.1391ZM51.2855 177.045C51.0622 177.045 50.8672 176.993 50.7005 176.89C50.5339 176.783 50.4039 176.633 50.3105 176.44C50.2205 176.247 50.1755 176.015 50.1755 175.745C50.1755 175.472 50.2205 175.238 50.3105 175.045C50.4039 174.852 50.5339 174.703 50.7005 174.6C50.8672 174.497 51.0622 174.445 51.2855 174.445C51.5122 174.445 51.7072 174.503 51.8705 174.62C52.0372 174.733 52.1472 174.888 52.2005 175.085H52.1405L52.1955 174.49H52.5855C52.5755 174.587 52.5655 174.685 52.5555 174.785C52.5489 174.882 52.5455 174.977 52.5455 175.07V177H52.1405V176.41H52.1955C52.1422 176.607 52.0322 176.762 51.8655 176.875C51.6989 176.988 51.5055 177.045 51.2855 177.045ZM51.3655 176.715C51.6055 176.715 51.7955 176.633 51.9355 176.47C52.0755 176.303 52.1455 176.062 52.1455 175.745C52.1455 175.425 52.0755 175.183 51.9355 175.02C51.7955 174.853 51.6055 174.77 51.3655 174.77C51.1289 174.77 50.9389 174.853 50.7955 175.02C50.6555 175.183 50.5855 175.425 50.5855 175.745C50.5855 176.062 50.6555 176.303 50.7955 176.47C50.9389 176.633 51.1289 176.715 51.3655 176.715ZM54.2186 177.045C53.9719 177.045 53.7836 176.975 53.6536 176.835C53.5236 176.692 53.4586 176.477 53.4586 176.19V174.805H52.9686V174.49H53.4586V173.805L53.8636 173.69V174.49H54.5836V174.805H53.8636V176.145C53.8636 176.345 53.8969 176.488 53.9636 176.575C54.0336 176.658 54.1369 176.7 54.2736 176.7C54.3369 176.7 54.3936 176.695 54.4436 176.685C54.4936 176.672 54.5386 176.657 54.5786 176.64V176.98C54.5319 177 54.4753 177.015 54.4086 177.025C54.3453 177.038 54.2819 177.045 54.2186 177.045ZM56.1672 177.045C55.7739 177.045 55.4639 176.932 55.2372 176.705C55.0106 176.475 54.8972 176.157 54.8972 175.75C54.8972 175.487 54.9472 175.258 55.0472 175.065C55.1472 174.868 55.2872 174.717 55.4672 174.61C55.6472 174.5 55.8539 174.445 56.0872 174.445C56.3172 174.445 56.5106 174.493 56.6672 174.59C56.8239 174.687 56.9439 174.825 57.0272 175.005C57.1106 175.182 57.1522 175.392 57.1522 175.635V175.785H55.2072V175.53H56.8872L56.8022 175.595C56.8022 175.328 56.7422 175.12 56.6222 174.97C56.5022 174.82 56.3239 174.745 56.0872 174.745C55.8372 174.745 55.6422 174.833 55.5022 175.01C55.3622 175.183 55.2922 175.418 55.2922 175.715V175.76C55.2922 176.073 55.3689 176.312 55.5222 176.475C55.6789 176.635 55.8972 176.715 56.1772 176.715C56.3272 176.715 56.4672 176.693 56.5972 176.65C56.7306 176.603 56.8572 176.528 56.9772 176.425L57.1172 176.71C57.0072 176.817 56.8672 176.9 56.6972 176.96C56.5306 177.017 56.3539 177.045 56.1672 177.045ZM59.1207 177V173.475H60.5557C60.9257 173.475 61.2107 173.565 61.4107 173.745C61.6107 173.922 61.7107 174.168 61.7107 174.485C61.7107 174.795 61.6107 175.042 61.4107 175.225C61.2107 175.405 60.9257 175.495 60.5557 175.495H59.5357V177H59.1207ZM59.5357 175.15H60.5157C60.7723 175.15 60.9657 175.092 61.0957 174.975C61.229 174.858 61.2957 174.695 61.2957 174.485C61.2957 174.272 61.229 174.107 61.0957 173.99C60.9657 173.873 60.7723 173.815 60.5157 173.815H59.5357V175.15ZM63.1654 177.045C62.9421 177.045 62.7471 176.993 62.5804 176.89C62.4138 176.783 62.2838 176.633 62.1904 176.44C62.1004 176.247 62.0554 176.015 62.0554 175.745C62.0554 175.472 62.1004 175.238 62.1904 175.045C62.2838 174.852 62.4138 174.703 62.5804 174.6C62.7471 174.497 62.9421 174.445 63.1654 174.445C63.3921 174.445 63.5871 174.503 63.7504 174.62C63.9171 174.733 64.0271 174.888 64.0804 175.085H64.0204L64.0754 174.49H64.4654C64.4554 174.587 64.4454 174.685 64.4354 174.785C64.4288 174.882 64.4254 174.977 64.4254 175.07V177H64.0204V176.41H64.0754C64.0221 176.607 63.9121 176.762 63.7454 176.875C63.5788 176.988 63.3854 177.045 63.1654 177.045ZM63.2454 176.715C63.4854 176.715 63.6754 176.633 63.8154 176.47C63.9554 176.303 64.0254 176.062 64.0254 175.745C64.0254 175.425 63.9554 175.183 63.8154 175.02C63.6754 174.853 63.4854 174.77 63.2454 174.77C63.0088 174.77 62.8188 174.853 62.6754 175.02C62.5354 175.183 62.4654 175.425 62.4654 175.745C62.4654 176.062 62.5354 176.303 62.6754 176.47C62.8188 176.633 63.0088 176.715 63.2454 176.715ZM65.1985 177V175.095C65.1985 174.995 65.1951 174.893 65.1885 174.79C65.1851 174.687 65.1785 174.587 65.1685 174.49H65.5585L65.6085 175.1L65.5385 175.105C65.5718 174.955 65.6301 174.832 65.7135 174.735C65.7968 174.638 65.8951 174.567 66.0085 174.52C66.1218 174.47 66.2401 174.445 66.3635 174.445C66.4135 174.445 66.4568 174.447 66.4935 174.45C66.5335 174.453 66.5701 174.462 66.6035 174.475L66.5985 174.835C66.5485 174.818 66.5018 174.808 66.4585 174.805C66.4185 174.798 66.3718 174.795 66.3185 174.795C66.1718 174.795 66.0435 174.83 65.9335 174.9C65.8268 174.97 65.7451 175.06 65.6885 175.17C65.6351 175.28 65.6085 175.397 65.6085 175.52V177H65.1985ZM68.0467 177.045C67.8001 177.045 67.6117 176.975 67.4817 176.835C67.3517 176.692 67.2867 176.477 67.2867 176.19V174.805H66.7967V174.49H67.2867V173.805L67.6917 173.69V174.49H68.4117V174.805H67.6917V176.145C67.6917 176.345 67.7251 176.488 67.7917 176.575C67.8617 176.658 67.9651 176.7 68.1017 176.7C68.1651 176.7 68.2217 176.695 68.2717 176.685C68.3217 176.672 68.3667 176.657 68.4067 176.64V176.98C68.3601 177 68.3034 177.015 68.2367 177.025C68.1734 177.038 68.1101 177.045 68.0467 177.045ZM69.7398 177.045C69.5398 177.045 69.3531 177.018 69.1798 176.965C69.0064 176.908 68.8631 176.83 68.7498 176.73L68.8898 176.445C69.0131 176.542 69.1464 176.613 69.2898 176.66C69.4364 176.707 69.5881 176.73 69.7448 176.73C69.9448 176.73 70.0948 176.695 70.1948 176.625C70.2981 176.552 70.3498 176.452 70.3498 176.325C70.3498 176.228 70.3164 176.152 70.2498 176.095C70.1864 176.035 70.0814 175.988 69.9348 175.955L69.4698 175.86C69.2564 175.813 69.0964 175.735 68.9898 175.625C68.8831 175.512 68.8298 175.368 68.8298 175.195C68.8298 175.048 68.8681 174.92 68.9448 174.81C69.0214 174.697 69.1331 174.608 69.2798 174.545C69.4264 174.478 69.5981 174.445 69.7948 174.445C69.9781 174.445 70.1464 174.473 70.2998 174.53C70.4564 174.583 70.5864 174.662 70.6898 174.765L70.5448 175.045C70.4448 174.948 70.3298 174.877 70.1998 174.83C70.0731 174.78 69.9414 174.755 69.8048 174.755C69.6081 174.755 69.4598 174.795 69.3598 174.875C69.2631 174.952 69.2148 175.053 69.2148 175.18C69.2148 175.277 69.2448 175.357 69.3048 175.42C69.3681 175.48 69.4648 175.525 69.5948 175.555L70.0598 175.65C70.2864 175.7 70.4548 175.778 70.5648 175.885C70.6781 175.988 70.7348 176.128 70.7348 176.305C70.7348 176.455 70.6931 176.587 70.6098 176.7C70.5264 176.81 70.4098 176.895 70.2598 176.955C70.1131 177.015 69.9398 177.045 69.7398 177.045Z" fill="white"/>
<rect x="29.847" y="173.108" width="4.1256" height="4.10273" transform="rotate(44.5347 29.847 173.108)" stroke="#D9D9D9" stroke-width="0.3"/>
<rect x="30.8453" y="172.896" width="4.4256" height="4.40273" transform="rotate(44.5347 30.8453 172.896)" fill="#D9D9D9"/>
<rect x="89" width="95" height="12" rx="2" fill="#F8F8F8"/>
<circle cx="176" cy="5" r="2.5" stroke="black"/>
<path d="M179 10L179.306 10.3953L180.097 9.783L179.791 9.38769L179 10ZM176.685 7.01099L179 10L179.791 9.38769L177.476 6.39868L176.685 7.01099Z" fill="black"/>
<path d="M96.62 8.05C96.3367 8.05 96.075 8.015 95.835 7.945C95.5983 7.87167 95.395 7.77167 95.225 7.645L95.425 7.14C95.5383 7.22 95.6567 7.28833 95.78 7.345C95.9033 7.39833 96.035 7.44 96.175 7.47C96.315 7.49667 96.4633 7.51 96.62 7.51C96.8833 7.51 97.0733 7.46667 97.19 7.38C97.3067 7.29333 97.365 7.18 97.365 7.04C97.365 6.91667 97.325 6.82333 97.245 6.76C97.165 6.69333 97.0217 6.63833 96.815 6.595L96.25 6.48C95.9267 6.41333 95.685 6.30167 95.525 6.145C95.365 5.98833 95.285 5.77833 95.285 5.515C95.285 5.295 95.3433 5.10333 95.46 4.94C95.5767 4.77667 95.74 4.65 95.95 4.56C96.16 4.47 96.405 4.425 96.685 4.425C96.935 4.425 97.1667 4.46167 97.38 4.535C97.5933 4.605 97.7717 4.70667 97.915 4.84L97.715 5.32C97.5717 5.2 97.415 5.11167 97.245 5.055C97.075 4.995 96.885 4.965 96.675 4.965C96.4383 4.965 96.2533 5.01167 96.12 5.105C95.99 5.195 95.925 5.32 95.925 5.48C95.925 5.60333 95.965 5.70167 96.045 5.775C96.1283 5.84833 96.2683 5.905 96.465 5.945L97.025 6.055C97.3583 6.12167 97.605 6.23167 97.765 6.385C97.925 6.535 98.005 6.73833 98.005 6.995C98.005 7.205 97.9483 7.39 97.835 7.55C97.7217 7.70667 97.5617 7.83 97.355 7.92C97.1483 8.00667 96.9033 8.05 96.62 8.05ZM99.7827 8.05C99.3593 8.05 99.0277 7.93333 98.7877 7.7C98.5477 7.46667 98.4277 7.14667 98.4277 6.74C98.4277 6.47667 98.4793 6.24667 98.5827 6.05C98.686 5.85333 98.8293 5.7 99.0127 5.59C99.1993 5.48 99.416 5.425 99.6627 5.425C99.906 5.425 100.109 5.47667 100.273 5.58C100.436 5.68333 100.559 5.82833 100.643 6.015C100.729 6.20167 100.773 6.42 100.773 6.67V6.835H98.9327V6.505H100.328L100.243 6.575C100.243 6.34167 100.193 6.16333 100.093 6.04C99.996 5.91667 99.8543 5.855 99.6677 5.855C99.461 5.855 99.301 5.92833 99.1877 6.075C99.0777 6.22167 99.0227 6.42667 99.0227 6.69V6.755C99.0227 7.02833 99.0893 7.23333 99.2227 7.37C99.3593 7.50333 99.551 7.57 99.7977 7.57C99.941 7.57 100.074 7.55167 100.198 7.515C100.324 7.475 100.444 7.41167 100.558 7.325L100.743 7.745C100.623 7.84167 100.479 7.91667 100.313 7.97C100.146 8.02333 99.9693 8.05 99.7827 8.05ZM102.277 8.05C102.057 8.05 101.864 7.99833 101.697 7.895C101.53 7.78833 101.4 7.63667 101.307 7.44C101.214 7.24333 101.167 7.00833 101.167 6.735C101.167 6.46167 101.214 6.22833 101.307 6.035C101.4 5.83833 101.53 5.68833 101.697 5.585C101.864 5.47833 102.057 5.425 102.277 5.425C102.49 5.425 102.677 5.47833 102.837 5.585C103 5.68833 103.109 5.82833 103.162 6.005H103.107L103.162 5.475H103.762C103.752 5.57833 103.742 5.68333 103.732 5.79C103.725 5.89667 103.722 6.00167 103.722 6.105V8H103.102L103.097 7.48H103.157C103.104 7.65333 102.995 7.79167 102.832 7.895C102.669 7.99833 102.484 8.05 102.277 8.05ZM102.452 7.57C102.649 7.57 102.807 7.50167 102.927 7.365C103.047 7.225 103.107 7.015 103.107 6.735C103.107 6.455 103.047 6.24667 102.927 6.11C102.807 5.97333 102.649 5.905 102.452 5.905C102.255 5.905 102.097 5.97333 101.977 6.11C101.857 6.24667 101.797 6.455 101.797 6.735C101.797 7.015 101.855 7.225 101.972 7.365C102.092 7.50167 102.252 7.57 102.452 7.57ZM104.398 8V6.12C104.398 6.01333 104.394 5.905 104.388 5.795C104.384 5.685 104.376 5.57833 104.363 5.475H104.968L105.038 6.165H104.938C104.971 5.99833 105.026 5.86 105.103 5.75C105.183 5.64 105.279 5.55833 105.393 5.505C105.506 5.45167 105.629 5.425 105.763 5.425C105.823 5.425 105.871 5.42833 105.908 5.435C105.944 5.43833 105.981 5.44667 106.018 5.46L106.013 6.01C105.949 5.98333 105.894 5.96667 105.848 5.96C105.804 5.95333 105.749 5.95 105.683 5.95C105.539 5.95 105.418 5.98 105.318 6.04C105.221 6.1 105.148 6.18333 105.098 6.29C105.051 6.39667 105.028 6.51833 105.028 6.655V8H104.398ZM107.486 8.05C107.226 8.05 106.998 7.99667 106.801 7.89C106.608 7.78333 106.458 7.63167 106.351 7.435C106.245 7.235 106.191 6.99833 106.191 6.725C106.191 6.45167 106.245 6.21833 106.351 6.025C106.461 5.83167 106.613 5.68333 106.806 5.58C107 5.47667 107.226 5.425 107.486 5.425C107.653 5.425 107.815 5.45167 107.971 5.505C108.131 5.555 108.261 5.62833 108.361 5.725L108.171 6.16C108.081 6.07667 107.98 6.015 107.866 5.975C107.756 5.93167 107.648 5.91 107.541 5.91C107.318 5.91 107.143 5.98 107.016 6.12C106.893 6.26 106.831 6.46333 106.831 6.73C106.831 6.99667 106.893 7.20167 107.016 7.345C107.143 7.48833 107.318 7.56 107.541 7.56C107.645 7.56 107.751 7.54 107.861 7.5C107.975 7.46 108.078 7.39833 108.171 7.315L108.361 7.745C108.258 7.84167 108.126 7.91667 107.966 7.97C107.81 8.02333 107.65 8.05 107.486 8.05ZM108.846 8V4.32H109.471V5.98H109.401C109.478 5.8 109.596 5.66333 109.756 5.57C109.916 5.47333 110.099 5.425 110.306 5.425C110.606 5.425 110.829 5.51 110.976 5.68C111.123 5.84667 111.196 6.10167 111.196 6.445V8H110.571V6.475C110.571 6.27833 110.533 6.13667 110.456 6.05C110.383 5.96 110.264 5.915 110.101 5.915C109.911 5.915 109.758 5.975 109.641 6.095C109.528 6.21167 109.471 6.36833 109.471 6.565V8H108.846Z" fill="black"/>
<rect y="10" width="24" height="24" rx="3" fill="#F8F8F8"/>
<rect y="41" width="24" height="24" rx="3" fill="#F8F8F8"/>
<rect x="4" y="14" width="16" height="16" fill="url(#pattern1_314_32)"/>
<rect x="3" y="46" width="16" height="14" fill="url(#pattern2_314_32)"/>
<defs>
<filter id="filter0_d_314_32" x="29" y="9" width="169" height="159" filterUnits="userSpaceOnUse" color-interpolation-filters="sRGB">
<feFlood flood-opacity="0" result="BackgroundImageFix"/>
<feColorMatrix in="SourceAlpha" type="matrix" values="0 0 0 0 0 0 0 0 0 0 0 0 0 0 0 0 0 0 127 0" result="hardAlpha"/>
<feOffset dx="-4" dy="4"/>
<feGaussianBlur stdDeviation="2"/>
<feComposite in2="hardAlpha" operator="out"/>
<feColorMatrix type="matrix" values="0 0 0 0 0 0 0 0 0 0 0 0 0 0 0 0 0 0 0.25 0"/>
<feBlend mode="normal" in2="BackgroundImageFix" result="effect1_dropShadow_314_32"/>
<feBlend mode="normal" in="SourceGraphic" in2="effect1_dropShadow_314_32" result="shape"/>
</filter>
<pattern id="pattern0_314_32" patternContentUnits="objectBoundingBox" width="1" height="1">
<use xlink:href="#image0_314_32" transform="scale(0.00102041)"/>
</pattern>
<pattern id="pattern1_314_32" patternContentUnits="objectBoundingBox" width="1" height="1">
<use xlink:href="#image1_314_32" transform="scale(0.00195312)"/>
</pattern>
<pattern id="pattern2_314_32" patternContentUnits="objectBoundingBox" width="1" height="1">
<use xlink:href="#image2_314_32" transform="matrix(0.000751718 0 0 0.000859107 -0.221649 0)"/>
</pattern>
<image id="image0_314_32" width="980" height="980" xlink:href=""/>
<image id="image1_314_32" width="512" height="512" xlink:href=""/>
<image id="image2_314_32" width="1920" height="1164" xlink:href=""/>
</defs>
</svg>
