<?xml version="1.0" encoding="UTF-8"?>
<svg id="Layer_10" xmlns="http://www.w3.org/2000/svg" viewBox="0 0 1024 1024">
  <path d="M923.09,495.13c-38.42-.78-89.01,1.79-127.44,1.01,18.51-25.96,30.85-53.17,7.41-84.36-21.97-29.23-51.49-31.9-71.92-23.01-29.39,12.8-37.41,44.13-38.13,50.73-2.41,22.33,4.81,34.61,20.39,53.6-40.82,0-79.02-1.01-119.84-1.01.69,41.63.62,74.07,1.3,115.7-22.4-16.23-47.64-19.05-69.09-5.44-15.25,9.68-37.87,29.37-35.31,61.93,2.71,34.35,24.89,50.04,48.69,57.2,28.81,8.66,53.48-11.54,54.74-12.93.34,36.19.68,71.25,1.02,107.44,109.78,0,219.55,0,329.33,0-1.03-109.73-.13-211.15-1.16-320.87Z" style="fill: #ea550f;"/>
  <path d="M923.09,495.13c-42.48.34-84.96.67-127.44,1.01,20.04-22.05,25.44-50.29,13.9-73.75-7.96-16.18-28.19-38.65-56.77-38.39-31.27.28-53.98,27.6-59.08,51.52-6.57,30.79,16.38,54.3,19.69,57.59-42.09-.34-84.18-.67-126.28-1.01v-114.16c26.31,15.67,60.05,14.9,82.25-1.01,16.19-11.6,26.7-31.58,22.01-52.53-6.85-30.63-41.16-40.94-42.86-41.42-22.5-6.37-47.44-1.3-64.88,13.13.39-42.1.77-84.19,1.16-126.29h339.44c-.39,108.44-.77,216.88-1.16,325.31Z" style="fill: #a6c626;"/>
  <path d="M690.5,314.71c-12.22-28.85-42.01-32.95-48.31-33.65-21.32-2.37-44.31,4.13-50.87,7.38,0-40.07.01-78.55.01-118.63-39.75.67-79.5-.25-119.25.42,15.49-21.99,15.39-49.33,0-68.7-1.47-1.85-20.1-24.47-51.26-23.24-24.66.98-48.89,16.04-55.72,39.4-8.27,28.28,14.28,50.28,15.6,51.52-34.55.34-69.09.67-103.64,1.01v323.29c34.34-.33,68.94-.48,103.61-.58-4.17-4.93-20.38-27.34-12.99-53.56,6.75-23.92,22.06-46.37,56.36-49.66,32.51-3.12,52.59,19.16,62.53,34.24,13.88,21.08,11.6,46.17-3.97,68.73,37.13-.1,74.18-.25,110.95-.61.74-37.72-.82-73.05-.08-110.77,28.98,15.52,62.08,9.21,82.25-9.67,17.08-15.98,23.26-36.9,14.77-56.95Z" style="fill: #ea550f;"/>
  <path d="M107.28,837.03c.34,36.19.68,71.25,1.02,107.44,109.78,0,219.55,0,329.33,0-.36-38.01-.48-75.02-.53-111.73-2.85,2.6-26.75,21.03-54.5,12.69-23.8-7.16-45.98-22.85-48.69-57.2-2.57-32.56,20.05-52.26,35.31-61.93,21.04-13.34,45.71-10.88,67.79,4.53-.06-35.24-.18-70.77-.53-107.23-38.42-.78-89.01,1.79-127.44,1.01,18.51-25.96,30.85-53.17,7.41-84.36-21.97-29.23-51.49-31.9-71.92-23.01-29.39,12.8-37.41,44.13-38.13,50.73-2.41,22.33,4.81,34.61,20.39,53.6-40.82,0-79.02-1.01-119.84-1.01.69,41.63.62,74.07,1.3,115.7l-.96,100.76Z" style="fill: #a6c626;"/>
</svg>