<svg id="Layer_11" xmlns="http://www.w3.org/2000/svg" xmlns:xlink="http://www.w3.org/1999/xlink" viewBox="0 0 1024 1024">
  <path d="M115.23,358.11h126.3c13.44,0,24.36,10.92,24.36,24.36v524.22H90.87V382.47c0-13.44,10.92-24.36,24.36-24.36Z" style="fill: #ededed;"/>
  <path d="M259.05,160.32h131.41c12.03,0,21.81,9.77,21.81,21.81v724.56h-175.02V182.12c0-12.03,9.77-21.81,21.81-21.81Z" style="fill: #ededed;"/>
  <path d="M429.91,311.47h137.34c10.4,0,18.84,8.44,18.84,18.84v576.38h-175.02V330.31c0-10.4,8.44-18.84,18.84-18.84Z" style="fill: #ededed;"/>
  <path d="M600.77,577h143.26c8.77,0,15.88,7.12,15.88,15.88v313.81h-175.02v-313.81c0-8.77,7.12-15.88,15.88-15.88Z" style="fill: #ededed;"/>
  <path d="M776.73,176.66h138.97c9.95,0,18.03,8.08,18.03,18.03v712h-175.02V194.68c0-9.95,8.08-18.03,18.03-18.03Z" style="fill: #ededed;"/>
  <line x1="48.98" y1="908.73" x2="960.77" y2="908.47" style="fill: none; stroke: #898989; stroke-miterlimit: 10; stroke-width: 6px;"/>
  <g>
    <path d="M729.07,650.38v-27.25c0-7.5,5.43-13.86,12.77-14.97l32.91-4.98c9.58-1.45,18.55,5.12,20.16,14.77l5.15,30.91-70.99,1.52Z" style="fill: none; stroke: #000; stroke-miterlimit: 10; stroke-width: 9px;"/>
    <path d="M754.74,582.16c10.22-2.61,20.07,5.69,22.61,16.4,1.31,5.53-2.18,15.76-14.25,22.6-16.09,9.12-25.73-4.41-24.66-17.73.67-8.4,8.26-19.22,16.3-21.27Z" style="fill: #f69e9b;"/>
    <rect x="623.92" y="324.53" width="60.23" height="43.07" transform="translate(306.24 999.18) rotate(-89.85)" style="fill: #f69e9b;"/>
    <path d="M675.22,325v1.56c-.05,18.17-13,33-28.75,32.96l-14-.04.03-11.99,15.49.04c12.59.03,23.4-9.44,27.24-22.53Z" style="fill: #d88080;"/>
    <path d="M627.17,296.07c-.01,5.63-4.53,10.17-10.09,10.16-1.43,0-2.8-.31-4.03-.85-.5-.23-.97-.49-1.43-.8-2.77-1.8-4.61-4.97-4.6-8.56.01-4.2,2.54-7.79,6.13-9.33.62-.27,1.27-.47,1.95-.62.66-.13,1.33-.2,2.03-.2,5.56.01,10.06,4.58,10.04,10.2Z" style="fill: #ee7f7f;"/>
    <path d="M679.59,288.41l-.08,31.94c0,2.61-.37,5.14-1.06,7.54-.12.43-.25.85-.39,1.26-3.69,11.04-14.09,19.03-26.22,19l-15.5-.04c-12.87-.03-23.37-10.69-23.33-23.69l.1-36.17c0-.52.02-1.04.06-1.55.03-.56.09-1.13.18-1.68.69-4.97,2.91-9.44,6.18-12.93,4.27-4.58,10.35-7.45,17.04-7.44l19.69.05c11.54.03,21.17,8.61,23.02,19.75.23,1.29.34,2.62.33,3.96Z" style="fill: #f69e9b;"/>
    <path d="M662.66,273.27c2.73,4.08-7.94,14.32-4.9,22.71,2.73,7.51,15.63,11.23,24.19,5.74,11.84-7.58,12.16-30.7,4.95-39.75-3.08-3.85-6.03-3.28-14.51-5.72-22.83-6.56-25.26-17.55-38.68-17.14-10.47.32-23.24,7.44-24.25,16.97-.98,9.26,9.93,18.49,20.31,19.64,18.77,2.09,29.65-7.29,32.9-2.46Z" style="fill: #4b2f38;"/>
    <path d="M695.69,297.28c0,2.3-.58,4.45-1.6,6.32,0,0-.01.01,0,.03-2.26,4.1-6.57,6.86-11.53,6.84-1.04,0-2.04-.12-3.02-.37-5.77-1.39-10.06-6.64-10.05-12.9,0-.68.05-1.34.16-1.99,0,0-.01-.01,0-.03.8-5.21,4.63-9.42,9.61-10.74,1.07-.29,2.2-.44,3.36-.44,7.24.02,13.08,5.96,13.06,13.27Z" style="fill: #f6a2a0;"/>
    <line x1="611.11" y1="285.06" x2="622.77" y2="284.78" style="fill: none; stroke: #4b2f38; stroke-linecap: round; stroke-miterlimit: 10; stroke-width: 5px;"/>
    <line x1="635.3" y1="285.13" x2="646.95" y2="284.85" style="fill: none; stroke: #4b2f38; stroke-linecap: round; stroke-miterlimit: 10; stroke-width: 5px;"/>
    <ellipse cx="619.11" cy="297.5" rx="4.03" ry="4.07" style="fill: #4b2f38;"/>
    <ellipse cx="639.26" cy="297.55" rx="4.03" ry="4.07" style="fill: #4b2f38;"/>
    <path d="M625.44,307.24l-.02,8.72c0,1.37,1.1,2.49,2.46,2.49h4.05" style="fill: none; stroke: #4b2f38; stroke-linecap: round; stroke-linejoin: round; stroke-width: 3.49px;"/>
    <path d="M620.74,327.98c.77.72,3.45,3.06,7.61,3.36,4.63.34,7.86-2.06,8.62-2.66" style="fill: none; stroke: #4b2f38; stroke-linecap: round; stroke-linejoin: round; stroke-width: 3.49px;"/>
    <ellipse cx="630.21" cy="366.44" rx="8.35" ry="6.92" style="fill: #f69e9b;"/>
    <path d="M579.78,570.46c-.08,6.8-.08,18.49.7,32.99,1.49,27.83,4.88,48.29,5.61,52.93,3.39,21.68,7.83,77.39,12.62,224.77,8.41.51,31.29,1.02,39.71,1.53,4.83-18.9-5.15-38.6-1.14-59.07,17.48-89.25,21.77-171.66,19.63-243.18-25.71-3.32-51.42-6.65-77.12-9.97Z" style="fill: #d33c00;"/>
    <path d="M676.53,301.3c-.86-2.88-.07-6.02,2.04-8.14,2.11-2.12,5.22-2.9,8.07-2.01" style="fill: none; stroke: #4b2f38; stroke-linecap: round; stroke-linejoin: round; stroke-width: 3.49px;"/>
    <path d="M595.14,564.08c7.84,26.34,20.89,64.83,42.25,109.4,8.37,17.47,15.12,29.6,23.81,45.78,24.32,45.26,48.9,91.89,73.23,137.15,5.77,3.44,10.13-1.22,15.12-4.68,4.46-3.09,8.08-4.53,8.44-6-2.8-23.34-5.59-46.67-8.39-70.01-1.55-12.92-3.61-25.2-11.4-35.56-3.05-4.05-6.09-16.12-9.14-19.86-6.22-7.65-10.21-16.87-11.35-26.7-5.45-46.88-14.65-83.65-19.52-132.1,0,0,0,0,0,0-34.35.86-68.7,1.73-103.05,2.59Z" style="fill: #ea550f;"/>
    <path d="M632.42,358.32c.45,4.31-5.37,6.14-2.84,8.27,3.78,3.19,24.11-2.87,48.78-11.97.84-.31,1.78-.31,2.62,0l.54.2c15.29,5.64,25.54,18.98,26.18,34.08,2.47,58.34,4.95,116.67,7.42,175.01.19,4.57-5.34,8.35-12.3,8.42-42.24.4-84.47.81-126.71,1.21-7.35.07-13.21-4.02-12.64-8.83,5.89-49.63,11.78-99.26,17.66-148.89,1.45-12.22,8.29-23.91,19.68-33.62,22.05-18.82,31.47-25.2,31.61-23.88Z" style="fill: #f8fff7;"/>
    <path d="M681.04,353.69c-6.42.11-23.95,3.21-44.38,46.29-5.33,14.99-10.15,31.67-13.82,49.97-13.14,65.49-5.63,122.57,3.64,161.65,12.61,3.14,32.27,6.4,56.02,3.67,19.44-2.23,35.05-7.72,45.83-12.49-5.82-42.13-11.64-84.26-17.46-126.38,4.92,8.52,7.84,18.47,12.47,29.54,6.49,15.52,14.64,63.57,17.87,83.2.52,3.19,3.21,5.54,6.41,5.62,6.57.17,15.35-1.38,22.32-1.17,4.05.12,7.27-3.4,6.83-7.47-2.85-26.17-15.59-84.89-23.7-114.86-2.67-9.89-31.97-118.26-72.02-117.57Z" style="fill: #a6c626;"/>
    <path d="M632.4,358.2c-1.34-1.17-25.06,9.47-34.18,19.99-19.41,22.41-15.48,36.8-29.45,66.87-6.71,14.44-13.52,36.44-44.38,54.57-14.31,8.41-44.97,10.8-56.63,11.48-2.32.13-4.14,2.06-4.14,4.4,0,5.35.39,13.16.4,18.56,0,2.38,1.87,4.33,4.23,4.41,13.14.46,39.58-.29,58.6-4.59,14.95-3.39,27.52-8.13,37.43-12.69-2.16,27.66-4.33,55.32-6.49,82.97,8.82.49,17.63.98,26.45,1.46v-32.21h-5.99c.86-21.11,2.12-48.11,3.99-79.56,3.96-66.52,6.66-86.02,19.96-107.38,8.28-13.29,31.62-27.04,30.18-28.29Z" style="fill: #a6c626;"/>
    <path d="M685.67,354.51c-12.27-3.52-27.71,8.97-40.16,29.28-13.09,15.82-28.22,87.46-27.4,101.2,8.46-19.79,16.92-39.58,25.37-59.37.77-7,1.53-13.99,2.3-20.99,6.64-1.64,13.28-3.28,19.92-4.92,6.87-15.55,13.1-29.64,19.97-45.19Z" style="fill: #8caa0e;"/>
    <path d="M630.21,360.43c-20.1,7.64-30.31,19.66-44.82,46.8-8.13,15.2-14.73,35.51-17.32,46.82,3.18-.71,3.82-1.6,7-2.31.12,15.96-3.59,22.27,5.42,47.89,4.26-57.66,4.13-61.14,5.92-70.65,6.79-36,16.88-48.21,43.8-68.55Z" style="fill: #8caa0e;"/>
    <path d="M599.83,873.08c-6.41,11.31-13.16,15.29-18.4,16.73-8.4,2.3-15.35-1.3-21.16,3.72-3.02,2.61-5.49,7.35-4.6,10.22,1.75,5.65,17.99,8.98,79.11,0-1.53-9.6-3.07-19.2-4.6-28.8-10.12-.62-20.24-1.24-30.36-1.86Z"/>
    <path d="M435.92,517.03c3.96-8.15,21.23-11.82,36.36-9.43,7.81,1.23,18.08,7.64,18.08,18.73,0,14.78-23.63,16.26-39.47,10.35-9.98-3.73-18.09-13.24-14.97-19.64Z" style="fill: #f28686;"/>
    <rect x="682.59" y="638.6" width="171.62" height="94.62" rx="25.47" ry="25.47"/>
    <image width="1024" height="1024" transform="translate(735.56 655.84) scale(.06)" xlink:href="../../../../../../Downloads/Techysquad-Logo-01.png"/>
    <path d="M732.83,852.98c.61.74,4.89,10.38-.22,25.72-2.16,6.48-5.32,10.55-8.12,13.06-3.74,3.36-4.67,8.98-1.9,13.2.07.11.14.21.21.3,5.7,7.7,26.61,5.39,32.19-4.25,4.32-7.47-3.09-14.95,2.31-22.45,3.51-4.87,7.81-3.33,11.4-8.88,4.65-7.19,1.56-16.15,1.39-16.63-3.74-10.35-14.53-12.8-15.21-12.94-7.35,4.29-14.7,8.58-22.05,12.88Z"/>
  </g>
  <path d="M379.35,866.89c1.79-.08,3.48.8,4.47,2.32,4.78,7.31,11.68,15.27,21.67,21,17.85,10.24,36.05,7.89,36.11,9.12.61,12.85-17.55,3.99-83.46,7.5-2.97.16-5.44-2.28-5.34-5.28.32-9.59.63-19.17.95-28.76.09-2.67,2.19-4.82,4.83-4.94,6.92-.32,13.84-.64,20.77-.95Z"/>
  <path d="M324.83,673.81v-27.74c0-7.63,5.53-14.12,13-15.25l33.51-5.07c9.76-1.48,18.89,5.21,20.52,15.04l5.25,31.48-72.28,1.54Z" style="fill: none; stroke: #a84705; stroke-miterlimit: 10; stroke-width: 9px;"/>
  <rect x="277.5" y="661.81" width="174.75" height="96.34" rx="25.47" ry="25.47" style="fill: #a04304;"/>
  <polyline points="304.45 370.28 304.33 325.41 266.69 325.52 266.81 370.38" style="fill: #f69e9b;"/>
  <path d="M312.75,306.21c.02,5.74,4.61,10.36,10.28,10.34,1.46,0,2.85-.32,4.1-.86.51-.24.99-.5,1.45-.81,2.82-1.83,4.69-5.06,4.68-8.72-.01-4.28-2.58-7.94-6.24-9.5-.63-.28-1.3-.48-1.98-.63-.67-.13-1.35-.2-2.07-.2-5.66.02-10.24,4.66-10.22,10.38Z" style="fill: #ee7f7f;"/>
  <path d="M265.52,272.45h36.32c13.43,0,24.34,10.91,24.34,24.34v36.84c0,9.73-7.9,17.64-17.64,17.64h-21.29c-16.88,0-30.58-13.7-30.58-30.58v-39.39c0-4.88,3.97-8.85,8.85-8.85Z" style="fill: #f69e9b;"/>
  <path d="M273.71,282.02c-2.78,4.15,8.09,14.58,4.99,23.12-2.77,7.65-15.91,11.43-24.63,5.85-12.06-7.72-12.38-31.26-5.04-40.47,3.13-3.93,5.94-4.2,14.77-5.82,24.63-4.52,29.18-4.16,42.85-3.74,10.66.32,20.2-6.14,21.23,3.57,1,9.43-10.11,18.82-20.68,20-19.11,2.12-30.19-7.43-33.5-2.5Z" style="fill: #4b2f38;"/>
  <path d="M244.13,310.38c0,2.34.51,4.53,1.39,6.44,0,0,.01.01,0,.03,1.95,4.17,5.67,6.99,9.96,6.97.9,0,1.77-.12,2.6-.37,4.98-1.41,8.69-6.76,8.67-13.13,0-.69-.04-1.37-.14-2.03,0,0,.01-.01,0-.03-.69-5.31-4-9.59-8.3-10.94-.93-.29-1.9-.45-2.9-.45-6.25.02-11.29,6.06-11.28,13.5Z" style="fill: #f6a2a0;"/>
  <line x1="326.18" y1="294.02" x2="314.32" y2="293.73" style="fill: none; stroke: #4b2f38; stroke-linecap: round; stroke-miterlimit: 10; stroke-width: 4px;"/>
  <line x1="301.56" y1="294.09" x2="289.7" y2="293.8" style="fill: none; stroke: #4b2f38; stroke-linecap: round; stroke-miterlimit: 10; stroke-width: 4px;"/>
  <ellipse cx="320.96" cy="305.21" rx="4.1" ry="4.14" style="fill: #4b2f38;"/>
  <ellipse cx="297.52" cy="305.27" rx="4.1" ry="4.14" style="fill: #4b2f38;"/>
  <path d="M313.54,311.21l.02,8.88c0,1.4-1.12,2.54-2.5,2.54h-4.13" style="fill: none; stroke: #4b2f38; stroke-linecap: round; stroke-linejoin: round; stroke-width: 2px;"/>
  <path d="M317.84,332.82c-.78.74-3.51,3.11-7.75,3.42-4.71.35-8-2.1-8.78-2.71" style="fill: none; stroke: #4b2f38; stroke-linecap: round; stroke-linejoin: round; stroke-width: 2px;"/>
  <path d="M261.52,311.53c.88-2.93.08-6.12-2.07-8.28s-5.31-2.95-8.21-2.05" style="fill: none; stroke: #4b2f38; stroke-linecap: round; stroke-linejoin: round;"/>
  <ellipse cx="301.56" cy="264.74" rx="17.96" ry="6.81" transform="translate(-99.72 263.22) rotate(-41.06)" style="fill: #4b2f38;"/>
  <path d="M318.92,368.99c2.68-1.35,5.3-2.21,9.82-1.31,10.37,2.06,18.17,10.74,19.72,21.3,5.81,39.56,14.05,79.69,18.01,121.55,3.35,35.39,6.14,70.1,8.44,104.09l-40.65.75c-5.37-40.69-20.71-74.78-26.08-115.47-1.55-5.41-20.5-115.21,10.74-130.91Z" style="fill: #234177;"/>
  <ellipse cx="289.7" cy="261.88" rx="18.04" ry="6.78" transform="translate(-64.57 426.2) rotate(-67)" style="fill: #4b2f38;"/>
  <path d="M354.15,573.52c1.72,41.08,4.73,84.08,9.36,128.8,6.47,62.5,15.37,121.29,25.74,176.03-13.65,2.86-27.3,5.72-40.94,8.59-6.01-17.47-17.74-51.49-32.76-94.46-49.32-141.1-64.95-180.72-43.28-203.94,8.51-9.13,28.4-21.73,81.89-15.03Z" style="fill: #243766;"/>
  <ellipse cx="252.03" cy="268.22" rx="2.58" ry="7.92" transform="translate(-106.72 350.44) rotate(-59.69)" style="fill: #4b2f38;"/>
  <path d="M323.72,560.52c-11.16,67.2-21.65,135.91-31.36,206.1-5.61,40.53-10.83,80.64-15.68,120.33-12.86-1.99-25.73-3.97-38.59-5.96-5.63-110.4-11.26-220.8-16.88-331.19,34.17,3.57,68.34,7.15,102.52,10.72Z" style="fill: #2b468b;"/>
  <path d="M244.73,364.36h51.48c27.77,0,50.32,22.55,50.32,50.32v153.34c0,4.66-3.78,8.44-8.44,8.44h-75.67c-26.17,0-47.42-21.25-47.42-47.42v-134.96c0-16.41,13.32-29.73,29.73-29.73Z" style="fill: #fff;"/>
  <ellipse cx="253.98" cy="266.46" rx="2.57" ry="7.98" transform="translate(-46.32 53.56) rotate(-11.04)" style="fill: #4b2f38;"/>
  <path d="M298.01,390.25l7.48-15.07c.64-1.29-.43-2.76-1.85-2.54l-18.99,2.86c-1.42.21-2.01,1.93-1.03,2.97l11.51,12.21c.85.9,2.33.68,2.88-.43Z" style="fill: #ff1a1a;"/>
  <path d="M266.27,350.91s-.24,5.37.26,5.82c10.06,8.99,19.06,7.38,23.23,5.97,1.04-.35,2.15.99,2.17,2.67.12,6.88-.44,17.44-4.87,20.99-6.82,5.46-13.28,3.68-26.21-24.01.72-3.92,1.79-8.2,5.42-11.44Z" style="fill: #f7f7f7;"/>
  <path d="M310.9,359.15c2.82-2.09,11.52-4.1,29.61,20.47,6.14,16.87,12.06,35.93,17.09,57.11,13.3,56.02,15.6,106.67,14.41,145.46-.08,2.64-2.07,4.83-4.78,5.38-3.14.63-6.87,1.81-10.85,4.02-5.56,3.09-9.73,7.14-12.65,10.64-.98,1.18-2.97.43-2.89-1.07,1.85-32.26,1.97-78.69-7.25-132.53-.46-59.41-30.64-103.57-22.69-109.47Z" style="fill: #234177;"/>
  <path d="M304.27,350.96c-.22,2.07.11,4.34-.1,7.48-.38,5.52-3.71,6.83-5.93,8.93,7.86,18.11,7.29,16.59,8.24,16.42,3.23-.59,6.08-7.94,5.18-15.38-.92-7.6-5.31-13.59-7.38-17.44Z" style="fill: #f7f7f7;"/>
  <path d="M406.69,523.83c4.03-8.3,21.62-12.03,37.03-9.6,7.95,1.25,18.41,7.78,18.41,19.07,0,15.05-24.06,16.56-40.18,10.54-10.16-3.79-18.42-13.48-15.25-20Z" style="fill: #f69e9b;"/>
  <polygon points="293.2 390.71 293.2 520.76 309.42 533.88 321.3 519.93 299.21 385.96 293.2 385.96 293.2 390.71" style="fill: #ff1a1a;"/>
  <path d="M257.3,355.24c-3.67-.67-6.11.95-6.11.95-3.15,2.09-3.66,6.54-3.76,8.55-13.21,1.21-31.97,4.88-38.56,18.05-5.52,11.02-.13,23.94,1.41,28.02,7.43,19.66,1.65,64.03-12.61,164.88-.51,3.57,1.81,6.95,5.31,7.68,18.75,3.95,50.01,6.84,68.59,10.8,3.15.67,6.19-1.56,6.51-4.79,3.45-34.76-1.7-63.42-.7-86.19,4.48-102.5-12.66-146.6-20.07-147.95Z" style="fill: #234177;"/>
  <path d="M240.08,879.19c-6.84.03-8.66,14-6.48,19.97,2.95,8.08,18.16,7.89,48.59,7.52,8-.1,9.66-.37,9.76-1.53,1.57-18.3-3.72-26.21-51.87-25.97Z"/>
  <path d="M207.17,390.79c-4.86,14.48,1.2,24,18.74,60.19,20.37,42.04,27.94,58.82,44.04,69.32,7.21,4.7,20.62,7.19,38.52,11.96,22.26,5.94,51.57,13.89,103.84,11.12,4.66-.25,8.42-3.98,8.72-8.68.27-4.29.49-8.56.81-12.87.2-2.66-1.51-5.1-4.07-5.75-33.9-8.72-67.81-13.51-101.71-22.58-7.59-2.03-14.02-7.16-17.75-14.14-16.5-30.86-25.81-58.23-40.26-93.03-1.29-.74-14.18-23.95-32.14-17.04-13.23,5.09-17.19,16.87-18.74,21.5Z" style="fill: #243766;"/>
</svg>