<?xml version="1.0" encoding="UTF-8"?>
<svg id="Layer_57" xmlns="http://www.w3.org/2000/svg" viewBox="0 0 1024 1024">
  <rect x="132.99" y="246.54" width="455.57" height="557.22" rx="13.79" ry="13.79" transform="translate(-108.7 94.41) rotate(-12.98)" style="fill: #192f35;"/>
  <line x1="258.98" y1="353.57" x2="395.51" y2="322.12" style="fill: none; stroke: #c4c4c4; stroke-linecap: round; stroke-linejoin: round; stroke-width: 16px;"/>
  <line x1="206.63" y1="412.06" x2="456.66" y2="354.45" style="fill: none; stroke: #c4c4c4; stroke-linecap: round; stroke-linejoin: round; stroke-width: 16px;"/>
  <line x1="215.57" y1="450.86" x2="465.6" y2="393.25" style="fill: none; stroke: #c4c4c4; stroke-linecap: round; stroke-linejoin: round; stroke-width: 16px;"/>
  <line x1="185.61" y1="578.47" x2="554.51" y2="493.47" style="fill: none; stroke: #c4c4c4; stroke-linecap: round; stroke-linejoin: round; stroke-width: 16px;"/>
  <line x1="195.77" y1="622.56" x2="564.67" y2="537.56" style="fill: none; stroke: #c4c4c4; stroke-linecap: round; stroke-linejoin: round; stroke-width: 16px;"/>
  <line x1="205.92" y1="666.64" x2="447.35" y2="611.02" style="fill: none; stroke: #c4c4c4; stroke-linecap: round; stroke-linejoin: round; stroke-width: 16px;"/>
  <line x1="224.79" y1="781.78" x2="431.23" y2="734.21" style="fill: none; stroke: #000; stroke-linecap: round; stroke-linejoin: round; stroke-width: 2px;"/>
  <path d="M323.16,728.24c.2-3.38.13-9.79-2.96-16.93-3.77-8.73-9.9-13.64-12.72-15.62,15.4,72.25,13.96,93.18,7.82,95.38-7.03,2.52-26.07-17.49-22.43-33.2,1.69-7.3,8.65-15.33,16.11-14.72,7.51.62,15.02,9.99,14.37,22.79,1.47-8.2,2.93-16.4,4.4-24.6,1.57,2.26,3.14,4.52,4.71,6.78,3.02-5.1,6.04-10.2,9.06-15.3.25,3.09,1.5,4.56,2.13,5.17,3.34,3.19,10.75,2.54,17.6-2.8-9.47,5.75-18.95,11.49-28.42,17.24,9.92-1.97,21.15-4.2,30.37-6.34" style="fill: none; stroke: #fff; stroke-linecap: round; stroke-linejoin: round; stroke-width: 4px;"/>
  <rect x="457.59" y="217.32" width="455.57" height="557.22" rx="13.79" ry="13.79" transform="translate(86.15 -101.24) rotate(9.01)" style="fill: #a6c626;"/>
  <line x1="655.23" y1="298.72" x2="793.6" y2="320.67" style="fill: none; stroke: #192f35; stroke-linecap: round; stroke-linejoin: round; stroke-width: 16px;"/>
  <line x1="584.79" y1="333.36" x2="838.2" y2="373.55" style="fill: none; stroke: #192f35; stroke-linecap: round; stroke-linejoin: round; stroke-width: 16px;"/>
  <line x1="578.55" y1="372.68" x2="831.96" y2="412.87" style="fill: none; stroke: #192f35; stroke-linecap: round; stroke-linejoin: round; stroke-width: 16px;"/>
  <line x1="502.99" y1="479.79" x2="876.89" y2="539.1" style="fill: none; stroke: #192f35; stroke-linecap: round; stroke-linejoin: round; stroke-width: 16px;"/>
  <line x1="495.9" y1="524.47" x2="869.8" y2="583.78" style="fill: none; stroke: #192f35; stroke-linecap: round; stroke-linejoin: round; stroke-width: 16px;"/>
  <line x1="481.82" y1="579.16" x2="726.51" y2="617.97" style="fill: none; stroke: #192f35; stroke-linecap: round; stroke-linejoin: round; stroke-width: 16px;"/>
  <circle cx="806.55" cy="710.66" r="32.46" style="fill: #192f35;"/>
  <polyline points="789.53 714.32 799.43 725.43 825.69 700.27" style="fill: none; stroke: #fff; stroke-linecap: round; stroke-linejoin: round; stroke-width: 9px;"/>
  <rect x="297.29" y="185.6" width="455.57" height="557.22" rx="13.79" ry="13.79" style="fill: #ea550f;"/>
  <line x1="464.4" y1="274.15" x2="604.5" y2="274.15" style="fill: none; stroke: #192f35; stroke-linecap: round; stroke-linejoin: round; stroke-width: 16px;"/>
  <line x1="400.26" y1="319.4" x2="656.83" y2="319.4" style="fill: none; stroke: #192f35; stroke-linecap: round; stroke-linejoin: round; stroke-width: 16px;"/>
  <line x1="400.26" y1="359.21" x2="656.83" y2="359.21" style="fill: none; stroke: #192f35; stroke-linecap: round; stroke-linejoin: round; stroke-width: 16px;"/>
  <line x1="342.41" y1="476.83" x2="720.98" y2="476.83" style="fill: none; stroke: #192f35; stroke-linecap: round; stroke-linejoin: round; stroke-width: 16px;"/>
  <line x1="342.41" y1="522.08" x2="720.98" y2="522.08" style="fill: none; stroke: #192f35; stroke-linecap: round; stroke-linejoin: round; stroke-width: 16px;"/>
  <line x1="342.41" y1="567.32" x2="590.16" y2="567.32" style="fill: none; stroke: #192f35; stroke-linecap: round; stroke-linejoin: round; stroke-width: 16px;"/>
  <circle cx="678.38" cy="657.3" r="32.46" style="fill: #a6c626;"/>
  <line x1="334.94" y1="683.75" x2="546.79" y2="683.75" style="fill: none; stroke: #000; stroke-linecap: round; stroke-linejoin: round; stroke-width: 2px;"/>
  <polyline points="662.15 663.58 673.67 673.01 695.66 644.04" style="fill: none; stroke: #fff; stroke-linecap: round; stroke-linejoin: round; stroke-width: 9px;"/>
  <path d="M442.82,653.67c.96-3.25,2.32-9.51.92-17.16-1.71-9.35-6.59-15.51-8.89-18.08-1.22,73.86-7.32,93.93-13.79,94.7-7.42.88-21.47-22.9-14.4-37.39,3.28-6.73,11.88-13,19-10.73,7.18,2.29,12.4,13.1,8.89,25.44,3.27-7.66,6.54-15.32,9.81-22.99,1.02,2.55,2.04,5.11,3.06,7.66,4.09-4.29,8.17-8.58,12.26-12.87-.45,3.07.44,4.78.92,5.52,2.54,3.86,9.91,4.89,17.78,1.23-10.52,3.47-21.04,6.95-31.57,10.42,10.11.31,21.55.66,31.02.64" style="fill: none; stroke: #fff; stroke-linecap: round; stroke-linejoin: round; stroke-width: 4px;"/>
</svg>