<?xml version="1.0" encoding="UTF-8"?>
<svg id="Layer_57" xmlns="http://www.w3.org/2000/svg" viewBox="0 0 1024 1024">
  <rect x="138.66" y="673.8" width="289.84" height="182.18" style="fill: #a6c626;"/>
  <path d="M94.81,684.15h71.77v149.68h-61.89c-5.45,0-9.87-4.42-9.87-9.87v-139.81h0Z" transform="translate(71.87 -8.92) rotate(5.39)" style="fill: #ffaa9c;"/>
  <path d="M458.47,647.97h71.77v149.68h-61.89c-5.45,0-9.87-4.42-9.87-9.87v-139.81h0Z" transform="translate(-380.71 689.43) rotate(-53.45)" style="fill: #ffaa9c;"/>
  <path d="M132.68,614.51h34.26c13.24,0,23.99,10.75,23.99,23.99v118.82c0,4.43-3.59,8.02-8.02,8.02h-80.7c-2.74,0-4.96-2.22-4.96-4.96v-110.42c0-19.56,15.88-35.44,35.44-35.44Z" transform="translate(104.1 -13.75) rotate(8.54)" style="fill: #a6c626;"/>
  <path d="M395.08,598.23h80.7c4.43,0,8.02,3.59,8.02,8.02v130.5c0,13.24-10.75,23.99-23.99,23.99h-32.9c-20.31,0-36.8-16.49-36.8-36.8v-120.75c0-2.74,2.22-4.96,4.96-4.96Z" transform="translate(1242.98 734.01) rotate(126.61)" style="fill: #a6c626;"/>
  <polyline points="132.52 614.91 203.74 589.62 267.9 577.68 323.36 585.54 386.42 605.32 420.63 614.91 444.19 629.91 412.52 722.25 149.92 707.13 132.52 617.54" style="fill: #a6c626;"/>
  <rect x="235.88" y="515.85" width="81.39" height="112.05" style="fill: #f9a293;"/>
  <path d="M317.29,527.81v26.2c-8.75,6.22-20.32,10.65-36.21,12.85-5.96.84-12.03.77-17.98-.31-11.4-2.05-20.2-5.23-27.22-9.57v-29.17h81.41Z" style="fill: #ef8c7b;"/>
  <path d="M295,552.01c-5.88,1.32-11.94,1.75-17.94,1.18-38.54-3.72-49.42-22.49-60.69-52.55-2.08-5.56-3.48-11.34-4.24-17.19l-10.56-82.58,152.01-12.47,1.03,78.89c.14,10.23-.91,20.46-3.38,30.45-6.56,26.62-18.37,45.74-56.23,54.25v.02Z" style="fill: #ffab99;"/>
  <path d="M209.66,407.18c4.37-.15,7.26-3.93,8.55-5.19,9.68-9.42,44.27,20.3,73.28,22.79,38.25,3.28,80.93-17.96,87.72-47.96,3.84-16.99-6.35-36.26-19.5-46.28-26.15-19.89-75.34-11.7-115.92,27.45,3.49-17.19.92-22.67-2.01-24.51-9.13-5.77-37.65,13.42-44.69,38.81-.87,3.13-5.2,19.99,3.18,29.65.98,1.12,4.65,5.38,9.4,5.21v.02Z" style="fill: #131c38;"/>
  <path d="M200.4,392.44c-3.65,5.65-12.37,20.77-11.8,41.62.48,17.12,6.93,28,16.37,43.91,2.13,3.58,4.87,7.69,7.23,7.19,2.59-.56,3.35-6.58,3.68-9.29,1.93-16.36-2.49-53.41-5.03-72.61-3.48-3.61-6.97-7.21-10.45-10.82h0Z" style="fill: #131c38;"/>
  <path d="M358.04,399.07c3.6,3.99,12.38,14.81,13.86,30.77,1.21,13.1-3.21,21.95-9.66,34.9-1.46,2.91-3.38,6.28-5.42,6.09-2.23-.21-3.44-4.74-3.97-6.77-3.17-12.33-2.91-40.98-2.59-55.84,2.6-3.04,5.19-6.1,7.79-9.14h-.02Z" style="fill: #131c38;"/>
  <path d="M314.71,496.2c2.03-.17,3.68,1.57,3.45,3.59-1.37,11.46-12.9,21.07-27.63,22.28-14.73,1.21-27.67-6.41-30.89-17.48-.57-1.94.79-3.94,2.82-4.11l52.25-4.28h0Z" style="fill: #fff7f1;"/>
  <path d="M296.31,460.9l1.26,15.35c.17,2.11-1.39,3.95-3.5,4.13l-1.98.16" style="fill: none; stroke: #000; stroke-linecap: round; stroke-miterlimit: 10;"/>
  <ellipse cx="205.51" cy="482.82" rx="14.54" ry="27.67" transform="translate(-158.44 104.81) rotate(-20.86)" style="fill: #ffab99;"/>
  <ellipse cx="360.06" cy="467.57" rx="27.67" ry="14.54" transform="translate(-169.82 727.35) rotate(-78.52)" style="fill: #ffab99;"/>
  <path d="M213.32,482.63c-2.14-4.73-4.27-9.47-6.41-14.2-1.28-2.84-4.26-4.69-7.34-4.2h-.1c-3.18.56-5.8,3.06-6.76,6.41" style="fill: none; stroke: #f28472; stroke-linecap: round; stroke-miterlimit: 10;"/>
  <path d="M354.19,471.52c1.34-5.01,2.67-10.04,4.01-15.06.8-3.01,3.44-5.32,6.56-5.34h.1c3.23.02,6.22,2.05,7.71,5.21" style="fill: none; stroke: #f28472; stroke-linecap: round; stroke-miterlimit: 10;"/>
  <line x1="241.99" y1="439.37" x2="275.87" y2="436.59" style="fill: none; stroke: #111; stroke-linecap: round; stroke-miterlimit: 10; stroke-width: 5px;"/>
  <line x1="307.46" y1="434" x2="341.34" y2="431.22" style="fill: none; stroke: #111; stroke-linecap: round; stroke-miterlimit: 10; stroke-width: 5px;"/>
  <circle cx="259.88" cy="459.78" r="7.53"/>
  <circle cx="322.89" cy="454.62" r="7.53"/>
  <path d="M235.28,583.95c10.29,14.3,25.9,29.64,36.19,43.95-10.51,10.51-23.03,20.44-36.85,30.51-13.19-23.92-26.39-47.85-39.58-71.77l40.24-2.68Z" style="fill: #f8ffff;"/>
  <path d="M316.11,585.08c-11.6,14.15-25.59,28.24-38.01,42.82,10.51,10.51,24.34,19.59,38.68,31.64,13.19-23.92,26.39-47.85,39.58-71.77l-40.24-2.68Z" style="fill: #f8ffff;"/>
  <path d="M348.91,832.66c-.28-7.7-7.49-14.59-16.57-15.81-29.98-4.02-63.92-8.75-73.76-9.73-54.41-5.44-90.81-10.43-144.64-13.33-1.74-.09-3.47.03-5.11.38-14.11,3.01-16.76,8.42-19.65,20.16-3.4,13.76,5.63,26.62,9.25,29.67,12.59,10.63,53.35,11.62,81.05,11.91,34.47.36,76.21-.15,157.57-9.76,7.45-.88,12.12-6.75,11.88-13.26,0-.08,0-.16,0-.23Z" style="fill: #ffaa9c;"/>
  <path d="M640.8,606.12c6.59,3.72,9.22,11.88,6.02,18.73-10.57,22.65-22.38,48.38-26.15,55.66-20.8,40.27-33.55,67.82-56.29,106.52-.73,1.25-1.66,2.4-2.73,3.37-9.25,8.42-15.22,7.78-26.83,4.42-13.61-3.94-20.59-16.09-21.56-19.99-3.37-13.6,14.92-42.36,27.67-61.72,15.87-24.1,35.92-52.84,82.52-104.93,4.26-4.77,11.58-5.32,17.15-2.18.07.04.13.08.2.11Z" style="fill: #ffaa9c;"/>
  <line x1="66.11" y1="855.98" x2="950.02" y2="855.98" style="fill: none; stroke: #232323; stroke-linecap: round; stroke-linejoin: round; stroke-width: 5px;"/>
  <path d="M609.19,626.34c-.75-5.27,3.92-6.05,5.94-16.54,1.55-8.08-.41-11.81,2.63-16.47,2.58-3.96,6.89-5.7,9.87-6.55l18.59,1.69c2.39.22,4.56-1.39,5.03-3.74,1.61-7.94,3.57-18.57,4.61-26.06.22-1.55,1.47-2.75,3.03-2.9,8.22-.77,16.98-1.55,25.24-2.32,1.91-.18,3.6,1.26,3.71,3.18.51,8.91.99,20.16,1.63,28.49.04.5.75.55.86.06,2.59-11.65,3.93-16.41,6.72-29.21.81-1.7,2.4-2.83,4.03-2.82,2.29,0,4.5,2.24,4.47,5.2-4.56,20.5-7.43,31.67-11.99,52.17-1.48,2.05-4.13,5.28-8.25,8.06-15.84,10.69-34.16,1.76-41.9,12.12-3.22,4.31-1.12,7.29-4.55,9.73-7.9,5.61-28.18-3.6-29.68-14.08Z" style="fill: #ffaa9c;"/>
  <path d="M323.13,845.68c4.2,3.26,10.75,4.08,20.86,7.52,7.79,2.65,8.62,4.87,14.26,6.28,4.59,1.14,6.86,1.24,12.4-1.84l9.89-3.97c4.66-1.87,9.78-2.24,14.66-1.08,6.33,1.5,11.83,3.17,16.96,5.13,2.03.78,4.31.06,5.53-1.74,3.44-5.08,5.46-8.53,8.76-13.44,1.45-2.15.84-5.08-1.34-6.49-7.34-4.73-16.36-10.41-22.96-14.88-.4-.27-.05-1,.37-.75,9.96,5.91,13.35,7.63,24.79,14.37,1.88.14,3.64-.68,4.45-2.11,1.12-1.99.28-5.02-2.31-6.46-18.65-11.42-27.21-14.95-47.28-21.13-2.51.27-6.63.98-11.09,3.18-17.13,8.48-18.42,8.4-31.26,9.99-5.34.66-9.06-2.45-12.88-.67-8.78,4.09-12.19,21.59-3.82,28.07Z" style="fill: #ffaa9c;"/>
  <path d="M386.9,735.69h-.9v-4.09c0-1.21-.98-2.19-2.19-2.19s-2.19.98-2.19,2.19v4.09h-.91c-1,0-1.82.81-1.82,1.82v33.67c0,1.1.89,2,2,2h.74v3.63c0,1.21.98,2.19,2.19,2.19s2.19-.98,2.19-2.19v-3.63h.72c1.1,0,2-.89,2-2v-33.67c0-1-.81-1.82-1.82-1.82Z" style="fill: #a6c626;"/>
  <path d="M458.09,704.47h-.9v-4.09c0-1.21-.98-2.19-2.19-2.19s-2.19.98-2.19,2.19v4.09h-.91c-1,0-1.82.81-1.82,1.82v33.67c0,1.1.89,2,2,2h.74v3.63c0,1.21.98,2.19,2.19,2.19s2.19-.98,2.19-2.19v-3.63h.72c1.1,0,2-.89,2-2v-33.67c0-1-.81-1.82-1.82-1.82Z" style="fill: #a6c626;"/>
  <path d="M421.72,687.38h-.9v-4.09c0-1.21-.98-2.19-2.19-2.19s-2.19.98-2.19,2.19v4.09h-.91c-1,0-1.82.81-1.82,1.82v33.67c0,1.1.89,2,2,2h.74v3.63c0,1.21.98,2.19,2.19,2.19s2.19-.98,2.19-2.19v-3.63h.72c1.1,0,2-.89,2-2v-33.67c0-1-.81-1.82-1.82-1.82Z" style="fill: #a6c626;"/>
  <circle cx="551.22" cy="462.53" r="81.9" style="fill: #ea550f;"/>
  <circle cx="682.32" cy="312.69" r="81.9" style="fill: #ea550f;"/>
  <circle cx="825.77" cy="462.53" r="81.9" style="fill: #ea550f;"/>
  <g>
    <line x1="519.6" y1="494" x2="580.83" y2="494" style="fill: none; stroke: #fff; stroke-linecap: round; stroke-linejoin: round; stroke-width: 7px;"/>
    <line x1="529.81" y1="480.4" x2="529.81" y2="456.58" style="fill: none; stroke: #fff; stroke-linecap: round; stroke-linejoin: round; stroke-width: 7px;"/>
    <line x1="543.42" y1="480.4" x2="543.42" y2="456.58" style="fill: none; stroke: #fff; stroke-linecap: round; stroke-linejoin: round; stroke-width: 7px;"/>
    <line x1="557.02" y1="480.4" x2="557.02" y2="456.58" style="fill: none; stroke: #fff; stroke-linecap: round; stroke-linejoin: round; stroke-width: 7px;"/>
    <line x1="570.63" y1="480.4" x2="570.63" y2="456.58" style="fill: none; stroke: #fff; stroke-linecap: round; stroke-linejoin: round; stroke-width: 7px;"/>
    <polygon points="550.22 425.97 577.43 442.98 523.01 442.98 550.22 425.97" style="fill: none; stroke: #fff; stroke-linecap: round; stroke-linejoin: round; stroke-width: 7px;"/>
  </g>
  <g>
    <path d="M697.47,327.84l11.36-30.3,11.36,30.3c-3.29,2.46-7.27,3.79-11.36,3.79s-8.07-1.33-11.36-3.79Z" style="fill: none; stroke: #fff; stroke-linecap: round; stroke-linejoin: round; stroke-width: 7px;"/>
    <path d="M644.45,327.84l11.36-30.3,11.36,30.3c-3.29,2.46-7.27,3.79-11.36,3.79s-8.07-1.33-11.36-3.79Z" style="fill: none; stroke: #fff; stroke-linecap: round; stroke-linejoin: round; stroke-width: 7px;"/>
    <path d="M663.39,346.77h37.87" style="fill: none; stroke: #fff; stroke-linecap: round; stroke-linejoin: round; stroke-width: 7px;"/>
    <path d="M682.32,278.6v68.17" style="fill: none; stroke: #fff; stroke-linecap: round; stroke-linejoin: round; stroke-width: 7px;"/>
    <path d="M648.24,293.75h7.57c7.57,0,18.94-3.79,26.51-7.57,7.57,3.79,18.94,7.57,26.51,7.57h7.57" style="fill: none; stroke: #fff; stroke-linecap: round; stroke-linejoin: round; stroke-width: 7px;"/>
  </g>
  <rect x="836.82" y="477.44" width="33.56" height="6.26" rx="2.02" ry="2.02" style="fill: #fff;"/>
  <rect x="784.55" y="452.76" width="53.63" height="6.26" rx="2.02" ry="2.02" transform="translate(-67.2 762.91) rotate(-48.59)" style="fill: #fff;"/>
  <rect x="778.83" y="469.03" width="34.68" height="9.15" rx="2.02" ry="2.02" transform="translate(-85.64 757.51) rotate(-48.59)" style="fill: #fff;"/>
  <rect x="781.07" y="472.4" width="21.53" height="12.3" rx="2.02" ry="2.02" transform="translate(-90.81 755.94) rotate(-48.59)" style="fill: #fff;"/>
  <rect x="817.86" y="415.53" width="21.53" height="39.46" rx="2.02" ry="2.02" transform="translate(-45.89 768.88) rotate(-48.59)" style="fill: #fff;"/>
  <rect x="830.28" y="483.7" width="47.21" height="6.26" rx="2.02" ry="2.02" style="fill: #fff;"/>
  <circle cx="594.62" cy="394.42" r="13.79" style="fill: #a6c626;"/>
  <circle cx="722.62" cy="242.25" r="13.79" style="fill: #a6c626;"/>
  <circle cx="864.58" cy="388.4" r="13.79" style="fill: #a6c626;"/>
  <polyline points="587.17 397.11 592.66 400.17 600.96 388.81" style="fill: none; stroke: #fff; stroke-linecap: round; stroke-linejoin: round; stroke-width: 2px;"/>
  <polyline points="715.73 244.86 721.21 247.93 729.51 236.57" style="fill: none; stroke: #fff; stroke-linecap: round; stroke-linejoin: round; stroke-width: 2px;"/>
  <polyline points="857.68 391.01 863.17 394.08 871.47 382.72" style="fill: none; stroke: #fff; stroke-linecap: round; stroke-linejoin: round; stroke-width: 2px;"/>
</svg>