<?xml version="1.0" encoding="UTF-8"?>
<svg id="Layer_59" xmlns="http://www.w3.org/2000/svg" xmlns:xlink="http://www.w3.org/1999/xlink" viewBox="0 0 1024 1024">
  <defs>
    <image id="image" width="1024" height="1024" xlink:href="../../../../../../Downloads/Techysquad-Logo-01.png"/>
  </defs>
  <circle cx="521.45" cy="174.7" r="58.23" style="fill: #fff;"/>
  <path d="M556.14,578.66h12.38c25.76,0,46.67,20.91,46.67,46.67v202.52c0,6.62-5.38,12-12,12h-47.05c-6.62,0-12-5.38-12-12v-237.19c0-6.62,5.38-12,12-12Z" transform="translate(-285.33 407.87) rotate(-31.53)" style="fill: #89a514;"/>
  <rect x="431.14" y="562.43" width="65.98" height="90.84" style="fill: #f9a293;"/>
  <path d="M497.13,572.13v21.24c-7.09,5.04-16.47,8.63-29.35,10.42-4.83.68-9.75.62-14.57-.25-9.24-1.66-16.37-4.24-22.07-7.76v-23.65h66Z" style="fill: #ef8c7b;"/>
  <path d="M479.06,591.75c-4.76,1.07-9.68,1.42-14.54.96-31.24-3.01-40.07-18.23-49.19-42.6-1.69-4.5-2.82-9.19-3.44-13.94l-8.56-66.95,123.22-10.11.84,63.95c.11,8.29-.74,16.59-2.74,24.69-5.32,21.58-14.89,37.08-45.58,43.98h0Z" style="fill: #ffab99;"/>
  <path d="M411.78,473.3c3.49-.12,5.8-3.14,6.83-4.15,7.74-7.53,35.38,16.22,58.57,18.22,30.57,2.62,64.68-14.35,70.11-38.33,3.07-13.58-5.07-28.98-15.58-36.99-20.9-15.9-60.22-9.35-92.65,21.94,2.79-13.74.74-18.12-1.61-19.59-7.3-4.61-30.09,10.72-35.72,31.02-.7,2.5-4.15,15.98,2.54,23.7.78.89,3.72,4.3,7.51,4.17h0Z" style="fill: #131c38;"/>
  <path d="M402.38,462.39c-2.96,4.58-10.03,16.83-9.56,33.74.39,13.88,5.61,22.7,13.27,35.59,1.73,2.9,3.94,6.24,5.86,5.83,2.1-.45,2.72-5.34,2.98-7.53,1.57-13.26-2.02-43.3-4.08-58.86-2.83-2.92-5.65-5.85-8.48-8.77h0Z" style="fill: #131c38;"/>
  <path d="M530.17,467.77c2.92,3.24,10.03,12.01,11.23,24.95.98,10.62-2.6,17.8-7.83,28.29-1.18,2.36-2.74,5.09-4.39,4.93-1.81-.17-2.79-3.84-3.22-5.49-2.57-9.99-2.36-33.22-2.1-45.27,2.11-2.47,4.21-4.95,6.31-7.41h-.01Z" style="fill: #131c38;"/>
  <path d="M495.04,546.51c1.64-.13,2.98,1.27,2.8,2.91-1.11,9.29-10.46,17.08-22.4,18.06-11.94.98-22.43-5.19-25.04-14.17-.46-1.57.64-3.19,2.28-3.33l42.36-3.47h0Z" style="fill: #fff7f1;"/>
  <path d="M480.13,517.89l1.02,12.44c.14,1.71-1.13,3.21-2.84,3.35l-1.6.13" style="fill: none; stroke: #000; stroke-linecap: round; stroke-miterlimit: 10;"/>
  <ellipse cx="406.51" cy="535.66" rx="11.79" ry="22.43" transform="translate(-164.08 179.84) rotate(-20.86)" style="fill: #ffab99;"/>
  <ellipse cx="531.81" cy="523.29" rx="22.43" ry="11.79" transform="translate(-86.88 940.29) rotate(-78.52)" style="fill: #ffab99;"/>
  <path d="M412.85,535.51c-1.73-3.83-3.47-7.68-5.2-11.51-1.04-2.31-3.45-3.8-5.95-3.4h-.08c-2.58.45-4.7,2.48-5.48,5.2" style="fill: none; stroke: #f28472; stroke-linecap: round; stroke-miterlimit: 10;"/>
  <path d="M527.05,526.5c1.08-4.06,2.17-8.14,3.25-12.21.65-2.44,2.79-4.32,5.32-4.33h.08c2.61.02,5.04,1.66,6.25,4.22" style="fill: none; stroke: #f28472; stroke-linecap: round; stroke-miterlimit: 10;"/>
  <line x1="436.09" y1="500.44" x2="463.55" y2="498.18" style="fill: none; stroke: #111; stroke-linecap: round; stroke-miterlimit: 10; stroke-width: 5px;"/>
  <line x1="489.16" y1="496.08" x2="516.62" y2="493.83" style="fill: none; stroke: #111; stroke-linecap: round; stroke-miterlimit: 10; stroke-width: 5px;"/>
  <circle cx="450.59" cy="516.98" r="6.1"/>
  <circle cx="501.67" cy="512.8" r="6.1"/>
  <path d="M431.2,596.02c6.85,4.32,1.17,12.61,29.52,26.58,15.66,7.72,34.3.63,36.4-14.7.49-3.58-.36-7.35.13-10.93,5.12-1.33,15.28-2.07,21.23.58,4.06,1.81,5.68,4.77,6.29,5.93,34.33,65.2,28.32,130.4,28.32,130.4-2.71,29.37-6.32,73.66-9.44,134.85-34.96-.25-69.92-.49-104.88-.74,5.75-33.84,9.1-81.86-4.2-137.81-17.12-72.04-16.76-135.48-3.37-134.16Z" style="fill: #fafafa;"/>
  <path d="M420.54,603.15c15.23.84,26.47,30.49,28.82,36.87,2.08,9.73,4.44,20.42,16.39,56.74,25.39,77.23,9.29,143.5-1.74,176.39-41.33-.81-71.75.81-113.08,0-3.28-76.17-5.23-121.02,5.51-197.93,1.17-6.39-10.41-30.41-3.02-43.37,6.2-10.88,48.7-29.7,67.13-28.68Z" style="fill: #a6c626;"/>
  <path d="M565.8,708.34c.62,6.56,1.18,13.16,1.67,19.83,3.73,50.33,3.36,98.47,0,144.1-12.45.29-24.91.58-37.36.87,5.07-48.44,4.9-90.95,2.8-125.63-4.4-72.83-6.59-109.25-19.51-132.01-2.24-3.95-20.79-14.78-15.56-19.18,4.71-3.96,28.25-1.46,31.16-.16,32.79,14.61,36.42,83.1,36.78,112.19Z" style="fill: #a6c626;"/>
  <path d="M523.15,814.95c7.86-3.63,10.57.47,32.71-.33,20.39-.73,29.51-4.62,37.89.65,3.62,2.28,5.14,5.03,7.18,8.83,2.93,5.47,7.73,17.15,3.99,34.35-1.47,9.29-5.42,12.46-8.38,13.74-12.85,5.57-27.76-15.52-63.42-19.96-11.89-1.48-17.77-.07-21.94-4.25-7.71-7.74-1.74-26.72,11.97-33.05Z" style="fill: #f69e9b;"/>
  <path d="M369.51,621.82c-12,3.42-18.4,12.29-20.75,16.13-.4.65-.66,1.36-.79,2.1-8.67,48.48-17.34,96.96-26.01,145.44-.05.28-.08.55-.09.83-.28,6.82.51,17.6,7.68,27.5,9.84,13.58,26.45,18.27,37.78,21.06,49.79,12.27,129.28,20.41,151.87,22.57,2.78.27,5.38-1.39,6.32-4.03,3.86-10.86,7.73-21.72,11.59-32.58,1.17-3.29-.65-6.89-3.99-7.9-41.78-12.56-83.55-25.11-125.33-37.67-3.05-.92-4.89-4.04-4.2-7.15,6.71-30.65,13.43-61.29,20.14-91.94.51-2.52,4.85-26.25-13.69-42.61-2.21-1.95-19.95-17.61-40.52-11.75Z" style="fill: #89a514;"/>
  <path d="M740.47,874.94h-186.52c-7.42,0-12.68-7.19-10.35-14.17l42.88-128.88c1.47-4.43,5.65-7.42,10.35-7.42h186.52c7.42,0,12.68,7.19,10.35,14.17l-42.88,128.88c-1.47,4.43-5.65,7.42-10.35,7.42Z" style="fill: #192f35;"/>
  <line x1="487.46" y1="868.1" x2="558.52" y2="868.1" style="fill: none; stroke: #192f35; stroke-linecap: round; stroke-miterlimit: 10; stroke-width: 15px;"/>
  <use transform="translate(654.58 770.97) rotate(2.01) scale(.04)" xlink:href="#image"/>
  <path d="M540.37,140.68h0c3.55,0,6.43,2.88,6.43,6.43v16.74c0,3.55-2.88,6.43-6.43,6.43h0c-7.02,0-12.72-5.7-12.72-12.72v-4.16c0-7.02,5.7-12.72,12.72-12.72Z" transform="translate(856.95 614.34) rotate(-141.01)" style="fill: #192f35;"/>
  <path d="M509.73,176.26h0c3.28,0,5.94,2.66,5.94,5.94v17.72c0,3.28-2.66,5.94-5.94,5.94h0c-7.34,0-13.3-5.96-13.3-13.3v-2.98c0-7.34,5.96-13.3,13.3-13.3Z" transform="translate(779.15 657.96) rotate(-141.01)" style="fill: #192f35;"/>
  <path d="M541.19,156.57c.45.94,4.67,10.97-4.02,23.35-7.51,10.69-17.38,19.44-30.29,15.39" style="fill: none; stroke: #192f35; stroke-miterlimit: 10; stroke-width: 11px;"/>
  <rect x="101.73" y="189.13" width="198.29" height="242.53" rx="13.79" ry="13.79" style="fill: #192f35;"/>
  <line x1="174.47" y1="227.67" x2="235.45" y2="227.67" style="fill: none; stroke: #527077; stroke-linecap: round; stroke-linejoin: round; stroke-width: 9px;"/>
  <line x1="146.55" y1="247.36" x2="258.22" y2="247.36" style="fill: none; stroke: #527077; stroke-linecap: round; stroke-linejoin: round; stroke-width: 9px;"/>
  <line x1="146.55" y1="264.69" x2="258.22" y2="264.69" style="fill: none; stroke: #527077; stroke-linecap: round; stroke-linejoin: round; stroke-width: 9px;"/>
  <line x1="121.37" y1="315.89" x2="286.14" y2="315.89" style="fill: none; stroke: #527077; stroke-linecap: round; stroke-linejoin: round; stroke-width: 9px;"/>
  <line x1="121.37" y1="335.58" x2="286.14" y2="335.58" style="fill: none; stroke: #527077; stroke-linecap: round; stroke-linejoin: round; stroke-width: 9px;"/>
  <line x1="121.37" y1="355.27" x2="229.2" y2="355.27" style="fill: none; stroke: #527077; stroke-linecap: round; stroke-linejoin: round; stroke-width: 9px;"/>
  <circle cx="267.6" cy="394.44" r="14.13" style="fill: #ea550f;"/>
  <line x1="118.12" y1="405.95" x2="210.33" y2="405.95" style="fill: none; stroke: #3e5a60; stroke-linecap: round; stroke-linejoin: round; stroke-width: 2px;"/>
  <polyline points="260.54 397.17 265.55 401.27 275.12 388.66" style="fill: none; stroke: #fff; stroke-linecap: round; stroke-linejoin: round; stroke-width: 4px;"/>
  <path d="M165.08,392.85c.42-1.41,1.01-4.14.4-7.47-.75-4.07-2.87-6.75-3.87-7.87-.53,32.15-3.19,40.88-6,41.22-3.23.38-9.35-9.97-6.27-16.27,1.43-2.93,5.17-5.66,8.27-4.67,3.12,1,5.4,5.7,3.87,11.07,1.42-3.33,2.85-6.67,4.27-10,.44,1.11.89,2.22,1.33,3.33,1.78-1.87,3.56-3.73,5.34-5.6-.2,1.34.19,2.08.4,2.4,1.11,1.68,4.31,2.13,7.74.53l-13.74,4.54c4.4.13,9.38.29,13.5.28" style="fill: none; stroke: #fff; stroke-linecap: round; stroke-linejoin: round; stroke-width: 2px;"/>
  <rect x="730.3" y="189.13" width="193.02" height="242.53" rx="13.74" ry="13.74" style="fill: #192f35;"/>
  <use transform="translate(797.39 279.98) scale(.05)" xlink:href="#image"/>
  <polyline points="725.02 306.93 547.94 306.93 523.72 252.7 502.89 361.47 489.16 273.64 471.74 306.93 306.3 306.93" style="fill: none; stroke: #eaeaea; stroke-linecap: round; stroke-linejoin: round; stroke-width: 5px;"/>
  <line x1="126.04" y1="873.13" x2="935.91" y2="874.94" style="fill: none; stroke: #2b2b2b; stroke-miterlimit: 10; stroke-width: 5px;"/>
</svg>