<?xml version="1.0" encoding="UTF-8"?>
<svg id="Layer_18" xmlns="http://www.w3.org/2000/svg" viewBox="0 0 1024 1024">
  <rect x="536.49" y="268.66" width="45.18" height="75.82" style="fill: #ffaca9;"/>
  <path d="M581.67,268.66v39.4c-1.87.46-3.79.79-5.74.98-13.95,1.36-28.33-8.16-39.44-22.35v-18.02h45.18Z" style="fill: #fc9292;"/>
  <path d="M570.92,176.86c-5.27.27-34.69-.02-44.81,20.26-16.71,33.46,3.27,101.66,42.6,104.07,57.16,3.5,65.25-62.19,56.53-101.64-4.52-20.46-36.97-23.59-54.31-22.69Z" style="fill: #ffaca9;"/>
  <path d="M581.92,211.68l.89-5.86c.14-.93-.53-1.81-1.51-1.96l-6.49-.98c-.97-.15-1.88.49-2.02,1.42l-.89,5.86c-.18,1.17-1.31,1.96-2.53,1.78l-50.6-7.67c-2.98-.45-4.89-3.37-4.17-6.3,7.56-30.94,37.64-51.54,69.77-46.66,32.97,5,55.94,34.98,52.6,67.77-.17,1.67-1.75,2.86-3.48,2.6l-49.68-7.54c-1.22-.18-2.06-1.28-1.89-2.45Z" style="fill: #8e3951;"/>
  <path d="M548.31,181.7l-10.18,42.07c-.97,4.02-5.88,5.84-9.77,3.66-10.44-5.85-16.31-17.06-13.67-27.98,3.27-13.51,18.32-21.46,33.62-17.76Z" style="fill: #8e3951;"/>
  <ellipse cx="519.43" cy="227.81" rx="13.55" ry="20.92" transform="translate(-8.93 21.55) rotate(-2.36)" style="fill: #ffaca9;"/>
  <path d="M527.49,230.35c.23-1.55,1.08-7.36-2.33-12.33-1.79-2.62-5.35-5.24-9.2-3.61-2.16.92-3.04,3.43-3.29,4.3" style="fill: none; stroke: #8e3951; stroke-linecap: round; stroke-miterlimit: 10; stroke-width: 2px;"/>
  <line x1="565.02" y1="231.2" x2="586.49" y2="234.45" style="fill: none; stroke: #0a0a0a; stroke-linecap: round; stroke-miterlimit: 10; stroke-width: 4px;"/>
  <line x1="607.96" y1="237.71" x2="627.46" y2="240.66" style="fill: none; stroke: #0a0a0a; stroke-linecap: round; stroke-miterlimit: 10; stroke-width: 4px;"/>
  <circle cx="572.08" cy="245.15" r="5.83" style="fill: #0f0f0f;"/>
  <circle cx="612.33" cy="251.26" r="5.83" style="fill: #0f0f0f;"/>
  <path d="M593.53,251.08c5.14,3.89,6.06,8.73,3.2,11.23-1.98,1.73-5.31,1.91-6.6,1.93" style="fill: #ffaca9; stroke: #8e3951; stroke-linecap: round; stroke-miterlimit: 10; stroke-width: 2px;"/>
  <path d="M453.91,337.49c-2.8-4.81-9.1-6.22-13.68-3.05-17.68,12.23-35.36,24.46-53.05,36.69-20,14.36-31.96,39.56-27.64,55.44,4.64,17.08,26.93,18.94,48,1.97,23.75-16.07,47.51-32.14,71.26-48.21-8.3-14.28-16.59-28.55-24.89-42.83Z" style="fill: #ffaca9;"/>
  <path d="M566.19,268.97l31.52,4.78c1.41.21,2.26,1.63,1.85,2.98-2.61,8.53-11.19,14.07-20.35,12.68-9.15-1.39-15.71-9.23-15.67-18.14,0-1.41,1.24-2.51,2.65-2.29Z" style="fill: #fff;"/>
  <path d="M514.23,315.23c15.29-.24,15.65,5.86,29.17,7.06,10.94.97,22.05-.83,38.27-5.04,16.89-4.38,23.34-3.2,31.53-3.2,10.94,0,20.02,2.44,26.48,6.7,38.11,25.1,1.9,94.73,3.1,141.84h-171.6c1.89-47.44,3.18-87.81,5.08-135.25.19-4.67-1.98-6.04,3.76-7.09,7.04-1.29,23.92-4.86,34.22-5.02Z" style="fill: #ea550f;"/>
  <path d="M512.78,410.86l17.62,3.93,21.75-16.84c1.34-1.04,3.13-1.49,5.01-1.28l24.19,2.78c3.82.44,7.35,2.95,9,6.4l10.14,21.23-3.97,5.75c-1.2,1.74-3.84,2-5.88.59l-.05-.03-3.02,4.78c-1.04,1.64-3.46,1.93-5.34.63h0s-1.89,2.41-1.89,2.41c-1.12,1.43-3.47,1.42-5.03-.02l-.45-.42-1.58,2.64c-.85,1.43-2.63,2.08-4.49,1.65l-7.27-1.67c-1.55-.36-2.98-1.27-3.96-2.54l-.55-.71c-1.14-1.47-2.91-2.4-4.71-2.47l-1.72-.06c-1.64-.06-3.09.61-3.93,1.82l-.63.91c-1.66,2.4-4.54,3.77-7.79,3.7l-6.06-.13c-.72-.02-1.45-.13-2.17-.34l-30.77-9.12,13.53-23.61Z" style="fill: #ffaca9;"/>
  <path d="M517.73,333.12c-9.1-11-30.01-14.16-32.83-13.7-13.26,2.31-29.53,6.4-47.24,13.83-25.91,10.87-45.19,24.84-58.11,35.92,1.77,6.63,5.45,17.12,13.54,27.73,3.12,4.09,16.13,21.17,35.53,26.17,34.03,8.78,69.83-24.25,83.44-53.54,4.24-9.12,15.93-24.01,5.68-36.41Z" style="fill: #ea550f;"/>
  <path d="M362.37,424.09l.82-14.55c.57-10.06,8.15-17.81,16.95-17.31l136.1,19.06c2.17.3,3.8,2.15,3.82,4.34l.29,24.15-142.02,3.4c-.9.02-1.8,0-2.69-.16-7.97-1.39-13.8-9.49-13.27-18.93Z" style="fill: #ffaca9;"/>
  <path d="M246.39,440.58h542.77c5.56,0,10.08,4.52,10.08,10.08v416.18c0,6.62-5.37,11.99-11.99,11.99H248.31c-6.62,0-11.99-5.37-11.99-11.99v-416.18c0-5.56,4.52-10.08,10.08-10.08Z" style="fill: #efefef;"/>
  <path d="M245.88,440.58h543.8c5.28,0,9.57,4.29,9.57,9.57v23.24H236.32v-23.24c0-5.28,4.29-9.57,9.57-9.57Z" style="fill: #383838;"/>
  <path d="M329.69,556.57h377.08c3.69,0,6.69,3,6.69,6.69v244.37c0,7.64-6.2,13.84-13.84,13.84h-362.78c-7.64,0-13.84-6.2-13.84-13.84v-244.37c0-3.69,3-6.69,6.69-6.69Z" style="fill: #383838;"/>
  <path d="M562.96,685.78c0,42.63-34.56,77.19-77.19,77.19s-77.19-34.56-77.19-77.19,34.56-77.19,77.19-77.19c25.38,0,60.07,14.71,74.14,33.62" style="fill: #fff;"/>
  <path d="M638.13,380.16c6.25,26.04,12.5,52.08,18.74,78.12,6.53,25.67,24.22,49.93,38.55,54.55,15.42,4.98,22.96-14.06,14.55-42.09-6.94-29.96-13.88-59.93-20.82-89.89-17.01-.23-34.02-.47-51.03-.7Z" style="fill: #ffaca9;"/>
  <path d="M691.32,477.22l12.36,5.38c8.55,3.72,12.98,12.46,9.91,19.52l-59.02,108.52-19.4-6.99c-2.75-.99-4.1-4.22-3.06-7.32l37.87-112.18c.25-.74.55-1.48.95-2.15,3.6-6.1,12.38-8.26,20.39-4.77Z" style="fill: #ffaca9;"/>
  <circle cx="532.56" cy="143.44" r="32.48" style="fill: #8e3951;"/>
  <path d="M520.12,318.74c-1.21,5.35,15.6,16.4,32.44,18.33,24,2.76,48.04-15.56,46.72-21.66-1.06-4.89-18.93,4.81-40.2,4.88-19.31.06-37.77-6.82-38.96-1.55Z" style="fill: #ffaca9;"/>
  <path d="M632.41,319.49c7.05-1.19,14.89,5.2,23.73,12.57,34.31,28.61,43.51,62.8,45.79,85.69-26.36,1.81-52.72,3.62-79.09,5.43-6.04-47.27-9.04-100.53,9.57-103.68Z" style="fill: #ea550f;"/>
  <path d="M656.59,607.59c-8.46,11.12-16.92,22.24-25.38,33.36-.24.53-1.25,2.64-3.63,3.73-1.82.83-3.48.63-4.35.42-.37-.09-.75-.14-1.13-.13l-35.14.14c-.91-.15-2.07-.44-2.15-1-.1-.75,1.74-1.6,2.29-1.86,2.12-1.02,5.61-3.16,11.74-7.85.56-.43,1.2-3.98.51-4l-4.04.63c-.88-.03-1.2-1.25-.46-1.77,3.43-2.4,7.87-4.16,11.23-9.52,5.01-7.99,4.5-13.72,9.68-18.92,2.7-2.71,7.56-5.89,16.81-6.16,1.03-2.11,2.22-3.09,3.23-3.58,4.88-2.38,13.21,2.9,20.84,13.5.64.9.63,2.15-.03,3.02Z" style="fill: #ffaca9;"/>
  <line x1="575.27" y1="639.76" x2="663.46" y2="625.98" style="fill: none; stroke: #ea550f; stroke-linecap: round; stroke-miterlimit: 10; stroke-width: 14px;"/>
  <rect x="556.91" y="638.91" width="6.36" height="6.36" style="fill: #a0a0a0;"/>
  <rect x="484.91" y="604.91" width="6.36" height="6.36" style="fill: #939393;"/>
  <path d="M559.91,642.22l14.9,4.69c.71.22,1.41-.38,1.3-1.12l-1.91-12c-.12-.74-.97-1.1-1.58-.66l-12.71,9.09Z" style="fill: #ea550f;"/>
  <rect x="257" y="452.79" width="171.57" height="9.8" rx="1.79" ry="1.79" style="fill: #ededed;"/>
  <circle cx="750.96" cy="456.91" r="6.13" style="fill: #ededed;"/>
  <circle cx="770.96" cy="456.91" r="6.13" style="fill: #ededed;"/>
  <path d="M140.46,501.02h150.53c3.69,0,6.69,3,6.69,6.69v197.38c0,7.64-6.2,13.84-13.84,13.84h-136.23c-7.64,0-13.84-6.2-13.84-13.84v-197.38c0-3.69,3-6.69,6.69-6.69Z" style="fill: #fff;"/>
  <path d="M111.05,205.26h150.53c3.69,0,6.69,3,6.69,6.69v161.45c0,7.64-6.2,13.84-13.84,13.84H118.2c-7.64,0-13.84-6.2-13.84-13.84v-161.45c0-3.69,3-6.69,6.69-6.69Z" style="fill: #fff;"/>
  <path d="M846.26,358.24h-80.21c-4.95,0-8.97-4.01-8.97-8.97v-82.48c0-3.7,3-6.69,6.69-6.69h84.75c3.7,0,6.69,3,6.69,6.69v82.48c0,4.95-4.01,8.97-8.97,8.97Z" style="fill: none; stroke: #898989; stroke-dasharray: 11.85 11.85; stroke-linecap: round; stroke-linejoin: round; stroke-width: 2px;"/>
  <path d="M141.48,501.02h148.49c4.26,0,7.71,3.46,7.71,7.71v18.36h-163.91v-18.36c0-4.26,3.46-7.71,7.71-7.71Z" style="fill: #ea550f;"/>
  <path d="M112.07,205.24h148.49c4.26,0,7.71,3.46,7.71,7.71v18.36H104.36v-18.36c0-4.26,3.46-7.71,7.71-7.71Z" style="fill: #ea550f;"/>
  <path d="M96.37,276.24h78.94c2.95,0,5.35,2.4,5.35,5.35v16.1c0,2.56-2.07,4.63-4.63,4.63h-80.38c-2.56,0-4.63-2.07-4.63-4.63v-16.1c0-2.95,2.4-5.35,5.35-5.35Z" transform="translate(-153.44 425.13) rotate(-90)" style="fill: #ea550f;"/>
  <path d="M128.16,351.48h115.38c2.95,0,5.35,2.4,5.35,5.35v7.54c0,2.56-2.07,4.63-4.63,4.63h-116.82c-2.56,0-4.63-2.07-4.63-4.63v-7.54c0-2.95,2.4-5.35,5.35-5.35Z" style="fill: #ea550f;"/>
  <path d="M147.37,276.24h78.94c2.95,0,5.35,2.4,5.35,5.35v16.1c0,2.56-2.07,4.63-4.63,4.63h-80.38c-2.56,0-4.63-2.07-4.63-4.63v-16.1c0-2.95,2.4-5.35,5.35-5.35Z" transform="translate(-102.44 476.13) rotate(-90)" style="fill: #a6c626;"/>
  <path d="M196.37,276.24h78.94c2.95,0,5.35,2.4,5.35,5.35v16.1c0,2.56-2.07,4.63-4.63,4.63h-80.38c-2.56,0-4.63-2.07-4.63-4.63v-16.1c0-2.95,2.4-5.35,5.35-5.35Z" transform="translate(-53.44 525.13) rotate(-90)" style="fill: #d3d3d3;"/>
  <path d="M89.52,774.96h301.04c3.69,0,6.69,3,6.69,6.69v72.16c0,4.4-3.58,7.98-7.98,7.98H90.81c-4.4,0-7.98-3.58-7.98-7.98v-72.16c0-3.69,3-6.69,6.69-6.69Z" style="fill: #fff;"/>
  <path d="M90.54,774.96h299c4.26,0,7.71,3.46,7.71,7.71v18.36H82.83v-18.36c0-4.26,3.46-7.71,7.71-7.71Z" style="fill: #ea550f;"/>
  <path d="M594.31,731.54h301.04c3.69,0,6.69,3,6.69,6.69v69.93c0,7.64-6.2,13.84-13.84,13.84h-286.75c-7.64,0-13.84-6.2-13.84-13.84v-69.93c0-3.69,3-6.69,6.69-6.69Z" style="fill: #fff;"/>
  <path d="M595.33,731.54h299c4.26,0,7.71,3.46,7.71,7.71v18.36h-314.43v-18.36c0-4.26,3.46-7.71,7.71-7.71Z" style="fill: #ea550f;"/>
  <rect x="746.96" y="252.11" width="19.89" height="19.89" style="fill: #898989;"/>
  <rect x="844.96" y="252.11" width="19.89" height="19.89" style="fill: #898989;"/>
  <rect x="844.96" y="347.11" width="19.89" height="19.89" style="fill: #898989;"/>
  <rect x="747.96" y="345.11" width="19.89" height="19.89" style="fill: #898989;"/>
  <path d="M385.54,253.53h-41.1c-4.95,0-8.97-4.01-8.97-8.97v-43.37c0-3.7,3-6.69,6.69-6.69h45.64c3.7,0,6.69,3,6.69,6.69v43.37c0,4.95-4.01,8.97-8.97,8.97Z" style="fill: none; stroke: #bcbcbc; stroke-dasharray: 12.37 12.37; stroke-linecap: round; stroke-linejoin: round; stroke-width: 3px;"/>
  <rect x="329.38" y="189.7" width="11.96" height="11.96" style="fill: #ccc;"/>
  <rect x="388.33" y="189.7" width="11.96" height="11.96" style="fill: #ccc;"/>
  <rect x="388.33" y="246.84" width="11.96" height="11.96" style="fill: #ccc;"/>
  <rect x="329.99" y="245.64" width="11.96" height="11.96" style="fill: #ccc;"/>
  <rect x="97" y="807.33" width="28.28" height="28.28" style="fill: #a6c626;"/>
  <rect x="112.8" y="824.39" width="28.28" height="28.28" style="fill: #a6c626;"/>
  <rect x="171" y="807.33" width="28.28" height="28.28" style="fill: #a6c626;"/>
  <rect x="186.8" y="824.39" width="28.28" height="28.28" style="fill: #ededed;"/>
  <rect x="244" y="807.33" width="28.28" height="28.28" style="fill: #a6c626;"/>
  <rect x="259.8" y="824.39" width="28.28" height="28.28" style="fill: #a6c626;"/>
  <rect x="259.8" y="824.39" width="12.48" height="11.36" style="fill: #ededed;"/>
  <rect x="323" y="807.33" width="28.28" height="28.28" style="fill: #ededed;"/>
  <rect x="338.8" y="824.39" width="28.28" height="28.28" style="fill: #ededed;"/>
  <rect x="338.8" y="824.39" width="12.48" height="11.36" style="fill: #a6c626;"/>
  <rect x="611" y="774.96" width="26.08" height="26.08" style="fill: #ededed;"/>
  <rect x="646" y="774.96" width="26.08" height="26.08" style="fill: #a6c626;"/>
  <rect x="681" y="774.96" width="26.08" height="26.08" style="fill: #bfdd3e;"/>
  <rect x="715" y="774.96" width="26.08" height="26.08" style="fill: #cfe867;"/>
  <rect x="749" y="774.96" width="26.08" height="26.08" style="fill: #92af1b;"/>
  <rect x="783" y="774.96" width="26.08" height="26.08" style="fill: #303030;"/>
  <rect x="817" y="774.96" width="26.08" height="26.08" style="fill: #ea550f;"/>
  <rect x="454.09" y="506.32" width="31.68" height="31.68" rx="4.05" ry="4.05" style="fill: #a6c626;"/>
  <rect x="502.89" y="506.32" width="31.68" height="31.68" rx="4.15" ry="4.15" style="fill: #cfe867;"/>
  <rect x="553.07" y="506.32" width="31.68" height="31.68" rx="4.06" ry="4.06" style="fill: #ea550f;"/>
  <rect x="851" y="774.96" width="26.08" height="26.08" style="fill: #f77948;"/>
  <path d="M164.61,550.86l3.25,33.39c.1,1.07,1.48,1.45,2.12.59,5.39-7.3,12.62-11.14,21.69-11.52,1.08-.04,1.53-1.39.7-2.08l-25.84-21.4c-.81-.67-2.03-.03-1.92,1.02Z" style="fill: #a0a0a0;"/>
  <path d="M235.44,549.37l3.04,31.26c.1,1,1.38,1.36,1.98.55,5.05-6.83,11.82-10.43,20.31-10.78,1.01-.04,1.43-1.3.66-1.95l-24.19-20.04c-.76-.63-1.9-.02-1.8.96Z" style="fill: none; stroke: #939393; stroke-miterlimit: 10; stroke-width: 2px;"/>
  <line x1="158.82" y1="634.5" x2="191.23" y2="609.6" style="fill: none; stroke: #939393; stroke-linecap: round; stroke-miterlimit: 10; stroke-width: 2px;"/>
  <rect x="235.37" y="608.6" width="36.67" height="29.6" style="fill: none; stroke: #939393; stroke-linecap: round; stroke-miterlimit: 10; stroke-width: 2px;"/>
  <path d="M155.4,663.94h37.98c1.04,0,1.87.84,1.87,1.87v24.12c0,1.04-.84,1.87-1.87,1.87h-30.77c-1.04,0-1.87-.84-1.87-1.87v-30.8" style="fill: none; stroke: #939393; stroke-linecap: round; stroke-miterlimit: 10; stroke-width: 2px;"/>
  <path d="M231.82,691.24l2.26-8.66,19.46-22.76c.7-.82,1.94-.92,2.77-.22l4.62,3.95c.82.7.92,1.94.22,2.77l-19.46,22.76-9.86,2.16" style="fill: none; stroke: #939393; stroke-linecap: round; stroke-miterlimit: 10; stroke-width: 2px;"/>
  <line x1="486.36" y1="608.09" x2="444.62" y2="608.6" style="fill: none; stroke: #939393; stroke-linecap: round; stroke-miterlimit: 10;"/>
  <line x1="532.36" y1="608.09" x2="490.62" y2="608.6" style="fill: none; stroke: #939393; stroke-linecap: round; stroke-miterlimit: 10;"/>
  <circle cx="532.54" cy="608.24" r="1.5" style="fill: #a0a0a0;"/>
  <circle cx="444.54" cy="608.24" r="1.5" style="fill: #a0a0a0;"/>
</svg>