<?xml version="1.0" encoding="UTF-8"?>
<svg id="Layer_17" xmlns="http://www.w3.org/2000/svg" viewBox="0 0 1024 1024">
  <rect x="202" y="474" width="57.18" height="95.94" style="fill: #ffaca9;"/>
  <path d="M259.18,474v49.86c-2.37.58-4.79,1-7.27,1.24-17.66,1.72-35.84-10.32-49.91-28.29v-22.81h57.18Z" style="fill: #fc9292;"/>
  <path d="M239.64,358.48c-6.54,1.34-43.4,6.56-52.22,33.85-14.55,45.03,23.38,126.56,73.04,122.11,72.18-6.47,69.83-90.19,51.43-137.89-9.54-24.74-50.73-22.5-72.26-18.08Z" style="fill: #ffaca9;"/>
  <path d="M260.01,399.95v-7.5c0-1.19-1.01-2.16-2.26-2.16h-8.31c-1.25,0-2.26.97-2.26,2.16v7.5c0,1.49-1.26,2.71-2.83,2.71h-64.76c-3.82,0-6.75-3.29-6.41-7.09,3.59-40.15,37.32-71.62,78.43-71.62s76.63,33.15,78.67,74.8c.1,2.12-1.64,3.91-3.86,3.91h-63.59c-1.56,0-2.83-1.21-2.83-2.71Z" style="fill: #8e3951;"/>
  <path d="M212.27,368.83l-4.75,54.57c-.45,5.21-6.25,8.42-11.54,6.43-14.17-5.33-23.65-18.24-22.41-32.41,1.52-17.53,18.85-30.32,38.7-28.59Z" style="fill: #8e3951;"/>
  <ellipse cx="184.88" cy="431.99" rx="17.15" ry="26.47" transform="translate(-78.9 43.13) rotate(-10.98)" style="fill: #ffaca9;"/>
  <path d="M195.45,433.64c0-1.98-.04-9.41-5.25-14.99-2.74-2.93-7.69-5.54-12.19-2.77-2.53,1.56-3.15,4.87-3.3,6" style="fill: none; stroke: #8e3951; stroke-linecap: round; stroke-miterlimit: 10; stroke-width: 2px;"/>
  <line x1="242" y1="423.82" x2="269.48" y2="423.82" style="fill: none; stroke: #0a0a0a; stroke-linecap: round; stroke-miterlimit: 10; stroke-width: 4px;"/>
  <line x1="296.96" y1="423.82" x2="321.92" y2="423.82" style="fill: none; stroke: #0a0a0a; stroke-linecap: round; stroke-miterlimit: 10; stroke-width: 4px;"/>
  <circle cx="253.48" cy="439.95" r="7.38" style="fill: #0f0f0f;"/>
  <circle cx="305" cy="439.95" r="7.38" style="fill: #0f0f0f;"/>
  <path d="M282.02,447.04c7.16,3.89,9.24,9.78,6.14,13.44-2.15,2.54-6.28,3.4-7.89,3.66" style="fill: #ffaca9; stroke: #8e3951; stroke-linecap: round; stroke-miterlimit: 10; stroke-width: 2px;"/>
  <path d="M251.2,474.62h40.34c1.8,0,3.14,1.6,2.88,3.37-1.65,11.16-11.34,19.73-23.05,19.73-11.71,0-21.4-8.57-23.05-19.73-.26-1.77,1.07-3.37,2.88-3.37Z" style="fill: #fff;"/>
  <path d="M189.31,532.8c18.26,5.53,19.66,11.66,36.15,13.73,13.33,1.68,24.01-2.25,43.78-9.52,20.59-7.57,23.69-7.24,33.66-7.78,11.64-.63,24.06-.26,39.31,15.52,1.46,81.35,2.92,162.7,4.38,244.05h-209.19c2.31-81.91,4.62-163.83,6.93-245.74.23-8.07,4.21-10.71,11.29-11.44,8.72-.9,22.44-2.22,33.69,1.19Z" style="fill: #a6c626;"/>
  <path d="M75.84,616.89c-8.45,30.41-16.9,60.82-25.35,91.23-7.81,30.16.98,64.35,18.04,76.28,18.35,12.84,41.52-3.4,48.26-36.96,10.07-34.87,20.15-69.73,30.22-104.6-23.72-8.65-47.45-17.3-71.17-25.95Z" style="fill: #ffaca9;"/>
  <path d="M330.33,618.12c7.31,33.66,14.62,67.32,21.92,100.98,7.72,33.16,31.08,63.87,50.82,69.14,21.24,5.67,32.78-19.59,22.57-55.73-8.06-38.74-16.12-77.49-24.18-116.23-23.71.62-47.42,1.23-71.14,1.85Z" style="fill: #ffaca9;"/>
  <path d="M161.35,532.35c-17.52-4.38-41.2,8.1-43.74,10.68-11.78,12.31-25.29,28.69-37.75,49.55-18.23,30.52-27.39,59.22-32.24,80.22,6.78,5.43,18.41,13.35,34.6,18.09,6.24,1.83,32.33,9.46,55.84,0,41.25-16.6,52.95-77.12,44.83-117.18-2.53-12.47-1.79-36.42-21.54-41.35Z" style="fill: #a6c626;"/>
  <path d="M65.89,777.91l-9.86-15.59c-6.81-10.78-4.7-24.34,4.71-30.29l158.44-82.71,20.91,28.55-144.82,108.77c-9.42,5.96-22.58,2.05-29.39-8.73Z" style="fill: #ffaca9;"/>
  <path d="M405.61,787.28l-15.77-6.52c-10.9-4.51-16.71-15.46-12.99-24.47l72.18-138.66,24.71,8.4c3.5,1.19,5.29,5.25,4.04,9.19l-45.34,142.8c-.3.95-.66,1.88-1.15,2.75-4.41,7.8-15.47,10.74-25.69,6.51Z" style="fill: #ffaca9;"/>
  <circle cx="185.31" cy="323.94" r="41.1" style="fill: #8e3951;"/>
  <path d="M182.07,533.58c-1.53,6.77,18.96,24.55,40.27,27,30.37,3.49,60.73-17.71,59.05-25.43-1.34-6.19-23.89,4.11-50.8,4.19-24.44.08-47.01-12.43-48.52-5.77Z" style="fill: #ffaca9;"/>
  <path d="M325.7,533.01c8.68-1.51,18.34,6.58,29.21,15.9,42.25,36.21,53.56,79.47,56.37,108.43-32.46,2.29-64.91,4.58-97.37,6.87-7.44-59.81-11.13-127.22,11.79-131.2Z" style="fill: #a6c626;"/>
  <line x1="226.41" y1="569.94" x2="323.2" y2="630.57" style="fill: none; stroke: #dec8ee; stroke-linecap: round; stroke-miterlimit: 10; stroke-width: 13px;"/>
  <path d="M210.14,654.27l20.06-10.95,6.67-34.16c.41-2.11,1.73-4.03,3.7-5.39l25.35-17.52c4-2.77,9.46-3.32,13.91-1.4l27.35,11.77,1.01,8.78c.31,2.66-1.98,5.1-5.11,5.46h-.07s1.11,7.08,1.11,7.08c.38,2.43-1.69,4.71-4.56,5.05h0s.22,3.87.22,3.87c.13,2.29-2.12,4.24-4.81,4.17l-.78-.02.7,3.83c.38,2.07-.77,4.17-2.89,5.31l-8.31,4.47c-1.77.95-3.89,1.27-5.89.88l-1.11-.22c-2.31-.45-4.78.14-6.54,1.57l-1.7,1.38c-1.61,1.31-2.43,3.16-2.22,5.01l.16,1.39c.42,3.67-1.17,7.37-4.33,10.02l-5.87,4.93c-.7.59-1.49,1.09-2.35,1.48l-36.89,16.96-6.8-33.76Z" style="fill: #ffaca9;"/>
  <path d="M423.67,651.75h-92.71c-8.56,0-14.77-8.83-12.48-17.76l34.35-134.13c1.55-6.07,6.66-10.27,12.48-10.27h92.71c8.56,0,14.77,8.83,12.48,17.76l-34.35,134.13c-1.55,6.07-6.66,10.27-12.48,10.27Z" style="fill: #ddd;"/>
  <path d="M431.27,651.75h-92.71c-8.56,0-14.77-8.83-12.48-17.76l34.35-134.13c1.55-6.07,6.66-10.27,12.48-10.27h92.71c8.56,0,14.77,8.83,12.48,17.76l-34.35,134.13c-1.55,6.07-6.66,10.27-12.48,10.27Z" style="fill: #fff;"/>
  <ellipse cx="383.15" cy="506.58" rx="5.62" ry="6.08" style="fill: #141414;"/>
  <ellipse cx="416.56" cy="506.58" rx="5.62" ry="6.08" style="fill: #141414;"/>
  <ellipse cx="451.5" cy="506.58" rx="5.62" ry="6.08" style="fill: #141414;"/>
  <path d="M373.57,489.59c0-9.04,7.99-14.98,13.34-14.98s11.36,4.67,11.36,13.7-9.77,18.25-15.12,18.25" style="fill: none; stroke: #aaa; stroke-linecap: round; stroke-miterlimit: 10; stroke-width: 3px;"/>
  <path d="M406.23,489.59c0-9.04,7.99-14.98,13.34-14.98s11.36,4.67,11.36,13.7-9.77,18.25-15.12,18.25" style="fill: none; stroke: #aaa; stroke-linecap: round; stroke-miterlimit: 10; stroke-width: 3px;"/>
  <path d="M441.92,489.59c0-9.04,7.99-14.98,13.34-14.98s11.36,4.67,11.36,13.7-9.77,18.25-15.12,18.25" style="fill: none; stroke: #aaa; stroke-linecap: round; stroke-miterlimit: 10; stroke-width: 3px;"/>
  <path d="M440.57,633.29c2.39,3.74,4.19,6.8,6.9,10.92.96,1.47,2.45,2.51,4.16,2.92,3.89.92,7.77,1.83,11.66,2.74,7.51,1.77,15.13-2.44,17.64-9.73,1.74-5.06,2.77-12.57,4.18-18.76.84-3.69.7-7.53-.37-11.15l-6.16-20.96c-1.23-4.17-3.72-7.85-7.13-10.54-8.16-6.43-16.32-12.85-24.48-19.28-2.47-1.94-5.45-3.12-8.58-3.39l-3.86-.33c-8.4-.72-16.38,4.02-19.57,11.82-1.34,3.28-2.37,7.07-2.65,11.31-1.02,15.11,7.72,30.1,22.39,38.87,1.6.96,2.47,2.77,2.19,4.62v.14c.34,3.85,1.61,7.56,3.69,10.82Z" style="fill: #ffaca9;"/>
  <path d="M620.11,291.62c0-16.19-6.46-30.77-16.79-41,3.11-6.13,4.88-13.15,4.88-20.6,0-24-18.31-43.45-40.9-43.45-7.48,0-14.49,2.15-20.53,5.87-9.19-16.53-26.12-27.62-45.49-27.62-21.73,0-40.39,13.95-48.49,33.88-5.98-2.19-12.38-3.39-19.06-3.39-32.32,0-58.51,27.83-58.51,62.16,0,24.94,13.84,46.44,33.8,56.34.85,30.19,24.14,54.39,52.77,54.39,14.81,0,28.19-6.49,37.78-16.92,5.28,15.28,19.1,26.19,35.32,26.19,17.51,0,32.23-12.71,36.41-29.92,27.3-2.17,48.82-26.37,48.82-55.92Z" style="fill: #fff;"/>
  <ellipse cx="817.12" cy="528.95" rx="53.75" ry="30.09" transform="translate(-128.03 296.24) rotate(-19.08)" style="fill: #f69e9b;"/>
  <rect x="789.62" y="442.35" width="70.41" height="75.16" transform="translate(331.46 1296.79) rotate(-89.06)" style="fill: #f69e9b;"/>
  <path d="M861.84,449.98l-.04,2.36c-.45,27.49-23.34,49.62-50.83,49.17l-24.44-.4.3-18.14,27.03.44c21.97.36,41.02-13.71,47.98-33.43Z" style="fill: #d88080;"/>
  <path d="M865.09,389.36l-.84,51.15c-.07,4.19-.71,8.23-1.88,12.05-.2.69-.41,1.36-.65,2-6.19,17.6-23.13,30.17-42.66,29.85l-24.98-.41c-20.74-.34-37.42-17.64-37.07-38.46l.95-57.93c.01-.83.05-1.67.13-2.47.06-.9.17-1.8.32-2.68,1.21-7.94,4.9-15.05,10.25-20.57,6.99-7.24,16.83-11.71,27.61-11.53l31.73.52c18.59.3,33.92,14.25,36.65,32.14.34,2.06.48,4.2.45,6.35Z" style="fill: #f69e9b;"/>
  <path d="M848.99,363.76c8.56,9.98-7.52,24.66-2.21,39.05,4.76,12.89,5.07,21.09,20.7,11.95,21.62-12.65,22.74-52.11,9.88-67.73-5.48-6.66-10.84-5.76-26.14-10.13-41.18-11.77-45.32-30.6-69.65-30.24-18.97.28-42.25,12.12-44.3,28.37-1.99,15.78,17.55,31.81,36.32,34.04,33.93,4.03,67.63-14.37,75.4-5.31Z" style="fill: #4b2f38;"/>
  <path d="M879.54,410.15c-.65,3.87-1.74,7.41-3.14,10.43,0,0-.02.02,0,.05-3.08,6.59-7.56,10.64-11.83,9.93-.9-.15-1.73-.49-2.49-1.04-4.58-3.14-6.81-12.59-5.05-23.12.19-1.14.41-2.26.7-3.33,0,0,0-.03,0-.05,2.14-8.67,6.61-15.22,11.26-16.75,1-.33,2.02-.44,3.02-.27,6.22,1.04,9.6,11.85,7.54,24.16Z" style="fill: #f6a2a0;"/>
  <line x1="759.5" y1="384.32" x2="779.61" y2="384.12" style="fill: none; stroke: #4b2f38; stroke-linecap: round; stroke-miterlimit: 10; stroke-width: 11px;"/>
  <line x1="808.17" y1="384.83" x2="828.27" y2="384.63" style="fill: none; stroke: #4b2f38; stroke-linecap: round; stroke-miterlimit: 10; stroke-width: 11px;"/>
  <circle cx="770.05" cy="403.35" r="6.95" style="fill: #4b2f38;"/>
  <circle cx="815.75" cy="403.65" r="6.95" style="fill: #4b2f38;"/>
  <path d="M787.77,415.04l-.24,14.89c-.04,2.34,1.83,4.28,4.18,4.32l6.99.11" style="fill: none; stroke: #4b2f38; stroke-linecap: round; stroke-linejoin: round; stroke-width: 4px;"/>
  <path d="M779.83,452.93c1.31,1.25,5.87,5.3,13.05,5.92,7.98.69,13.6-3.33,14.93-4.33" style="fill: none; stroke: #4b2f38; stroke-linecap: round; stroke-linejoin: round; stroke-width: 7px;"/>
  <path d="M861.93,414.26c.06-4.97,1.61-10.14,4.02-13.42,2.41-3.28,5.3-4.15,7.5-2.27" style="fill: none; stroke: #4b2f38; stroke-linecap: round; stroke-linejoin: round; stroke-width: 2px;"/>
  <path d="M600.05,491.5c3.07-4.94.06-9.26-3.36-31.35-.19-1.25-1.37-12.53-3.73-35.08-.9-8.61-2.2-21.17-3.73-36.57-1.51-2.08-3.84-3.32-5.97-2.99-3.15.5-5.86,4.42-4.85,8.96-.25,9.2-.5,18.41-.75,27.61-1.18-2.16-5.1-8.63-13.06-11.57-5.99-2.21-13.21-2.03-18.29,1.12-1.28.79-3.44,2.18-3.73,4.48-.24,1.92.87,4.19,2.61,5.22,4.2,2.48,9.26-3.88,14.55-2.24,2.19.68,4.8,2.85,6.72,9.33-1.25-.65-7.85-3.96-14.55-1.12-1.94.82-3.41,1.95-4.48,2.99,0,0-1.66.68-2.86,1.33-3.76,2.06-4.03,5.4-2.7,12.22.98,5.04,5.42,8.62,8.92,8.09,2.24,14.8,4.48,29.6,6.72,44.41,28.88,5.15,39.03.78,42.54-4.85Z" style="fill: #f69e9b;"/>
  <path d="M756.19,492.01c-7.94-2.09-28.76,15.62-22.12,10.8-13.34,8.92-54.84,37.5-110.6,77.16-2.88-17.9-6.43-36.63-10.8-56.07-2.4-10.68-4.92-21.04-7.55-31.09-.98-3.76-4.47-6.32-8.36-6.12-11.66.6-23.32,1.2-34.98,1.8-4.56.23-8.04,4.15-7.76,8.7,3.12,49.54,6.23,99.08,9.35,148.62.33,5.24,2.5,10.21,6.19,13.95s9.3,7.98,16.86,10.24c20.13,6,36.6-7.03,38.07-8.23,32.58-16.8,65.16-33.61,97.74-50.41,9.8-6.22,27.64-19.6,37.72-42.91,14.27-32.98,7.67-73.43-3.77-76.44Z" style="fill: #c13600;"/>
  <path d="M874.73,496.07c-6.7-3.75-21.56-1.04-56.08,23.27-13.68,9.63-32.6,1.11-34.54-15.61-.45-3.9-.9-7.8-1.36-11.7-4.72-1.45-11.93-2.89-17.43,0-3.75,1.97-5.25,5.2-5.81,6.46-31.69,71.1-26.14,142.2-26.14,142.2,2.5,32.03,5.83,80.33,8.71,147.05,32.27-.27,64.54-.54,96.81-.81-5.31-36.9-8.4-89.26,3.87-150.28,15.8-78.56,48.95-131.08,31.95-140.59Z" style="fill: #fafafa;"/>
  <path d="M883.54,490.69c-14.06.9-23.71,10.97-27.28,15.17-14.72,22.58-31.23,53.58-42.25,92.57-23.44,82.89-8.58,154.02,1.6,189.32,38.15-.87,76.3-1.74,114.45-2.61,3.03-81.76,6.06-163.52,9.09-245.28-2.61-6.95-7.7-17.8-17.65-28.24-8.54-8.96-20.96-22.01-37.97-20.92Z" style="fill: #1e1e1e;"/>
  <path d="M721.66,610.86c-.57,7.04-1.09,14.13-1.54,21.28-3.44,54.02-3.1,105.68,0,154.67,11.49.31,22.99.62,34.48.93-4.68-51.99-4.52-97.62-2.59-134.84,4.06-78.17,6.09-117.26,18-141.69,2.07-4.24,16.58-15.86,11.75-20.58-4.34-4.25-23.46-1.57-26.15-.18-30.26,15.69-33.62,89.19-33.95,120.41Z" style="fill: #1e1e1e;"/>
  <path d="M756.84,753.88c-7.98-3.35-10.73.43-33.19-.3-20.69-.67-15.23,1.85-27.99,3.38-4.2.5-19.06,4.43-24.68,5.79s-16.91,1.14-13.11,17.02c1.49,8.58,11.55,6.45,14.76,6.58,18.6.76,36.13,1.4,74.09,1.96,12.14.18,18.03-.06,22.26-3.93,7.82-7.14,1.77-24.67-12.14-30.5Z" style="fill: #f69e9b;"/>
  <path d="M880.96,694.96c-6.95-34.39-13.91-68.78-20.86-103.17-.5-2.67-4.74-27.78,13.37-45.11,2.16-2.06,19.49-18.64,39.58-12.44,12.93,3.99,19.21,15.01,20.86,18.15,8.56,51.85,17.11,103.69,25.67,155.54l-78.62-12.96Z" style="fill: #1e1e1e;"/>
  <path d="M925.82,513.64c12.72,3.62,19.51,13.01,22,17.07.42.68.7,1.43.84,2.22,9.19,51.32,18.38,102.63,27.57,153.95.05.29.09.58.1.88.3,7.22-.54,18.63-8.14,29.11-10.43,14.38-28.04,19.34-40.04,22.29-53.24,13.1-133.45,41.22-155.76,46.39-2.39.55-4.83-.74-5.69-3.04-4.21-11.34-7.89-19.17-12.07-30.3-1.01-2.68.29-5.67,2.92-6.8,44.43-18.9,82.8-55.83,127.65-69.31,3.26-.98,5.24-4.27,4.52-7.59-7.12-32.44-14.23-64.88-21.35-97.32-.54-2.67-5.14-27.78,14.51-45.11,2.34-2.06,21.15-18.64,42.94-12.44Z" style="fill: #c13600;"/>
  <rect x="431.79" y="226.04" width="25.35" height="25.35" rx="2.24" ry="2.24" style="fill: #ea550f;"/>
  <rect x="466.04" y="232.86" width="93.23" height="9.27" rx="3.09" ry="3.09" style="fill: #232323;"/>
  <rect x="431.79" y="263.01" width="25.35" height="25.35" rx="2.24" ry="2.24" style="fill: #ea550f;"/>
  <rect x="466.04" y="269.82" width="93.23" height="9.27" rx="3.09" ry="3.09" style="fill: #232323;"/>
  <rect x="431.79" y="300.99" width="25.35" height="25.35" rx="2.24" ry="2.24" style="fill: #ea550f;"/>
  <rect x="466.04" y="307.81" width="93.23" height="9.27" rx="3.09" ry="3.09" style="fill: #232323;"/>
  <line x1="52.04" y1="787.43" x2="930.07" y2="786.8" style="fill: none; stroke: #262626; stroke-miterlimit: 10; stroke-width: 3px;"/>
</svg>