<?xml version="1.0" encoding="UTF-8"?>
<svg id="Layer_19" xmlns="http://www.w3.org/2000/svg" xmlns:xlink="http://www.w3.org/1999/xlink" viewBox="0 0 1024 1024">
  <circle cx="97.09" cy="329.53" r="12.11" style="fill: #fff;"/>
  <circle cx="184.24" cy="376.35" r="12.11" style="fill: #fff;"/>
  <circle cx="288.24" cy="329.53" r="12.11" style="fill: #fff;"/>
  <circle cx="473.51" cy="438.74" r="12.11" style="fill: #fff;"/>
  <circle cx="506.2" cy="438.74" r="12.11" style="fill: #fff;"/>
  <circle cx="181.54" cy="556.25" r="12.11" style="fill: #fff;"/>
  <circle cx="234.52" cy="556.25" r="12.11" style="fill: #fff;"/>
  <circle cx="288.24" cy="521.23" r="12.11" style="fill: #fff;"/>
  <circle cx="669.65" cy="477.2" r="12.11" style="fill: none; stroke: #fff; stroke-miterlimit: 10; stroke-width: 2px;"/>
  <circle cx="704.27" cy="477.2" r="12.11" style="fill: none; stroke: #fff; stroke-miterlimit: 10; stroke-width: 2px;"/>
  <circle cx="775.42" cy="477.2" r="12.11" style="fill: none; stroke: #fff; stroke-miterlimit: 10; stroke-width: 2px;"/>
  <circle cx="596.58" cy="477.2" r="12.11" style="fill: none; stroke: #fff; stroke-miterlimit: 10; stroke-width: 2px;"/>
  <circle cx="179.29" cy="477.2" r="12.11" style="fill: none; stroke: #fff; stroke-miterlimit: 10; stroke-width: 2px;"/>
  <circle cx="213.9" cy="477.2" r="12.11" style="fill: none; stroke: #fff; stroke-miterlimit: 10; stroke-width: 2px;"/>
  <circle cx="290.82" cy="477.2" r="12.11" style="fill: none; stroke: #fff; stroke-miterlimit: 10; stroke-width: 2px;"/>
  <circle cx="504.93" cy="329.53" r="12.11" style="fill: #fff;"/>
  <circle cx="671.86" cy="521.23" r="12.11" style="fill: #fff;"/>
  <circle cx="701.97" cy="521.23" r="12.11" style="fill: #fff;"/>
  <polyline points="99.87 329.53 114.89 329.53 505.42 329.53" style="fill: none; stroke: #fff; stroke-miterlimit: 10; stroke-width: 2px;"/>
  <line x1="135.02" y1="344.26" x2="114.89" y2="329.53" style="fill: none; stroke: #fff; stroke-miterlimit: 10; stroke-width: 2px;"/>
  <path d="M135.02,329.53v131.73c0,1.5.25,2.99.74,4.37l1.55,4.37c1.04,2.94,3.07,5.14,5.54,6l2.34.82c.75.26,1.52.39,2.29.39h19.7" style="fill: none; stroke: #fff; stroke-miterlimit: 10; stroke-width: 2px;"/>
  <path d="M257.68,477.2l-13.75-15.37v-71.63c0-2.3-.51-4.55-1.48-6.49l-.44-.89c-1.14-2.28-2.84-4.01-4.84-4.92l-1.73-.79c-1.04-.47-2.13-.71-3.23-.71h-88.19l-9-12.46" style="fill: none; stroke: #fff; stroke-miterlimit: 10; stroke-width: 2px;"/>
  <line x1="191.4" y1="477.2" x2="201.79" y2="477.2" style="fill: none; stroke: #fff; stroke-miterlimit: 10; stroke-width: 2px;"/>
  <line x1="303.79" y1="477.2" x2="584.47" y2="477.2" style="fill: none; stroke: #fff; stroke-miterlimit: 10; stroke-width: 2px;"/>
  <line x1="226.01" y1="477.2" x2="277.93" y2="477.2" style="fill: none; stroke: #fff; stroke-miterlimit: 10; stroke-width: 2px;"/>
  <line x1="609.51" y1="477.2" x2="658.36" y2="477.2" style="fill: none; stroke: #fff; stroke-miterlimit: 10; stroke-width: 2px;"/>
  <line x1="681.76" y1="477.2" x2="692.15" y2="477.2" style="fill: none; stroke: #fff; stroke-miterlimit: 10; stroke-width: 2px;"/>
  <line x1="716.38" y1="477.2" x2="763.31" y2="477.2" style="fill: none; stroke: #fff; stroke-miterlimit: 10; stroke-width: 2px;"/>
  <path d="M236.69,477.2l11.72,9.51c.58.47,1.07,1.05,1.45,1.69l.41.7c.54.94.83,2,.83,3.08v19.5c0,.84.15,1.67.46,2.44l.92,2.37c.38.97,1.14,1.74,2.11,2.12l2.45.96c.43.17.88.25,1.34.25h20.33" style="fill: none; stroke: #fff; stroke-miterlimit: 10; stroke-width: 2px;"/>
  <path d="M559.1,477.2l-9.25-8.68c-.56-.49-1.03-1.08-1.39-1.74h0c-.76-1.42-1.13-3.02-1.07-4.63v-.38c.02-.07.02-.14.01-.21l-.54-15.53c.03-.84-.1-1.67-.37-2.46h0c-.87-2.51-2.76-4.54-5.21-5.59l-.08-.04c-.42-.18-.88-.28-1.34-.3h-24.39" style="fill: none; stroke: #fff; stroke-miterlimit: 10; stroke-width: 2px;"/>
  <path d="M392.8,477.2l9.25-8.68c.56-.49,1.03-1.08,1.39-1.74h0c.76-1.42,1.13-3.02,1.07-4.63v-.38c-.02-.07-.02-.14-.01-.21l.54-15.53c-.03-.84.1-1.67.37-2.46h0c.87-2.51,2.76-4.54,5.21-5.59l.08-.04c.42-.18.88-.28,1.34-.3h89.79" style="fill: none; stroke: #fff; stroke-miterlimit: 10; stroke-width: 2px;"/>
  <line x1="181.54" y1="489.1" x2="181.54" y2="547.08" style="fill: none; stroke: #fff; stroke-miterlimit: 10; stroke-width: 2px;"/>
  <line x1="504.93" y1="334.5" x2="504.93" y2="430.27" style="fill: none; stroke: #fff; stroke-miterlimit: 10; stroke-width: 2px;"/>
  <path d="M217.75,376.4l6.01-6.24c.24-.25.45-.55.61-.89l.74-1.59v-19.81c0-.62.12-1.23.36-1.77l.41-.95c.22-.51.53-.95.91-1.29l1.98-1.76,16.47-12.56" style="fill: none; stroke: #fff; stroke-miterlimit: 10; stroke-width: 2px;"/>
  <path d="M617.44,478.47l13.85,12.38c1.68,1.5,2.63,3.64,2.63,5.89v13.71c0,2.55,1.33,4.92,3.52,6.25l5.86,3.55c1.07.65,2.29.99,3.53.99h80.53c1.22,0,2.41-.42,3.36-1.19l7.16-5.82c1.23-1,1.95-2.51,1.95-4.09v-14.86c0-1.38.51-2.71,1.44-3.73l13.02-14.33" style="fill: none; stroke: #fff; stroke-miterlimit: 10; stroke-width: 2px;"/>
  <path d="M668.33,567.02h108.72c1.92,0,3.47,1.55,3.47,3.47v162.68c0,1.92-1.55,3.47-3.47,3.47h-131.24c-1.92,0-3.47-1.55-3.47-3.47v-140.47l26.38-.2-.39-25.48Z" style="fill: #d8d8d8;"/>
  <polygon points="668.99 592.49 668.33 567.02 642.35 592.76 668.99 592.49" style="fill: #757575;"/>
  <path d="M705.73,596.45h108.72c1.92,0,3.47,1.55,3.47,3.47v162.68c0,1.92-1.55,3.47-3.47,3.47h-131.24c-1.92,0-3.47-1.55-3.47-3.47v-140.47l26.38-.2-.39-25.48Z" style="fill: #c9c9c9;"/>
  <polygon points="706.39 621.91 705.73 596.45 679.75 622.18 706.39 621.91" style="fill: #757575;"/>
  <path d="M751.99,626.51h108.72c1.92,0,3.47,1.55,3.47,3.47v162.68c0,1.92-1.55,3.47-3.47,3.47h-131.24c-1.92,0-3.47-1.55-3.47-3.47v-140.47l26.38-.2-.39-25.48Z" style="fill: #b5b5b5;"/>
  <polygon points="752.64 651.98 751.99 626.51 726.01 652.25 752.64 651.98" style="fill: #757575;"/>
  <rect x="317.67" y="520.59" width="57.18" height="95.94" style="fill: #ffaca9;"/>
  <path d="M570.58,147.02h225.7v136.09c0,2.54-2.06,4.6-4.6,4.6h-216.51c-2.54,0-4.6-2.06-4.6-4.6v-136.09h0Z" style="fill: #f4f4f4;"/>
  <path d="M574.26,136.47h218.34c2.03,0,3.68,1.65,3.68,3.68v14.06h-225.7v-14.06c0-2.03,1.65-3.68,3.68-3.68Z" style="fill: #a6c626;"/>
  <circle cx="584.05" cy="146.08" r="3.82" style="fill: #fff;"/>
  <circle cx="596.36" cy="146.08" r="3.82" style="fill: #ea550f;"/>
  <circle cx="610.43" cy="146.08" r="3.82" style="fill: #ea550f;"/>
  <line x1="585.62" y1="177.98" x2="598.87" y2="177.98" style="fill: none; stroke: #000; stroke-linecap: round; stroke-miterlimit: 10; stroke-width: 2px;"/>
  <line x1="594.51" y1="185.32" x2="607.76" y2="185.32" style="fill: none; stroke: #000; stroke-linecap: round; stroke-miterlimit: 10; stroke-width: 2px;"/>
  <line x1="612.3" y1="185.32" x2="680.06" y2="185.32" style="fill: none; stroke: #ea550f; stroke-linecap: round; stroke-miterlimit: 10; stroke-width: 2px;"/>
  <line x1="661.33" y1="200.02" x2="721.3" y2="200.02" style="fill: none; stroke: #000; stroke-linecap: round; stroke-miterlimit: 10; stroke-width: 2px;"/>
  <line x1="602.84" y1="207.37" x2="669.25" y2="207.37" style="fill: none; stroke: #000; stroke-linecap: round; stroke-miterlimit: 10; stroke-width: 2px;"/>
  <line x1="611.81" y1="242.8" x2="680.21" y2="242.8" style="fill: none; stroke: #000; stroke-linecap: round; stroke-miterlimit: 10; stroke-width: 2px;"/>
  <line x1="671.78" y1="207.37" x2="730.22" y2="207.37" style="fill: none; stroke: #ea550f; stroke-linecap: round; stroke-miterlimit: 10; stroke-width: 2px;"/>
  <line x1="669.25" y1="222.28" x2="727.69" y2="222.28" style="fill: none; stroke: #000; stroke-linecap: round; stroke-miterlimit: 10; stroke-width: 2px;"/>
  <line x1="603.41" y1="235.57" x2="667.71" y2="235.57" style="fill: none; stroke: #000; stroke-linecap: round; stroke-miterlimit: 10; stroke-width: 2px;"/>
  <line x1="662.53" y1="250.03" x2="736.56" y2="250.03" style="fill: none; stroke: #ea550f; stroke-linecap: round; stroke-miterlimit: 10; stroke-width: 2px;"/>
  <line x1="602.07" y1="264.49" x2="669.25" y2="264.49" style="fill: none; stroke: #000; stroke-linecap: round; stroke-miterlimit: 10; stroke-width: 2px;"/>
  <line x1="734.06" y1="207.37" x2="771.32" y2="207.37" style="fill: none; stroke: #000; stroke-linecap: round; stroke-miterlimit: 10; stroke-width: 2px;"/>
  <line x1="712.38" y1="229.74" x2="753.83" y2="229.74" style="fill: none; stroke: #ea550f; stroke-linecap: round; stroke-miterlimit: 10; stroke-width: 2px;"/>
  <line x1="663.88" y1="192.67" x2="735.66" y2="192.67" style="fill: none; stroke: #000; stroke-linecap: round; stroke-miterlimit: 10; stroke-width: 2px;"/>
  <line x1="684.23" y1="185.32" x2="729.09" y2="185.32" style="fill: none; stroke: #000; stroke-linecap: round; stroke-miterlimit: 10; stroke-width: 2px;"/>
  <line x1="661.33" y1="229.74" x2="709.07" y2="229.74" style="fill: none; stroke: #000; stroke-linecap: round; stroke-miterlimit: 10; stroke-width: 2px;"/>
  <line x1="594.51" y1="192.67" x2="607.76" y2="192.67" style="fill: none; stroke: #000; stroke-linecap: round; stroke-miterlimit: 10; stroke-width: 2px;"/>
  <line x1="611.93" y1="192.67" x2="657.92" y2="192.67" style="fill: none; stroke: #000; stroke-linecap: round; stroke-miterlimit: 10; stroke-width: 2px;"/>
  <line x1="610.98" y1="222.28" x2="665.23" y2="222.28" style="fill: none; stroke: #ea550f; stroke-linecap: round; stroke-miterlimit: 10; stroke-width: 2px;"/>
  <line x1="672.65" y1="264.49" x2="730.22" y2="264.49" style="fill: none; stroke: #000; stroke-linecap: round; stroke-miterlimit: 10; stroke-width: 2px;"/>
  <line x1="661.33" y1="257.8" x2="721.97" y2="257.8" style="fill: none; stroke: #000; stroke-linecap: round; stroke-miterlimit: 10; stroke-width: 2px;"/>
  <line x1="602.42" y1="257.8" x2="657.92" y2="257.8" style="fill: none; stroke: #ea550f; stroke-linecap: round; stroke-miterlimit: 10; stroke-width: 2px;"/>
  <line x1="704.41" y1="215.28" x2="749.27" y2="215.28" style="fill: none; stroke: #000; stroke-linecap: round; stroke-miterlimit: 10; stroke-width: 2px;"/>
  <line x1="611.81" y1="250.03" x2="657.92" y2="250.03" style="fill: none; stroke: #000; stroke-linecap: round; stroke-miterlimit: 10; stroke-width: 2px;"/>
  <line x1="731.41" y1="242.8" x2="783.23" y2="242.8" style="fill: none; stroke: #000; stroke-linecap: round; stroke-miterlimit: 10; stroke-width: 2px;"/>
  <line x1="682.83" y1="242.8" x2="729.51" y2="242.8" style="fill: none; stroke: #000; stroke-linecap: round; stroke-miterlimit: 10; stroke-width: 2px;"/>
  <line x1="585.62" y1="200.02" x2="598.87" y2="200.02" style="fill: none; stroke: #ea550f; stroke-linecap: round; stroke-miterlimit: 10; stroke-width: 2px;"/>
  <line x1="587.49" y1="207.78" x2="598.87" y2="207.78" style="fill: none; stroke: #000; stroke-linecap: round; stroke-miterlimit: 10; stroke-width: 2px;"/>
  <line x1="587.49" y1="215.28" x2="598.87" y2="215.28" style="fill: none; stroke: #000; stroke-linecap: round; stroke-miterlimit: 10; stroke-width: 2px;"/>
  <line x1="595.45" y1="222.28" x2="606.83" y2="222.28" style="fill: none; stroke: #000; stroke-linecap: round; stroke-miterlimit: 10; stroke-width: 2px;"/>
  <line x1="587.49" y1="235.57" x2="598.87" y2="235.57" style="fill: none; stroke: #000; stroke-linecap: round; stroke-miterlimit: 10; stroke-width: 2px;"/>
  <line x1="596.38" y1="242.8" x2="607.76" y2="242.8" style="fill: none; stroke: #ea550f; stroke-linecap: round; stroke-miterlimit: 10; stroke-width: 2px;"/>
  <line x1="596.38" y1="250.03" x2="607.76" y2="250.03" style="fill: none; stroke: #000; stroke-linecap: round; stroke-miterlimit: 10; stroke-width: 2px;"/>
  <line x1="586.55" y1="257.8" x2="597.93" y2="257.8" style="fill: none; stroke: #000; stroke-linecap: round; stroke-miterlimit: 10; stroke-width: 2px;"/>
  <line x1="586.55" y1="264.49" x2="597.93" y2="264.49" style="fill: none; stroke: #000; stroke-linecap: round; stroke-miterlimit: 10; stroke-width: 2px;"/>
  <line x1="595.45" y1="229.74" x2="606.83" y2="229.74" style="fill: none; stroke: #000; stroke-linecap: round; stroke-miterlimit: 10; stroke-width: 2px;"/>
  <line x1="610.98" y1="229.74" x2="627.47" y2="229.74" style="fill: none; stroke: #ea550f; stroke-linecap: round; stroke-miterlimit: 10; stroke-width: 2px;"/>
  <line x1="631.04" y1="229.74" x2="657.92" y2="229.74" style="fill: none; stroke: #000; stroke-linecap: round; stroke-miterlimit: 10; stroke-width: 2px;"/>
  <line x1="739.25" y1="250.03" x2="769.59" y2="250.03" style="fill: none; stroke: #000; stroke-linecap: round; stroke-miterlimit: 10; stroke-width: 2px;"/>
  <line x1="724.73" y1="200.51" x2="741.41" y2="200.51" style="fill: none; stroke: #000; stroke-linecap: round; stroke-miterlimit: 10; stroke-width: 2px;"/>
  <line x1="752.69" y1="215.28" x2="769.37" y2="215.28" style="fill: none; stroke: #000; stroke-linecap: round; stroke-miterlimit: 10; stroke-width: 2px;"/>
  <line x1="602.42" y1="200.02" x2="657.92" y2="200.02" style="fill: none; stroke: #000; stroke-linecap: round; stroke-miterlimit: 10; stroke-width: 2px;"/>
  <line x1="733.16" y1="185.32" x2="780.52" y2="185.32" style="fill: none; stroke: #000; stroke-linecap: round; stroke-miterlimit: 10; stroke-width: 2px;"/>
  <line x1="712.38" y1="177.98" x2="730.22" y2="177.98" style="fill: none; stroke: #000; stroke-linecap: round; stroke-miterlimit: 10; stroke-width: 2px;"/>
  <line x1="734.62" y1="177.98" x2="763.91" y2="177.98" style="fill: none; stroke: #000; stroke-linecap: round; stroke-miterlimit: 10; stroke-width: 2px;"/>
  <line x1="740.3" y1="192.67" x2="769.59" y2="192.67" style="fill: none; stroke: #000; stroke-linecap: round; stroke-miterlimit: 10; stroke-width: 2px;"/>
  <line x1="603.41" y1="177.98" x2="708.27" y2="177.98" style="fill: none; stroke: #000; stroke-linecap: round; stroke-miterlimit: 10; stroke-width: 2px;"/>
  <line x1="599.55" y1="272.34" x2="690.47" y2="272.34" style="fill: none; stroke: #ea550f; stroke-linecap: round; stroke-miterlimit: 10; stroke-width: 2px;"/>
  <line x1="602.84" y1="215.28" x2="692.25" y2="215.28" style="fill: none; stroke: #000; stroke-linecap: round; stroke-miterlimit: 10; stroke-width: 2px;"/>
  <polyline points="593.89 163.49 587.68 167.36 593.89 171.23" style="fill: none; stroke: #000; stroke-linecap: round; stroke-miterlimit: 10;"/>
  <polyline points="601.03 163.49 607.24 167.36 601.03 171.23" style="fill: none; stroke: #000; stroke-linecap: round; stroke-miterlimit: 10;"/>
  <line x1="599.6" y1="162.26" x2="595.48" y2="171.82" style="fill: none; stroke: #000; stroke-linecap: round; stroke-miterlimit: 10;"/>
  <path d="M374.85,520.59v49.86c-2.37.58-4.79,1-7.27,1.24-17.66,1.72-35.84-10.32-49.91-28.29v-22.81h57.18Z" style="fill: #fc9292;"/>
  <path d="M355.31,405.07c-6.54,1.34-43.4,6.56-52.22,33.85-14.55,45.03,23.38,126.56,73.04,122.11,72.18-6.47,69.83-90.19,51.43-137.89-9.54-24.74-50.73-22.5-72.26-18.08Z" style="fill: #ffaca9;"/>
  <path d="M375.68,446.54v-7.5c0-1.19-1.01-2.16-2.26-2.16h-8.31c-1.25,0-2.26.97-2.26,2.16v7.5c0,1.49-1.26,2.71-2.83,2.71h-64.76c-3.82,0-6.75-3.29-6.41-7.09,3.59-40.15,37.32-71.62,78.43-71.62s76.63,33.15,78.67,74.8c.1,2.12-1.64,3.91-3.86,3.91h-63.59c-1.56,0-2.83-1.21-2.83-2.71Z" style="fill: #8e3951;"/>
  <path d="M327.94,415.42l-4.75,54.57c-.45,5.21-6.25,8.42-11.54,6.43-14.17-5.33-23.65-18.24-22.41-32.41,1.52-17.53,18.85-30.32,38.7-28.59Z" style="fill: #8e3951;"/>
  <ellipse cx="300.56" cy="478.58" rx="17.15" ry="26.47" transform="translate(-85.66 66.01) rotate(-10.98)" style="fill: #ffaca9;"/>
  <path d="M311.12,480.24c0-1.98-.04-9.41-5.25-14.99-2.74-2.93-7.69-5.54-12.19-2.77-2.53,1.56-3.15,4.87-3.3,6" style="fill: none; stroke: #8e3951; stroke-linecap: round; stroke-miterlimit: 10; stroke-width: 2px;"/>
  <line x1="357.67" y1="470.41" x2="385.15" y2="470.41" style="fill: none; stroke: #0a0a0a; stroke-linecap: round; stroke-miterlimit: 10; stroke-width: 4px;"/>
  <line x1="412.63" y1="470.41" x2="437.59" y2="470.41" style="fill: none; stroke: #0a0a0a; stroke-linecap: round; stroke-miterlimit: 10; stroke-width: 4px;"/>
  <circle cx="369.15" cy="486.54" r="7.38" style="fill: #0f0f0f;"/>
  <circle cx="420.67" cy="486.54" r="7.38" style="fill: #0f0f0f;"/>
  <path d="M397.69,493.63c7.16,3.89,9.24,9.78,6.14,13.44-2.15,2.54-6.28,3.4-7.89,3.66" style="fill: #ffaca9; stroke: #8e3951; stroke-linecap: round; stroke-miterlimit: 10; stroke-width: 2px;"/>
  <path d="M366.87,521.21h40.34c1.8,0,3.14,1.6,2.88,3.37-1.65,11.16-11.34,19.73-23.05,19.73-11.71,0-21.4-8.57-23.05-19.73-.26-1.77,1.07-3.37,2.88-3.37Z" style="fill: #fff;"/>
  <path d="M304.98,579.55c18.26,5.77,19.66,12.16,36.15,14.33,13.33,1.75,24.01-2.35,43.78-9.94,20.59-7.9,23.69-7.55,33.66-8.12,11.64-.66,24.06-.27,39.31,16.19,1.46,84.87,2.92,169.73,4.38,254.6h-209.19c2.31-85.46,4.62-170.91,6.93-256.37.23-8.42,4.21-11.17,11.29-11.94,8.72-.94,22.44-2.31,33.69,1.24Z" style="fill: #a6c626;"/>
  <path d="M205.54,642.96c-14.17,28.2-28.34,56.4-42.51,84.6-13.49,28.08-11.49,63.32,2.94,78.33,15.52,16.15,41.4,4.69,54.5-26.93,16.63-32.26,33.25-64.52,49.88-96.78-21.6-13.08-43.2-26.15-64.81-39.23Z" style="fill: #ffaca9;"/>
  <path d="M446,664.71c7.31,33.66,14.62,67.32,21.92,100.98,7.72,33.16,31.08,63.87,50.82,69.14,21.24,5.67,32.78-19.59,22.57-55.73-8.06-38.74-16.12-77.49-24.18-116.23-23.71.62-47.42,1.23-71.14,1.85Z" style="fill: #ffaca9;"/>
  <path d="M277.02,578.94c-17.52-4.38-41.2,8.1-43.74,10.68-11.78,12.31-25.29,28.69-37.75,49.55-18.23,30.52-27.39,59.22-32.24,80.22,6.78,5.43,18.41,13.35,34.6,18.09,6.24,1.83,32.33,9.46,55.84,0,41.25-16.6,52.95-77.12,44.83-117.18-2.53-12.47-1.79-36.42-21.54-41.35Z" style="fill: #a6c626;"/>
  <path d="M158.74,789l1.01-18.41c.7-12.73,10.29-22.55,21.42-21.94l177.04,24.56.47,35.38-181.06,4.57c-11.13-.61-19.58-11.43-18.88-24.16Z" style="fill: #ffaca9;"/>
  <path d="M601.28,833.87l-15.77-6.52c-10.9-4.51-16.71-15.46-12.99-24.47l72.18-138.66,24.71,8.4c3.5,1.19,5.29,5.25,4.04,9.19l-45.34,142.8c-.3.95-.66,1.88-1.15,2.75-4.41,7.8-15.47,10.74-25.69,6.51Z" style="fill: #ffaca9;"/>
  <circle cx="311.86" cy="380.04" r="41.1" style="fill: #8e3951;"/>
  <path d="M297.74,580.17c-1.53,6.77,18.96,24.55,40.27,27,30.37,3.49,60.73-17.71,59.05-25.43-1.34-6.19-23.89,4.11-50.8,4.19-24.44.08-47.01-12.43-48.52-5.77Z" style="fill: #ffaca9;"/>
  <path d="M441.37,579.6c8.68-1.51,18.34,6.58,29.21,15.9,42.25,36.21,53.56,79.47,56.37,108.43-32.46,2.29-64.91,4.58-97.37,6.87-7.44-59.81-11.13-127.22,11.79-131.2Z" style="fill: #a6c626;"/>
  <path d="M335.06,773.07c8.6-3.97,11.56.51,35.78-.36,22.31-.8,32.28-5.05,41.45.72,3.96,2.49,5.63,5.5,7.85,9.66,3.2,5.99,8.46,18.76,4.36,37.58-1.61,10.17-5.93,13.63-9.16,15.03-14.06,6.09-30.37-16.98-69.37-21.83-13.01-1.62-19.44-.08-24-4.65-8.43-8.46-1.9-29.23,13.09-36.15Z" style="fill: #ffaca9;"/>
  <path d="M633.03,846.61h-222.99c-8.88,0-15.15-8.6-12.38-16.95l51.27-154.09c1.76-5.29,6.75-8.87,12.38-8.87h222.99c8.88,0,15.15,8.6,12.38,16.95l-51.27,154.09c-1.76,5.29-6.75,8.87-12.38,8.87Z" style="fill: #192f35;"/>
  <line x1="330.55" y1="838.45" x2="415.5" y2="838.45" style="fill: none; stroke: #192f35; stroke-linecap: round; stroke-miterlimit: 10; stroke-width: 15px;"/>
  <image width="1024" height="1024" transform="translate(543.35 726.71) rotate(8.59) scale(.04)" xlink:href="../../../../../../Downloads/Techysquad-Logo-01.png"/>
  <line x1="119.98" y1="846.61" x2="892.06" y2="846.61" style="fill: none; stroke: #353535; stroke-miterlimit: 10; stroke-width: 3px;"/>
  <path d="M653.83,268.55h225.7v136.09c0,2.54-2.06,4.6-4.6,4.6h-216.51c-2.54,0-4.6-2.06-4.6-4.6v-136.09h0Z" style="fill: #f4f4f4;"/>
  <path d="M657.51,258h218.34c2.03,0,3.68,1.65,3.68,3.68v14.06h-225.7v-14.06c0-2.03,1.65-3.68,3.68-3.68Z" style="fill: #a6c626;"/>
  <circle cx="667.3" cy="267.62" r="3.82" style="fill: #fff;"/>
  <circle cx="679.61" cy="267.62" r="3.82" style="fill: #ea550f;"/>
  <line x1="667.22" y1="381.58" x2="680.47" y2="381.58" style="fill: none; stroke: #000; stroke-linecap: round; stroke-miterlimit: 10; stroke-width: 2px;"/>
  <line x1="676.11" y1="374.23" x2="689.36" y2="374.23" style="fill: none; stroke: #000; stroke-linecap: round; stroke-miterlimit: 10; stroke-width: 2px;"/>
  <line x1="693.91" y1="374.23" x2="761.67" y2="374.23" style="fill: none; stroke: #000; stroke-linecap: round; stroke-miterlimit: 10; stroke-width: 2px;"/>
  <line x1="742.93" y1="359.54" x2="802.9" y2="359.54" style="fill: none; stroke: #000; stroke-linecap: round; stroke-miterlimit: 10; stroke-width: 2px;"/>
  <line x1="684.44" y1="352.19" x2="750.85" y2="352.19" style="fill: none; stroke: #000; stroke-linecap: round; stroke-miterlimit: 10; stroke-width: 2px;"/>
  <line x1="693.41" y1="316.76" x2="761.81" y2="316.76" style="fill: none; stroke: #000; stroke-linecap: round; stroke-miterlimit: 10; stroke-width: 2px;"/>
  <line x1="753.39" y1="352.19" x2="811.82" y2="352.19" style="fill: none; stroke: #ea550f; stroke-linecap: round; stroke-miterlimit: 10; stroke-width: 2px;"/>
  <line x1="750.85" y1="337.28" x2="809.29" y2="337.28" style="fill: none; stroke: #000; stroke-linecap: round; stroke-miterlimit: 10; stroke-width: 2px;"/>
  <line x1="685.01" y1="323.99" x2="749.32" y2="323.99" style="fill: none; stroke: #000; stroke-linecap: round; stroke-miterlimit: 10; stroke-width: 2px;"/>
  <line x1="744.13" y1="309.53" x2="818.16" y2="309.53" style="fill: none; stroke: #000; stroke-linecap: round; stroke-miterlimit: 10; stroke-width: 2px;"/>
  <line x1="683.67" y1="295.07" x2="750.85" y2="295.07" style="fill: none; stroke: #000; stroke-linecap: round; stroke-miterlimit: 10; stroke-width: 2px;"/>
  <line x1="815.66" y1="352.19" x2="852.92" y2="352.19" style="fill: none; stroke: #000; stroke-linecap: round; stroke-miterlimit: 10; stroke-width: 2px;"/>
  <line x1="793.98" y1="329.81" x2="835.44" y2="329.81" style="fill: none; stroke: #ea550f; stroke-linecap: round; stroke-miterlimit: 10; stroke-width: 2px;"/>
  <line x1="745.48" y1="366.88" x2="817.27" y2="366.88" style="fill: none; stroke: #000; stroke-linecap: round; stroke-miterlimit: 10; stroke-width: 2px;"/>
  <line x1="765.83" y1="374.23" x2="810.69" y2="374.23" style="fill: none; stroke: #000; stroke-linecap: round; stroke-miterlimit: 10; stroke-width: 2px;"/>
  <line x1="742.93" y1="329.81" x2="790.67" y2="329.81" style="fill: none; stroke: #000; stroke-linecap: round; stroke-miterlimit: 10; stroke-width: 2px;"/>
  <line x1="676.11" y1="366.88" x2="689.36" y2="366.88" style="fill: none; stroke: #000; stroke-linecap: round; stroke-miterlimit: 10; stroke-width: 2px;"/>
  <line x1="693.53" y1="366.88" x2="739.52" y2="366.88" style="fill: none; stroke: #ea550f; stroke-linecap: round; stroke-miterlimit: 10; stroke-width: 2px;"/>
  <line x1="692.58" y1="337.28" x2="746.83" y2="337.28" style="fill: none; stroke: #000; stroke-linecap: round; stroke-miterlimit: 10; stroke-width: 2px;"/>
  <line x1="754.25" y1="295.07" x2="811.82" y2="295.07" style="fill: none; stroke: #ea550f; stroke-linecap: round; stroke-miterlimit: 10; stroke-width: 2px;"/>
  <line x1="742.93" y1="301.75" x2="803.57" y2="301.75" style="fill: none; stroke: #000; stroke-linecap: round; stroke-miterlimit: 10; stroke-width: 2px;"/>
  <line x1="684.02" y1="301.75" x2="739.52" y2="301.75" style="fill: none; stroke: #ea550f; stroke-linecap: round; stroke-miterlimit: 10; stroke-width: 2px;"/>
  <line x1="786.01" y1="344.28" x2="830.87" y2="344.28" style="fill: none; stroke: #000; stroke-linecap: round; stroke-miterlimit: 10; stroke-width: 2px;"/>
  <line x1="693.41" y1="309.53" x2="739.52" y2="309.53" style="fill: none; stroke: #000; stroke-linecap: round; stroke-miterlimit: 10; stroke-width: 2px;"/>
  <line x1="814.76" y1="316.76" x2="864.84" y2="316.76" style="fill: none; stroke: #000; stroke-linecap: round; stroke-miterlimit: 10; stroke-width: 2px;"/>
  <line x1="764.43" y1="316.76" x2="811.11" y2="316.76" style="fill: none; stroke: #ea550f; stroke-linecap: round; stroke-miterlimit: 10; stroke-width: 2px;"/>
  <line x1="667.22" y1="359.54" x2="680.47" y2="359.54" style="fill: none; stroke: #000; stroke-linecap: round; stroke-miterlimit: 10; stroke-width: 2px;"/>
  <line x1="669.09" y1="351.78" x2="680.47" y2="351.78" style="fill: none; stroke: #000; stroke-linecap: round; stroke-miterlimit: 10; stroke-width: 2px;"/>
  <line x1="669.09" y1="344.28" x2="680.47" y2="344.28" style="fill: none; stroke: #000; stroke-linecap: round; stroke-miterlimit: 10; stroke-width: 2px;"/>
  <line x1="677.05" y1="337.28" x2="688.43" y2="337.28" style="fill: none; stroke: #000; stroke-linecap: round; stroke-miterlimit: 10; stroke-width: 2px;"/>
  <line x1="669.09" y1="323.99" x2="680.47" y2="323.99" style="fill: none; stroke: #000; stroke-linecap: round; stroke-miterlimit: 10; stroke-width: 2px;"/>
  <line x1="677.98" y1="316.76" x2="689.36" y2="316.76" style="fill: none; stroke: #000; stroke-linecap: round; stroke-miterlimit: 10; stroke-width: 2px;"/>
  <line x1="677.98" y1="309.53" x2="689.36" y2="309.53" style="fill: none; stroke: #000; stroke-linecap: round; stroke-miterlimit: 10; stroke-width: 2px;"/>
  <line x1="668.15" y1="301.75" x2="679.53" y2="301.75" style="fill: none; stroke: #000; stroke-linecap: round; stroke-miterlimit: 10; stroke-width: 2px;"/>
  <line x1="668.15" y1="295.07" x2="679.53" y2="295.07" style="fill: none; stroke: #000; stroke-linecap: round; stroke-miterlimit: 10; stroke-width: 2px;"/>
  <line x1="668.15" y1="287.07" x2="677.04" y2="287.07" style="fill: none; stroke: #ea550f; stroke-linecap: round; stroke-miterlimit: 10; stroke-width: 2px;"/>
  <line x1="677.05" y1="329.81" x2="688.43" y2="329.81" style="fill: none; stroke: #000; stroke-linecap: round; stroke-miterlimit: 10; stroke-width: 2px;"/>
  <line x1="692.58" y1="329.81" x2="709.07" y2="329.81" style="fill: none; stroke: #000; stroke-linecap: round; stroke-miterlimit: 10; stroke-width: 2px;"/>
  <line x1="712.64" y1="329.81" x2="739.52" y2="329.81" style="fill: none; stroke: #ea550f; stroke-linecap: round; stroke-miterlimit: 10; stroke-width: 2px;"/>
  <line x1="820.85" y1="309.53" x2="851.19" y2="309.53" style="fill: none; stroke: #000; stroke-linecap: round; stroke-miterlimit: 10; stroke-width: 2px;"/>
  <line x1="806.33" y1="359.05" x2="823.01" y2="359.05" style="fill: none; stroke: #000; stroke-linecap: round; stroke-miterlimit: 10; stroke-width: 2px;"/>
  <line x1="834.29" y1="344.28" x2="850.97" y2="344.28" style="fill: none; stroke: #000; stroke-linecap: round; stroke-miterlimit: 10; stroke-width: 2px;"/>
  <line x1="684.02" y1="359.54" x2="739.52" y2="359.54" style="fill: none; stroke: #000; stroke-linecap: round; stroke-miterlimit: 10; stroke-width: 2px;"/>
  <line x1="814.76" y1="374.23" x2="862.12" y2="374.23" style="fill: none; stroke: #ea550f; stroke-linecap: round; stroke-miterlimit: 10; stroke-width: 2px;"/>
  <line x1="793.98" y1="381.58" x2="811.82" y2="381.58" style="fill: none; stroke: #000; stroke-linecap: round; stroke-miterlimit: 10; stroke-width: 2px;"/>
  <line x1="816.22" y1="381.58" x2="845.51" y2="381.58" style="fill: none; stroke: #000; stroke-linecap: round; stroke-miterlimit: 10; stroke-width: 2px;"/>
  <line x1="821.9" y1="366.88" x2="851.19" y2="366.88" style="fill: none; stroke: #000; stroke-linecap: round; stroke-miterlimit: 10; stroke-width: 2px;"/>
  <line x1="685.01" y1="381.58" x2="789.87" y2="381.58" style="fill: none; stroke: #000; stroke-linecap: round; stroke-miterlimit: 10; stroke-width: 2px;"/>
  <line x1="681.15" y1="287.21" x2="772.08" y2="287.21" style="fill: none; stroke: #000; stroke-linecap: round; stroke-miterlimit: 10; stroke-width: 2px;"/>
  <line x1="684.44" y1="344.28" x2="773.85" y2="344.28" style="fill: none; stroke: #ea550f; stroke-linecap: round; stroke-miterlimit: 10; stroke-width: 2px;"/>
  <polyline points="675.49 396.07 669.29 392.2 675.49 388.32" style="fill: none; stroke: #000; stroke-linecap: round; stroke-miterlimit: 10;"/>
  <polyline points="682.63 396.07 688.84 392.2 682.63 388.32" style="fill: none; stroke: #000; stroke-linecap: round; stroke-miterlimit: 10;"/>
  <line x1="677.08" y1="397.3" x2="681.2" y2="387.74" style="fill: none; stroke: #000; stroke-linecap: round; stroke-miterlimit: 10;"/>
  <circle cx="693.68" cy="267.62" r="3.82" style="fill: #ea550f;"/>
  <path d="M596.36,309.51v50.86c0,5.26,4.26,9.52,9.52,9.52h22.29" style="fill: none; stroke: #f4f4f4; stroke-linecap: round; stroke-miterlimit: 10; stroke-width: 4px;"/>
  <path d="M637.9,368l-12.96-7.48c-1.46-.84-3.28.21-3.28,1.89v14.96c0,1.68,1.82,2.73,3.28,1.89l12.96-7.48c1.46-.84,1.46-2.94,0-3.79Z" style="fill: #f4f4f4;"/>
  <text transform="translate(92.78 305.46)" style="fill: #fff; font-family: MyriadPro-Regular, &apos;Myriad Pro&apos;; font-size: 15px;"><tspan x="0" y="0">1</tspan></text>
  <text transform="translate(283.78 305.46)" style="fill: #fff; font-family: MyriadPro-Regular, &apos;Myriad Pro&apos;; font-size: 15px;"><tspan x="0" y="0">2</tspan></text>
  <text transform="translate(500.78 305.46)" style="fill: #fff; font-family: MyriadPro-Regular, &apos;Myriad Pro&apos;; font-size: 15px;"><tspan x="0" y="0">3</tspan></text>
</svg>