<?xml version="1.0" encoding="UTF-8"?>
<svg id="Layer_21" xmlns="http://www.w3.org/2000/svg" xmlns:xlink="http://www.w3.org/1999/xlink" viewBox="0 0 1024 1024">
  <path d="M420.02,324.41c.39-2.61.47-6.81-1.35-10.17-1.71-3.15-4.29-6.71-8.77-8.83" style="fill: none; stroke: #a5a5a5; stroke-linecap: round; stroke-miterlimit: 10; stroke-width: 9px;"/>
  <rect x="309.08" y="461.86" width="62.68" height="105.17" style="fill: #ffaca9;"/>
  <path d="M371.76,461.86v54.66c-2.6.64-5.25,1.09-7.96,1.36-19.36,1.88-39.29-11.32-54.71-31.01v-25h62.68Z" style="fill: #fc9292;"/>
  <path d="M350.34,335.22c-7.17,1.47-47.57,7.19-57.24,37.11-15.95,49.37,27.05,141.19,81.67,139.37,78.29-2.61,74.95-104.37,54.78-156.66-10.46-27.12-55.61-24.66-79.21-19.82Z" style="fill: #ffaca9;"/>
  <path d="M372.67,380.68v-8.22c0-1.31-1.11-2.37-2.47-2.37h-9.11c-1.37,0-2.47,1.06-2.47,2.37v8.22c0,1.64-1.39,2.97-3.1,2.97h-71c-4.18,0-7.4-3.61-7.03-7.78,3.93-44.01,40.91-78.51,85.98-78.51s84,36.34,86.24,82c.11,2.33-1.8,4.29-4.23,4.29h-69.71c-1.71,0-3.1-1.33-3.1-2.97Z" style="fill: #8e3951;"/>
  <path d="M320.34,346.56l-5.21,59.82c-.5,5.71-6.86,9.23-12.65,7.05-15.53-5.85-25.92-20-24.57-35.53,1.67-19.21,20.67-33.24,42.42-31.34Z" style="fill: #8e3951;"/>
  <line x1="352.93" y1="417.81" x2="383.06" y2="417.81" style="fill: none; stroke: #0a0a0a; stroke-linecap: round; stroke-miterlimit: 10; stroke-width: 4px;"/>
  <line x1="413.18" y1="417.81" x2="440.54" y2="417.81" style="fill: none; stroke: #0a0a0a; stroke-linecap: round; stroke-miterlimit: 10; stroke-width: 4px;"/>
  <circle cx="365.51" cy="435.49" r="8.09" style="fill: #0f0f0f;"/>
  <circle cx="421.99" cy="435.49" r="8.09" style="fill: #0f0f0f;"/>
  <path d="M396.8,443.26c7.85,4.26,10.13,10.72,6.73,14.73-2.36,2.79-6.88,3.72-8.65,4.02" style="fill: #ffaca9; stroke: #8e3951; stroke-linecap: round; stroke-miterlimit: 10; stroke-width: 2px;"/>
  <path d="M363.01,470.37h44.22c1.98,0,3.44,1.76,3.15,3.7-1.8,12.24-12.43,21.63-25.27,21.63-12.84,0-23.46-9.39-25.27-21.63-.29-1.94,1.18-3.7,3.15-3.7Z" style="fill: #fff;"/>
  <path d="M295.17,526.49c20.02,6.32,21.55,13.33,39.63,15.7,14.61,1.92,26.32-2.58,48-10.89,22.57-8.66,25.97-8.28,36.9-8.9,12.76-.72,26.37-.29,43.1,17.75,1.6,93.03,3.2,186.06,4.8,279.1h-229.32c2.53-93.68,5.06-187.35,7.59-281.03.25-9.23,4.61-12.25,12.38-13.09,9.55-1.03,24.6-2.53,36.93,1.36Z" style="fill: #a6c626;"/>
  <path d="M186.16,595.99c-15.53,30.91-31.07,61.83-46.6,92.74-14.79,30.78-12.59,69.41,3.22,85.87,17.02,17.71,45.38,5.14,59.74-29.52,18.23-35.36,36.45-70.73,54.68-106.09-23.68-14.33-47.36-28.67-71.04-43Z" style="fill: #ffaca9;"/>
  <path d="M264.52,525.82c-19.21-4.8-45.16,8.88-47.94,11.71-12.91,13.5-27.72,31.45-41.38,54.31-19.99,33.46-30.03,64.92-35.35,87.94,7.43,5.95,20.18,14.63,37.93,19.83,6.85,2,35.44,10.37,61.21,0,45.22-18.2,58.04-84.54,49.14-128.45-2.77-13.67-1.96-39.93-23.61-45.33Z" style="fill: #a6c626;"/>
  <path d="M134.86,756.09l1.11-20.19c.77-13.95,11.28-24.72,23.48-24.05l194.07,26.92.52,38.79-198.48,5.01c-12.2-.67-21.46-12.53-20.69-26.48Z" style="fill: #ffaca9;"/>
  <circle cx="302.71" cy="307.78" r="45.06" style="fill: #8e3951;"/>
  <path d="M287.23,527.16c-1.68,7.42,20.78,26.91,44.15,29.6,33.3,3.83,66.57-19.42,64.73-27.87-1.47-6.78-26.19,4.5-55.69,4.6-26.79.09-51.53-13.63-53.19-6.32Z" style="fill: #ffaca9;"/>
  <path d="M444.68,526.55c9.52-1.65,20.1,7.22,32.02,17.43,46.31,39.69,58.72,87.12,61.8,118.86-35.58,2.51-71.16,5.02-106.74,7.53-8.15-65.57-12.2-139.46,12.92-143.82Z" style="fill: #a6c626;"/>
  <path d="M328.14,738.63c9.43-4.35,12.68.56,39.22-.39,24.46-.88,35.39-5.54,45.44.78,4.34,2.73,6.17,6.03,8.61,10.59,3.51,6.56,9.27,20.57,4.78,41.2-1.76,11.14-6.5,14.94-10.04,16.48-15.41,6.68-33.29-18.61-76.05-23.93-14.26-1.77-21.31-.08-26.31-5.1-9.25-9.28-2.09-32.04,14.35-39.63Z" style="fill: #ffaca9;"/>
  <path d="M654.79,819.25h-244.45c-9.73,0-16.61-9.42-13.57-18.58l56.2-168.91c1.93-5.8,7.4-9.72,13.57-9.72h244.45c9.73,0,16.61,9.42,13.57,18.58l-56.2,168.91c-1.93,5.8-7.4,9.72-13.57,9.72Z" style="fill: #192f35;"/>
  <line x1="323.2" y1="810.29" x2="416.32" y2="810.29" style="fill: none; stroke: #192f35; stroke-linecap: round; stroke-miterlimit: 10; stroke-width: 15px;"/>
  <image width="1024" height="1024" transform="translate(556.48 687.8) rotate(8.59) scale(.05)" xlink:href="../../../../../../Downloads/Techysquad-Logo-01.png"/>
  <line x1="59.48" y1="819.25" x2="976.63" y2="819.25" style="fill: none; stroke: #353535; stroke-miterlimit: 10; stroke-width: 3px;"/>
  <path d="M411.25,306.08c-10.92-6.51-30.41-12.87-52.81-10.09-13.47,1.68-38.06,7.78-58.15,40.54-10.75,17.52-11.1,35.8-10.44,45.64" style="fill: none; stroke: #a5a5a5; stroke-linecap: round; stroke-miterlimit: 10; stroke-width: 9px;"/>
  <ellipse cx="293.89" cy="413.9" rx="22.3" ry="33.26" transform="translate(-16.01 11.85) rotate(-2.25)" style="fill: #c9c9c9;"/>
  <ellipse cx="286.8" cy="413.37" rx="22.3" ry="33.26" transform="translate(-15.99 11.57) rotate(-2.25)" style="fill: #a8a8a8;"/>
  <path d="M289.65,439.33c.63,4.46,2.49,12.89,8.96,20.71,13.19,15.94,33.89,15.25,36.57,15.11" style="fill: none; stroke: #c9c9c9; stroke-linecap: round; stroke-miterlimit: 10; stroke-width: 5px;"/>
  <ellipse cx="336.48" cy="475.19" rx="8.14" ry="6.22" transform="translate(-18.38 13.56) rotate(-2.25)" style="fill: #a8a8a8;"/>
  <rect x="524.3" y="175.19" width="331.66" height="165.32" rx="26.04" ry="26.04" style="fill: #fff;"/>
  <path d="M549.09,382.23c36.4-13.16,64.61-31.22,83.99-54.54l-72.43-8.16c6.33,19.03-1.17,40.6-11.57,62.7Z" style="fill: #fff;"/>
  <line x1="570.2" y1="217.68" x2="685.98" y2="217.68" style="fill: none; stroke: #353535; stroke-linecap: round; stroke-miterlimit: 10; stroke-width: 6px;"/>
  <line x1="705.48" y1="217.68" x2="819.76" y2="217.68" style="fill: none; stroke: #353535; stroke-linecap: round; stroke-miterlimit: 10; stroke-width: 6px;"/>
  <line x1="570.2" y1="252.76" x2="792.43" y2="252.76" style="fill: none; stroke: #353535; stroke-linecap: round; stroke-miterlimit: 10; stroke-width: 3px;"/>
  <line x1="570.2" y1="297.71" x2="716.39" y2="297.71" style="fill: none; stroke: #353535; stroke-linecap: round; stroke-miterlimit: 10; stroke-width: 3px;"/>
  <line x1="570.2" y1="275.62" x2="681.03" y2="275.62" style="fill: none; stroke: #353535; stroke-linecap: round; stroke-miterlimit: 10; stroke-width: 3px;"/>
  <rect x="542.93" y="458.14" width="114.66" height="73.14" rx="6.72" ry="6.72" style="fill: #fff;"/>
  <path d="M544.56,461.7l53.51,39.69c1.2.99,3.07,1.07,4.39.19l53.36-40.07" style="fill: none; stroke: #232323; stroke-linecap: round; stroke-miterlimit: 10;"/>
  <line x1="583.41" y1="490.52" x2="545.08" y2="528.17" style="fill: none; stroke: #232323; stroke-linecap: round; stroke-miterlimit: 10;"/>
  <line x1="617.44" y1="490.52" x2="655.07" y2="528.17" style="fill: none; stroke: #232323; stroke-linecap: round; stroke-miterlimit: 10;"/>
  <circle cx="652.01" cy="461.21" r="22.35" style="fill: #ff1515;"/>
  <text transform="translate(638 466.82)" style="fill: #fff; font-family: MyriadPro-Regular, &apos;Myriad Pro&apos;; font-size: 17.74px;"><tspan x="0" y="0">95+</tspan></text>
  <rect x="714.76" y="389.26" width="261.87" height="57.1" rx="5.96" ry="5.96" style="fill: #efff94;"/>
  <path d="M755.49,421.89l-7.06-4.07,7.06-4.07c.4-.23.53-.74.3-1.14l-1.66-2.88c-.23-.4-.74-.53-1.14-.3l-7.06,4.07v-8.15c0-.46-.37-.83-.83-.83h-3.33c-.46,0-.83.37-.83.83v8.15l-7.06-4.07c-.4-.23-.91-.09-1.14.3l-1.66,2.88c-.23.4-.09.91.3,1.14l7.06,4.07-7.06,4.07c-.4.23-.53.74-.3,1.14l1.66,2.88c.23.4.74.53,1.14.3l7.06-4.07v8.15c0,.46.37.83.83.83h3.33c.46,0,.83-.37.83-.83v-8.15l7.06,4.07c.4.23.91.09,1.14-.3l1.66-2.88c.23-.4.09-.91-.3-1.13Z"/>
  <path d="M798.25,421.89l-7.06-4.07,7.06-4.07c.4-.23.53-.74.3-1.14l-1.66-2.88c-.23-.4-.74-.53-1.14-.3l-7.06,4.07v-8.15c0-.46-.37-.83-.83-.83h-3.33c-.46,0-.83.37-.83.83v8.15l-7.06-4.07c-.4-.23-.91-.09-1.14.3l-1.66,2.88c-.23.4-.09.91.3,1.14l7.06,4.07-7.06,4.07c-.4.23-.53.74-.3,1.14l1.66,2.88c.23.4.74.53,1.14.3l7.06-4.07v8.15c0,.46.37.83.83.83h3.33c.46,0,.83-.37.83-.83v-8.15l7.06,4.07c.4.23.91.09,1.14-.3l1.66-2.88c.23-.4.09-.91-.3-1.13Z"/>
  <path d="M838.81,421.89l-7.06-4.07,7.06-4.07c.4-.23.53-.74.3-1.14l-1.66-2.88c-.23-.4-.74-.53-1.14-.3l-7.06,4.07v-8.15c0-.46-.37-.83-.83-.83h-3.33c-.46,0-.83.37-.83.83v8.15l-7.06-4.07c-.4-.23-.91-.09-1.14.3l-1.66,2.88c-.23.4-.09.91.3,1.14l7.06,4.07-7.06,4.07c-.4.23-.53.74-.3,1.14l1.66,2.88c.23.4.74.53,1.14.3l7.06-4.07v8.15c0,.46.37.83.83.83h3.33c.46,0,.83-.37.83-.83v-8.15l7.06,4.07c.4.23.91.09,1.14-.3l1.66-2.88c.23-.4.09-.91-.3-1.13Z"/>
  <path d="M877.17,421.89l-7.06-4.07,7.06-4.07c.4-.23.53-.74.3-1.14l-1.66-2.88c-.23-.4-.74-.53-1.14-.3l-7.06,4.07v-8.15c0-.46-.37-.83-.83-.83h-3.33c-.46,0-.83.37-.83.83v8.15l-7.06-4.07c-.4-.23-.91-.09-1.14.3l-1.66,2.88c-.23.4-.09.91.3,1.14l7.06,4.07-7.06,4.07c-.4.23-.53.74-.3,1.14l1.66,2.88c.23.4.74.53,1.14.3l7.06-4.07v8.15c0,.46.37.83.83.83h3.33c.46,0,.83-.37.83-.83v-8.15l7.06,4.07c.4.23.91.09,1.14-.3l1.66-2.88c.23-.4.09-.91-.3-1.13Z"/>
  <path d="M918.83,421.89l-7.06-4.07,7.06-4.07c.4-.23.53-.74.3-1.14l-1.66-2.88c-.23-.4-.74-.53-1.14-.3l-7.06,4.07v-8.15c0-.46-.37-.83-.83-.83h-3.33c-.46,0-.83.37-.83.83v8.15l-7.06-4.07c-.4-.23-.91-.09-1.14.3l-1.66,2.88c-.23.4-.09.91.3,1.14l7.06,4.07-7.06,4.07c-.4.23-.53.74-.3,1.14l1.66,2.88c.23.4.74.53,1.14.3l7.06-4.07v8.15c0,.46.37.83.83.83h3.33c.46,0,.83-.37.83-.83v-8.15l7.06,4.07c.4.23.91.09,1.14-.3l1.66-2.88c.23-.4.09-.91-.3-1.13Z"/>
  <path d="M959.39,421.89l-7.06-4.07,7.06-4.07c.4-.23.53-.74.3-1.14l-1.66-2.88c-.23-.4-.74-.53-1.14-.3l-7.06,4.07v-8.15c0-.46-.37-.83-.83-.83h-3.33c-.46,0-.83.37-.83.83v8.15l-7.06-4.07c-.4-.23-.91-.09-1.14.3l-1.66,2.88c-.23.4-.09.91.3,1.14l7.06,4.07-7.06,4.07c-.4.23-.53.74-.3,1.14l1.66,2.88c.23.4.74.53,1.14.3l7.06-4.07v8.15c0,.46.37.83.83.83h3.33c.46,0,.83-.37.83-.83v-8.15l7.06,4.07c.4.23.91.09,1.14-.3l1.66-2.88c.23-.4.09-.91-.3-1.13Z" style="fill: #ea550f;"/>
  <rect x="65.79" y="369.33" width="127.63" height="86.2" rx="9.36" ry="9.36" style="fill: #efff94;"/>
  <path d="M223.56,413.36l-32.04-15.17c-1.68-.8-3.62.41-3.66,2.26l-.6,28.98c-.04,1.86,1.85,3.14,3.56,2.42l32.64-13.82c2.04-.86,2.1-3.73.1-4.68Z" style="fill: #efff94;"/>
  <circle cx="93.46" cy="412.44" r="8.91" style="fill: #0f0f0f;"/>
  <circle cx="129.64" cy="412.44" r="8.91" style="fill: #0f0f0f;"/>
  <circle cx="164.72" cy="412.44" r="8.91" style="fill: #0f0f0f;"/>
</svg>