<?xml version="1.0" encoding="UTF-8"?>
<svg id="Layer_20" xmlns="http://www.w3.org/2000/svg" viewBox="0 0 1024 1024">
  <rect x="493.41" y="404.51" width="86.49" height="145.13" style="fill: #ffaca9;"/>
  <path d="M579.9,404.51v75.42c-3.58.88-7.25,1.51-10.99,1.87-26.71,2.6-54.22-15.61-75.5-42.79v-34.5h86.49Z" style="fill: #fc9292;"/>
  <path d="M520.1,229.76c-9.89,2.03-65.65,9.92-78.99,51.21-22.01,68.12,16.05,189.53,91.4,192.5,99.79,3.93,124.71-144.2,96.88-216.36-14.43-37.43-76.73-34.03-109.3-27.35Z" style="fill: #ffaca9;"/>
  <path d="M550.91,292.5v-11.34c0-1.81-1.53-3.27-3.41-3.27h-12.57c-1.89,0-3.41,1.46-3.41,3.27v11.34c0,2.26-1.91,4.09-4.27,4.09h-97.97c-5.77,0-10.21-4.98-9.7-10.73,5.43-60.73,56.45-108.34,118.64-108.34s115.92,50.14,119,113.15c.16,3.21-2.48,5.91-5.84,5.91h-96.19c-2.36,0-4.27-1.83-4.27-4.09Z" style="fill: #8e3951;"/>
  <path d="M453.98,243.26l-7.18,82.55c-.69,7.88-5.69,13.07-9.96,10.38-11.45-7.2-18.55-26.1-16.69-47.53,2.31-26.51,17.45-46.83,33.83-45.4Z" style="fill: #8e3951;"/>
  <ellipse cx="431.78" cy="339.67" rx="19.21" ry="40.04" transform="translate(-56.8 88.46) rotate(-10.98)" style="fill: #ffaca9;"/>
  <path d="M443,340.54c-.1-2.97-.49-14.15-7.38-22.78-3.62-4.54-10.04-8.69-15.62-4.74-3.14,2.23-3.78,7.17-3.92,8.87" style="fill: none; stroke: #8e3951; stroke-linecap: round; stroke-miterlimit: 10; stroke-width: 2px;"/>
  <path d="M623.27,237.12l7.18,82.55c.69,7.88,5.69,13.07,9.96,10.38,11.45-7.2,18.55-26.1,16.69-47.53-2.31-26.51-17.45-46.83-33.83-45.4Z" style="fill: #8e3951;"/>
  <ellipse cx="646.99" cy="339.59" rx="40.04" ry="19.21" transform="translate(190.38 910.05) rotate(-79.02)" style="fill: #ffaca9;"/>
  <path d="M635.76,338.94c.1-2.97.49-14.15,7.38-22.78,3.62-4.54,10.04-8.69,15.62-4.74,3.14,2.23,3.78,7.17,3.92,8.87" style="fill: none; stroke: #8e3951; stroke-linecap: round; stroke-miterlimit: 10; stroke-width: 2px;"/>
  <line x1="482.83" y1="322.55" x2="524.4" y2="322.55" style="fill: none; stroke: #0a0a0a; stroke-linecap: round; stroke-miterlimit: 10; stroke-width: 4px;"/>
  <line x1="565.96" y1="322.55" x2="603.71" y2="322.55" style="fill: none; stroke: #0a0a0a; stroke-linecap: round; stroke-miterlimit: 10; stroke-width: 4px;"/>
  <circle cx="500.18" cy="346.95" r="11.17" style="fill: #0f0f0f;"/>
  <circle cx="578.13" cy="346.95" r="11.17" style="fill: #0f0f0f;"/>
  <path d="M540.33,363.72c10.84,5.88,13.97,14.79,9.29,20.33-3.25,3.84-9.5,5.14-11.94,5.54" style="fill: #ffaca9; stroke: #8e3951; stroke-linecap: round; stroke-miterlimit: 10; stroke-width: 2px;"/>
  <path d="M508.84,405.44h61.02c2.73,0,4.75,2.43,4.35,5.1-2.49,16.88-17.15,29.84-34.86,29.84-17.72,0-32.37-12.96-34.86-29.84-.39-2.68,1.62-5.1,4.35-5.1Z" style="fill: #fff;"/>
  <path d="M474.22,493.45c27.62,8.37,29.74,17.64,54.68,20.77,20.17,2.53,36.32-3.41,66.23-14.41,31.14-11.45,35.84-10.95,50.92-11.77,17.61-.96,36.39-.39,59.47,23.47,2.21,123.06,4.42,246.11,6.62,369.17h-316.44c3.49-123.91,6.98-247.82,10.48-371.73.34-12.21,6.37-16.2,17.08-17.31,13.18-1.37,33.94-3.35,50.95,1.8Z" style="fill: #ea550f;"/>
  <path d="M421.06,493.97c-26.51-6.62-62.31,12.25-66.16,16.16-17.81,18.62-38.25,43.39-57.1,74.95-21.53,36.03-34.69,70.39-42.92,98.83-4.07,14.05,1.87,29.15,14.6,36.37,8.82,4.99,19.47,9.87,31.89,13.51,9.45,2.76,48.9,14.31,84.46,0,62.4-25.11,80.09-116.65,67.81-177.25-3.82-18.86-2.71-55.09-32.58-62.55Z" style="fill: #ea550f;"/>
  <circle cx="529.86" cy="152.16" r="62.17" style="fill: #8e3951;"/>
  <path d="M463.27,494.63c-2.32,10.24,28.68,37.14,60.92,40.84,45.95,5.28,91.86-26.79,89.32-38.46-2.03-9.36-36.14,6.21-76.85,6.34-36.97.12-71.11-18.81-73.39-8.72Z" style="fill: #ffaca9;"/>
  <path d="M680.53,493.77c13.13-2.28,27.74,9.96,44.19,24.06,63.9,54.77,81.02,120.21,85.27,164.02-49.1,3.46-98.19,6.93-147.29,10.39-11.25-90.48-16.84-192.44,17.83-198.46Z" style="fill: #ea550f;"/>
  <path d="M442.12,734.33c-20.46,1.04-23.24-.04-35.33-3.2l-25.57-10.87c-2.81-2.33-4.52-5.72-4.73-9.36l-3.58-62.26c-.18-3.19,1.36-6.23,4.03-7.97l22.61-14.71c1.14-.74,2.17-1.65,3.04-2.69l21.29-25.38c1.56-1.86,3.77-3.03,6.18-3.28l30.89-3.17c2.47-.25,4.95.28,7.1,1.52l18.21,10.5c6.04,3.48,9.18,10.44,7.79,17.28h0c-.23,1.12.54,2.19,1.67,2.35l83.34,11.43c4.13.57,6.91,4.51,6.06,8.58l-1.05,5.04c-.72,3.46-3.85,5.88-7.38,5.71l-58.87-2.83c-4.2-.2-7.54,3.47-6.95,7.63l.93,6.51c.48,3.34-1.92,6.4-5.27,6.74l-.67.07c-3.32.34-5.59,3.53-4.81,6.78l2.54,10.6c1.01,4.21-1.41,8.48-5.53,9.79l-6.32,2.01c-3.25,1.03-5.32,4.2-4.97,7.59l.55,5.35c.45,4.43-2.32,8.55-6.6,9.79l-32.31,9.37-6.28,1.12Z" style="fill: #f9a0a0;"/>
  <path d="M277.89,782.1h0c23.72,18.3,79.58,20.33,92.86,3.11l50.72-105.09-45.7-39.03-109.2,65.32c-13.28,17.22-12.39,57.4,11.33,75.7Z" style="fill: #f9a0a0;"/>
  <rect x="659.44" y="385.79" width="198.2" height="367.02" rx="12" ry="12" transform="translate(72.57 -85.62) rotate(6.78)" style="fill: #fff; stroke: #161616; stroke-miterlimit: 10; stroke-width: 8px;"/>
  <circle cx="677.62" cy="640.17" r="21.86" style="fill: #d3450d;"/>
  <circle cx="704.07" cy="619.5" r="21.86" style="fill: #ea550f;"/>
  <circle cx="704.07" cy="638.55" r="21.86" style="fill: #ea550f;"/>
  <circle cx="732.03" cy="610.6" r="21.86" style="fill: #ea550f;"/>
  <circle cx="744.21" cy="638.55" r="21.86" style="fill: #ea550f;"/>
  <circle cx="767.41" cy="613.22" r="21.86" style="fill: #ea550f;"/>
  <circle cx="780.77" cy="647.59" r="21.86" style="fill: #ea550f;"/>
  <circle cx="791.09" cy="632.46" r="21.86" style="fill: #ea550f;"/>
  <circle cx="822.87" cy="657.69" r="21.86" style="fill: #f76d37;"/>
  <circle cx="822.87" cy="682.26" r="21.86" style="fill: #ea550f;"/>
  <circle cx="789.27" cy="663.04" r="21.86" style="fill: #f76d37;"/>
  <circle cx="801.01" cy="651.29" r="21.86" style="fill: #d3450d;"/>
  <circle cx="758.54" cy="657.69" r="21.86" style="fill: #ea550f;"/>
  <circle cx="729.84" cy="657.69" r="21.86" style="fill: #f76d37;"/>
  <circle cx="697.7" cy="662.03" r="21.86" style="fill: #d3450d;"/>
  <circle cx="667.58" cy="662.03" r="21.86" style="fill: #ea550f;"/>
  <circle cx="665.98" cy="689.89" r="21.86" style="fill: #f76d37;"/>
  <circle cx="702.53" cy="691.33" r="21.86" style="fill: #ea550f;"/>
  <circle cx="728.82" cy="689.89" r="21.86" style="fill: #ea550f;"/>
  <circle cx="759.15" cy="692.23" r="21.86" style="fill: #ea550f;"/>
  <circle cx="793.34" cy="685.01" r="21.86" style="fill: #d3450d;"/>
  <circle cx="822.87" cy="711.75" r="21.86" style="fill: #ea550f;"/>
  <circle cx="789.27" cy="724.24" r="21.86" style="fill: #f76d37;"/>
  <circle cx="742.37" cy="716.86" r="21.86" style="fill: #f76d37;"/>
  <circle cx="768.56" cy="728.83" r="21.86" style="fill: #ea550f;"/>
  <circle cx="715.43" cy="719.07" r="21.86" style="fill: #d3450d;"/>
  <circle cx="680.67" cy="708.04" r="21.86" style="fill: #ea550f;"/>
  <rect x="678.17" y="670.02" width="124.69" height="38.36" rx="3" ry="3" transform="translate(86.6 -82.65) rotate(6.78)" style="fill: #161616;"/>
  <path d="M641.64,636.14l-1.06-.49c-2.97-2.24-4.73-5.73-4.75-9.45l-.28-42.27c-.04-5.71-1.32-11.34-3.76-16.5l-10.03-21.24c-3.96-8.38-4.19-18.05-.63-26.61h0c2.64-6.36,8.26-11.01,15-12.43h0c6.85-1.44,12.28,1.9,14.86,8.41h0c1.54,3.88,2.82,9.54,2.58,13.7v4.15c-.24,4.19-.4,11.11-2.99,14.55h0c-2.28,2.04-2.22,5.62.12,7.59l-.51,5-8.55,75.59Z" style="fill: #ffaca9;"/>
  <path d="M868.86,518.68l8.79,6.79c.97.75,1.69,1.78,2.06,2.96l1.13,3.63c.71,2.27,2.59,3.97,4.92,4.44l7.55,1.54c2.03.41,3.81,1.64,4.93,3.39l6.03,9.5c1.85,2.91,1.86,6.63.02,9.56l-4.2,6.65c-1.48,2.35-1.69,5.29-.55,7.82l5.62,12.49c1.31,2.91.32,6.34-2.33,8.11l-30.16,20.15c-1.4.94-.48,3.12,1.17,2.77l17.14-3.69c1.38-.3,2.62-1.06,3.52-2.15h0c2.18-2.66,5.88-3.51,9-2.05l9.83,4.6c2.63,1.23,4.23,3.95,4.02,6.84l-.4,5.64c-.23,3.27-2.31,6.12-5.36,7.33l-39.65,15.7c-2.89,1.14-5.6,2.68-8.07,4.56l-11.33,8.66c-1.38,1.06-3.36-.07-3.14-1.8l5.52-44.38-2.74-5.1c-1.51-2.8-1.59-6.14-.23-9.01l4.08-8.6c1.24-2.62,1.5-5.61.71-8.4l-1.49-5.3c-1.06-3.76-.92-7.75.38-11.43l6.45-18.17c.42-1.2.72-2.43.89-3.69l3.73-28.48c.13-1.02,1.33-1.51,2.14-.88Z" style="fill: #ffaca9;"/>
  <path d="M899.1,610.6s-1.76.47-3.07,1.52-3.76,4.86-3.2,7.34l.47,2.09c.56,2.46,2.45,4.4,4.9,5.01l7.34,1.83" style="fill: none; stroke: #f79494; stroke-linecap: round; stroke-miterlimit: 10; stroke-width: .5px;"/>
  <rect x="749.5" y="481.36" width="33.39" height="9.89" transform="translate(95.83 -125.38) rotate(9.98)" style="fill: #c1e03f;"/>
  <text transform="translate(702.53 691.33) rotate(6.78) scale(1.2 1)" style="fill: #fff; font-family: Arial-BoldMT, Arial; font-size: 18.15px; font-weight: 700;"><tspan x="0" y="0">S</tspan><tspan x="12.11" y="0" style="letter-spacing: -.07em;">T</tspan><tspan x="21.85" y="0" style="letter-spacing: 0em;">ART</tspan></text>
  <path d="M818.68,407.78h0c5.79-29.38.07-60.98-18.47-87.43l-1.57-2.24c-1.24-1.77-3.69-2.2-5.46-.96l-2.24,1.57c-26.46,18.54-42.62,46.29-47.19,75.88h0s0,.02,0,.04c-1.01,6.55-1.45,13.18-1.32,19.83-.56,22.09,1.82,43.79,5.68,64.71l37.42,6.58c11.67-18.72,21.71-39.37,28.72-61.79,1.87-5.27,3.35-10.67,4.43-16.14,0-.01,0-.03.01-.04Z" style="fill: #ea550f;"/>
  <path d="M815.86,351.73c-3.45-10.92-8.62-21.5-15.59-31.38l-1.58-2.24c-1.25-1.77-3.71-2.21-5.5-.97l-2.25,1.57c-10.12,7.04-18.73,15.42-25.78,24.72l50.7,8.3Z" style="fill: #c1e03f;"/>
  <path d="M729.19,522.03l3.81-57.42c.22-3.37,2.1-6.4,5.02-8.1l6.2-3.61c-1.11-12.03-1.74-24.68-1.76-38.44l-31.96,24.85c-2.38,1.85-3.4,4.96-2.57,7.85l21.27,74.87Z" style="fill: #a6c626;"/>
  <path d="M789.27,532.71l14.97-55.08c.96-3.52.05-7.29-2.4-9.99l-3.74-4.12c5.43-11.36,11.13-24.09,15.21-36.56l19.08,30.97c2.56,4.15,2.41,9.42-.38,13.42l-42.75,61.38Z" style="fill: #a6c626;"/>
  <path d="M806.39,395.15c-1.11,6.3-4.6,11.58-9.39,15.08-3.46,2.54-7.61,4.15-12.02,4.51-2.01.18-4.08.09-6.16-.28-12.94-2.28-21.6-14.61-19.32-27.56.54-3.07,1.65-5.91,3.21-8.41,2.31-3.73,5.6-6.72,9.46-8.69,4.43-2.26,9.62-3.14,14.9-2.21,12.94,2.27,21.59,14.61,19.31,27.56Z" style="fill: #2d2d2d; stroke: #c1e03f; stroke-miterlimit: 10; stroke-width: 5px;"/>
  <path d="M839.59,663.04c-59.86-7.52-119.73-15.03-179.59-22.54.66.08,1.51.06,2.51-.03,7.4-.72,23.73-6.31,43.27-21.62,17.13-13.44,20.84-28.11,22.77-34.64,10.64-30.65,16.03-60.28,21.44-92,.01-.09.03-.17.04-.26,10.88,2.11,21.69,3.45,31.82,5.57-.93,36.49-2.29,72.09-.4,97.39,1.05,14.22,6.99,25.97,15.37,38.93,12.09,18.67,31.74,26.12,42.77,29.21Z" style="fill: #f76d37;"/>
  <path d="M826.98,662.03c-56.21-6.93-112.44-13.86-168.65-20.78,7.58-.73,24.29-6.34,44.29-21.74,17.53-13.51,21.33-28.26,23.31-34.82,10.89-30.81,16.41-60.6,21.95-92.48,6.85,1.09,13.57,2.1,20.01,3.43-.97,36.7-2.36,72.47-.42,97.91,1.07,14.29,7.15,26.11,15.73,39.13,12.37,18.76,32.49,26.24,43.78,29.35Z" style="fill: #ea550f;"/>
  <circle cx="703.01" cy="630.38" r="21.86" style="fill: #f76d37;"/>
  <circle cx="767.41" cy="609.82" r="14.99" style="fill: #ea550f;"/>
  <circle cx="795.48" cy="664.75" r="10.43" style="fill: #ea550f;"/>
  <circle cx="812.24" cy="663.93" r="9.62" style="fill: #ea550f;"/>
  <circle cx="770.28" cy="651.29" r="17.85" style="fill: #f76d37;"/>
  <circle cx="730" cy="641.18" r="17.85" style="fill: #ea550f;"/>
  <path d="M795.97,407.55c-3.46,2.54-7.61,4.15-12.02,4.51l-19.28-31.5c2.31-3.73,5.6-6.72,9.46-8.69l21.83,35.68Z" style="fill: #494949;"/>
  <path d="M802.46,398.83c0,.2-1.24,3.22-3.52,5.83l-18.99-34.45c1.97-.38,3.36-.26,5.29-.08l17.23,28.7Z" style="fill: #727272;"/>
  <circle cx="751.34" cy="475.62" r="1.54" style="fill: #a6c626;"/>
  <circle cx="757.21" cy="476.75" r="1.54" style="fill: #a6c626;"/>
  <circle cx="763.36" cy="477.86" r="1.54" style="fill: #a6c626;"/>
  <circle cx="770.14" cy="478.94" r="1.54" style="fill: #a6c626;"/>
  <circle cx="776.77" cy="480.05" r="1.54" style="fill: #a6c626;"/>
  <circle cx="783.4" cy="481.15" r="1.54" style="fill: #a6c626;"/>
  <line x1="107.18" y1="880.69" x2="882.33" y2="880.69" style="fill: none; stroke: #161616; stroke-linecap: round; stroke-miterlimit: 10; stroke-width: 4px;"/>
  <rect x="96.46" y="152.16" width="244.24" height="52.99" rx="12" ry="12" style="fill: #ea550f;"/>
  <circle cx="125.08" cy="177.52" r="17.23" style="fill: #c1e03f;"/>
  <line x1="159.93" y1="172.44" x2="306.23" y2="172.44" style="fill: none; stroke: #fff; stroke-linecap: round; stroke-miterlimit: 10; stroke-width: 3px;"/>
  <line x1="159.93" y1="183.44" x2="306.23" y2="183.44" style="fill: none; stroke: #fff; stroke-linecap: round; stroke-miterlimit: 10; stroke-width: 3px;"/>
  <rect x="138.53" y="224.72" width="244.24" height="52.99" rx="12" ry="12" transform="translate(521.29 502.42) rotate(180)" style="fill: #ea550f;"/>
  <circle cx="354.15" cy="250.08" r="17.23" style="fill: #c1e03f;"/>
  <line x1="319.3" y1="245" x2="173" y2="245" style="fill: none; stroke: #fff; stroke-linecap: round; stroke-miterlimit: 10; stroke-width: 3px;"/>
  <line x1="319.3" y1="256" x2="173" y2="256" style="fill: none; stroke: #fff; stroke-linecap: round; stroke-miterlimit: 10; stroke-width: 3px;"/>
  <rect x="99.53" y="295.72" width="244.24" height="52.99" rx="12" ry="12" style="fill: #ea550f;"/>
  <circle cx="128.14" cy="321.08" r="17.23" style="fill: #c1e03f;"/>
  <line x1="162.99" y1="316" x2="309.29" y2="316" style="fill: none; stroke: #fff; stroke-linecap: round; stroke-miterlimit: 10; stroke-width: 3px;"/>
  <line x1="162.99" y1="327" x2="309.29" y2="327" style="fill: none; stroke: #fff; stroke-linecap: round; stroke-miterlimit: 10; stroke-width: 3px;"/>
</svg>