<?xml version="1.0" encoding="UTF-8"?>
<svg id="Layer_27" xmlns="http://www.w3.org/2000/svg" viewBox="0 0 1024 1024">
  <g>
    <rect x="570.84" y="85.08" width="389.45" height="637.28" rx="13.79" ry="13.79" style="fill: #ddd;"/>
    <rect x="836.41" y="393.07" width="97.18" height="146.79" rx="6.89" ry="6.89" style="fill: #e2e2e2;"/>
    <rect x="846.38" y="406.57" width="79.22" height="81.02" rx="6.89" ry="6.89" style="fill: #a6c626;"/>
    <rect x="702.28" y="393.07" width="97.18" height="146.79" rx="6.89" ry="6.89" style="fill: #e2e2e2;"/>
    <rect x="711.26" y="406.57" width="79.22" height="81.02" rx="6.89" ry="6.89" style="fill: #a6c626;"/>
    <line x1="713.04" y1="501.11" x2="766.89" y2="501.11" style="fill: none; stroke: #fcfcfc; stroke-linecap: round; stroke-miterlimit: 10; stroke-width: 5px;"/>
    <line x1="713.04" y1="510.2" x2="789.13" y2="510.2" style="fill: none; stroke: #fcfcfc; stroke-linecap: round; stroke-miterlimit: 10; stroke-width: 5px;"/>
    <rect x="847.15" y="520.11" width="27.99" height="14.66" rx="2.3" ry="2.3" style="fill: #ea550f;"/>
    <text transform="translate(857.08 528.79) scale(.98 1)" style="fill: #fff; font-family: SegoeUIVariable-BoldSmall, &apos;Segoe UI Variable&apos;; font-size: 4.55px; font-variation-settings: &apos;wght&apos; 700, &apos;opsz&apos; 8; font-weight: 700;"><tspan x="0" y="0">Buy</tspan></text>
    <line x1="846.38" y1="501.11" x2="900.22" y2="501.11" style="fill: none; stroke: #fcfcfc; stroke-linecap: round; stroke-miterlimit: 10; stroke-width: 5px;"/>
    <line x1="846.38" y1="510.2" x2="922.46" y2="510.2" style="fill: none; stroke: #fcfcfc; stroke-linecap: round; stroke-miterlimit: 10; stroke-width: 5px;"/>
    <rect x="836.41" y="556.62" width="97.18" height="146.79" rx="6.89" ry="6.89" style="fill: #e2e2e2;"/>
    <rect x="846.38" y="570.13" width="79.22" height="81.02" rx="6.89" ry="6.89" style="fill: #a6c626;"/>
    <rect x="702.28" y="556.62" width="97.18" height="146.79" rx="6.89" ry="6.89" style="fill: #e2e2e2;"/>
    <rect x="711.26" y="570.13" width="79.22" height="81.02" rx="6.89" ry="6.89" style="fill: #a6c626;"/>
    <line x1="713.04" y1="664.66" x2="766.89" y2="664.66" style="fill: none; stroke: #fcfcfc; stroke-linecap: round; stroke-miterlimit: 10; stroke-width: 5px;"/>
    <line x1="713.04" y1="673.75" x2="789.13" y2="673.75" style="fill: none; stroke: #fcfcfc; stroke-linecap: round; stroke-miterlimit: 10; stroke-width: 5px;"/>
    <rect x="847.15" y="683.66" width="27.99" height="14.66" rx="2.3" ry="2.3" style="fill: #ea550f;"/>
    <text transform="translate(857.08 692.34) scale(.98 1)" style="fill: #fff; font-family: SegoeUIVariable-BoldSmall, &apos;Segoe UI Variable&apos;; font-size: 4.55px; font-variation-settings: &apos;wght&apos; 700, &apos;opsz&apos; 8; font-weight: 700;"><tspan x="0" y="0">Buy</tspan></text>
    <line x1="846.38" y1="664.66" x2="900.22" y2="664.66" style="fill: none; stroke: #fcfcfc; stroke-linecap: round; stroke-miterlimit: 10; stroke-width: 5px;"/>
    <line x1="846.38" y1="673.75" x2="922.46" y2="673.75" style="fill: none; stroke: #fcfcfc; stroke-linecap: round; stroke-miterlimit: 10; stroke-width: 5px;"/>
    <rect x="585.05" y="148.98" width="358.71" height="223.15" rx="6.4" ry="6.4" style="fill: #fff;"/>
    <rect x="933.59" y="168.13" width="19.06" height="173.11" rx="2.55" ry="2.55" style="fill: #ea550f;"/>
    <rect x="577.14" y="168.13" width="19.06" height="173.11" rx="2.55" ry="2.55" style="fill: #ea550f;"/>
    <polyline points="589.57 243.96 582.08 252.13 589.57 259.53" style="fill: none; stroke: #fff; stroke-linecap: round; stroke-linejoin: round; stroke-width: 2px;"/>
    <polyline points="938.53 243.96 946.02 252.13 938.53 259.53" style="fill: none; stroke: #fff; stroke-linecap: round; stroke-linejoin: round; stroke-width: 2px;"/>
    <path d="M582.84,85.08h365.45c6.62,0,12,5.38,12,12v25.02h-389.45v-25.02c0-6.62,5.38-12,12-12Z" style="fill: #686868;"/>
    <text transform="translate(587.75 108.36) scale(.89 1)" style="fill: #fff; font-family: SegoeUIVariable-BoldSmall, &apos;Segoe UI Variable&apos;; font-size: 14px; font-variation-settings: &apos;wght&apos; 700, &apos;opsz&apos; 8; font-weight: 700;"><tspan x="0" y="0">Education</tspan></text>
    <rect x="704.66" y="95.53" width="160.15" height="16.12" rx="2.3" ry="2.3" style="fill: #fff;"/>
    <rect x="873.82" y="95.8" width="27.99" height="16.12" rx="2.3" ry="2.3" style="fill: #a6c626;"/>
    <rect x="909.37" y="95.8" width="27.99" height="16.12" rx="2.3" ry="2.3" style="fill: #ea550f;"/>
    <g>
      <ellipse cx="710.72" cy="103.2" rx="2.74" ry="3.08" style="fill: none; stroke: #6d6d6d; stroke-linecap: round; stroke-linejoin: round;"/>
      <path d="M714.14,107.05l-1.47-1.66" style="fill: none; stroke: #6d6d6d; stroke-linecap: round; stroke-linejoin: round;"/>
    </g>
    <text transform="translate(878.41 105.36) scale(.89 1)" style="fill: #fff; font-family: SegoeUIVariable-BoldSmall, &apos;Segoe UI Variable&apos;; font-size: 5px; font-variation-settings: &apos;wght&apos; 700, &apos;opsz&apos; 8; font-weight: 700;"><tspan x="0" y="0" style="letter-spacing: -.03em;">R</tspan><tspan x="3.14" y="0">egister</tspan></text>
    <text transform="translate(916.64 105.36) scale(.89 1)" style="fill: #fff; font-family: SegoeUIVariable-BoldSmall, &apos;Segoe UI Variable&apos;; font-size: 5px; font-variation-settings: &apos;wght&apos; 700, &apos;opsz&apos; 8; font-weight: 700;"><tspan x="0" y="0">Login</tspan></text>
    <rect x="619.35" y="170.89" width="290.02" height="178.93" rx="12.43" ry="12.43" style="fill: #c9c9c9;"/>
  </g>
  <g>
    <path d="M464.24,173.27v609.7c0,7.62-5.48,13.79-12.24,13.79H87.23c-6.76,0-12.24-6.17-12.24-13.79V173.27c0-7.61,5.48-13.78,12.24-13.78h364.76c6.76,0,12.24,6.17,12.24,13.78Z" style="fill: #e0e0e0;"/>
    <rect x="96.82" y="467.79" width="350.52" height="80.9" rx="6.31" ry="6.31" style="fill: #bcbcbc;"/>
    <path d="M102.96,467.79h101.86v80.9h-101.86c-3.39,0-6.14-2.75-6.14-6.14v-68.62c0-3.39,2.75-6.14,6.14-6.14Z" style="fill: #ea550f;"/>
    <rect x="96.82" y="577.95" width="350.52" height="80.9" rx="6.31" ry="6.31" style="fill: #bcbcbc;"/>
    <path d="M102.96,577.95h101.86v80.9h-101.86c-3.39,0-6.14-2.75-6.14-6.14v-68.62c0-3.39,2.75-6.14,6.14-6.14Z" style="fill: #ea550f;"/>
    <rect x="96.82" y="689.95" width="350.52" height="80.9" rx="6.31" ry="6.31" style="fill: #bcbcbc;"/>
    <path d="M102.96,689.95h101.86v80.9h-101.86c-3.39,0-6.14-2.75-6.14-6.14v-68.62c0-3.39,2.75-6.14,6.14-6.14Z" style="fill: #ea550f;"/>
    <rect x="89.45" y="212.3" width="358.54" height="223.15" rx="6.4" ry="6.4" style="fill: #fff;"/>
    <rect x="437.81" y="231.45" width="19.05" height="173.11" rx="2.55" ry="2.55" style="fill: #a6c626;"/>
    <path d="M86.98,159.49h365.26c6.62,0,12,5.38,12,12v25.02H74.98v-25.02c0-6.62,5.38-12,12-12Z" style="fill: #3a3a3a;"/>
    <text transform="translate(91.05 184.47) scale(.89 1)" style="fill: #fff; font-family: SegoeUIVariable-BoldSmall, &apos;Segoe UI Variable&apos;; font-size: 14px; font-variation-settings: &apos;wght&apos; 700, &apos;opsz&apos; 8; font-weight: 700;"><tspan x="0" y="0">E-commerce</tspan></text>
    <path d="M423.52,171.02h1.33l1.77,9.31c.13.7.69,1.2,1.33,1.18h6.51c.62,0,1.16-.49,1.3-1.18l1.1-5.57h-11.3" style="fill: none; stroke: #fff; stroke-linecap: round; stroke-linejoin: round; stroke-width: 2px;"/>
    <rect x="193.85" y="170.89" width="191.91" height="16.12" rx="2.3" ry="2.3" style="fill: #fff;"/>
    <g>
      <ellipse cx="199.9" cy="178.57" rx="2.74" ry="3.08" style="fill: none; stroke: #6d6d6d; stroke-linecap: round; stroke-linejoin: round;"/>
      <path d="M203.32,182.42l-1.47-1.66" style="fill: none; stroke: #6d6d6d; stroke-linecap: round; stroke-linejoin: round;"/>
    </g>
    <rect x="81.54" y="231.45" width="19.05" height="173.11" rx="2.55" ry="2.55" style="fill: #a6c626;"/>
    <polyline points="93.96 307.27 86.48 315.45 93.96 322.85" style="fill: none; stroke: #fff; stroke-linecap: round; stroke-linejoin: round; stroke-width: 2px;"/>
    <polyline points="442.75 307.27 450.23 315.45 442.75 322.85" style="fill: none; stroke: #fff; stroke-linecap: round; stroke-linejoin: round; stroke-width: 2px;"/>
    <line x1="217.93" y1="488.06" x2="316.83" y2="488.06" style="fill: none; stroke: #fcfcfc; stroke-linecap: round; stroke-miterlimit: 10; stroke-width: 7px;"/>
    <rect x="217.93" y="522.4" width="37.09" height="12.91" rx="2.69" ry="2.69" style="fill: #fcfcfc;"/>
    <rect x="262.35" y="522.4" width="37.09" height="12.91" rx="2.69" ry="2.69" style="fill: #a6c626;"/>
    <text transform="translate(274.96 531.06) scale(.89 1)" style="fill: #fff; font-family: SegoeUIVariable-BoldSmall, &apos;Segoe UI Variable&apos;; font-size: 6px; font-variation-settings: &apos;wght&apos; 700, &apos;opsz&apos; 8; font-weight: 700;"><tspan x="0" y="0">Buy</tspan></text>
    <text transform="translate(223.43 530.65) scale(.89 1)" style="fill: #494949; font-family: SegoeUIVariable-BoldSmall, &apos;Segoe UI Variable&apos;; font-size: 5.04px; font-variation-settings: &apos;wght&apos; 700, &apos;opsz&apos; 8; font-weight: 700;"><tspan x="0" y="0">Add </tspan><tspan x="11.38" y="0" style="letter-spacing: -.1em;">T</tspan><tspan x="13.87" y="0" style="letter-spacing: 0em;">o Cart</tspan></text>
    <line x1="217.93" y1="598.06" x2="316.83" y2="598.06" style="fill: none; stroke: #fcfcfc; stroke-linecap: round; stroke-miterlimit: 10; stroke-width: 7px;"/>
    <rect x="217.93" y="632.4" width="37.09" height="12.91" rx="2.69" ry="2.69" style="fill: #fcfcfc;"/>
    <rect x="262.35" y="632.4" width="37.09" height="12.91" rx="2.69" ry="2.69" style="fill: #a6c626;"/>
    <text transform="translate(274.96 641.06) scale(.89 1)" style="fill: #fff; font-family: SegoeUIVariable-BoldSmall, &apos;Segoe UI Variable&apos;; font-size: 6px; font-variation-settings: &apos;wght&apos; 700, &apos;opsz&apos; 8; font-weight: 700;"><tspan x="0" y="0">Buy</tspan></text>
    <text transform="translate(223.43 640.65) scale(.89 1)" style="fill: #494949; font-family: SegoeUIVariable-BoldSmall, &apos;Segoe UI Variable&apos;; font-size: 5.04px; font-variation-settings: &apos;wght&apos; 700, &apos;opsz&apos; 8; font-weight: 700;"><tspan x="0" y="0">Add </tspan><tspan x="11.38" y="0" style="letter-spacing: -.1em;">T</tspan><tspan x="13.87" y="0" style="letter-spacing: 0em;">o Cart</tspan></text>
    <line x1="217.93" y1="708.06" x2="316.83" y2="708.06" style="fill: none; stroke: #fcfcfc; stroke-linecap: round; stroke-miterlimit: 10; stroke-width: 7px;"/>
    <rect x="217.93" y="742.4" width="37.09" height="12.91" rx="2.69" ry="2.69" style="fill: #fcfcfc;"/>
    <rect x="262.35" y="742.4" width="37.09" height="12.91" rx="2.69" ry="2.69" style="fill: #a6c626;"/>
    <text transform="translate(274.96 751.06) scale(.89 1)" style="fill: #fff; font-family: SegoeUIVariable-BoldSmall, &apos;Segoe UI Variable&apos;; font-size: 6px; font-variation-settings: &apos;wght&apos; 700, &apos;opsz&apos; 8; font-weight: 700;"><tspan x="0" y="0">Buy</tspan></text>
    <text transform="translate(223.43 750.65) scale(.89 1)" style="fill: #494949; font-family: SegoeUIVariable-BoldSmall, &apos;Segoe UI Variable&apos;; font-size: 5.04px; font-variation-settings: &apos;wght&apos; 700, &apos;opsz&apos; 8; font-weight: 700;"><tspan x="0" y="0">Add </tspan><tspan x="11.38" y="0" style="letter-spacing: -.1em;">T</tspan><tspan x="13.87" y="0" style="letter-spacing: 0em;">o Cart</tspan></text>
    <ellipse cx="427.48" cy="184.37" rx=".67" ry=".75" style="fill: none; stroke: #fff; stroke-linecap: round; stroke-linejoin: round; stroke-width: 2px;"/>
    <ellipse cx="434.8" cy="184.37" rx=".67" ry=".75" style="fill: none; stroke: #fff; stroke-linecap: round; stroke-linejoin: round; stroke-width: 2px;"/>
    <line x1="131.71" y1="297.51" x2="234.48" y2="297.51" style="fill: none; stroke: #c9c9c9; stroke-linecap: round; stroke-miterlimit: 10; stroke-width: 9px;"/>
    <line x1="131.71" y1="277.51" x2="290.86" y2="277.51" style="fill: none; stroke: #c9c9c9; stroke-linecap: round; stroke-miterlimit: 10; stroke-width: 9px;"/>
    <line x1="131.71" y1="327.51" x2="234.48" y2="327.51" style="fill: none; stroke: #c9c9c9; stroke-linecap: round; stroke-miterlimit: 10; stroke-width: 3px;"/>
    <line x1="131.71" y1="337.51" x2="234.48" y2="337.51" style="fill: none; stroke: #c9c9c9; stroke-linecap: round; stroke-miterlimit: 10; stroke-width: 3px;"/>
    <rect x="316.83" y="257.75" width="100.53" height="134.42" rx="11.01" ry="11.01" style="fill: #d3d3d3;"/>
    <line x1="131.71" y1="347.51" x2="234.48" y2="347.51" style="fill: none; stroke: #c9c9c9; stroke-linecap: round; stroke-miterlimit: 10; stroke-width: 3px;"/>
    <line x1="131.71" y1="357.51" x2="234.48" y2="357.51" style="fill: none; stroke: #c9c9c9; stroke-linecap: round; stroke-miterlimit: 10; stroke-width: 3px;"/>
  </g>
  <g>
    <rect x="336.62" y="322.21" width="396.6" height="637.28" rx="13.79" ry="13.79" style="fill: #f2f2f2;"/>
    <rect x="374.22" y="401.27" width="183.04" height="177.7" rx="6.89" ry="6.89" style="fill: #ea550f;"/>
    <line x1="579.35" y1="428.13" x2="707.39" y2="428.13" style="fill: none; stroke: #686868; stroke-linecap: round; stroke-miterlimit: 10; stroke-width: 12px;"/>
    <line x1="579.35" y1="448.13" x2="663.48" y2="448.13" style="fill: none; stroke: #686868; stroke-linecap: round; stroke-miterlimit: 10; stroke-width: 12px;"/>
    <line x1="579.35" y1="478.13" x2="707.39" y2="478.13" style="fill: none; stroke: #686868; stroke-linecap: round; stroke-miterlimit: 10; stroke-width: 4px;"/>
    <line x1="579.35" y1="488.13" x2="707.39" y2="488.13" style="fill: none; stroke: #686868; stroke-linecap: round; stroke-miterlimit: 10; stroke-width: 4px;"/>
    <line x1="579.35" y1="498.13" x2="707.39" y2="498.13" style="fill: none; stroke: #686868; stroke-linecap: round; stroke-miterlimit: 10; stroke-width: 4px;"/>
    <line x1="579.35" y1="508.13" x2="707.39" y2="508.13" style="fill: none; stroke: #686868; stroke-linecap: round; stroke-miterlimit: 10; stroke-width: 4px;"/>
    <line x1="579.35" y1="528.13" x2="707.39" y2="528.13" style="fill: none; stroke: #686868; stroke-linecap: round; stroke-miterlimit: 10; stroke-width: 4px;"/>
    <line x1="579.35" y1="538.13" x2="707.39" y2="538.13" style="fill: none; stroke: #686868; stroke-linecap: round; stroke-miterlimit: 10; stroke-width: 4px;"/>
    <line x1="579.35" y1="548.13" x2="707.39" y2="548.13" style="fill: none; stroke: #686868; stroke-linecap: round; stroke-miterlimit: 10; stroke-width: 4px;"/>
    <line x1="579.35" y1="558.13" x2="707.39" y2="558.13" style="fill: none; stroke: #686868; stroke-linecap: round; stroke-miterlimit: 10; stroke-width: 4px;"/>
    <line x1="579.35" y1="518.13" x2="707.39" y2="518.13" style="fill: none; stroke: #686868; stroke-linecap: round; stroke-miterlimit: 10; stroke-width: 4px;"/>
    <path d="M348.62,322.21h372.6c6.62,0,12,5.38,12,12v25.02h-396.6v-25.02c0-6.62,5.38-12,12-12Z" style="fill: #686868;"/>
    <text transform="translate(356.6 346.53) scale(.91 1)" style="fill: #fff; font-family: SegoeUIVariable-BoldSmall, &apos;Segoe UI Variable&apos;; font-size: 14px; font-variation-settings: &apos;wght&apos; 700, &apos;opsz&apos; 8; font-weight: 700;"><tspan x="0" y="0">Blog</tspan></text>
    <text transform="translate(356.6 346.53) scale(.91 1)" style="fill: #fff; font-family: SegoeUIVariable-BoldSmall, &apos;Segoe UI Variable&apos;; font-size: 14px; font-variation-settings: &apos;wght&apos; 700, &apos;opsz&apos; 8; font-weight: 700;"><tspan x="0" y="0">Blog</tspan></text>
    <rect x="371.48" y="621.4" width="157.78" height="75.06" rx="6.31" ry="6.31" style="fill: #e2e2e2;"/>
    <rect x="380.83" y="631.66" width="61.71" height="54.38" rx="2.89" ry="2.89" style="fill: #a6c626;"/>
    <line x1="450.37" y1="638.04" x2="517.88" y2="638.04" style="fill: none; stroke: #b7b7b7; stroke-linecap: round; stroke-miterlimit: 10; stroke-width: 6px;"/>
    <line x1="450.37" y1="652.04" x2="517.88" y2="652.04" style="fill: none; stroke: #b7b7b7; stroke-linecap: round; stroke-miterlimit: 10; stroke-width: 3px;"/>
    <line x1="450.37" y1="659.04" x2="517.88" y2="659.04" style="fill: none; stroke: #b7b7b7; stroke-linecap: round; stroke-miterlimit: 10; stroke-width: 3px;"/>
    <line x1="450.37" y1="666.04" x2="517.88" y2="666.04" style="fill: none; stroke: #b7b7b7; stroke-linecap: round; stroke-miterlimit: 10; stroke-width: 3px;"/>
    <line x1="450.37" y1="673.04" x2="517.88" y2="673.04" style="fill: none; stroke: #b7b7b7; stroke-linecap: round; stroke-miterlimit: 10; stroke-width: 3px;"/>
    <rect x="543.47" y="621.4" width="157.78" height="75.06" rx="6.31" ry="6.31" style="fill: #e2e2e2;"/>
    <rect x="552.81" y="631.66" width="61.71" height="54.38" rx="2.89" ry="2.89" style="fill: #a6c626;"/>
    <line x1="622.36" y1="638.04" x2="689.87" y2="638.04" style="fill: none; stroke: #b7b7b7; stroke-linecap: round; stroke-miterlimit: 10; stroke-width: 6px;"/>
    <line x1="622.36" y1="652.04" x2="689.87" y2="652.04" style="fill: none; stroke: #b7b7b7; stroke-linecap: round; stroke-miterlimit: 10; stroke-width: 3px;"/>
    <line x1="622.36" y1="659.04" x2="689.87" y2="659.04" style="fill: none; stroke: #b7b7b7; stroke-linecap: round; stroke-miterlimit: 10; stroke-width: 3px;"/>
    <line x1="622.36" y1="666.04" x2="689.87" y2="666.04" style="fill: none; stroke: #b7b7b7; stroke-linecap: round; stroke-miterlimit: 10; stroke-width: 3px;"/>
    <line x1="622.36" y1="673.04" x2="689.87" y2="673.04" style="fill: none; stroke: #b7b7b7; stroke-linecap: round; stroke-miterlimit: 10; stroke-width: 3px;"/>
    <rect x="371.48" y="721.4" width="157.78" height="75.06" rx="6.31" ry="6.31" style="fill: #e2e2e2;"/>
    <rect x="380.83" y="731.66" width="61.71" height="54.38" rx="2.89" ry="2.89" style="fill: #a6c626;"/>
    <line x1="450.37" y1="738.04" x2="517.88" y2="738.04" style="fill: none; stroke: #b7b7b7; stroke-linecap: round; stroke-miterlimit: 10; stroke-width: 6px;"/>
    <line x1="450.37" y1="752.04" x2="517.88" y2="752.04" style="fill: none; stroke: #b7b7b7; stroke-linecap: round; stroke-miterlimit: 10; stroke-width: 3px;"/>
    <line x1="450.37" y1="759.04" x2="517.88" y2="759.04" style="fill: none; stroke: #b7b7b7; stroke-linecap: round; stroke-miterlimit: 10; stroke-width: 3px;"/>
    <line x1="450.37" y1="766.04" x2="517.88" y2="766.04" style="fill: none; stroke: #b7b7b7; stroke-linecap: round; stroke-miterlimit: 10; stroke-width: 3px;"/>
    <line x1="450.37" y1="773.04" x2="517.88" y2="773.04" style="fill: none; stroke: #b7b7b7; stroke-linecap: round; stroke-miterlimit: 10; stroke-width: 3px;"/>
    <rect x="543.47" y="721.4" width="157.78" height="75.06" rx="6.31" ry="6.31" style="fill: #e2e2e2;"/>
    <rect x="552.81" y="731.66" width="61.71" height="54.38" rx="2.89" ry="2.89" style="fill: #a6c626;"/>
    <line x1="622.36" y1="738.04" x2="689.87" y2="738.04" style="fill: none; stroke: #b7b7b7; stroke-linecap: round; stroke-miterlimit: 10; stroke-width: 6px;"/>
    <line x1="622.36" y1="752.04" x2="689.87" y2="752.04" style="fill: none; stroke: #b7b7b7; stroke-linecap: round; stroke-miterlimit: 10; stroke-width: 3px;"/>
    <line x1="622.36" y1="759.04" x2="689.87" y2="759.04" style="fill: none; stroke: #b7b7b7; stroke-linecap: round; stroke-miterlimit: 10; stroke-width: 3px;"/>
    <line x1="622.36" y1="766.04" x2="689.87" y2="766.04" style="fill: none; stroke: #b7b7b7; stroke-linecap: round; stroke-miterlimit: 10; stroke-width: 3px;"/>
    <line x1="622.36" y1="773.04" x2="689.87" y2="773.04" style="fill: none; stroke: #b7b7b7; stroke-linecap: round; stroke-miterlimit: 10; stroke-width: 3px;"/>
    <rect x="371.48" y="816.4" width="157.78" height="75.06" rx="6.31" ry="6.31" style="fill: #e2e2e2;"/>
    <rect x="380.83" y="826.66" width="61.71" height="54.38" rx="2.89" ry="2.89" style="fill: #a6c626;"/>
    <line x1="450.37" y1="833.04" x2="517.88" y2="833.04" style="fill: none; stroke: #b7b7b7; stroke-linecap: round; stroke-miterlimit: 10; stroke-width: 6px;"/>
    <line x1="450.37" y1="847.04" x2="517.88" y2="847.04" style="fill: none; stroke: #b7b7b7; stroke-linecap: round; stroke-miterlimit: 10; stroke-width: 3px;"/>
    <line x1="450.37" y1="854.04" x2="517.88" y2="854.04" style="fill: none; stroke: #b7b7b7; stroke-linecap: round; stroke-miterlimit: 10; stroke-width: 3px;"/>
    <line x1="450.37" y1="861.04" x2="517.88" y2="861.04" style="fill: none; stroke: #b7b7b7; stroke-linecap: round; stroke-miterlimit: 10; stroke-width: 3px;"/>
    <line x1="450.37" y1="868.04" x2="517.88" y2="868.04" style="fill: none; stroke: #b7b7b7; stroke-linecap: round; stroke-miterlimit: 10; stroke-width: 3px;"/>
    <rect x="543.47" y="816.4" width="157.78" height="75.06" rx="6.31" ry="6.31" style="fill: #e2e2e2;"/>
    <rect x="552.81" y="826.66" width="61.71" height="54.38" rx="2.89" ry="2.89" style="fill: #a6c626;"/>
    <line x1="622.36" y1="833.04" x2="689.87" y2="833.04" style="fill: none; stroke: #b7b7b7; stroke-linecap: round; stroke-miterlimit: 10; stroke-width: 6px;"/>
    <line x1="622.36" y1="847.04" x2="689.87" y2="847.04" style="fill: none; stroke: #b7b7b7; stroke-linecap: round; stroke-miterlimit: 10; stroke-width: 3px;"/>
    <line x1="622.36" y1="854.04" x2="689.87" y2="854.04" style="fill: none; stroke: #b7b7b7; stroke-linecap: round; stroke-miterlimit: 10; stroke-width: 3px;"/>
    <line x1="622.36" y1="861.04" x2="689.87" y2="861.04" style="fill: none; stroke: #b7b7b7; stroke-linecap: round; stroke-miterlimit: 10; stroke-width: 3px;"/>
    <line x1="622.36" y1="868.04" x2="689.87" y2="868.04" style="fill: none; stroke: #b7b7b7; stroke-linecap: round; stroke-miterlimit: 10; stroke-width: 3px;"/>
    <rect x="511.87" y="333.7" width="195.52" height="16.12" rx="2.3" ry="2.3" style="fill: #fff;"/>
    <g>
      <ellipse cx="518.03" cy="341.37" rx="2.79" ry="3.08" style="fill: none; stroke: #6d6d6d; stroke-linecap: round; stroke-linejoin: round;"/>
      <path d="M521.52,345.23l-1.5-1.66" style="fill: none; stroke: #6d6d6d; stroke-linecap: round; stroke-linejoin: round;"/>
    </g>
  </g>
</svg>