<?xml version="1.0" encoding="UTF-8"?>
<svg id="Layer_23" xmlns="http://www.w3.org/2000/svg" xmlns:xlink="http://www.w3.org/1999/xlink" viewBox="0 0 1024 1024">
  <rect x="45.42" y="13.94" width="940.6" height="998.81" rx="12" ry="12" style="fill: #ededed;"/>
  <path d="M57.42,13.94h916.6c6.62,0,12,5.38,12,12v74.89H45.42V25.94c0-6.62,5.38-12,12-12Z" style="fill: #dfdfdf;"/>
  <circle cx="863.76" cy="56.09" r="18.7" style="fill: #fff;"/>
  <circle cx="922.99" cy="56.09" r="18.7" style="fill: #fff;"/>
  <rect x="77.93" y="45.87" width="436.09" height="23.93" rx="11.49" ry="11.49" style="fill: #fff;"/>
  <path d="M45.42,100.83h342.56v911.92H57.3c-6.56,0-11.89-5.33-11.89-11.89V100.83h0Z" style="fill: #191919;"/>
  <circle cx="111" cy="169.18" r="33.07" style="fill: #fff;"/>
  <image width="2400" height="2400" transform="translate(77.93 135.92) scale(.03)" xlink:href="../../images/homepage/wordpress-logo.png"/>
  <rect x="82.45" y="241.72" width="261.45" height="80.68" rx="13.06" ry="13.06" style="fill: #ea550f;"/>
  <text transform="translate(105.74 277.91)" style="fill: #fff; font-family: MyriadPro-Regular, &apos;Myriad Pro&apos;; font-size: 21.43px;"><tspan x="0" y="0">A </tspan><tspan x="17.65" y="0" style="letter-spacing: -.02em;">P</tspan><tspan x="28.52" y="0" style="letter-spacing: 0em;">o</tspan><tspan x="40.13" y="0" style="letter-spacing: -.01em;">w</tspan><tspan x="55.69" y="0">e</tspan><tspan x="66.42" y="0" style="letter-spacing: .03em;">r</tspan><tspan x="74.07" y="0">ful </tspan><tspan x="101.73" y="0" style="letter-spacing: 0em;">P</tspan><tspan x="113.02" y="0">l</tspan><tspan x="118.08" y="0" style="letter-spacing: 0em;">a</tspan><tspan x="128.32" y="0">t</tspan><tspan x="135.41" y="0" style="letter-spacing: -.01em;">f</tspan><tspan x="141.39" y="0">o</tspan><tspan x="153.15" y="0" style="letter-spacing: 0em;">r</tspan><tspan x="160.24" y="0">m </tspan><tspan x="182.65" y="0" style="letter-spacing: -.01em;">f</tspan><tspan x="188.63" y="0" style="letter-spacing: 0em;">or </tspan><tspan x="0" y="25.71" style="letter-spacing: 0em;">E</tspan><tspan x="10.39" y="25.71" style="letter-spacing: -.01em;">v</tspan><tspan x="20.48" y="25.71">eybody</tspan></text>
  <rect x="82.45" y="345.72" width="261.45" height="80.68" rx="13.06" ry="13.06" style="fill: #191919;"/>
  <text transform="translate(105.74 381.91)" style="fill: #fff; font-family: MyriadPro-Regular, &apos;Myriad Pro&apos;; font-size: 21.43px;"><tspan x="0" y="0" style="letter-spacing: -.02em;">F</tspan><tspan x="10.07" y="0">l</tspan><tspan x="15.13" y="0" style="letter-spacing: 0em;">e</tspan><tspan x="25.8" y="0">xible</tspan><tspan x="68.71" y="0" style="letter-spacing: -.04em;"> </tspan><tspan x="72.48" y="0" style="letter-spacing: -.03em;">W</tspan><tspan x="89.9" y="0">o</tspan><tspan x="101.67" y="0" style="letter-spacing: -.01em;">r</tspan><tspan x="108.46" y="0" style="letter-spacing: 0em;">d</tspan><tspan x="120.54" y="0" style="letter-spacing: -.02em;">P</tspan><tspan x="131.6" y="0" style="letter-spacing: 0em;">r</tspan><tspan x="138.39" y="0" style="letter-spacing: 0em;">ess </tspan><tspan x="0" y="25.71" style="letter-spacing: 0em;">S</tspan><tspan x="10.69" y="25.71">olutions</tspan></text>
  <rect x="82.45" y="450.72" width="261.45" height="80.68" rx="13.06" ry="13.06" style="fill: #191919;"/>
  <text transform="translate(105.74 497.91)" style="fill: #fff; font-family: MyriadPro-Regular, &apos;Myriad Pro&apos;; font-size: 21.43px;"><tspan x="0" y="0" style="letter-spacing: -.01em;">C</tspan><tspan x="12.17" y="0">us</tspan><tspan x="32.46" y="0" style="letter-spacing: 0em;">t</tspan><tspan x="39.42" y="0">om</tspan><tspan x="69.06" y="0" style="letter-spacing: -.04em;"> </tspan><tspan x="72.83" y="0" style="letter-spacing: -.03em;">W</tspan><tspan x="90.25" y="0">eb </tspan><tspan x="117.71" y="0" style="letter-spacing: 0em;">D</tspan><tspan x="132.07" y="0" style="letter-spacing: 0em;">esi</tspan><tspan x="156.3" y="0" style="letter-spacing: 0em;">g</tspan><tspan x="168.15" y="0">n</tspan></text>
  <rect x="82.45" y="552.72" width="261.45" height="80.68" rx="13.06" ry="13.06" style="fill: #191919;"/>
  <text transform="translate(105.74 585.91)" style="fill: #fff; font-family: MyriadPro-Regular, &apos;Myriad Pro&apos;; font-size: 21.43px;"><tspan x="0" y="0" style="letter-spacing: 0em;">M</tspan><tspan x="17.35" y="0">anage </tspan><tspan x="77.15" y="0" style="letter-spacing: -.01em;">y</tspan><tspan x="87.03" y="0" style="letter-spacing: 0em;">our </tspan><tspan x="122.15" y="0" style="letter-spacing: 0em;">c</tspan><tspan x="131.62" y="0">o</tspan><tspan x="143.38" y="0" style="letter-spacing: 0em;">n</tspan><tspan x="155.19" y="0" style="letter-spacing: 0em;">t</tspan><tspan x="162.15" y="0" style="letter-spacing: 0em;">e</tspan><tspan x="172.88" y="0" style="letter-spacing: 0em;">n</tspan><tspan x="184.69" y="0">t </tspan><tspan x="0" y="25.71">easily</tspan></text>
  <rect x="82.45" y="656.72" width="261.45" height="80.68" rx="13.06" ry="13.06" style="fill: #191919;"/>
  <text transform="translate(105.74 689.91)" style="fill: #fff; font-family: MyriadPro-Regular, &apos;Myriad Pro&apos;; font-size: 21.43px;"><tspan x="0" y="0" style="letter-spacing: -.04em;">F</tspan><tspan x="9.68" y="0">un</tspan><tspan x="33.38" y="0" style="letter-spacing: .01em;">c</tspan><tspan x="43.26" y="0">tionali</tspan><tspan x="99.42" y="0" style="letter-spacing: 0em;">t</tspan><tspan x="106.7" y="0">y with </tspan><tspan x="0" y="25.71" style="letter-spacing: 0em;">P</tspan><tspan x="11.29" y="25.71" style="letter-spacing: 0em;">lu</tspan><tspan x="28.15" y="25.71" style="letter-spacing: 0em;">g</tspan><tspan x="40" y="25.71">ins</tspan></text>
  <rect x="82.45" y="766.72" width="261.45" height="80.68" rx="13.06" ry="13.06" style="fill: #191919;"/>
  <text transform="translate(105.74 811.91)" style="fill: #fff; font-family: MyriadPro-Regular, &apos;Myriad Pro&apos;; font-size: 21.43px;"><tspan x="0" y="0" style="letter-spacing: 0em;">R</tspan><tspan x="11.61" y="0">esponsi</tspan><tspan x="80.17" y="0" style="letter-spacing: -.01em;">v</tspan><tspan x="90.27" y="0">e</tspan><tspan x="101" y="0" style="letter-spacing: -.04em;"> </tspan><tspan x="104.77" y="0" style="letter-spacing: -.03em;">W</tspan><tspan x="122.19" y="0" style="letter-spacing: 0em;">eb </tspan><tspan x="149.66" y="0" style="letter-spacing: 0em;">D</tspan><tspan x="164.01" y="0">esi</tspan><tspan x="188.25" y="0" style="letter-spacing: 0em;">g</tspan><tspan x="200.09" y="0">n</tspan></text>
  <rect x="82.45" y="869.72" width="261.45" height="80.68" rx="13.06" ry="13.06" style="fill: #191919;"/>
  <text transform="translate(105.74 903.91)" style="fill: #fff; font-family: MyriadPro-Regular, &apos;Myriad Pro&apos;; font-size: 21.43px;"><tspan x="0" y="0" style="letter-spacing: -.02em;">P</tspan><tspan x="11.06" y="0" style="letter-spacing: -.01em;">r</tspan><tspan x="17.85" y="0">o</tspan><tspan x="29.61" y="0" style="letter-spacing: -.01em;">f</tspan><tspan x="35.59" y="0">essional</tspan><tspan x="107.34" y="0" style="letter-spacing: -.04em;"> </tspan><tspan x="111.11" y="0" style="letter-spacing: -.03em;">W</tspan><tspan x="128.53" y="0">o</tspan><tspan x="140.3" y="0" style="letter-spacing: -.01em;">r</tspan><tspan x="147.09" y="0" style="letter-spacing: 0em;">dp</tspan><tspan x="171.36" y="0" style="letter-spacing: -.01em;">r</tspan><tspan x="178.16" y="0">ess </tspan><tspan x="0" y="25.71" style="letter-spacing: 0em;">D</tspan><tspan x="14.35" y="25.71">e</tspan><tspan x="25.09" y="25.71" style="letter-spacing: -.01em;">v</tspan><tspan x="35.18" y="25.71">elopme</tspan><tspan x="103.53" y="25.71" style="letter-spacing: 0em;">n</tspan><tspan x="115.33" y="25.71">t </tspan><tspan x="126.97" y="25.71" style="letter-spacing: -.01em;">A</tspan><tspan x="139.82" y="25.71" style="letter-spacing: 0em;">gen</tspan><tspan x="174.43" y="25.71" style="letter-spacing: .02em;">c</tspan><tspan x="184.41" y="25.71">y</tspan></text>
  <rect x="387.98" y="100.83" width="598.03" height="78.81" style="fill: #3a3a3a;"/>
</svg>