<?xml version="1.0" encoding="UTF-8"?>
<svg id="Layer_22" xmlns="http://www.w3.org/2000/svg" viewBox="0 0 1024 1024">
  <line x1="4.88" y1="519.67" x2="305.14" y2="519.67" style="fill: #fff; stroke: #bcbcbc; stroke-linecap: round; stroke-miterlimit: 10; stroke-width: 10px;"/>
  <line x1="305.14" y1="206.14" x2="486.29" y2="206.14" style="fill: #fff; stroke: #bcbcbc; stroke-linecap: round; stroke-miterlimit: 10; stroke-width: 10px;"/>
  <line x1="305.14" y1="205.97" x2="305.14" y2="824.86" style="fill: #fff; stroke: #bcbcbc; stroke-linecap: round; stroke-miterlimit: 10; stroke-width: 10px;"/>
  <rect x="473.86" y="138.39" width="288.77" height="130.21" rx="13.79" ry="13.79" style="fill: #ea550f;"/>
  <line x1="305.14" y1="407.14" x2="486.29" y2="407.14" style="fill: #fff; stroke: #bcbcbc; stroke-linecap: round; stroke-miterlimit: 10; stroke-width: 10px;"/>
  <rect x="473.86" y="339.39" width="288.77" height="130.21" rx="13.79" ry="13.79" style="fill: #a6c626;"/>
  <line x1="305.14" y1="620.14" x2="486.29" y2="620.14" style="fill: #fff; stroke: #bcbcbc; stroke-linecap: round; stroke-miterlimit: 10; stroke-width: 10px;"/>
  <rect x="473.86" y="552.39" width="288.77" height="130.21" rx="13.79" ry="13.79" style="fill: #ea550f;"/>
  <line x1="305.14" y1="823.14" x2="486.29" y2="823.14" style="fill: #fff; stroke: #bcbcbc; stroke-linecap: round; stroke-miterlimit: 10; stroke-width: 10px;"/>
  <rect x="473.86" y="755.39" width="288.77" height="130.21" rx="13.79" ry="13.79" style="fill: #a6c626;"/>
  <text transform="translate(569.73 213.38)" style="fill: #fff; font-family: MyriadPro-Regular, &apos;Myriad Pro&apos;; font-size: 32px;"><tspan x="0" y="0">Blogs</tspan></text>
  <text transform="translate(500.87 830.27)" style="fill: #fff; font-family: MyriadPro-Regular, &apos;Myriad Pro&apos;; font-size: 31.61px;"><tspan x="0" y="0" style="letter-spacing: -.03em;">W</tspan><tspan x="25.7" y="0">eb </tspan><tspan x="66.21" y="0" style="letter-spacing: 0em;">A</tspan><tspan x="85.46" y="0" style="letter-spacing: 0em;">pplic</tspan><tspan x="150.44" y="0" style="letter-spacing: 0em;">a</tspan><tspan x="165.54" y="0">tions</tspan></text>
  <text transform="translate(507.63 398.11) scale(.96 1)" style="fill: #fff; font-family: MyriadPro-Regular, &apos;Myriad Pro&apos;; font-size: 31.46px;"><tspan x="0" y="0">Simple </tspan><tspan x="96.87" y="0" style="letter-spacing: -.01em;">C</tspan><tspan x="114.77" y="0">ompa</tspan><tspan x="191.35" y="0" style="letter-spacing: -.01em;">n</tspan><tspan x="208.4" y="0">y </tspan><tspan x="0" y="37.75">Si</tspan><tspan x="22.87" y="37.75" style="letter-spacing: 0em;">t</tspan><tspan x="33.1" y="37.75">es</tspan></text>
  <text transform="translate(507.63 608.11) scale(.96 1)" style="fill: #fff; font-family: MyriadPro-Regular, &apos;Myriad Pro&apos;; font-size: 31.46px;"><tspan x="0" y="0">E</tspan><tspan x="15.48" y="0" style="letter-spacing: .01em;">x</tspan><tspan x="30.45" y="0" style="letter-spacing: 0em;">t</tspan><tspan x="40.68" y="0">ensi</tspan><tspan x="93.72" y="0" style="letter-spacing: 0em;">v</tspan><tspan x="108.54" y="0" style="letter-spacing: 0em;">e</tspan><tspan x="0" y="37.75" style="letter-spacing: 0em;">E</tspan><tspan x="15.35" y="37.75" style="letter-spacing: 0em;">c</tspan><tspan x="29.26" y="37.75" style="letter-spacing: 0em;">omme</tspan><tspan x="114.77" y="37.75" style="letter-spacing: 0em;">r</tspan><tspan x="124.74" y="37.75" style="letter-spacing: 0em;">c</tspan><tspan x="138.65" y="37.75">e Si</tspan><tspan x="183.95" y="37.75" style="letter-spacing: 0em;">t</tspan><tspan x="194.18" y="37.75" style="letter-spacing: 0em;">es</tspan></text>
</svg>