<?xml version="1.0" encoding="UTF-8"?>
<svg id="Layer_37" xmlns="http://www.w3.org/2000/svg" viewBox="0 0 1024 1024">
  <rect x="122.27" y="139.97" width="658.12" height="506.25" rx="9.96" ry="9.96" style="fill: #ea550f;"/>
  <rect x="271.25" y="356.93" width="658.12" height="506.25" rx="9.96" ry="9.96" style="fill: #f7f7f7;"/>
  <path d="M132.23,139.02h638.21c5.5,0,9.96,4.46,9.96,9.96v32.07H122.27v-32.07c0-5.5,4.46-9.96,9.96-9.96Z" style="fill: #f7f7f7;"/>
  <rect x="89.51" y="356.93" width="82.52" height="506.25" rx="9.96" ry="9.96" style="fill: #f7f7f7;"/>
  <g>
    <polyline points="600.31 591.6 600.31 597.6 594.31 597.6" style="fill: none; stroke: #b7b7b7; stroke-miterlimit: 10; stroke-width: 6px;"/>
    <line x1="582.61" y1="597.6" x2="330.95" y2="597.6" style="fill: none; stroke: #b7b7b7; stroke-dasharray: 11.71 11.71; stroke-miterlimit: 10; stroke-width: 6px;"/>
    <polyline points="325.09 597.6 319.09 597.6 319.09 591.6" style="fill: none; stroke: #b7b7b7; stroke-miterlimit: 10; stroke-width: 6px;"/>
    <line x1="319.09" y1="579.01" x2="319.09" y2="434.16" style="fill: none; stroke: #b7b7b7; stroke-dasharray: 12.6 12.6; stroke-miterlimit: 10; stroke-width: 6px;"/>
    <polyline points="319.09 427.86 319.09 421.86 325.09 421.86" style="fill: none; stroke: #b7b7b7; stroke-miterlimit: 10; stroke-width: 6px;"/>
    <line x1="336.8" y1="421.86" x2="588.46" y2="421.86" style="fill: none; stroke: #b7b7b7; stroke-dasharray: 11.71 11.71; stroke-miterlimit: 10; stroke-width: 6px;"/>
    <polyline points="594.31 421.86 600.31 421.86 600.31 427.86" style="fill: none; stroke: #b7b7b7; stroke-miterlimit: 10; stroke-width: 6px;"/>
    <line x1="600.31" y1="440.46" x2="600.31" y2="585.3" style="fill: none; stroke: #b7b7b7; stroke-dasharray: 12.6 12.6; stroke-miterlimit: 10; stroke-width: 6px;"/>
  </g>
  <path d="M117.46,382.21l3.07,31.53c.1,1.01,1.39,1.37,2,.55,5.09-6.89,11.92-10.52,20.48-10.87,1.02-.04,1.44-1.32.66-1.96l-24.39-20.21c-.76-.63-1.91-.02-1.82.96Z" style="fill: #a0a0a0;"/>
  <path d="M118.31,449.38l2.87,29.52c.09.95,1.3,1.28,1.87.52,4.77-6.45,11.16-9.85,19.17-10.18.95-.04,1.35-1.23.62-1.84l-22.84-18.92c-.72-.59-1.79-.02-1.7.9Z" style="fill: none; stroke: #939393; stroke-miterlimit: 10; stroke-width: 2px;"/>
  <line x1="118.31" y1="536.74" x2="148.9" y2="513.23" style="fill: none; stroke: #939393; stroke-linecap: round; stroke-miterlimit: 10; stroke-width: 2px;"/>
  <rect x="113.46" y="573.73" width="34.62" height="27.95" style="fill: none; stroke: #939393; stroke-linecap: round; stroke-miterlimit: 10; stroke-width: 2px;"/>
  <path d="M111.95,646.34h35.86c.98,0,1.77.79,1.77,1.77v22.77c0,.98-.79,1.77-1.77,1.77h-29.05c-.98,0-1.77-.79-1.77-1.77v-29.08" style="fill: none; stroke: #939393; stroke-linecap: round; stroke-miterlimit: 10; stroke-width: 2px;"/>
  <path d="M116.7,739.31l2.13-8.18,18.37-21.49c.67-.78,1.84-.87,2.61-.2l4.36,3.73c.78.67.87,1.84.2,2.61l-18.37,21.49-9.31,2.04" style="fill: none; stroke: #939393; stroke-linecap: round; stroke-miterlimit: 10; stroke-width: 2px;"/>
  <g>
    <polyline points="115.4 779.31 118.13 776.19 129.31 776.19 141.02 776.19 143.18 779.31" style="fill: none; stroke: #939393; stroke-linecap: round; stroke-linejoin: round; stroke-width: 2px;"/>
    <line x1="129.01" y1="807.32" x2="129.31" y2="776.19" style="fill: none; stroke: #939393; stroke-linecap: round; stroke-linejoin: round; stroke-width: 2px;"/>
  </g>
  <rect x="370.44" y="682.9" width="376.2" height="229.5" rx="6.64" ry="6.64" style="fill: #192f35;"/>
  <line x1="396.12" y1="724.15" x2="513.76" y2="724.15" style="fill: none; stroke: #b7b7b7; stroke-linecap: round; stroke-miterlimit: 10; stroke-width: 5px;"/>
  <line x1="396.12" y1="746.81" x2="513.76" y2="746.81" style="fill: none; stroke: #b7b7b7; stroke-linecap: round; stroke-miterlimit: 10; stroke-width: 5px;"/>
  <line x1="526.41" y1="746.81" x2="713.61" y2="746.81" style="fill: none; stroke: #b7b7b7; stroke-linecap: round; stroke-miterlimit: 10; stroke-width: 5px;"/>
  <line x1="713.61" y1="770.42" x2="595.96" y2="770.42" style="fill: none; stroke: #b7b7b7; stroke-linecap: round; stroke-miterlimit: 10; stroke-width: 5px;"/>
  <line x1="495.32" y1="770.42" x2="396.12" y2="770.42" style="fill: none; stroke: #b7b7b7; stroke-linecap: round; stroke-miterlimit: 10; stroke-width: 5px;"/>
  <line x1="583.31" y1="770.42" x2="505.73" y2="770.42" style="fill: none; stroke: #b7b7b7; stroke-linecap: round; stroke-miterlimit: 10; stroke-width: 5px;"/>
  <line x1="713.61" y1="789.3" x2="595.96" y2="789.3" style="fill: none; stroke: #b7b7b7; stroke-linecap: round; stroke-miterlimit: 10; stroke-width: 5px;"/>
  <line x1="583.31" y1="789.3" x2="505.73" y2="789.3" style="fill: none; stroke: #b7b7b7; stroke-linecap: round; stroke-miterlimit: 10; stroke-width: 5px;"/>
  <line x1="713.61" y1="808.19" x2="533.93" y2="808.19" style="fill: none; stroke: #b7b7b7; stroke-linecap: round; stroke-miterlimit: 10; stroke-width: 5px;"/>
  <line x1="514.6" y1="808.19" x2="396.12" y2="808.19" style="fill: none; stroke: #b7b7b7; stroke-linecap: round; stroke-miterlimit: 10; stroke-width: 5px;"/>
  <line x1="526.41" y1="724.15" x2="581.42" y2="724.15" style="fill: none; stroke: #b7b7b7; stroke-linecap: round; stroke-miterlimit: 10; stroke-width: 5px;"/>
  <line x1="592.51" y1="724.15" x2="647.51" y2="724.15" style="fill: none; stroke: #b7b7b7; stroke-linecap: round; stroke-miterlimit: 10; stroke-width: 5px;"/>
  <line x1="462.21" y1="830.68" x2="579.85" y2="830.68" style="fill: none; stroke: #b7b7b7; stroke-linecap: round; stroke-miterlimit: 10; stroke-width: 5px;"/>
  <line x1="592.51" y1="830.68" x2="647.51" y2="830.68" style="fill: none; stroke: #b7b7b7; stroke-linecap: round; stroke-miterlimit: 10; stroke-width: 5px;"/>
  <line x1="658.6" y1="830.68" x2="713.61" y2="830.68" style="fill: none; stroke: #b7b7b7; stroke-linecap: round; stroke-miterlimit: 10; stroke-width: 5px;"/>
  <rect x="824.2" y="426.57" width="16.91" height="377.81" rx="7.81" ry="7.81" style="fill: #e2e2e2;"/>
  <line x1="658.6" y1="724.15" x2="713.61" y2="724.15" style="fill: none; stroke: #b7b7b7; stroke-linecap: round; stroke-miterlimit: 10; stroke-width: 5px;"/>
  <rect x="484.53" y="268.11" width="484.98" height="225.75" rx="7.91" ry="7.91" style="fill: #fff;"/>
  <rect x="513.76" y="292.17" width="201.61" height="171.86" rx="5.29" ry="5.29" style="fill: #f9f9f9; stroke: #e0e0e0; stroke-linecap: round; stroke-linejoin: round; stroke-width: 2px;"/>
  <rect x="817.82" y="638.49" width="29.79" height="72.89" rx="13.75" ry="13.75" style="fill: #192f35;"/>
  <line x1="738.49" y1="371.11" x2="943.7" y2="371.11" style="fill: none; stroke: #b7b7b7; stroke-linecap: round; stroke-linejoin: round; stroke-width: 8px;"/>
  <line x1="738.49" y1="392.78" x2="943.7" y2="392.78" style="fill: none; stroke: #b7b7b7; stroke-linecap: round; stroke-linejoin: round; stroke-width: 3px;"/>
  <line x1="738.49" y1="306.12" x2="817.22" y2="306.12" style="fill: none; stroke: #ea550f; stroke-linecap: round; stroke-miterlimit: 10; stroke-width: 4px;"/>
  <line x1="738.49" y1="325.62" x2="905.72" y2="325.62" style="fill: none; stroke: #ea550f; stroke-linecap: round; stroke-miterlimit: 10; stroke-width: 4px;"/>
  <line x1="738.49" y1="345.12" x2="803.39" y2="345.12" style="fill: none; stroke: #ea550f; stroke-linecap: round; stroke-miterlimit: 10; stroke-width: 4px;"/>
  <line x1="814.32" y1="345.12" x2="879.21" y2="345.12" style="fill: none; stroke: #ea550f; stroke-linecap: round; stroke-miterlimit: 10; stroke-width: 4px;"/>
  <line x1="738.49" y1="414.44" x2="943.7" y2="414.44" style="fill: none; stroke: #b7b7b7; stroke-linecap: round; stroke-linejoin: round; stroke-width: 3px;"/>
  <line x1="738.49" y1="436.1" x2="943.7" y2="436.1" style="fill: none; stroke: #b7b7b7; stroke-linecap: round; stroke-linejoin: round; stroke-width: 3px;"/>
  <line x1="738.49" y1="457.77" x2="943.7" y2="457.77" style="fill: none; stroke: #b7b7b7; stroke-linecap: round; stroke-linejoin: round; stroke-width: 3px;"/>
  <line x1="515.96" y1="294.32" x2="711.39" y2="460.62" style="fill: none; stroke: #e0e0e0; stroke-linecap: round; stroke-linejoin: round; stroke-width: 2px;"/>
  <line x1="711.39" y1="296.16" x2="517.43" y2="460.62" style="fill: none; stroke: #e0e0e0; stroke-linecap: round; stroke-linejoin: round; stroke-width: 2px;"/>
  <circle cx="718.5" cy="159.83" r="9.19" style="fill: #b7b7b7;"/>
  <circle cx="748.5" cy="159.83" r="9.19" style="fill: #b7b7b7;"/>
  <rect x="148.84" y="157.06" width="282.89" height="8.51" rx="4.26" ry="4.26" style="fill: #b7b7b7;"/>
</svg>