<svg id="Layer_35" xmlns="http://www.w3.org/2000/svg" viewBox="0 0 1024 1024">
  <rect x="32.66" y="114.96" width="968.17" height="796.85" rx="45.43" ry="45.43" style="fill: #efefef;"/>
  <path d="M78.09,104.41h877.32c25.07,0,45.43,20.35,45.43,45.43v34.68H32.66v-34.68c0-25.07,20.35-45.43,45.43-45.43Z" style="fill: #333;"/>
  <rect x="79.2" y="132.28" width="327.83" height="27.02" rx="13.4" ry="13.4" style="fill: #fff;"/>
  <circle cx="903.66" cy="142.8" r="16.5" style="fill: #fff;"/>
  <circle cx="952.86" cy="143.15" r="16.5" style="fill: #fff;"/>
  <rect x="108.82" y="243.99" width="804.96" height="582.75" rx="12" ry="12" style="fill: #acc931;"/>
  <path d="M120.82,243.99h780.96c6.62,0,12,5.38,12,12v38.12H108.82v-38.12c0-6.62,5.38-12,12-12Z" style="fill: #ea550f;"/>
  <rect x="167.21" y="451.37" width="268.5" height="45.31" rx="12" ry="12" style="fill: #fff;"/>
  <g>
    <rect x="552.41" y="546.79" width="28.77" height="96.58" rx="4.47" ry="4.47" style="fill: #ea550f;"/>
    <rect x="562.29" y="521.42" width="8.13" height="34.28" rx="2.72" ry="2.72" style="fill: #ea550f;"/>
    <rect x="562.67" y="639.62" width="8.13" height="34.28" rx="2.72" ry="2.72" style="fill: #ea550f;"/>
  </g>
  <g>
    <rect x="594.54" y="504.9" width="28.77" height="96.58" rx="4.47" ry="4.47" style="fill: #ea550f;"/>
    <rect x="603.87" y="478.5" width="8.13" height="34.28" rx="2.72" ry="2.72" style="fill: #ea550f;"/>
    <rect x="604.26" y="596.69" width="8.13" height="34.28" rx="2.72" ry="2.72" style="fill: #ea550f;"/>
  </g>
  <g>
    <rect x="638.37" y="609.01" width="28.77" height="96.58" rx="4.47" ry="4.47" style="fill: #ea550f;"/>
    <rect x="648.14" y="577.76" width="8.13" height="34.28" rx="2.72" ry="2.72" style="fill: #ea550f;"/>
    <rect x="648.52" y="695.96" width="8.13" height="34.28" rx="2.72" ry="2.72" style="fill: #ea550f;"/>
  </g>
  <g>
    <rect x="680.84" y="527.27" width="28.77" height="96.58" rx="4.47" ry="4.47" style="fill: #ea550f;"/>
    <rect x="691.06" y="501.3" width="8.13" height="34.28" rx="2.72" ry="2.72" style="fill: #ea550f;"/>
    <rect x="691.44" y="619.5" width="8.13" height="34.28" rx="2.72" ry="2.72" style="fill: #ea550f;"/>
  </g>
  <g>
    <rect x="717.97" y="447.36" width="28.77" height="96.58" rx="4.47" ry="4.47" style="fill: #ea550f;"/>
    <rect x="727.28" y="420.82" width="8.13" height="34.28" rx="2.72" ry="2.72" style="fill: #ea550f;"/>
    <rect x="727.66" y="539.02" width="8.13" height="34.28" rx="2.72" ry="2.72" style="fill: #ea550f;"/>
  </g>
  <g>
    <rect x="760.44" y="478.98" width="28.77" height="96.58" rx="4.47" ry="4.47" style="fill: #ea550f;"/>
    <rect x="770.2" y="448.99" width="8.13" height="34.28" rx="2.72" ry="2.72" style="fill: #ea550f;"/>
    <rect x="770.58" y="567.18" width="8.13" height="34.28" rx="2.72" ry="2.72" style="fill: #ea550f;"/>
  </g>
  <g>
    <rect x="799.08" y="423.02" width="28.77" height="96.58" rx="4.47" ry="4.47" style="fill: #ea550f;"/>
    <rect x="809.1" y="393.99" width="8.13" height="34.28" rx="2.72" ry="2.72" style="fill: #ea550f;"/>
    <rect x="809.48" y="512.19" width="8.13" height="34.28" rx="2.72" ry="2.72" style="fill: #ea550f;"/>
  </g>
  <line x1="179.34" y1="597.45" x2="435.72" y2="597.45" style="fill: none; stroke: #fff; stroke-linecap: round; stroke-linejoin: round; stroke-width: 6px;"/>
  <line x1="179.34" y1="625.62" x2="388.43" y2="625.62" style="fill: none; stroke: #fff; stroke-linecap: round; stroke-linejoin: round; stroke-width: 6px;"/>
  <line x1="179.34" y1="652.45" x2="355.55" y2="652.45" style="fill: none; stroke: #fff; stroke-linecap: round; stroke-linejoin: round; stroke-width: 6px;"/>
  <rect x="108.82" y="294.1" width="804.96" height="48.37" style="fill: #9fbc24;"/>
  <rect x="169.01" y="514.18" width="151.26" height="45.31" rx="12" ry="12" style="fill: #fff;"/>
  <rect x="754.59" y="306.4" width="61.15" height="23.69" rx="3.86" ry="3.86" style="fill: #fff;"/>
  <rect x="825.68" y="306.4" width="61.15" height="23.69" rx="3.86" ry="3.86" style="fill: #fff;"/>
  <line x1="185.71" y1="319.36" x2="229.4" y2="319.36" style="fill: none; stroke: #fff; stroke-linecap: round; stroke-linejoin: round; stroke-width: 6px;"/>
  <line x1="252.78" y1="319.36" x2="296.47" y2="319.36" style="fill: none; stroke: #fff; stroke-linecap: round; stroke-linejoin: round; stroke-width: 6px;"/>
  <line x1="319.84" y1="319.36" x2="363.54" y2="319.36" style="fill: none; stroke: #fff; stroke-linecap: round; stroke-linejoin: round; stroke-width: 6px;"/>
  <line x1="386.91" y1="319.36" x2="430.61" y2="319.36" style="fill: none; stroke: #fff; stroke-linecap: round; stroke-linejoin: round; stroke-width: 6px;"/>
  <line x1="453.98" y1="319.36" x2="497.67" y2="319.36" style="fill: none; stroke: #fff; stroke-linecap: round; stroke-linejoin: round; stroke-width: 6px;"/>
  <circle cx="145.63" cy="317.78" r="16.06" style="fill: #fff;"/>
</svg>