<?xml version="1.0" encoding="UTF-8"?>
<svg id="Layer_14" xmlns="http://www.w3.org/2000/svg" viewBox="0 0 1024 1024">
  <rect x="569.34" y="377.05" width="118.84" height="234.47" rx="13.15" ry="13.15" style="fill: #fcf9fd; stroke: #050505; stroke-miterlimit: 10;"/>
  <rect x="772.73" y="374.79" width="118.84" height="234.47" rx="13.15" ry="13.15" style="fill: #fcf9fd; stroke: #050505; stroke-miterlimit: 10;"/>
  <rect x="151.05" y="83.58" width="118.84" height="234.47" rx="13.15" ry="13.15" style="fill: #fcf9fd; stroke: #050505; stroke-miterlimit: 10;"/>
  <rect x="361.79" y="378.98" width="118.84" height="234.47" rx="13.15" ry="13.15" style="fill: #fcf9fd; stroke: #050505; stroke-miterlimit: 10;"/>
  <rect x="151.05" y="379.57" width="118.84" height="234.47" rx="13.15" ry="13.15" style="fill: #fcf9fd; stroke: #050505; stroke-miterlimit: 10;"/>
  <rect x="562" y="707.99" width="118.84" height="234.47" rx="13.15" ry="13.15" style="fill: #fcf9fd; stroke: #050505; stroke-miterlimit: 10;"/>
  <circle cx="585.07" cy="739.69" r="5.83" style="fill: #d3d3d3;"/>
  <circle cx="660.55" cy="739.69" r="5.83" style="fill: #d3d3d3;"/>
  <rect x="590.9" y="765.74" width="63.82" height="47.58" rx="3.91" ry="3.91" style="fill: #a6c626;"/>
  <line x1="600.18" y1="827.13" x2="646.34" y2="827.13" style="fill: #fcf9fd; stroke: #d3d3d3; stroke-linecap: round; stroke-miterlimit: 10; stroke-width: 2px;"/>
  <line x1="579.25" y1="842.5" x2="662.52" y2="842.5" style="fill: #fcf9fd; stroke: #d3d3d3; stroke-linecap: round; stroke-miterlimit: 10; stroke-width: 2px;"/>
  <line x1="579.25" y1="853.68" x2="662.52" y2="853.68" style="fill: #fcf9fd; stroke: #d3d3d3; stroke-linecap: round; stroke-miterlimit: 10; stroke-width: 2px;"/>
  <line x1="579.25" y1="864.87" x2="662.52" y2="864.87" style="fill: #fcf9fd; stroke: #d3d3d3; stroke-linecap: round; stroke-miterlimit: 10; stroke-width: 2px;"/>
  <line x1="579.25" y1="876.05" x2="662.52" y2="876.05" style="fill: #fcf9fd; stroke: #d3d3d3; stroke-linecap: round; stroke-miterlimit: 10; stroke-width: 2px;"/>
  <line x1="586.86" y1="885.83" x2="654.72" y2="885.83" style="fill: #fcf9fd; stroke: #d3d3d3; stroke-linecap: round; stroke-miterlimit: 10; stroke-width: 2px;"/>
  <line x1="595.9" y1="897.01" x2="645.15" y2="897.01" style="fill: #fcf9fd; stroke: #d3d3d3; stroke-linecap: round; stroke-miterlimit: 10; stroke-width: 2px;"/>
  <circle cx="795.81" cy="409.28" r="5.83" style="fill: #d3d3d3;"/>
  <circle cx="871.29" cy="409.28" r="5.83" style="fill: #d3d3d3;"/>
  <circle cx="591.74" cy="409.28" r="5.83" style="fill: #d3d3d3;"/>
  <circle cx="667.22" cy="409.28" r="5.83" style="fill: #d3d3d3;"/>
  <circle cx="386.27" cy="409.28" r="5.83" style="fill: #d3d3d3;"/>
  <circle cx="461.75" cy="409.28" r="5.83" style="fill: #d3d3d3;"/>
  <circle cx="173.81" cy="407.88" r="5.83" style="fill: #d3d3d3;"/>
  <circle cx="249.29" cy="407.88" r="5.83" style="fill: #d3d3d3;"/>
  <circle cx="172.41" cy="111.56" r="5.83" style="fill: #d3d3d3;"/>
  <circle cx="247.89" cy="111.56" r="5.83" style="fill: #d3d3d3;"/>
  <rect x="787.72" y="429" width="89.93" height="17.13" rx="6.13" ry="6.13" style="fill: none; stroke: #d3d3d3; stroke-miterlimit: 10; stroke-width: 2px;"/>
  <path d="M869.2,436.35c0,.84-.31,1.6-.82,2.18-.6.69-1.49,1.12-2.48,1.12-1.82,0-3.3-1.48-3.3-3.3s1.48-3.3,3.3-3.3,3.3,1.48,3.3,3.3Z" style="fill: none; stroke: #d3d3d3; stroke-miterlimit: 10; stroke-width: 2px;"/>
  <line x1="871.44" y1="440.46" x2="868.38" y2="438.53" style="fill: none; stroke: #d3d3d3; stroke-linecap: round; stroke-miterlimit: 10; stroke-width: 2px;"/>
  <rect x="786.3" y="458.26" width="25.93" height="21.89" rx="2.98" ry="2.98" style="fill: #a6c626;"/>
  <line x1="819.13" y1="461.11" x2="849.82" y2="461.11" style="fill: none; stroke: #d3d3d3; stroke-linecap: round; stroke-miterlimit: 10; stroke-width: 2px;"/>
  <line x1="819.01" y1="466.17" x2="871.5" y2="466.17" style="fill: #272a00; stroke: #d3d3d3; stroke-linecap: round; stroke-miterlimit: 10; stroke-width: 2px;"/>
  <line x1="819.01" y1="471.76" x2="871.5" y2="471.76" style="fill: none; stroke: #d3d3d3; stroke-linecap: round; stroke-miterlimit: 10; stroke-width: 2px;"/>
  <line x1="819.01" y1="477.35" x2="842.95" y2="477.35" style="fill: none; stroke: #d3d3d3; stroke-linecap: round; stroke-miterlimit: 10; stroke-width: 2px;"/>
  <rect x="786.3" y="487.61" width="25.93" height="21.89" rx="2.98" ry="2.98" style="fill: #a6c626;"/>
  <line x1="819.13" y1="490.47" x2="849.82" y2="490.47" style="fill: none; stroke: #d3d3d3; stroke-linecap: round; stroke-miterlimit: 10; stroke-width: 2px;"/>
  <line x1="819.01" y1="495.52" x2="871.5" y2="495.52" style="fill: #272a00; stroke: #d3d3d3; stroke-linecap: round; stroke-miterlimit: 10; stroke-width: 2px;"/>
  <line x1="819.01" y1="501.11" x2="871.5" y2="501.11" style="fill: none; stroke: #d3d3d3; stroke-linecap: round; stroke-miterlimit: 10; stroke-width: 2px;"/>
  <line x1="819.01" y1="506.71" x2="842.95" y2="506.71" style="fill: none; stroke: #d3d3d3; stroke-linecap: round; stroke-miterlimit: 10; stroke-width: 2px;"/>
  <rect x="786.3" y="516.97" width="25.93" height="21.89" rx="2.98" ry="2.98" style="fill: #a6c626;"/>
  <line x1="819.13" y1="519.82" x2="849.82" y2="519.82" style="fill: none; stroke: #d3d3d3; stroke-linecap: round; stroke-miterlimit: 10; stroke-width: 2px;"/>
  <line x1="819.01" y1="524.88" x2="871.5" y2="524.88" style="fill: #272a00; stroke: #d3d3d3; stroke-linecap: round; stroke-miterlimit: 10; stroke-width: 2px;"/>
  <line x1="819.01" y1="530.47" x2="871.5" y2="530.47" style="fill: none; stroke: #d3d3d3; stroke-linecap: round; stroke-miterlimit: 10; stroke-width: 2px;"/>
  <line x1="819.01" y1="536.06" x2="842.95" y2="536.06" style="fill: none; stroke: #d3d3d3; stroke-linecap: round; stroke-miterlimit: 10; stroke-width: 2px;"/>
  <rect x="786.3" y="546.32" width="25.93" height="21.89" rx="2.98" ry="2.98" style="fill: #a6c626;"/>
  <line x1="819.13" y1="549.17" x2="849.82" y2="549.17" style="fill: none; stroke: #d3d3d3; stroke-linecap: round; stroke-miterlimit: 10; stroke-width: 2px;"/>
  <line x1="819.01" y1="554.23" x2="871.5" y2="554.23" style="fill: #272a00; stroke: #d3d3d3; stroke-linecap: round; stroke-miterlimit: 10; stroke-width: 2px;"/>
  <line x1="819.01" y1="559.82" x2="871.5" y2="559.82" style="fill: none; stroke: #d3d3d3; stroke-linecap: round; stroke-miterlimit: 10; stroke-width: 2px;"/>
  <line x1="819.01" y1="565.41" x2="842.95" y2="565.41" style="fill: none; stroke: #d3d3d3; stroke-linecap: round; stroke-miterlimit: 10; stroke-width: 2px;"/>
  <rect x="786.3" y="575.67" width="25.93" height="21.89" rx="2.98" ry="2.98" style="fill: #a6c626;"/>
  <line x1="819.13" y1="578.53" x2="849.82" y2="578.53" style="fill: none; stroke: #d3d3d3; stroke-linecap: round; stroke-miterlimit: 10; stroke-width: 2px;"/>
  <line x1="819.01" y1="583.58" x2="871.5" y2="583.58" style="fill: #272a00; stroke: #d3d3d3; stroke-linecap: round; stroke-miterlimit: 10; stroke-width: 2px;"/>
  <line x1="819.01" y1="589.17" x2="871.5" y2="589.17" style="fill: none; stroke: #d3d3d3; stroke-linecap: round; stroke-miterlimit: 10; stroke-width: 2px;"/>
  <line x1="819.01" y1="594.76" x2="842.95" y2="594.76" style="fill: none; stroke: #d3d3d3; stroke-linecap: round; stroke-miterlimit: 10; stroke-width: 2px;"/>
  <circle cx="631.2" cy="434.87" r="9.52" style="fill: #a6c626;"/>
  <line x1="606.96" y1="455.3" x2="651.22" y2="455.3" style="fill: none; stroke: #1e1e1e; stroke-linecap: round; stroke-miterlimit: 10; stroke-width: 4px;"/>
  <rect x="584.12" y="478.62" width="37.56" height="29.98" rx="3.39" ry="3.39" style="fill: #ea550f;"/>
  <rect x="635.84" y="478.62" width="37.56" height="29.98" rx="3.39" ry="3.39" style="fill: #ea550f;"/>
  <rect x="585.31" y="517.75" width="88.09" height="70.3" rx="3.39" ry="3.39" style="fill: #ea550f;"/>
  <circle cx="422.93" cy="461.37" r="20.49" style="fill: #ea550f;"/>
  <circle cx="422.64" cy="459.61" r="4.55" style="fill: #fff;"/>
  <rect x="411.69" y="464.16" width="21.41" height="9.99" rx="3.57" ry="3.57" style="fill: #fff;"/>
  <line x1="397.42" y1="496.19" x2="443.42" y2="496.19" style="fill: none; stroke: #1e1e1e; stroke-linecap: round; stroke-miterlimit: 10; stroke-width: 4px;"/>
  <rect x="385.76" y="507.7" width="70.9" height="13.32" rx="4.77" ry="4.77" style="fill: #ddd;"/>
  <rect x="385.76" y="528.67" width="70.9" height="13.32" rx="4.77" ry="4.77" style="fill: #ddd;"/>
  <rect x="393.14" y="556.62" width="54.25" height="15.91" rx="4.77" ry="4.77" style="fill: #ea550f;"/>
  <line x1="186.36" y1="454.26" x2="232.36" y2="454.26" style="fill: none; stroke: #1e1e1e; stroke-linecap: round; stroke-miterlimit: 10; stroke-width: 4px;"/>
  <rect x="174.7" y="476.95" width="70.9" height="13.32" rx="4.77" ry="4.77" style="fill: #ddd;"/>
  <rect x="174.7" y="497.92" width="70.9" height="13.32" rx="4.77" ry="4.77" style="fill: #ddd;"/>
  <rect x="174.7" y="520.28" width="70.9" height="13.32" rx="4.77" ry="4.77" style="fill: #ddd;"/>
  <rect x="182.07" y="546.84" width="54.25" height="15.91" rx="4.77" ry="4.77" style="fill: #ea550f;"/>
  <line x1="186.36" y1="141.16" x2="232.36" y2="141.16" style="fill: none; stroke: #1e1e1e; stroke-linecap: round; stroke-miterlimit: 10; stroke-width: 4px;"/>
  <rect x="174.7" y="163.85" width="70.9" height="13.32" rx="4.77" ry="4.77" style="fill: #ddd;"/>
  <rect x="174.7" y="184.82" width="70.9" height="13.32" rx="4.77" ry="4.77" style="fill: #ddd;"/>
  <rect x="174.7" y="207.18" width="70.9" height="13.32" rx="4.77" ry="4.77" style="fill: #ddd;"/>
  <rect x="174.7" y="229.55" width="70.9" height="13.32" rx="4.77" ry="4.77" style="fill: #ddd;"/>
  <rect x="174.7" y="251.91" width="70.9" height="13.32" rx="4.77" ry="4.77" style="fill: #ddd;"/>
  <rect x="182.07" y="272.88" width="54.25" height="15.91" rx="4.77" ry="4.77" style="fill: #ea550f;"/>
  <line x1="606.49" y1="628.49" x2="606.04" y2="694.87" style="fill: #050505; stroke: #fff; stroke-linecap: round; stroke-miterlimit: 10; stroke-width: 2px;"/>
  <circle cx="606.05" cy="624.83" r="5.26" style="fill: #050505;"/>
  <path d="M638.64,628.49c-.15,9.11-.3,18.22-.45,27.33-.08,1.18.08,2.35.84,3.09,1.18,1.15,3.25.76,3.57.71,3.48-.49,82.46-.3,195.81.24.37-.05,2.78-.4,4.28-2.62,1.36-2,1.03-4.09.95-4.52.08-8.41.16-16.81.24-25.22" style="fill: none; stroke: #fff; stroke-linecap: round; stroke-miterlimit: 10; stroke-width: 2px;"/>
  <circle cx="638.19" cy="624.83" r="5.26" style="fill: #050505;"/>
  <circle cx="843.66" cy="624.83" r="5.26" style="fill: #050505;"/>
  <path d="M435.42,350.42c-.14-9.11-.29-18.22-.43-27.33-.08-1.18.07-2.35.81-3.09,1.14-1.15,3.14-.76,3.45-.71,3.37.49,79.8.3,189.49-.24.36.05,2.69.4,4.14,2.62,1.31,2,.99,4.09.92,4.52.08,8.41.15,16.81.23,25.22" style="fill: none; stroke: #fff; stroke-linecap: round; stroke-miterlimit: 10; stroke-width: 2px;"/>
  <ellipse cx="434.99" cy="354.08" rx="5.09" ry="5.26" style="fill: #050505;"/>
  <ellipse cx="633.84" cy="354.08" rx="4.95" ry="5.26" style="fill: #050505;"/>
  <path d="M212.1,645.26c-.15,9.11-.3,18.22-.46,27.33-.09,1.18.08,2.35.86,3.09,1.2,1.15,3.32.76,3.65.71,3.56-.49,84.4-.3,200.41.24.38-.05,2.84-.4,4.38-2.62,1.39-2,1.05-4.09.97-4.52.08-8.41.16-16.81.24-25.22" style="fill: none; stroke: #fff; stroke-linecap: round; stroke-miterlimit: 10; stroke-width: 2px;"/>
  <ellipse cx="211.64" cy="641.6" rx="5.39" ry="5.26" style="fill: #050505;"/>
  <ellipse cx="421.96" cy="641.6" rx="5.23" ry="5.26" style="fill: #050505;"/>
  <circle cx="606.05" cy="691.92" r="5.26" style="fill: #050505;"/>
  <line x1="206.7" y1="330.72" x2="206.25" y2="371.96" style="fill: #050505; stroke: #fff; stroke-linecap: round; stroke-miterlimit: 10; stroke-width: 2px;"/>
  <circle cx="206.26" cy="330.44" r="5.26" style="fill: #050505;"/>
  <circle cx="206.26" cy="368.13" r="5.26" style="fill: #050505;"/>
  <path d="M282.87,185.7c56.37-.58,97.49-.7,104.68-.48,1.67.05,5.42.24,7.61,2.86,1.6,1.91,1.8,4.43,1.66,6.42-.15,54.04-.3,108.07-.45,162.11" style="fill: none; stroke: #fff; stroke-linecap: round; stroke-miterlimit: 10; stroke-width: 2px;"/>
  <circle cx="396.38" cy="353.67" r="5.26" style="fill: #050505;"/>
  <circle cx="280.37" cy="185.7" r="4.5" style="fill: #050505;"/>
  <line x1="704.76" y1="497.9" x2="756.88" y2="498.56" style="fill: #050505; stroke: #fff; stroke-linecap: round; stroke-miterlimit: 10; stroke-width: 2px;"/>
  <circle cx="701.1" cy="498.56" r="5.26" style="fill: #050505;"/>
  <circle cx="760.88" cy="498.23" r="5.26" style="fill: #050505;"/>
</svg>