<?xml version="1.0" encoding="UTF-8"?>
<svg id="Layer_15" xmlns="http://www.w3.org/2000/svg" viewBox="0 0 1024 1024">
  <circle cx="518.77" cy="475.16" r="126.06" style="fill: none; stroke: #e2e2e2; stroke-miterlimit: 10; stroke-width: 2px;"/>
  <rect x="401.45" y="687.82" width="234.21" height="215.12" style="fill: #a6c626;"/>
  <path d="M400.59,717.27h63.64v132.73h-53.77c-5.45,0-9.87-4.42-9.87-9.87v-122.86h0Z" transform="translate(-207.13 157.49) rotate(-16.72)" style="fill: #ffaa9c;"/>
  <path d="M401.55,628.91h23.65c13.24,0,23.99,10.75,23.99,23.99v101.74c0,4.43-3.59,8.02-8.02,8.02h-70.1c-2.74,0-4.96-2.22-4.96-4.96v-93.35c0-19.56,15.88-35.44,35.44-35.44Z" transform="translate(-207.22 174.03) rotate(-19.32)" style="fill: #a6c626;"/>
  <path d="M626.36,696.72h56.12v149.44h-65.99v-139.57c0-5.45,4.42-9.87,9.87-9.87Z" transform="translate(1427.78 1412.69) rotate(169.58)" style="fill: #ffaa9c;"/>
  <path d="M598.65,635.84h70.1c4.43,0,8.02,3.59,8.02,8.02v112.1c0,13.24-10.75,23.99-23.99,23.99h-22.29c-20.31,0-36.8-16.49-36.8-36.8v-102.35c0-2.74,2.22-4.96,4.96-4.96Z" transform="translate(1388 1289.23) rotate(169.58)" style="fill: #a6c626;"/>
  <polyline points="383.01 635.59 446.17 613.16 503.06 602.58 552.24 609.55 608.17 627.09 638.5 635.59 659.39 648.89 631.31 730.78 398.44 717.37 383.01 637.92" style="fill: #a6c626;"/>
  <rect x="474.67" y="547.75" width="72.18" height="99.37" style="fill: #f9a293;"/>
  <path d="M546.86,558.35v23.23c-7.76,5.52-18.02,9.44-32.11,11.4-5.29.74-10.67.68-15.94-.27-10.11-1.82-17.91-4.64-24.14-8.49v-25.87h72.19Z" style="fill: #ef8c7b;"/>
  <path d="M527.1,579.81c-5.21,1.17-10.59,1.55-15.91,1.05-34.18-3.29-43.83-19.94-53.82-46.6-1.85-4.93-3.09-10.06-3.76-15.25l-9.37-73.23,134.8-11.05.92,69.96c.12,9.07-.81,18.15-3,27.01-5.82,23.6-16.29,40.56-49.87,48.11v.02Z" style="fill: #ffab99;"/>
  <path d="M453.49,450.24c3.82-.13,6.35-3.44,7.47-4.54,8.46-8.24,38.71,17.75,64.07,19.93,33.44,2.87,70.75-15.7,76.69-41.93,3.36-14.86-5.55-31.7-17.05-40.46-22.87-17.39-65.87-10.23-101.35,24,3.06-15.03.81-19.82-1.76-21.43-7.99-5.05-32.91,11.73-39.08,33.93-.76,2.74-4.54,17.48,2.78,25.92.86.98,4.07,4.7,8.22,4.56v.02Z" style="fill: #131c38;"/>
  <path d="M443.21,438.31c-3.24,5.01-10.97,18.42-10.46,36.91.42,15.19,6.14,24.83,14.52,38.94,1.89,3.18,4.32,6.82,6.41,6.38,2.3-.49,2.97-5.84,3.26-8.23,1.71-14.51-2.21-47.36-4.46-64.39-3.09-3.2-6.18-6.4-9.27-9.59h0Z" style="fill: #131c38;"/>
  <path d="M583,444.19c3.19,3.54,10.98,13.13,12.29,27.29,1.07,11.62-2.84,19.47-8.56,30.94-1.29,2.58-3,5.57-4.8,5.4-1.98-.19-3.05-4.2-3.52-6.01-2.81-10.93-2.58-36.34-2.3-49.52,2.3-2.7,4.6-5.41,6.91-8.11h-.02Z" style="fill: #131c38;"/>
  <path d="M544.57,530.32c1.8-.15,3.26,1.39,3.06,3.19-1.22,10.17-11.44,18.68-24.5,19.75-13.06,1.07-24.54-5.68-27.39-15.5-.51-1.72.7-3.49,2.5-3.64l46.34-3.8h0Z" style="fill: #fff7f1;"/>
  <path d="M528.26,499.02l1.12,13.61c.15,1.87-1.23,3.51-3.11,3.66l-1.75.14" style="fill: none; stroke: #000; stroke-linecap: round; stroke-miterlimit: 10;"/>
  <ellipse cx="447.73" cy="518.46" rx="12.9" ry="24.53" transform="translate(-155.26 193.39) rotate(-20.86)" style="fill: #ffab99;"/>
  <ellipse cx="584.79" cy="504.93" rx="24.53" ry="12.9" transform="translate(-26.44 977.51) rotate(-78.52)" style="fill: #ffab99;"/>
  <path d="M454.66,518.29c-1.89-4.19-3.79-8.4-5.69-12.59-1.13-2.52-3.78-4.16-6.51-3.72h-.09c-2.82.5-5.15,2.71-6,5.68" style="fill: none; stroke: #f28472; stroke-linecap: round; stroke-miterlimit: 10;"/>
  <path d="M579.58,508.44c1.19-4.45,2.37-8.91,3.56-13.35.71-2.67,3.05-4.72,5.82-4.73h.09c2.86.02,5.52,1.82,6.84,4.62" style="fill: none; stroke: #f28472; stroke-linecap: round; stroke-miterlimit: 10;"/>
  <line x1="480.09" y1="479.93" x2="510.13" y2="477.46" style="fill: none; stroke: #111; stroke-linecap: round; stroke-miterlimit: 10; stroke-width: 5px;"/>
  <line x1="538.14" y1="475.16" x2="568.18" y2="472.7" style="fill: none; stroke: #111; stroke-linecap: round; stroke-miterlimit: 10; stroke-width: 5px;"/>
  <circle cx="495.95" cy="498.03" r="6.67"/>
  <circle cx="551.83" cy="493.45" r="6.67"/>
  <path d="M474.14,608.14c9.12,12.68,18.25,25.38,27.37,38.07-9.32,9.32-18.64,18.64-27.96,27.96-11.7-21.22-23.4-42.43-35.1-63.65l35.69-2.38Z" style="fill: #f8ffff;"/>
  <path d="M546.12,608.14c-9.12,12.68-18.25,25.38-27.37,38.07,9.32,9.32,18.64,18.64,27.96,27.96,11.7-21.22,23.4-42.43,35.1-63.65l-35.69-2.38Z" style="fill: #f8ffff;"/>
  <path d="M582.27,581.45c-.21,3.03-.76,6.38-1.82,9.91-2.86,9.49-8.91,18.26-16.05,24.9-.06.06-.14.12-.2.17-9.82,8.41-21.26,12.71-29.2,9.55-11.21-4.47-21.73-24.1-27.61-46.64-.2-.79-.62-6.74-1.3-15.79.44-2.41,1.36-5.59,2.65-7.5.52-.77,1.09-1.32,1.71-1.55,1.73-.64,4.23,1.38,5.61,3.09,1.42,1.76,2.03,3.62,2.26,5.5-.05,1.21-.06,2.36.11,3.44.17,1.15.55,2.21,1.32,3.12,1.47,1.76,5.15,2.83,12.31,1.68,2.47-.41,4.73-1.76,6.26-3.76,7.9-10.23,15.21-20.12,23.22-30.43,1.06-.55,3.92-1.86,7.15-.97.77.21,1.94.55,2.91,1.55,2.44,2.5,1.26,6.62,1.17,6.97-.06.14-.14.26-.2.39-.47.89-.92,1.79-1.39,2.68-1.27,2.47-2.55,4.96-3.83,7.44-.53,1.03-.32,2.27.53,3.05-.36.71-.73,1.41-1.09,2.12-.41.77-.8,1.55-1.2,2.32-.56,1.09-.29,2.42.67,3.2,4.39,3.59,8.77,7.18,13.17,10.76,1.5,1.23,2.53,2.94,2.86,4.8Z" style="fill: #fca192;"/>
  <path d="M582.27,581.45c-.21,3.03-.76,6.38-1.82,9.91-2.86,9.49-8.91,18.26-16.05,24.9-.06.06-.14.12-.2.17-10.18,9.41-22.53,14.47-30.96,11.11-11.21-4.47-21.73-24.1-27.61-46.64-.2-.79-.62-6.74-1.3-15.79.61-3.36,2.17-8.24,4.36-9.05.02,0,.03-.02.05-.02,1.73-.59,4.2,1.41,5.56,3.11,1.42,1.76,2.03,3.62,2.26,5.5.15,1.15.15,2.3.11,3.44-.11,3.47-.62,6.74,1.32,9.05,1.47,1.76,5.15,2.85,12.31,1.68,2.47-.39,4.73-1.76,6.26-3.74,7.9-10.23,15.21-20.14,23.22-30.44,1.06-.55,3.92-1.85,7.15-.95.77.21,1.94.55,2.91,1.55.42.44.74.92.97,1.42.17.36.29.74.36,1.12.5,2.09-.11,4.18-.17,4.41-1.06,2.03-2.09,4.06-3.14,6.08-.36.71-.73,1.41-1.09,2.12-.41.77-.8,1.55-1.2,2.32-.56,1.09-.29,2.42.67,3.2,4.39,3.59,8.77,7.18,13.17,10.76,1.5,1.23,2.53,2.94,2.86,4.8Z" style="fill: #ffaa9c;"/>
  <path d="M527.07,612.64c-5.27,10.9-22.34,46.23-27.61,57.13-23.77,49.2-47.51,98.43-71.23,147.67-3.88,15.77-.36,30.32,8.98,36.79,10.34,7.16,24.71,2.77,28.68.39,13.85-8.28,33.2-44.62,41.32-70.03,12.28-38.45,35.86-97.68,45.95-174.94-8.7.99-17.4,1.99-26.09,2.98Z" style="fill: #ffaa9c;"/>
  <path d="M434.69,829.63c12.03-1.39,51-5.9,63.03-7.29,54.28-6.27,108.57-12.51,162.88-18.72,16.17,1.52,28.76,9.63,31.79,20.58,3.36,12.12-5.51,24.24-9.06,27.22-12.37,10.36-53.05,16.69-79.72,16-40.35-1.04-104.04,1.75-180.32-14.12,3.8-7.89,7.6-15.77,11.4-23.66Z" style="fill: #ffaa9c;"/>
  <path d="M443.75,830.93c-6.07-3.22-21.99-10.6-42.3-8.06-4.54.57-27.05,3.38-38.18,19.45-4.91,7.09-7.32,16.35-4.64,18.02,2.97,1.86,8.5-7.98,20.64-10.44,13.56-2.74,18.31,7.21,36.63,6.64,5.03-.16,17.62-.55,24.25-9.01,4.81-6.14,4.11-13.53,3.61-16.6Z" style="fill: #ffaa9c;"/>
  <line x1="296.02" y1="902.94" x2="721.95" y2="902.94" style="fill: none; stroke: #000; stroke-miterlimit: 10; stroke-width: 3px;"/>
  <circle cx="775.7" cy="267.59" r="126.06" style="fill: none; stroke: #e2e2e2; stroke-miterlimit: 10; stroke-width: 2px;"/>
  <circle cx="777.2" cy="267.84" r="103.64" style="fill: #fff;"/>
  <circle cx="189" cy="458.9" r="134.28" style="fill: none; stroke: #e2e2e2; stroke-miterlimit: 10; stroke-width: 2px;"/>
  <circle cx="190.6" cy="459.17" r="110.4" style="fill: #fff;"/>
  <circle cx="893.68" cy="464.48" r="73.6" style="fill: none; stroke: #e2e2e2; stroke-miterlimit: 10; stroke-width: 2px;"/>
  <circle cx="894.55" cy="464.63" r="60.52" style="fill: #fff;"/>
  <circle cx="551.69" cy="179.12" r="64.16" style="fill: none; stroke: #e2e2e2; stroke-miterlimit: 10; stroke-width: 2px;"/>
  <circle cx="552.45" cy="179.25" r="52.75" style="fill: #fff;"/>
  <circle cx="796.22" cy="635.65" r="89.69" style="fill: none; stroke: #e2e2e2; stroke-miterlimit: 10; stroke-width: 2px;"/>
  <circle cx="797.29" cy="635.83" r="73.75" style="fill: #fff;"/>
  <circle cx="335.51" cy="227.67" r="106.54" style="fill: none; stroke: #e2e2e2; stroke-miterlimit: 10; stroke-width: 2px;"/>
  <circle cx="335.13" cy="227.88" r="87.59" style="fill: #fff;"/>
  <circle cx="244.39" cy="691.8" r="73.22" style="fill: none; stroke: #e2e2e2; stroke-miterlimit: 10; stroke-width: 2px;"/>
  <circle cx="245.25" cy="692.01" r="60.2" style="fill: #fff;"/>
  <line x1="544.73" y1="243.28" x2="536.46" y2="350.72" style="fill: none; stroke: #e2e2e2; stroke-miterlimit: 10; stroke-width: 3px;"/>
  <line x1="685.37" y1="353.61" x2="623.97" y2="403.54" style="fill: none; stroke: #e2e2e2; stroke-miterlimit: 10; stroke-width: 3px;"/>
  <line x1="820.07" y1="467.69" x2="643.46" y2="467.69" style="fill: none; stroke: #e2e2e2; stroke-miterlimit: 10; stroke-width: 3px;"/>
  <line x1="730.61" y1="574.41" x2="637.2" y2="518.46" style="fill: none; stroke: #e2e2e2; stroke-miterlimit: 10; stroke-width: 3px;"/>
  <line x1="299.76" y1="644.21" x2="405.24" y2="529.1" style="fill: none; stroke: #e2e2e2; stroke-miterlimit: 10; stroke-width: 3px;"/>
  <line x1="323.29" y1="460.89" x2="392.71" y2="460.89" style="fill: none; stroke: #e2e2e2; stroke-miterlimit: 10; stroke-width: 3px;"/>
  <line x1="396.5" y1="315.71" x2="442.05" y2="376.42" style="fill: none; stroke: #e2e2e2; stroke-miterlimit: 10; stroke-width: 3px;"/>
  <line x1="880.1" y1="464.87" x2="899.26" y2="455.81" style="fill: none; stroke: #a6c626; stroke-miterlimit: 10; stroke-width: 4px;"/>
  <line x1="903.05" y1="457.07" x2="910.42" y2="479.39" style="fill: none; stroke: #a6c626; stroke-miterlimit: 10; stroke-width: 4px;"/>
  <circle cx="903.05" cy="454.55" r="7.37" style="fill: #ea550f;"/>
  <circle cx="876.94" cy="466.76" r="7.37" style="fill: #ea550f;"/>
  <circle cx="910.42" cy="481.5" r="7.37" style="fill: #ea550f;"/>
  <path d="M822.48,620.32c0,22.36-24.78,54.24-24.78,54.24,0,0-25.59-30.39-25.59-52.76,0-16.79,9.31-28.23,25.59-28.23s24.78,13.17,24.78,26.75Z" style="fill: #ea550f;"/>
  <circle cx="797.29" cy="619.27" r="13.27" style="fill: #fff;"/>
  <circle cx="768.8" cy="274.35" r="55.87" style="fill: none; stroke: #ea550f; stroke-miterlimit: 10; stroke-width: 7px;"/>
  <circle cx="768.8" cy="274.35" r="44.57" style="fill: none; stroke: #a6c626; stroke-miterlimit: 10; stroke-width: 4px;"/>
  <circle cx="768.51" cy="273.92" r="35.21" style="fill: none; stroke: #a6c626; stroke-miterlimit: 10; stroke-width: 4px;"/>
  <circle cx="768.56" cy="274.35" r="22.66" style="fill: none; stroke: #ea550f; stroke-miterlimit: 10; stroke-width: 5px;"/>
  <ellipse cx="768.84" cy="274.47" rx="12.56" ry="12.05" style="fill: #ea550f;"/>
  <ellipse cx="768.56" cy="274.47" rx="6.28" ry="6.03" style="fill: #111;"/>
  <polygon points="824.49 236.81 811.5 235.72 812.15 222.7 832.44 204.96 831.79 217.98 844.78 219.07 824.49 236.81" style="fill: #111;"/>
  <line x1="814.14" y1="233.17" x2="770.63" y2="272.47" style="fill: none; stroke: #141414; stroke-linecap: round; stroke-miterlimit: 10; stroke-width: 3px;"/>
  <line x1="552.45" y1="179.25" x2="570.14" y2="197.78" style="fill: none; stroke: #ea550f; stroke-linecap: round; stroke-miterlimit: 10; stroke-width: 5px;"/>
  <circle cx="543.86" cy="169.67" r="13.16" style="fill: none; stroke: #ea550f; stroke-linecap: round; stroke-miterlimit: 10; stroke-width: 5px;"/>
  <circle cx="338.96" cy="194.34" r="16.84" style="fill: #ea550f;"/>
  <path d="M299.04,251.34c-3.57-10.44,8.96-27.54,24.96-33.16,2.32-.81,18.07-6.05,32.13,3.76,12.03,8.39,19.11,25.19,14.02,34.53-9.63,17.66-65.01,12.72-71.11-5.13Z" style="fill: #ea550f;"/>
  <circle cx="192.6" cy="464.51" r="70.2" transform="translate(-272.05 272.24) rotate(-45)" style="fill: #ea550f;"/>
  <path d="M177.66,395.5c-2.57,2-27.03,19.72-29.79,61.56-3.04,46.3,25.22,74.04,26.63,75.37" style="fill: none; stroke: #fff; stroke-linecap: round; stroke-miterlimit: 10; stroke-width: 2px;"/>
  <path d="M208.51,394.71c2.38,2.19,24.58,20.81,24.86,64.03.31,47.82-28.8,74.85-30.23,76.13" style="fill: none; stroke: #fff; stroke-linecap: round; stroke-miterlimit: 10; stroke-width: 2px;"/>
  <line x1="193.31" y1="394.68" x2="190.9" y2="534.73" style="fill: none; stroke: #fff; stroke-linecap: round; stroke-miterlimit: 10; stroke-width: 2px;"/>
  <path d="M140.23,508.32c6.64-4.08,23.88-13.49,48.08-13.69,28.22-.23,47.77,12.22,53.83,16.42" style="fill: none; stroke: #fff; stroke-linecap: round; stroke-miterlimit: 10; stroke-width: 2px;"/>
  <path d="M144.38,415.08c6.18,4.41,22.29,14.67,45.57,16.09,27.16,1.65,46.63-9.8,52.68-13.69" style="fill: none; stroke: #fff; stroke-linecap: round; stroke-miterlimit: 10; stroke-width: 2px;"/>
  <line x1="123.94" y1="459.69" x2="261.66" y2="461.59" style="fill: none; stroke: #fff; stroke-linecap: round; stroke-miterlimit: 10; stroke-width: 2px;"/>
  <circle cx="243.11" cy="692.06" r="13.05" style="fill: none; stroke: #ea550f; stroke-miterlimit: 10; stroke-width: 5px;"/>
  <rect x="232.2" y="671.59" width="10.63" height="8.32" transform="translate(-203.25 111.14) rotate(-18.61)" style="fill: #ea550f;"/>
  <rect x="220.93" y="685.33" width="10.63" height="8.32" transform="translate(-478.05 864.29) rotate(-85.77)" style="fill: #ea550f;"/>
  <rect x="227.13" y="701.41" width="10.63" height="8.32" transform="translate(27.77 1419.7) rotate(-145.77)" style="fill: #ea550f;"/>
  <rect x="248.46" y="673.84" width="10.63" height="8.32" transform="translate(29.81 1366.42) rotate(-141.46)" style="fill: #ea550f;"/>
  <rect x="254.93" y="689.45" width="10.63" height="8.32" transform="translate(-450.66 902.02) rotate(-85.77)" style="fill: #ea550f;"/>
  <rect x="244.44" y="703.22" width="10.63" height="8.32" transform="translate(-282.72 178.96) rotate(-25.77)" style="fill: #ea550f;"/>
</svg>