<?xml version="1.0" encoding="UTF-8"?>
<svg id="Layer_16" xmlns="http://www.w3.org/2000/svg" viewBox="0 0 1024 1024">
  <path d="M743.93,135.92v752.16c0,18.56-10.91,34.57-26.66,41.97-5.37,2.53-11.31,4.05-17.56,4.33-.7.03-1.41.04-2.12.04h-387.16c-7.04,0-13.71-1.57-19.68-4.38-15.75-7.4-26.66-23.41-26.66-41.97V135.92c0-25.6,20.75-46.34,46.34-46.34h387.16c25.6,0,46.34,20.75,46.34,46.34Z" style="fill: #ededed; stroke: #050505; stroke-miterlimit: 10; stroke-width: 12px;"/>
  <rect x="292.53" y="234.49" width="426.53" height="426.53" rx="10.21" ry="10.21" style="fill: #fff;"/>
  <rect x="316.25" y="340.02" width="385.25" height="285.07" rx="10.21" ry="10.21" style="fill: #ededed;"/>
  <circle cx="339.6" cy="169.65" r="47.07" style="fill: #fff; stroke: #c1c1c1; stroke-miterlimit: 10; stroke-width: 2px;"/>
  <circle cx="344.73" cy="288.36" r="34.79" style="fill: #ea550f;"/>
  <circle cx="450.4" cy="169.65" r="47.07" style="fill: #fff; stroke: #c1c1c1; stroke-miterlimit: 10; stroke-width: 2px;"/>
  <circle cx="563.5" cy="169.65" r="47.07" style="fill: #fff; stroke: #c1c1c1; stroke-miterlimit: 10; stroke-width: 2px;"/>
  <circle cx="671.98" cy="169.65" r="47.07" style="fill: #fff; stroke: #c1c1c1; stroke-miterlimit: 10; stroke-width: 2px;"/>
  <line x1="402.96" y1="274.9" x2="574.88" y2="274.9" style="fill: none; stroke: #1e1e1e; stroke-linecap: round; stroke-miterlimit: 10; stroke-width: 11px;"/>
  <line x1="401.84" y1="293.99" x2="533.05" y2="293.99" style="fill: none; stroke: #a6c626; stroke-linecap: round; stroke-miterlimit: 10; stroke-width: 5px;"/>
  <line x1="401.84" y1="307.46" x2="533.05" y2="307.46" style="fill: none; stroke: #a6c626; stroke-linecap: round; stroke-miterlimit: 10; stroke-width: 5px;"/>
  <path d="M705.8,699.99h-403.6c-6.33,0-11.46,4.98-11.46,11.1v211.54c5.97,2.72,12.64,4.24,19.68,4.24h387.16c.71,0,1.43-.01,2.12-.04,6.25-.27,12.19-1.75,17.56-4.19v-211.54c0-6.13-5.13-11.1-11.46-11.1Z" style="fill: #fff;"/>
  <path d="M699.71,813.24v113.6c-.7.03-1.41.04-2.12.04h-383.13v-113.64c0-6.13,5.14-11.1,11.47-11.1h362.32c6.33,0,11.46,4.98,11.46,11.1Z" style="fill: #ededed;"/>
  <circle cx="342.94" cy="753.87" r="34.79" style="fill: #ea550f;"/>
  <line x1="401.17" y1="740.42" x2="573.08" y2="740.42" style="fill: none; stroke: #1e1e1e; stroke-linecap: round; stroke-miterlimit: 10; stroke-width: 11px;"/>
  <line x1="400.05" y1="759.5" x2="531.26" y2="759.5" style="fill: none; stroke: #a6c626; stroke-linecap: round; stroke-miterlimit: 10; stroke-width: 5px;"/>
  <line x1="400.05" y1="772.97" x2="531.26" y2="772.97" style="fill: none; stroke: #a6c626; stroke-linecap: round; stroke-miterlimit: 10; stroke-width: 5px;"/>
  <rect x="486.78" y="438.85" width="37.77" height="67.59" rx="12" ry="12" transform="translate(-105.45 147.63) rotate(-15.06)" style="fill: #a6c626;"/>
  <rect x="403.5" y="531.06" width="25.78" height="67.59" rx="12" ry="12" transform="translate(-132.47 127.6) rotate(-15.06)" style="fill: #a6c626;"/>
  <rect x="350.16" y="481.08" width="37.77" height="67.59" rx="12" ry="12" transform="translate(-121.11 113.58) rotate(-15.06)"/>
  <rect x="373.35" y="471.52" width="62.47" height="67.59" rx="12" ry="12" transform="translate(-117.41 122.49) rotate(-15.06)" style="fill: #a6c626;"/>
  <path d="M520.88,553.93l-84.24-22.25c-4.49,1.21-9.15-1.48-10.36-5.97l-13.17-48.95c-1.21-4.49,1.48-9.15,5.97-10.36l58.9-68.53c4.88-5.67,14.11-3.58,16.07,3.64l38.21,140.96c1.88,6.93-4.44,13.29-11.38,11.46Z" style="fill: #ea550f;"/>
  <line x1="535.98" y1="427.2" x2="596.74" y2="374.1" style="fill: none; stroke: #ea550f; stroke-linecap: round; stroke-miterlimit: 10; stroke-width: 4px;"/>
  <line x1="546.89" y1="462.03" x2="623.68" y2="437.2" style="fill: none; stroke: #ea550f; stroke-linecap: round; stroke-miterlimit: 10; stroke-width: 4px;"/>
  <line x1="553.55" y1="498.33" x2="633.31" y2="510.64" style="fill: none; stroke: #ea550f; stroke-linecap: round; stroke-miterlimit: 10; stroke-width: 4px;"/>
  <rect x="178.76" y="813.44" width="184.38" height="135.69" rx="21.27" ry="21.27" style="fill: #ea550f;"/>
  <rect x="609.86" y="779.47" width="250.03" height="167.19" rx="21.27" ry="21.27" style="fill: #ea550f;"/>
  <path d="M270.91,858.32c.92-.9,10.95-10.43,24.45-7.72,10.26,2.06,17.99,11.35,18.96,19.16,1.64,13.11-12.79,39.93-45.18,48.08-28.51-9.38-42.02-32.8-41.71-47.41.19-8.94,5.05-16.67,16.8-20.04,8.74-2.51,19.7,1.07,26.67,7.93h0Z" style="fill: #fff;"/>
  <path d="M751,823.22l-5.43,22.39h31.68c6,0,10.87,4.87,10.87,10.87,0,1.03-.15,2.05-.43,3.04l-12.66,43.47c-1.35,4.64-5.6,7.82-10.43,7.82h-73.36c-6,0-10.87-4.87-10.87-10.87v-43.47c0-6,4.87-10.87,10.87-10.87h15c4.12,0,7.89-2.34,9.73-6.03l18.75-37.44c9.39.12,16.91,7.82,16.8,17.22-.02,1.3-.18,2.6-.49,3.87Z" style="fill: #fff;"/>
  <path d="M690.39,845.6h17.13v65.21h-17.13c-5.54,0-10.04-4.5-10.04-10.04v-45.14c0-5.54,4.5-10.04,10.04-10.04Z"/>
  <path d="M784.13,284.47l2.03-27.99c.21-2.93,3.24-4.8,5.95-3.66l16.4,6.83c2.71,1.13,3.53,4.59,1.59,6.8l-18.44,21.16c-2.72,3.12-7.84.98-7.54-3.14h0Z" style="fill: #ea550f;"/>
  <rect x="801.81" y="182.23" width="75.61" height="120.72" rx="11.68" ry="11.68" transform="translate(335.02 956.16) rotate(-70.85)" style="fill: #ea550f;"/>
  <path d="M222.71,497.82l-7.34-27.09c-.77-2.84-4.09-4.09-6.54-2.46l-14.8,9.84c-2.45,1.62-2.58,5.18-.26,6.98l22.14,17.25c3.27,2.54,7.89-.53,6.8-4.52h0Z" style="fill: #ea550f;"/>
  <path d="M219.15,427.4c14.91,15.91,5.54,45.59-20.91,66.29-26.46,20.71-59.99,24.6-74.89,8.69-14.91-15.91-5.54-45.59,20.91-66.29,26.46-20.71,59.99-24.6,74.89-8.69Z" style="fill: #ea550f;"/>
  <circle cx="148.44" cy="480.87" r="8.34" style="fill: #fff;"/>
  <circle cx="170.5" cy="465.75" r="8.34" style="fill: #fff;"/>
  <circle cx="193.36" cy="450.05" r="8.34" style="fill: #fff;"/>
  <circle cx="805.5" cy="230.3" r="9.98" style="fill: #fff;"/>
  <circle cx="837.57" cy="242.59" r="9.98" style="fill: #fff;"/>
  <circle cx="869.64" cy="255.37" r="9.98" style="fill: #fff;"/>
</svg>


<svg stroke="currentColor" fill="currentColor" stroke-width="0" viewBox="0 0 640 512" height="1em" width="1em" xmlns="http://www.w3.org/2000/svg"><path d="M640 317.9C640 409.2 600.6 466.4 529.7 466.4C467.1 466.4 433.9 431.8 372.8 329.8L341.4 277.2C333.1 264.7 326.9 253 320.2 242.2C300.1 276 273.1 325.2 273.1 325.2C206.1 441.8 168.5 466.4 116.2 466.4C43.42 466.4 0 409.1 0 320.5C0 177.5 79.78 42.4 183.9 42.4C234.1 42.4 277.7 67.08 328.7 131.9C365.8 81.8 406.8 42.4 459.3 42.4C558.4 42.4 640 168.1 640 317.9H640zM287.4 192.2C244.5 130.1 216.5 111.7 183 111.7C121.1 111.7 69.22 217.8 69.22 321.7C69.22 370.2 87.7 397.4 118.8 397.4C149 397.4 167.8 378.4 222 293.6C222 293.6 246.7 254.5 287.4 192.2V192.2zM531.2 397.4C563.4 397.4 578.1 369.9 578.1 322.5C578.1 198.3 523.8 97.08 454.9 97.08C421.7 97.08 393.8 123 360 175.1C369.4 188.9 379.1 204.1 389.3 220.5L426.8 282.9C485.5 377 500.3 397.4 531.2 397.4L531.2 397.4z"></path></svg>