<?xml version="1.0" encoding="UTF-8"?>
<svg id="Layer_15" xmlns="http://www.w3.org/2000/svg" viewBox="0 0 1024 1024">
  <rect x="523.51" y="294.31" width="47.63" height="76.95" style="fill: #ffab99;"/>
  <path d="M571.15,294.31v15.33c-5.12,3.64-11.89,6.23-21.19,7.52-3.49.49-7.04.45-10.52-.18-6.67-1.2-11.82-3.06-15.93-5.6v-17.07h47.63Z" style="fill: #ef8c7b;"/>
  <path d="M549.97,309.47c-3.49.49-7.05.45-10.52-.17-22.3-4.01-27.75-15.48-32.88-33.55-.95-3.34-1.49-6.78-1.65-10.23l-2.21-48.67h89.25l-3.17,46.06c-.41,5.97-1.51,11.89-3.43,17.6-5.1,15.21-12.9,25.8-35.39,28.95Z" style="fill: #ffab99;"/>
  <path d="M403.83,229.46c1.99-3.45,4.95-2.55,9.85-5.61,6.77-4.24,10.26-11.91,11.33-13.6,2.86-4.53,2.85-5.65,5.58-8.93,2.49-2.99,4.28-4.19,3.9-5.47-.5-1.7-4.66-2.92-8.13-1.77-5.19,1.73-5.1,7.73-11.39,9.83-1.14.38-3.5,1.17-4.25.2-.64-.83.23-2.51.48-2.96l14.12-37.28c.25-.66.37-1.37.33-2.08-.08-1.12-.35-2.67-1.29-3.01-.85-.31-1.93.49-2.86,1.35-5.21,4.85-7.25,13.22-12.85,21.33-.71,1.03-2.54,3.65-3.13,3.36-.35-.17-.22-1.32.38-3.46,2.26-7.02,4.51-14.04,6.77-21.06.27-.84.32-1.72.15-2.58-.25-1.26-.8-2.9-2-3.27-1.78-.56-3.94,1.99-4.98,3.21-4.84,5.72-4.53,11.49-9.2,21.38-.86,1.81-2.06,4.14-2.89,3.96-.59-.13-.79-1.49-.87-2.56,1.32-7.58,2.64-15.17,3.97-22.75.21-1.2.02-2.45-.63-3.47-.55-.87-1.35-1.72-2.41-1.85-1.53-.18-2.84,1.22-3.42,1.85-5.13,5.64-1.6,15.32-6.1,25.45-.37.82-1.75,3.95-2.54,3.76-.52-.12-.59-1.67-.57-3.01.65-6.47,1.3-12.94,1.95-19.42.18-1.77-.52-3.57-1.98-4.55-.57-.38-1.2-.62-1.87-.54-.29.04-1.31.23-2.37,1.91-3.44,5.43-1.64,17.42-3.82,27.87-1.31,6.28-2.56,4.82-3.91,10.94-2.33,10.59-.53,23.74,4.97,29.19.72.71,1.43,2.79,1.43,5.32,0,2.39-.88,3-.43,3.67,1.58,2.35,12.11-5.56,20.25-1.75,2.59,1.21,4.16,3.25,5.8,2.57,1.72-.71,1.05-3.41,2.64-6.16Z" style="fill: #ffab99;"/>
  <path d="M940.83,295.48c-.73-3.92-3.82-4.06-7.41-8.58-4.97-6.26-5.69-14.66-6.13-16.6-1.19-5.23-.8-6.27-2.28-10.29-1.35-3.65-2.63-5.38-1.85-6.46,1.04-1.44,5.37-1.19,8.25,1.05,4.32,3.36,2.22,8.99,7.45,13.07.94.74,2.91,2.27,3.94,1.6.88-.57.62-2.44.54-2.95l-.85-39.86c-.02-.71.1-1.42.38-2.07.45-1.03,1.22-2.4,2.22-2.41.91,0,1.66,1.1,2.25,2.23,3.29,6.31,2.41,14.88,4.99,24.4.33,1.21,1.17,4.29,1.83,4.21.39-.04.65-1.17.8-3.39.22-7.37.44-14.74.66-22.11.03-.88.27-1.73.72-2.48.66-1.1,1.72-2.46,2.98-2.42,1.87.07,3.05,3.19,3.62,4.69,2.66,7.01.44,12.34,1.53,23.23.2,2,.56,4.59,1.4,4.7.6.08,1.25-1.14,1.68-2.12,1.29-7.59,2.58-15.18,3.86-22.77.2-1.2.8-2.31,1.75-3.06.81-.64,1.84-1.17,2.89-.94,1.5.34,2.27,2.1,2.6,2.89,2.95,7.03-3.61,14.97-2.76,26.03.07.9.33,4.31,1.13,4.39.53.06,1.12-1.38,1.54-2.65,1.55-6.32,3.1-12.63,4.65-18.95.42-1.73,1.68-3.19,3.39-3.63.66-.17,1.34-.19,1.95.12.26.13,1.15.65,1.59,2.59,1.43,6.27-4.27,16.97-5.71,27.54-.86,6.35.8,5.4.03,11.62-1.34,10.76-7.43,22.55-14.43,25.85-.91.43-2.28,2.15-3.12,4.53-.8,2.25-.17,3.12-.82,3.6-2.27,1.69-9.56-9.28-18.5-8.41-2.85.28-5.01,1.67-6.32.49-1.38-1.25.15-3.56-.43-6.69Z" style="fill: #ffab99;"/>
  <path d="M508.55,220.28c2.52.12,4.36-1.92,5.16-2.58,6.01-4.96,24.5,13.76,41.06,16.56,21.84,3.69,47.38-6.51,52.7-23.44,3.01-9.59-1.94-21.15-9.03-27.53-14.1-12.67-42.77-10.28-67.95,10.32,2.82-9.72,1.6-12.99,0-14.19-4.98-3.75-22.28,5.94-27.53,20.21-.65,1.76-3.93,11.25.43,17.2.51.69,2.42,3.31,5.16,3.44Z" style="fill: #131c38;"/>
  <path d="M502.43,211.88c-2.4,3.12-8.21,11.52-8.87,23.71-.54,10.01,2.7,16.66,7.45,26.39,1.07,2.19,2.47,4.72,3.87,4.54,1.54-.2,2.27-3.68,2.59-5.24,1.91-9.45,1.1-31.27.54-42.59-1.86-2.27-3.72-4.54-5.58-6.81Z" style="fill: #131c38;"/>
  <path d="M594.05,223.29c1.91,2.5,6.51,9.23,6.61,18.61.08,7.7-2.92,12.65-7.3,19.89-.99,1.63-2.27,3.5-3.45,3.29-1.29-.23-1.78-2.93-1.99-4.14-1.26-7.34.26-24.04,1.16-32.69,1.66-1.65,3.32-3.31,4.98-4.96Z" style="fill: #131c38;"/>
  <path d="M560.97,277.98c1.19,0,2.07,1.09,1.84,2.26-1.35,6.62-8.53,11.67-17.18,11.67s-15.83-5.06-17.18-11.67c-.24-1.16.65-2.26,1.84-2.26h30.68Z" style="fill: #fff7f1;"/>
  <path d="M677.81,384.57c9.42,14.77,18.84,29.55,28.26,44.32l129.55,10.99v37.69l-156.21-7.89c-4.49-.23-8.63-2.47-11.28-6.1l-52.7-72.38c20.79-2.21,41.58-4.42,62.38-6.63Z" style="fill: #ffab99;"/>
  <path d="M549.03,256.9v9.01c0,1.24-1,2.24-2.24,2.24h-1.16" style="fill: none; stroke: #000; stroke-linecap: round; stroke-miterlimit: 10;"/>
  <path d="M706.11,318.69c-3.01.73-5.53,2.55-8.23,4.08-32.16,18.23-88.36,52.05-115.94,74.45,11.05,19.68,22.89,38.45,33.49,56.51,10.29-7.5,58.39-28.71,68.69-36.21" style="fill: #ea550f;"/>
  <rect x="763.23" y="262.82" width="43.96" height="56.01" style="fill: #ffab99;"/>
  <path d="M684.37,634.2c.79,53.61,1.57,107.21,2.36,160.82,4.45,29.84,8.9,59.67,13.35,89.51h73.8c-5.23-27.94-10.47-55.89-15.7-83.83,6.54-59.28,11.17-72.37,17.71-131.65,2.97,58.49,9,72.56,14.48,134.49,2.42,27.4,5.05,54.4,7.85,80.99h75.37c-4.97-96.69-9.95-193.37-14.92-290.06-74.32-45.27-141.64-44.11-164.88-6.62-4.74,7.64-10.62,21.59-9.42,46.35Z" style="fill: #a6c626;"/>
  <path d="M807.19,270.51v25.17c-8.32,5.47-16.82,8.53-21.39,8.53-5.34,0-14.15-3.26-22.57-8.98v-24.72h43.96Z" style="fill: #f9a198;"/>
  <rect x="936.7" y="298.36" width="43.44" height="20.48" style="fill: #f5ffff;"/>
  <path d="M693.73,560.36c-4.89,6.75-10.73,18.54-10.21,38.47,20.76,9.38,55.99,22.12,101.28,23.55,38.21,1.21,69.29-6.09,89.51-12.56-4.71-17.27-9.42-34.55-14.13-51.82-74.49-34.66-142.4-30.86-166.45,2.36Z" style="fill: #fff;"/>
  <path d="M684.12,417.51c-1.05,46.58-1.97,87.59-3.02,134.18.16,3.09.87,7.48,3.66,11.52,5.93,8.55,17.39,9.88,21.98,10.47,29.15,3.73,108.84,19.33,134,12.04,5.98-1.73,11.52-4.71,11.52-4.71,3.3-1.78,8.78-4.72,12.56-9.42,5.11-6.35,5.58-13.97,5.76-18.32.59-14.41.73-58.96-.52-119.34,26.17,15.88,52.34,31.75,78.51,47.63,1.2.87,10.02,7.07,21.46,4.19,11.95-3.01,16.72-13.41,17.27-14.66.17-48.85.35-97.71.52-146.56-.29-1.57-1.01-4.34-3.01-7.2-2.13-3.04-4.67-4.7-6.08-5.5-14.33.13-28.66.26-42.99.39-.95.49-2.98,1.69-4.51,4.12-1.77,2.81-1.75,5.73-1.77,6.67-.07,5.34-2.09,25.08-5.1,53-21.59-18.06-43.18-36.12-64.77-54.17-46.79-18.24-75.74-17.07-87.94-15.64-7.01.82-25.18,3.7-45.01,7.85-8.03,1.68-15,3.29-20.53,4.63" style="fill: #ea550f;"/>
  <path d="M785.8,288.84h0c-12.69,0-45.15-18.5-45.15-44.56v-49.27c0-8.93,7.24-16.16,16.16-16.16h57.84c8.35,0,15.11,6.77,15.11,15.11v51.56c0,26.05-33.11,43.31-43.97,43.31Z" style="fill: #feb2a6;"/>
  <path d="M782.4,305.13c-12.3,0-24.6,1.6-37.42,5.5.24,3.06,1.57,15.61,11.78,23.82,7.89,6.34,16.54,6.44,25.12,6.54,7.18.08,28.3.33,40.57-15.18,4.75-6.01,6.56-9.91,7.33-13.79-16.23-5.54-30.1-6.53-47.37-6.88Z" style="fill: #ffab99;"/>
  <path d="M751.31,178.93c-5.67-2.12-13.31,7.4-13.87,8.11-11.19,14.23-4.41,34.43-3.14,37.95.48,1.32,3.72,10.29,6.54,9.95,1.19-.15,2.41-1.83,2.36-3.14-.55-13.32-.55-21.76,2.36-31.93,2.16-7.56,10.3-7.62,10.21-13.61-.05-3-1.81-6.34-4.45-7.33Z" style="fill: #33324f;"/>
  <path d="M818.59,178.93c5.67-2.12,13.31,7.4,13.87,8.11,11.19,14.23,4.41,34.43,3.14,37.95-.48,1.32-3.72,10.29-6.54,9.95-1.19-.15-2.41-1.83-2.36-3.14.55-13.32.55-21.76-2.36-31.93-2.16-7.56-10.3-7.62-10.21-13.61.05-3,1.81-6.34,4.45-7.33Z" style="fill: #33324f;"/>
  <path d="M739.36,188.12c-3.01-11.82,14.65-28.89,31.38-35.48,30.9-12.18,60.71,10.59,64.02,13.2-6.88,2.19-8.83,3.6-8.41,4.27.33.53,5.7-.46,12.89,6.02,2.01,1.81,7.59,9.07,7.59,9.07-.1.81-7.38-1.63-13.34-3.55.47,4.73,3.72,4.96,5.2,5.95,2.35.87,3.66,1.62,7.78,3.3,3.59,1.47,6.56,9.84,6.56,9.84,0,0-9.28-2.08-16.89-2.48-15.87-.84-24.28,4.28-35.17,6.77-24.46,5.61-58.02-2.79-61.62-16.91Z" style="fill: #33324f;"/>
  <line x1="755.91" y1="220.42" x2="772.99" y2="220.42" style="fill: none; stroke: #33324f; stroke-linecap: round; stroke-miterlimit: 10; stroke-width: 4px;"/>
  <line x1="797.43" y1="220.42" x2="814.51" y2="220.42" style="fill: none; stroke: #33324f; stroke-linecap: round; stroke-miterlimit: 10; stroke-width: 4px;"/>
  <circle cx="765.38" cy="234.21" r="4.96" style="fill: #050505;"/>
  <path d="M809.4,234.21c0,2.74-2.22,4.96-4.96,4.96s-4.96-2.22-4.96-4.96,2.22-4.96,4.96-4.96,4.96,2.22,4.96,4.96Z" style="fill: #050505;"/>
  <path d="M786.34,239.66c-2.85,1.61-4.25,3.58-4.91,4.71-.76,1.31-1.73,2.99-.98,4.12.61.93,2.2,1.22,3.93.79" style="fill: none; stroke: #191919; stroke-linecap: round; stroke-miterlimit: 10; stroke-width: 2px;"/>
  <path d="M774.21,262.15c1.34.67,8.56,4.15,16.88,1.18,5.83-2.08,9.05-6.2,10.21-7.85" style="fill: none; stroke: #191919; stroke-linecap: round; stroke-miterlimit: 10; stroke-width: 2px;"/>
  <path d="M523.31,253.32c1-.71,3.16-2.03,6.06-1.96,2.84.06,4.93,1.42,5.91,2.16" style="fill: none; stroke: #000; stroke-linecap: round; stroke-miterlimit: 10; stroke-width: 2px;"/>
  <path d="M560.04,253.32c1-.71,3.16-2.03,6.06-1.96,2.84.06,4.93,1.42,5.91,2.16" style="fill: none; stroke: #000; stroke-linecap: round; stroke-miterlimit: 10; stroke-width: 2px;"/>
  <ellipse cx="501.08" cy="264.84" rx="8.51" ry="16.19" transform="translate(-53.93 150.02) rotate(-16.17)" style="fill: #ffab99;"/>
  <ellipse cx="591.95" cy="263.33" rx="16.19" ry="8.51" transform="translate(174.19 758.53) rotate(-73.83)" style="fill: #ffab99;"/>
  <ellipse cx="734.52" cy="235.47" rx="8.51" ry="16.19" transform="translate(-36.52 213.87) rotate(-16.17)" style="fill: #feb2a6;"/>
  <ellipse cx="836.15" cy="233.96" rx="16.19" ry="8.51" transform="translate(378.58 971.88) rotate(-73.83)" style="fill: #feb2a6;"/>
  <path d="M505.65,265.1c-1.02-2.86-2.04-5.73-3.06-8.59-.61-1.72-2.26-2.94-4.08-2.8-.02,0-.04,0-.06,0-1.88.17-3.53,1.5-4.25,3.41" style="fill: none; stroke: #f28472; stroke-linecap: round; stroke-miterlimit: 10;"/>
  <path d="M588.34,265.36c1.02-2.86,2.04-5.73,3.06-8.59.61-1.72,2.26-2.94,4.08-2.8.02,0,.04,0,.06,0,1.88.17,3.53,1.5,4.25,3.41" style="fill: none; stroke: #f28472; stroke-linecap: round; stroke-miterlimit: 10;"/>
  <path d="M831.79,236.49c1.02-2.86,2.04-5.73,3.06-8.59.61-1.72,2.26-2.94,4.08-2.8.02,0,.04,0,.06,0,1.88.17,3.53,1.5,4.25,3.41" style="fill: none; stroke: #33324f; stroke-linecap: round; stroke-miterlimit: 10; stroke-width: 1.5px;"/>
  <path d="M740.22,238.03c-1.02-2.86-2.04-5.73-3.06-8.59-.61-1.72-2.26-2.94-4.08-2.8-.02,0-.04,0-.06,0-1.88.17-3.53,1.5-4.25,3.41" style="fill: none; stroke: #33324f; stroke-linecap: round; stroke-miterlimit: 10; stroke-width: 1.5px;"/>
  <line x1="518.46" y1="240.75" x2="538.35" y2="240.75" style="fill: none; stroke: #111; stroke-linecap: round; stroke-miterlimit: 10; stroke-width: 4px;"/>
  <line x1="556.9" y1="240.75" x2="576.79" y2="240.75" style="fill: none; stroke: #111; stroke-linecap: round; stroke-miterlimit: 10; stroke-width: 4px;"/>
  <path d="M421.58,340.48c-9.95-1.05-24.81-2.88-34.75-3.93,5.23-33.5,12.25-75.91,17.48-109.41-9.6,1.74-19.19,3.49-28.79,5.23-15.18,43.27-30.36,86.54-45.54,129.81-1.13,3.73-3.65,13.8,1.57,21.98,4.58,7.18,12.9,9.44,21.98,10.99,12.67,2.17,29.37,3.41,68.35,4.59-1.05-21.29.74-37.99-.3-59.28Z" style="fill: #ffab99;"/>
  <path d="M401.86,334.12c38.81-.26,77.62-.52,116.43-.79,8.87,12.56,17.75,25.12,26.62,37.69,9.93-11.91,19.87-23.82,29.8-35.72,18.15.13,36.29.26,54.44.39,3.37.46,7.15.26,10.33,1.96,28.46,15.26,53.14,48.06,61.88,65.85-16.16,13.94-42.41,31.63-59.36,44.65-6.36-11.09-8.48-15.8-13.09-23.1.4,52.6.64,85.32,1.04,137.92-55.9-.39-111.8-.79-167.69-1.18-.93-43.31-.67-99.22-1.6-142.53-20.27-3.79-41.29-6.43-61.56-10.23,1.06-28.79,1.7-46.14,2.76-74.93Z" style="fill: #a6c626;"/>
  <path d="M523.48,331.12c6.02,8.37,12.04,16.75,18.06,25.12-6.15,6.15-12.3,12.3-18.45,18.45-7.72-14-15.44-28-23.16-42l23.55-1.57Z" style="fill: #f8ffff;"/>
  <path d="M570.98,331.12c-6.02,8.37-12.04,16.75-18.06,25.12,6.15,6.15,12.3,12.3,18.45,18.45,7.72-14,15.44-28,23.16-42l-23.55-1.57Z" style="fill: #f8ffff;"/>
  <polygon points="462.17 561.81 630.58 561.81 642.36 884.53 552.27 884.53 541.08 650.14 535.9 650.14 506.92 884.53 416.24 884.53 462.17 561.81" style="fill: #ea550f;"/>
  <path d="M207.41,278.92c-6.02,9.04-.49,13.09-6.28,26.69-12.49,29.35-45.19,26.89-54.96,50.64-8.02,19.48,5.47,41.86,8.64,47.11,22.26,36.93,74.9,42.43,107.56,37.69,6.16-.89,64.61-10.03,74.2-43.58,4.57-15.98-6.34-22.2-13.35-65.95-5.23-32.67-.35-36.65-7.07-46.72-20.34-30.48-90.93-32.66-108.74-5.89Z" style="fill: #1d1638;"/>
  <ellipse cx="261.23" cy="284.61" rx="61.13" ry="59.93" style="fill: #1d1638;"/>
  <rect x="241.95" y="324" width="38.56" height="61.24" style="fill: #ed8166;"/>
  <path d="M280.51,330.15v23.99c-5.49,2.84-11.72,4.44-18.31,4.44-7.38,0-14.31-2-20.25-5.49v-22.94h38.56Z" style="fill: #e2735d;"/>
  <path d="M259.73,350.22h0c-25.97-3.24-30.24-24.85-35.69-45.99l-1.88-43.93h80.08l-1.6,44.96c-5.15,20.09-12.44,42.51-40.91,44.96Z" style="fill: #ed8166;"/>
  <circle cx="245.56" cy="297.93" r="4.91"/>
  <line x1="235.86" y1="285.33" x2="253.14" y2="285.33" style="fill: none; stroke: #000; stroke-linecap: round; stroke-miterlimit: 10; stroke-width: 3px;"/>
  <ellipse cx="238.26" cy="263.37" rx="39.91" ry="15.72" transform="translate(-113.88 217.28) rotate(-40.41)" style="fill: #1d1638;"/>
  <line x1="273.09" y1="285.33" x2="291.18" y2="285.33" style="fill: none; stroke: #000; stroke-linecap: round; stroke-miterlimit: 10; stroke-width: 3px;"/>
  <ellipse cx="282.95" cy="260.29" rx="15.72" ry="39.91" transform="translate(-98.66 307.01) rotate(-49.59)" style="fill: #1d1638;"/>
  <path d="M230.59,296.08l4.04-17.7c.43-1.9-1.35-3.55-3.21-2.98l-17.35,5.35c-1.86.57-2.4,2.94-.97,4.27l13.31,12.35c1.43,1.32,3.75.61,4.18-1.29Z" style="fill: #1d1638;"/>
  <path d="M295.61,296.08l-4.04-17.7c-.43-1.9,1.35-3.55,3.21-2.98l17.35,5.35c1.86.57,2.4,2.94.97,4.27l-13.31,12.35c-1.43,1.32-3.75.61-4.18-1.29Z" style="fill: #1d1638;"/>
  <ellipse cx="218.76" cy="297.78" rx="8.24" ry="14.39" transform="translate(-52.9 47.32) rotate(-11.02)" style="fill: #ed8166;"/>
  <ellipse cx="306.4" cy="297.78" rx="14.39" ry="8.24" transform="translate(-44.46 541.59) rotate(-78.98)" style="fill: #ed8166;"/>
  <path d="M213.49,292.11c1.39-1.88,2.66-2.11,3.14-2.16,2.72-.25,6.08,3.3,7.26,9.23" style="fill: none; stroke: #872b16; stroke-linecap: round; stroke-miterlimit: 10;"/>
  <path d="M311.53,292.11c-1.39-1.88-2.66-2.11-3.14-2.16-2.72-.25-6.08,3.3-7.26,9.23" style="fill: none; stroke: #872b16; stroke-linecap: round; stroke-miterlimit: 10;"/>
  <circle cx="279.39" cy="297.93" r="4.91" transform="translate(-59.44 525.99) rotate(-80.78)"/>
  <path d="M129.17,516.75c3.38.5,10,1.48,15.48-2.12,2.28-1.5,3.81-3.23,4.46-4.53,10.71-21.69,21.43-43.38,32.14-65.07-13.58-6.42-27.16-12.84-40.74-19.27-2.21,5.4-4.18,9.32-7.32,16.65-7.46,19.63-14.92,39.26-22.38,58.89.55,2.09,2.46,8.24,8.37,12.17,3.49,2.32,6.79,2.81,9.98,3.28Z" style="fill: #ed8166;"/>
  <path d="M131.61,441.1c-1.5-2.47-2.81-5.05-3.93-7.73l-28.13-67.25c.12-.09.24-.17.36-.27,2.6-2.07,3.6-4.7,5.11-8.69,2.35-6.2,2.65-11.87,2.85-15.57.26-4.79-.23-5.65.46-9.42.63-3.42,1.48-5.14.65-5.98-1.1-1.11-4.78-.24-6.93,2.17-3.22,3.62-.6,8.26-4.5,12.65-.7.79-2.17,2.44-3.15,2.01-.84-.37-.89-2.06-.89-2.52l-5.06-35.28c-.09-.63-.3-1.23-.63-1.76-.53-.84-1.4-1.93-2.26-1.79-.78.13-1.26,1.22-1.6,2.31-1.9,6.06.09,13.49-.73,22.27-.11,1.12-.38,3.96-.96,3.99-.34.02-.73-.94-1.18-2.87-1.26-6.47-2.52-12.93-3.78-19.4-.15-.77-.49-1.48-.98-2.08-.72-.88-1.84-1.91-2.91-1.68-1.59.34-2.16,3.27-2.43,4.68-1.26,6.58,1.42,10.95,2.06,20.72.12,1.79.19,4.13-.52,4.36-.5.16-1.24-.82-1.75-1.62-2.21-6.5-4.42-13-6.63-19.5-.35-1.03-1.02-1.92-1.95-2.43-.78-.44-1.75-.76-2.62-.39-1.24.53-1.64,2.19-1.81,2.94-1.51,6.65,5.28,12.66,6.15,22.54.07.8.34,3.85-.33,4.05-.45.13-1.16-1.05-1.71-2.1-2.25-5.34-4.5-10.68-6.75-16.01-.61-1.46-1.91-2.56-3.44-2.69-.59-.05-1.18.04-1.65.4-.2.16-.9.75-.99,2.52-.31,5.74,6.13,14.32,8.9,23.43,1.66,5.47.1,4.88,1.67,10.25,2.72,9.29,9.66,18.77,16.15,20.63,1.67.48,2.99,1.77,3.34,3.53,4.8,24.43,17.58,87.72,26.47,114.78,2.18,6.63,6.26,17.02,13.29,18.08,8.38,1.26,17.38-11.39,21.01-20.64,8.03-20.44-3.12-42.14-8.29-50.62Z" style="fill: #ed8166;"/>
  <path d="M260.37,302.22c-.31,2.79-.61,5.58-.92,8.37.01.29.09,1.53,1.05,2.36,1.12.96,2.98.96,4.45-.13" style="fill: none; stroke: #000; stroke-linecap: round; stroke-miterlimit: 10;"/>
  <path d="M251.99,323.54c1.53,1.3,4.23,3.19,7.82,3.73,5.85.87,10.28-2.41,11.87-3.73" style="fill: none; stroke: #000; stroke-linecap: round; stroke-miterlimit: 10; stroke-width: 2px;"/>
  <path d="M204.28,545.27c-9.3,19.09-18.15,39.68-26.17,61.76-38.46,105.91-42.53,204.58-37.16,278.95h70.14c3.97-30.67,8.81-62.45,14.66-95.23,8.9-49.84,19.22-96.84,30.36-140.8,1.06-2.03,2.59-4.33,4.19-4.19,2.41.21,3.72,5.84,4.19,7.85,2.91,12.5,2.2,152.14,1.57,232.36h64.38c2.78-43.93,6.32-79.32,8.9-102.55,9.84-88.75,18.9-119.82,7.33-165.4-8.38-33.02-23.5-57.56-34.02-72.23-36.12-.17-72.23-.35-108.35-.52Z" style="fill: #070707;"/>
  <path d="M340.6,450.79c2.96,15.21,7.26,37.4,10.21,52.6,3.67,18.95,3.07,9.02,6.72,27.97,5.78,29.99,15.8,88.85,21.54,118.85-5.27,7.29-7.33,13.94-8.24,18.06-1.56,7.06-3.17,22.18,3.53,25.91,2.03,1.13,5.02,1.33,6.28,0,1.96-2.07-1.83-6.2-.79-12.56.48-2.94,2.2-7.6,5.1-8.24,4.13-.92,14.78,5.84,15.05,13.09.37,9.98-1.83,12.04-8.64,23.82-.47.82-6.4,6.45-3.27,8.64,3.41,2.39,8.12.82,9.42.39,11.89-3.95,15.64-24.42,16.1-27.09,3.72-21.65-7.78-39.95-12.56-46.72-1.9-35.35-2.89-84.94-4.95-108.56-1.29-14.77-4.43-15.8-7.61-42.97-2.61-22.28-5.24-41.44-7.46-56.53-13.48,4.45-26.96,8.9-40.43,13.35Z" style="fill: #ed8166;"/>
  <path d="M262.23,367.69c-26.26-.49-50.01,3.9-61.63,6.06-10.74,1.99-20,4.21-27.41,6.2-3.85,1.03-7.33,2.88-10.11,5.38-5.3,4.76-11.45,11.38-16.66,20.05-5.44,9.05-8.07,17.39-9.42,23.55l41.22,25.91,11.38-19.85c4.06,25.12,10.4,67.58,14.46,92.7,36.64.11,73.28.22,109.92.34,7.46-23.66,12.63-64.66,20.09-88.33,1.31,5.5,2.62,10.99,3.93,16.49l48.68-14.47c-.29-3.76-1.06-9.06-3.14-15.14,0,0-4.5-13.12-15.31-24.9-18.66-20.32-64.64-33.2-105.99-33.98Z" style="fill: #ea550f;"/>
  <path d="M258.22,367.14c-20.91.25-39.14,3.05-50.34,6.08,4.14,4.48,19.44,19.66,44.34,22.5,33.25,3.8,56.05-17.74,59.05-20.72-14.29-4.63-28.06-8.16-53.06-7.86Z" style="fill: #ed8166;"/>
  <rect x="204.07" y="528.23" width="109.67" height="17.43" style="fill: #a6c626;"/>
  <line x1="41.1" y1="885.98" x2="974.03" y2="885.53" style="fill: none; stroke: #000; stroke-linecap: round; stroke-miterlimit: 10; stroke-width: 5px;"/>
</svg>