<?xml version="1.0" encoding="UTF-8"?>
<svg id="Layer_54" xmlns="http://www.w3.org/2000/svg" viewBox="0 0 1024 1024">
  <path d="M347,111.39h174c6.62,0,12,5.38,12,12v77.07h-198v-77.07c0-6.62,5.38-12,12-12Z" style="fill: #ea550f;"/>
  <rect x="335" y="200.46" width="198" height="89.07" style="fill: #a6c626;"/>
  <rect x="335" y="378.46" width="198" height="89.07" style="fill: #a6c626;"/>
  <rect x="335" y="289.54" width="198" height="89.07" style="fill: #ea550f;"/>
  <rect x="335" y="556.46" width="198" height="89.07" style="fill: #a6c626;"/>
  <rect x="335" y="467.54" width="198" height="89.07" style="fill: #ea550f;"/>
  <rect x="335" y="734.46" width="198" height="89.07" style="fill: #a6c626;"/>
  <rect x="335" y="645.54" width="198" height="89.07" style="fill: #ea550f;"/>
  <path d="M335,823.54h198v75.07c0,7.73-6.27,14-14,14h-169.4c-8.06,0-14.6-6.54-14.6-14.6v-74.47h0Z" style="fill: #ea550f;"/>
  <path d="M756,200.46h-198l-1-77.07c0-6.6,6.4-12,13-12h173c6.6,0,12,5.4,12,12l1,77.07Z" style="fill: #ea550f;"/>
  <rect x="558" y="200.46" width="198" height="89.07" style="fill: #a6c626;"/>
  <rect x="558" y="378.46" width="198" height="89.07" style="fill: #a6c626;"/>
  <rect x="558" y="289.54" width="198" height="89.07" style="fill: #ea550f;"/>
  <rect x="558" y="556.46" width="198" height="89.07" style="fill: #a6c626;"/>
  <rect x="558" y="467.54" width="198" height="89.07" style="fill: #ea550f;"/>
  <rect x="558" y="734.46" width="198" height="89.07" style="fill: #a6c626;"/>
  <rect x="558" y="645.54" width="198" height="89.07" style="fill: #ea550f;"/>
  <path d="M741,912.61h-168.4c-8.06,0-15.6-6.54-15.6-14.6l1-74.47h198l-1,75.07c0,7.73-6.27,14-14,14Z" style="fill: #ea550f;"/>
  <path d="M790,111.39h174c6.62,0,12,5.38,12,12v77.07h-198v-77.07c0-6.62,5.38-12,12-12Z" style="fill: #ea550f;"/>
  <rect x="778" y="200.46" width="198" height="89.07" style="fill: #a6c626;"/>
  <rect x="778" y="378.46" width="198" height="89.07" style="fill: #a6c626;"/>
  <rect x="778" y="289.54" width="198" height="89.07" style="fill: #ea550f;"/>
  <rect x="778" y="556.46" width="198" height="89.07" style="fill: #a6c626;"/>
  <rect x="778" y="467.54" width="198" height="89.07" style="fill: #ea550f;"/>
  <rect x="778" y="734.46" width="198" height="89.07" style="fill: #a6c626;"/>
  <rect x="778" y="645.54" width="198" height="89.07" style="fill: #ea550f;"/>
  <path d="M778,823.54h198v75.07c0,7.73-6.27,14-14,14h-169.4c-8.06,0-14.6-6.54-14.6-14.6v-74.47h0Z" style="fill: #ea550f;"/>
  <path d="M61.07,111.39h235.06c8.13,0,14.72,6.6,14.72,14.72v771.77c0,8.13-6.6,14.72-14.72,14.72H64.18c-8.34,0-15.11-6.77-15.11-15.11V123.39c0-6.62,5.38-12,12-12Z" style="fill: #f4f4f4;"/>
  <rect x="365.66" y="127.15" width="138.89" height="56.17" rx="12" ry="12" style="fill: #f4f4f4;"/>
  <rect x="586.66" y="127.15" width="137.89" height="56.17" rx="12" ry="12" style="fill: #f4f4f4;"/>
  <rect x="49.07" y="200.46" width="261.78" height="89.07" style="fill: #e2e2e2;"/>
  <rect x="49.07" y="378.46" width="261.78" height="89.07" style="fill: #e2e2e2;"/>
  <rect x="49.07" y="556.46" width="261.78" height="89.07" style="fill: #e2e2e2;"/>
  <rect x="49.07" y="734.46" width="261.78" height="89.07" style="fill: #e2e2e2;"/>
  <rect x="806.66" y="127.15" width="138.89" height="56.17" rx="12" ry="12" style="fill: #f4f4f4;"/>
  <text transform="translate(388.32 162.74)" style="font-family: Arial-BoldMT, Arial; font-size: 21px; font-weight: 700;"><tspan x="0" y="0">Phase - 1</tspan></text>
  <text transform="translate(609.32 162.74)" style="font-family: Arial-BoldMT, Arial; font-size: 21px; font-weight: 700;"><tspan x="0" y="0">Phase - 2</tspan></text>
  <text transform="translate(837.32 162.74)" style="font-family: Arial-BoldMT, Arial; font-size: 21px; font-weight: 700;"><tspan x="0" y="0">Funded</tspan></text>
  <text transform="translate(84.79 166.12)" style="font-family: Arial-BoldMT, Arial; font-size: 26px; font-weight: 700;"><tspan x="0" y="0">Account Info:</tspan></text>
  <line x1="84.79" y1="245" x2="268.55" y2="245" style="fill: none; stroke: #c6c6c6; stroke-linecap: round; stroke-linejoin: round; stroke-width: 16px;"/>
  <line x1="84.79" y1="335" x2="268.55" y2="335" style="fill: none; stroke: #c6c6c6; stroke-linecap: round; stroke-linejoin: round; stroke-width: 16px;"/>
  <line x1="84.79" y1="424" x2="268.55" y2="424" style="fill: none; stroke: #c6c6c6; stroke-linecap: round; stroke-linejoin: round; stroke-width: 16px;"/>
  <line x1="84.79" y1="512" x2="268.55" y2="512" style="fill: none; stroke: #c6c6c6; stroke-linecap: round; stroke-linejoin: round; stroke-width: 16px;"/>
  <line x1="84.79" y1="596" x2="268.55" y2="596" style="fill: none; stroke: #c6c6c6; stroke-linecap: round; stroke-linejoin: round; stroke-width: 16px;"/>
  <line x1="84.79" y1="688" x2="268.55" y2="688" style="fill: none; stroke: #c6c6c6; stroke-linecap: round; stroke-linejoin: round; stroke-width: 16px;"/>
  <line x1="84.79" y1="777" x2="268.55" y2="777" style="fill: none; stroke: #c6c6c6; stroke-linecap: round; stroke-linejoin: round; stroke-width: 16px;"/>
  <line x1="84.79" y1="868" x2="268.55" y2="868" style="fill: none; stroke: #c6c6c6; stroke-linecap: round; stroke-linejoin: round; stroke-width: 16px;"/>
  <line x1="377.79" y1="245" x2="476.62" y2="245" style="fill: none; stroke: #fff; stroke-linecap: round; stroke-linejoin: round; stroke-width: 16px;"/>
  <line x1="377.79" y1="335" x2="476.62" y2="335" style="fill: none; stroke: #fff; stroke-linecap: round; stroke-linejoin: round; stroke-width: 16px;"/>
  <line x1="377.79" y1="424" x2="476.62" y2="424" style="fill: none; stroke: #fff; stroke-linecap: round; stroke-linejoin: round; stroke-width: 16px;"/>
  <line x1="377.79" y1="512" x2="476.62" y2="512" style="fill: none; stroke: #fff; stroke-linecap: round; stroke-linejoin: round; stroke-width: 16px;"/>
  <line x1="377.79" y1="596" x2="476.62" y2="596" style="fill: none; stroke: #fff; stroke-linecap: round; stroke-linejoin: round; stroke-width: 16px;"/>
  <line x1="377.79" y1="688" x2="476.62" y2="688" style="fill: none; stroke: #fff; stroke-linecap: round; stroke-linejoin: round; stroke-width: 16px;"/>
  <line x1="377.79" y1="777" x2="476.62" y2="777" style="fill: none; stroke: #fff; stroke-linecap: round; stroke-linejoin: round; stroke-width: 16px;"/>
  <line x1="377.79" y1="868" x2="476.62" y2="868" style="fill: none; stroke: #fff; stroke-linecap: round; stroke-linejoin: round; stroke-width: 16px;"/>
  <line x1="605.79" y1="245" x2="704.62" y2="245" style="fill: none; stroke: #fff; stroke-linecap: round; stroke-linejoin: round; stroke-width: 16px;"/>
  <line x1="605.79" y1="335" x2="704.62" y2="335" style="fill: none; stroke: #fff; stroke-linecap: round; stroke-linejoin: round; stroke-width: 16px;"/>
  <line x1="605.79" y1="424" x2="704.62" y2="424" style="fill: none; stroke: #fff; stroke-linecap: round; stroke-linejoin: round; stroke-width: 16px;"/>
  <line x1="605.79" y1="512" x2="704.62" y2="512" style="fill: none; stroke: #fff; stroke-linecap: round; stroke-linejoin: round; stroke-width: 16px;"/>
  <line x1="605.79" y1="596" x2="704.62" y2="596" style="fill: none; stroke: #fff; stroke-linecap: round; stroke-linejoin: round; stroke-width: 16px;"/>
  <line x1="605.79" y1="688" x2="704.62" y2="688" style="fill: none; stroke: #fff; stroke-linecap: round; stroke-linejoin: round; stroke-width: 16px;"/>
  <line x1="605.79" y1="777" x2="704.62" y2="777" style="fill: none; stroke: #fff; stroke-linecap: round; stroke-linejoin: round; stroke-width: 16px;"/>
  <line x1="605.79" y1="868" x2="704.62" y2="868" style="fill: none; stroke: #fff; stroke-linecap: round; stroke-linejoin: round; stroke-width: 16px;"/>
  <line x1="825.79" y1="245" x2="924.62" y2="245" style="fill: none; stroke: #fff; stroke-linecap: round; stroke-linejoin: round; stroke-width: 16px;"/>
  <line x1="825.79" y1="335" x2="924.62" y2="335" style="fill: none; stroke: #fff; stroke-linecap: round; stroke-linejoin: round; stroke-width: 16px;"/>
  <line x1="825.79" y1="424" x2="924.62" y2="424" style="fill: none; stroke: #fff; stroke-linecap: round; stroke-linejoin: round; stroke-width: 16px;"/>
  <line x1="825.79" y1="512" x2="924.62" y2="512" style="fill: none; stroke: #fff; stroke-linecap: round; stroke-linejoin: round; stroke-width: 16px;"/>
  <line x1="825.79" y1="596" x2="924.62" y2="596" style="fill: none; stroke: #fff; stroke-linecap: round; stroke-linejoin: round; stroke-width: 16px;"/>
  <line x1="825.79" y1="688" x2="924.62" y2="688" style="fill: none; stroke: #fff; stroke-linecap: round; stroke-linejoin: round; stroke-width: 16px;"/>
  <line x1="825.79" y1="777" x2="924.62" y2="777" style="fill: none; stroke: #fff; stroke-linecap: round; stroke-linejoin: round; stroke-width: 16px;"/>
  <line x1="825.79" y1="868" x2="924.62" y2="868" style="fill: none; stroke: #fff; stroke-linecap: round; stroke-linejoin: round; stroke-width: 16px;"/>
</svg>