<?xml version="1.0" encoding="UTF-8"?>
<svg id="Layer_55" xmlns="http://www.w3.org/2000/svg" viewBox="0 0 1024 1024">
  <rect x="27.91" y="116.39" width="968.17" height="790.6" rx="45.43" ry="45.43" style="fill: #efefef;"/>
  <path d="M73.34,107.94h877.32c25.07,0,45.43,20.35,45.43,45.43v27.01H27.91v-27.01c0-25.07,20.35-45.43,45.43-45.43Z" style="fill: #192f35;"/>
  <rect x="115.34" y="253.19" width="202.21" height="595.45" rx="26.04" ry="26.04" style="fill: #ea550f;"/>
  <rect x="156.83" y="228.53" width="121.53" height="61.28" rx="12.77" ry="12.77" style="fill: #fff;"/>
  <rect x="705.34" y="253.19" width="202.21" height="595.45" rx="26.04" ry="26.04" style="fill: #ea550f;"/>
  <rect x="411.76" y="256.05" width="202.21" height="595.45" rx="26.04" ry="26.04" style="fill: #a6c626;"/>
  <circle cx="921.7" cy="146" r="16.79" style="fill: #fff;"/>
  <rect x="450.83" y="228.53" width="121.53" height="61.28" rx="12.77" ry="12.77" style="fill: #fff;"/>
  <rect x="744.83" y="228.53" width="121.53" height="61.28" rx="12.77" ry="12.77" style="fill: #fff;"/>
  <rect x="768.83" y="772.32" width="85.53" height="36.49" rx="7.85" ry="7.85" style="fill: #192f35;"/>
  <rect x="471.83" y="772.32" width="85.53" height="36.49" rx="7.85" ry="7.85" style="fill: #192f35;"/>
  <rect x="171.83" y="772.32" width="85.53" height="36.49" rx="7.85" ry="7.85" style="fill: #192f35;"/>
  <circle cx="859.65" cy="146.05" r="16.59" style="fill: #fff;"/>
  <line x1="156.83" y1="348.17" x2="274.27" y2="348.17" style="fill: none; stroke: #fff; stroke-linecap: round; stroke-miterlimit: 10; stroke-width: 6px;"/>
  <line x1="348.34" y1="523.93" x2="377.63" y2="545.29" style="fill: none; stroke: #212121; stroke-linecap: round; stroke-miterlimit: 10; stroke-width: 6px;"/>
  <line x1="348.34" y1="567.14" x2="377.63" y2="545.77" style="fill: none; stroke: #212121; stroke-linecap: round; stroke-miterlimit: 10; stroke-width: 6px;"/>
  <line x1="650.36" y1="523.93" x2="679.65" y2="545.29" style="fill: none; stroke: #212121; stroke-linecap: round; stroke-miterlimit: 10; stroke-width: 6px;"/>
  <line x1="650.36" y1="567.14" x2="679.65" y2="545.77" style="fill: none; stroke: #212121; stroke-linecap: round; stroke-miterlimit: 10; stroke-width: 6px;"/>
  <line x1="156.83" y1="398.17" x2="274.27" y2="398.17" style="fill: none; stroke: #fff; stroke-linecap: round; stroke-miterlimit: 10; stroke-width: 6px;"/>
  <line x1="156.83" y1="448.17" x2="274.27" y2="448.17" style="fill: none; stroke: #fff; stroke-linecap: round; stroke-miterlimit: 10; stroke-width: 6px;"/>
  <line x1="156.83" y1="498.17" x2="274.27" y2="498.17" style="fill: none; stroke: #fff; stroke-linecap: round; stroke-miterlimit: 10; stroke-width: 6px;"/>
  <line x1="156.83" y1="548.17" x2="274.27" y2="548.17" style="fill: none; stroke: #fff; stroke-linecap: round; stroke-miterlimit: 10; stroke-width: 6px;"/>
  <line x1="449.83" y1="348.17" x2="567.27" y2="348.17" style="fill: none; stroke: #fff; stroke-linecap: round; stroke-miterlimit: 10; stroke-width: 6px;"/>
  <line x1="449.83" y1="398.17" x2="567.27" y2="398.17" style="fill: none; stroke: #fff; stroke-linecap: round; stroke-miterlimit: 10; stroke-width: 6px;"/>
  <line x1="449.83" y1="448.17" x2="567.27" y2="448.17" style="fill: none; stroke: #fff; stroke-linecap: round; stroke-miterlimit: 10; stroke-width: 6px;"/>
  <line x1="449.83" y1="498.17" x2="567.27" y2="498.17" style="fill: none; stroke: #fff; stroke-linecap: round; stroke-miterlimit: 10; stroke-width: 6px;"/>
  <line x1="449.83" y1="548.17" x2="567.27" y2="548.17" style="fill: none; stroke: #fff; stroke-linecap: round; stroke-miterlimit: 10; stroke-width: 6px;"/>
  <line x1="749.83" y1="348.17" x2="867.27" y2="348.17" style="fill: none; stroke: #fff; stroke-linecap: round; stroke-miterlimit: 10; stroke-width: 6px;"/>
  <line x1="749.83" y1="398.17" x2="867.27" y2="398.17" style="fill: none; stroke: #fff; stroke-linecap: round; stroke-miterlimit: 10; stroke-width: 6px;"/>
  <line x1="749.83" y1="448.17" x2="867.27" y2="448.17" style="fill: none; stroke: #fff; stroke-linecap: round; stroke-miterlimit: 10; stroke-width: 6px;"/>
  <line x1="749.83" y1="498.17" x2="867.27" y2="498.17" style="fill: none; stroke: #fff; stroke-linecap: round; stroke-miterlimit: 10; stroke-width: 6px;"/>
  <line x1="749.83" y1="548.17" x2="867.27" y2="548.17" style="fill: none; stroke: #fff; stroke-linecap: round; stroke-miterlimit: 10; stroke-width: 6px;"/>
  <text transform="translate(180.89 265.66)" style="font-family: ArialMT, Arial; font-size: 17.66px;"><tspan x="0" y="0">Step One</tspan></text>
  <text transform="translate(472.89 265.66)" style="font-family: ArialMT, Arial; font-size: 17.66px;"><tspan x="0" y="0">Step</tspan><tspan x="36.34" y="0" style="letter-spacing: -.02em;"> </tspan><tspan x="40.92" y="0" style="letter-spacing: -.06em;">T</tspan><tspan x="50.74" y="0" style="letter-spacing: 0em;">wo</tspan></text>
  <text transform="translate(761.89 265.66)" style="font-family: ArialMT, Arial; font-size: 17.66px;"><tspan x="0" y="0">Step</tspan><tspan x="36.34" y="0" style="letter-spacing: -.02em;"> </tspan><tspan x="40.92" y="0" style="letter-spacing: 0em;">Three</tspan></text>
</svg>