<?xml version="1.0" encoding="UTF-8"?>
<svg id="Layer_61" xmlns="http://www.w3.org/2000/svg" viewBox="0 0 1024 1024">
  <rect x="97.28" y="395.62" width="549.47" height="524.22" rx="15.7" ry="15.7" style="fill: #ea550f;"/>
  <rect x="140.44" y="450.85" width="475.15" height="388.61" rx="10.98" ry="10.98" style="fill: #192f35;"/>
  <path d="M151.43,450.85h453.18c6.06,0,10.98,4.92,10.98,10.98v28.72H140.44v-28.72c0-6.06,4.92-10.98,10.98-10.98Z" style="fill: #cee545;"/>
  <path d="M8.76,593.52h366.65c6.06,0,10.98,4.92,10.98,10.98v92.3H-2.22v-92.3c0-6.06,4.92-10.98,10.98-10.98Z" transform="translate(-453.08 837.24) rotate(-90)" style="fill: #cee545;"/>
  <rect x="263.34" y="509.42" width="75.88" height="49.02" rx="8.43" ry="8.43" style="fill: #cee545;"/>
  <rect x="263.34" y="577.29" width="161.87" height="140.46" rx="8.43" ry="8.43" style="fill: #cee545;"/>
  <path d="M274.83,731.54h314.63c4.65,0,8.43,3.78,8.43,8.43v99.5h-331.48v-99.5c0-4.65,3.78-8.43,8.43-8.43Z" style="fill: #cee545;"/>
  <rect x="436.92" y="577.29" width="160.96" height="140.46" rx="8.43" ry="8.43" style="fill: #cee545;"/>
  <rect x="351.01" y="509.42" width="75.88" height="49.02" rx="8.43" ry="8.43" style="fill: #cee545;"/>
  <rect x="436.92" y="509.42" width="75.88" height="49.02" rx="8.43" ry="8.43" style="fill: #cee545;"/>
  <rect x="523.71" y="509.42" width="75.88" height="49.02" rx="8.43" ry="8.43" style="fill: #cee545;"/>
  <polyline points="278.91 692.74 296.28 659.54 329.98 682.01 357.55 624.31 382.57 642.69 406.06 601.33" style="fill: none; stroke: #192f35; stroke-linecap: round; stroke-linejoin: round; stroke-width: 3px;"/>
  <rect x="454.83" y="595.33" width="75.88" height="19.66" rx="3.96" ry="3.96" style="fill: #192f35;"/>
  <rect x="507.93" y="625.22" width="75.88" height="19.66" rx="3.96" ry="3.96" style="fill: #192f35;"/>
  <rect x="454.83" y="655.11" width="75.88" height="19.66" rx="3.96" ry="3.96" style="fill: #192f35;"/>
  <rect x="511.51" y="682.91" width="75.88" height="19.66" rx="3.96" ry="3.96" style="fill: #192f35;"/>
  <rect x="398.07" y="129.71" width="549.47" height="524.22" rx="15.7" ry="15.7" style="fill: #a6c626;"/>
  <rect x="98.35" y="101.53" width="231.06" height="220.44" rx="15.7" ry="15.7" style="fill: #a6c626;"/>
  <rect x="714.45" y="705.83" width="231.06" height="220.44" rx="15.7" ry="15.7" style="fill: #ea550f;"/>
  <rect x="126.99" y="162.44" width="173.57" height="110.72" rx="6.72" ry="6.72" transform="translate(-1 .98) rotate(-.26)" style="fill: #fff;"/>
  <path d="M129.23,168.22l81.28,59.7c1.83,1.49,4.66,1.6,6.64.26l80.5-61.03" style="fill: none; stroke: #232323; stroke-linecap: round; stroke-miterlimit: 10; stroke-width: 2px;"/>
  <line x1="188.25" y1="211.57" x2="130.48" y2="268.83" style="fill: none; stroke: #232323; stroke-linecap: round; stroke-miterlimit: 10; stroke-width: 2px;"/>
  <line x1="239.75" y1="211.33" x2="296.98" y2="268.06" style="fill: none; stroke: #232323; stroke-linecap: round; stroke-miterlimit: 10; stroke-width: 2px;"/>
  <rect x="741.98" y="758.85" width="178.81" height="112.34" rx="5.74" ry="5.74" style="fill: #a6c626;"/>
  <rect x="853.64" y="774.79" width="47.32" height="26.21" rx="2.3" ry="2.3" style="fill: #f7f739;"/>
  <rect x="755.17" y="784.58" width="34.98" height="8.43" rx=".81" ry=".81" style="fill: #cee545;"/>
  <rect x="795.17" y="784.58" width="34.98" height="8.43" rx=".81" ry=".81" style="fill: #cee545;"/>
  <rect x="755.17" y="824.45" width="74.98" height="8.43" rx=".81" ry=".81" style="fill: #cee545;"/>
  <text transform="translate(755.17 851.68)" style="fill: #fff; font-family: ArialMT, Arial; font-size: 14.8px;"><tspan x="0" y="0">0000</tspan></text>
  <text transform="translate(795.01 851.68)" style="fill: #fff; font-family: ArialMT, Arial; font-size: 14.8px;"><tspan x="0" y="0">0000</tspan></text>
  <text transform="translate(835.98 851.68)" style="fill: #fff; font-family: ArialMT, Arial; font-size: 14.8px;"><tspan x="0" y="0">0000</tspan></text>
  <text transform="translate(874.68 851.68)" style="fill: #fff; font-family: ArialMT, Arial; font-size: 14.8px;"><tspan x="0" y="0">0000</tspan></text>
  <rect x="438.76" y="197.79" width="475.15" height="388.61" rx="10.98" ry="10.98" style="fill: #cee545;"/>
  <path d="M449.75,197.79h453.18c6.06,0,10.98,4.92,10.98,10.98v28.72h-475.15v-28.72c0-6.06,4.92-10.98,10.98-10.98Z" style="fill: #ea550f;"/>
  <path d="M307.08,340.46h366.65c6.06,0,10.98,4.92,10.98,10.98v92.3h-388.61v-92.3c0-6.06,4.92-10.98,10.98-10.98Z" transform="translate(98.3 882.5) rotate(-90)" style="fill: #ea550f;"/>
  <rect x="561.66" y="256.36" width="75.88" height="49.02" rx="8.43" ry="8.43" style="fill: #ea550f;"/>
  <rect x="561.66" y="324.23" width="161.87" height="140.46" rx="8.43" ry="8.43" style="fill: #ea550f;"/>
  <path d="M573.15,478.48h314.63c4.65,0,8.43,3.78,8.43,8.43v99.5h-331.48v-99.5c0-4.65,3.78-8.43,8.43-8.43Z" style="fill: #ea550f;"/>
  <rect x="735.24" y="324.23" width="160.96" height="140.46" rx="8.43" ry="8.43" style="fill: #ea550f;"/>
  <rect x="649.33" y="256.36" width="75.88" height="49.02" rx="8.43" ry="8.43" style="fill: #ea550f;"/>
  <rect x="735.24" y="256.36" width="75.88" height="49.02" rx="8.43" ry="8.43" style="fill: #ea550f;"/>
  <rect x="822.03" y="256.36" width="75.88" height="49.02" rx="8.43" ry="8.43" style="fill: #ea550f;"/>
  <polyline points="577.23 439.67 594.6 406.48 628.3 428.95 655.87 371.25 680.89 389.63 704.38 348.27" style="fill: none; stroke: #c7e05f; stroke-linecap: round; stroke-linejoin: round; stroke-width: 3px;"/>
  <rect x="753.15" y="342.27" width="75.88" height="19.66" rx="3.96" ry="3.96" style="fill: #cee545;"/>
  <rect x="806.25" y="372.16" width="75.88" height="19.66" rx="3.96" ry="3.96" style="fill: #cee545;"/>
  <rect x="753.15" y="402.04" width="75.88" height="19.66" rx="3.96" ry="3.96" style="fill: #cee545;"/>
  <rect x="809.83" y="429.84" width="75.88" height="19.66" rx="3.96" ry="3.96" style="fill: #cee545;"/>
</svg>