<?xml version="1.0" encoding="UTF-8"?>
<svg id="Layer_54" xmlns="http://www.w3.org/2000/svg" xmlns:xlink="http://www.w3.org/1999/xlink" viewBox="0 0 1024 1024">
  <rect x="238.94" y="500.57" width="65.48" height="109.87" style="fill: #ffaca9;"/>
  <path d="M304.42,500.57v57.1c-2.71.67-5.49,1.14-8.32,1.42-20.22,1.97-41.05-11.82-57.16-32.4v-26.12h65.48Z" style="fill: #fc9292;"/>
  <path d="M282.05,368.27c-7.49,1.54-49.7,7.51-59.8,38.77-16.67,51.57,26.78,144.94,83.64,139.85,82.66-7.4,79.97-103.28,58.9-157.91-10.93-28.33-58.09-25.76-82.75-20.71Z" style="fill: #ffaca9;"/>
  <path d="M305.37,415.77v-8.59c0-1.37-1.16-2.48-2.58-2.48h-9.51c-1.43,0-2.58,1.11-2.58,2.48v8.59c0,1.71-1.45,3.1-3.24,3.1h-74.17c-4.37,0-7.73-3.77-7.34-8.13,4.11-45.98,42.74-82.02,89.82-82.02s87.76,37.96,90.09,85.67c.12,2.43-1.88,4.48-4.42,4.48h-72.83c-1.79,0-3.24-1.39-3.24-3.1Z" style="fill: #8e3951;"/>
  <path d="M250.7,380.12l-5.44,62.5c-.52,5.97-7.16,9.64-13.21,7.37-16.23-6.11-27.08-20.89-25.67-37.12,1.75-20.07,21.59-34.72,44.32-32.75Z" style="fill: #8e3951;"/>
  <ellipse cx="219.34" cy="452.46" rx="19.64" ry="30.31" transform="translate(-82.17 50.06) rotate(-10.98)" style="fill: #ffaca9;"/>
  <path d="M231.44,454.35c0-2.26-.04-10.78-6.02-17.16-3.14-3.36-8.81-6.35-13.96-3.17-2.9,1.79-3.61,5.58-3.78,6.87" style="fill: none; stroke: #8e3951; stroke-linecap: round; stroke-miterlimit: 10; stroke-width: 2px;"/>
  <line x1="284.75" y1="443.1" x2="316.22" y2="443.1" style="fill: none; stroke: #0a0a0a; stroke-linecap: round; stroke-miterlimit: 10; stroke-width: 4px;"/>
  <line x1="347.69" y1="443.1" x2="376.27" y2="443.1" style="fill: none; stroke: #0a0a0a; stroke-linecap: round; stroke-miterlimit: 10; stroke-width: 4px;"/>
  <circle cx="297.89" cy="461.57" r="8.45" style="fill: #0f0f0f;"/>
  <circle cx="356.9" cy="461.57" r="8.45" style="fill: #0f0f0f;"/>
  <path d="M330.58,469.69c8.2,4.46,10.58,11.2,7.03,15.39-2.46,2.91-7.19,3.89-9.04,4.2" style="fill: #ffaca9; stroke: #8e3951; stroke-linecap: round; stroke-miterlimit: 10; stroke-width: 2px;"/>
  <path d="M295.28,501.27h46.2c2.06,0,3.59,1.84,3.29,3.86-1.88,12.78-12.98,22.59-26.39,22.59-13.41,0-24.51-9.81-26.39-22.59-.3-2.03,1.23-3.86,3.29-3.86Z" style="fill: #fff;"/>
  <path d="M224.41,568.09c20.91,6.61,22.51,13.93,41.4,16.41,15.27,2,27.5-2.69,50.14-11.38,23.58-9.05,27.13-8.65,38.55-9.29,13.33-.76,27.55-.31,45.02,18.54,1.67,97.19,3.34,194.38,5.01,291.57h-239.57c2.64-97.86,5.29-195.73,7.93-293.59.26-9.64,4.82-12.79,12.93-13.67,9.98-1.08,25.7-2.65,38.58,1.42Z" style="fill: #a6c626;"/>
  <path d="M120.98,639.6c-14.56,32.63-29.11,65.25-43.67,97.88-13.91,32.46-13.35,72.48-.2,89,14.15,17.78,39.19,3.75,52.86-32.72,17.05-37.34,34.1-74.67,51.15-112.01-20.05-14.05-40.09-28.1-60.14-42.15Z" style="fill: #ffaca9;"/>
  <path d="M192.39,567.39c-20.07-5.01-47.18,9.27-50.09,12.23-13.49,14.1-28.96,32.85-43.23,56.74-20.88,34.96-31.37,67.82-36.93,91.86,7.76,6.21,21.08,15.29,39.63,20.71,7.15,2.09,37.02,10.83,63.95,0,47.24-19.01,60.64-88.32,51.34-134.19-2.89-14.28-2.05-41.71-24.67-47.36Z" style="fill: #a6c626;"/>
  <path d="M72.96,807.96l1.16-21.09c.8-14.58,11.78-25.83,24.52-25.12l202.74,28.12.54,40.52-207.35,5.24c-12.74-.7-22.42-13.09-21.62-27.67Z" style="fill: #ffaca9;"/>
  <circle cx="232.28" cy="339.6" r="47.07" style="fill: #8e3951;"/>
  <path d="M216.12,568.8c-1.75,7.75,21.71,28.11,46.12,30.92,34.78,4,69.54-20.29,67.62-29.12-1.54-7.08-27.36,4.7-58.18,4.8-27.99.09-53.83-14.24-55.56-6.6Z" style="fill: #ffaca9;"/>
  <path d="M380.6,568.15c9.94-1.73,21,7.54,33.45,18.21,48.38,41.46,61.34,91.01,64.56,124.17-37.17,2.62-74.34,5.24-111.51,7.86-8.52-68.5-12.75-145.69,13.5-150.25Z" style="fill: #a6c626;"/>
  <path d="M274.88,789.71c9.85-4.54,13.24.58,40.97-.41,25.55-.92,36.97-5.78,47.47.82,4.54,2.85,6.44,6.3,8.99,11.07,3.67,6.86,9.69,21.49,5,43.04-1.84,11.64-6.79,15.61-10.49,17.21-16.1,6.98-34.78-19.45-79.45-25-14.9-1.85-22.26-.09-27.48-5.33-9.66-9.69-2.18-33.48,14.99-41.4Z" style="fill: #ffaca9;"/>
  <rect x="508.32" y="203.4" width="450.41" height="298.57" rx="19.91" ry="19.91" style="fill: #fff;"/>
  <rect x="534.84" y="255.31" width="185.42" height="24.82" rx="6.81" ry="6.81" style="fill: #d0ef50;"/>
  <rect x="748.49" y="255.07" width="185.42" height="24.82" rx="6.81" ry="6.81" style="fill: #d0ef50;"/>
  <rect x="534.84" y="309" width="185.42" height="24.82" rx="6.81" ry="6.81" style="fill: #d0ef50;"/>
  <rect x="748.49" y="309" width="185.42" height="24.82" rx="6.81" ry="6.81" style="fill: #d0ef50;"/>
  <rect x="534.84" y="362.19" width="185.42" height="24.82" rx="6.81" ry="6.81" style="fill: #d0ef50;"/>
  <rect x="748.49" y="362.19" width="185.42" height="24.82" rx="6.81" ry="6.81" style="fill: #d0ef50;"/>
  <rect x="545.52" y="445.54" width="92.27" height="30.76" rx="8.04" ry="8.04" style="fill: #ea550f;"/>
  <path d="M519.93,873.93h-233.67c-9.3,0-15.88-9.01-12.97-17.76l53.72-161.46c1.84-5.54,7.07-9.29,12.97-9.29h233.67c9.3,0,15.88,9.01,12.97,17.76l-53.72,161.46c-1.84,5.54-7.07,9.29-12.97,9.29Z" style="fill: #192f35;"/>
  <line x1="202.97" y1="865.37" x2="291.99" y2="865.37" style="fill: none; stroke: #192f35; stroke-linecap: round; stroke-miterlimit: 10; stroke-width: 15px;"/>
  <image width="1024" height="1024" transform="translate(412.33 748.26) rotate(2.01) scale(.05)" xlink:href="../../../../../../Downloads/Techysquad-Logo-01.png"/>
  <line x1="72.92" y1="873.93" x2="958.73" y2="878.74" style="fill: none; stroke: #000; stroke-linecap: round; stroke-linejoin: round; stroke-width: 3px;"/>
</svg>