<svg width="163" height="163" viewBox="0 0 163 163" fill="none" xmlns="http://www.w3.org/2000/svg">
<rect width="163" height="163" rx="8" fill="#F5F5F5"/>
<path d="M72.9524 54.1658C68.5503 60.7638 68 69.392 68 69.392V144H100V69.392C100 69.392 99.4497 60.7638 95.0476 54.1658C90.6455 47.5678 84 43 84 43C84 43 77.3545 47.5678 72.9524 54.1658Z" fill="#A6C626"/>
<path d="M58.7024 97.196C57.1892 100.266 57 104.281 57 104.281V139H68V104.281C68 104.281 67.8108 100.266 66.2976 97.196C64.7844 94.1256 62.5 92 62.5 92C62.5 92 60.2156 94.1256 58.7024 97.196Z" fill="#EA550F"/>
<path d="M101.702 98.196C100.189 101.266 100 105.281 100 105.281V140H111V105.281C111 105.281 110.811 101.266 109.298 98.196C107.784 95.1256 105.5 93 105.5 93C105.5 93 103.216 95.1256 101.702 98.196Z" fill="#EA550F"/>
<circle cx="98.5" cy="42.5" r="2.5" fill="#D9D9D9"/>
<line x1="98.6692" y1="41.3751" x2="102.375" y2="29.3308" stroke="#D9D9D9" stroke-linecap="round"/>
<line x1="102.329" y1="29" x2="114.671" y2="29" stroke="#D9D9D9" stroke-linecap="round"/>
<circle cx="2.5" cy="2.5" r="2.5" transform="matrix(1 0 0 -1 112 80)" fill="#D9D9D9"/>
<line x1="0.5" y1="-0.5" x2="13.1015" y2="-0.5" transform="matrix(0.294086 0.955779 0.955779 -0.294086 115 78)" stroke="#D9D9D9" stroke-linecap="round"/>
<line x1="0.5" y1="-0.5" x2="12.8417" y2="-0.5" transform="matrix(1 0 0 -1 117.829 90.5)" stroke="#D9D9D9" stroke-linecap="round"/>
<circle cx="57.6708" cy="62.5" r="2.5" transform="rotate(180 57.6708 62.5)" fill="#D9D9D9"/>
<line x1="57.5016" y1="63.6249" x2="53.7957" y2="75.6692" stroke="#D9D9D9" stroke-linecap="round"/>
<line x1="53.8417" y1="76" x2="41.5" y2="76" stroke="#D9D9D9" stroke-linecap="round"/>
<rect x="111" y="20" width="30" height="18" rx="3" fill="white"/>
<rect x="14" y="67" width="30" height="18" rx="3" fill="white"/>
<rect x="123" y="81" width="30" height="18" rx="3" fill="white"/>
<circle cx="137" cy="25" r="9" fill="#FF0000"/>
<circle cx="137" cy="25" r="8" fill="white"/>
<circle cx="137" cy="25" r="7" fill="#FF0000"/>
<circle cx="137" cy="25" r="6" fill="white"/>
<circle cx="137" cy="25" r="5" fill="#FF0000"/>
<circle cx="137" cy="25" r="4" fill="white"/>
<circle cx="137" cy="25" r="3" fill="#FF0000"/>
<line x1="113.5" y1="27.5" x2="124.5" y2="27.5" stroke="#C6C6C6" stroke-linecap="round"/>
<line x1="113.5" y1="30.5" x2="126.5" y2="30.5" stroke="#C6C6C6" stroke-linecap="round"/>
<line x1="113.5" y1="33.5" x2="129.5" y2="33.5" stroke="#C6C6C6" stroke-linecap="round"/>
<circle cx="26" cy="70" r="9" fill="#EA550F"/>
<path d="M26 61V79M23 61.5C23 61.5 20 66 20 70C20 74 22 78 22 78" stroke="white" stroke-width="0.5" stroke-linecap="round"/>
<path d="M26 61V79M29 61.5C29 61.5 32 66 32 70C32 74 30 78 30 78" stroke="white" stroke-width="0.5" stroke-linecap="round"/>
<path d="M19 64.5C20 65 23 66 26 66C29 66 31.5 65 33 64.5" stroke="white" stroke-width="0.5" stroke-linecap="round"/>
<path d="M19 75C20 74.5 23 73.5 26 73.5C29 73.5 31.5 74.5 33 75" stroke="white" stroke-width="0.5" stroke-linecap="round"/>
<path d="M17 69.5C17 69.5 20.5 70 26.5 70C32.5 70 35 69.5 35 69.5" stroke="white" stroke-width="0.5" stroke-linecap="round"/>
<path d="M17 82H41" stroke="#D9D9D9" stroke-width="2" stroke-linecap="round"/>
<circle cx="140" cy="99" r="8" fill="white" stroke="#A6C626" stroke-width="2"/>
<line x1="139.5" y1="94.5" x2="139.5" y2="98.5" stroke="#EA550F" stroke-linecap="round"/>
<line x1="144.329" y1="101.224" x2="139.224" y2="98.6708" stroke="#EA550F" stroke-linecap="round"/>
<line x1="128.75" y1="84.25" x2="147.25" y2="84.25" stroke="#D9D9D9" stroke-width="1.5" stroke-linecap="round"/>
<line x1="128.75" y1="87.25" x2="147.25" y2="87.25" stroke="#D9D9D9" stroke-width="1.5" stroke-linecap="round"/>
</svg>
