<?xml version="1.0" encoding="UTF-8"?>
<svg id="Layer_1" xmlns="http://www.w3.org/2000/svg" viewBox="0 0 1024 1024">
  <defs>
    <style>
      .cls-1 {
        fill: #fff;
      }

      .cls-2 {
        stroke: #fff;
        stroke-width: 20px;
      }

      .cls-2, .cls-3 {
        fill: none;
        stroke-linecap: round;
        stroke-miterlimit: 10;
      }

      .cls-4 {
        fill: #ea550f;
      }

      .cls-3 {
        stroke: #ea550f;
        stroke-width: 24px;
      }
    </style>
  </defs>
  <circle class="cls-4" cx="512" cy="504.42" r="253.7"/>
  <path class="cls-3" d="M778.95,721.4c-63.06,73.88-156.86,120.72-261.6,120.72-189.87,0-343.79-153.92-343.79-343.79s153.92-343.79,343.79-343.79c103.41,0,196.16,45.66,259.18,117.91"/>
  <line class="cls-2" x1="589.18" y1="513.41" x2="372.32" y2="512"/>
  <path class="cls-1" d="M663.72,508.65c-28.4-5.42-53.16-19.94-72.39-48.3-4.12-2.75-9.65.2-9.65,5.16v96.61c0,4.96,5.53,7.91,9.65,5.16,16.84-26.04,42.47-41.78,72.39-48.3,3.68-2.46,3.68-7.87,0-10.32Z"/>
</svg>