<svg width="467" height="376" viewBox="0 0 467 376" fill="none" xmlns="http://www.w3.org/2000/svg">
<rect width="467" height="376" rx="34" fill="white"/>
<path d="M0 35C0 15.67 15.67 0 35 0H113V376H35C15.67 376 0 360.33 0 341V35Z" fill="black"/>
<path d="M113 0H437C453.569 0 467 13.4315 467 30V39H113V0Z" fill="#EA550F"/>
<circle cx="427" cy="19" r="10" fill="#FF9F73"/>
<rect x="291" y="9" width="113" height="20" rx="4" fill="#FF7332"/>
<rect x="128" y="58" width="122" height="141" rx="10" fill="#F5F5F5"/>
<rect x="128" y="213" width="320" height="141" rx="10" fill="#EA550F"/>
<rect x="262" y="58" width="186" height="92" rx="10" fill="#F5F5F5"/>
<rect x="262" y="158" width="89" height="41" rx="8" fill="#F5F5F5"/>
<rect x="135" y="166" width="50" height="7" rx="3.5" fill="#E4E4E4"/>
<rect x="194" y="166" width="47" height="7" rx="3.5" fill="#E4E4E4"/>
<rect x="270" y="170" width="42" height="7" rx="3.5" fill="#E4E4E4"/>
<rect x="135" y="179" width="50" height="7" rx="3.5" fill="#E4E4E4"/>
<rect x="194" y="179" width="47" height="7" rx="3.5" fill="#E4E4E4"/>
<rect x="359" y="158" width="89" height="41" rx="8" fill="#F5F5F5"/>
<path d="M156 323L195 284" stroke="#FF9F73" stroke-width="3" stroke-linecap="round"/>
<path d="M153 299L192 260" stroke="#C33E00" stroke-width="3" stroke-linecap="round"/>
<path d="M195 284L233 309" stroke="#FF9F73" stroke-width="3" stroke-linecap="round"/>
<path d="M192 260L274 318" stroke="#C33E00" stroke-width="3" stroke-linecap="round"/>
<path d="M233 309L270.857 238.029" stroke="#FF9F73" stroke-width="3" stroke-linecap="round"/>
<path d="M274 317.971L300 295" stroke="#C33E00" stroke-width="3" stroke-linecap="round"/>
<path d="M325 306.971L370 256" stroke="#C33E00" stroke-width="3" stroke-linecap="round"/>
<path d="M271 238L300 278" stroke="#FF9F73" stroke-width="3" stroke-linecap="round"/>
<path d="M300 278L324.634 246.379" stroke="#FF9F73" stroke-width="3" stroke-linecap="round"/>
<path d="M325 246L370 311" stroke="#FF9F73" stroke-width="3" stroke-linecap="round"/>
<path d="M300 295L325 307" stroke="#C33E00" stroke-width="3" stroke-linecap="round"/>
<path d="M370 256L391 275" stroke="#C33E00" stroke-width="3" stroke-linecap="round"/>
<path d="M370 311L412.961 274.918" stroke="#FF9F73" stroke-width="3" stroke-linecap="round"/>
<rect x="23" y="29" width="67" height="27" rx="8" fill="#373737"/>
<rect x="23" y="149" width="67" height="12" rx="3" fill="#373737"/>
<rect x="23" y="179" width="67" height="12" rx="3" fill="#373737"/>
<rect x="23" y="209" width="67" height="12" rx="3" fill="#373737"/>
<rect x="23" y="119" width="67" height="12" rx="3" fill="#373737"/>
<rect x="24" y="83" width="67" height="18" rx="3" fill="#EA550F"/>
<rect x="264" y="338" width="5" height="5" fill="#C33E00"/>
<rect x="304" y="338" width="5" height="5" fill="#FF9F73"/>
<path d="M272.288 342V339.18H273.364C273.692 339.18 273.969 339.236 274.196 339.348C274.423 339.46 274.593 339.621 274.708 339.832C274.825 340.04 274.884 340.292 274.884 340.588C274.884 340.881 274.825 341.133 274.708 341.344C274.593 341.555 274.423 341.717 274.196 341.832C273.969 341.944 273.692 342 273.364 342H272.288ZM272.912 341.488H273.328C273.643 341.488 273.876 341.415 274.028 341.268C274.183 341.119 274.26 340.892 274.26 340.588C274.26 340.281 274.183 340.055 274.028 339.908C273.876 339.761 273.643 339.688 273.328 339.688H272.912V341.488ZM276.354 342.044C276.002 342.044 275.727 341.949 275.53 341.76C275.333 341.571 275.234 341.313 275.234 340.988C275.234 340.777 275.275 340.593 275.358 340.436C275.443 340.279 275.561 340.156 275.71 340.068C275.862 339.977 276.039 339.932 276.242 339.932C276.442 339.932 276.609 339.975 276.742 340.06C276.878 340.145 276.979 340.265 277.046 340.42C277.115 340.572 277.15 340.749 277.15 340.952V341.092H275.73V340.792H276.71L276.642 340.848C276.642 340.68 276.607 340.553 276.538 340.468C276.471 340.38 276.374 340.336 276.246 340.336C276.105 340.336 275.995 340.388 275.918 340.492C275.843 340.596 275.806 340.745 275.806 340.94V341.004C275.806 341.201 275.854 341.348 275.95 341.444C276.049 341.54 276.19 341.588 276.374 341.588C276.483 341.588 276.586 341.575 276.682 341.548C276.781 341.519 276.874 341.473 276.962 341.412L277.13 341.812C277.029 341.887 276.911 341.944 276.778 341.984C276.647 342.024 276.506 342.044 276.354 342.044ZM277.533 342.864V340.5C277.533 340.415 277.53 340.328 277.525 340.24C277.52 340.149 277.512 340.06 277.501 339.972H278.081L278.129 340.368H278.085C278.125 340.235 278.209 340.129 278.337 340.052C278.465 339.972 278.612 339.932 278.777 339.932C278.953 339.932 279.108 339.975 279.241 340.06C279.374 340.143 279.478 340.263 279.553 340.42C279.63 340.577 279.669 340.765 279.669 340.984C279.669 341.205 279.63 341.395 279.553 341.552C279.478 341.709 279.374 341.831 279.241 341.916C279.108 342.001 278.953 342.044 278.777 342.044C278.614 342.044 278.469 342.005 278.341 341.928C278.216 341.851 278.132 341.748 278.089 341.62H278.137V342.864H277.533ZM278.593 341.588C278.734 341.588 278.848 341.539 278.933 341.44C279.018 341.341 279.061 341.189 279.061 340.984C279.061 340.779 279.018 340.628 278.933 340.532C278.848 340.436 278.734 340.388 278.593 340.388C278.454 340.388 278.341 340.436 278.253 340.532C278.168 340.628 278.125 340.779 278.125 340.984C278.125 341.189 278.168 341.341 278.253 341.44C278.341 341.539 278.454 341.588 278.593 341.588ZM281.021 342.044C280.805 342.044 280.617 342.001 280.457 341.916C280.299 341.828 280.177 341.705 280.089 341.548C280.003 341.391 279.961 341.203 279.961 340.984C279.961 340.768 280.003 340.581 280.089 340.424C280.177 340.267 280.299 340.145 280.457 340.06C280.617 339.975 280.805 339.932 281.021 339.932C281.237 339.932 281.425 339.975 281.585 340.06C281.745 340.145 281.867 340.267 281.953 340.424C282.041 340.581 282.085 340.768 282.085 340.984C282.085 341.203 282.041 341.391 281.953 341.548C281.867 341.705 281.745 341.828 281.585 341.916C281.425 342.001 281.237 342.044 281.021 342.044ZM281.021 341.588C281.159 341.588 281.269 341.539 281.349 341.44C281.431 341.341 281.473 341.189 281.473 340.984C281.473 340.779 281.431 340.628 281.349 340.532C281.269 340.436 281.159 340.388 281.021 340.388C280.882 340.388 280.771 340.436 280.689 340.532C280.609 340.628 280.569 340.779 280.569 340.984C280.569 341.189 280.609 341.341 280.689 341.44C280.771 341.539 280.882 341.588 281.021 341.588ZM283.223 342.044C283.041 342.044 282.876 342.024 282.727 341.984C282.577 341.944 282.451 341.888 282.347 341.816L282.503 341.416C282.607 341.48 282.721 341.531 282.847 341.568C282.975 341.605 283.101 341.624 283.227 341.624C283.344 341.624 283.431 341.605 283.487 341.568C283.543 341.531 283.571 341.48 283.571 341.416C283.571 341.363 283.552 341.321 283.515 341.292C283.48 341.263 283.425 341.241 283.351 341.228L282.939 341.152C282.765 341.117 282.633 341.053 282.543 340.96C282.452 340.867 282.407 340.745 282.407 340.596C282.407 340.465 282.441 340.351 282.511 340.252C282.583 340.151 282.685 340.072 282.819 340.016C282.952 339.96 283.108 339.932 283.287 339.932C283.439 339.932 283.583 339.951 283.719 339.988C283.855 340.025 283.971 340.083 284.067 340.16L283.903 340.548C283.82 340.487 283.724 340.437 283.615 340.4C283.508 340.363 283.405 340.344 283.307 340.344C283.179 340.344 283.087 340.365 283.031 340.408C282.975 340.448 282.947 340.5 282.947 340.564C282.947 340.612 282.963 340.652 282.995 340.684C283.029 340.716 283.081 340.74 283.151 340.756L283.567 340.832C283.745 340.864 283.881 340.924 283.975 341.012C284.068 341.1 284.115 341.221 284.115 341.376C284.115 341.517 284.077 341.637 284.003 341.736C283.928 341.835 283.823 341.911 283.687 341.964C283.553 342.017 283.399 342.044 283.223 342.044ZM284.49 342V339.972H285.094V342H284.49ZM284.466 339.64V339.076H285.114V339.64H284.466ZM286.536 342.044C286.272 342.044 286.073 341.979 285.94 341.848C285.807 341.715 285.74 341.516 285.74 341.252V340.424H285.356V339.972H285.74V339.476L286.344 339.328V339.972H286.864V340.424H286.344V341.22C286.344 341.348 286.371 341.436 286.424 341.484C286.477 341.532 286.545 341.556 286.628 341.556C286.679 341.556 286.72 341.553 286.752 341.548C286.787 341.54 286.823 341.529 286.86 341.516V341.984C286.809 342.005 286.756 342.02 286.7 342.028C286.644 342.039 286.589 342.044 286.536 342.044Z" fill="white"/>
<path d="M313.08 342L312.08 339.18H312.724L313.44 341.356H313.268L314.048 339.18H314.504L315.22 341.356H315.06L315.82 339.18H316.424L315.416 342H314.908L314.216 339.996H314.308L313.592 342H313.08ZM316.752 342V339.972H317.356V342H316.752ZM316.728 339.64V339.076H317.376V339.64H316.728ZM318.798 342.044C318.534 342.044 318.335 341.979 318.202 341.848C318.068 341.715 318.002 341.516 318.002 341.252V340.424H317.618V339.972H318.002V339.476L318.606 339.328V339.972H319.126V340.424H318.606V341.22C318.606 341.348 318.632 341.436 318.686 341.484C318.739 341.532 318.807 341.556 318.89 341.556C318.94 341.556 318.982 341.553 319.014 341.548C319.048 341.54 319.084 341.529 319.122 341.516V341.984C319.071 342.005 319.018 342.02 318.962 342.028C318.906 342.039 318.851 342.044 318.798 342.044ZM319.436 342V339.056H320.04V340.352H319.98C320.044 340.216 320.138 340.112 320.264 340.04C320.389 339.968 320.533 339.932 320.696 339.932C320.933 339.932 321.11 340.001 321.228 340.14C321.345 340.276 321.404 340.485 321.404 340.768V342H320.8V340.796C320.8 340.655 320.773 340.553 320.72 340.492C320.669 340.431 320.589 340.4 320.48 340.4C320.346 340.4 320.24 340.441 320.16 340.524C320.08 340.607 320.04 340.717 320.04 340.856V342H319.436ZM322.685 342.044C322.509 342.044 322.353 342.001 322.217 341.916C322.083 341.831 321.978 341.709 321.901 341.552C321.826 341.395 321.789 341.205 321.789 340.984C321.789 340.765 321.826 340.577 321.901 340.42C321.975 340.263 322.081 340.143 322.217 340.06C322.353 339.975 322.509 339.932 322.685 339.932C322.845 339.932 322.987 339.971 323.113 340.048C323.241 340.123 323.326 340.224 323.369 340.352H323.317V339.056H323.921V342H323.325V341.604H323.377C323.334 341.737 323.249 341.844 323.121 341.924C322.993 342.004 322.847 342.044 322.685 342.044ZM322.865 341.588C323.003 341.588 323.115 341.539 323.201 341.44C323.286 341.341 323.329 341.189 323.329 340.984C323.329 340.779 323.286 340.628 323.201 340.532C323.115 340.436 323.003 340.388 322.865 340.388C322.726 340.388 322.613 340.436 322.525 340.532C322.439 340.628 322.397 340.779 322.397 340.984C322.397 341.189 322.439 341.341 322.525 341.44C322.613 341.539 322.726 341.588 322.865 341.588ZM324.412 342V340.508C324.412 340.42 324.409 340.331 324.404 340.24C324.401 340.149 324.395 340.06 324.384 339.972H324.964L325.032 340.564H324.94C324.967 340.42 325.009 340.301 325.068 340.208C325.129 340.115 325.204 340.045 325.292 340C325.383 339.955 325.485 339.932 325.6 339.932C325.651 339.932 325.691 339.935 325.72 339.94C325.749 339.943 325.779 339.949 325.808 339.96L325.804 340.492C325.748 340.468 325.7 340.453 325.66 340.448C325.623 340.44 325.575 340.436 325.516 340.436C325.404 340.436 325.311 340.457 325.236 340.5C325.164 340.543 325.109 340.605 325.072 340.688C325.037 340.771 325.02 340.871 325.02 340.988V342H324.412ZM326.829 342.044C326.653 342.044 326.498 342.001 326.365 341.916C326.232 341.831 326.128 341.709 326.053 341.552C325.978 341.395 325.941 341.205 325.941 340.984C325.941 340.765 325.978 340.577 326.053 340.42C326.128 340.263 326.232 340.143 326.365 340.06C326.498 339.975 326.653 339.932 326.829 339.932C326.992 339.932 327.137 339.972 327.265 340.052C327.396 340.129 327.481 340.235 327.521 340.368H327.477L327.525 339.972H328.105C328.097 340.06 328.089 340.149 328.081 340.24C328.076 340.328 328.073 340.415 328.073 340.5V342H327.473L327.469 341.62H327.517C327.474 341.748 327.389 341.851 327.261 341.928C327.133 342.005 326.989 342.044 326.829 342.044ZM327.013 341.588C327.152 341.588 327.264 341.539 327.349 341.44C327.434 341.341 327.477 341.189 327.477 340.984C327.477 340.779 327.434 340.628 327.349 340.532C327.264 340.436 327.152 340.388 327.013 340.388C326.874 340.388 326.762 340.436 326.677 340.532C326.592 340.628 326.549 340.779 326.549 340.984C326.549 341.189 326.59 341.341 326.673 341.44C326.758 341.539 326.872 341.588 327.013 341.588ZM329.121 342L328.305 339.972H328.925L329.461 341.432H329.357L329.897 339.972H330.297L330.833 341.432H330.749L331.277 339.972H331.861L331.049 342H330.529L329.953 340.504H330.197L329.641 342H329.121Z" fill="white"/>
<path d="M29.72 96V88.95H32.41C33.23 88.95 33.9233 89.09 34.49 89.37C35.0567 89.65 35.4833 90.0533 35.77 90.58C36.0633 91.1 36.21 91.73 36.21 92.47C36.21 93.2033 36.0633 93.8333 35.77 94.36C35.4833 94.8867 35.0567 95.2933 34.49 95.58C33.9233 95.86 33.23 96 32.41 96H29.72ZM31.28 94.72H32.32C33.1067 94.72 33.69 94.5367 34.07 94.17C34.4567 93.7967 34.65 93.23 34.65 92.47C34.65 91.7033 34.4567 91.1367 34.07 90.77C33.69 90.4033 33.1067 90.22 32.32 90.22H31.28V94.72ZM39.3048 96.11C38.8648 96.11 38.4782 96.0033 38.1448 95.79C37.8115 95.5767 37.5515 95.2733 37.3648 94.88C37.1782 94.4867 37.0848 94.0133 37.0848 93.46C37.0848 92.9133 37.1782 92.4433 37.3648 92.05C37.5515 91.6567 37.8115 91.3567 38.1448 91.15C38.4782 90.9367 38.8648 90.83 39.3048 90.83C39.7115 90.83 40.0748 90.93 40.3948 91.13C40.7215 91.3233 40.9348 91.5867 41.0348 91.92H40.9248L41.0448 90.93H42.4948C42.4748 91.15 42.4548 91.3733 42.4348 91.6C42.4215 91.82 42.4148 92.0367 42.4148 92.25V96H40.9148L40.9048 95.05H41.0248C40.9182 95.37 40.7048 95.6267 40.3848 95.82C40.0648 96.0133 39.7048 96.11 39.3048 96.11ZM39.7648 94.97C40.1115 94.97 40.3915 94.8467 40.6048 94.6C40.8182 94.3533 40.9248 93.9733 40.9248 93.46C40.9248 92.9467 40.8182 92.57 40.6048 92.33C40.3915 92.09 40.1115 91.97 39.7648 91.97C39.4182 91.97 39.1382 92.09 38.9248 92.33C38.7115 92.57 38.6048 92.9467 38.6048 93.46C38.6048 93.9733 38.7082 94.3533 38.9148 94.6C39.1282 94.8467 39.4115 94.97 39.7648 94.97ZM45.5232 96.11C45.0699 96.11 44.6565 96.06 44.2832 95.96C43.9099 95.86 43.5932 95.72 43.3332 95.54L43.7232 94.54C43.9832 94.7 44.2699 94.8267 44.5832 94.92C44.9032 95.0133 45.2199 95.06 45.5332 95.06C45.8265 95.06 46.0432 95.0133 46.1832 94.92C46.3232 94.8267 46.3932 94.7 46.3932 94.54C46.3932 94.4067 46.3465 94.3033 46.2532 94.23C46.1665 94.1567 46.0299 94.1033 45.8432 94.07L44.8132 93.88C44.3799 93.7933 44.0499 93.6333 43.8232 93.4C43.5965 93.1667 43.4832 92.8633 43.4832 92.49C43.4832 92.1633 43.5699 91.8767 43.7432 91.63C43.9232 91.3767 44.1799 91.18 44.5132 91.04C44.8465 90.9 45.2365 90.83 45.6832 90.83C46.0632 90.83 46.4232 90.8767 46.7632 90.97C47.1032 91.0633 47.3932 91.2067 47.6332 91.4L47.2232 92.37C47.0165 92.2167 46.7765 92.0933 46.5032 92C46.2365 91.9067 45.9799 91.86 45.7332 91.86C45.4132 91.86 45.1832 91.9133 45.0432 92.02C44.9032 92.12 44.8332 92.25 44.8332 92.41C44.8332 92.53 44.8732 92.63 44.9532 92.71C45.0399 92.79 45.1699 92.85 45.3432 92.89L46.3832 93.08C46.8299 93.16 47.1699 93.31 47.4032 93.53C47.6365 93.75 47.7532 94.0533 47.7532 94.44C47.7532 94.7933 47.6599 95.0933 47.4732 95.34C47.2865 95.5867 47.0232 95.7767 46.6832 95.91C46.3499 96.0433 45.9632 96.11 45.5232 96.11ZM48.6923 96V88.64H50.2023V91.88H50.0523C50.2123 91.54 50.4489 91.28 50.7623 91.1C51.0756 90.92 51.4356 90.83 51.8423 90.83C52.4356 90.83 52.8789 91.0033 53.1723 91.35C53.4656 91.69 53.6123 92.2133 53.6123 92.92V96H52.1023V92.99C52.1023 92.6367 52.0356 92.3833 51.9023 92.23C51.7756 92.0767 51.5756 92 51.3023 92C50.9689 92 50.7023 92.1033 50.5023 92.31C50.3023 92.5167 50.2023 92.7933 50.2023 93.14V96H48.6923ZM57.9251 96.11C57.5184 96.11 57.1551 96.01 56.8351 95.81C56.5217 95.61 56.3117 95.3433 56.2051 95.01H56.3151V96H54.8251V88.64H56.3351V91.88H56.2051C56.3184 91.56 56.5317 91.3067 56.8451 91.12C57.1651 90.9267 57.5251 90.83 57.9251 90.83C58.3717 90.83 58.7617 90.9367 59.0951 91.15C59.4284 91.3633 59.6884 91.6667 59.8751 92.06C60.0684 92.4533 60.1651 92.9267 60.1651 93.48C60.1651 94.0267 60.0684 94.4967 59.8751 94.89C59.6884 95.2833 59.4251 95.5867 59.0851 95.8C58.7517 96.0067 58.3651 96.11 57.9251 96.11ZM57.4751 94.97C57.8151 94.97 58.0951 94.85 58.3151 94.61C58.5351 94.37 58.6451 93.9933 58.6451 93.48C58.6451 92.9667 58.5351 92.5867 58.3151 92.34C58.0951 92.0933 57.8151 91.97 57.4751 91.97C57.1284 91.97 56.8451 92.09 56.6251 92.33C56.4117 92.57 56.3051 92.9467 56.3051 93.46C56.3051 93.9733 56.4117 94.3533 56.6251 94.6C56.8451 94.8467 57.1284 94.97 57.4751 94.97ZM63.5434 96.11C63.0034 96.11 62.5334 96.0033 62.1334 95.79C61.7401 95.57 61.4334 95.2633 61.2134 94.87C61.0001 94.4767 60.8934 94.0067 60.8934 93.46C60.8934 92.92 61.0001 92.4533 61.2134 92.06C61.4334 91.6667 61.7401 91.3633 62.1334 91.15C62.5334 90.9367 63.0034 90.83 63.5434 90.83C64.0834 90.83 64.5534 90.9367 64.9534 91.15C65.3534 91.3633 65.6601 91.6667 65.8734 92.06C66.0934 92.4533 66.2034 92.92 66.2034 93.46C66.2034 94.0067 66.0934 94.4767 65.8734 94.87C65.6601 95.2633 65.3534 95.57 64.9534 95.79C64.5534 96.0033 64.0834 96.11 63.5434 96.11ZM63.5434 94.97C63.8901 94.97 64.1634 94.8467 64.3634 94.6C64.5701 94.3533 64.6734 93.9733 64.6734 93.46C64.6734 92.9467 64.5701 92.57 64.3634 92.33C64.1634 92.09 63.8901 91.97 63.5434 91.97C63.1968 91.97 62.9201 92.09 62.7134 92.33C62.5134 92.57 62.4134 92.9467 62.4134 93.46C62.4134 93.9733 62.5134 94.3533 62.7134 94.6C62.9201 94.8467 63.1968 94.97 63.5434 94.97ZM69.1486 96.11C68.7086 96.11 68.3219 96.0033 67.9886 95.79C67.6553 95.5767 67.3953 95.2733 67.2086 94.88C67.0219 94.4867 66.9286 94.0133 66.9286 93.46C66.9286 92.9133 67.0219 92.4433 67.2086 92.05C67.3953 91.6567 67.6553 91.3567 67.9886 91.15C68.3219 90.9367 68.7086 90.83 69.1486 90.83C69.5553 90.83 69.9186 90.93 70.2386 91.13C70.5653 91.3233 70.7786 91.5867 70.8786 91.92H70.7686L70.8886 90.93H72.3386C72.3186 91.15 72.2986 91.3733 72.2786 91.6C72.2653 91.82 72.2586 92.0367 72.2586 92.25V96H70.7586L70.7486 95.05H70.8686C70.7619 95.37 70.5486 95.6267 70.2286 95.82C69.9086 96.0133 69.5486 96.11 69.1486 96.11ZM69.6086 94.97C69.9553 94.97 70.2353 94.8467 70.4486 94.6C70.6619 94.3533 70.7686 93.9733 70.7686 93.46C70.7686 92.9467 70.6619 92.57 70.4486 92.33C70.2353 92.09 69.9553 91.97 69.6086 91.97C69.2619 91.97 68.9819 92.09 68.7686 92.33C68.5553 92.57 68.4486 92.9467 68.4486 93.46C68.4486 93.9733 68.5519 94.3533 68.7586 94.6C68.9719 94.8467 69.2553 94.97 69.6086 94.97ZM73.487 96V92.27C73.487 92.05 73.4803 91.8267 73.467 91.6C73.4603 91.3733 73.4436 91.15 73.417 90.93H74.867L75.037 92.41H74.807C74.8736 92.05 74.9803 91.7533 75.127 91.52C75.2803 91.2867 75.467 91.1133 75.687 91C75.9136 90.8867 76.1703 90.83 76.457 90.83C76.5836 90.83 76.6836 90.8367 76.757 90.85C76.8303 90.8567 76.9036 90.8733 76.977 90.9L76.967 92.23C76.827 92.17 76.707 92.1333 76.607 92.12C76.5136 92.1 76.3936 92.09 76.247 92.09C75.967 92.09 75.7336 92.1433 75.547 92.25C75.367 92.3567 75.2303 92.5133 75.137 92.72C75.0503 92.9267 75.007 93.1767 75.007 93.47V96H73.487ZM79.5104 96.11C79.0704 96.11 78.6804 96.0033 78.3404 95.79C78.0071 95.5767 77.7437 95.2733 77.5504 94.88C77.3637 94.4867 77.2704 94.0133 77.2704 93.46C77.2704 92.9133 77.3637 92.4433 77.5504 92.05C77.7371 91.6567 78.0004 91.3567 78.3404 91.15C78.6804 90.9367 79.0704 90.83 79.5104 90.83C79.9104 90.83 80.2671 90.9267 80.5804 91.12C80.9004 91.3067 81.1137 91.56 81.2204 91.88H81.0904V88.64H82.6004V96H81.1104V95.01H81.2404C81.1337 95.3433 80.9204 95.61 80.6004 95.81C80.2804 96.01 79.9171 96.11 79.5104 96.11ZM79.9604 94.97C80.3071 94.97 80.5871 94.8467 80.8004 94.6C81.0137 94.3533 81.1204 93.9733 81.1204 93.46C81.1204 92.9467 81.0137 92.57 80.8004 92.33C80.5871 92.09 80.3071 91.97 79.9604 91.97C79.6137 91.97 79.3304 92.09 79.1104 92.33C78.8971 92.57 78.7904 92.9467 78.7904 93.46C78.7904 93.9733 78.8971 94.3533 79.1104 94.6C79.3304 94.8467 79.6137 94.97 79.9604 94.97Z" fill="white"/>
<circle cx="190" cy="113" r="38" stroke="#A6C626" stroke-width="14"/>
<path d="M291 81V133" stroke="#EA550F" stroke-opacity="0.8" stroke-width="6" stroke-linecap="round"/>
<path d="M298 105V133" stroke="#A6C626" stroke-opacity="0.8" stroke-width="6" stroke-linecap="round"/>
<path d="M321 133V103" stroke="#EA550F" stroke-opacity="0.8" stroke-width="6" stroke-linecap="round"/>
<path d="M328 76V133" stroke="#A6C626" stroke-opacity="0.8" stroke-width="6" stroke-linecap="round"/>
<path d="M411 133V103" stroke="#EA550F" stroke-opacity="0.8" stroke-width="6" stroke-linecap="round"/>
<path d="M418 76V133" stroke="#A6C626" stroke-opacity="0.8" stroke-width="6" stroke-linecap="round"/>
<path d="M351 133V89" stroke="#EA550F" stroke-opacity="0.8" stroke-width="6" stroke-linecap="round"/>
<path d="M358 98V133" stroke="#A6C626" stroke-opacity="0.8" stroke-width="6" stroke-linecap="round"/>
<path d="M380 133V73" stroke="#EA550F" stroke-opacity="0.8" stroke-width="6" stroke-linecap="round"/>
<path d="M388 113V133" stroke="#A6C626" stroke-opacity="0.8" stroke-width="6" stroke-linecap="round"/>
<circle cx="332.5" cy="178.5" r="12.5" fill="#EA550F"/>
<circle cx="428.5" cy="178.5" r="12.5" fill="#EA550F"/>
<rect x="367" y="170" width="42" height="7" rx="3.5" fill="#E4E4E4"/>
</svg>
