<?xml version="1.0" encoding="UTF-8"?>
<svg id="Layer_40" xmlns="http://www.w3.org/2000/svg" xmlns:xlink="http://www.w3.org/1999/xlink" viewBox="0 0 1024 1024">
  <defs>
    <image id="image" width="512" height="512" xlink:href="../../images/homepage/dollar.png"/>
  </defs>
  <rect x="366.51" y="487.44" width="280.16" height="243.92" style="fill: #a6c626;"/>
  <rect x="366.51" y="618.23" width="280.16" height="243.92" style="fill: #ea550f;"/>
  <path d="M289.6,451.96h59.5v144.68h-69.37v-134.8c0-5.45,4.42-9.87,9.87-9.87Z" transform="translate(166 1117.36) rotate(-135)" style="fill: #ffaa9c;"/>
  <path d="M675.63,462.47h69.37v144.68h-59.5c-5.45,0-9.87-4.42-9.87-9.87v-134.8h0Z" transform="translate(-142.34 786.88) rotate(-53.45)" style="fill: #ffaa9c;"/>
  <path d="M347,417.1h31.13c13.24,0,23.99,10.75,23.99,23.99v113.78c0,4.43-3.59,8.02-8.02,8.02h-77.57c-2.74,0-4.96-2.22-4.96-4.96v-105.39c0-19.56,15.88-35.44,35.44-35.44Z" transform="translate(504.99 -97.78) rotate(50.21)" style="fill: #a6c626;"/>
  <path d="M614.53,414.38h77.57c4.43,0,8.02,3.59,8.02,8.02v125.07c0,13.24-10.75,23.99-23.99,23.99h-29.77c-20.31,0-36.8-16.49-36.8-36.8v-115.32c0-2.74,2.22-4.96,4.96-4.96Z" transform="translate(1441.07 261.29) rotate(126.61)" style="fill: #a6c626;"/>
  <polyline points="360.57 430.51 429.42 406.06 491.43 394.53 545.03 402.12 605.99 421.24 639.05 430.51 661.83 445 631.22 534.27 377.39 519.65 360.57 433.05" style="fill: #a6c626;"/>
  <rect x="460.48" y="334.76" width="78.67" height="108.31" style="fill: #f9a293;"/>
  <path d="M539.17,346.32v25.32c-8.46,6.01-19.64,10.29-35,12.42-5.76.81-11.63.74-17.38-.3-11.02-1.98-19.52-5.05-26.31-9.25v-28.2h78.69Z" style="fill: #ef8c7b;"/>
  <path d="M517.63,369.71c-5.68,1.28-11.55,1.69-17.34,1.14-37.25-3.59-47.77-21.74-58.66-50.79-2.01-5.37-3.37-10.96-4.1-16.62l-10.21-79.82,146.93-12.05,1,76.25c.13,9.88-.88,19.78-3.27,29.44-6.34,25.73-17.75,44.21-54.35,52.44v.02Z" style="fill: #ffab99;"/>
  <path d="M435.14,229.72c4.22-.14,7.02-3.8,8.26-5.01,9.36-9.11,42.79,19.62,70.83,22.03,36.97,3.17,78.22-17.36,84.79-46.36,3.71-16.43-6.14-35.05-18.85-44.73-25.28-19.23-72.82-11.31-112.05,26.54,3.38-16.62.89-21.91-1.94-23.69-8.83-5.58-36.39,12.97-43.2,37.52-.84,3.03-5.02,19.32,3.07,28.66.95,1.08,4.49,5.2,9.09,5.04v.02Z" style="fill: #131c38;"/>
  <path d="M426.19,215.47c-3.53,5.46-11.96,20.07-11.4,40.23.46,16.55,6.69,27.06,15.83,42.44,2.06,3.46,4.7,7.44,6.98,6.95,2.51-.54,3.24-6.36,3.56-8.98,1.87-15.81-2.41-51.63-4.86-70.19-3.37-3.49-6.74-6.97-10.11-10.46h0Z" style="fill: #131c38;"/>
  <path d="M578.56,221.88c3.48,3.86,11.96,14.32,13.39,29.74,1.17,12.67-3.1,21.22-9.33,33.73-1.41,2.82-3.26,6.07-5.24,5.88-2.15-.2-3.33-4.58-3.83-6.55-3.07-11.91-2.82-39.61-2.5-53.97,2.51-2.94,5.02-5.9,7.53-8.84h-.02Z" style="fill: #131c38;"/>
  <path d="M536.68,315.77c1.96-.16,3.55,1.51,3.33,3.47-1.33,11.08-12.47,20.36-26.71,21.53-14.24,1.17-26.74-6.19-29.86-16.89-.55-1.88.77-3.81,2.72-3.97l50.51-4.14h0Z" style="fill: #fff7f1;"/>
  <path d="M518.89,281.64l1.22,14.83c.17,2.04-1.34,3.82-3.39,3.99l-1.91.16" style="fill: none; stroke: #000; stroke-linecap: round; stroke-miterlimit: 10;"/>
  <ellipse cx="431.12" cy="302.83" rx="14.06" ry="26.74" transform="translate(-79.57 173.35) rotate(-20.86)" style="fill: #ffab99;"/>
  <ellipse cx="580.52" cy="288.09" rx="26.74" ry="14.06" transform="translate(182.64 799.64) rotate(-78.52)" style="fill: #ffab99;"/>
  <path d="M438.68,302.65c-2.07-4.57-4.13-9.16-6.2-13.73-1.24-2.75-4.12-4.53-7.09-4.06h-.1c-3.07.54-5.61,2.95-6.54,6.2" style="fill: none; stroke: #f28472; stroke-linecap: round; stroke-miterlimit: 10;"/>
  <path d="M574.84,291.91c1.29-4.85,2.58-9.71,3.88-14.55.77-2.91,3.32-5.15,6.34-5.16h.1c3.12.02,6.01,1.98,7.46,5.03" style="fill: none; stroke: #f28472; stroke-linecap: round; stroke-miterlimit: 10;"/>
  <line x1="466.39" y1="260.83" x2="499.13" y2="258.15" style="fill: none; stroke: #111; stroke-linecap: round; stroke-miterlimit: 10; stroke-width: 5px;"/>
  <line x1="529.67" y1="255.64" x2="562.41" y2="252.96" style="fill: none; stroke: #111; stroke-linecap: round; stroke-miterlimit: 10; stroke-width: 5px;"/>
  <circle cx="483.68" cy="280.57" r="7.28"/>
  <circle cx="544.59" cy="275.57" r="7.28"/>
  <path d="M459.9,400.59c9.94,13.83,25.04,28.65,34.98,42.48-10.16,10.16-22.26,19.76-35.62,29.49-12.75-23.12-25.5-46.25-38.26-69.37l38.9-2.59Z" style="fill: #f8ffff;"/>
  <path d="M538.03,401.68c-11.22,13.68-24.73,27.3-36.74,41.39,10.16,10.16,23.53,18.94,37.39,30.58,12.75-23.12,25.5-46.25,38.26-69.37l-38.9-2.59Z" style="fill: #f8ffff;"/>
  <path d="M177.4,424.04c-6.43,3.48-9.1,11.33-6.12,18.01,9.85,22.06,20.85,47.12,24.36,54.22,19.45,39.26,31.32,66.09,52.67,103.86.69,1.22,1.56,2.34,2.58,3.3,8.81,8.29,14.58,7.77,25.85,4.71,13.22-3.58,20.16-15.21,21.16-18.97,3.47-13.09-13.73-41.18-25.73-60.1-14.95-23.55-33.85-51.65-78.04-102.76-4.04-4.68-11.11-5.33-16.54-2.39-.07.04-.13.07-.2.11Z" style="fill: #ffaa9c;"/>
  <path d="M851.87,422.01c6.37,3.59,8.91,11.48,5.82,18.11-10.22,21.9-21.63,46.76-25.27,53.8-20.11,38.92-32.42,65.55-54.41,102.96-.71,1.21-1.6,2.32-2.64,3.26-8.94,8.14-14.71,7.52-25.93,4.28-13.15-3.8-19.91-15.55-20.84-19.33-3.25-13.15,14.42-40.94,26.74-59.65,15.34-23.3,34.72-51.08,79.76-101.43,4.12-4.61,11.19-5.15,16.58-2.11.06.04.13.07.19.11Z" style="fill: #ffaa9c;"/>
  <path d="M821.32,441.56c-.73-5.09,3.79-5.85,5.74-15.99,1.5-7.81-.4-11.41,2.54-15.92,2.5-3.83,6.66-5.51,9.54-6.33l17.97,1.63c2.31.21,4.4-1.35,4.86-3.62,1.55-7.68,3.45-17.95,4.46-25.19.21-1.5,1.42-2.66,2.93-2.8,7.95-.75,16.41-1.5,24.39-2.25,1.85-.17,3.48,1.22,3.58,3.08.49,8.62.96,19.49,1.58,27.54.04.48.73.53.83.06,2.5-11.26,3.8-15.86,6.5-28.23.78-1.64,2.32-2.73,3.9-2.73,2.21,0,4.35,2.16,4.32,5.03-4.4,19.81-7.18,30.62-11.59,50.43-1.43,1.98-3.99,5.1-7.97,7.79-15.31,10.34-33.02,1.7-40.5,11.72-3.11,4.17-1.08,7.04-4.4,9.4-7.63,5.43-27.24-3.48-28.68-13.61Z" style="fill: #ffaa9c;"/>
  <path d="M205.51,441.85c.73-5.09-3.79-5.85-5.74-15.99-1.5-7.81.4-11.41-2.54-15.92-2.5-3.83-6.66-5.51-9.54-6.33l-17.97,1.63c-2.31.21-4.4-1.35-4.86-3.62-1.55-7.68-3.45-17.95-4.46-25.19-.21-1.5-1.42-2.66-2.93-2.8-7.95-.75-16.41-1.5-24.39-2.25-1.85-.17-3.48,1.22-3.58,3.08-.49,8.62-.96,19.49-1.58,27.54-.04.48-.73.53-.83.06-2.5-11.26-3.8-15.86-6.5-28.23-.78-1.64-2.32-2.73-3.9-2.73-2.21,0-4.35,2.16-4.32,5.03,4.4,19.81,7.18,30.62,11.59,50.43,1.43,1.98,3.99,5.1,7.97,7.79,15.31,10.34,33.02,1.7,40.5,11.72,3.11,4.17,1.08,7.04,4.4,9.4,7.63,5.43,27.24-3.48,28.68-13.61Z" style="fill: #ffaa9c;"/>
  <use transform="translate(101.27 190.18) scale(.27)" xlink:href="#image"/>
  <rect x="142.32" y="450.47" width="299.29" height="234.46" rx="13.4" ry="13.4" style="fill: #f4f4f4;"/>
  <path d="M316.33,571.98c-.17,37.22-30.4,67.35-67.67,67.35s-67.66-30.3-67.66-67.67,29.85-67.23,66.85-67.66v67.97h68.47Z" style="fill: #ea550f;"/>
  <path d="M256.39,556.19l33.26-51.82c-7.62-8.4-17.64-10.95-29.69-9.65l-3.57,61.47Z" style="fill: #a6c626;"/>
  <path d="M260.67,561.38l65.97.77c4.17-19.72-3.49-36.94-23.79-51.5l-42.18,50.73Z" style="fill: #a6c626;"/>
  <use transform="translate(776.96 217.86) scale(.23)" xlink:href="#image"/>
  <rect x="304.95" y="522.18" width="402.41" height="294.21" rx="13.4" ry="13.4" style="fill: #fff; stroke: #192f35; stroke-miterlimit: 10; stroke-width: 8px;"/>
  <path d="M464.17,621.14h30.86c1.23,0,2.22,1,2.22,2.22v132.51h-35.3v-132.51c0-1.23,1-2.22,2.22-2.22Z" style="fill: #ea550f;"/>
  <path d="M338.69,621.14h28.09c1.71,0,3.1,1.39,3.1,3.1v131.63h-34.29v-131.63c0-1.71,1.39-3.1,3.1-3.1Z" style="fill: #a6c626;"/>
  <path d="M379.95,671.47h29.44c1.67,0,3.02,1.36,3.02,3.02v81.37h-35.49v-81.37c0-1.67,1.36-3.02,3.02-3.02Z" style="fill: #ea550f;"/>
  <path d="M422.82,690.47h29.6c1.83,0,3.32,1.49,3.32,3.32v62.08h-36.23v-62.08c0-1.83,1.49-3.32,3.32-3.32Z" style="fill: #a6c626;"/>
  <path d="M638.24,621.35h30.04c1.45,0,2.63,1.18,2.63,2.63v132.09h-35.3v-132.09c0-1.45,1.18-2.63,2.63-2.63Z" style="fill: #ea550f;"/>
  <path d="M512.38,638.82h28.04c1.73,0,3.13,1.4,3.13,3.13v114.13h-34.29v-114.13c0-1.73,1.4-3.13,3.13-3.13Z" style="fill: #a6c626;"/>
  <path d="M553.67,667.77h29.3c1.71,0,3.1,1.39,3.1,3.1v85.22h-35.49v-85.22c0-1.71,1.39-3.1,3.1-3.1Z" style="fill: #ea550f;"/>
  <polyline points="345.99 584.37 392.19 611.37 434.21 619.71 479.6 594.39 526.39 618.6 565.29 627.23 607.59 614.98 661.83 584.37" style="fill: none; stroke: #192f35; stroke-linecap: round; stroke-linejoin: round; stroke-width: 4px;"/>
  <circle cx="345.57" cy="584.37" r="9.98" style="fill: #192f35;"/>
  <circle cx="390.65" cy="610.2" r="9.98" style="fill: #192f35;"/>
  <circle cx="433.79" cy="618.82" r="9.98" style="fill: #192f35;"/>
  <circle cx="479.6" cy="594.35" r="9.98" style="fill: #192f35;"/>
  <circle cx="526.33" cy="617.25" r="9.98" style="fill: #192f35;"/>
  <circle cx="565.01" cy="627.23" r="9.98" style="fill: #192f35;"/>
  <circle cx="606.76" cy="613.31" r="9.98" style="fill: #192f35;"/>
  <circle cx="656.64" cy="585.39" r="9.98" style="fill: #192f35;"/>
  <path d="M596.54,648.69h29.45c1.87,0,3.39,1.52,3.39,3.39v104.01h-36.23v-104.01c0-1.87,1.52-3.39,3.39-3.39Z" style="fill: #a6c626;"/>
  <rect x="560.67" y="450.47" width="299.29" height="234.46" rx="13.4" ry="13.4" style="fill: #f4f4f4;"/>
  <path d="M309.26,773.8h394.44v25.63c0,9.37-7.6,16.97-16.97,16.97h-365.91c-6.38,0-11.56-5.18-11.56-11.56v-31.04h0Z" style="fill: #192f35;"/>
  <rect x="440.53" y="812.2" width="153.67" height="33.4" style="fill: #192f35;"/>
  <rect x="421.99" y="845.6" width="191.1" height="15.03" rx="6.89" ry="6.89" style="fill: #192f35;"/>
  <line x1="63.99" y1="860.62" x2="963.44" y2="860.62" style="fill: none; stroke: #192f35; stroke-linecap: round; stroke-linejoin: round; stroke-width: 3px;"/>
  <path d="M588.05,534.61h-.87v-3.95c0-1.17-.95-2.11-2.11-2.11s-2.11.95-2.11,2.11v3.95h-.88c-.97,0-1.76.79-1.76,1.76v32.55c0,1.07.86,1.93,1.93,1.93h.71v3.5c0,1.17.95,2.11,2.11,2.11s2.11-.95,2.11-2.11v-3.5h.7c1.07,0,1.93-.86,1.93-1.93v-32.55c0-.97-.79-1.76-1.76-1.76Z" style="fill: #ea550f;"/>
  <path d="M624.02,553.77h-.87v-3.95c0-1.17-.95-2.11-2.11-2.11s-2.11.95-2.11,2.11v3.95h-.88c-.97,0-1.76.79-1.76,1.76v32.55c0,1.07.86,1.93,1.93,1.93h.71v3.5c0,1.17.95,2.11,2.11,2.11s2.11-.95,2.11-2.11v-3.5h.7c1.07,0,1.93-.86,1.93-1.93v-32.55c0-.97-.79-1.76-1.76-1.76Z" style="fill: #ea550f;"/>
  <path d="M657.78,521.77h-.87v-3.95c0-1.17-.95-2.11-2.11-2.11s-2.11.95-2.11,2.11v3.95h-.88c-.97,0-1.76.79-1.76,1.76v32.55c0,1.07.86,1.93,1.93,1.93h.71v3.5c0,1.17.95,2.11,2.11,2.11s2.11-.95,2.11-2.11v-3.5h.7c1.07,0,1.93-.86,1.93-1.93v-32.55c0-.97-.79-1.76-1.76-1.76Z" style="fill: #ea550f;"/>
  <path d="M693.2,545.72h-.87v-3.95c0-1.17-.95-2.11-2.11-2.11s-2.11.95-2.11,2.11v3.95h-.88c-.97,0-1.76.79-1.76,1.76v32.55c0,1.07.86,1.93,1.93,1.93h.71v3.5c0,1.17.95,2.11,2.11,2.11s2.11-.95,2.11-2.11v-3.5h.7c1.07,0,1.93-.86,1.93-1.93v-32.55c0-.97-.79-1.76-1.76-1.76Z" style="fill: #ea550f;"/>
  <path d="M726.87,545.72h-.87v-3.95c0-1.17-.95-2.11-2.11-2.11s-2.11.95-2.11,2.11v3.95h-.88c-.97,0-1.76.79-1.76,1.76v32.55c0,1.07.86,1.93,1.93,1.93h.71v3.5c0,1.17.95,2.11,2.11,2.11s2.11-.95,2.11-2.11v-3.5h.7c1.07,0,1.93-.86,1.93-1.93v-32.55c0-.97-.79-1.76-1.76-1.76Z" style="fill: #ea550f;"/>
  <path d="M744.07,567.18h-.87v-3.95c0-1.17-.95-2.11-2.11-2.11s-2.11.95-2.11,2.11v3.95h-.88c-.97,0-1.76.79-1.76,1.76v32.55c0,1.07.86,1.93,1.93,1.93h.71v3.5c0,1.17.95,2.11,2.11,2.11s2.11-.95,2.11-2.11v-3.5h.7c1.07,0,1.93-.86,1.93-1.93v-32.55c0-.97-.79-1.76-1.76-1.76Z" style="fill: #a6c626;"/>
  <path d="M762.25,588.61h-.87v-3.95c0-1.17-.95-2.11-2.11-2.11s-2.11.95-2.11,2.11v3.95h-.88c-.97,0-1.76.79-1.76,1.76v32.55c0,1.07.86,1.93,1.93,1.93h.71v3.5c0,1.17.95,2.11,2.11,2.11s2.11-.95,2.11-2.11v-3.5h.7c1.07,0,1.93-.86,1.93-1.93v-32.55c0-.97-.79-1.76-1.76-1.76Z" style="fill: #ea550f;"/>
  <path d="M778.58,580.54h-.87v-3.95c0-1.17-.95-2.11-2.11-2.11s-2.11.95-2.11,2.11v3.95h-.88c-.97,0-1.76.79-1.76,1.76v32.55c0,1.07.86,1.93,1.93,1.93h.71v3.5c0,1.17.95,2.11,2.11,2.11s2.11-.95,2.11-2.11v-3.5h.7c1.07,0,1.93-.86,1.93-1.93v-32.55c0-.97-.79-1.76-1.76-1.76Z" style="fill: #a6c626;"/>
  <path d="M794.91,589.48h-.87v-3.95c0-1.17-.95-2.11-2.11-2.11s-2.11.95-2.11,2.11v3.95h-.88c-.97,0-1.76.79-1.76,1.76v32.55c0,1.07.86,1.93,1.93,1.93h.71v3.5c0,1.17.95,2.11,2.11,2.11s2.11-.95,2.11-2.11v-3.5h.7c1.07,0,1.93-.86,1.93-1.93v-32.55c0-.97-.79-1.76-1.76-1.76Z" style="fill: #ea550f;"/>
  <path d="M809.47,565.52h-.87v-3.95c0-1.17-.95-2.11-2.11-2.11s-2.11.95-2.11,2.11v3.95h-.88c-.97,0-1.76.79-1.76,1.76v32.55c0,1.07.86,1.93,1.93,1.93h.71v3.5c0,1.17.95,2.11,2.11,2.11s2.11-.95,2.11-2.11v-3.5h.7c1.07,0,1.93-.86,1.93-1.93v-32.55c0-.97-.79-1.76-1.76-1.76Z" style="fill: #a6c626;"/>
  <path d="M827.61,569.68h-.87v-3.95c0-1.17-.95-2.11-2.11-2.11s-2.11.95-2.11,2.11v3.95h-.88c-.97,0-1.76.79-1.76,1.76v32.55c0,1.07.86,1.93,1.93,1.93h.71v3.5c0,1.17.95,2.11,2.11,2.11s2.11-.95,2.11-2.11v-3.5h.7c1.07,0,1.93-.86,1.93-1.93v-32.55c0-.97-.79-1.76-1.76-1.76Z" style="fill: #ea550f;"/>
  <path d="M843.57,547.25h-.87v-3.95c0-1.17-.95-2.11-2.11-2.11s-2.11.95-2.11,2.11v3.95h-.88c-.97,0-1.76.79-1.76,1.76v32.55c0,1.07.86,1.93,1.93,1.93h.71v3.5c0,1.17.95,2.11,2.11,2.11s2.11-.95,2.11-2.11v-3.5h.7c1.07,0,1.93-.86,1.93-1.93v-32.55c0-.97-.79-1.76-1.76-1.76Z" style="fill: #a6c626;"/>
  <path d="M709.67,560.2h-.87v-3.95c0-1.17-.95-2.11-2.11-2.11s-2.11.95-2.11,2.11v3.95h-.88c-.97,0-1.76.79-1.76,1.76v32.55c0,1.07.86,1.93,1.93,1.93h.71v3.5c0,1.17.95,2.11,2.11,2.11s2.11-.95,2.11-2.11v-3.5h.7c1.07,0,1.93-.86,1.93-1.93v-32.55c0-.97-.79-1.76-1.76-1.76Z" style="fill: #a6c626;"/>
  <path d="M606.46,547.25h-.87v-3.95c0-1.17-.95-2.11-2.11-2.11s-2.11.95-2.11,2.11v3.95h-.88c-.97,0-1.76.79-1.76,1.76v32.55c0,1.07.86,1.93,1.93,1.93h.71v3.5c0,1.17.95,2.11,2.11,2.11s2.11-.95,2.11-2.11v-3.5h.7c1.07,0,1.93-.86,1.93-1.93v-32.55c0-.97-.79-1.76-1.76-1.76Z" style="fill: #a6c626;"/>
  <path d="M675.26,517.08h-.87v-3.95c0-1.17-.95-2.11-2.11-2.11s-2.11.95-2.11,2.11v3.95h-.88c-.97,0-1.76.79-1.76,1.76v32.55c0,1.07.86,1.93,1.93,1.93h.71v3.5c0,1.17.95,2.11,2.11,2.11s2.11-.95,2.11-2.11v-3.5h.7c1.07,0,1.93-.86,1.93-1.93v-32.55c0-.97-.79-1.76-1.76-1.76Z" style="fill: #a6c626;"/>
  <path d="M640.12,500.56h-.87v-3.95c0-1.17-.95-2.11-2.11-2.11s-2.11.95-2.11,2.11v3.95h-.88c-.97,0-1.76.79-1.76,1.76v32.55c0,1.07.86,1.93,1.93,1.93h.71v3.5c0,1.17.95,2.11,2.11,2.11s2.11-.95,2.11-2.11v-3.5h.7c1.07,0,1.93-.86,1.93-1.93v-32.55c0-.97-.79-1.76-1.76-1.76Z" style="fill: #a6c626;"/>
  <path d="M569.79,640.8l47.71,12.65c3.9,1.03,8.04-.42,10.44-3.66l7.85-10.59c4.85-6.55,13.07-9.69,21.06-8.04l92.89,20.09c6.33,1.37,12.79,2.06,19.27,2.06h14.08c7.44,0,14.79-1.59,21.56-4.67l47.15-21.43" style="fill: none; stroke: #192f35; stroke-linecap: round; stroke-linejoin: round; stroke-width: 2px;"/>
</svg>