<?xml version="1.0" encoding="UTF-8"?>
<svg id="Layer_44" xmlns="http://www.w3.org/2000/svg" viewBox="0 0 1024 718.47">
  <rect y="30" width="1024" height="654.13" rx="52.49" ry="52.49" style="fill: #a6c626;"/>
  <circle cx="306.52" cy="293.92" r="195.06" style="fill: #fff;"/>
  <circle cx="726.52" cy="293.92" r="195.06" style="fill: #fff;"/>
  <g>
    <ellipse cx="726.29" cy="233.26" rx="58.95" ry="45.24" style="fill: #aac121;"/>
    <ellipse cx="674.42" cy="332.93" rx="45.24" ry="58.84" transform="translate(-77.51 349.95) rotate(-27.57)" style="fill: #f1e03e;"/>
    <ellipse cx="782.6" cy="330.03" rx="58.62" ry="45.24" transform="translate(92.63 825.33) rotate(-58.54)" style="fill: #3586b3;"/>
    <path d="M677.03,305.77c-22.12-27.13-31.65-72.74-10.51-103.36,13.66-18.78,36.76-29.53,59.78-29.64,23.5-.34,47.39,10.42,61.09,29.86,12.81,18.48,12.04,43.64,7.45,64.08-3.34,13.91-8.75,27.33-17.3,38.92,0,0-9.34-6.1-9.34-6.1,11.94-21.87,18.28-56.89,7.92-80.2-8.99-17.83-30.09-27.56-49.65-27.27-17.36.1-34.5,7.66-45.3,21.27-10.74,14.32-11.45,33.79-8.57,51.02,2.11,12.3,6.56,24.33,13.16,35.04l-8.75,6.38h0Z" style="fill: #a6c626;"/>
    <ellipse cx="725.94" cy="182.41" rx="29.43" ry="36.02" style="fill: #84a00e;"/>
    <path d="M760.23,344.06c-13.81,32.17-49.83,61.72-86.76,57.15-22.97-3.42-43.19-18.92-53.95-39.27-11.18-20.67-12.7-46.83-1.81-67.98,10.45-19.91,33.12-30.87,53.35-36.26,13.88-3.47,28.28-4.9,42.51-2.68,0,0-1.08,11.1-1.08,11.1-24.91-.46-58.89,10.12-74.76,30.09-11.64,16.24-10.5,39.41-1.2,56.63,8.12,15.34,22.76,27.04,39.82,30.31,17.66,2.89,35.26-5.49,49.19-16.02,9.93-7.56,18.53-17.07,24.96-27.88l9.71,4.81h0Z" style="fill: #f1e03e;"/>
    <ellipse cx="628.24" cy="357.8" rx="36.02" ry="29.43" transform="translate(-94.26 331.4) rotate(-27.57)" style="fill: #cebb2c;"/>
    <path d="M747.95,251.48c34.69-4.71,78.57,10.97,93.65,44.99,8.89,21.46,6,46.77-5.91,66.46-11.97,20.22-33.62,34.99-57.36,36.53-22.45,1.28-43.51-12.51-58.55-27.09-10.12-10.11-18.75-21.73-24.17-35.07,0,0,10.08-4.79,10.08-4.79,12.42,21.59,38.98,45.29,64.27,48.61,19.92,1.63,39.2-11.27,49.17-28.11,10.23-17.03,12.43-39.76,1.82-57.02-8.11-12.57-21.52-21.12-35.37-26.66-11.59-4.62-24.18-7.11-36.75-7.06,0,0-.87-10.8-.87-10.8h0Z" style="fill: #3586b3;"/>
    <ellipse cx="826.47" cy="356.87" rx="29.43" ry="36.02" transform="translate(90.71 875.58) rotate(-58.54)" style="fill: #10668c;"/>
    <rect x="718.85" y="247.74" width="24.55" height="20.19" style="fill: #ea751c; stroke: #fff; stroke-miterlimit: 10;"/>
    <rect x="751.65" y="310.68" width="25.76" height="21.59" transform="translate(138 864.9) rotate(-63.74)" style="fill: #ea751c; stroke: #fff; stroke-miterlimit: 10;"/>
    <rect x="681.38" y="306.26" width="21.59" height="25.76" transform="translate(-66.37 393.81) rotate(-30.38)" style="fill: #ea751c; stroke: #fff; stroke-miterlimit: 10;"/>
  </g>
  <g>
    <ellipse cx="306.52" cy="231.62" rx="58.95" ry="45.24" style="fill: #aac121;"/>
    <ellipse cx="254.65" cy="331.28" rx="45.24" ry="58.84" transform="translate(-124.41 155.48) rotate(-27.57)" style="fill: #f1e03e;"/>
    <ellipse cx="362.83" cy="328.38" rx="58.62" ry="45.24" transform="translate(-106.65 466.48) rotate(-58.54)" style="fill: #3586b3;"/>
    <path d="M257.26,304.12c-22.12-27.13-31.65-72.74-10.51-103.36,13.66-18.78,36.76-29.53,59.78-29.64,23.5-.34,47.39,10.42,61.09,29.86,12.81,18.48,12.04,43.64,7.45,64.08-3.34,13.91-8.75,27.33-17.3,38.92,0,0-9.34-6.1-9.34-6.1,11.94-21.87,18.28-56.89,7.92-80.2-8.99-17.83-30.09-27.56-49.65-27.27-17.36.1-34.5,7.66-45.3,21.27-10.74,14.32-11.45,33.79-8.57,51.02,2.11,12.3,6.56,24.33,13.16,35.04,0,0-8.75,6.38-8.75,6.38h0Z" style="fill: #a6c626;"/>
    <ellipse cx="306.17" cy="180.76" rx="29.43" ry="36.02" style="fill: #84a00e;"/>
    <path d="M340.46,342.42c-13.81,32.17-49.83,61.72-86.76,57.15-22.97-3.42-43.19-18.92-53.95-39.27-11.18-20.67-12.7-46.83-1.81-67.98,10.45-19.91,33.12-30.87,53.35-36.26,13.88-3.47,28.28-4.9,42.51-2.68,0,0-1.08,11.1-1.08,11.1-24.91-.46-58.89,10.12-74.76,30.09-11.64,16.24-10.5,39.41-1.2,56.63,8.12,15.34,22.76,27.04,39.82,30.31,17.66,2.89,35.25-5.49,49.19-16.02,9.93-7.56,18.53-17.07,24.96-27.88l9.71,4.81h0Z" style="fill: #f1e03e;"/>
    <ellipse cx="208.47" cy="356.15" rx="36.02" ry="29.43" transform="translate(-141.17 136.93) rotate(-27.57)" style="fill: #cebb2c;"/>
    <path d="M328.18,249.84c34.69-4.71,78.57,10.97,93.65,44.99,8.89,21.46,6,46.77-5.91,66.46-11.97,20.22-33.62,34.99-57.36,36.53-22.45,1.28-43.51-12.51-58.55-27.09-10.12-10.11-18.75-21.73-24.17-35.07,0,0,10.08-4.79,10.08-4.79,12.42,21.59,38.98,45.29,64.27,48.61,19.92,1.63,39.2-11.27,49.17-28.11,10.23-17.03,12.43-39.76,1.82-57.02-8.11-12.57-21.52-21.12-35.37-26.66-11.59-4.62-24.18-7.11-36.75-7.06,0,0-.87-10.8-.87-10.8h0Z" style="fill: #3586b3;"/>
    <ellipse cx="406.7" cy="355.23" rx="29.43" ry="36.02" transform="translate(-108.57 516.74) rotate(-58.54)" style="fill: #10668c;"/>
    <rect x="299.08" y="246.1" width="24.55" height="20.19" style="fill: #ea751c; stroke: #fff; stroke-miterlimit: 10;"/>
    <rect x="331.87" y="309.04" width="25.76" height="21.59" transform="translate(-94.59 487.53) rotate(-63.74)" style="fill: #ea751c; stroke: #fff; stroke-miterlimit: 10;"/>
    <rect x="261.61" y="304.62" width="21.59" height="25.76" transform="translate(-123.16 181.33) rotate(-30.38)" style="fill: #ea751c; stroke: #fff; stroke-miterlimit: 10;"/>
  </g>
  <text transform="translate(217.66 595.12)" style="fill: #141414; font-family: ArialMT, Arial; font-size: 78px;"><tspan x="0" y="0">MT4</tspan></text>
  <text transform="translate(646.07 594.29)" style="fill: #141414; font-family: ArialMT, Arial; font-size: 78px;"><tspan x="0" y="0">MT5</tspan></text>
</svg>